<svg xmlns="http://www.w3.org/2000/svg" width="23.327" height="34" viewBox="0 0 23.327 34">
  <defs>
    <style>
      .cls-1 {
        fill: #002e7e;
      }
    </style>
  </defs>
  <g id="그룹_134" data-name="그룹 134" transform="translate(-656.183 -442.728)">
    <path id="패스_298" data-name="패스 298" class="cls-1" d="M667.846,476.728a.827.827,0,0,1-.6-.257c-.452-.475-11.064-15.835-11.064-22.079a11.663,11.663,0,1,1,23.327,0c0,6.244-10.612,21.6-11.064,22.079A.827.827,0,0,1,667.846,476.728Zm0-32.345a10.02,10.02,0,0,0-10.009,10.009c0,4.35,6.734,16.727,10.005,20.293,2.24-2.461,10.012-15.488,10.012-20.293A10.02,10.02,0,0,0,667.846,444.383Z" transform="translate(0 0)"/>
    <g id="그룹_133" data-name="그룹 133" transform="translate(661.302 447.406)">
      <path id="패스_299" data-name="패스 299" class="cls-1" d="M675.329,466.962a6.544,6.544,0,1,1,6.544-6.544A6.551,6.551,0,0,1,675.329,466.962Zm0-11.409a4.865,4.865,0,1,0,4.865,4.865A4.871,4.871,0,0,0,675.329,455.553Z" transform="translate(-668.785 -453.874)"/>
    </g>
  </g>
</svg>
