<svg xmlns="http://www.w3.org/2000/svg" width="34" height="23.796" viewBox="0 0 34 23.796">
  <defs>
    <style>
      .cls-1 {
        fill: #002e7e;
      }
    </style>
  </defs>
  <g id="그룹_135" data-name="그룹 135" transform="translate(-371.917 -437.142)">
    <path id="패스_301" data-name="패스 301" class="cls-1" d="M405.318,460.938h-32.8a.6.6,0,0,1-.6-.6v-22.6a.6.6,0,0,1,.6-.6h32.8a.6.6,0,0,1,.6.6v22.6A.6.6,0,0,1,405.318,460.938Zm-32.2-1.2h31.6v-21.4h-31.6Z"/>
    <path id="패스_302" data-name="패스 302" class="cls-1" d="M389.171,452.749a.593.593,0,0,1-.393-.15l-16.289-14.391a.614.614,0,0,1-.167-.672.6.6,0,0,1,.561-.395h32.579a.6.6,0,0,1,.561.395.614.614,0,0,1-.168.672L389.565,452.6A.594.594,0,0,1,389.171,452.749Zm-14.688-14.391,14.688,12.977,14.689-12.977Z" transform="translate(-0.255)"/>
    <path id="패스_303" data-name="패스 303" class="cls-1" d="M405.463,487.873H372.884a.6.6,0,0,1-.561-.395.614.614,0,0,1,.168-.672l12.977-11.465.787.917-11.769,10.4h29.377l-11.77-10.4.787-.917,12.977,11.465a.615.615,0,0,1,.168.672A.6.6,0,0,1,405.463,487.873Z" transform="translate(-0.256 -26.935)"/>
  </g>
</svg>
