<svg xmlns="http://www.w3.org/2000/svg" width="33.968" height="34" viewBox="0 0 33.968 34">
  <defs>
    <style>
      .cls-1 {
        fill: #002e7e;
      }
    </style>
  </defs>
  <path id="패스_300" data-name="패스 300" class="cls-1" d="M183.727,475.33c-4.813,0-12.668-2.994-18.372-8.717-6.944-6.968-10.278-17.768-8.136-21.721,1.029-1.9,4.6-3.562,7.648-3.562a7.055,7.055,0,0,1,2.188.324.783.783,0,0,1,.38.27c.153.2,3.731,4.97,3.048,8.865a.778.778,0,0,1-.076.225,8.55,8.55,0,0,1-2.777,3.157,33.35,33.35,0,0,0,3.849,6.122,34.205,34.205,0,0,0,6.226,3.949,8.558,8.558,0,0,1,3.156-2.774.775.775,0,0,1,.226-.076,6.033,6.033,0,0,1,1.041-.087c3.652,0,7.655,3.008,7.824,3.136a.783.783,0,0,1,.27.379c1.133,3.472-.9,8.566-3.239,9.836A6.848,6.848,0,0,1,183.727,475.33Zm-18.86-32.439c-2.653,0-5.6,1.5-6.276,2.745-1.661,3.064,1.2,13.188,7.869,19.876,5.345,5.363,12.885,8.257,17.266,8.257a5.437,5.437,0,0,0,2.511-.486c1.55-.84,3.329-4.9,2.568-7.745-.817-.577-3.972-2.673-6.68-2.673a4.558,4.558,0,0,0-.652.045c-.708.394-2.384,1.52-2.6,2.578a.78.78,0,0,1-1.114.538c-.226-.114-5.56-2.806-7.382-4.63-1.776-1.776-4.416-7.058-4.528-7.282a.78.78,0,0,1,.539-1.112c1.058-.219,2.184-1.894,2.578-2.6.41-2.82-2-6.446-2.628-7.331A5.706,5.706,0,0,0,164.867,442.891Z" transform="translate(-156.576 -441.33)"/>
</svg>
