<svg id="레이어_1" data-name="레이어 1" xmlns="http://www.w3.org/2000/svg" xmlns:xlink="http://www.w3.org/1999/xlink" viewBox="0 0 1495.6 636.43"><defs><style>.cls-1,.cls-11,.cls-6,.cls-7,.cls-8{fill:none;}.cls-2,.cls-4{fill:#fff;}.cls-2,.cls-3{opacity:0.2;}.cls-5{opacity:0.5;}.cls-11,.cls-6,.cls-7,.cls-8{stroke:#fff;}.cls-6,.cls-8{stroke-miterlimit:10;}.cls-6,.cls-7{stroke-width:2px;}.cls-11,.cls-7{stroke-miterlimit:8;}.cls-9{opacity:0.15;}.cls-10{clip-path:url(#clip-path);}.cls-11{stroke-width:1.74px;}</style><clipPath id="clip-path"><path class="cls-1" d="M893.76,212.32a102.36,102.36,0,0,0-16.18,25.36m0,0a102.27,102.27,0,1,0,16.18-25.36"/></clipPath></defs><rect class="cls-2" x="397.15" y="146.39" width="707.9" height="265.75"/><g class="cls-3"><rect class="cls-4" x="652.03" y="482.57" width="200" height="55.17"/></g><g class="cls-3"><rect class="cls-4" x="21.5" y="251.68" width="200" height="55.17"/></g><g class="cls-5"><line class="cls-6" x1="232.19" y1="286.05" x2="407.73" y2="286.05"/><polygon class="cls-4" points="406.27 291.04 414.9 286.05 406.27 281.06 406.27 291.04"/></g><g class="cls-5"><line class="cls-6" x1="239.36" y1="273.53" x2="414.9" y2="273.53"/><polygon class="cls-4" points="240.82 278.52 232.19 273.53 240.82 268.54 240.82 278.52"/></g><path class="cls-7" d="M752,177.14A102.18,102.18,0,1,0,854.16,279.27,102.13,102.13,0,0,0,752,177.14Z"/><path class="cls-4" d="M728.29,232a2.48,2.48,0,0,0-1.11-.79,4.42,4.42,0,0,0-1.61-.27,4.5,4.5,0,0,0-1.64.28,2.4,2.4,0,0,0-1.07.8,1.87,1.87,0,0,0-.37,1.14,1.66,1.66,0,0,0,.78,1.5,6.58,6.58,0,0,0,2.11.85l1.59.4a11.2,11.2,0,0,1,2.53.92,4.77,4.77,0,0,1,1.77,1.56,4.16,4.16,0,0,1,.68,2.4,4.56,4.56,0,0,1-.77,2.62,5,5,0,0,1-2.21,1.77,8.57,8.57,0,0,1-3.45.63,8.67,8.67,0,0,1-3.42-.61,5.05,5.05,0,0,1-2.27-1.8,5.17,5.17,0,0,1-.89-2.84h3a2.54,2.54,0,0,0,.54,1.45,3,3,0,0,0,1.26.89,4.83,4.83,0,0,0,1.75.3,4.71,4.71,0,0,0,1.78-.31,2.66,2.66,0,0,0,1.2-.86,2.09,2.09,0,0,0,.43-1.27,1.69,1.69,0,0,0-.37-1.07,2.73,2.73,0,0,0-1-.73,10.78,10.78,0,0,0-1.67-.56l-1.93-.5a7.46,7.46,0,0,1-3.36-1.67,3.82,3.82,0,0,1-1.16-2.88,4.39,4.39,0,0,1,.81-2.61,5.37,5.37,0,0,1,2.22-1.76,7.8,7.8,0,0,1,3.19-.63,7.68,7.68,0,0,1,3.16.62,5,5,0,0,1,2.15,1.74,4.48,4.48,0,0,1,.8,2.54h-2.94A2.36,2.36,0,0,0,728.29,232Z"/><path class="cls-4" d="M733.3,228.55h3.27l3.08,12.5h.16l3.26-12.5h3l3.28,12.51h.14l3.08-12.51h3.28l-4.78,17h-3l-3.39-11.93h-.14l-3.41,11.93h-3Z"/><path class="cls-4" d="M755.09,245.52l6-17h3.76l6,17h-3.25L763,232h-.14l-4.53,13.51Zm12.34-6.65v2.45h-8.95v-2.45Z"/><path class="cls-4" d="M772.86,228.55h6.35a6.85,6.85,0,0,1,3.26.72,4.84,4.84,0,0,1,2,2,6.1,6.1,0,0,1,.68,2.91,6,6,0,0,1-.69,2.92,4.93,4.93,0,0,1-2.06,2,7,7,0,0,1-3.27.71H775v-2.51h3.81a3.88,3.88,0,0,0,1.86-.4,2.5,2.5,0,0,0,1.1-1.08,3.82,3.82,0,0,0,0-3.24,2.48,2.48,0,0,0-1.1-1.07,4.15,4.15,0,0,0-1.87-.38H775.9v14.42h-3Z"/><path class="cls-4" d="M825.17,293.47a1.1,1.1,0,0,0,.33-.82A22.45,22.45,0,0,0,814.57,273l-1.45-.83,1-1.35a10,10,0,0,0,2.16-5.9,10.4,10.4,0,0,0-20.8,0,10,10,0,0,0,2.16,5.9l1,1.35-1.46.83a22.44,22.44,0,0,0-10.93,19.68,1.14,1.14,0,0,0,1.14,1.14h26.44a1.17,1.17,0,0,0,.84-.33,1.11,1.11,0,0,0,.34-.81,1.15,1.15,0,0,0-.34-.82,1.22,1.22,0,0,0-.82-.32H788.66l.21-1.69c1-7.75,5.68-14.15,12-16.31a1.13,1.13,0,0,0,.76-.92,1.15,1.15,0,0,0-.47-1.1,8.11,8.11,0,1,1,9.42,0,1.15,1.15,0,0,0,.27,2c7.4,2.53,12.37,10.23,12.37,19.14a1.15,1.15,0,0,0,2,.84Z"/><path class="cls-4" d="M717.54,293.47a1.18,1.18,0,0,0,.33-.82A22.45,22.45,0,0,0,706.94,273l-1.46-.83,1-1.35a10,10,0,0,0,2.15-5.9,10.4,10.4,0,1,0-20.79,0,10,10,0,0,0,2.15,5.9l1,1.35-1.45.83a22.43,22.43,0,0,0-10.94,19.68,1.15,1.15,0,0,0,1.15,1.14h26.44a1.19,1.19,0,0,0,.84-.33,1.11,1.11,0,0,0,.34-.81,1.15,1.15,0,0,0-.34-.82,1.22,1.22,0,0,0-.82-.32H681l.22-1.69c1-7.75,5.68-14.15,12-16.31a1.14,1.14,0,0,0,.28-2,8.12,8.12,0,1,1,9.42,0,1.15,1.15,0,0,0,.27,2c7.41,2.53,12.38,10.23,12.38,19.14a1.15,1.15,0,0,0,2,.84Z"/><line class="cls-8" x1="727.56" y1="272.44" x2="776.51" y2="272.44"/><polygon class="cls-4" points="728.29 274.93 723.97 272.44 728.29 269.94 728.29 274.93"/><polygon class="cls-4" points="775.78 274.93 780.09 272.44 775.78 269.94 775.78 274.93"/><path class="cls-4" d="M701.34,307.17h3.17a3.41,3.41,0,0,1,1.63.36,2.38,2.38,0,0,1,1,1,3,3,0,0,1,.34,1.46,2.86,2.86,0,0,1-.35,1.45,2.4,2.4,0,0,1-1,1,3.61,3.61,0,0,1-1.64.35h-2.11v-1.25h1.91a1.93,1.93,0,0,0,.92-.2,1.27,1.27,0,0,0,.56-.54,2,2,0,0,0,0-1.62,1.27,1.27,0,0,0-.56-.54,2.1,2.1,0,0,0-.93-.19h-1.42v7.21h-1.52Z"/><path class="cls-4" d="M711.67,312.88l-.81.06a1.64,1.64,0,0,0-.85.27.81.81,0,0,0-.17,1.09.86.86,0,0,0,.38.29,1.6,1.6,0,0,0,.56.09,1.66,1.66,0,0,0,.78-.18,1.28,1.28,0,0,0,.52-.48,1.2,1.2,0,0,0,.18-.65v-2a1,1,0,0,0-.13-.54.87.87,0,0,0-.39-.34,1.48,1.48,0,0,0-.63-.11,1.62,1.62,0,0,0-.57.09,1,1,0,0,0-.4.26.78.78,0,0,0-.21.4h-1.45a1.89,1.89,0,0,1,.39-1,2.16,2.16,0,0,1,.92-.68,3.55,3.55,0,0,1,1.36-.24,3.7,3.7,0,0,1,1.26.2,2,2,0,0,1,1.34,2v4.25h-1.43v-.87h0a1.73,1.73,0,0,1-.39.51,2.11,2.11,0,0,1-.63.35,2.23,2.23,0,0,1-.85.14,2.6,2.6,0,0,1-1.1-.22,1.64,1.64,0,0,1-.75-.65,1.86,1.86,0,0,1-.28-1,1.6,1.6,0,0,1,.66-1.43,3.53,3.53,0,0,1,1.71-.51l.67,0,.72,0h.31l0,1Z"/><path class="cls-4" d="M715.05,318v-1.2h.63a1.38,1.38,0,0,0,.38,0,.54.54,0,0,0,.28-.19,1.35,1.35,0,0,0,.26-.47l.13-.34-2.31-6.5H716l1.48,4.81h.06l1.48-4.81h1.59l-2.55,7.14a2.61,2.61,0,0,1-.83,1.2,2.29,2.29,0,0,1-1.41.41A7.51,7.51,0,0,1,715.05,318Z"/><path class="cls-4" d="M721.86,308.27a.89.89,0,0,1-.32-.29.76.76,0,0,1,0-.82.81.81,0,0,1,.32-.29.92.92,0,0,1,.43-.11,1,1,0,0,1,.44.11.78.78,0,0,1,.31.29.76.76,0,0,1,0,.82.86.86,0,0,1-.31.29,1,1,0,0,1-.44.11A.92.92,0,0,1,721.86,308.27Zm-.32,1H723v6.36h-1.5Z"/><path class="cls-4" d="M726,315.65h-1.5v-6.36h1.43v1.08H726a1.64,1.64,0,0,1,.41-.62,1.7,1.7,0,0,1,.64-.4,2.54,2.54,0,0,1,2,.14,1.89,1.89,0,0,1,.76.82,2.86,2.86,0,0,1,.27,1.29v4h-1.49v-3.82a1.64,1.64,0,0,0-.15-.73,1,1,0,0,0-.43-.47,1.27,1.27,0,0,0-.66-.16,1.49,1.49,0,0,0-.71.17,1.2,1.2,0,0,0-.47.5,1.6,1.6,0,0,0-.17.78Z"/><path class="cls-4" d="M732.78,317.94a2.22,2.22,0,0,1-1-.68,1.81,1.81,0,0,1-.41-1h1.49a.81.81,0,0,0,.23.46,1.09,1.09,0,0,0,.48.28,2.29,2.29,0,0,0,.68.09,1.63,1.63,0,0,0,1.09-.33,1.22,1.22,0,0,0,.39-1v-1.21h-.08v0a2.4,2.4,0,0,1-.37.5,1.93,1.93,0,0,1-.58.37,2.26,2.26,0,0,1-.87.15,2.51,2.51,0,0,1-1.34-.36,2.47,2.47,0,0,1-.94-1.07,3.86,3.86,0,0,1-.34-1.71,4.08,4.08,0,0,1,.34-1.75,2.43,2.43,0,0,1,2.29-1.46,2.17,2.17,0,0,1,.84.15,1.58,1.58,0,0,1,.56.38,2.82,2.82,0,0,1,.38.51l0,.09h.07v-1h1.47v6.47a2.19,2.19,0,0,1-1.43,2.15,4.75,4.75,0,0,1-3,0Zm2.29-3.78a1.52,1.52,0,0,0,.51-.67,2.74,2.74,0,0,0,.18-1.05,2.87,2.87,0,0,0-.18-1.06,1.43,1.43,0,0,0-.51-.7,1.33,1.33,0,0,0-.82-.25,1.32,1.32,0,0,0-.82.26,1.54,1.54,0,0,0-.52.71,2.8,2.8,0,0,0-.17,1,2.92,2.92,0,0,0,.17,1,1.5,1.5,0,0,0,.52.68,1.37,1.37,0,0,0,.82.24A1.46,1.46,0,0,0,735.07,314.16Z"/><path class="cls-4" d="M743.46,307.17l2.52,6.16h.1l2.53-6.16h1.87v8.48H749v-5.84h-.08l-2.35,5.82h-1.1l-2.36-5.84h-.07v5.86h-1.46v-8.48Z"/><path class="cls-4" d="M751.49,315.65l3-8.48h1.88l3,8.48h-1.63l-2.27-6.75h-.07l-2.26,6.75Zm6.17-3.32v1.22h-4.47v-1.22Z"/><path class="cls-4" d="M762.74,313.86h.09l2.21-6.69h1.67l-3,8.48h-1.88l-3-8.48h1.68Z"/><path class="cls-4" d="M770.21,307.17H777v1.28h-2.61v7.2h-1.52v-7.2h-2.62Z"/><path class="cls-4" d="M778.34,315.37a2.83,2.83,0,0,1-1.07-1.15,4.21,4.21,0,0,1,0-3.45,2.71,2.71,0,0,1,1.07-1.15,3.37,3.37,0,0,1,3.22,0,2.69,2.69,0,0,1,1.06,1.15,4.21,4.21,0,0,1,0,3.45,2.8,2.8,0,0,1-1.06,1.15,3.37,3.37,0,0,1-3.22,0Zm2.45-1.06a1.69,1.69,0,0,0,.52-.75,3.45,3.45,0,0,0,0-2.14,1.67,1.67,0,0,0-.52-.76,1.44,1.44,0,0,0-1.68,0,1.69,1.69,0,0,0-.53.76,3.25,3.25,0,0,0-.17,1.07,3.2,3.2,0,0,0,.17,1.07,1.66,1.66,0,0,0,.53.75,1.44,1.44,0,0,0,1.68,0Z"/><path class="cls-4" d="M784.16,307.17h1.49v8.48h-1.49Zm1.36,4.68h.24l2.29-2.56h1.74L787,312.42h-.3l-1.15,1.23Zm.56.9,1-1.05,2.86,3.95h-1.78Z"/><path class="cls-4" d="M791.6,315.38a2.68,2.68,0,0,1-1.07-1.14,4.13,4.13,0,0,1,0-3.46,2.81,2.81,0,0,1,1.05-1.16,3,3,0,0,1,1.58-.41,3.12,3.12,0,0,1,1.47.34,2.58,2.58,0,0,1,1,1.07,3.75,3.75,0,0,1,.39,1.8v.46h-5.22v-1h3.79a1.72,1.72,0,0,0-.19-.77,1.33,1.33,0,0,0-.51-.54,1.44,1.44,0,0,0-.75-.19,1.49,1.49,0,0,0-.81.22,1.46,1.46,0,0,0-.55.58,1.67,1.67,0,0,0-.2.8v.87a2.15,2.15,0,0,0,.2,1,1.53,1.53,0,0,0,.57.61,1.64,1.64,0,0,0,.86.22,1.81,1.81,0,0,0,.58-.09,1.18,1.18,0,0,0,.43-.23,1.17,1.17,0,0,0,.28-.35H796a2.21,2.21,0,0,1-.5,1,2.42,2.42,0,0,1-1,.64,3.58,3.58,0,0,1-1.3.23A3.3,3.3,0,0,1,791.6,315.38Z"/><path class="cls-4" d="M798.73,315.65h-1.49v-6.36h1.42v1.08h.08a1.79,1.79,0,0,1,.42-.62,1.62,1.62,0,0,1,.64-.4,2.21,2.21,0,0,1,.84-.14,2.25,2.25,0,0,1,1.15.28,1.89,1.89,0,0,1,.76.82,2.86,2.86,0,0,1,.27,1.29v4h-1.49v-3.82a1.64,1.64,0,0,0-.15-.73,1,1,0,0,0-.43-.47,1.3,1.3,0,0,0-.67-.16,1.45,1.45,0,0,0-.7.17,1.28,1.28,0,0,0-.48.5,1.73,1.73,0,0,0-.17.78Z"/><path class="cls-4" d="M699,327.28l-.8.06a1.61,1.61,0,0,0-.85.27.81.81,0,0,0-.17,1.09.81.81,0,0,0,.38.29,1.55,1.55,0,0,0,.55.09,1.67,1.67,0,0,0,.79-.18,1.34,1.34,0,0,0,.52-.48,1.2,1.2,0,0,0,.18-.65v-2a1,1,0,0,0-.13-.54.87.87,0,0,0-.39-.34,1.48,1.48,0,0,0-.63-.12,1.61,1.61,0,0,0-.57.1,1,1,0,0,0-.4.26.78.78,0,0,0-.21.4h-1.45a1.89,1.89,0,0,1,.39-1,2.16,2.16,0,0,1,.92-.68,3.55,3.55,0,0,1,1.36-.24,3.7,3.7,0,0,1,1.26.2,2,2,0,0,1,1,.7,2.08,2.08,0,0,1,.38,1.29v4.25h-1.43v-.87h-.05a1.92,1.92,0,0,1-.39.51,2.11,2.11,0,0,1-.63.35,2.26,2.26,0,0,1-.85.14,2.57,2.57,0,0,1-1.1-.22,1.72,1.72,0,0,1-.76-.65,1.94,1.94,0,0,1-.27-1,1.6,1.6,0,0,1,.66-1.43,3.53,3.53,0,0,1,1.71-.51l.66,0,.73,0,.31,0v1Z"/><path class="cls-4" d="M705.78,324.93a1.29,1.29,0,0,0-.76-.21,1.7,1.7,0,0,0-.57.09,1.08,1.08,0,0,0-.4.27.64.64,0,0,0-.14.39.53.53,0,0,0,.22.43,1.72,1.72,0,0,0,.69.3l1.08.23a2.66,2.66,0,0,1,1.34.62,1.43,1.43,0,0,1,.44,1.1,1.78,1.78,0,0,1-.33,1.06,2.19,2.19,0,0,1-1,.71,3.65,3.65,0,0,1-1.43.26,3.89,3.89,0,0,1-1.39-.23,2.14,2.14,0,0,1-.92-.67,2,2,0,0,1-.42-1h1.52a.87.87,0,0,0,.37.61,1.58,1.58,0,0,0,.84.2,2,2,0,0,0,.63-.09,1,1,0,0,0,.42-.27.66.66,0,0,0,.14-.41.55.55,0,0,0-.22-.45,1.77,1.77,0,0,0-.7-.29l-1-.21a2.68,2.68,0,0,1-1.33-.64,1.47,1.47,0,0,1-.45-1.14,1.66,1.66,0,0,1,.31-1,2,2,0,0,1,.9-.68,3.55,3.55,0,0,1,1.36-.24,3.25,3.25,0,0,1,1.3.23,1.95,1.95,0,0,1,1.26,1.66h-1.42A.89.89,0,0,0,705.78,324.93Z"/><path class="cls-4" d="M714.79,327.28l-.8.06a1.65,1.65,0,0,0-.86.27.75.75,0,0,0-.3.64.73.73,0,0,0,.13.45.86.86,0,0,0,.38.29,1.78,1.78,0,0,0,1.34-.09,1.37,1.37,0,0,0,.53-.48,1.2,1.2,0,0,0,.18-.65v-2a1.13,1.13,0,0,0-.13-.54.87.87,0,0,0-.39-.34,1.48,1.48,0,0,0-.63-.12,1.61,1.61,0,0,0-.57.1,1.07,1.07,0,0,0-.41.26,1,1,0,0,0-.21.4H711.6a1.73,1.73,0,0,1,.39-1,2.16,2.16,0,0,1,.92-.68,3.52,3.52,0,0,1,1.36-.24,3.7,3.7,0,0,1,1.26.2,2.14,2.14,0,0,1,1,.7,2.08,2.08,0,0,1,.38,1.29v4.25h-1.43v-.87h-.05a1.77,1.77,0,0,1-.4.51,2,2,0,0,1-.62.35,2.26,2.26,0,0,1-.85.14,2.57,2.57,0,0,1-1.1-.22,1.66,1.66,0,0,1-.76-.65,2,2,0,0,1-.28-1,1.6,1.6,0,0,1,.66-1.43,3.59,3.59,0,0,1,1.71-.51l.67,0,.72,0,.32,0v1Z"/><path class="cls-4" d="M720.83,321.57h6.76v1.28H725v7.2h-1.52v-7.2h-2.62Z"/><path class="cls-4" d="M728.06,323.69h1.44v1.06h.07a1.77,1.77,0,0,1,.34-.62,1.53,1.53,0,0,1,.55-.4,1.72,1.72,0,0,1,.68-.13,3.12,3.12,0,0,1,.54,0V325l-.31-.06-.38,0a1.5,1.5,0,0,0-.74.18,1.27,1.27,0,0,0-.51.49,1.33,1.33,0,0,0-.19.71v3.75h-1.49Z"/><path class="cls-4" d="M735.57,327.28l-.81.06a1.64,1.64,0,0,0-.85.27.81.81,0,0,0-.17,1.09.86.86,0,0,0,.38.29,1.6,1.6,0,0,0,.56.09,1.66,1.66,0,0,0,.78-.18,1.28,1.28,0,0,0,.52-.48,1.2,1.2,0,0,0,.18-.65v-2a1,1,0,0,0-.14-.54.87.87,0,0,0-.39-.34,1.48,1.48,0,0,0-.63-.12,1.66,1.66,0,0,0-.57.1,1,1,0,0,0-.4.26.78.78,0,0,0-.21.4h-1.45a1.89,1.89,0,0,1,.39-1,2.22,2.22,0,0,1,.92-.68,3.59,3.59,0,0,1,1.36-.24,3.66,3.66,0,0,1,1.26.2,2,2,0,0,1,1.34,2v4.25h-1.43v-.87h-.05a1.73,1.73,0,0,1-.39.51,2.11,2.11,0,0,1-.63.35,2.23,2.23,0,0,1-.85.14,2.6,2.6,0,0,1-1.1-.22,1.64,1.64,0,0,1-.75-.65,1.86,1.86,0,0,1-.28-1,1.6,1.6,0,0,1,.66-1.43,3.53,3.53,0,0,1,1.71-.51l.67,0,.72,0,.31,0,0,1Z"/><path class="cls-4" d="M740.55,330.05h-1.49v-6.36h1.43v1.08h.07a1.79,1.79,0,0,1,.42-.62,1.62,1.62,0,0,1,.64-.4,2.54,2.54,0,0,1,2,.14,2,2,0,0,1,.76.82,2.86,2.86,0,0,1,.27,1.29v4.05h-1.49v-3.82a1.64,1.64,0,0,0-.15-.73,1,1,0,0,0-.43-.47,1.3,1.3,0,0,0-.67-.16,1.45,1.45,0,0,0-.7.17,1.28,1.28,0,0,0-.48.5,1.73,1.73,0,0,0-.17.78Z"/><path class="cls-4" d="M749.3,324.93a1.27,1.27,0,0,0-.76-.21,1.7,1.7,0,0,0-.57.09,1.13,1.13,0,0,0-.39.27.6.6,0,0,0-.15.39.55.55,0,0,0,.22.43,1.87,1.87,0,0,0,.69.3l1.08.23a2.7,2.7,0,0,1,1.35.62,1.47,1.47,0,0,1,.44,1.1,1.72,1.72,0,0,1-.34,1.06,2.16,2.16,0,0,1-.94.71,3.72,3.72,0,0,1-1.43.26,3.85,3.85,0,0,1-1.39-.23,2.24,2.24,0,0,1-.93-.67,2.06,2.06,0,0,1-.41-1h1.51a.88.88,0,0,0,.38.61,1.56,1.56,0,0,0,.84.2,2,2,0,0,0,.62-.09,1,1,0,0,0,.42-.27.61.61,0,0,0,.15-.41.56.56,0,0,0-.23-.45,1.71,1.71,0,0,0-.7-.29l-1-.21a2.71,2.71,0,0,1-1.34-.64,1.54,1.54,0,0,1-.45-1.14,1.67,1.67,0,0,1,.32-1,2,2,0,0,1,.9-.68,3.5,3.5,0,0,1,1.35-.24,3.3,3.3,0,0,1,1.31.23,1.92,1.92,0,0,1,1.25,1.66h-1.42A.82.82,0,0,0,749.3,324.93Z"/><path class="cls-4" d="M755.46,327.28l-.8.06a1.68,1.68,0,0,0-.86.27.75.75,0,0,0-.3.64.73.73,0,0,0,.14.45.81.81,0,0,0,.38.29,1.55,1.55,0,0,0,.55.09,1.67,1.67,0,0,0,.79-.18,1.34,1.34,0,0,0,.52-.48,1.2,1.2,0,0,0,.18-.65v-2a1,1,0,0,0-.13-.54.87.87,0,0,0-.39-.34,1.48,1.48,0,0,0-.63-.12,1.61,1.61,0,0,0-.57.1,1,1,0,0,0-.4.26.78.78,0,0,0-.21.4h-1.45a1.89,1.89,0,0,1,.39-1,2.16,2.16,0,0,1,.92-.68,3.55,3.55,0,0,1,1.36-.24,3.7,3.7,0,0,1,1.26.2,2,2,0,0,1,1,.7,2.08,2.08,0,0,1,.38,1.29v4.25h-1.43v-.87h-.05a1.77,1.77,0,0,1-.4.51,1.94,1.94,0,0,1-.62.35,2.26,2.26,0,0,1-.85.14,2.57,2.57,0,0,1-1.1-.22,1.72,1.72,0,0,1-.76-.65,1.94,1.94,0,0,1-.27-1,1.6,1.6,0,0,1,.66-1.43,3.53,3.53,0,0,1,1.71-.51l.66,0,.73,0,.31,0v1Z"/><path class="cls-4" d="M760.11,329.76a2.65,2.65,0,0,1-1.06-1.16,3.83,3.83,0,0,1-.37-1.7,3.79,3.79,0,0,1,.38-1.72,2.71,2.71,0,0,1,1.06-1.16,3,3,0,0,1,1.6-.41,3.17,3.17,0,0,1,1.37.28,2.35,2.35,0,0,1,1,.8,2.38,2.38,0,0,1,.4,1.19H763a1.5,1.5,0,0,0-.23-.55,1.15,1.15,0,0,0-.43-.39,1.38,1.38,0,0,0-.62-.13,1.35,1.35,0,0,0-.82.25,1.58,1.58,0,0,0-.54.71,2.84,2.84,0,0,0-.2,1.1,3.16,3.16,0,0,0,.19,1.12,1.62,1.62,0,0,0,.55.72,1.33,1.33,0,0,0,.82.25,1.25,1.25,0,0,0,.59-.13,1.13,1.13,0,0,0,.45-.36,1.51,1.51,0,0,0,.24-.58h1.42a2.36,2.36,0,0,1-1.34,2,3.12,3.12,0,0,1-1.38.29A3.05,3.05,0,0,1,760.11,329.76Z"/><path class="cls-4" d="M768.75,324.84h-3.64v-1.15h3.64Zm-1.25-2.68v6a1,1,0,0,0,.09.45.53.53,0,0,0,.24.23.91.91,0,0,0,.35.06,5.76,5.76,0,0,0,.66,0v1.22a5.39,5.39,0,0,1-.85.06,2.54,2.54,0,0,1-1-.19,1.64,1.64,0,0,1-.71-.59,1.75,1.75,0,0,1-.25-1v-6.23Z"/><path class="cls-4" d="M770.23,322.67a.82.82,0,0,1-.32-.29.78.78,0,0,1,.32-1.11.89.89,0,0,1,.43-.11.92.92,0,0,1,.43.11.72.72,0,0,1,.31.29.76.76,0,0,1,0,.82.79.79,0,0,1-.31.29.92.92,0,0,1-.43.11A.89.89,0,0,1,770.23,322.67Zm-.32,1h1.49v6.36h-1.49Z"/><path class="cls-4" d="M774,329.77a2.8,2.8,0,0,1-1.06-1.15,4.11,4.11,0,0,1,0-3.45A2.69,2.69,0,0,1,774,324a3.37,3.37,0,0,1,3.22,0,2.71,2.71,0,0,1,1.07,1.15,4.21,4.21,0,0,1,0,3.45,2.83,2.83,0,0,1-1.07,1.15,3.37,3.37,0,0,1-3.22,0Zm2.46-1.06A1.78,1.78,0,0,0,777,328a3.45,3.45,0,0,0,0-2.14,1.75,1.75,0,0,0-.52-.76,1.46,1.46,0,0,0-1.69,0,1.75,1.75,0,0,0-.52.76,3,3,0,0,0-.18,1.07,3,3,0,0,0,.18,1.07,1.72,1.72,0,0,0,.52.75,1.46,1.46,0,0,0,1.69,0Z"/><path class="cls-4" d="M781.32,330.05h-1.49v-6.36h1.42v1.08h.08a1.92,1.92,0,0,1,.41-.62,1.78,1.78,0,0,1,.64-.4,2.56,2.56,0,0,1,2,.14,2,2,0,0,1,.76.82,2.86,2.86,0,0,1,.27,1.29v4.05h-1.5v-3.82a1.79,1.79,0,0,0-.14-.73,1,1,0,0,0-.43-.47,1.3,1.3,0,0,0-.67-.16,1.45,1.45,0,0,0-.7.17,1.28,1.28,0,0,0-.48.5,1.73,1.73,0,0,0-.17.78Z"/><path class="cls-4" d="M789.75,321.57h5.43v1.28h-3.91v2.31h3.54v1.28h-3.54v3.61h-1.52Z"/><path class="cls-4" d="M797.12,329.78a2.62,2.62,0,0,1-1.07-1.14,4.13,4.13,0,0,1,0-3.46A2.75,2.75,0,0,1,797.1,324a3,3,0,0,1,1.58-.41,3.12,3.12,0,0,1,1.47.34A2.58,2.58,0,0,1,801.2,325a3.75,3.75,0,0,1,.39,1.8v.46h-5.22v-1h3.79a1.8,1.8,0,0,0-.19-.78,1.37,1.37,0,0,0-.51-.53,1.44,1.44,0,0,0-.75-.19,1.49,1.49,0,0,0-.81.22,1.4,1.4,0,0,0-.55.58,1.67,1.67,0,0,0-.2.8v.87a2.15,2.15,0,0,0,.2.95,1.53,1.53,0,0,0,.57.61,1.64,1.64,0,0,0,.86.22,1.7,1.7,0,0,0,.57-.09,1.15,1.15,0,0,0,.44-.23,1.17,1.17,0,0,0,.28-.35h1.46a2.13,2.13,0,0,1-.51,1,2.32,2.32,0,0,1-.95.64,3.6,3.6,0,0,1-1.31.23A3.29,3.29,0,0,1,797.12,329.78Z"/><path class="cls-4" d="M803.93,329.78a2.68,2.68,0,0,1-1.07-1.14,4.23,4.23,0,0,1,0-3.46,2.81,2.81,0,0,1,1-1.16,3,3,0,0,1,1.58-.41A3.07,3.07,0,0,1,807,324a2.58,2.58,0,0,1,1,1.07,3.75,3.75,0,0,1,.39,1.8v.46h-5.21v-1H807a1.67,1.67,0,0,0-.19-.78,1.37,1.37,0,0,0-.51-.53,1.44,1.44,0,0,0-.75-.19,1.49,1.49,0,0,0-.81.22,1.46,1.46,0,0,0-.55.58,1.67,1.67,0,0,0-.2.8v.87a2,2,0,0,0,.21.95,1.4,1.4,0,0,0,.57.61,1.58,1.58,0,0,0,.85.22,1.81,1.81,0,0,0,.58-.09,1.11,1.11,0,0,0,.43-.23,1,1,0,0,0,.28-.35h1.46a2.21,2.21,0,0,1-.5,1,2.42,2.42,0,0,1-1,.64,3.54,3.54,0,0,1-1.3.23A3.3,3.3,0,0,1,803.93,329.78Z"/><g class="cls-9"><path class="cls-4" d="M626.48,237.68a102.32,102.32,0,0,0-16.17-25.36h0a101.86,101.86,0,1,0,16.17,25.36Z"/></g><path class="cls-7" d="M626.48,237.68a102.32,102.32,0,0,0-16.17-25.36h0a101.86,101.86,0,1,0,16.17,25.36Z"/><path class="cls-4" d="M509.07,256.66l4.16,7.51h.18l4.16-7.51H521l-6.18,10.62v6.35h-3v-6.35l-6.17-10.62Z"/><path class="cls-4" d="M523.37,258.86a1.71,1.71,0,0,1-.64-.58,1.47,1.47,0,0,1-.24-.81,1.52,1.52,0,0,1,.24-.83,1.73,1.73,0,0,1,.64-.59,1.87,1.87,0,0,1,1.72,0,1.63,1.63,0,0,1,.63.59,1.52,1.52,0,0,1,.24.83,1.47,1.47,0,0,1-.24.81,1.61,1.61,0,0,1-.63.58,1.79,1.79,0,0,1-1.72,0Zm-.64,2h3v12.73h-3Z"/><path class="cls-4" d="M530.93,273.08a5.42,5.42,0,0,1-2.14-2.28,8.33,8.33,0,0,1,0-6.91,5.55,5.55,0,0,1,2.11-2.33,6,6,0,0,1,3.16-.83,6.14,6.14,0,0,1,2.94.7,5,5,0,0,1,2.1,2.14,7.48,7.48,0,0,1,.78,3.59v.92H529.44v-2H537a3.44,3.44,0,0,0-.37-1.55,2.77,2.77,0,0,0-1-1.07,3.06,3.06,0,0,0-4.22,1.22,3.24,3.24,0,0,0-.4,1.59V268a4.31,4.31,0,0,0,.4,1.91,2.87,2.87,0,0,0,1.14,1.22,3.36,3.36,0,0,0,1.72.44,3.8,3.8,0,0,0,1.15-.17,2.8,2.8,0,0,0,.87-.48,2.3,2.3,0,0,0,.56-.69h2.91a4.31,4.31,0,0,1-1,1.93,4.89,4.89,0,0,1-1.91,1.27,7.22,7.22,0,0,1-2.61.46A6.56,6.56,0,0,1,530.93,273.08Z"/><path class="cls-4" d="M545.2,273.63h-3v-17h3Z"/><path class="cls-4" d="M550.1,273.07a5.21,5.21,0,0,1-1.87-2.26,8.48,8.48,0,0,1-.68-3.53,8.34,8.34,0,0,1,.69-3.54,5.21,5.21,0,0,1,1.88-2.25,5,5,0,0,1,2.69-.76,4.29,4.29,0,0,1,1.69.31,3.29,3.29,0,0,1,1.12.76,4.92,4.92,0,0,1,.74,1,.35.35,0,0,1,0,.08.59.59,0,0,1,0,.08h.12v-6.33h3v17h-2.92v-2h-.18l-.06.13a5.35,5.35,0,0,1-.75,1,3.78,3.78,0,0,1-1.14.76,4.18,4.18,0,0,1-1.69.31A4.81,4.81,0,0,1,550.1,273.07Zm5.15-2.18a3.18,3.18,0,0,0,1-1.45,6.27,6.27,0,0,0,.35-2.18,5.9,5.9,0,0,0-.35-2.16,3,3,0,0,0-1-1.42,3,3,0,0,0-3.29,0,3.12,3.12,0,0,0-1,1.44,6.6,6.6,0,0,0,0,4.27,3.4,3.4,0,0,0,1,1.47,2.81,2.81,0,0,0,3.27,0Z"/><path class="cls-4" d="M489.48,285.45h10.86V288h-7.82v4.63h7.07v2.56h-7.07v7.22h-3Z"/><path class="cls-4" d="M508.9,296.88l-1.6.12a3.16,3.16,0,0,0-1.72.54,1.5,1.5,0,0,0-.6,1.27,1.54,1.54,0,0,0,.27.92,1.7,1.7,0,0,0,.76.56,2.93,2.93,0,0,0,1.11.2,3.31,3.31,0,0,0,1.57-.36,2.62,2.62,0,0,0,1-1,2.4,2.4,0,0,0,.37-1.31l0-4.07a2.09,2.09,0,0,0-.26-1.07A1.73,1.73,0,0,0,509,292a3.19,3.19,0,0,0-1.26-.23,3.12,3.12,0,0,0-1.15.19,2.14,2.14,0,0,0-.8.52,1.75,1.75,0,0,0-.42.81h-2.9a3.88,3.88,0,0,1,.78-2,4.53,4.53,0,0,1,1.84-1.35,7,7,0,0,1,2.73-.49,7.31,7.31,0,0,1,2.51.42,3.91,3.91,0,0,1,2.69,4v8.51H510.2v-1.75h-.1a3.5,3.5,0,0,1-.79,1,3.8,3.8,0,0,1-1.25.72,5,5,0,0,1-1.7.27,5.15,5.15,0,0,1-2.2-.44,3.44,3.44,0,0,1-1.52-1.3,3.87,3.87,0,0,1-.55-2.09,3.15,3.15,0,0,1,1.32-2.84,7.05,7.05,0,0,1,3.42-1l1.33-.07,1.45-.07.63,0,0,2Z"/><path class="cls-4" d="M515.89,289.7h2.89v2.12h.13a3.39,3.39,0,0,1,.69-1.25,3.06,3.06,0,0,1,1.1-.79,3.4,3.4,0,0,1,1.36-.26,6.23,6.23,0,0,1,1.08.08v2.74a6,6,0,0,0-.63-.12,6.91,6.91,0,0,0-.76-.05,3,3,0,0,0-1.48.35,2.6,2.6,0,0,0-1,1,2.75,2.75,0,0,0-.38,1.43v7.5h-3Z"/><path class="cls-4" d="M524.92,289.7h2.85v2.16h.16a3.46,3.46,0,0,1,1.32-1.72,3.9,3.9,0,0,1,2.18-.61,4,4,0,0,1,1.54.28,3.05,3.05,0,0,1,1.18.8,3.36,3.36,0,0,1,.72,1.25H535a3.37,3.37,0,0,1,.84-1.23,3.85,3.85,0,0,1,1.32-.81,4.68,4.68,0,0,1,1.67-.29,4.27,4.27,0,0,1,2.08.5,3.55,3.55,0,0,1,1.4,1.49,5.17,5.17,0,0,1,.5,2.36v8.55h-3v-8.09a2.3,2.3,0,0,0-.61-1.72,2.2,2.2,0,0,0-1.57-.58,2.39,2.39,0,0,0-1.25.31,1.91,1.91,0,0,0-.79.85,2.76,2.76,0,0,0-.28,1.27v8H532.4v-8.22a2.34,2.34,0,0,0-.27-1.14,1.83,1.83,0,0,0-.75-.76,2.3,2.3,0,0,0-1.13-.27,2.21,2.21,0,0,0-1.18.33,2.42,2.42,0,0,0-.85.94,2.91,2.91,0,0,0-.31,1.37v7.75h-3Z"/><path class="cls-4" d="M546.29,287.66a1.7,1.7,0,0,1-.63-.59,1.42,1.42,0,0,1-.24-.8,1.52,1.52,0,0,1,.24-.83,1.7,1.7,0,0,1,.63-.59,1.89,1.89,0,0,1,1.73,0,1.7,1.7,0,0,1,.63.59,1.6,1.6,0,0,1,.23.83,1.49,1.49,0,0,1-.23.8,1.7,1.7,0,0,1-.63.59,1.81,1.81,0,0,1-1.73,0Zm-.63,2h3v12.73h-3Z"/><path class="cls-4" d="M554.5,302.43h-3V289.7h2.85v2.16h.16a3.49,3.49,0,0,1,.82-1.24,3.68,3.68,0,0,1,1.28-.81,4.93,4.93,0,0,1,1.68-.28,4.48,4.48,0,0,1,2.3.57,3.72,3.72,0,0,1,1.52,1.64,5.71,5.71,0,0,1,.54,2.58v8.11h-3v-7.65a3.28,3.28,0,0,0-.3-1.46,2.1,2.1,0,0,0-.85-.94,2.71,2.71,0,0,0-1.34-.32,2.77,2.77,0,0,0-1.4.34,2.4,2.4,0,0,0-1,1,3.45,3.45,0,0,0-.34,1.56Z"/><path class="cls-4" d="M568.13,307a4.61,4.61,0,0,1-2-1.36,3.79,3.79,0,0,1-.82-2.08h3a1.81,1.81,0,0,0,.48.93,2.26,2.26,0,0,0,1,.54,4.55,4.55,0,0,0,1.35.18,3.29,3.29,0,0,0,2.19-.65,2.44,2.44,0,0,0,.78-2v-2.42h-.15l0,.06a4.19,4.19,0,0,1-.74,1,3.57,3.57,0,0,1-1.15.74,4.59,4.59,0,0,1-1.74.3,5.05,5.05,0,0,1-2.68-.72,4.94,4.94,0,0,1-1.88-2.14A7.72,7.72,0,0,1,565,296a8.08,8.08,0,0,1,.69-3.49,5.12,5.12,0,0,1,1.88-2.2,5.06,5.06,0,0,1,2.69-.74,4.36,4.36,0,0,1,1.69.31,3.29,3.29,0,0,1,1.12.76,5.68,5.68,0,0,1,.76,1l.1.18h.15V289.7H577v12.93a4.33,4.33,0,0,1-2.87,4.3,8.25,8.25,0,0,1-3.1.54A8.4,8.4,0,0,1,568.13,307Zm4.57-7.57a3,3,0,0,0,1-1.34,5.64,5.64,0,0,0,.35-2.09,6,6,0,0,0-.35-2.12,3.06,3.06,0,0,0-1-1.4,2.93,2.93,0,0,0-3.29,0,3.14,3.14,0,0,0-1,1.43A5.81,5.81,0,0,0,568,296a5.42,5.42,0,0,0,.36,2.06,3,3,0,0,0,1,1.36,2.73,2.73,0,0,0,1.65.48A2.79,2.79,0,0,0,572.7,299.43Z"/><path class="cls-4" d="M273.52,292h1.39v8h4.17v1.2h-5.56Z"/><path class="cls-4" d="M280.5,292h3.29a3.74,3.74,0,0,1,1.75.38,2.51,2.51,0,0,1,1.08,1.06,3.56,3.56,0,0,1,0,3.08,2.57,2.57,0,0,1-1.08,1.06,3.62,3.62,0,0,1-1.75.39h-2.26v-1.19h2.12a2.33,2.33,0,0,0,1.08-.23,1.44,1.44,0,0,0,.63-.64,2.16,2.16,0,0,0,0-1.86,1.37,1.37,0,0,0-.63-.63,2.35,2.35,0,0,0-1.09-.22H281.9v8h-1.4Z"/><path class="cls-4" d="M291.16,292h7.12v1.2h-2.86v8H294v-8h-2.87Z"/><path class="cls-4" d="M299.81,300.87a3.06,3.06,0,0,1-1.14-1.25,4.24,4.24,0,0,1-.39-1.86,4.3,4.3,0,0,1,.39-1.88,3.06,3.06,0,0,1,1.14-1.25,3.15,3.15,0,0,1,4.51,1.25,4.3,4.3,0,0,1,.39,1.88,4.24,4.24,0,0,1-.39,1.86,3.11,3.11,0,0,1-1.13,1.25,3.47,3.47,0,0,1-3.38,0Zm2.71-1a2,2,0,0,0,.62-.88,3.71,3.71,0,0,0,0-2.46,2,2,0,0,0-.62-.88,1.6,1.6,0,0,0-1-.33,1.58,1.58,0,0,0-1,.33,2,2,0,0,0-.63.88,3.71,3.71,0,0,0,0,2.46,2,2,0,0,0,.63.88,1.63,1.63,0,0,0,1,.32A1.65,1.65,0,0,0,302.52,299.86Z"/><path class="cls-4" d="M306.05,292h1.36v9.19h-1.36Zm1.24,5.21h.24l2.73-2.91h1.62l-3.13,3.32h-.21l-1.24,1.24Zm.66.71.93-.95,3.19,4.22h-1.66Z"/><path class="cls-4" d="M313.89,300.87a2.83,2.83,0,0,1-1.14-1.23,4.12,4.12,0,0,1-.4-1.87,4.18,4.18,0,0,1,.4-1.87,3,3,0,0,1,1.12-1.26,3.09,3.09,0,0,1,1.67-.45,3.26,3.26,0,0,1,1.53.36,2.66,2.66,0,0,1,1.11,1.14,4.06,4.06,0,0,1,.43,2v.48h-5.5v-1h4.16a2.06,2.06,0,0,0-.21-.94,1.57,1.57,0,0,0-.6-.65,1.77,1.77,0,0,0-.9-.23,1.75,1.75,0,0,0-1,.27,2,2,0,0,0-.66.71,2.13,2.13,0,0,0-.23,1V298a2.63,2.63,0,0,0,.24,1.17,1.74,1.74,0,0,0,.68.74,2,2,0,0,0,1,.26,2.23,2.23,0,0,0,.66-.1,1.76,1.76,0,0,0,.51-.27,1.2,1.2,0,0,0,.32-.39h1.38a2.44,2.44,0,0,1-.55,1,2.47,2.47,0,0,1-1,.66,3.8,3.8,0,0,1-1.34.23A3.39,3.39,0,0,1,313.89,300.87Z"/><path class="cls-4" d="M321.3,301.17H320v-6.89h1.3v1.12h.08a2.24,2.24,0,0,1,.45-.64,1.92,1.92,0,0,1,.68-.43,2.85,2.85,0,0,1,.91-.14,2.61,2.61,0,0,1,1.24.29,2,2,0,0,1,.82.89,3.21,3.21,0,0,1,.29,1.42v4.38h-1.36V297a2,2,0,0,0-.17-.85,1.22,1.22,0,0,0-.5-.55,1.5,1.5,0,0,0-.78-.19,1.7,1.7,0,0,0-.83.2,1.5,1.5,0,0,0-.57.6,1.87,1.87,0,0,0-.21.92Z"/><path class="cls-4" d="M330.64,292h3.29a3.84,3.84,0,0,1,1.75.36,2.39,2.39,0,0,1,1.07,1,3.07,3.07,0,0,1,.36,1.51,3.11,3.11,0,0,1-.35,1.5,2.39,2.39,0,0,1-1.07,1,4.07,4.07,0,0,1-1.77.35h-2.49v-1.2h2.35a2.86,2.86,0,0,0,1.1-.19,1.31,1.31,0,0,0,.62-.56,1.75,1.75,0,0,0,.2-.89,1.85,1.85,0,0,0-.2-.91,1.26,1.26,0,0,0-.63-.57,2.47,2.47,0,0,0-1.09-.2H332v8h-1.4Zm6.82,9.19h-1.59L333.64,297h1.55Z"/><path class="cls-4" d="M339.68,300.87a3,3,0,0,1-1.14-1.23,4.25,4.25,0,0,1-.39-1.87,4.31,4.31,0,0,1,.39-1.87,3.05,3.05,0,0,1,1.12-1.26,3.09,3.09,0,0,1,1.67-.45,3.26,3.26,0,0,1,1.53.36,2.68,2.68,0,0,1,1.12,1.14,4.07,4.07,0,0,1,.42,2v.48h-5.5v-1h4.17a2,2,0,0,0-.22-.94,1.57,1.57,0,0,0-.6-.65,1.88,1.88,0,0,0-1.87,0,1.85,1.85,0,0,0-.65.71,2.14,2.14,0,0,0-.24,1V298a2.5,2.5,0,0,0,.25,1.17,1.68,1.68,0,0,0,.68.74,2,2,0,0,0,1,.26,2.3,2.3,0,0,0,.67-.1,1.7,1.7,0,0,0,.5-.27,1.23,1.23,0,0,0,.33-.39h1.37a2.31,2.31,0,0,1-.54,1,2.5,2.5,0,0,1-1,.66,3.76,3.76,0,0,1-1.34.23A3.42,3.42,0,0,1,339.68,300.87Z"/><path class="cls-4" d="M345.19,294.28h1.4l1.34,5.05H348l1.35-5.05h1.4l1.34,5h.07l1.33-5h1.4l-2,6.89h-1.38l-1.4-5H350l-1.39,5h-1.39Z"/><path class="cls-4" d="M359.39,298.1l-.93.06a2.19,2.19,0,0,0-1.07.32.87.87,0,0,0-.37.76.9.9,0,0,0,.16.55,1.07,1.07,0,0,0,.46.34,2.19,2.19,0,0,0,1.62-.1,1.55,1.55,0,0,0,.61-.58,1.46,1.46,0,0,0,.21-.77v-2.17a1.3,1.3,0,0,0-.16-.67,1.07,1.07,0,0,0-.47-.42,2.17,2.17,0,0,0-1.45,0,1.42,1.42,0,0,0-.49.31,1.1,1.1,0,0,0-.26.46H355.9a2,2,0,0,1,.43-1,2.4,2.4,0,0,1,1-.7,3.66,3.66,0,0,1,1.41-.25,3.8,3.8,0,0,1,1.27.2,2.11,2.11,0,0,1,1,.74,2.32,2.32,0,0,1,.42,1.46v4.58h-1.32v-.94h-.05a1.93,1.93,0,0,1-1.09.93,2.56,2.56,0,0,1-1,.16,2.84,2.84,0,0,1-1.19-.24,1.92,1.92,0,0,1-1.14-1.86,1.67,1.67,0,0,1,.72-1.52,4.12,4.12,0,0,1,1.86-.54l.73,0,.8,0,.36,0v1Z"/><path class="cls-4" d="M363.07,294.28h1.31v1.1h.07a1.92,1.92,0,0,1,.38-.65,1.72,1.72,0,0,1,.62-.41,1.86,1.86,0,0,1,.75-.15,5.35,5.35,0,0,1,.58,0v1.3l-.32-.06-.39,0a1.79,1.79,0,0,0-.84.19,1.52,1.52,0,0,0-.59.56,1.55,1.55,0,0,0-.22.8v4.2h-1.35Z"/><path class="cls-4" d="M368.66,300.88a2.89,2.89,0,0,1-1-1.24,4.67,4.67,0,0,1-.37-1.9,4.44,4.44,0,0,1,.38-1.9,2.8,2.8,0,0,1,1-1.23,2.7,2.7,0,0,1,1.49-.42,2.39,2.39,0,0,1,.94.17,1.91,1.91,0,0,1,.6.41,3.78,3.78,0,0,1,.4.54.05.05,0,0,0,0,0l0,0h.07V292h1.35v9.19h-1.32V300.1h-.1l0,.06a3.39,3.39,0,0,1-.4.55,1.93,1.93,0,0,1-.61.42,2.3,2.3,0,0,1-1,.18A2.68,2.68,0,0,1,368.66,300.88Zm2.76-1A1.89,1.89,0,0,0,372,299a3.58,3.58,0,0,0,.21-1.28,3.47,3.47,0,0,0-.21-1.26,1.81,1.81,0,0,0-.61-.83,1.67,1.67,0,0,0-1-.29,1.56,1.56,0,0,0-1,.31,1.77,1.77,0,0,0-.61.84,3.37,3.37,0,0,0-.21,1.23,3.45,3.45,0,0,0,.21,1.25,2,2,0,0,0,.62.87,1.55,1.55,0,0,0,1,.31A1.58,1.58,0,0,0,371.42,299.85Z"/><path class="cls-4" d="M271.86,258.56h5.71v1.2h-4.32v2.79h3.91v1.2h-3.91v4h-1.39Z"/><path class="cls-4" d="M282.37,264.68l-.94.06a2.11,2.11,0,0,0-1.06.32,1,1,0,0,0-.21,1.31,1,1,0,0,0,.46.34,2,2,0,0,0,.67.11,2,2,0,0,0,.94-.21,1.55,1.55,0,0,0,.61-.58,1.49,1.49,0,0,0,.21-.77v-2.17a1.28,1.28,0,0,0-.16-.67,1,1,0,0,0-.47-.42,2.17,2.17,0,0,0-1.45,0,1.18,1.18,0,0,0-.48.31.92.92,0,0,0-.26.46h-1.35a1.92,1.92,0,0,1,.42-1,2.31,2.31,0,0,1,1-.7,3.65,3.65,0,0,1,1.41-.26A3.8,3.8,0,0,1,283,261a2.11,2.11,0,0,1,1,.74,2.3,2.3,0,0,1,.42,1.46v4.58h-1.32v-.94H283a1.85,1.85,0,0,1-.41.53,2,2,0,0,1-.68.4,2.52,2.52,0,0,1-.95.16,2.84,2.84,0,0,1-1.19-.24,2,2,0,0,1-1.14-1.86,1.67,1.67,0,0,1,.72-1.52,4,4,0,0,1,1.86-.54l.74,0,.79,0,.36,0v1Z"/><path class="cls-4" d="M286,260.85h1.31V262h.07a1.84,1.84,0,0,1,.39-.64,1.6,1.6,0,0,1,.61-.41,1.86,1.86,0,0,1,.75-.15,5.35,5.35,0,0,1,.58,0v1.3l-.32-.06-.39,0a1.8,1.8,0,0,0-.84.2,1.45,1.45,0,0,0-.59.56,1.52,1.52,0,0,0-.21.8v4.2H286Z"/><path class="cls-4" d="M290.76,260.85h1.3V262h.08a1.8,1.8,0,0,1,.71-.89,2.06,2.06,0,0,1,1.17-.33,2.14,2.14,0,0,1,.82.15,1.64,1.64,0,0,1,.62.41,1.88,1.88,0,0,1,.41.66H296a1.84,1.84,0,0,1,.46-.64,2,2,0,0,1,.71-.43,2.57,2.57,0,0,1,.9-.15,2.23,2.23,0,0,1,1.11.27,1.82,1.82,0,0,1,.75.8,2.81,2.81,0,0,1,.27,1.3v4.62h-1.36v-4.49a1.29,1.29,0,0,0-.36-1,1.36,1.36,0,0,0-.93-.32,1.58,1.58,0,0,0-.74.17,1.26,1.26,0,0,0-.47.5,1.66,1.66,0,0,0-.17.75v4.39h-1.34v-4.57a1.29,1.29,0,0,0-.16-.66,1.07,1.07,0,0,0-.44-.43,1.4,1.4,0,0,0-.66-.15,1.32,1.32,0,0,0-.7.19,1.39,1.39,0,0,0-.51.56,1.68,1.68,0,0,0-.2.81v4.25h-1.35Z"/><path class="cls-4" d="M302.05,259.69a1,1,0,0,1-.31-.3.7.7,0,0,1-.12-.4.72.72,0,0,1,.12-.4.81.81,0,0,1,.31-.3.91.91,0,0,1,.43-.1.87.87,0,0,1,.42.1.75.75,0,0,1,.31.3.72.72,0,0,1,.12.4.7.7,0,0,1-.12.4.89.89,0,0,1-.31.3.88.88,0,0,1-.42.11A.92.92,0,0,1,302.05,259.69Zm-.26,1.16h1.36v6.9h-1.36Z"/><path class="cls-4" d="M306.15,267.75H304.8v-6.9h1.3V262h.09a2.08,2.08,0,0,1,.44-.64,1.92,1.92,0,0,1,.68-.43,2.59,2.59,0,0,1,.91-.15,2.47,2.47,0,0,1,1.24.3,2.06,2.06,0,0,1,.82.88,3.24,3.24,0,0,1,.29,1.42v4.39h-1.36v-4.22a2,2,0,0,0-.17-.85,1.17,1.17,0,0,0-.5-.55,1.5,1.5,0,0,0-.78-.19,1.6,1.6,0,0,0-.83.2,1.47,1.47,0,0,0-.57.59,1.94,1.94,0,0,0-.21.93Z"/><path class="cls-4" d="M313.58,270.23a2.38,2.38,0,0,1-1-.71,2,2,0,0,1-.44-1.1h1.38a1.08,1.08,0,0,0,.28.54,1.33,1.33,0,0,0,.56.32,2.46,2.46,0,0,0,.8.11,2,2,0,0,0,1.3-.38,1.43,1.43,0,0,0,.46-1.16v-1.36h-.09l0,0a2.89,2.89,0,0,1-.39.54,1.86,1.86,0,0,1-.62.41,2.37,2.37,0,0,1-1,.18,2.77,2.77,0,0,1-1.48-.41,2.69,2.69,0,0,1-1-1.17,4.13,4.13,0,0,1-.38-1.84,4.32,4.32,0,0,1,.38-1.86,2.72,2.72,0,0,1,2.52-1.61,2.22,2.22,0,0,1,.94.18,1.76,1.76,0,0,1,.6.41,3.23,3.23,0,0,1,.41.53l.05.09h.09v-1.12h1.33v7a2.54,2.54,0,0,1-.4,1.44,2.43,2.43,0,0,1-1.1.86,4.28,4.28,0,0,1-1.61.28A4.23,4.23,0,0,1,313.58,270.23Zm2.49-4a1.74,1.74,0,0,0,.61-.79,3.12,3.12,0,0,0,.21-1.21,3.52,3.52,0,0,0-.2-1.23,1.85,1.85,0,0,0-.62-.82,1.64,1.64,0,0,0-1-.29,1.67,1.67,0,0,0-1,.3,1.86,1.86,0,0,0-.61.83,3.3,3.3,0,0,0-.21,1.21,3.12,3.12,0,0,0,.21,1.19,1.76,1.76,0,0,0,.62.79,1.68,1.68,0,0,0,1,.29A1.7,1.7,0,0,0,316.07,266.26Z"/><path class="cls-4" d="M323.15,258.56h1.39v8h4.17v1.2h-5.56Z"/><path class="cls-4" d="M330.13,258.56h3.29a3.62,3.62,0,0,1,1.75.38,2.49,2.49,0,0,1,1.08,1.05,3.4,3.4,0,0,1,.35,1.55,3.36,3.36,0,0,1-.35,1.54,2.57,2.57,0,0,1-1.08,1.06,3.62,3.62,0,0,1-1.75.39h-2.26v-1.19h2.12a2.33,2.33,0,0,0,1.08-.23,1.44,1.44,0,0,0,.63-.64,2,2,0,0,0,.21-.93,2,2,0,0,0-.21-.94,1.4,1.4,0,0,0-.63-.62,2.35,2.35,0,0,0-1.09-.22h-1.74v8h-1.4Z"/><path class="cls-4" d="M340.79,258.56h7.12v1.2h-2.86v8h-1.39v-8h-2.87Z"/><path class="cls-4" d="M349.44,267.44a2.94,2.94,0,0,1-1.14-1.25,4.18,4.18,0,0,1-.39-1.86,4.25,4.25,0,0,1,.39-1.87,3,3,0,0,1,1.14-1.25,3.4,3.4,0,0,1,3.38,0,3,3,0,0,1,1.13,1.25,4.25,4.25,0,0,1,.39,1.87,4.18,4.18,0,0,1-.39,1.86,3,3,0,0,1-1.13,1.25,3.4,3.4,0,0,1-3.38,0Zm2.71-1a1.88,1.88,0,0,0,.62-.87,3.71,3.71,0,0,0,0-2.46,2,2,0,0,0-.62-.88,1.6,1.6,0,0,0-1-.33,1.58,1.58,0,0,0-1,.33,1.92,1.92,0,0,0-.63.88,3.71,3.71,0,0,0,0,2.46,1.89,1.89,0,0,0,.63.87,1.58,1.58,0,0,0,1,.33A1.6,1.6,0,0,0,352.15,266.43Z"/><path class="cls-4" d="M355.69,258.56H357v9.19h-1.35Zm1.23,5.21h.24l2.73-2.92h1.62l-3.13,3.33h-.21l-1.24,1.24Zm.66.71.93-1,3.19,4.22H360Z"/><path class="cls-4" d="M363.52,267.45a2.86,2.86,0,0,1-1.14-1.24,4.18,4.18,0,0,1-.4-1.86,4.32,4.32,0,0,1,.4-1.87,3,3,0,0,1,1.12-1.26,3.1,3.1,0,0,1,1.67-.46,3.26,3.26,0,0,1,1.53.37,2.69,2.69,0,0,1,1.11,1.13,4.13,4.13,0,0,1,.43,2v.48h-5.5v-1h4.16a2,2,0,0,0-.21-.94,1.57,1.57,0,0,0-.6-.65,1.77,1.77,0,0,0-.9-.23,1.75,1.75,0,0,0-1,.27,1.85,1.85,0,0,0-.65.71,2,2,0,0,0-.24,1v.78a2.58,2.58,0,0,0,.24,1.16,1.71,1.71,0,0,0,.68.75,2,2,0,0,0,1,.26,2.23,2.23,0,0,0,.66-.1,1.76,1.76,0,0,0,.51-.27,1.45,1.45,0,0,0,.32-.39h1.38a2.44,2.44,0,0,1-.55,1,2.69,2.69,0,0,1-1,.66,3.8,3.8,0,0,1-1.34.23A3.42,3.42,0,0,1,363.52,267.45Z"/><path class="cls-4" d="M370.93,267.75h-1.35v-6.9h1.3V262H371a2.11,2.11,0,0,1,.45-.64,1.92,1.92,0,0,1,.68-.43,2.59,2.59,0,0,1,.91-.15,2.5,2.5,0,0,1,1.24.3,2.06,2.06,0,0,1,.82.88,3.24,3.24,0,0,1,.29,1.42v4.39H374v-4.22a2,2,0,0,0-.17-.85,1.17,1.17,0,0,0-.5-.55,1.5,1.5,0,0,0-.78-.19,1.6,1.6,0,0,0-.83.2,1.47,1.47,0,0,0-.57.59,1.94,1.94,0,0,0-.21.93Z"/><path class="cls-4" d="M765.14,434.55h-1.4v-9.19h1.4Z"/><path class="cls-4" d="M768.25,434.55H766.9v-6.89h1.3v1.12h.09a2.21,2.21,0,0,1,.44-.64,1.77,1.77,0,0,1,.68-.42,2.81,2.81,0,0,1,2.15.14,2,2,0,0,1,.82.89,3.21,3.21,0,0,1,.29,1.42v4.38h-1.36v-4.22a2,2,0,0,0-.17-.85,1.22,1.22,0,0,0-.5-.55,1.5,1.5,0,0,0-.78-.19,1.7,1.7,0,0,0-.83.2,1.5,1.5,0,0,0-.57.6,1.87,1.87,0,0,0-.21.92Z"/><path class="cls-4" d="M777.53,428.74h-3.77v-1.08h3.77Zm-1.4-2.73v6.51a1.11,1.11,0,0,0,.11.57.65.65,0,0,0,.29.28,1.06,1.06,0,0,0,.42.07l.68,0v1.16a5.35,5.35,0,0,1-.84.06,2.53,2.53,0,0,1-1-.2,1.71,1.71,0,0,1-1-1.64V426Z"/><path class="cls-4" d="M780,434.25a3,3,0,0,1-1.14-1.23,4.25,4.25,0,0,1-.39-1.87,4.31,4.31,0,0,1,.39-1.87A3.05,3.05,0,0,1,780,428a3.12,3.12,0,0,1,1.67-.45,3.26,3.26,0,0,1,1.53.36,2.68,2.68,0,0,1,1.12,1.14,4.07,4.07,0,0,1,.42,2v.48h-5.49v-1h4.16a2,2,0,0,0-.22-.94,1.57,1.57,0,0,0-.6-.65,1.88,1.88,0,0,0-1.87,0,1.85,1.85,0,0,0-.65.71,2.14,2.14,0,0,0-.24,1v.78a2.5,2.5,0,0,0,.25,1.17,1.68,1.68,0,0,0,.68.74,2,2,0,0,0,1,.26,2,2,0,0,0,.67-.1,1.58,1.58,0,0,0,.5-.27,1.23,1.23,0,0,0,.33-.39h1.37a2.31,2.31,0,0,1-.54,1,2.5,2.5,0,0,1-1,.66,3.76,3.76,0,0,1-1.34.23A3.32,3.32,0,0,1,780,434.25Z"/><path class="cls-4" d="M786.07,427.66h1.31v1.1h.07a1.81,1.81,0,0,1,.39-.64,1.52,1.52,0,0,1,.61-.42,1.86,1.86,0,0,1,.75-.15,3.52,3.52,0,0,1,.58,0v1.29l-.32-.06-.38,0a1.8,1.8,0,0,0-.85.19,1.52,1.52,0,0,0-.59.56,1.54,1.54,0,0,0-.21.8v4.2h-1.36Z"/><path class="cls-4" d="M791.8,434.25a2.83,2.83,0,0,1-1.14-1.23,4.12,4.12,0,0,1-.4-1.87,4.18,4.18,0,0,1,.4-1.87,3,3,0,0,1,1.12-1.26,3.09,3.09,0,0,1,1.67-.45,3.32,3.32,0,0,1,1.53.36,2.66,2.66,0,0,1,1.11,1.14,4.07,4.07,0,0,1,.42,2v.48H791v-1h4.16a2.06,2.06,0,0,0-.21-.94,1.66,1.66,0,0,0-.61-.65,1.77,1.77,0,0,0-.9-.23,1.74,1.74,0,0,0-1,.27,1.87,1.87,0,0,0-.66.71,2.13,2.13,0,0,0-.23,1v.78a2.63,2.63,0,0,0,.24,1.17,1.74,1.74,0,0,0,.68.74,2.19,2.19,0,0,0,1.69.16,1.76,1.76,0,0,0,.51-.27,1.34,1.34,0,0,0,.32-.39h1.37a2.31,2.31,0,0,1-.54,1,2.47,2.47,0,0,1-1,.66,3.8,3.8,0,0,1-1.34.23A3.3,3.3,0,0,1,791.8,434.25Z"/><path class="cls-4" d="M801.3,428.88a1.48,1.48,0,0,0-.88-.24,2,2,0,0,0-.68.11,1.13,1.13,0,0,0-.48.34.75.75,0,0,0-.17.47.68.68,0,0,0,.26.53,2.18,2.18,0,0,0,.82.35l1.11.25a2.82,2.82,0,0,1,1.41.68,1.58,1.58,0,0,1,.47,1.18,1.92,1.92,0,0,1-.34,1.11,2.31,2.31,0,0,1-1,.76,3.83,3.83,0,0,1-1.5.27,4,4,0,0,1-1.42-.23,2.19,2.19,0,0,1-.95-.69,2.24,2.24,0,0,1-.43-1.1h1.38a1,1,0,0,0,.44.7,1.71,1.71,0,0,0,1,.23,2.24,2.24,0,0,0,.77-.11,1.1,1.1,0,0,0,.5-.33.75.75,0,0,0,.18-.5.69.69,0,0,0-.26-.55,1.93,1.93,0,0,0-.8-.35l-1.08-.23a2.83,2.83,0,0,1-1.41-.69,1.63,1.63,0,0,1-.48-1.2,1.82,1.82,0,0,1,.33-1.08,2.16,2.16,0,0,1,.94-.73,3.43,3.43,0,0,1,1.4-.26,3.38,3.38,0,0,1,1.32.24,2.09,2.09,0,0,1,.9.69,2.12,2.12,0,0,1,.4,1h-1.31A1.06,1.06,0,0,0,801.3,428.88Z"/><path class="cls-4" d="M807.71,428.74h-3.77v-1.08h3.77Zm-1.4-2.73v6.51a1.11,1.11,0,0,0,.11.57.65.65,0,0,0,.29.28,1.06,1.06,0,0,0,.42.07l.68,0v1.16a5.35,5.35,0,0,1-.84.06,2.53,2.53,0,0,1-1-.2,1.71,1.71,0,0,1-1-1.64V426Z"/><path class="cls-4" d="M812.32,425.36h3.28a3.71,3.71,0,0,1,1.75.38,2.51,2.51,0,0,1,1.08,1.06,3.47,3.47,0,0,1,0,3.08,2.57,2.57,0,0,1-1.08,1.06,3.59,3.59,0,0,1-1.75.39h-2.26v-1.19h2.12a2.28,2.28,0,0,0,1.08-.23,1.55,1.55,0,0,0,.64-.63,2.13,2.13,0,0,0,.2-.94,2.06,2.06,0,0,0-.2-.93,1.44,1.44,0,0,0-.64-.63,2.28,2.28,0,0,0-1.08-.22h-1.75v8h-1.39Z"/><path class="cls-4" d="M823.47,431.48l-.94.06a2.11,2.11,0,0,0-1.06.32.88.88,0,0,0-.38.76.9.9,0,0,0,.17.55,1,1,0,0,0,.46.34,2,2,0,0,0,.67.11,2,2,0,0,0,.94-.21,1.6,1.6,0,0,0,.61-.57,1.52,1.52,0,0,0,.22-.77v-2.18a1.3,1.3,0,0,0-.16-.67,1,1,0,0,0-.47-.42,2.17,2.17,0,0,0-1.45,0,1.29,1.29,0,0,0-.48.31.92.92,0,0,0-.26.46H820a1.86,1.86,0,0,1,.43-1,2.36,2.36,0,0,1,1-.7,3.67,3.67,0,0,1,1.42-.25,3.78,3.78,0,0,1,1.26.2,2.11,2.11,0,0,1,1,.74,2.32,2.32,0,0,1,.42,1.46v4.58h-1.32v-.94h0a1.85,1.85,0,0,1-.41.53,2.24,2.24,0,0,1-.68.41,2.75,2.75,0,0,1-.95.15,2.84,2.84,0,0,1-1.19-.24,2,2,0,0,1-1.14-1.86,1.65,1.65,0,0,1,.73-1.52,4.08,4.08,0,0,1,1.85-.54l.74,0,.79,0,.36,0,0,1Z"/><path class="cls-4" d="M827,437.11V436h.6a1.83,1.83,0,0,0,.44,0,.8.8,0,0,0,.33-.25,1.83,1.83,0,0,0,.32-.6l.17-.45-2.52-7h1.45l1.73,5.34h.08l1.74-5.34h1.45L830,435.47a2.65,2.65,0,0,1-.85,1.25,2.21,2.21,0,0,1-1.39.42A6.57,6.57,0,0,1,827,437.11Z"/><path class="cls-4" d="M833.91,427.66h1.3v1.12h.09a1.78,1.78,0,0,1,.7-.89,2.05,2.05,0,0,1,1.17-.32,2.11,2.11,0,0,1,.82.14,1.66,1.66,0,0,1,.63.42,2.06,2.06,0,0,1,.41.65h.07a1.94,1.94,0,0,1,.46-.64,1.89,1.89,0,0,1,.71-.42,2.57,2.57,0,0,1,.9-.15,2.33,2.33,0,0,1,1.11.26,1.72,1.72,0,0,1,.75.8,2.84,2.84,0,0,1,.27,1.3v4.62H842v-4.49a1.26,1.26,0,0,0-.36-1,1.32,1.32,0,0,0-.93-.33,1.42,1.42,0,0,0-.74.18,1.11,1.11,0,0,0-.48.5,1.58,1.58,0,0,0-.17.74v4.39h-1.34V430a1.29,1.29,0,0,0-.16-.66,1.07,1.07,0,0,0-.44-.43,1.4,1.4,0,0,0-.66-.15,1.34,1.34,0,0,0-.7.19,1.46,1.46,0,0,0-.51.56,1.68,1.68,0,0,0-.19.82v4.24h-1.36Z"/><path class="cls-4" d="M846.17,434.25A3,3,0,0,1,845,433a4.25,4.25,0,0,1-.4-1.87,4.32,4.32,0,0,1,.4-1.87,3.05,3.05,0,0,1,1.12-1.26,3.09,3.09,0,0,1,1.67-.45,3.26,3.26,0,0,1,1.53.36,2.74,2.74,0,0,1,1.12,1.14,4.07,4.07,0,0,1,.42,2v.48h-5.5v-1h4.16a2.06,2.06,0,0,0-.21-.94,1.57,1.57,0,0,0-.6-.65,1.77,1.77,0,0,0-.9-.23,1.75,1.75,0,0,0-1,.27,1.85,1.85,0,0,0-.65.71,2,2,0,0,0-.24,1v.78a2.63,2.63,0,0,0,.24,1.17,1.77,1.77,0,0,0,.69.74,2,2,0,0,0,1,.26,2,2,0,0,0,.67-.1,1.83,1.83,0,0,0,.5-.27,1.08,1.08,0,0,0,.32-.39h1.38a2.33,2.33,0,0,1-.55,1,2.47,2.47,0,0,1-1,.66,3.8,3.8,0,0,1-1.34.23A3.32,3.32,0,0,1,846.17,434.25Z"/><path class="cls-4" d="M853.58,434.55h-1.35v-6.89h1.3v1.12h.09a2.21,2.21,0,0,1,.44-.64,1.77,1.77,0,0,1,.68-.42,2.81,2.81,0,0,1,2.15.14,2.09,2.09,0,0,1,.82.89,3.21,3.21,0,0,1,.29,1.42v4.38h-1.36v-4.22a2,2,0,0,0-.17-.85,1.22,1.22,0,0,0-.5-.55,1.5,1.5,0,0,0-.78-.19,1.7,1.7,0,0,0-.83.2,1.5,1.5,0,0,0-.57.6,1.87,1.87,0,0,0-.21.92Z"/><path class="cls-4" d="M862.86,428.74h-3.77v-1.08h3.77Zm-1.4-2.73v6.51a1.22,1.22,0,0,0,.11.57.65.65,0,0,0,.29.28,1.06,1.06,0,0,0,.42.07l.68,0v1.16a5.35,5.35,0,0,1-.84.06,2.53,2.53,0,0,1-1-.2,1.71,1.71,0,0,1-1-1.64V426Z"/><path class="cls-4" d="M868.58,434.25a3,3,0,0,1-1.13-1.25,4.1,4.1,0,0,1-.4-1.86,4.16,4.16,0,0,1,.4-1.88,3,3,0,0,1,1.13-1.25,3.47,3.47,0,0,1,3.38,0,3,3,0,0,1,1.13,1.25,4.16,4.16,0,0,1,.4,1.88,4.1,4.1,0,0,1-.4,1.86,3,3,0,0,1-1.13,1.25,3.47,3.47,0,0,1-3.38,0Zm2.72-1a2,2,0,0,0,.62-.88,3.88,3.88,0,0,0,0-2.46,2,2,0,0,0-.62-.88,1.76,1.76,0,0,0-2,0,2,2,0,0,0-.62.88,3.71,3.71,0,0,0,0,2.46,2,2,0,0,0,.62.88,1.8,1.8,0,0,0,2,0Z"/><path class="cls-4" d="M876.19,434.55h-1.36v-6.89h1.3v1.12h.09a2.21,2.21,0,0,1,.44-.64,1.77,1.77,0,0,1,.68-.42,2.81,2.81,0,0,1,2.15.14,2,2,0,0,1,.82.89,3.21,3.21,0,0,1,.29,1.42v4.38h-1.36v-4.22a1.87,1.87,0,0,0-.17-.85,1.17,1.17,0,0,0-.5-.55,1.5,1.5,0,0,0-.78-.19,1.7,1.7,0,0,0-.83.2,1.5,1.5,0,0,0-.57.6,1.87,1.87,0,0,0-.2.92Z"/><path class="cls-4" d="M890.24,427.06a1.46,1.46,0,0,0-.66-.46,2.5,2.5,0,0,0-.94-.16,2.47,2.47,0,0,0-1,.18,1.43,1.43,0,0,0-.64.48,1.17,1.17,0,0,0-.23.7,1,1,0,0,0,.47.89,3.91,3.91,0,0,0,1.2.5l.9.23a5.85,5.85,0,0,1,1.28.47,2.65,2.65,0,0,1,1,.82A2.11,2.11,0,0,1,892,432a2.44,2.44,0,0,1-.4,1.39,2.65,2.65,0,0,1-1.18,1,5.1,5.1,0,0,1-3.61,0,2.71,2.71,0,0,1-1.18-.94,2.63,2.63,0,0,1-.48-1.43h1.4a1.4,1.4,0,0,0,.32.81,1.62,1.62,0,0,0,.72.49,2.87,2.87,0,0,0,1,.17,2.61,2.61,0,0,0,1-.19,1.73,1.73,0,0,0,.73-.52,1.24,1.24,0,0,0,.26-.78,1,1,0,0,0-.22-.64,1.56,1.56,0,0,0-.59-.43,6.61,6.61,0,0,0-.93-.32l-1.09-.29a4,4,0,0,1-1.77-.91,2,2,0,0,1-.62-1.52,2.35,2.35,0,0,1,.42-1.38,2.85,2.85,0,0,1,1.17-.93,4.28,4.28,0,0,1,3.32,0,2.67,2.67,0,0,1,1.14.91,2.3,2.3,0,0,1,.42,1.31h-1.35A1.29,1.29,0,0,0,890.24,427.06Z"/><path class="cls-4" d="M896.63,428.74h-3.77v-1.08h3.77ZM895.22,426v6.51a1.1,1.1,0,0,0,.12.57.63.63,0,0,0,.28.28,1.11,1.11,0,0,0,.43.07l.67,0v1.16a5.17,5.17,0,0,1-.84.06,2.51,2.51,0,0,1-1-.2,1.79,1.79,0,0,1-.74-.62,1.85,1.85,0,0,1-.27-1V426Z"/><path class="cls-4" d="M901.34,431.48l-.94.06a2.11,2.11,0,0,0-1.06.32.86.86,0,0,0-.38.76.9.9,0,0,0,.16.55,1.13,1.13,0,0,0,.46.34,2.06,2.06,0,0,0,.68.11,2,2,0,0,0,.94-.21,1.6,1.6,0,0,0,.61-.57,1.51,1.51,0,0,0,.21-.77v-2.18a1.3,1.3,0,0,0-.16-.67,1.07,1.07,0,0,0-.47-.42,2.17,2.17,0,0,0-1.45,0,1.29,1.29,0,0,0-.48.31.92.92,0,0,0-.26.46h-1.35a1.92,1.92,0,0,1,.42-1,2.4,2.4,0,0,1,1-.7,3.66,3.66,0,0,1,1.41-.25,3.8,3.8,0,0,1,1.27.2,2.11,2.11,0,0,1,1,.74,2.32,2.32,0,0,1,.42,1.46v4.58h-1.32v-.94h0a1.85,1.85,0,0,1-.41.53,2.24,2.24,0,0,1-.68.41,2.75,2.75,0,0,1-.95.15,2.84,2.84,0,0,1-1.19-.24,2,2,0,0,1-1.14-1.86,1.67,1.67,0,0,1,.72-1.52,4.16,4.16,0,0,1,1.86-.54l.74,0,.79,0,.36,0v1Z"/><path class="cls-4" d="M905,425.36h1.36v9.19H905Zm1.24,5.21h.23l2.74-2.91h1.62L907.71,431h-.22l-1.23,1.24Zm.65.71.94-.95,3.19,4.22h-1.66Z"/><path class="cls-4" d="M912.17,426.49a.92.92,0,0,1-.32-.3.7.7,0,0,1-.12-.4.72.72,0,0,1,.12-.4.81.81,0,0,1,.32-.29.86.86,0,0,1,.84,0,.75.75,0,0,1,.32.29.8.8,0,0,1,.11.4.77.77,0,0,1-.11.4.84.84,0,0,1-.32.3.86.86,0,0,1-.84,0Zm-.26,1.17h1.35v6.89h-1.35Z"/><path class="cls-4" d="M916.27,434.55h-1.36v-6.89h1.3v1.12h.09a2.06,2.06,0,0,1,.45-.64,1.63,1.63,0,0,1,.68-.42,2.79,2.79,0,0,1,2.14.14,2,2,0,0,1,.82.89,3.21,3.21,0,0,1,.29,1.42v4.38h-1.35v-4.22a1.87,1.87,0,0,0-.18-.85,1.17,1.17,0,0,0-.5-.55,1.5,1.5,0,0,0-.78-.19,1.73,1.73,0,0,0-.83.2,1.5,1.5,0,0,0-.57.6,2,2,0,0,0-.2.92Z"/><path class="cls-4" d="M923.69,437a2.54,2.54,0,0,1-1-.71,2.06,2.06,0,0,1-.44-1.11h1.38a1.08,1.08,0,0,0,.28.54,1.3,1.3,0,0,0,.56.33,2.78,2.78,0,0,0,.81.11,2,2,0,0,0,1.29-.38,1.44,1.44,0,0,0,.46-1.17V433.3h-.09l0,0a2.34,2.34,0,0,1-.39.53,1.76,1.76,0,0,1-.62.41,2.32,2.32,0,0,1-1,.18,2.8,2.8,0,0,1-1.48-.4,2.74,2.74,0,0,1-1-1.17A4.07,4.07,0,0,1,922,431a4.32,4.32,0,0,1,.37-1.86,2.76,2.76,0,0,1,1-1.19,2.67,2.67,0,0,1,1.49-.41,2.38,2.38,0,0,1,.93.17,1.91,1.91,0,0,1,.61.41,3.19,3.19,0,0,1,.4.53.41.41,0,0,1,0,.09H927v-1.11h1.33v7a2.45,2.45,0,0,1-.4,1.44,2.32,2.32,0,0,1-1.1.86,4.25,4.25,0,0,1-1.61.28A4.47,4.47,0,0,1,923.69,437Zm2.49-4a1.77,1.77,0,0,0,.61-.78,3.21,3.21,0,0,0,.21-1.22,3.31,3.31,0,0,0-.2-1.23,1.83,1.83,0,0,0-.61-.82,1.69,1.69,0,0,0-1-.29,1.62,1.62,0,0,0-1,.3,1.91,1.91,0,0,0-.62.84,3.43,3.43,0,0,0-.2,1.2,3.12,3.12,0,0,0,.21,1.19,1.77,1.77,0,0,0,.61.8,1.67,1.67,0,0,0,1,.28A1.7,1.7,0,0,0,926.18,433.06Z"/><path class="cls-4" d="M764.07,444.29a1,1,0,0,1-.33-.33.9.9,0,0,1,0-.9.9.9,0,0,1,.78-.45.89.89,0,0,1,.45.12.87.87,0,0,1,.33.33.9.9,0,0,1,0,.9,1,1,0,0,1-.33.33.89.89,0,0,1-.45.12A.87.87,0,0,1,764.07,444.29Zm0,4.6a.87.87,0,0,1-.33-.33.78.78,0,0,1-.12-.45.8.8,0,0,1,.12-.45.78.78,0,0,1,.33-.32.87.87,0,0,1,.45-.12.89.89,0,0,1,.45.12.78.78,0,0,1,.33.32.89.89,0,0,1,.12.45.9.9,0,0,1-.45.78.89.89,0,0,1-.45.12A.87.87,0,0,1,764.07,448.89Z"/><path class="cls-4" d="M772,441l2.92,7.12h.11L778,441h1.7v9.19h-1.33v-6.63h-.09l-2.7,6.62h-1.11l-2.7-6.64h-.07v6.65h-1.34V441Z"/><path class="cls-4" d="M780.85,450.15l3.31-9.19h1.61l3.31,9.19h-1.49L785,442.64h-.07l-2.6,7.51Zm6.5-3.6v1.17h-4.77v-1.17Z"/><path class="cls-4" d="M792.65,448.44h.1l2.56-7.48h1.51l-3.31,9.19h-1.62l-3.3-9.19h1.51Z"/><path class="cls-4" d="M800.71,441h7.12v1.2H805v8h-1.4v-8h-2.86Z"/><path class="cls-4" d="M809.35,449.85a3,3,0,0,1-1.13-1.25,4.1,4.1,0,0,1-.4-1.86,4.16,4.16,0,0,1,.4-1.88,3,3,0,0,1,1.13-1.25,3.47,3.47,0,0,1,3.38,0,3,3,0,0,1,1.13,1.25,4.3,4.3,0,0,1,.4,1.88,4.24,4.24,0,0,1-.4,1.86,3,3,0,0,1-1.13,1.25,3.47,3.47,0,0,1-3.38,0Zm2.72-1a2,2,0,0,0,.62-.88,3.88,3.88,0,0,0,0-2.46,2,2,0,0,0-.62-.88,1.76,1.76,0,0,0-2.05,0,2,2,0,0,0-.62.88,3.55,3.55,0,0,0,0,2.46,2,2,0,0,0,.62.88,1.8,1.8,0,0,0,2.05,0Z"/><path class="cls-4" d="M815.6,441H817v9.19H815.6Zm1.24,5.21h.23l2.74-2.91h1.62l-3.13,3.32h-.22l-1.23,1.24Zm.65.71.94-.95,3.19,4.22H820Z"/><path class="cls-4" d="M823.43,449.85a3,3,0,0,1-1.14-1.23,4.25,4.25,0,0,1-.39-1.87,4.31,4.31,0,0,1,.39-1.87,3.05,3.05,0,0,1,1.12-1.26,3.12,3.12,0,0,1,1.67-.45,3.26,3.26,0,0,1,1.53.36,2.63,2.63,0,0,1,1.12,1.14,4.07,4.07,0,0,1,.42,2v.48h-5.49v-1h4.16a2,2,0,0,0-.22-.94,1.57,1.57,0,0,0-.6-.65,1.88,1.88,0,0,0-1.87,0,1.85,1.85,0,0,0-.65.71,2.28,2.28,0,0,0-.24,1V447a2.62,2.62,0,0,0,.25,1.17,1.74,1.74,0,0,0,.68.74,2,2,0,0,0,1,.26,2.3,2.3,0,0,0,.67-.1,1.58,1.58,0,0,0,.5-.27,1.23,1.23,0,0,0,.33-.39h1.37a2.31,2.31,0,0,1-.54,1,2.47,2.47,0,0,1-1,.66,3.86,3.86,0,0,1-1.35.23A3.42,3.42,0,0,1,823.43,449.85Z"/><path class="cls-4" d="M830.85,450.15h-1.36v-6.89h1.3v1.12h.09a2.06,2.06,0,0,1,.45-.64,1.76,1.76,0,0,1,.68-.43,2.79,2.79,0,0,1,.9-.14,2.55,2.55,0,0,1,1.24.29,2,2,0,0,1,.82.89,3.21,3.21,0,0,1,.29,1.42v4.38h-1.35v-4.22a1.87,1.87,0,0,0-.18-.85,1.17,1.17,0,0,0-.5-.55,1.5,1.5,0,0,0-.78-.19,1.73,1.73,0,0,0-.83.2,1.41,1.41,0,0,0-.56.6,1.87,1.87,0,0,0-.21.92Z"/><path class="cls-4" d="M658,431.36h7.12v1.2h-2.86v8h-1.39v-8H658Z"/><path class="cls-4" d="M666.65,440.25a3.11,3.11,0,0,1-1.13-1.25,4.24,4.24,0,0,1-.4-1.86,4.3,4.3,0,0,1,.4-1.88,3.11,3.11,0,0,1,1.13-1.25,3.29,3.29,0,0,1,1.7-.44A3.25,3.25,0,0,1,670,434a3,3,0,0,1,1.12,1.25,4.16,4.16,0,0,1,.4,1.88,4.1,4.1,0,0,1-.4,1.86,3,3,0,0,1-1.12,1.25,3.25,3.25,0,0,1-1.69.44A3.29,3.29,0,0,1,666.65,440.25Zm2.72-1a2,2,0,0,0,.62-.88,3.71,3.71,0,0,0,0-2.46,2,2,0,0,0-.62-.88,1.6,1.6,0,0,0-1-.33,1.56,1.56,0,0,0-1,.33,2,2,0,0,0-.63.88,3.71,3.71,0,0,0,0,2.46,2,2,0,0,0,.63.88,1.61,1.61,0,0,0,1,.32A1.65,1.65,0,0,0,669.37,439.24Z"/><path class="cls-4" d="M672.9,431.36h1.36v9.19H672.9Zm1.24,5.21h.23l2.74-2.91h1.62L675.6,437h-.21l-1.24,1.24Zm.66.71.93-.95,3.19,4.22h-1.66Z"/><path class="cls-4" d="M680.74,440.25A2.83,2.83,0,0,1,679.6,439a4.12,4.12,0,0,1-.4-1.87,4.18,4.18,0,0,1,.4-1.87,3,3,0,0,1,1.12-1.26,3.09,3.09,0,0,1,1.67-.45,3.32,3.32,0,0,1,1.53.36,2.66,2.66,0,0,1,1.11,1.14,4.07,4.07,0,0,1,.42,2v.48H680v-1h4.16a2.06,2.06,0,0,0-.21-.94,1.66,1.66,0,0,0-.61-.65,1.86,1.86,0,0,0-1.86,0,1.87,1.87,0,0,0-.66.71,2.13,2.13,0,0,0-.23,1v.78a2.63,2.63,0,0,0,.24,1.17,1.74,1.74,0,0,0,.68.74,2,2,0,0,0,1,.26,2,2,0,0,0,.66-.1,1.76,1.76,0,0,0,.51-.27,1.34,1.34,0,0,0,.32-.39h1.37a2.31,2.31,0,0,1-.54,1,2.47,2.47,0,0,1-1,.66,3.8,3.8,0,0,1-1.34.23A3.3,3.3,0,0,1,680.74,440.25Z"/><path class="cls-4" d="M688.15,440.55H686.8v-6.89h1.3v1.12h.08a2.06,2.06,0,0,1,.45-.64,1.7,1.7,0,0,1,.68-.42,2.81,2.81,0,0,1,2.15.14,2,2,0,0,1,.81.89,3.08,3.08,0,0,1,.29,1.42v4.38h-1.35v-4.22a2,2,0,0,0-.17-.85,1.28,1.28,0,0,0-.5-.55,1.52,1.52,0,0,0-.79-.19,1.73,1.73,0,0,0-.83.2,1.48,1.48,0,0,0-.56.6,1.87,1.87,0,0,0-.21.92Z"/><path class="cls-4" d="M702.21,433.06a1.57,1.57,0,0,0-.66-.46,2.54,2.54,0,0,0-.94-.16,2.43,2.43,0,0,0-1,.18,1.46,1.46,0,0,0-.65.48,1.16,1.16,0,0,0-.22.7,1,1,0,0,0,.47.89,3.91,3.91,0,0,0,1.2.5l.89.23a6.14,6.14,0,0,1,1.29.47,2.73,2.73,0,0,1,1,.82A2.17,2.17,0,0,1,704,438a2.44,2.44,0,0,1-.4,1.39,2.67,2.67,0,0,1-1.17,1,5.1,5.1,0,0,1-3.61,0,2.74,2.74,0,0,1-1.19-.94,2.63,2.63,0,0,1-.48-1.43h1.41a1.39,1.39,0,0,0,.31.81,1.74,1.74,0,0,0,.72.49,2.91,2.91,0,0,0,1,.17,2.69,2.69,0,0,0,1.05-.19,1.64,1.64,0,0,0,.72-.52,1.24,1.24,0,0,0,.26-.78.94.94,0,0,0-.22-.64,1.48,1.48,0,0,0-.59-.43,6.19,6.19,0,0,0-.93-.32l-1.08-.29a4,4,0,0,1-1.78-.91,2,2,0,0,1-.62-1.52,2.29,2.29,0,0,1,.43-1.38,2.85,2.85,0,0,1,1.17-.93,3.89,3.89,0,0,1,1.67-.34,4,4,0,0,1,1.65.33,2.7,2.7,0,0,1,1.13.91,2.3,2.3,0,0,1,.43,1.31H702.5A1.36,1.36,0,0,0,702.21,433.06Z"/><path class="cls-4" d="M708.59,434.74h-3.77v-1.08h3.77Zm-1.4-2.73v6.51a1.22,1.22,0,0,0,.11.57.65.65,0,0,0,.29.28,1.09,1.09,0,0,0,.42.07l.68,0v1.16a5.35,5.35,0,0,1-.84.06,2.53,2.53,0,0,1-1-.2,1.76,1.76,0,0,1-.73-.62,1.85,1.85,0,0,1-.28-1V432Z"/><path class="cls-4" d="M713.3,437.48l-.94.06a2.14,2.14,0,0,0-1.06.32.88.88,0,0,0-.38.76.9.9,0,0,0,.17.55,1,1,0,0,0,.46.34,2.19,2.19,0,0,0,1.62-.1,1.68,1.68,0,0,0,.61-.57,1.51,1.51,0,0,0,.21-.77v-2.18a1.41,1.41,0,0,0-.16-.67,1.1,1.1,0,0,0-.48-.42,2,2,0,0,0-.77-.14,2,2,0,0,0-.68.11,1.47,1.47,0,0,0-.48.31,1,1,0,0,0-.26.46h-1.35a2,2,0,0,1,.43-1,2.43,2.43,0,0,1,1-.7,3.71,3.71,0,0,1,1.42-.25,3.88,3.88,0,0,1,1.27.2,2.11,2.11,0,0,1,1,.74,2.32,2.32,0,0,1,.42,1.46v4.58H714v-.94H714a1.69,1.69,0,0,1-.41.53,2.18,2.18,0,0,1-.67.41,2.85,2.85,0,0,1-1,.15,2.8,2.8,0,0,1-1.18-.24,2,2,0,0,1-.84-.72,2.11,2.11,0,0,1-.31-1.14,1.67,1.67,0,0,1,.73-1.52,4.08,4.08,0,0,1,1.85-.54l.74,0,.8,0,.35,0,0,1Z"/><path class="cls-4" d="M717,431.36h1.36v9.19H717Zm1.24,5.21h.24l2.73-2.91h1.62L719.67,437h-.21l-1.24,1.24Zm.66.71.93-.95,3.19,4.22h-1.66Z"/><path class="cls-4" d="M724.13,432.49a.89.89,0,0,1-.31-.3.7.7,0,0,1-.12-.4.72.72,0,0,1,.12-.4.78.78,0,0,1,.31-.29.89.89,0,0,1,.43-.11.88.88,0,0,1,.42.11.78.78,0,0,1,.31.29.72.72,0,0,1,.12.4.7.7,0,0,1-.12.4.89.89,0,0,1-.31.3.88.88,0,0,1-.42.11A.89.89,0,0,1,724.13,432.49Zm-.26,1.17h1.36v6.89h-1.36Z"/><path class="cls-4" d="M728.23,440.55h-1.35v-6.89h1.3v1.12h.08a2.06,2.06,0,0,1,.45-.64,1.7,1.7,0,0,1,.68-.42,2.81,2.81,0,0,1,2.15.14,2.09,2.09,0,0,1,.82.89,3.21,3.21,0,0,1,.29,1.42v4.38h-1.36v-4.22a2,2,0,0,0-.17-.85,1.28,1.28,0,0,0-.5-.55,1.52,1.52,0,0,0-.79-.19,1.73,1.73,0,0,0-.83.2,1.55,1.55,0,0,0-.56.6,1.87,1.87,0,0,0-.21.92Z"/><path class="cls-4" d="M735.66,443a2.41,2.41,0,0,1-1-.71,1.92,1.92,0,0,1-.44-1.11h1.38a.94.94,0,0,0,.28.54,1.25,1.25,0,0,0,.56.33,2.76,2.76,0,0,0,.8.11,2,2,0,0,0,1.29-.38,1.44,1.44,0,0,0,.47-1.17V439.3h-.09l0,0a3.16,3.16,0,0,1-.39.53,1.86,1.86,0,0,1-.62.41,2.37,2.37,0,0,1-1,.18,2.85,2.85,0,0,1-1.48-.4,2.81,2.81,0,0,1-1-1.17A4.21,4.21,0,0,1,734,437a4.32,4.32,0,0,1,.38-1.86,2.69,2.69,0,0,1,2.52-1.6,2.39,2.39,0,0,1,.94.17,1.76,1.76,0,0,1,.6.41,3.23,3.23,0,0,1,.41.53.41.41,0,0,0,0,.09H739v-1.11h1.32v7a2.52,2.52,0,0,1-.39,1.44,2.37,2.37,0,0,1-1.1.86,4.28,4.28,0,0,1-1.61.28A4.47,4.47,0,0,1,735.66,443Zm2.49-4a1.84,1.84,0,0,0,.61-.78,3.21,3.21,0,0,0,.21-1.22,3.3,3.3,0,0,0-.21-1.23,1.76,1.76,0,0,0-.61-.82,1.79,1.79,0,0,0-2,0,1.89,1.89,0,0,0-.61.84,3.21,3.21,0,0,0-.21,1.2,3.12,3.12,0,0,0,.21,1.19,1.79,1.79,0,0,0,.62.8,1.66,1.66,0,0,0,1,.28A1.73,1.73,0,0,0,738.15,439.06Z"/><path class="cls-4" d="M733.3,506.16a2,2,0,0,0-.9-.63,3.49,3.49,0,0,0-1.29-.22,3.43,3.43,0,0,0-1.33.24,2,2,0,0,0-.88.67,1.55,1.55,0,0,0-.32.95,1.38,1.38,0,0,0,.65,1.23,5.36,5.36,0,0,0,1.65.68l1.22.32a8.77,8.77,0,0,1,1.77.64,3.71,3.71,0,0,1,1.33,1.13,3,3,0,0,1,.53,1.78,3.4,3.4,0,0,1-.55,1.92,3.71,3.71,0,0,1-1.61,1.31,6,6,0,0,1-2.52.47,6.11,6.11,0,0,1-2.44-.45,3.8,3.8,0,0,1-1.63-1.28,3.67,3.67,0,0,1-.65-2h1.92a1.9,1.9,0,0,0,.44,1.11,2.28,2.28,0,0,0,1,.68,3.72,3.72,0,0,0,1.37.23,3.8,3.8,0,0,0,1.43-.25,2.29,2.29,0,0,0,1-.72,1.74,1.74,0,0,0,.35-1.07,1.37,1.37,0,0,0-.29-.88,2.18,2.18,0,0,0-.81-.59,8.34,8.34,0,0,0-1.29-.44l-1.48-.4a5.45,5.45,0,0,1-2.44-1.25,2.75,2.75,0,0,1-.85-2.09,3.12,3.12,0,0,1,.59-1.89,3.79,3.79,0,0,1,1.6-1.28,5.94,5.94,0,0,1,4.56,0,3.7,3.7,0,0,1,1.55,1.24,3.23,3.23,0,0,1,.59,1.81H733.7A1.79,1.79,0,0,0,733.3,506.16Z"/><path class="cls-4" d="M742.07,508.47H736.9V507h5.17Zm-1.93-3.76v8.95a1.51,1.51,0,0,0,.16.78.84.84,0,0,0,.39.38,1.49,1.49,0,0,0,.59.1l.92,0v1.6a7.78,7.78,0,0,1-1.15.08,3.25,3.25,0,0,1-1.38-.29,2.26,2.26,0,0,1-1-.85,2.45,2.45,0,0,1-.38-1.39v-9.33Z"/><path class="cls-4" d="M748.53,512.23l-1.28.09a2.84,2.84,0,0,0-1.46.43,1.19,1.19,0,0,0-.52,1,1.26,1.26,0,0,0,.23.75,1.37,1.37,0,0,0,.63.46,2.45,2.45,0,0,0,.93.16,2.67,2.67,0,0,0,1.29-.3,2,2,0,0,0,.84-.78,2.09,2.09,0,0,0,.29-1.06v-3a1.75,1.75,0,0,0-.22-.91,1.37,1.37,0,0,0-.65-.58,2.72,2.72,0,0,0-1.06-.19,2.67,2.67,0,0,0-.93.15,1.87,1.87,0,0,0-.66.42,1.46,1.46,0,0,0-.35.63h-1.86a2.73,2.73,0,0,1,.59-1.4,3.28,3.28,0,0,1,1.34-1,5.09,5.09,0,0,1,1.94-.34,5.56,5.56,0,0,1,1.74.27,3,3,0,0,1,1.4,1,3.16,3.16,0,0,1,.58,2v6.29h-1.81v-1.3h-.08a2.55,2.55,0,0,1-.56.73,2.64,2.64,0,0,1-.93.55,3.53,3.53,0,0,1-1.31.22,3.92,3.92,0,0,1-1.63-.33,2.69,2.69,0,0,1-1.14-1,2.84,2.84,0,0,1-.42-1.56,2.29,2.29,0,0,1,1-2.09,5.48,5.48,0,0,1,2.54-.74l1-.06,1.09-.05c.22,0,.39,0,.49,0l0,1.35Z"/><path class="cls-4" d="M753.58,503.83h1.86v12.62h-1.86Zm1.7,7.15h.32l3.75-4h2.22l-4.29,4.57H757l-1.69,1.69Zm.9,1,1.28-1.31,4.37,5.8h-2.27Z"/><path class="cls-4" d="M764.33,516a4,4,0,0,1-1.56-1.7,5.63,5.63,0,0,1-.55-2.57,5.7,5.7,0,0,1,.55-2.56,4.09,4.09,0,0,1,1.53-1.73,4.22,4.22,0,0,1,2.3-.62,4.44,4.44,0,0,1,2.09.49,3.71,3.71,0,0,1,1.54,1.57,5.67,5.67,0,0,1,.57,2.69v.66h-7.54v-1.39H769a2.72,2.72,0,0,0-.29-1.29,2.13,2.13,0,0,0-.83-.88,2.28,2.28,0,0,0-1.23-.32,2.48,2.48,0,0,0-1.33.36,2.52,2.52,0,0,0-.9,1,2.8,2.8,0,0,0-.32,1.32v1.08a3.52,3.52,0,0,0,.33,1.59,2.33,2.33,0,0,0,.94,1,2.68,2.68,0,0,0,1.4.36,2.91,2.91,0,0,0,.92-.14,2.07,2.07,0,0,0,.69-.37,1.74,1.74,0,0,0,.45-.53h1.88a3.31,3.31,0,0,1-.74,1.35,3.56,3.56,0,0,1-1.37.9,5.11,5.11,0,0,1-1.84.32A4.75,4.75,0,0,1,764.33,516Z"/><path class="cls-4" d="M772.65,507h1.8v1.51h.09a2.53,2.53,0,0,1,.53-.88,2.41,2.41,0,0,1,.84-.57,2.56,2.56,0,0,1,1-.2,6.69,6.69,0,0,1,.8,0v1.78l-.44-.08-.53,0a2.45,2.45,0,0,0-1.16.27,2,2,0,0,0-.81.76,2.12,2.12,0,0,0-.29,1.1v5.77h-1.86Z"/><g class="cls-5"><line class="cls-6" x1="745.77" y1="477.1" x2="745.77" y2="400.11"/><polygon class="cls-4" points="750.76 401.57 745.77 392.94 740.79 401.57 750.76 401.57"/><line class="cls-6" x1="758.29" y1="469.92" x2="758.29" y2="392.94"/><polygon class="cls-4" points="763.28 468.46 758.29 477.1 753.31 468.46 763.28 468.46"/></g><g class="cls-3"><rect class="cls-4" x="1274.09" y="255.32" width="200" height="55.17"/></g><path class="cls-4" d="M1343.8,267.77h1.72v9.84h5.13v1.49h-6.85Z"/><path class="cls-4" d="M1352.6,269.16a1.12,1.12,0,0,1-.39-.36,1,1,0,0,1,0-1,1.12,1.12,0,0,1,.39-.36,1.18,1.18,0,0,1,.52-.13,1.14,1.14,0,0,1,.52.13,1,1,0,0,1,.39.36,1,1,0,0,1,0,1,1,1,0,0,1-.39.36,1,1,0,0,1-.52.13A1.06,1.06,0,0,1,1352.6,269.16Zm-.32,1.44H1354v8.5h-1.67Z"/><path class="cls-4" d="M1361.72,277.78h-.09l-.05.07a4,4,0,0,1-.49.68,2.4,2.4,0,0,1-.76.51,2.75,2.75,0,0,1-1.17.22,3.22,3.22,0,0,1-1.83-.53,3.44,3.44,0,0,1-1.26-1.53,5.46,5.46,0,0,1-.46-2.34,5.52,5.52,0,0,1,.46-2.34,3.52,3.52,0,0,1,1.27-1.51,3.32,3.32,0,0,1,1.84-.52,2.86,2.86,0,0,1,1.16.21,2.29,2.29,0,0,1,.74.51,3.77,3.77,0,0,1,.49.66l0,.05s0,0,0,.06h.12V270.6h1.64v11.68h-1.67Zm-1-.31a2.24,2.24,0,0,0,.76-1.05,4.27,4.27,0,0,0,.26-1.57,4.36,4.36,0,0,0-.25-1.56,2.15,2.15,0,0,0-.76-1,2.16,2.16,0,0,0-2.42,0,2.21,2.21,0,0,0-.76,1,4.21,4.21,0,0,0-.25,1.52,4.15,4.15,0,0,0,.26,1.54,2.27,2.27,0,0,0,.76,1.06,1.89,1.89,0,0,0,1.21.39A1.92,1.92,0,0,0,1360.73,277.47Z"/><path class="cls-4" d="M1370.82,270.6h1.66v8.5h-1.64v-1.47h-.09a2.38,2.38,0,0,1-.55.81,2.51,2.51,0,0,1-.86.56,2.92,2.92,0,0,1-1.13.21,2.77,2.77,0,0,1-1.45-.37,2.5,2.5,0,0,1-1-1.09,4,4,0,0,1-.35-1.75v-5.4h1.67v5.2a2.26,2.26,0,0,0,.22,1,1.69,1.69,0,0,0,.61.66,1.77,1.77,0,0,0,.9.23,2,2,0,0,0,1-.24,1.85,1.85,0,0,0,.75-.72,2.15,2.15,0,0,0,.3-1.16Z"/><path class="cls-4" d="M1374.84,269.16a1,1,0,0,1-.39-.36.91.91,0,0,1,0-1,1,1,0,0,1,.39-.36,1.14,1.14,0,0,1,.52-.13,1.18,1.18,0,0,1,.52.13,1,1,0,0,1,.38.36,1,1,0,0,1,0,1,1,1,0,0,1-.38.36,1.06,1.06,0,0,1-.52.13A1,1,0,0,1,1374.84,269.16Zm-.33,1.44h1.67v8.5h-1.67Z"/><path class="cls-4" d="M1379.56,278.73a3.57,3.57,0,0,1-1.26-1.53,5.46,5.46,0,0,1-.46-2.34,5.52,5.52,0,0,1,.46-2.34,3.54,3.54,0,0,1,1.28-1.51,3.3,3.3,0,0,1,1.84-.52,2.85,2.85,0,0,1,1.15.21,2.46,2.46,0,0,1,.75.51,4.32,4.32,0,0,1,.48.66l0,.05a.33.33,0,0,1,0,.06h.09v-4.21h1.67V279.1H1384v-1.32h-.13l0,.07a4,4,0,0,1-.5.68,2.46,2.46,0,0,1-.75.51,2.75,2.75,0,0,1-1.17.22A3.23,3.23,0,0,1,1379.56,278.73Zm3.41-1.26a2.39,2.39,0,0,0,.76-1.05,4.49,4.49,0,0,0,.26-1.57,4.36,4.36,0,0,0-.26-1.56,2.2,2.2,0,0,0-.75-1,2,2,0,0,0-1.21-.36,2,2,0,0,0-1.22.38,2.28,2.28,0,0,0-.76,1,4.21,4.21,0,0,0-.25,1.52,4.36,4.36,0,0,0,.26,1.54,2.34,2.34,0,0,0,.76,1.06,1.91,1.91,0,0,0,1.21.39A2,2,0,0,0,1383,277.47Z"/><path class="cls-4" d="M1388.11,269.16a1,1,0,0,1-.38-.36.91.91,0,0,1,0-1,1,1,0,0,1,.38-.36,1.19,1.19,0,0,1,.53-.13,1.21,1.21,0,0,1,.52.13,1,1,0,0,1,.38.36,1,1,0,0,1,0,1,1,1,0,0,1-.38.36,1.08,1.08,0,0,1-.52.13A1.07,1.07,0,0,1,1388.11,269.16Zm-.32,1.44h1.67v8.5h-1.67Z"/><path class="cls-4" d="M1395.47,271.93h-4.65V270.6h4.65Zm-1.73-3.37v8a1.51,1.51,0,0,0,.13.7.84.84,0,0,0,.36.34,1.35,1.35,0,0,0,.52.09l.83,0v1.44a7.7,7.7,0,0,1-1,.07,3,3,0,0,1-1.24-.26,2,2,0,0,1-.9-.76,2.18,2.18,0,0,1-.34-1.25v-8.38Z"/><path class="cls-4" d="M1397.23,282.25v-1.4h.75a2.58,2.58,0,0,0,.53-.05.8.8,0,0,0,.42-.31,2.39,2.39,0,0,0,.39-.74l.22-.56-3.12-8.61h1.79l2.14,6.59h.09l2.15-6.59h1.79l-3.51,9.63a3.26,3.26,0,0,1-1,1.54,2.76,2.76,0,0,1-1.71.51Q1397.56,282.28,1397.23,282.25Z"/><path class="cls-4" d="M1344.36,287h4.05a4.6,4.6,0,0,1,2.16.47,3.17,3.17,0,0,1,1.33,1.31,4.3,4.3,0,0,1,0,3.79,3.17,3.17,0,0,1-1.33,1.31,4.48,4.48,0,0,1-2.16.48h-2.78v-1.47h2.61a2.76,2.76,0,0,0,1.33-.28,1.73,1.73,0,0,0,.78-.78,2.47,2.47,0,0,0,.26-1.15,2.44,2.44,0,0,0-.26-1.15,1.66,1.66,0,0,0-.78-.77,2.8,2.8,0,0,0-1.34-.28h-2.15v9.85h-1.72Z"/><path class="cls-4" d="M1354,289.83h1.62v1.35h.09a2.1,2.1,0,0,1,.47-.79,1.93,1.93,0,0,1,.75-.51,2.41,2.41,0,0,1,.93-.18,5.33,5.33,0,0,1,.71,0v1.59l-.39-.07-.48,0a2.24,2.24,0,0,0-1,.24,1.77,1.77,0,0,0-.72.69,1.83,1.83,0,0,0-.27,1v5.18H1354Z"/><path class="cls-4" d="M1361.06,298a3.71,3.71,0,0,1-1.39-1.54,5.64,5.64,0,0,1,0-4.6,3.67,3.67,0,0,1,1.39-1.55,4.23,4.23,0,0,1,4.17,0,3.67,3.67,0,0,1,1.39,1.55,5.64,5.64,0,0,1,0,4.6,3.71,3.71,0,0,1-1.39,1.54,4.23,4.23,0,0,1-4.17,0Zm3.35-1.25a2.33,2.33,0,0,0,.76-1.08,4.27,4.27,0,0,0,.26-1.51,4.33,4.33,0,0,0-.26-1.52,2.44,2.44,0,0,0-.76-1.08,2,2,0,0,0-1.26-.41,2,2,0,0,0-1.26.4,2.43,2.43,0,0,0-.77,1.09,4.54,4.54,0,0,0,0,3,2.35,2.35,0,0,0,.77,1.08,2.18,2.18,0,0,0,2.52,0Z"/><path class="cls-4" d="M1372.66,298.32h-1.78l-3.09-8.49h1.8l2.14,6.52h.09l2.14-6.52h1.79Z"/><path class="cls-4" d="M1377.44,288.38a1.12,1.12,0,0,1-.39-.36.93.93,0,0,1-.14-.49,1,1,0,0,1,.14-.5,1.12,1.12,0,0,1,.39-.36,1.06,1.06,0,0,1,.52-.13,1,1,0,0,1,.52.13,1,1,0,0,1,.39.36,1,1,0,0,1,.14.5.93.93,0,0,1-.14.49,1,1,0,0,1-.39.36,1,1,0,0,1-.52.14A1,1,0,0,1,1377.44,288.38Zm-.32,1.45h1.67v8.49h-1.67Z"/><path class="cls-4" d="M1382.17,298a3.55,3.55,0,0,1-1.26-1.53,6.18,6.18,0,0,1,0-4.68,3.52,3.52,0,0,1,1.27-1.51,3.33,3.33,0,0,1,1.84-.53,2.86,2.86,0,0,1,1.16.22,2,2,0,0,1,.74.51,3.77,3.77,0,0,1,.49.66l0,0,0,.05h.09V287h1.67v11.33h-1.64V297h-.12l0,.07a3.6,3.6,0,0,1-.49.68,2.31,2.31,0,0,1-.75.52,2.81,2.81,0,0,1-1.17.22A3.3,3.3,0,0,1,1382.17,298Zm3.4-1.27a2.15,2.15,0,0,0,.76-1.05,4.2,4.2,0,0,0,.26-1.57,4.31,4.31,0,0,0-.25-1.55,2.2,2.2,0,0,0-.75-1,2,2,0,0,0-1.21-.36,2,2,0,0,0-1.22.37,2.26,2.26,0,0,0-.76,1,4.25,4.25,0,0,0-.25,1.52,4.11,4.11,0,0,0,.26,1.54,2.3,2.3,0,0,0,.76,1.07,2.06,2.06,0,0,0,2.4,0Z"/><path class="cls-4" d="M1391.91,298a3.6,3.6,0,0,1-1.41-1.53,5.19,5.19,0,0,1-.49-2.3,5.29,5.29,0,0,1,.49-2.3,3.75,3.75,0,0,1,1.38-1.56,3.83,3.83,0,0,1,2.06-.56,4,4,0,0,1,1.89.45,3.31,3.31,0,0,1,1.37,1.4,5,5,0,0,1,.52,2.43v.59H1391v-1.25h5.13a2.45,2.45,0,0,0-.27-1.16,2,2,0,0,0-.74-.8,2.13,2.13,0,0,0-1.11-.28,2.17,2.17,0,0,0-1.19.33,2.22,2.22,0,0,0-.81.88,2.65,2.65,0,0,0-.29,1.19v1a3.17,3.17,0,0,0,.3,1.43,2.12,2.12,0,0,0,.84.91,2.36,2.36,0,0,0,1.26.32,2.68,2.68,0,0,0,.83-.12,1.93,1.93,0,0,0,.62-.33,1.65,1.65,0,0,0,.4-.48h1.69a3,3,0,0,1-.67,1.21,3.18,3.18,0,0,1-1.22.81,4.63,4.63,0,0,1-1.66.29A4.16,4.16,0,0,1,1391.91,298Z"/><path class="cls-4" d="M1399.37,289.83H1401v1.35h.09a2.1,2.1,0,0,1,.47-.79,1.93,1.93,0,0,1,.75-.51,2.41,2.41,0,0,1,.93-.18,5.23,5.23,0,0,1,.71,0v1.59l-.39-.07-.47,0a2.26,2.26,0,0,0-1,.24,1.77,1.77,0,0,0-.72.69,1.83,1.83,0,0,0-.27,1v5.18h-1.67Z"/><path class="cls-4" d="M91.21,264.13h1.72V274h5.13v1.48H91.21Z"/><path class="cls-4" d="M100,265.52a1.12,1.12,0,0,1-.39-.36,1,1,0,0,1,.39-1.35,1.06,1.06,0,0,1,.52-.13,1,1,0,0,1,.52.13.9.9,0,0,1,.39.36.95.95,0,0,1,0,1,1.12,1.12,0,0,1-.91.5A1.07,1.07,0,0,1,100,265.52ZM99.69,267h1.67v8.5H99.69Z"/><path class="cls-4" d="M109.13,274.14H109l-.05.07a3.6,3.6,0,0,1-.49.68,2.31,2.31,0,0,1-.75.52,3,3,0,0,1-1.17.22,3.3,3.3,0,0,1-1.84-.53,3.55,3.55,0,0,1-1.26-1.53,6.18,6.18,0,0,1,0-4.68,3.46,3.46,0,0,1,1.27-1.51,3.33,3.33,0,0,1,1.84-.53,2.7,2.7,0,0,1,1.16.22,2.13,2.13,0,0,1,.74.5,4.28,4.28,0,0,1,.49.67l0,.05,0,0h.12V267h1.64v11.69h-1.67Zm-1-.31a2.24,2.24,0,0,0,.76-1.05,4.2,4.2,0,0,0,.26-1.57,4.31,4.31,0,0,0-.25-1.55,2.23,2.23,0,0,0-.75-1,2,2,0,0,0-1.21-.35,2,2,0,0,0-1.22.37,2.26,2.26,0,0,0-.76,1,4.21,4.21,0,0,0-.25,1.52,4.11,4.11,0,0,0,.26,1.54,2.3,2.3,0,0,0,.76,1.07,2.06,2.06,0,0,0,2.4,0Z"/><path class="cls-4" d="M118.23,267h1.66v8.5h-1.64V274h-.08a2.72,2.72,0,0,1-.56.82,2.84,2.84,0,0,1-.86.56,3.1,3.1,0,0,1-1.12.2,2.78,2.78,0,0,1-1.46-.37,2.4,2.4,0,0,1-1-1.09,4,4,0,0,1-.35-1.74V267h1.67v5.2a2.23,2.23,0,0,0,.22,1,1.56,1.56,0,0,0,.61.66,1.68,1.68,0,0,0,.9.24,1.93,1.93,0,0,0,1-.25,1.85,1.85,0,0,0,.75-.72,2.11,2.11,0,0,0,.3-1.16Z"/><path class="cls-4" d="M122.25,265.52a1.12,1.12,0,0,1-.39-.36.89.89,0,0,1,0-1,1,1,0,0,1,.39-.36,1,1,0,0,1,.52-.13,1.06,1.06,0,0,1,.52.13,1,1,0,0,1,.52.86.87.87,0,0,1-.14.49,1,1,0,0,1-.38.36,1.07,1.07,0,0,1-.52.14A1,1,0,0,1,122.25,265.52Zm-.33,1.44h1.67v8.5h-1.67Z"/><path class="cls-4" d="M127,275.1a3.64,3.64,0,0,1-1.27-1.53,5.46,5.46,0,0,1-.46-2.34,5.61,5.61,0,0,1,.46-2.34,3.48,3.48,0,0,1,1.28-1.51,3.3,3.3,0,0,1,1.84-.53,2.65,2.65,0,0,1,1.15.22,2.28,2.28,0,0,1,.75.5,5,5,0,0,1,.48.67l0,.05,0,0h.09v-4.21H133v11.33H131.4v-1.32h-.13a.43.43,0,0,1,0,.07,3.63,3.63,0,0,1-.5.68,2.31,2.31,0,0,1-.75.52,2.91,2.91,0,0,1-1.17.22A3.25,3.25,0,0,1,127,275.1Zm3.4-1.27a2.39,2.39,0,0,0,.76-1.05,4.41,4.41,0,0,0,.26-1.57,4.3,4.3,0,0,0-.26-1.55,2.23,2.23,0,0,0-.75-1,2,2,0,0,0-1.2-.35,2,2,0,0,0-1.23.37,2.25,2.25,0,0,0-.75,1,4.21,4.21,0,0,0-.26,1.52,4.32,4.32,0,0,0,.26,1.54,2.37,2.37,0,0,0,.76,1.07,2.08,2.08,0,0,0,2.41,0Z"/><path class="cls-4" d="M135.52,265.52a1,1,0,0,1-.38-.36,1,1,0,0,1,.38-1.35,1.07,1.07,0,0,1,.53-.13,1.08,1.08,0,0,1,.52.13,1,1,0,0,1,.52.86.87.87,0,0,1-.14.49,1,1,0,0,1-.38.36,1.1,1.1,0,0,1-.52.14A1.08,1.08,0,0,1,135.52,265.52ZM135.2,267h1.67v8.5H135.2Z"/><path class="cls-4" d="M142.88,268.3h-4.65V267h4.65Zm-1.73-3.37v8a1.48,1.48,0,0,0,.13.7.83.83,0,0,0,.36.34,1.35,1.35,0,0,0,.52.09l.83,0v1.44a6.33,6.33,0,0,1-1,.07,3,3,0,0,1-1.24-.25,2,2,0,0,1-.9-.77,2.14,2.14,0,0,1-.34-1.25v-8.37Z"/><path class="cls-4" d="M144.64,278.62v-1.4h.75a2.06,2.06,0,0,0,.54-.06.85.85,0,0,0,.41-.3,2.55,2.55,0,0,0,.4-.75l.21-.55L143.84,267h1.79l2.14,6.59h.09L150,267h1.79l-3.51,9.63a3.21,3.21,0,0,1-1,1.54,2.7,2.7,0,0,1-1.71.52Q145,278.65,144.64,278.62Z"/><path class="cls-4" d="M91.78,283.36h4a4.46,4.46,0,0,1,2.15.47,3.15,3.15,0,0,1,1.33,1.3,4.32,4.32,0,0,1,0,3.8A3.23,3.23,0,0,1,98,290.24a4.48,4.48,0,0,1-2.16.47H93v-1.46h2.61A2.76,2.76,0,0,0,97,289a1.73,1.73,0,0,0,.78-.78,2.67,2.67,0,0,0,0-2.3,1.66,1.66,0,0,0-.78-.77,2.93,2.93,0,0,0-1.34-.28H93.5v9.86H91.78Z"/><path class="cls-4" d="M101.42,286.19H103v1.35h.09a2.11,2.11,0,0,1,1.22-1.3,2.41,2.41,0,0,1,.93-.18c.26,0,.49,0,.71,0v1.6a2.14,2.14,0,0,0-.39-.07,4.07,4.07,0,0,0-.47,0,2.26,2.26,0,0,0-1,.25,1.75,1.75,0,0,0-.72.68,1.86,1.86,0,0,0-.27,1v5.18h-1.67Z"/><path class="cls-4" d="M108.47,294.31a3.65,3.65,0,0,1-1.39-1.54,5.64,5.64,0,0,1,0-4.6,3.65,3.65,0,0,1,1.39-1.54,4.23,4.23,0,0,1,4.17,0,3.65,3.65,0,0,1,1.39,1.54,5.64,5.64,0,0,1,0,4.6,3.65,3.65,0,0,1-1.39,1.54,4.23,4.23,0,0,1-4.17,0Zm3.35-1.24a2.44,2.44,0,0,0,.76-1.08,4.33,4.33,0,0,0,.26-1.52,4.27,4.27,0,0,0-.26-1.51,2.42,2.42,0,0,0-.76-1.09,2.18,2.18,0,0,0-2.52,0,2.46,2.46,0,0,0-.77,1.08,4.57,4.57,0,0,0,0,3,2.46,2.46,0,0,0,.77,1.08,2.18,2.18,0,0,0,2.52,0Z"/><path class="cls-4" d="M120.07,294.69h-1.78l-3.08-8.5H117l2.14,6.53h.09l2.14-6.53h1.79Z"/><path class="cls-4" d="M124.85,284.75a1.12,1.12,0,0,1-.39-.36,1,1,0,0,1-.14-.5,1,1,0,0,1,.14-.5,1.12,1.12,0,0,1,.39-.36,1.18,1.18,0,0,1,.52-.13,1.14,1.14,0,0,1,.52.13,1,1,0,0,1,.39.36,1,1,0,0,1,.14.5,1,1,0,0,1-.14.5,1,1,0,0,1-.39.36,1,1,0,0,1-.52.13A1.06,1.06,0,0,1,124.85,284.75Zm-.32,1.44h1.67v8.5h-1.67Z"/><path class="cls-4" d="M129.58,294.32a3.53,3.53,0,0,1-1.26-1.52,6.21,6.21,0,0,1,0-4.69,3.52,3.52,0,0,1,1.27-1.51,3.32,3.32,0,0,1,1.84-.52,2.86,2.86,0,0,1,1.16.21,2.29,2.29,0,0,1,.74.51,3.77,3.77,0,0,1,.49.66l0,.06a.11.11,0,0,1,0,.05H134v-4.21h1.67v11.33H134v-1.32h-.13l0,.07a4,4,0,0,1-.49.68,2.46,2.46,0,0,1-.75.51,2.81,2.81,0,0,1-1.17.22A3.23,3.23,0,0,1,129.58,294.32Zm3.4-1.26a2.33,2.33,0,0,0,.77-1.05,4.45,4.45,0,0,0,.26-1.57,4.36,4.36,0,0,0-.26-1.56,2.2,2.2,0,0,0-.75-1,2,2,0,0,0-1.21-.36,2,2,0,0,0-1.22.38,2.21,2.21,0,0,0-.76,1,4.21,4.21,0,0,0-.25,1.52,4.15,4.15,0,0,0,.26,1.54,2.27,2.27,0,0,0,.76,1.06,2.09,2.09,0,0,0,2.4,0Z"/><path class="cls-4" d="M139.32,294.32a3.64,3.64,0,0,1-1.41-1.52,5.64,5.64,0,0,1,0-4.6,3.64,3.64,0,0,1,3.44-2.12,4.11,4.11,0,0,1,1.89.44,3.33,3.33,0,0,1,1.37,1.41,5,5,0,0,1,.52,2.42v.59h-6.77v-1.25h5.13a2.5,2.5,0,0,0-.26-1.15,2,2,0,0,0-.75-.8,2.14,2.14,0,0,0-1.11-.29,2.17,2.17,0,0,0-1.19.33,2.28,2.28,0,0,0-.81.88,2.68,2.68,0,0,0-.29,1.19v1a3.12,3.12,0,0,0,.3,1.43,2.15,2.15,0,0,0,.84.92,2.52,2.52,0,0,0,1.27.32,2.66,2.66,0,0,0,.82-.12,2.16,2.16,0,0,0,.62-.34,1.65,1.65,0,0,0,.4-.48H145a2.87,2.87,0,0,1-.67,1.22,3.28,3.28,0,0,1-1.22.8,4.63,4.63,0,0,1-1.66.29A4.16,4.16,0,0,1,139.32,294.32Z"/><path class="cls-4" d="M146.78,286.19h1.62v1.35h.09a2.19,2.19,0,0,1,.47-.79,2.27,2.27,0,0,1,.75-.51,2.41,2.41,0,0,1,.93-.18c.26,0,.49,0,.72,0v1.6a2.47,2.47,0,0,0-.4-.07,3.89,3.89,0,0,0-.47,0,2.26,2.26,0,0,0-1.05.25,1.81,1.81,0,0,0-.72.68,1.86,1.86,0,0,0-.26,1v5.18h-1.68Z"/><g class="cls-9"><g class="cls-10"><line class="cls-11" x1="1234.5" y1="168.43" x2="1023.84" y2="388.77"/><line class="cls-11" x1="1229.94" y1="168.45" x2="1019.28" y2="388.79"/><line class="cls-11" x1="1225.38" y1="168.46" x2="1014.72" y2="388.81"/><line class="cls-11" x1="1220.82" y1="168.48" x2="1010.16" y2="388.82"/><line class="cls-11" x1="1216.26" y1="168.5" x2="1005.6" y2="388.84"/><line class="cls-11" x1="1211.7" y1="168.52" x2="1001.04" y2="388.86"/><line class="cls-11" x1="1207.14" y1="168.54" x2="996.48" y2="388.88"/><line class="cls-11" x1="1202.58" y1="168.55" x2="991.92" y2="388.9"/><line class="cls-11" x1="1198.02" y1="168.57" x2="987.36" y2="388.91"/><line class="cls-11" x1="1193.46" y1="168.59" x2="982.8" y2="388.93"/><line class="cls-11" x1="1188.9" y1="168.61" x2="978.24" y2="388.95"/><line class="cls-11" x1="1184.34" y1="168.63" x2="973.68" y2="388.97"/><line class="cls-11" x1="1179.78" y1="168.64" x2="969.12" y2="388.99"/><line class="cls-11" x1="1175.22" y1="168.66" x2="964.56" y2="389.01"/><line class="cls-11" x1="1170.66" y1="168.68" x2="960" y2="389.02"/><line class="cls-11" x1="1166.1" y1="168.7" x2="955.44" y2="389.04"/><line class="cls-11" x1="1161.54" y1="168.72" x2="950.88" y2="389.06"/><line class="cls-11" x1="1156.98" y1="168.74" x2="946.32" y2="389.08"/><line class="cls-11" x1="1152.42" y1="168.75" x2="941.76" y2="389.1"/><line class="cls-11" x1="1147.86" y1="168.77" x2="937.2" y2="389.11"/><line class="cls-11" x1="1143.3" y1="168.79" x2="932.64" y2="389.13"/><line class="cls-11" x1="1138.74" y1="168.81" x2="928.08" y2="389.15"/><line class="cls-11" x1="1134.18" y1="168.83" x2="923.52" y2="389.17"/><line class="cls-11" x1="1129.62" y1="168.84" x2="918.96" y2="389.19"/><line class="cls-11" x1="1125.06" y1="168.86" x2="914.4" y2="389.2"/><line class="cls-11" x1="1120.5" y1="168.88" x2="909.84" y2="389.22"/><line class="cls-11" x1="1115.94" y1="168.9" x2="905.28" y2="389.24"/><line class="cls-11" x1="1111.38" y1="168.92" x2="900.72" y2="389.26"/><line class="cls-11" x1="1106.82" y1="168.93" x2="896.16" y2="389.28"/><line class="cls-11" x1="1102.26" y1="168.95" x2="891.6" y2="389.29"/><line class="cls-11" x1="1097.7" y1="168.97" x2="887.04" y2="389.31"/><line class="cls-11" x1="1093.14" y1="168.99" x2="882.48" y2="389.33"/><line class="cls-11" x1="1088.58" y1="169.01" x2="877.92" y2="389.35"/><line class="cls-11" x1="1084.02" y1="169.02" x2="873.36" y2="389.37"/><line class="cls-11" x1="1079.46" y1="169.04" x2="868.8" y2="389.39"/><line class="cls-11" x1="1074.9" y1="169.06" x2="864.24" y2="389.4"/><line class="cls-11" x1="1070.34" y1="169.08" x2="859.68" y2="389.42"/><line class="cls-11" x1="1065.78" y1="169.1" x2="855.12" y2="389.44"/><line class="cls-11" x1="1061.22" y1="169.12" x2="850.56" y2="389.46"/><line class="cls-11" x1="1056.66" y1="169.13" x2="846" y2="389.48"/><line class="cls-11" x1="1052.1" y1="169.15" x2="841.44" y2="389.49"/><line class="cls-11" x1="1047.54" y1="169.17" x2="836.88" y2="389.51"/><line class="cls-11" x1="1042.97" y1="169.19" x2="832.32" y2="389.53"/><line class="cls-11" x1="1038.41" y1="169.21" x2="827.76" y2="389.55"/><line class="cls-11" x1="1033.85" y1="169.22" x2="823.2" y2="389.57"/><line class="cls-11" x1="1029.29" y1="169.24" x2="818.64" y2="389.58"/><line class="cls-11" x1="1024.73" y1="169.26" x2="814.08" y2="389.6"/><line class="cls-11" x1="1020.17" y1="169.28" x2="809.52" y2="389.62"/><line class="cls-11" x1="1015.61" y1="169.3" x2="804.96" y2="389.64"/><line class="cls-11" x1="1011.05" y1="169.31" x2="800.4" y2="389.66"/><line class="cls-11" x1="1006.49" y1="169.33" x2="795.84" y2="389.67"/><line class="cls-11" x1="1001.93" y1="169.35" x2="791.28" y2="389.69"/><line class="cls-11" x1="997.37" y1="169.37" x2="786.72" y2="389.71"/><line class="cls-11" x1="992.81" y1="169.39" x2="782.16" y2="389.73"/><line class="cls-11" x1="988.25" y1="169.4" x2="777.59" y2="389.75"/><line class="cls-11" x1="983.69" y1="169.42" x2="773.03" y2="389.77"/><line class="cls-11" x1="979.13" y1="169.44" x2="768.47" y2="389.78"/><line class="cls-11" x1="974.57" y1="169.46" x2="763.91" y2="389.8"/><line class="cls-11" x1="970.01" y1="169.48" x2="759.35" y2="389.82"/><line class="cls-11" x1="965.45" y1="169.5" x2="754.79" y2="389.84"/><line class="cls-11" x1="960.89" y1="169.51" x2="750.23" y2="389.86"/><line class="cls-11" x1="956.33" y1="169.53" x2="745.67" y2="389.87"/><line class="cls-11" x1="951.77" y1="169.55" x2="741.11" y2="389.89"/><line class="cls-11" x1="947.21" y1="169.57" x2="736.55" y2="389.91"/><line class="cls-11" x1="942.65" y1="169.59" x2="731.99" y2="389.93"/><line class="cls-11" x1="938.09" y1="169.6" x2="727.43" y2="389.95"/><line class="cls-11" x1="933.53" y1="169.62" x2="722.87" y2="389.96"/><line class="cls-11" x1="928.97" y1="169.64" x2="718.31" y2="389.98"/><line class="cls-11" x1="924.41" y1="169.66" x2="713.75" y2="390"/><line class="cls-11" x1="919.85" y1="169.68" x2="709.19" y2="390.02"/><line class="cls-11" x1="915.29" y1="169.69" x2="704.63" y2="390.04"/><line class="cls-11" x1="910.73" y1="169.71" x2="700.07" y2="390.05"/><line class="cls-11" x1="906.17" y1="169.73" x2="695.51" y2="390.07"/><line class="cls-11" x1="901.61" y1="169.75" x2="690.95" y2="390.09"/><line class="cls-11" x1="897.05" y1="169.77" x2="686.39" y2="390.11"/></g></g><path class="cls-4" d="M924.83,256.66h3v14.4h7.49v2.57H924.83Z"/><path class="cls-4" d="M938.32,258.86a1.71,1.71,0,0,1-.64-.58,1.47,1.47,0,0,1-.24-.81,1.52,1.52,0,0,1,.24-.83,1.73,1.73,0,0,1,.64-.59,1.87,1.87,0,0,1,1.72,0,1.63,1.63,0,0,1,.63.59,1.52,1.52,0,0,1,.24.83,1.47,1.47,0,0,1-.24.81,1.61,1.61,0,0,1-.63.58,1.79,1.79,0,0,1-1.72,0Zm-.64,2h3v12.73h-3Z"/><path class="cls-4" d="M952,271.62h-.12a.54.54,0,0,1-.07.13,4.62,4.62,0,0,1-.75,1,3.54,3.54,0,0,1-1.14.76,4.15,4.15,0,0,1-1.69.31,4.8,4.8,0,0,1-2.7-.78,5.14,5.14,0,0,1-1.87-2.26,8.48,8.48,0,0,1-.68-3.53,8.34,8.34,0,0,1,.69-3.54,5.07,5.07,0,0,1,1.88-2.25,5,5,0,0,1,2.69-.76A4.32,4.32,0,0,1,950,261a3.39,3.39,0,0,1,1.12.76,5.31,5.31,0,0,1,.74,1,.35.35,0,0,1,0,.08l0,.08h.17V260.9H955v17.5h-3Zm-1.32-.73a3.1,3.1,0,0,0,1-1.45,6,6,0,0,0,.36-2.18,6.11,6.11,0,0,0-.35-2.16,3.07,3.07,0,0,0-1-1.42,2.72,2.72,0,0,0-1.64-.49,2.66,2.66,0,0,0-1.65.51,3,3,0,0,0-1,1.44,6.6,6.6,0,0,0,0,4.27,3.32,3.32,0,0,0,1,1.47,2.6,2.6,0,0,0,1.64.53A2.67,2.67,0,0,0,950.72,270.89Z"/><path class="cls-4" d="M966,260.9h3v12.73h-2.88v-2.26H966a3.83,3.83,0,0,1-.83,1.27,3.91,3.91,0,0,1-1.3.85,4.58,4.58,0,0,1-1.69.3,4.27,4.27,0,0,1-2.22-.57,3.72,3.72,0,0,1-1.49-1.64,5.71,5.71,0,0,1-.54-2.58v-8.1h3v7.65a3.06,3.06,0,0,0,.3,1.39,2.29,2.29,0,0,0,.85.92,2.46,2.46,0,0,0,1.26.32,2.81,2.81,0,0,0,1.32-.33,2.66,2.66,0,0,0,1-1,3,3,0,0,0,.39-1.59Z"/><path class="cls-4" d="M972.51,258.86a1.79,1.79,0,0,1-.64-.58,1.47,1.47,0,0,1-.24-.81,1.52,1.52,0,0,1,.24-.83,1.81,1.81,0,0,1,.64-.59,1.79,1.79,0,0,1,.86-.21,1.86,1.86,0,0,1,.87.21,1.78,1.78,0,0,1,.63.59,1.6,1.6,0,0,1,.23.83,1.55,1.55,0,0,1-.23.81,1.78,1.78,0,0,1-1.5.8A1.69,1.69,0,0,1,972.51,258.86Zm-.64,2h3v12.73h-3Z"/><path class="cls-4" d="M979.76,273.07a5.21,5.21,0,0,1-1.87-2.26,8.48,8.48,0,0,1-.68-3.53,8.34,8.34,0,0,1,.69-3.54,5.21,5.21,0,0,1,1.88-2.25,5,5,0,0,1,2.69-.76,4.29,4.29,0,0,1,1.69.31,3.29,3.29,0,0,1,1.12.76,4.92,4.92,0,0,1,.74,1,.35.35,0,0,1,.05.08l0,.08h.12v-6.33h3v17h-2.92v-2h-.18l-.06.13a5.35,5.35,0,0,1-.75,1,3.78,3.78,0,0,1-1.14.76,4.18,4.18,0,0,1-1.69.31A4.81,4.81,0,0,1,979.76,273.07Zm5.15-2.18a3.18,3.18,0,0,0,1-1.45,6.27,6.27,0,0,0,.35-2.18,6.11,6.11,0,0,0-.35-2.16,3,3,0,0,0-1-1.42,3,3,0,0,0-3.29,0,3,3,0,0,0-1,1.44,6.6,6.6,0,0,0,0,4.27,3.4,3.4,0,0,0,1,1.47,2.81,2.81,0,0,0,3.27,0Z"/><path class="cls-4" d="M992.87,258.86a1.76,1.76,0,0,1-.63-.58,1.47,1.47,0,0,1-.24-.81,1.52,1.52,0,0,1,.24-.83,1.78,1.78,0,0,1,.63-.59,1.89,1.89,0,0,1,1.73,0,1.78,1.78,0,0,1,.63.59,1.6,1.6,0,0,1,.23.83,1.55,1.55,0,0,1-.23.81,1.76,1.76,0,0,1-.63.58,1.81,1.81,0,0,1-1.73,0Zm-.63,2h3v12.73h-3Z"/><path class="cls-4" d="M1004.43,263.2h-7.3v-2.3h7.3Zm-2.51-5.35V269.8a1.85,1.85,0,0,0,.19.9,1,1,0,0,0,.47.45,1.83,1.83,0,0,0,.71.14c.23,0,.67,0,1.31-.06v2.45a10.73,10.73,0,0,1-1.69.12,5.1,5.1,0,0,1-2-.39,3.23,3.23,0,0,1-1.41-1.17,3.32,3.32,0,0,1-.51-1.94V257.85Z"/><path class="cls-4" d="M1007,278.34V276h.5l.76,0a3.25,3.25,0,0,0,.75-.08,1.13,1.13,0,0,0,.57-.39,3.15,3.15,0,0,0,.52-.95l.26-.68-4.62-13h3.16l2.94,9.62h.14l3-9.62h3.17l-5.1,14.28a5.11,5.11,0,0,1-1.65,2.4,4.52,4.52,0,0,1-2.82.82A15.1,15.1,0,0,1,1007,278.34Z"/><path class="cls-4" d="M948.25,285.45h6.35a6.81,6.81,0,0,1,3.25.72,4.84,4.84,0,0,1,2,2,6,6,0,0,1,.69,2.91,5.92,5.92,0,0,1-.7,2.92,4.78,4.78,0,0,1-2,2,6.94,6.94,0,0,1-3.28.71h-4.21v-2.51h3.81a3.93,3.93,0,0,0,1.85-.39,2.54,2.54,0,0,0,1.11-1.09,3.58,3.58,0,0,0,.35-1.62,3.54,3.54,0,0,0-.35-1.61,2.45,2.45,0,0,0-1.11-1.07,4,4,0,0,0-1.87-.38h-2.84v14.42h-3Z"/><path class="cls-4" d="M965.07,301.85a5.45,5.45,0,0,1-2.13-2.3,7.51,7.51,0,0,1-.75-3.44,7.61,7.61,0,0,1,.75-3.45,5.53,5.53,0,0,1,2.13-2.31,6.71,6.71,0,0,1,6.43,0,5.53,5.53,0,0,1,2.13,2.31,7.61,7.61,0,0,1,.75,3.45,7.51,7.51,0,0,1-.75,3.44,5.45,5.45,0,0,1-2.13,2.3,6.64,6.64,0,0,1-6.43,0Zm4.91-2.11a3.42,3.42,0,0,0,1-1.5,6.9,6.9,0,0,0,0-4.28,3.39,3.39,0,0,0-1-1.51,2.83,2.83,0,0,0-3.38,0,3.33,3.33,0,0,0-1,1.51,6.54,6.54,0,0,0,0,4.28,3.35,3.35,0,0,0,1,1.5,2.87,2.87,0,0,0,3.38,0Z"/><path class="cls-4" d="M979.05,301.85a5.45,5.45,0,0,1-2.13-2.3,7.51,7.51,0,0,1-.75-3.44,7.61,7.61,0,0,1,.75-3.45,5.53,5.53,0,0,1,2.13-2.31,6.73,6.73,0,0,1,6.44,0,5.51,5.51,0,0,1,2.12,2.31,7.61,7.61,0,0,1,.75,3.45,7.51,7.51,0,0,1-.75,3.44,5.43,5.43,0,0,1-2.12,2.3,6.66,6.66,0,0,1-6.44,0Zm4.91-2.11a3.42,3.42,0,0,0,1-1.5,6.9,6.9,0,0,0,0-4.28,3.39,3.39,0,0,0-1-1.51,2.83,2.83,0,0,0-3.38,0,3.33,3.33,0,0,0-1,1.51,6.54,6.54,0,0,0,0,4.28,3.35,3.35,0,0,0,1,1.5,2.87,2.87,0,0,0,3.38,0Z"/><path class="cls-4" d="M993.68,302.43h-3v-17h3Z"/><path class="cls-7" d="M893.76,212.32a102.36,102.36,0,0,0-16.18,25.36m0,0a102.27,102.27,0,1,0,16.18-25.36"/><path class="cls-4" d="M691,104.67h7.35l4.36,18.76H703l4.92-18.76h6.05l4.94,18.8h.22l4.37-18.8h7.34L722.61,133h-6.44L711,115.54h-.23L705.65,133h-6.44Z"/><path class="cls-4" d="M741.5,124.14c-.94,0-1.7.11-2.3.16a3.36,3.36,0,0,0-2,.78,2.16,2.16,0,0,0-.73,1.69,2.1,2.1,0,0,0,.34,1.21,2,2,0,0,0,1,.74,3.74,3.74,0,0,0,1.44.25,4.42,4.42,0,0,0,2-.46,3.57,3.57,0,0,0,1.43-1.26,3.3,3.3,0,0,0,.53-1.84l0-6.92a2.18,2.18,0,0,0-.36-1.27,2.12,2.12,0,0,0-1-.8,4,4,0,0,0-1.53-.27,4.46,4.46,0,0,0-1.53.25,2.72,2.72,0,0,0-1.07.73,2.62,2.62,0,0,0-.54,1.18H731a6.74,6.74,0,0,1,1.28-3.48,7.5,7.5,0,0,1,3.19-2.46,12.26,12.26,0,0,1,4.93-.9,13,13,0,0,1,4.79.82,7.57,7.57,0,0,1,3.33,2.43,6.23,6.23,0,0,1,1.22,3.85V133h-6.2v-3h-.17a5.9,5.9,0,0,1-3.5,2.94,8.53,8.53,0,0,1-2.67.38,9,9,0,0,1-3.63-.69,5.5,5.5,0,0,1-2.47-2.12,6.38,6.38,0,0,1-.89-3.46,5.58,5.58,0,0,1,2.16-4.85,10.64,10.64,0,0,1,5.7-1.79l2.13-.1,2.32-.11.92,0,0,3.87Z"/><path class="cls-4" d="M760.4,133h-6.59V104.67h6.59Z"/><path class="cls-4" d="M771.21,133h-6.58V104.67h6.58Z"/><path class="cls-4" d="M779.6,132a8.88,8.88,0,0,1-3.7-3.78,12.4,12.4,0,0,1-1.29-5.82,12.26,12.26,0,0,1,1.3-5.76,9.34,9.34,0,0,1,3.67-3.85,10.89,10.89,0,0,1,5.52-1.36,11.07,11.07,0,0,1,5.31,1.25,8.75,8.75,0,0,1,3.61,3.69,12.38,12.38,0,0,1,1.3,5.87V124H777v-3.88h12.2a3.9,3.9,0,0,0-.51-2,3.61,3.61,0,0,0-1.4-1.37,4.23,4.23,0,0,0-2-.48,4.18,4.18,0,0,0-2.09.52,3.91,3.91,0,0,0-1.48,1.43,3.86,3.86,0,0,0-.54,2v3.9a5.05,5.05,0,0,0,.52,2.35,3.68,3.68,0,0,0,1.49,1.56,4.51,4.51,0,0,0,2.3.56,5.22,5.22,0,0,0,1.63-.24,3.55,3.55,0,0,0,1.25-.7,3.08,3.08,0,0,0,.79-1.07h6.13a7.54,7.54,0,0,1-1.7,3.59,8.46,8.46,0,0,1-3.4,2.37,13.14,13.14,0,0,1-4.83.83A11.71,11.71,0,0,1,779.6,132Z"/><path class="cls-4" d="M810.54,116.61H797.28v-4.86h13.26Zm-3.84-10v19.66a2.3,2.3,0,0,0,.2,1,1.28,1.28,0,0,0,.6.55,2.86,2.86,0,0,0,1,.2,23,23,0,0,0,2.36-.11v5a20,20,0,0,1-3.29.24,10.68,10.68,0,0,1-4-.68,5.28,5.28,0,0,1-2.53-2.05,6.15,6.15,0,0,1-.87-3.46V106.66Z"/><g class="cls-5"><line class="cls-6" x1="1081.15" y1="289.69" x2="1256.69" y2="289.69"/><polygon class="cls-4" points="1255.23 294.67 1263.87 289.69 1255.23 284.7 1255.23 294.67"/></g><g class="cls-5"><line class="cls-6" x1="1088.33" y1="277.16" x2="1263.87" y2="277.16"/><polygon class="cls-4" points="1089.79 282.15 1081.15 277.17 1089.79 272.18 1089.79 282.15"/></g><path class="cls-4" d="M1125.48,295.32h1.4v8H1131v1.2h-5.56Z"/><path class="cls-4" d="M1132.47,295.32h3.28a3.71,3.71,0,0,1,1.75.38,2.57,2.57,0,0,1,1.08,1.06,3.47,3.47,0,0,1,0,3.08,2.57,2.57,0,0,1-1.08,1.06,3.59,3.59,0,0,1-1.75.39h-2.26V300.1h2.12a2.35,2.35,0,0,0,1.09-.23,1.53,1.53,0,0,0,.63-.63,2.13,2.13,0,0,0,.2-.94,2.06,2.06,0,0,0-.2-.93,1.47,1.47,0,0,0-.63-.63,2.35,2.35,0,0,0-1.09-.22h-1.75v8h-1.39Z"/><path class="cls-4" d="M1143.13,295.32h7.12v1.2h-2.86v8H1146v-8h-2.86Z"/><path class="cls-4" d="M1151.77,304.21a3,3,0,0,1-1.13-1.25,4.55,4.55,0,0,1,0-3.73,3,3,0,0,1,1.13-1.26,3.47,3.47,0,0,1,3.38,0,2.94,2.94,0,0,1,1.13,1.26,4.55,4.55,0,0,1,0,3.73,2.92,2.92,0,0,1-1.13,1.25,3.47,3.47,0,0,1-3.38,0Zm2.72-1a2,2,0,0,0,.62-.88,3.88,3.88,0,0,0,0-2.46,2,2,0,0,0-.62-.88,1.8,1.8,0,0,0-2,0,2,2,0,0,0-.62.88,3.55,3.55,0,0,0,0,2.46,2,2,0,0,0,.62.88,1.8,1.8,0,0,0,2,0Z"/><path class="cls-4" d="M1158,295.32h1.36v9.19H1158Zm1.24,5.21h.23l2.74-2.91h1.62l-3.13,3.32h-.22l-1.23,1.24Zm.65.72.94-1,3.19,4.22h-1.66Z"/><path class="cls-4" d="M1165.85,304.22a3,3,0,0,1-1.14-1.24,4.65,4.65,0,0,1,0-3.73,3,3,0,0,1,1.12-1.27,3.12,3.12,0,0,1,1.67-.45,3.26,3.26,0,0,1,1.53.36,2.63,2.63,0,0,1,1.12,1.14,4.09,4.09,0,0,1,.42,2v.48h-5.49v-1h4.16a2,2,0,0,0-.22-.94,1.54,1.54,0,0,0-.6-.64,1.68,1.68,0,0,0-.9-.24,1.77,1.77,0,0,0-1,.27,1.85,1.85,0,0,0-.65.71,2.28,2.28,0,0,0-.24,1v.79a2.58,2.58,0,0,0,.25,1.16,1.74,1.74,0,0,0,.68.74,2,2,0,0,0,1,.26,2,2,0,0,0,.67-.1,1.58,1.58,0,0,0,.5-.27,1.23,1.23,0,0,0,.33-.39h1.37a2.34,2.34,0,0,1-.54,1,2.55,2.55,0,0,1-1,.65,3.65,3.65,0,0,1-1.35.23A3.41,3.41,0,0,1,1165.85,304.22Z"/><path class="cls-4" d="M1173.27,304.51h-1.36v-6.89h1.3v1.13h.09a2,2,0,0,1,.45-.65,1.87,1.87,0,0,1,.68-.42,2.54,2.54,0,0,1,.9-.15,2.45,2.45,0,0,1,1.24.3,2,2,0,0,1,.82.88,3.21,3.21,0,0,1,.29,1.42v4.38h-1.35v-4.22a1.87,1.87,0,0,0-.18-.85,1.17,1.17,0,0,0-.5-.55,1.5,1.5,0,0,0-.78-.19,1.73,1.73,0,0,0-.83.2,1.41,1.41,0,0,0-.56.6,1.89,1.89,0,0,0-.21.92Z"/><path class="cls-4" d="M1182.61,295.32h3.28a3.89,3.89,0,0,1,1.76.36,2.44,2.44,0,0,1,1.07,1,3.06,3.06,0,0,1,.35,1.51,3,3,0,0,1-.35,1.5,2.3,2.3,0,0,1-1.07,1,3.92,3.92,0,0,1-1.76.35h-2.49v-1.2h2.35a2.63,2.63,0,0,0,1.09-.19,1.29,1.29,0,0,0,.63-.56,1.83,1.83,0,0,0,.2-.89,1.93,1.93,0,0,0-.2-.9,1.24,1.24,0,0,0-.63-.58,2.67,2.67,0,0,0-1.1-.2H1184v8h-1.39Zm6.81,9.19h-1.59l-2.23-4.14h1.56Z"/><path class="cls-4" d="M1191.65,304.22a2.91,2.91,0,0,1-1.14-1.24,4.55,4.55,0,0,1,0-3.73,3,3,0,0,1,1.12-1.27,3.09,3.09,0,0,1,1.67-.45,3.32,3.32,0,0,1,1.53.36,2.66,2.66,0,0,1,1.11,1.14,4.09,4.09,0,0,1,.42,2v.48h-5.49v-1H1195a2.06,2.06,0,0,0-.21-.94,1.63,1.63,0,0,0-.61-.64,1.67,1.67,0,0,0-.89-.24,1.75,1.75,0,0,0-1,.27,2,2,0,0,0-.66.71,2.13,2.13,0,0,0-.23,1v.79a2.58,2.58,0,0,0,.24,1.16,1.74,1.74,0,0,0,.68.74,2,2,0,0,0,1,.26,2,2,0,0,0,.66-.1,1.76,1.76,0,0,0,.51-.27,1.34,1.34,0,0,0,.32-.39h1.37a2.34,2.34,0,0,1-.54,1,2.55,2.55,0,0,1-1,.65,3.59,3.59,0,0,1-1.34.23A3.39,3.39,0,0,1,1191.65,304.22Z"/><path class="cls-4" d="M1197.15,297.62h1.4l1.35,5.05h.07l1.35-5.05h1.4l1.33,5h.07l1.34-5h1.4l-2,6.89h-1.37l-1.4-5h-.1l-1.39,5h-1.39Z"/><path class="cls-4" d="M1211.36,301.44l-.94.07a2,2,0,0,0-1.06.31.88.88,0,0,0-.38.76.9.9,0,0,0,.17.55,1,1,0,0,0,.46.34,1.75,1.75,0,0,0,.67.11,2,2,0,0,0,.94-.21,1.56,1.56,0,0,0,.62-.57,1.51,1.51,0,0,0,.21-.77v-2.18a1.3,1.3,0,0,0-.16-.67,1,1,0,0,0-.47-.41,1.79,1.79,0,0,0-.77-.15,2,2,0,0,0-.68.11,1.47,1.47,0,0,0-.48.31,1,1,0,0,0-.26.46h-1.35a1.94,1.94,0,0,1,.43-1,2.36,2.36,0,0,1,1-.7,3.71,3.71,0,0,1,1.42-.25,4.05,4.05,0,0,1,1.26.2,2.2,2.2,0,0,1,1,.74,2.39,2.39,0,0,1,.42,1.46v4.58h-1.32v-.94H1212a1.69,1.69,0,0,1-.41.53,2,2,0,0,1-.68.41,2.74,2.74,0,0,1-1,.16,2.88,2.88,0,0,1-1.19-.25,2,2,0,0,1-1.14-1.85,1.69,1.69,0,0,1,.73-1.53,4.08,4.08,0,0,1,1.85-.54l.74,0,.8,0h.35l0,1Z"/><path class="cls-4" d="M1215,297.62h1.31v1.1h.08a1.65,1.65,0,0,1,.38-.64,1.52,1.52,0,0,1,.61-.42,1.92,1.92,0,0,1,.75-.14,5.22,5.22,0,0,1,.58,0v1.29a1.8,1.8,0,0,0-.32,0l-.38,0a1.7,1.7,0,0,0-.85.2,1.49,1.49,0,0,0-.59.55,1.57,1.57,0,0,0-.21.8v4.2H1215Z"/><path class="cls-4" d="M1220.62,304.22a2.94,2.94,0,0,1-1-1.24,5.06,5.06,0,0,1,0-3.8,2.93,2.93,0,0,1,1-1.23,2.73,2.73,0,0,1,1.5-.42,2.43,2.43,0,0,1,.94.17,1.91,1.91,0,0,1,.6.41,3.74,3.74,0,0,1,.39.54l0,0,0,.05h.07v-3.42h1.36v9.19h-1.33v-1.07h-.1l0,.06a2.88,2.88,0,0,1-.4.55,1.82,1.82,0,0,1-.61.42,2.27,2.27,0,0,1-1,.18A2.73,2.73,0,0,1,1220.62,304.22Zm2.77-1a1.82,1.82,0,0,0,.61-.85,3.56,3.56,0,0,0,.21-1.27,3.72,3.72,0,0,0-.2-1.27,1.88,1.88,0,0,0-.62-.83,1.64,1.64,0,0,0-1-.29,1.59,1.59,0,0,0-1,.31,1.84,1.84,0,0,0-.61.84,3.39,3.39,0,0,0-.21,1.24,3.31,3.31,0,0,0,.22,1.25,2,2,0,0,0,.61.86,1.56,1.56,0,0,0,1,.31A1.62,1.62,0,0,0,1223.39,303.19Z"/><path class="cls-4" d="M1104.41,246.77h1.4v8H1110V256h-5.56Z"/><path class="cls-4" d="M1111.55,247.9a.86.86,0,0,1-.31-.29.72.72,0,0,1-.12-.4.75.75,0,0,1,.12-.41.86.86,0,0,1,.31-.29.91.91,0,0,1,.43-.1.84.84,0,0,1,.73.39.75.75,0,0,1,.12.41.72.72,0,0,1-.12.4.86.86,0,0,1-.31.29.78.78,0,0,1-.42.11A.81.81,0,0,1,1111.55,247.9Zm-.26,1.17h1.36V256h-1.36Z"/><path class="cls-4" d="M1119,254.89h-.07l0,.06a3.49,3.49,0,0,1-.4.56,2.09,2.09,0,0,1-.61.41,2.27,2.27,0,0,1-.95.18,2.63,2.63,0,0,1-1.49-.43,3,3,0,0,1-1-1.24,4.63,4.63,0,0,1-.37-1.9,4.47,4.47,0,0,1,.38-1.9,2.83,2.83,0,0,1,1-1.22,2.63,2.63,0,0,1,1.49-.43,2.22,2.22,0,0,1,.94.18,1.63,1.63,0,0,1,.6.41,3.07,3.07,0,0,1,.4.53s0,0,0,.05l0,0h.1v-1.12h1.32v9.48H1119Zm-.8-.24a1.92,1.92,0,0,0,.62-.86,3.52,3.52,0,0,0,.21-1.27,3.47,3.47,0,0,0-.21-1.26,1.69,1.69,0,0,0-.61-.83,1.79,1.79,0,0,0-2,0,1.85,1.85,0,0,0-.61.85,3.34,3.34,0,0,0-.21,1.23,3.49,3.49,0,0,0,.21,1.25,1.86,1.86,0,0,0,.62.86,1.56,1.56,0,0,0,1,.32A1.58,1.58,0,0,0,1118.15,254.65Z"/><path class="cls-4" d="M1126.33,249.07h1.35V256h-1.33v-1.2h-.07a2.19,2.19,0,0,1-.45.67,2,2,0,0,1-.7.45,2.38,2.38,0,0,1-.91.17,2.28,2.28,0,0,1-1.18-.3,2,2,0,0,1-.8-.89,3.2,3.2,0,0,1-.28-1.41v-4.39h1.35v4.22a1.73,1.73,0,0,0,.18.81,1.37,1.37,0,0,0,.5.54,1.4,1.4,0,0,0,.72.19,1.61,1.61,0,0,0,.77-.2,1.54,1.54,0,0,0,.61-.58,1.79,1.79,0,0,0,.24-1Z"/><path class="cls-4" d="M1129.59,247.9a.86.86,0,0,1-.31-.29.72.72,0,0,1-.12-.4.75.75,0,0,1,.12-.41.86.86,0,0,1,.31-.29.91.91,0,0,1,.43-.1.84.84,0,0,1,.73.39.75.75,0,0,1,.12.41.72.72,0,0,1-.12.4.86.86,0,0,1-.31.29.78.78,0,0,1-.42.11A.81.81,0,0,1,1129.59,247.9Zm-.26,1.17h1.36V256h-1.36Z"/><path class="cls-4" d="M1133.43,255.67a2.87,2.87,0,0,1-1-1.24,4.94,4.94,0,0,1,0-3.8,2.83,2.83,0,0,1,1-1.22,2.65,2.65,0,0,1,1.49-.43,2.22,2.22,0,0,1,.94.18,1.63,1.63,0,0,1,.6.41,3.07,3.07,0,0,1,.4.53s0,0,0,.05l0,0h.07v-3.42h1.35V256H1137v-1.08h-.1a.15.15,0,0,1,0,.06,3.49,3.49,0,0,1-.4.56,2.09,2.09,0,0,1-.61.41,2.27,2.27,0,0,1-.95.18A2.63,2.63,0,0,1,1133.43,255.67Zm2.76-1a1.92,1.92,0,0,0,.62-.86,3.52,3.52,0,0,0,.21-1.27,3.47,3.47,0,0,0-.21-1.26,1.69,1.69,0,0,0-.61-.83,1.79,1.79,0,0,0-2,0,1.85,1.85,0,0,0-.61.85,3.34,3.34,0,0,0-.21,1.23,3.49,3.49,0,0,0,.21,1.25,1.86,1.86,0,0,0,.62.86,1.56,1.56,0,0,0,1,.32A1.58,1.58,0,0,0,1136.19,254.65Z"/><path class="cls-4" d="M1140.37,247.9a.89.89,0,0,1-.32-.29.72.72,0,0,1-.12-.4.75.75,0,0,1,.12-.41.89.89,0,0,1,.32-.29.93.93,0,0,1,.84,0,.79.79,0,0,1,.31.29.75.75,0,0,1,.12.41.72.72,0,0,1-.12.4.79.79,0,0,1-.31.29.86.86,0,0,1-.84,0Zm-.27,1.17h1.36V256h-1.36Z"/><path class="cls-4" d="M1146.33,250.15h-3.77v-1.08h3.77Zm-1.4-2.73v6.52a1.28,1.28,0,0,0,.11.57.62.62,0,0,0,.29.27,1.08,1.08,0,0,0,.42.08l.68,0V256a5.35,5.35,0,0,1-.84.06,2.4,2.4,0,0,1-1-.21,1.69,1.69,0,0,1-.73-.62,1.79,1.79,0,0,1-.28-1v-6.8Z"/><path class="cls-4" d="M1147.77,258.53v-1.14h.6a1.78,1.78,0,0,0,.44-.05.69.69,0,0,0,.33-.24,2.12,2.12,0,0,0,.32-.61l.17-.45-2.52-7h1.45l1.73,5.35h.07l1.75-5.35h1.45l-2.84,7.81a2.6,2.6,0,0,1-.85,1.25,2.21,2.21,0,0,1-1.39.42Z"/><path class="cls-4" d="M1162.68,248.47a1.67,1.67,0,0,0-.66-.46,2.77,2.77,0,0,0-.94-.15,2.44,2.44,0,0,0-1,.17,1.46,1.46,0,0,0-.64.49,1.12,1.12,0,0,0-.23.69,1,1,0,0,0,.47.9,3.9,3.9,0,0,0,1.2.49l.89.24a5.75,5.75,0,0,1,1.29.46,2.75,2.75,0,0,1,1,.82,2.13,2.13,0,0,1,.39,1.3,2.48,2.48,0,0,1-.41,1.4,2.65,2.65,0,0,1-1.17,1,4.27,4.27,0,0,1-1.83.35,4.42,4.42,0,0,1-1.78-.33,2.85,2.85,0,0,1-1.19-.93,2.74,2.74,0,0,1-.47-1.44h1.4a1.39,1.39,0,0,0,.31.81,1.73,1.73,0,0,0,.73.5,2.84,2.84,0,0,0,1,.16,2.87,2.87,0,0,0,1-.18,1.72,1.72,0,0,0,.72-.52,1.23,1.23,0,0,0,.27-.78,1,1,0,0,0-.22-.65,1.92,1.92,0,0,0-.59-.43,6.46,6.46,0,0,0-.94-.31l-1.08-.29a4.2,4.2,0,0,1-1.78-.91,2,2,0,0,1-.62-1.53,2.35,2.35,0,0,1,.43-1.38,2.85,2.85,0,0,1,1.17-.93,4.4,4.4,0,0,1,3.32,0,2.73,2.73,0,0,1,1.14.91,2.34,2.34,0,0,1,.42,1.31H1163A1.43,1.43,0,0,0,1162.68,248.47Z"/><path class="cls-4" d="M1170.22,249.07h1.35V256h-1.33v-1.2h-.07a2.19,2.19,0,0,1-.45.67,2.11,2.11,0,0,1-.7.45,2.38,2.38,0,0,1-.91.17,2.34,2.34,0,0,1-1.19-.3,2,2,0,0,1-.79-.89,3.19,3.19,0,0,1-.29-1.41v-4.39h1.36v4.22a1.73,1.73,0,0,0,.18.81,1.35,1.35,0,0,0,.49.54,1.44,1.44,0,0,0,.73.19,1.64,1.64,0,0,0,.77-.2,1.61,1.61,0,0,0,.61-.58,1.79,1.79,0,0,0,.24-1Z"/><path class="cls-4" d="M1173.22,249.07h1.32v1.12h.12a.08.08,0,0,1,0,0s0,0,0-.05a3.07,3.07,0,0,1,.4-.53,1.63,1.63,0,0,1,.6-.41,2.17,2.17,0,0,1,.93-.18,2.66,2.66,0,0,1,1.5.43,2.83,2.83,0,0,1,1,1.22,5.06,5.06,0,0,1,0,3.8,2.87,2.87,0,0,1-1,1.24,2.65,2.65,0,0,1-1.49.43,2.28,2.28,0,0,1-1-.18,1.83,1.83,0,0,1-.61-.43,3,3,0,0,1-.41-.56v0h-.09v3.66h-1.35Zm1.54,4.72a1.9,1.9,0,0,0,.61.86,1.6,1.6,0,0,0,1,.3,1.57,1.57,0,0,0,1-.32,1.8,1.8,0,0,0,.62-.86,3.49,3.49,0,0,0,.21-1.25,3.34,3.34,0,0,0-.21-1.23,1.78,1.78,0,0,0-.61-.85,1.63,1.63,0,0,0-1-.3,1.55,1.55,0,0,0-1,.29,1.76,1.76,0,0,0-.61.83,3.47,3.47,0,0,0-.21,1.26A3.52,3.52,0,0,0,1174.76,253.79Z"/><path class="cls-4" d="M1180.88,249.07h1.32v1.12h.11l0,0,0-.05a3.63,3.63,0,0,1,.39-.53,1.76,1.76,0,0,1,.61-.41,2.14,2.14,0,0,1,.93-.18,2.66,2.66,0,0,1,1.5.43,2.83,2.83,0,0,1,1,1.22,5.19,5.19,0,0,1,0,3.8,2.94,2.94,0,0,1-1,1.24,2.65,2.65,0,0,1-1.49.43,2.28,2.28,0,0,1-1-.18,2,2,0,0,1-.62-.43,3,3,0,0,1-.4-.56v0h-.08v3.66h-1.35Zm1.54,4.72a1.9,1.9,0,0,0,.61.86,1.7,1.7,0,0,0,2,0,1.8,1.8,0,0,0,.62-.86,3.49,3.49,0,0,0,.2-1.25,3.34,3.34,0,0,0-.2-1.23,1.85,1.85,0,0,0-.61-.85,1.65,1.65,0,0,0-1-.3,1.6,1.6,0,0,0-1,.29,1.82,1.82,0,0,0-.61.83,3.47,3.47,0,0,0-.2,1.26A3.52,3.52,0,0,0,1182.42,253.79Z"/><path class="cls-4" d="M1189.89,256h-1.36v-9.2h1.36Z"/><path class="cls-4" d="M1191.65,258.53v-1.14h.6a1.78,1.78,0,0,0,.44-.05.71.71,0,0,0,.34-.24,2.4,2.4,0,0,0,.32-.61l.17-.45-2.53-7h1.45l1.74,5.35h.07l1.74-5.35h1.45l-2.84,7.81a2.6,2.6,0,0,1-.85,1.25,2.18,2.18,0,0,1-1.38.42Z"/><path class="cls-4" d="M1205,250.15h-3.77v-1.08H1205Zm-1.41-2.73v6.52a1.15,1.15,0,0,0,.12.57.61.61,0,0,0,.28.27,1.1,1.1,0,0,0,.43.08l.67,0V256a5.17,5.17,0,0,1-.84.06,2.36,2.36,0,0,1-1-.21,1.64,1.64,0,0,1-.73-.62,1.72,1.72,0,0,1-.28-1v-6.8Z"/><path class="cls-4" d="M1207.78,256h-1.35v-9.2h1.33v3.43h.09a2.31,2.31,0,0,1,.44-.66,1.8,1.8,0,0,1,.68-.41,2.57,2.57,0,0,1,.92-.15,2.49,2.49,0,0,1,1.25.3,1.92,1.92,0,0,1,.82.87,3.12,3.12,0,0,1,.29,1.43V256h-1.35v-4.22a1.88,1.88,0,0,0-.18-.86,1.21,1.21,0,0,0-.5-.55,1.62,1.62,0,0,0-.79-.19,1.7,1.7,0,0,0-.85.21,1.38,1.38,0,0,0-.58.59,1.83,1.83,0,0,0-.22.93Z"/><path class="cls-4" d="M1213.9,249.07h1.31v1.1h.07a1.73,1.73,0,0,1,.38-.64,1.85,1.85,0,0,1,.61-.42,2.14,2.14,0,0,1,.76-.14,5.17,5.17,0,0,1,.57,0v1.29l-.31,0-.39,0a1.81,1.81,0,0,0-.85.2,1.46,1.46,0,0,0-.58.55,1.49,1.49,0,0,0-.22.81V256h-1.35Z"/><path class="cls-4" d="M1219.62,255.66a2.94,2.94,0,0,1-1.14-1.25,4.55,4.55,0,0,1,0-3.73,2.94,2.94,0,0,1,1.14-1.25,3.4,3.4,0,0,1,3.38,0,2.9,2.9,0,0,1,1.12,1.25,4.55,4.55,0,0,1,0,3.73,2.9,2.9,0,0,1-1.12,1.25,3.4,3.4,0,0,1-3.38,0Zm2.71-1a1.93,1.93,0,0,0,.62-.87,3.71,3.71,0,0,0,0-2.46,2,2,0,0,0-.62-.88,1.6,1.6,0,0,0-1-.33,1.63,1.63,0,0,0-1,.32,2,2,0,0,0-.63.88,3.51,3.51,0,0,0-.21,1.24,3.45,3.45,0,0,0,.21,1.23,2,2,0,0,0,.63.87,1.58,1.58,0,0,0,1,.33A1.6,1.6,0,0,0,1222.33,254.65Z"/><path class="cls-4" d="M1230.24,249.07h1.35V256h-1.33v-1.2h-.07a2.19,2.19,0,0,1-.45.67,2,2,0,0,1-.7.45,2.38,2.38,0,0,1-.91.17,2.28,2.28,0,0,1-1.18-.3,2,2,0,0,1-.8-.89,3.19,3.19,0,0,1-.29-1.41v-4.39h1.36v4.22a1.73,1.73,0,0,0,.18.81,1.35,1.35,0,0,0,.49.54,1.44,1.44,0,0,0,.73.19,1.64,1.64,0,0,0,.77-.2,1.61,1.61,0,0,0,.61-.58,1.79,1.79,0,0,0,.24-1Z"/><path class="cls-4" d="M1234.61,258.45a2.38,2.38,0,0,1-1-.71,2,2,0,0,1-.44-1.1h1.38a1,1,0,0,0,.28.54,1.33,1.33,0,0,0,.56.32,2.76,2.76,0,0,0,.8.11,2,2,0,0,0,1.3-.38,1.43,1.43,0,0,0,.46-1.16v-1.36h-.09l0,0a3.26,3.26,0,0,1-.39.54,2,2,0,0,1-.62.41,2.37,2.37,0,0,1-1,.17,2.76,2.76,0,0,1-1.48-.4,2.81,2.81,0,0,1-1-1.17,4.16,4.16,0,0,1-.38-1.84,4.26,4.26,0,0,1,.38-1.86,2.68,2.68,0,0,1,2.52-1.61,2.22,2.22,0,0,1,.94.18,1.74,1.74,0,0,1,.6.4,3.83,3.83,0,0,1,.41.54l0,.09h.09v-1.12h1.33v7.05a2.54,2.54,0,0,1-.4,1.44,2.43,2.43,0,0,1-1.1.86,4.49,4.49,0,0,1-1.61.28A4.23,4.23,0,0,1,1234.61,258.45Zm2.49-4a1.66,1.66,0,0,0,.61-.78,3.16,3.16,0,0,0,.21-1.21,3.3,3.3,0,0,0-.21-1.23,1.71,1.71,0,0,0-.61-.82,1.57,1.57,0,0,0-1-.29,1.67,1.67,0,0,0-1,.3,1.86,1.86,0,0,0-.61.83,3.3,3.3,0,0,0-.21,1.21,3.12,3.12,0,0,0,.21,1.19,1.76,1.76,0,0,0,.62.79,1.68,1.68,0,0,0,1,.29A1.63,1.63,0,0,0,1237.1,254.47Z"/><path class="cls-4" d="M1242.25,256h-1.35v-9.2h1.34v3.43h.08a2.31,2.31,0,0,1,.44-.66,1.8,1.8,0,0,1,.68-.41,2.57,2.57,0,0,1,.92-.15,2.49,2.49,0,0,1,1.25.3,1.92,1.92,0,0,1,.82.87,3.12,3.12,0,0,1,.29,1.43V256h-1.35v-4.22a1.88,1.88,0,0,0-.18-.86,1.21,1.21,0,0,0-.5-.55,1.62,1.62,0,0,0-.79-.19,1.7,1.7,0,0,0-.85.21,1.38,1.38,0,0,0-.58.59,1.83,1.83,0,0,0-.22.93Z"/><path class="cls-4" d="M1096.89,262.37l2.92,7.13h.11l2.91-7.13h1.7v9.2h-1.33v-6.64h-.08l-2.71,6.62h-1.1l-2.7-6.63h-.08v6.65h-1.34v-9.2Z"/><path class="cls-4" d="M1105.71,271.57l3.3-9.2h1.62l3.3,9.2h-1.48l-2.6-7.52h-.07l-2.59,7.52Zm6.5-3.6v1.17h-4.78V268Z"/><path class="cls-4" d="M1117.51,269.85h.1l2.55-7.48h1.51l-3.3,9.2h-1.62l-3.31-9.2H1115Z"/><path class="cls-4" d="M1125.56,262.37h7.12v1.21h-2.86v8h-1.39v-8h-2.87Z"/><path class="cls-4" d="M1134.21,271.26a2.94,2.94,0,0,1-1.14-1.25,4.55,4.55,0,0,1,0-3.73,2.94,2.94,0,0,1,1.14-1.25,3.4,3.4,0,0,1,3.38,0,2.9,2.9,0,0,1,1.12,1.25,4.55,4.55,0,0,1,0,3.73,2.9,2.9,0,0,1-1.12,1.25,3.4,3.4,0,0,1-3.38,0Zm2.71-1a1.93,1.93,0,0,0,.62-.87,3.45,3.45,0,0,0,.21-1.23,3.41,3.41,0,0,0-.21-1.23,2,2,0,0,0-.62-.88,1.6,1.6,0,0,0-1-.33,1.63,1.63,0,0,0-1,.32,2,2,0,0,0-.63.88,3.51,3.51,0,0,0-.21,1.24,3.45,3.45,0,0,0,.21,1.23,2,2,0,0,0,.63.87,1.58,1.58,0,0,0,1,.33A1.6,1.6,0,0,0,1136.92,270.25Z"/><path class="cls-4" d="M1140.45,262.37h1.36v9.2h-1.36Zm1.24,5.22h.24l2.73-2.92h1.62l-3.13,3.33h-.21l-1.24,1.23Zm.66.71.93-.95,3.19,4.22h-1.66Z"/><path class="cls-4" d="M1148.29,271.27a2.85,2.85,0,0,1-1.14-1.24,4.06,4.06,0,0,1-.4-1.87,4.1,4.1,0,0,1,.4-1.86,3,3,0,0,1,1.12-1.27,3.09,3.09,0,0,1,1.67-.45,3.29,3.29,0,0,1,1.53.36,2.66,2.66,0,0,1,1.11,1.14,4.11,4.11,0,0,1,.42,2v.48h-5.49v-1h4.16a2,2,0,0,0-.21-.93,1.48,1.48,0,0,0-.61-.65,1.64,1.64,0,0,0-.89-.23,1.75,1.75,0,0,0-1,.27,1.81,1.81,0,0,0-.66.71,2.12,2.12,0,0,0-.23,1v.79a2.58,2.58,0,0,0,.24,1.16,1.74,1.74,0,0,0,.68.74,2,2,0,0,0,1,.26,2,2,0,0,0,.66-.1,1.53,1.53,0,0,0,.51-.26,1.35,1.35,0,0,0,.32-.4h1.37a2.29,2.29,0,0,1-.54,1,2.69,2.69,0,0,1-1,.66,3.8,3.8,0,0,1-1.34.23A3.39,3.39,0,0,1,1148.29,271.27Z"/><path class="cls-4" d="M1155.7,271.57h-1.35v-6.9h1.3v1.13h.08a2.1,2.1,0,0,1,.45-.65,2,2,0,0,1,.68-.42,2.59,2.59,0,0,1,.91-.15,2.5,2.5,0,0,1,1.24.3,2.06,2.06,0,0,1,.82.88,3.21,3.21,0,0,1,.29,1.42v4.39h-1.36v-4.22a2.06,2.06,0,0,0-.17-.86,1.27,1.27,0,0,0-.5-.55,1.61,1.61,0,0,0-.78-.19,1.57,1.57,0,0,0-.83.21,1.41,1.41,0,0,0-.57.59,1.94,1.94,0,0,0-.21.93Z"/><path class="cls-4" d="M1166.15,271.26A2.92,2.92,0,0,1,1165,270a4.55,4.55,0,0,1,0-3.73,2.92,2.92,0,0,1,1.13-1.25,3.2,3.2,0,0,1,1.7-.45,3.16,3.16,0,0,1,1.69.45,2.9,2.9,0,0,1,1.12,1.25,4.55,4.55,0,0,1,0,3.73,2.9,2.9,0,0,1-1.12,1.25,3.16,3.16,0,0,1-1.69.45A3.2,3.2,0,0,1,1166.15,271.26Zm2.72-1a2,2,0,0,0,.62-.87,3.45,3.45,0,0,0,.21-1.23,3.41,3.41,0,0,0-.21-1.23,2,2,0,0,0-.62-.88,1.76,1.76,0,0,0-2,0,2,2,0,0,0-.63.88,3.51,3.51,0,0,0-.21,1.24,3.45,3.45,0,0,0,.21,1.23,2,2,0,0,0,.63.87,1.56,1.56,0,0,0,1,.33A1.6,1.6,0,0,0,1168.87,270.25Z"/><path class="cls-4" d="M1172.4,264.67h1.31v1.1h.07a1.9,1.9,0,0,1,.39-.64,1.75,1.75,0,0,1,.61-.42,2,2,0,0,1,.75-.14,5.22,5.22,0,0,1,.58,0v1.29l-.32-.05-.38,0a1.81,1.81,0,0,0-.85.2,1.49,1.49,0,0,0-.59.55,1.58,1.58,0,0,0-.21.81v4.2h-1.36Z"/><path class="cls-4" d="M1181.51,271.26a3,3,0,0,1-1.13-1.25,4.55,4.55,0,0,1,0-3.73,3,3,0,0,1,1.13-1.25,3.2,3.2,0,0,1,1.7-.45,3.16,3.16,0,0,1,1.69.45,2.9,2.9,0,0,1,1.12,1.25,4.55,4.55,0,0,1,0,3.73,2.9,2.9,0,0,1-1.12,1.25,3.16,3.16,0,0,1-1.69.45A3.2,3.2,0,0,1,1181.51,271.26Zm2.72-1a2,2,0,0,0,.62-.87,3.45,3.45,0,0,0,.21-1.23,3.41,3.41,0,0,0-.21-1.23,2,2,0,0,0-.62-.88,1.76,1.76,0,0,0-2,0,2,2,0,0,0-.63.88,3.51,3.51,0,0,0-.21,1.24,3.45,3.45,0,0,0,.21,1.23,2,2,0,0,0,.63.87,1.56,1.56,0,0,0,1,.33A1.6,1.6,0,0,0,1184.23,270.25Z"/><path class="cls-4" d="M1191,265.75h-3.78v-1.08H1191Zm-1.41-2.73v6.52a1.28,1.28,0,0,0,.11.57.62.62,0,0,0,.29.27,1.1,1.1,0,0,0,.43.08l.67,0v1.17a5.35,5.35,0,0,1-.84.06,2.4,2.4,0,0,1-1-.21,1.69,1.69,0,0,1-.73-.62,1.79,1.79,0,0,1-.28-1V263Z"/><path class="cls-4" d="M1193.81,271.57h-1.36v-9.2h1.34v3.43h.09a2,2,0,0,1,.44-.66,1.76,1.76,0,0,1,.67-.41,2.67,2.67,0,0,1,.93-.15,2.51,2.51,0,0,1,1.25.3,2,2,0,0,1,.82.87,3.25,3.25,0,0,1,.29,1.43v4.39h-1.36v-4.22a1.89,1.89,0,0,0-.17-.86,1.24,1.24,0,0,0-.51-.55,1.61,1.61,0,0,0-.78-.19,1.67,1.67,0,0,0-.85.21,1.4,1.4,0,0,0-.59.59,1.94,1.94,0,0,0-.21.93Z"/><path class="cls-4" d="M1201.15,271.27A3,3,0,0,1,1200,270a4.19,4.19,0,0,1-.4-1.87,4.24,4.24,0,0,1,.4-1.86,3,3,0,0,1,2.79-1.72,3.26,3.26,0,0,1,1.53.36,2.66,2.66,0,0,1,1.11,1.14,4,4,0,0,1,.43,2v.48h-5.5v-1h4.16a2,2,0,0,0-.21-.93,1.51,1.51,0,0,0-.6-.65,1.68,1.68,0,0,0-.9-.23,1.75,1.75,0,0,0-1,.27,1.72,1.72,0,0,0-.65.71,2,2,0,0,0-.24,1v.79a2.58,2.58,0,0,0,.24,1.16,1.74,1.74,0,0,0,.68.74,2,2,0,0,0,1,.26,2,2,0,0,0,.67-.1,1.58,1.58,0,0,0,.5-.26,1.2,1.2,0,0,0,.32-.4h1.38a2.41,2.41,0,0,1-.55,1,2.69,2.69,0,0,1-1,.66,3.8,3.8,0,0,1-1.34.23A3.42,3.42,0,0,1,1201.15,271.27Z"/><path class="cls-4" d="M1207.21,264.67h1.31v1.1h.07a1.63,1.63,0,0,1,.39-.64,1.81,1.81,0,0,1,.6-.42,2.14,2.14,0,0,1,.76-.14,5.35,5.35,0,0,1,.58,0v1.29l-.32-.05-.39,0a1.8,1.8,0,0,0-.84.2,1.49,1.49,0,0,0-.59.55,1.58,1.58,0,0,0-.22.81v4.2h-1.35Z"/><path class="cls-4" d="M1214.75,262.37h7.13v1.21H1219v8h-1.4v-8h-2.87Z"/><path class="cls-4" d="M1223.4,271.26a2.92,2.92,0,0,1-1.13-1.25,4.55,4.55,0,0,1,0-3.73,2.92,2.92,0,0,1,1.13-1.25,3.4,3.4,0,0,1,3.38,0,2.92,2.92,0,0,1,1.13,1.25,4.55,4.55,0,0,1,0,3.73,2.92,2.92,0,0,1-1.13,1.25,3.4,3.4,0,0,1-3.38,0Zm2.71-1a2,2,0,0,0,.63-.87,3.69,3.69,0,0,0,.2-1.23,3.65,3.65,0,0,0-.2-1.23,2,2,0,0,0-.63-.88,1.55,1.55,0,0,0-1-.33,1.66,1.66,0,0,0-1,.32,2,2,0,0,0-.63.88,3.51,3.51,0,0,0-.21,1.24,3.45,3.45,0,0,0,.21,1.23,2,2,0,0,0,.63.87,1.61,1.61,0,0,0,1,.33A1.55,1.55,0,0,0,1226.11,270.25Z"/><path class="cls-4" d="M1229.65,262.37H1231v9.2h-1.35Zm1.24,5.22h.23l2.73-2.92h1.63l-3.13,3.33h-.22l-1.23,1.23Zm.65.71.94-.95,3.18,4.22H1234Z"/><path class="cls-4" d="M1237.48,271.27a3,3,0,0,1-1.14-1.24,4.19,4.19,0,0,1-.39-1.87,4.24,4.24,0,0,1,.39-1.86,3.08,3.08,0,0,1,1.12-1.27,3.12,3.12,0,0,1,1.67-.45,3.26,3.26,0,0,1,1.53.36,2.68,2.68,0,0,1,1.12,1.14,4.11,4.11,0,0,1,.42,2v.48h-5.49v-1h4.16a1.88,1.88,0,0,0-.22-.93,1.51,1.51,0,0,0-.6-.65,1.68,1.68,0,0,0-.9-.23,1.77,1.77,0,0,0-1,.27,1.72,1.72,0,0,0-.65.71,2.13,2.13,0,0,0-.24,1v.79a2.45,2.45,0,0,0,.25,1.16,1.68,1.68,0,0,0,.68.74,1.89,1.89,0,0,0,1,.26,2,2,0,0,0,.67-.1,1.36,1.36,0,0,0,.83-.66h1.37a2.29,2.29,0,0,1-.54,1,2.69,2.69,0,0,1-1,.66,3.86,3.86,0,0,1-1.35.23A3.42,3.42,0,0,1,1237.48,271.27Z"/><path class="cls-4" d="M1244.9,271.57h-1.36v-6.9h1.3v1.13h.09a2.1,2.1,0,0,1,.45-.65,1.87,1.87,0,0,1,.68-.42,2.74,2.74,0,0,1,2.14.15,2,2,0,0,1,.82.88,3.21,3.21,0,0,1,.29,1.42v4.39H1248v-4.22a1.91,1.91,0,0,0-.17-.86,1.21,1.21,0,0,0-.5-.55,1.61,1.61,0,0,0-.78-.19,1.63,1.63,0,0,0-.83.21,1.41,1.41,0,0,0-.57.59,2.06,2.06,0,0,0-.2.93Z"/><path class="cls-4" d="M1254.39,265.89a1.45,1.45,0,0,0-.87-.24,1.85,1.85,0,0,0-.69.12,1.17,1.17,0,0,0-.47.33.76.76,0,0,0-.17.48.63.63,0,0,0,.26.52,2,2,0,0,0,.82.35l1.1.25a3,3,0,0,1,1.42.68,1.6,1.6,0,0,1,.46,1.19,1.87,1.87,0,0,1-.34,1.11,2.19,2.19,0,0,1-1,.75,3.68,3.68,0,0,1-1.5.28,3.8,3.8,0,0,1-1.42-.24,2.13,2.13,0,0,1-1.39-1.79H1252a1,1,0,0,0,.44.71,1.75,1.75,0,0,0,1,.23,2.22,2.22,0,0,0,.77-.12,1,1,0,0,0,.5-.33.72.72,0,0,0,.18-.49.71.71,0,0,0-.26-.56,1.93,1.93,0,0,0-.81-.34l-1.07-.24a2.75,2.75,0,0,1-1.41-.68,1.67,1.67,0,0,1-.48-1.21,1.86,1.86,0,0,1,.33-1.08,2.25,2.25,0,0,1,.94-.73,3.57,3.57,0,0,1,1.4-.26,3.21,3.21,0,0,1,1.32.25,2.15,2.15,0,0,1,.9.68,2.09,2.09,0,0,1,.39,1h-1.3A1.07,1.07,0,0,0,1254.39,265.89Z"/></svg>