<svg id="레이어_1" data-name="레이어 1" xmlns="http://www.w3.org/2000/svg" viewBox="0 0 430 213.34"><defs><style>.cls-1,.cls-2,.cls-4,.cls-6{fill:#fff;}.cls-1,.cls-2,.cls-5,.cls-6{fill-rule:evenodd;}.cls-1{opacity:0.2;}.cls-2{opacity:0.5;}.cls-3,.cls-5{fill:none;stroke:#fff;}.cls-3{stroke-miterlimit:8;stroke-width:0.5px;}.cls-5{stroke-miterlimit:10;stroke-width:0.51px;}</style></defs><path class="cls-1" d="M226.46,84.53,263.7,66.82a102.69,102.69,0,0,0-32.63-39.09L207,61.18A61.35,61.35,0,0,1,226.46,84.53Z"/><path class="cls-2" d="M263.7,66.82,226.46,84.53a61.25,61.25,0,0,1,3,45l39.24,12.65a102.65,102.65,0,0,0-5-75.36Z"/><line class="cls-3" x1="255.18" y1="166.21" x2="361.06" y2="166.21"/><line class="cls-3" x1="273.59" y1="106.78" x2="361.06" y2="106.78"/><path class="cls-4" d="M292.39,94.69h5.26v.89h-2.11v5.9h-1v-5.9h-2.12Z"/><path class="cls-4" d="M298.78,101.26a2.18,2.18,0,0,1-.84-.91,3.12,3.12,0,0,1-.29-1.38,3.18,3.18,0,0,1,.29-1.38,2.21,2.21,0,0,1,.83-.93,2.23,2.23,0,0,1,1.23-.34,2.39,2.39,0,0,1,1.13.27,2,2,0,0,1,.83.84,3.11,3.11,0,0,1,.31,1.45v.36h-4.06v-.75h3.07a1.52,1.52,0,0,0-.15-.69,1.16,1.16,0,0,0-.45-.48,1.2,1.2,0,0,0-.66-.17,1.33,1.33,0,0,0-1.2.72,1.47,1.47,0,0,0-.18.71v.59a1.84,1.84,0,0,0,.18.85,1.24,1.24,0,0,0,.51.55,1.39,1.39,0,0,0,.75.19,1.49,1.49,0,0,0,.49-.07,1.06,1.06,0,0,0,.38-.2,1,1,0,0,0,.24-.29h1a1.69,1.69,0,0,1-.4.73,1.86,1.86,0,0,1-.73.48,2.64,2.64,0,0,1-1,.18A2.49,2.49,0,0,1,298.78,101.26Z"/><path class="cls-4" d="M305.76,99.21l-.7.05a1.53,1.53,0,0,0-.78.24.63.63,0,0,0-.28.56.65.65,0,0,0,.12.4.78.78,0,0,0,.34.25,1.31,1.31,0,0,0,.5.09,1.54,1.54,0,0,0,.7-.16,1.17,1.17,0,0,0,.45-.43,1.09,1.09,0,0,0,.15-.56V98a.94.94,0,0,0-.12-.49.67.67,0,0,0-.35-.31,1.35,1.35,0,0,0-.57-.11,1.54,1.54,0,0,0-.5.08,1,1,0,0,0-.35.23.68.68,0,0,0-.19.34h-1a1.4,1.4,0,0,1,.32-.75,1.64,1.64,0,0,1,.72-.52,2.79,2.79,0,0,1,1-.19,2.94,2.94,0,0,1,.94.15A1.6,1.6,0,0,1,307,97a1.71,1.71,0,0,1,.31,1.08v3.38h-1v-.69h0a1.61,1.61,0,0,1-.31.39,1.51,1.51,0,0,1-.5.3,1.86,1.86,0,0,1-.7.12,2,2,0,0,1-.88-.19,1.39,1.39,0,0,1-.62-.53A1.5,1.5,0,0,1,303,100a1.24,1.24,0,0,1,.53-1.12,2.91,2.91,0,0,1,1.37-.4l.55,0,.59,0h.26v.73Z"/><path class="cls-4" d="M308.47,96.39h1v.83h.07a1.31,1.31,0,0,1,.52-.66,1.52,1.52,0,0,1,.86-.24,1.6,1.6,0,0,1,.6.11,1.25,1.25,0,0,1,.47.31,1.39,1.39,0,0,1,.3.48h.05a1.48,1.48,0,0,1,.35-.47,1.52,1.52,0,0,1,.52-.32,2,2,0,0,1,.66-.11,1.73,1.73,0,0,1,.83.2,1.37,1.37,0,0,1,.55.59,2.13,2.13,0,0,1,.2,1v3.41h-1V98.17a1,1,0,0,0-.27-.74,1,1,0,0,0-.69-.24,1,1,0,0,0-.54.13.89.89,0,0,0-.35.37,1.09,1.09,0,0,0-.13.55v3.24h-1V98.1a1.06,1.06,0,0,0-.11-.48.85.85,0,0,0-.33-.32,1.1,1.1,0,0,0-.49-.11,1.07,1.07,0,0,0-.52.14,1.19,1.19,0,0,0-.38.42,1.27,1.27,0,0,0-.14.6v3.13h-1Z"/><path class="cls-4" d="M319.78,101.33a1.8,1.8,0,0,1-.77-.67,1.83,1.83,0,0,1-.27-1,1.53,1.53,0,0,1,.17-.72,2.26,2.26,0,0,1,.45-.59c.2-.17.45-.37.75-.58l1.1-.77a2.37,2.37,0,0,0,.32-.26,1,1,0,0,0,.2-.28,1,1,0,0,0,.07-.36.63.63,0,0,0-.1-.31.75.75,0,0,0-.27-.26.8.8,0,0,0-.39-.09.72.72,0,0,0-.41.11.81.81,0,0,0-.29.29.86.86,0,0,0-.1.38.88.88,0,0,0,.1.4,2.12,2.12,0,0,0,.24.4l.4.5.14.18,3.16,3.76h-1.13l-2.61-3.06-.23-.27c-.23-.28-.42-.5-.55-.69a3,3,0,0,1-.33-.58,1.75,1.75,0,0,1-.13-.65,1.7,1.7,0,0,1,.22-.84,1.5,1.5,0,0,1,.6-.57,2,2,0,0,1,.9-.2,2,2,0,0,1,.89.2,1.41,1.41,0,0,1,.59.54,1.38,1.38,0,0,1,.21.74,1.63,1.63,0,0,1-.11.59,2,2,0,0,1-.3.5,3.54,3.54,0,0,1-.49.44l-1.37,1a2.45,2.45,0,0,0-.4.38,1.52,1.52,0,0,0-.23.36.71.71,0,0,0-.07.28,1,1,0,0,0,.15.54,1,1,0,0,0,.43.4,1.27,1.27,0,0,0,.63.14,1.8,1.8,0,0,0,1-.29,2.27,2.27,0,0,0,.76-.83,2.56,2.56,0,0,0,.29-1.22h.9a3.75,3.75,0,0,1-.14,1.07,2.56,2.56,0,0,1-.33.74,2.6,2.6,0,0,1-.44.49l-.11.11-.12.1a2.2,2.2,0,0,1-.82.51,3,3,0,0,1-1,.17A2.51,2.51,0,0,1,319.78,101.33Z"/><path class="cls-4" d="M326.85,101.48l2.44-6.79h1.2l2.44,6.79h-1.1l-1.92-5.55h-.05l-1.92,5.55Zm4.8-2.66v.87h-3.53v-.87Z"/><path class="cls-4" d="M334.44,101.26a2,2,0,0,1-.76-.91,3.67,3.67,0,0,1,0-2.81,2.11,2.11,0,0,1,.76-.9,2,2,0,0,1,1.1-.32,1.78,1.78,0,0,1,.7.13,1.27,1.27,0,0,1,.44.31,2,2,0,0,1,.29.39l0,0s0,0,0,0h.05V94.69h1v6.79h-1v-.79H337l0,0a2.69,2.69,0,0,1-.29.41,1.43,1.43,0,0,1-.45.31,1.7,1.7,0,0,1-.71.13A1.86,1.86,0,0,1,334.44,101.26Zm2-.75a1.37,1.37,0,0,0,.46-.63,2.72,2.72,0,0,0,.16-.94,2.47,2.47,0,0,0-.16-.94,1.34,1.34,0,0,0-.45-.61,1.22,1.22,0,0,0-.72-.21,1.17,1.17,0,0,0-.73.22,1.37,1.37,0,0,0-.46.63,2.52,2.52,0,0,0-.15.91,2.43,2.43,0,0,0,.16.92,1.43,1.43,0,0,0,.45.64,1.18,1.18,0,0,0,.73.23A1.13,1.13,0,0,0,336.47,100.51Z"/><path class="cls-4" d="M341.88,101.48h-1.07L339,96.39H340l1.28,3.91h.05l1.29-3.91h1.07Z"/><path class="cls-4" d="M344.74,95.53a.8.8,0,0,1-.23-.22.53.53,0,0,1-.09-.3.58.58,0,0,1,.09-.3.66.66,0,0,1,.23-.21.69.69,0,0,1,.32-.08.68.68,0,0,1,.31.08.58.58,0,0,1,.23.21.56.56,0,0,1,.08.3.52.52,0,0,1-.08.3.69.69,0,0,1-.23.22.68.68,0,0,1-.31.08A.69.69,0,0,1,344.74,95.53Zm-.19.86h1v5.09h-1Z"/><path class="cls-4" d="M349.31,97.29a1.05,1.05,0,0,0-.64-.18,1.36,1.36,0,0,0-.51.09.83.83,0,0,0-.35.25.5.5,0,0,0-.12.35.46.46,0,0,0,.19.39,1.54,1.54,0,0,0,.6.25l.82.19a2.15,2.15,0,0,1,1,.5,1.19,1.19,0,0,1,.35.88,1.44,1.44,0,0,1-.25.82,1.69,1.69,0,0,1-.72.55,2.76,2.76,0,0,1-1.12.21,2.73,2.73,0,0,1-1-.18,1.47,1.47,0,0,1-.7-.51,1.54,1.54,0,0,1-.32-.81h1a.75.75,0,0,0,.32.52,1.25,1.25,0,0,0,.71.17,1.91,1.91,0,0,0,.57-.08.78.78,0,0,0,.37-.25.52.52,0,0,0,.13-.36.5.5,0,0,0-.19-.41,1.48,1.48,0,0,0-.59-.26l-.8-.17a2.08,2.08,0,0,1-1-.51,1.2,1.2,0,0,1-.36-.89,1.35,1.35,0,0,1,.25-.79,1.53,1.53,0,0,1,.7-.54,2.52,2.52,0,0,1,1-.2,2.48,2.48,0,0,1,1,.18,1.55,1.55,0,0,1,.66.51,1.57,1.57,0,0,1,.29.77h-1A.79.79,0,0,0,349.31,97.29Z"/><path class="cls-4" d="M352.57,101.26a2.15,2.15,0,0,1-.83-.93,3,3,0,0,1-.3-1.37,3,3,0,0,1,.3-1.38,2.15,2.15,0,0,1,.83-.93,2.36,2.36,0,0,1,1.25-.33,2.33,2.33,0,0,1,1.25.33,2.15,2.15,0,0,1,.83.93,3,3,0,0,1,.3,1.38,3,3,0,0,1-.3,1.37,2.15,2.15,0,0,1-.83.93,2.33,2.33,0,0,1-1.25.33A2.36,2.36,0,0,1,352.57,101.26Zm2-.75a1.45,1.45,0,0,0,.46-.64,2.67,2.67,0,0,0,.15-.91,2.59,2.59,0,0,0-.15-.91,1.48,1.48,0,0,0-.46-.65,1.31,1.31,0,0,0-1.51,0,1.43,1.43,0,0,0-.46.65,2.38,2.38,0,0,0-.16.91,2.45,2.45,0,0,0,.16.91,1.45,1.45,0,0,0,.46.64,1.31,1.31,0,0,0,1.51,0Z"/><path class="cls-4" d="M357.19,96.39h1v.81h0a1.31,1.31,0,0,1,.28-.47,1.21,1.21,0,0,1,.46-.31,1.42,1.42,0,0,1,.55-.11,2.9,2.9,0,0,1,.43,0v1l-.24,0-.28,0a1.33,1.33,0,0,0-.63.15,1.12,1.12,0,0,0-.59,1v3.1h-1Z"/><path class="cls-4" d="M314.76,145.86a1.6,1.6,0,0,0-.62-.47,2.11,2.11,0,0,0-.8-.16,1.9,1.9,0,0,0-1.06.3,2,2,0,0,0-.72.87,3.79,3.79,0,0,0,0,2.76,2,2,0,0,0,.72.87,1.9,1.9,0,0,0,1.06.3,2.11,2.11,0,0,0,.8-.16,1.76,1.76,0,0,0,.62-.46,1.83,1.83,0,0,0,.33-.72h1a2.68,2.68,0,0,1-.48,1.18,2.61,2.61,0,0,1-1,.81,3.05,3.05,0,0,1-1.33.29,2.9,2.9,0,0,1-1.58-.43,2.84,2.84,0,0,1-1.08-1.21,4,4,0,0,1-.4-1.85,4,4,0,0,1,.4-1.86,2.89,2.89,0,0,1,1.08-1.21,3,3,0,0,1,1.58-.42,3.1,3.1,0,0,1,1.31.27,2.58,2.58,0,0,1,1,.8,2.69,2.69,0,0,1,.5,1.24h-1A1.57,1.57,0,0,0,314.76,145.86Z"/><path class="cls-4" d="M318.07,151a2.27,2.27,0,0,1-.84-.92,3.43,3.43,0,0,1,0-2.76,2.23,2.23,0,0,1,.84-.93,2.6,2.6,0,0,1,2.5,0,2.21,2.21,0,0,1,.83.93,3.43,3.43,0,0,1,0,2.76,2.24,2.24,0,0,1-.83.92,2.53,2.53,0,0,1-2.5,0Zm2-.75a1.38,1.38,0,0,0,.46-.64,2.63,2.63,0,0,0,.15-.91,2.59,2.59,0,0,0-.15-.91,1.41,1.41,0,0,0-.46-.65,1.16,1.16,0,0,0-.75-.24,1.21,1.21,0,0,0-.76.24,1.5,1.5,0,0,0-.46.65,2.59,2.59,0,0,0-.15.91,2.63,2.63,0,0,0,.15.91,1.53,1.53,0,0,0,.46.64,1.21,1.21,0,0,0,.76.24A1.16,1.16,0,0,0,320.07,150.2Z"/><path class="cls-4" d="M322.68,146.08h1v.83h.06a1.37,1.37,0,0,1,.52-.66,1.52,1.52,0,0,1,.86-.23,1.66,1.66,0,0,1,.61.1,1.21,1.21,0,0,1,.46.31,1.59,1.59,0,0,1,.31.48h0a1.32,1.32,0,0,1,.34-.47,1.62,1.62,0,0,1,.52-.32,2,2,0,0,1,.67-.1,1.68,1.68,0,0,1,.82.19,1.31,1.31,0,0,1,.55.59,2,2,0,0,1,.2,1v3.41h-1v-3.31a1,1,0,0,0-.27-.74,1,1,0,0,0-.68-.24,1.07,1.07,0,0,0-.55.13.89.89,0,0,0-.35.37,1.2,1.2,0,0,0-.12.55v3.24h-1V147.8a1,1,0,0,0-.12-.49.92.92,0,0,0-.33-.32,1.06,1.06,0,0,0-.48-.11,1,1,0,0,0-.9.56,1.16,1.16,0,0,0-.14.6v3.13h-1Z"/><path class="cls-4" d="M330.84,146.08h1v.83h.06a1.37,1.37,0,0,1,.52-.66,1.53,1.53,0,0,1,.87-.23,1.64,1.64,0,0,1,.6.1,1.21,1.21,0,0,1,.46.31,1.59,1.59,0,0,1,.31.48h.05a1.32,1.32,0,0,1,.34-.47,1.62,1.62,0,0,1,.52-.32,2,2,0,0,1,.67-.1,1.68,1.68,0,0,1,.82.19,1.31,1.31,0,0,1,.55.59,2,2,0,0,1,.2,1v3.41h-1v-3.31a1,1,0,0,0-.26-.74,1,1,0,0,0-.69-.24,1.07,1.07,0,0,0-.55.13.89.89,0,0,0-.35.37,1.2,1.2,0,0,0-.12.55v3.24h-1V147.8a1,1,0,0,0-.12-.49.92.92,0,0,0-.33-.32,1.06,1.06,0,0,0-.48-.11,1,1,0,0,0-.9.56,1.16,1.16,0,0,0-.14.6v3.13h-1Z"/><path class="cls-4" d="M342.22,146.08h1v5.09h-1v-.88h-.05a1.51,1.51,0,0,1-.33.49,1.56,1.56,0,0,1-.52.34,1.78,1.78,0,0,1-.67.12,1.72,1.72,0,0,1-.88-.22,1.48,1.48,0,0,1-.58-.65,2.4,2.4,0,0,1-.21-1.05v-3.24h1v3.12a1.26,1.26,0,0,0,.13.6,1,1,0,0,0,.36.39,1,1,0,0,0,.54.14,1.26,1.26,0,0,0,.57-.14,1.23,1.23,0,0,0,.45-.43,1.3,1.3,0,0,0,.18-.7Z"/><path class="cls-4" d="M345.43,151.17h-1v-5.09h1v.83h.07a1.51,1.51,0,0,1,.83-.79,2,2,0,0,1,.67-.1,2,2,0,0,1,.92.21,1.48,1.48,0,0,1,.6.66,2.34,2.34,0,0,1,.21,1.05v3.23h-1v-3.11a1.48,1.48,0,0,0-.12-.63.93.93,0,0,0-.37-.41,1.21,1.21,0,0,0-.58-.14,1.2,1.2,0,0,0-.61.15,1.05,1.05,0,0,0-.42.44,1.45,1.45,0,0,0-.16.68Z"/><path class="cls-4" d="M350.1,145.22a.8.8,0,0,1-.23-.22.52.52,0,0,1-.09-.29.53.53,0,0,1,.09-.3.6.6,0,0,1,.23-.22.68.68,0,0,1,.31-.08.72.72,0,0,1,.32.08.6.6,0,0,1,.23.22.61.61,0,0,1,.08.3.6.6,0,0,1-.08.29.8.8,0,0,1-.23.22.72.72,0,0,1-.32.08A.68.68,0,0,1,350.1,145.22Zm-.19.86h1v5.09h-1Z"/><path class="cls-4" d="M354.51,146.88h-2.79v-.8h2.79Zm-1-2v4.82a1,1,0,0,0,.08.42.53.53,0,0,0,.22.2.71.71,0,0,0,.31.06l.5,0v.86a3.87,3.87,0,0,1-.62,0,1.78,1.78,0,0,1-.74-.15,1.3,1.3,0,0,1-.55-.46,1.35,1.35,0,0,1-.2-.75v-5Z"/><path class="cls-4" d="M355.57,153.06v-.83H356a1,1,0,0,0,.32,0,.46.46,0,0,0,.25-.18,1.57,1.57,0,0,0,.24-.44l.12-.34-1.86-5.16h1.07l1.28,3.95h.05l1.29-3.95h1.08l-2.1,5.77a1.94,1.94,0,0,1-.63.92,1.62,1.62,0,0,1-1,.31A4,4,0,0,1,355.57,153.06Z"/><path class="cls-4" d="M298.9,156.63a5.54,5.54,0,0,1,.82-1.65h.78a3.9,3.9,0,0,0-.51,1,7.69,7.69,0,0,0-.36,1.28,7.07,7.07,0,0,0,0,2.7,7.69,7.69,0,0,0,.36,1.28,3.56,3.56,0,0,0,.51,1h-.78a5.42,5.42,0,0,1-.82-1.65,6.86,6.86,0,0,1,0-3.88Z"/><path class="cls-4" d="M300.92,161l2.07-5.77h1l2.07,5.77h-.93l-1.63-4.71h0L301.85,161ZM305,158.7v.74h-3v-.74Z"/><path class="cls-4" d="M307,155.9a.5.5,0,0,1-.2-.18.46.46,0,0,1-.08-.25.47.47,0,0,1,.08-.26.44.44,0,0,1,.2-.18.59.59,0,0,1,.26-.07.64.64,0,0,1,.27.07.47.47,0,0,1,.19.18.46.46,0,0,1,.07.26.45.45,0,0,1-.07.25.55.55,0,0,1-.19.18.52.52,0,0,1-.27.07A.48.48,0,0,1,307,155.9Zm-.17.74h.85V161h-.85Z"/><path class="cls-4" d="M308.67,156.64h.82v.69h.05a1.06,1.06,0,0,1,.24-.41,1,1,0,0,1,.38-.26,1.27,1.27,0,0,1,.47-.09l.37,0v.81l-.2,0-.25,0a1.07,1.07,0,0,0-.53.13.93.93,0,0,0-.37.34,1,1,0,0,0-.13.51V161h-.85Z"/><path class="cls-4" d="M312.18,160.78a1.8,1.8,0,0,1-.65-.78,2.94,2.94,0,0,1-.23-1.19,2.87,2.87,0,0,1,.23-1.19,1.78,1.78,0,0,1,.65-.77,1.69,1.69,0,0,1,.94-.27,1.48,1.48,0,0,1,.59.11,1.11,1.11,0,0,1,.38.26,2.8,2.8,0,0,1,.24.33l0,0v0h.05v-2.15h.85V161h-.83v-.67h-.07a.08.08,0,0,1,0,0,2.3,2.3,0,0,1-.25.34,1.11,1.11,0,0,1-.38.26,1.4,1.4,0,0,1-.6.12A1.64,1.64,0,0,1,312.18,160.78Zm1.73-.65a1.14,1.14,0,0,0,.39-.53,2.44,2.44,0,0,0,.13-.8,2.33,2.33,0,0,0-.13-.79,1.11,1.11,0,0,0-.39-.52,1,1,0,0,0-.61-.19,1,1,0,0,0-.62.2,1.16,1.16,0,0,0-.39.52,2.36,2.36,0,0,0-.13.78,2.13,2.13,0,0,0,.14.78,1.13,1.13,0,0,0,.38.54.94.94,0,0,0,.62.2A1,1,0,0,0,313.91,160.13Z"/><path class="cls-4" d="M316.36,156.64h.83v.69h0a1.06,1.06,0,0,1,.24-.41,1.22,1.22,0,0,1,.38-.26,1.28,1.28,0,0,1,.48-.09l.36,0v.81l-.2,0-.24,0a1,1,0,0,0-.53.13.87.87,0,0,0-.37.34,1,1,0,0,0-.14.51V161h-.85Z"/><path class="cls-4" d="M320,160.77a1.91,1.91,0,0,1-.71-.78,2.89,2.89,0,0,1,0-2.35,1.85,1.85,0,0,1,.71-.78,2,2,0,0,1,1.06-.28,2,2,0,0,1,1.06.28,1.85,1.85,0,0,1,.71.78,2.89,2.89,0,0,1,0,2.35,1.91,1.91,0,0,1-.71.78,2,2,0,0,1-1.06.28A2,2,0,0,1,320,160.77Zm1.7-.63a1.16,1.16,0,0,0,.39-.55,2.11,2.11,0,0,0,.13-.77A2.16,2.16,0,0,0,322,158a1.16,1.16,0,0,0-.39-.55,1,1,0,0,0-.64-.2,1,1,0,0,0-.64.2,1.31,1.31,0,0,0-.39.55,2.38,2.38,0,0,0,0,1.55,1.31,1.31,0,0,0,.39.55,1.06,1.06,0,0,0,.64.2A1,1,0,0,0,321.65,160.14Z"/><path class="cls-4" d="M323.87,156.64h.83v.7h.07l0,0v0a2.85,2.85,0,0,1,.25-.33,1.11,1.11,0,0,1,.38-.26,1.43,1.43,0,0,1,.58-.11,1.67,1.67,0,0,1,.94.27,1.72,1.72,0,0,1,.65.77,2.87,2.87,0,0,1,.23,1.19,2.94,2.94,0,0,1-.23,1.19,1.78,1.78,0,0,1-.64.78,1.69,1.69,0,0,1-.94.27,1.4,1.4,0,0,1-.6-.12,1.28,1.28,0,0,1-.38-.27,1.87,1.87,0,0,1-.26-.35h-.06v2.29h-.85Zm1,3a1.06,1.06,0,0,0,.38.53,1,1,0,0,0,.61.19.92.92,0,0,0,.62-.2,1.22,1.22,0,0,0,.39-.54,2.41,2.41,0,0,0,0-1.56,1.07,1.07,0,0,0-.38-.52,1,1,0,0,0-.63-.2,1,1,0,0,0-.61.19,1,1,0,0,0-.38.52,2.1,2.1,0,0,0-.14.79A2.2,2.2,0,0,0,324.84,159.6Z"/><path class="cls-4" d="M329.06,162.6h-.67l.42-2.2h.89Z"/><path class="cls-4" d="M333.89,155.19l1.83,4.47h.07l1.83-4.47h1.07V161h-.84V156.8h-.05L336.1,161h-.69l-1.7-4.16h0V161h-.84v-5.77Z"/><path class="cls-4" d="M340,155.9a.58.58,0,0,1-.2-.18.46.46,0,0,1-.08-.25.47.47,0,0,1,.08-.26.49.49,0,0,1,.2-.18.59.59,0,0,1,.26-.07.64.64,0,0,1,.27.07.53.53,0,0,1,.27.44.46.46,0,0,1-.08.25.55.55,0,0,1-.19.18.52.52,0,0,1-.27.07A.48.48,0,0,1,340,155.9Zm-.17.74h.85V161h-.85Z"/><path class="cls-4" d="M342.53,161h-.85v-4.32h.82v.7h.05a1.26,1.26,0,0,1,.28-.4,1.12,1.12,0,0,1,.43-.27,1.6,1.6,0,0,1,.56-.09,1.5,1.5,0,0,1,.78.19,1.21,1.21,0,0,1,.52.55,2,2,0,0,1,.18.89V161h-.85v-2.65a1.25,1.25,0,0,0-.11-.53.78.78,0,0,0-.32-.35.94.94,0,0,0-.49-.12,1.11,1.11,0,0,0-.52.13,1,1,0,0,0-.35.37,1.22,1.22,0,0,0-.13.59Z"/><path class="cls-4" d="M346.49,155.9a.47.47,0,0,1-.19-.18.46.46,0,0,1-.08-.25.47.47,0,0,1,.08-.26.41.41,0,0,1,.19-.18.6.6,0,0,1,.27-.07.59.59,0,0,1,.26.07.44.44,0,0,1,.2.18.46.46,0,0,1,.07.26.45.45,0,0,1-.07.25.5.5,0,0,1-.2.18.48.48,0,0,1-.26.07A.5.5,0,0,1,346.49,155.9Zm-.16.74h.85V161h-.85Z"/><path class="cls-4" d="M349.07,161h-.85v-4.32H349v.7h.06a1.26,1.26,0,0,1,.28-.4,1.09,1.09,0,0,1,.42-.27,1.7,1.7,0,0,1,.57-.09,1.5,1.5,0,0,1,.78.19,1.19,1.19,0,0,1,.51.55,2,2,0,0,1,.19.89V161H351v-2.65a1.25,1.25,0,0,0-.1-.53.84.84,0,0,0-.32-.35,1,1,0,0,0-.49-.12,1.08,1.08,0,0,0-.52.13.89.89,0,0,0-.35.37,1.22,1.22,0,0,0-.13.59Z"/><path class="cls-4" d="M353.73,162.52a1.44,1.44,0,0,1-.66-.45,1.18,1.18,0,0,1-.27-.69h.86a.66.66,0,0,0,.18.34.75.75,0,0,0,.35.2,1.51,1.51,0,0,0,.5.07,1.22,1.22,0,0,0,.81-.24.86.86,0,0,0,.29-.73v-.85h-.05v0a2.3,2.3,0,0,1-.25.34,1.2,1.2,0,0,1-.39.26,1.55,1.55,0,0,1-.61.11,1.79,1.79,0,0,1-.92-.25,1.74,1.74,0,0,1-.65-.74,2.58,2.58,0,0,1-.24-1.16,2.61,2.61,0,0,1,.24-1.16,1.71,1.71,0,0,1,.65-.75,1.63,1.63,0,0,1,.93-.26,1.48,1.48,0,0,1,.59.11,1.25,1.25,0,0,1,.38.25,2.3,2.3,0,0,1,.25.34l0,.06h.05v-.7h.83v4.41a1.55,1.55,0,0,1-.25.91,1.45,1.45,0,0,1-.69.54,2.64,2.64,0,0,1-1,.17A2.75,2.75,0,0,1,353.73,162.52Zm1.56-2.5a1.06,1.06,0,0,0,.38-.49,1.92,1.92,0,0,0,.13-.76,2,2,0,0,0-.13-.77,1,1,0,0,0-.38-.51,1,1,0,0,0-.61-.19,1.07,1.07,0,0,0-.63.19,1.1,1.1,0,0,0-.38.53,2,2,0,0,0-.13.75,1.9,1.9,0,0,0,.13.75,1.15,1.15,0,0,0,.39.5,1,1,0,0,0,.62.18A1,1,0,0,0,355.29,160Z"/><path class="cls-4" d="M359,160.51a5.76,5.76,0,0,1-.81,1.65h-.79a3.56,3.56,0,0,0,.51-1,7.69,7.69,0,0,0,.36-1.28,7.07,7.07,0,0,0,0-2.7,7.69,7.69,0,0,0-.36-1.28,3.56,3.56,0,0,0-.51-1h.79a5.76,5.76,0,0,1,.81,1.65,6.86,6.86,0,0,1,0,3.88Z"/><line class="cls-3" x1="204.05" y1="13.75" x2="361.06" y2="13.75"/><line class="cls-3" x1="250.65" y1="46.2" x2="361.06" y2="46.2"/><path class="cls-4" d="M279.93,2.93a1.27,1.27,0,0,0-.49-.34,2.08,2.08,0,0,0-.69-.11,1.81,1.81,0,0,0-.72.13,1.09,1.09,0,0,0-.48.36.84.84,0,0,0-.16.51.72.72,0,0,0,.35.66,2.74,2.74,0,0,0,.88.37l.66.17a4.25,4.25,0,0,1,1,.35,1.9,1.9,0,0,1,.72.6,1.58,1.58,0,0,1,.28,1,1.88,1.88,0,0,1-.29,1,2,2,0,0,1-.87.71,3.29,3.29,0,0,1-1.35.25,3.34,3.34,0,0,1-1.32-.24,2,2,0,0,1-.87-.69,2,2,0,0,1-.36-1.06h1a1.07,1.07,0,0,0,.23.6,1.41,1.41,0,0,0,.54.37,2.26,2.26,0,0,0,1.51,0,1.25,1.25,0,0,0,.53-.39.87.87,0,0,0,.19-.57.71.71,0,0,0-.16-.48,1.29,1.29,0,0,0-.43-.31,5,5,0,0,0-.69-.24l-.8-.21a3.15,3.15,0,0,1-1.32-.67,1.52,1.52,0,0,1-.45-1.13,1.73,1.73,0,0,1,.31-1,2.16,2.16,0,0,1,.87-.69,3.25,3.25,0,0,1,2.45,0,2,2,0,0,1,.84.67,1.72,1.72,0,0,1,.31,1h-1A1,1,0,0,0,279.93,2.93Z"/><path class="cls-4" d="M284.65,4.18h-2.79v-.8h2.79Zm-1-2V7a1,1,0,0,0,.08.42.53.53,0,0,0,.21.21,1,1,0,0,0,.32.05l.5,0v.86a3.89,3.89,0,0,1-.62,0,1.68,1.68,0,0,1-.75-.16,1.22,1.22,0,0,1-.74-1.2v-5Z"/><path class="cls-4" d="M285.62,3.38h1v.81h.06a1.18,1.18,0,0,1,.28-.47,1.25,1.25,0,0,1,.45-.31,1.46,1.46,0,0,1,.55-.11l.43,0v1l-.23,0-.29,0a1.26,1.26,0,0,0-.62.15,1,1,0,0,0-.44.41,1.15,1.15,0,0,0-.15.59v3.1h-1Z"/><path class="cls-4" d="M291.56,6.2l-.69,0a1.54,1.54,0,0,0-.79.23.64.64,0,0,0-.28.56.69.69,0,0,0,.12.41.86.86,0,0,0,.34.25,1.35,1.35,0,0,0,.5.08,1.42,1.42,0,0,0,.7-.16,1,1,0,0,0,.45-.42,1.11,1.11,0,0,0,.16-.57V5a1.09,1.09,0,0,0-.11-.5.81.81,0,0,0-.35-.31,1.61,1.61,0,0,0-.57-.1,1.5,1.5,0,0,0-.5.08.93.93,0,0,0-.36.23.68.68,0,0,0-.19.34h-1A1.47,1.47,0,0,1,289.3,4,1.68,1.68,0,0,1,290,3.5a2.61,2.61,0,0,1,1-.19,2.94,2.94,0,0,1,.94.15,1.55,1.55,0,0,1,.75.55,1.67,1.67,0,0,1,.31,1.08V8.47h-1v-.7h0a1.27,1.27,0,0,1-.3.4,1.68,1.68,0,0,1-.51.3,2.26,2.26,0,0,1-1.58-.07,1.43,1.43,0,0,1-.61-.53,1.51,1.51,0,0,1-.23-.84,1.21,1.21,0,0,1,.54-1.12,2.84,2.84,0,0,1,1.36-.4l.55,0,.59,0h.26v.73Z"/><path class="cls-4" d="M296.65,4.18h-2.78v-.8h2.78Zm-1-2V7a.83.83,0,0,0,.08.42.43.43,0,0,0,.21.21,1,1,0,0,0,.32.05c.08,0,.25,0,.49,0v.86a3.7,3.7,0,0,1-.62,0,1.64,1.64,0,0,1-.74-.16,1.2,1.2,0,0,1-.54-.45,1.32,1.32,0,0,1-.21-.75v-5Z"/><path class="cls-4" d="M298.48,8.25a2.18,2.18,0,0,1-.84-.91A3.18,3.18,0,0,1,297.35,6a3.18,3.18,0,0,1,.29-1.38,2.19,2.19,0,0,1,2.06-1.27,2.39,2.39,0,0,1,1.13.27,2,2,0,0,1,.83.84A3.11,3.11,0,0,1,302,5.87v.36h-4.06V5.48H301a1.6,1.6,0,0,0-.15-.7,1.25,1.25,0,0,0-1.11-.65,1.34,1.34,0,0,0-.72.2,1.29,1.29,0,0,0-.48.53,1.59,1.59,0,0,0-.18.71v.58a1.88,1.88,0,0,0,.18.86,1.29,1.29,0,0,0,.51.55,1.42,1.42,0,0,0,.75.19,1.59,1.59,0,0,0,.5-.07,1.31,1.31,0,0,0,.37-.2,1,1,0,0,0,.24-.29h1a1.69,1.69,0,0,1-.4.73,1.86,1.86,0,0,1-.73.48,2.64,2.64,0,0,1-1,.17A2.48,2.48,0,0,1,298.48,8.25Z"/><path class="cls-4" d="M304,10.31a1.8,1.8,0,0,1-.77-.53,1.39,1.39,0,0,1-.32-.82h1a.76.76,0,0,0,.2.4,1,1,0,0,0,.42.24,1.76,1.76,0,0,0,.59.08,1.46,1.46,0,0,0,1-.28,1.06,1.06,0,0,0,.34-.86v-1h-.07v0A2.47,2.47,0,0,1,306,8a1.23,1.23,0,0,1-.46.3,1.7,1.7,0,0,1-.71.13,2,2,0,0,1-1.1-.29,2.09,2.09,0,0,1-.76-.87,3.14,3.14,0,0,1-.28-1.36A3.19,3.19,0,0,1,303,4.5a2,2,0,0,1,1.87-1.19,1.63,1.63,0,0,1,.69.13,1.41,1.41,0,0,1,.44.3,2.37,2.37,0,0,1,.3.39.43.43,0,0,0,0,.07h.07V3.38h1v5.2a1.79,1.79,0,0,1-.3,1.06,1.68,1.68,0,0,1-.81.64,3.16,3.16,0,0,1-1.19.21A3.27,3.27,0,0,1,304,10.31Zm1.84-2.94a1.25,1.25,0,0,0,.45-.58,2.23,2.23,0,0,0,.16-.9,2.35,2.35,0,0,0-.16-.91,1.26,1.26,0,0,0-.45-.6,1.23,1.23,0,0,0-.72-.22,1.18,1.18,0,0,0-.73.23,1.43,1.43,0,0,0-.46.61,2.48,2.48,0,0,0-.15.89,2.16,2.16,0,0,0,.16.88,1.28,1.28,0,0,0,.45.59,1.23,1.23,0,0,0,.73.21A1.29,1.29,0,0,0,305.81,7.37Z"/><path class="cls-4" d="M308.81,2.51a.58.58,0,0,1-.23-.21.55.55,0,0,1,0-.6.58.58,0,0,1,.23-.21.58.58,0,0,1,.31-.08.55.55,0,0,1,.31.08.61.61,0,0,1,.24.21.6.6,0,0,1,0,.6.61.61,0,0,1-.24.21.55.55,0,0,1-.31.08A.58.58,0,0,1,308.81,2.51Zm-.19.87h1V8.47h-1Z"/><path class="cls-4" d="M311.72,8.24a2.19,2.19,0,0,1-.82-.93A3.12,3.12,0,0,1,310.61,6a3.14,3.14,0,0,1,.29-1.37A2.19,2.19,0,0,1,313,3.31a2.43,2.43,0,0,1,1,.21,1.78,1.78,0,0,1,.74.61,1.76,1.76,0,0,1,.33.9h-1a1,1,0,0,0-.2-.45,1.08,1.08,0,0,0-.38-.32,1.27,1.27,0,0,0-.54-.11,1.2,1.2,0,0,0-.72.22,1.38,1.38,0,0,0-.48.62,2.24,2.24,0,0,0-.17.93,2.35,2.35,0,0,0,.17,1,1.32,1.32,0,0,0,.48.62,1.18,1.18,0,0,0,.72.22,1.27,1.27,0,0,0,.52-.1,1,1,0,0,0,.38-.3,1,1,0,0,0,.22-.46h1a1.8,1.8,0,0,1-.32.88,1.75,1.75,0,0,1-.73.61,2.31,2.31,0,0,1-1,.22A2.4,2.4,0,0,1,311.72,8.24Z"/><path class="cls-4" d="M318.46,1.68h4.21v.89h-3.18V4.63h2.88v.88h-2.88v3h-1Z"/><path class="cls-4" d="M323.94,2.51a.61.61,0,0,1-.24-.21.6.6,0,0,1,0-.6.61.61,0,0,1,.24-.21.55.55,0,0,1,.31-.08.58.58,0,0,1,.31.08.52.52,0,0,1,.23.21.54.54,0,0,1,0,.6.52.52,0,0,1-.23.21.58.58,0,0,1-.31.08A.55.55,0,0,1,323.94,2.51Zm-.2.87h1V8.47h-1Z"/><path class="cls-4" d="M327,8.47h-1V3.38h1v.83H327a1.58,1.58,0,0,1,.33-.48,1.41,1.41,0,0,1,.5-.31,2,2,0,0,1,.67-.11,1.84,1.84,0,0,1,.92.22,1.46,1.46,0,0,1,.6.65,2.4,2.4,0,0,1,.21,1.05V8.47h-1V5.35a1.54,1.54,0,0,0-.12-.63.9.9,0,0,0-.37-.4,1.11,1.11,0,0,0-.58-.14,1.2,1.2,0,0,0-.61.15,1,1,0,0,0-.42.44,1.42,1.42,0,0,0-.15.68Z"/><path class="cls-4" d="M333.94,6.2l-.69,0a1.54,1.54,0,0,0-.79.23.64.64,0,0,0-.28.56.69.69,0,0,0,.12.41.86.86,0,0,0,.34.25,1.35,1.35,0,0,0,.5.08,1.42,1.42,0,0,0,.7-.16,1,1,0,0,0,.45-.42,1.11,1.11,0,0,0,.16-.57V5a1,1,0,0,0-.12-.5.72.72,0,0,0-.35-.31,1.53,1.53,0,0,0-.57-.1,1.59,1.59,0,0,0-.5.08,1,1,0,0,0-.35.23.68.68,0,0,0-.19.34h-1a1.47,1.47,0,0,1,.32-.76,1.62,1.62,0,0,1,.72-.51,2.61,2.61,0,0,1,1-.19,2.94,2.94,0,0,1,.94.15,1.6,1.6,0,0,1,.75.55,1.67,1.67,0,0,1,.31,1.08V8.47h-1v-.7h0a1.17,1.17,0,0,1-.31.4,1.51,1.51,0,0,1-.5.3A2.26,2.26,0,0,1,332,8.4a1.52,1.52,0,0,1-.62-.53A1.5,1.5,0,0,1,331.2,7a1.21,1.21,0,0,1,.54-1.12,2.84,2.84,0,0,1,1.36-.4l.55,0,.59,0h.26v.73Z"/><path class="cls-4" d="M337.65,8.47h-1V3.38h1v.83h.07a1.58,1.58,0,0,1,.33-.48,1.33,1.33,0,0,1,.5-.31,2,2,0,0,1,.67-.11,1.78,1.78,0,0,1,.91.22,1.48,1.48,0,0,1,.61.65,2.4,2.4,0,0,1,.21,1.05V8.47h-1V5.35a1.39,1.39,0,0,0-.13-.63.85.85,0,0,0-.37-.4,1,1,0,0,0-.57-.14,1.24,1.24,0,0,0-.62.15,1.12,1.12,0,0,0-.42.44,1.42,1.42,0,0,0-.15.68Z"/><path class="cls-4" d="M343,8.24a2.21,2.21,0,0,1-.83-.93A3.12,3.12,0,0,1,341.9,6a3,3,0,0,1,.29-1.37,2.23,2.23,0,0,1,.83-.94,2.33,2.33,0,0,1,1.25-.33,2.46,2.46,0,0,1,1,.21,1.78,1.78,0,0,1,.74.61,1.76,1.76,0,0,1,.33.9h-1a1.15,1.15,0,0,0-.2-.45,1.18,1.18,0,0,0-.38-.32,1.33,1.33,0,0,0-.54-.11,1.2,1.2,0,0,0-.72.22,1.32,1.32,0,0,0-.48.62,2.24,2.24,0,0,0-.18.93,2.53,2.53,0,0,0,.17,1,1.46,1.46,0,0,0,.48.62,1.21,1.21,0,0,0,.73.22,1.27,1.27,0,0,0,.52-.1,1,1,0,0,0,.38-.3,1.16,1.16,0,0,0,.22-.46h1a1.91,1.91,0,0,1-.32.88,1.82,1.82,0,0,1-.73.61,2.31,2.31,0,0,1-1,.22A2.38,2.38,0,0,1,343,8.24Z"/><path class="cls-4" d="M347.51,2.51a.66.66,0,0,1-.23-.21.52.52,0,0,1-.08-.3.52.52,0,0,1,.08-.3.66.66,0,0,1,.23-.21.61.61,0,0,1,.32-.08.58.58,0,0,1,.31.08.58.58,0,0,1,.23.21.54.54,0,0,1,0,.6.58.58,0,0,1-.23.21.58.58,0,0,1-.31.08A.61.61,0,0,1,347.51,2.51Zm-.19.87h1V8.47h-1Z"/><path class="cls-4" d="M350.54,8.47h-1V3.38h1v.83h.07a1.58,1.58,0,0,1,.33-.48,1.33,1.33,0,0,1,.5-.31,2,2,0,0,1,.67-.11,1.78,1.78,0,0,1,.91.22,1.48,1.48,0,0,1,.61.65,2.4,2.4,0,0,1,.21,1.05V8.47h-1V5.35a1.39,1.39,0,0,0-.13-.63.8.8,0,0,0-.37-.4,1,1,0,0,0-.57-.14,1.26,1.26,0,0,0-.62.15,1,1,0,0,0-.41.44,1.32,1.32,0,0,0-.16.68Z"/><path class="cls-4" d="M356,10.31a1.8,1.8,0,0,1-.77-.53,1.46,1.46,0,0,1-.33-.82h1a.7.7,0,0,0,.2.4.91.91,0,0,0,.42.24,1.76,1.76,0,0,0,.59.08,1.42,1.42,0,0,0,.95-.28,1,1,0,0,0,.35-.86v-1h-.07l0,0a1.65,1.65,0,0,1-.29.39,1.11,1.11,0,0,1-.45.3,1.75,1.75,0,0,1-.72.13,2,2,0,0,1-1.09-.29,2.09,2.09,0,0,1-.76-.87,3,3,0,0,1-.28-1.36,3,3,0,0,1,.28-1.37,2.08,2.08,0,0,1,.76-.89,2,2,0,0,1,1.1-.3,1.6,1.6,0,0,1,.69.13,1.47,1.47,0,0,1,.45.3,2.37,2.37,0,0,1,.3.39.43.43,0,0,0,0,.07h.06V3.38h1v5.2a1.71,1.71,0,0,1-1.1,1.7,3.19,3.19,0,0,1-1.19.21A3.23,3.23,0,0,1,356,10.31Zm1.84-2.94a1.32,1.32,0,0,0,.45-.58,2.42,2.42,0,0,0,.15-.9,2.55,2.55,0,0,0-.15-.91,1.26,1.26,0,0,0-.45-.6,1.23,1.23,0,0,0-.72-.22,1.18,1.18,0,0,0-.73.23A1.36,1.36,0,0,0,356,5a2.48,2.48,0,0,0-.15.89,2.16,2.16,0,0,0,.16.88,1.28,1.28,0,0,0,.45.59,1.23,1.23,0,0,0,.73.21A1.29,1.29,0,0,0,357.87,7.37Z"/><path class="cls-4" d="M321.58,40.87h-1V34.08h1Z"/><path class="cls-4" d="M323.89,40.87h-1V35.78h1v.83h.06a1.58,1.58,0,0,1,.33-.48,1.51,1.51,0,0,1,.5-.31,2,2,0,0,1,.67-.11,1.82,1.82,0,0,1,.92.22,1.46,1.46,0,0,1,.6.65,2.26,2.26,0,0,1,.22,1.05v3.24h-1V37.75a1.54,1.54,0,0,0-.13-.63.9.9,0,0,0-.37-.4,1.06,1.06,0,0,0-.58-.14,1.23,1.23,0,0,0-.61.15,1,1,0,0,0-.42.44,1.42,1.42,0,0,0-.15.68Z"/><path class="cls-4" d="M330.69,40.87h-1.07l-1.85-5.09h1.08l1.28,3.91h.05l1.29-3.91h1.07Z"/><path class="cls-4" d="M334.09,40.65a2.06,2.06,0,0,1-.84-.91,3.32,3.32,0,0,1,0-2.76,2.28,2.28,0,0,1,.82-.94,2.32,2.32,0,0,1,1.24-.33,2.39,2.39,0,0,1,1.13.27,2,2,0,0,1,.82.84,3,3,0,0,1,.31,1.45v.36h-4.06v-.75h3.08a1.47,1.47,0,0,0-.16-.7,1.07,1.07,0,0,0-.45-.47,1.21,1.21,0,0,0-.66-.18,1.34,1.34,0,0,0-.72.2,1.53,1.53,0,0,0-.48.53A1.58,1.58,0,0,0,334,38v.58a1.88,1.88,0,0,0,.18.86,1.34,1.34,0,0,0,.5.55,1.45,1.45,0,0,0,.76.19,1.53,1.53,0,0,0,.49-.07,1.18,1.18,0,0,0,.37-.2,1,1,0,0,0,.24-.29h1a1.8,1.8,0,0,1-.4.73,1.9,1.9,0,0,1-.74.48,2.57,2.57,0,0,1-1,.17A2.47,2.47,0,0,1,334.09,40.65Z"/><path class="cls-4" d="M341.11,36.68a1.09,1.09,0,0,0-.65-.18,1.36,1.36,0,0,0-.51.09,1,1,0,0,0-.35.24.59.59,0,0,0-.12.35.47.47,0,0,0,.19.39,1.39,1.39,0,0,0,.61.26l.81.19a2.06,2.06,0,0,1,1.05.5,1.18,1.18,0,0,1,.34.88,1.34,1.34,0,0,1-.25.81,1.64,1.64,0,0,1-.72.56,2.75,2.75,0,0,1-1.11.2,2.82,2.82,0,0,1-1-.17,1.56,1.56,0,0,1-1-1.32h1a.78.78,0,0,0,.33.52,1.31,1.31,0,0,0,.71.17,1.7,1.7,0,0,0,.57-.09.75.75,0,0,0,.37-.24.59.59,0,0,0,.13-.36.5.5,0,0,0-.2-.41,1.3,1.3,0,0,0-.59-.26l-.8-.17a2.08,2.08,0,0,1-1-.51,1.25,1.25,0,0,1-.35-.89,1.4,1.4,0,0,1,.24-.8,1.67,1.67,0,0,1,.7-.54,2.74,2.74,0,0,1,1-.19,2.48,2.48,0,0,1,1,.18,1.55,1.55,0,0,1,.66.51,1.45,1.45,0,0,1,.29.77h-1A.82.82,0,0,0,341.11,36.68Z"/><path class="cls-4" d="M345.85,36.58h-2.79v-.8h2.79Zm-1-2v4.81a1,1,0,0,0,.08.42.53.53,0,0,0,.21.21,1,1,0,0,0,.32,0l.5,0v.86a3.89,3.89,0,0,1-.62,0,1.79,1.79,0,0,1-.75-.15,1.42,1.42,0,0,1-.54-.46,1.32,1.32,0,0,1-.2-.75v-5Z"/><path class="cls-4" d="M347.67,40.65a2.15,2.15,0,0,1-.83-.93,3,3,0,0,1-.3-1.37,3.06,3.06,0,0,1,.3-1.39,2.18,2.18,0,0,1,.83-.92,2.36,2.36,0,0,1,1.25-.33,2.33,2.33,0,0,1,1.25.33A2.18,2.18,0,0,1,351,37a3.06,3.06,0,0,1,.3,1.39,3,3,0,0,1-.3,1.37,2.15,2.15,0,0,1-.83.93,2.42,2.42,0,0,1-1.25.32A2.45,2.45,0,0,1,347.67,40.65Zm2-.75a1.48,1.48,0,0,0,.46-.65,2.81,2.81,0,0,0,0-1.81,1.43,1.43,0,0,0-.46-.65,1.15,1.15,0,0,0-.75-.25,1.19,1.19,0,0,0-.76.24,1.48,1.48,0,0,0-.46.65,2.45,2.45,0,0,0-.16.91,2.38,2.38,0,0,0,.16.91,1.48,1.48,0,0,0,.46.65,1.31,1.31,0,0,0,1.51,0Z"/><path class="cls-4" d="M352.29,35.78h1v.81h.05a1.31,1.31,0,0,1,.28-.47,1.21,1.21,0,0,1,.46-.31,1.42,1.42,0,0,1,.55-.11l.43,0v1l-.24,0-.28,0a1.33,1.33,0,0,0-.63.15,1,1,0,0,0-.43.41,1.07,1.07,0,0,0-.16.59v3.1h-1Z"/><path class="cls-4" d="M358.31,36.68a1,1,0,0,0-.64-.18,1.36,1.36,0,0,0-.51.09.91.91,0,0,0-.35.24.59.59,0,0,0-.12.35.47.47,0,0,0,.19.39,1.4,1.4,0,0,0,.6.26l.82.19a2,2,0,0,1,1,.5,1.19,1.19,0,0,1,.35.88,1.34,1.34,0,0,1-.25.81,1.64,1.64,0,0,1-.72.56,2.75,2.75,0,0,1-1.11.2,2.79,2.79,0,0,1-1.05-.17,1.56,1.56,0,0,1-1-1.32h1a.75.75,0,0,0,.33.52,1.31,1.31,0,0,0,.71.17,1.6,1.6,0,0,0,.56-.09.74.74,0,0,0,.38-.24.59.59,0,0,0,.13-.36.5.5,0,0,0-.2-.41,1.3,1.3,0,0,0-.59-.26l-.8-.17a2.08,2.08,0,0,1-1-.51,1.25,1.25,0,0,1-.35-.89,1.4,1.4,0,0,1,.24-.8,1.67,1.67,0,0,1,.7-.54,2.74,2.74,0,0,1,1-.19,2.48,2.48,0,0,1,1,.18,1.55,1.55,0,0,1,.66.51,1.45,1.45,0,0,1,.29.77h-1A.79.79,0,0,0,358.31,36.68Z"/><path class="cls-5" d="M229.43,129.53a61.11,61.11,0,1,1-58.16-79.87V8.43a102.33,102.33,0,1,0,97.4,133.75Z"/><path class="cls-5" d="M263.7,66.82,226.46,84.53a61.25,61.25,0,0,1,3,45l39.24,12.65a102.65,102.65,0,0,0-5-75.36Z"/><path class="cls-5" d="M226.46,84.53,263.7,66.82a102.69,102.69,0,0,0-32.63-39.09L207,61.18A61.35,61.35,0,0,1,226.46,84.53Z"/><path class="cls-5" d="M171.27,49.66A60.82,60.82,0,0,1,207,61.18l24.09-33.45a101.82,101.82,0,0,0-59.8-19.3V49.66Z"/><path class="cls-6" d="M243.26,166a.46.46,0,0,0,.27.08.47.47,0,0,0,.28-.08.48.48,0,0,0,.15-.22.93.93,0,0,0,0-.29v-.29a.94.94,0,0,0,0-.3.44.44,0,0,0-.43-.3.4.4,0,0,0-.27.09.52.52,0,0,0-.16.22.93.93,0,0,0,0,.29v.29a.93.93,0,0,0,0,.29A.44.44,0,0,0,243.26,166Z"/><path class="cls-6" d="M239.68,163.85a1.15,1.15,0,0,0-.79-.3,1.12,1.12,0,0,0-.78.3,2,2,0,0,0-.51.89,6,6,0,0,0,0,2.84,1.83,1.83,0,0,0,.5.88,1.19,1.19,0,0,0,1.58,0,1.91,1.91,0,0,0,.5-.88,6,6,0,0,0,0-2.84A2,2,0,0,0,239.68,163.85Z"/><path class="cls-6" d="M225.8,163.85a1.18,1.18,0,0,0-1.57,0,1.86,1.86,0,0,0-.5.89,4.86,4.86,0,0,0-.18,1.42,5.26,5.26,0,0,0,.17,1.42,1.91,1.91,0,0,0,.5.88,1.15,1.15,0,0,0,.79.3,1.13,1.13,0,0,0,.79-.3,1.83,1.83,0,0,0,.5-.88,5.69,5.69,0,0,0,0-2.84A1.86,1.86,0,0,0,225.8,163.85Z"/><path class="cls-6" d="M233.75,163.85a1.18,1.18,0,0,0-1.57,0,1.86,1.86,0,0,0-.5.89,4.86,4.86,0,0,0-.18,1.42,5.26,5.26,0,0,0,.17,1.42,1.92,1.92,0,0,0,.51.88,1.18,1.18,0,0,0,1.57,0,1.92,1.92,0,0,0,.51-.88,6,6,0,0,0,0-2.84A2,2,0,0,0,233.75,163.85Z"/><path class="cls-6" d="M246.53,167.74a.47.47,0,0,0-.28-.08.46.46,0,0,0-.27.08.5.5,0,0,0-.16.22.94.94,0,0,0,0,.3v.28a.94.94,0,0,0,0,.3.47.47,0,0,0,.16.21.4.4,0,0,0,.27.09.41.41,0,0,0,.28-.09.45.45,0,0,0,.15-.21.94.94,0,0,0,0-.3v-.28a.94.94,0,0,0,0-.3A.48.48,0,0,0,246.53,167.74Z"/><path class="cls-6" d="M229.43,129.53a61.11,61.11,0,1,1-58.16-79.87V8.43a102.33,102.33,0,1,0,97.4,133.75Zm-7.67,34.15-3,5.87h-1.08l3-5.85v0h-3.51v-.89h4.58Zm5.45,4.36a2.59,2.59,0,0,1-.85,1.2,2.27,2.27,0,0,1-1.35.41,2.22,2.22,0,0,1-1.34-.41,2.59,2.59,0,0,1-.85-1.2,6,6,0,0,1,0-3.76,2.59,2.59,0,0,1,.86-1.2,2.38,2.38,0,0,1,2.67,0,2.59,2.59,0,0,1,.86,1.2,6,6,0,0,1,0,3.76Zm2.36,1.24a.67.67,0,0,1-.25.25.63.63,0,0,1-.33.09.69.69,0,0,1-.34-.09.64.64,0,0,1-.24-.25.54.54,0,0,1-.08-.33.56.56,0,0,1,.08-.33.66.66,0,0,1,.58-.33.63.63,0,0,1,.33.09.72.72,0,0,1,.25.24.76.76,0,0,1,.08.33A.73.73,0,0,1,229.57,169.28Zm5.59-1.24a2.52,2.52,0,0,1-.85,1.2,2.41,2.41,0,0,1-2.69,0,2.59,2.59,0,0,1-.85-1.2,6,6,0,0,1,0-3.76,2.59,2.59,0,0,1,.86-1.2,2.38,2.38,0,0,1,2.67,0,2.59,2.59,0,0,1,.86,1.2,6,6,0,0,1,0,3.76Zm5.93,0a2.54,2.54,0,0,1-.86,1.2,2.39,2.39,0,0,1-2.68,0,2.52,2.52,0,0,1-.85-1.2,6,6,0,0,1,0-3.76,2.57,2.57,0,0,1,.85-1.2,2.39,2.39,0,0,1,2.68,0,2.66,2.66,0,0,1,.86,1.2,6.24,6.24,0,0,1,0,3.76Zm1.34-2.59v-.29a1.2,1.2,0,0,1,.13-.57,1,1,0,0,1,.38-.4,1.07,1.07,0,0,1,.59-.16,1.16,1.16,0,0,1,.6.15,1,1,0,0,1,.37.41,1.2,1.2,0,0,1,.13.57v.29a1.18,1.18,0,0,1-.13.56.94.94,0,0,1-.38.41,1.24,1.24,0,0,1-1.18,0,.94.94,0,0,1-.38-.41A1.18,1.18,0,0,1,242.43,165.45Zm.89,4.1h-.63l3.71-5.4H247Zm3.9-.44a1.07,1.07,0,0,1-.38.41,1.24,1.24,0,0,1-1.18,0,1.07,1.07,0,0,1-.38-.41,1.33,1.33,0,0,1-.13-.57v-.28a1.33,1.33,0,0,1,.13-.57,1.07,1.07,0,0,1,.38-.41,1.15,1.15,0,0,1,.59-.15,1.14,1.14,0,0,1,.6.15.92.92,0,0,1,.37.41,1.2,1.2,0,0,1,.13.57v.28A1.2,1.2,0,0,1,247.22,169.11Z"/><path class="cls-4" d="M241.63,110.76h-1V105h0l-1.63,1.06v-1l1.69-1.11h1Z"/><path class="cls-4" d="M243.36,110l2.35-2.37q.42-.44.66-.72a2.47,2.47,0,0,0,.34-.53,1.3,1.3,0,0,0,.12-.55,1,1,0,0,0-.16-.58,1.12,1.12,0,0,0-.45-.38,1.51,1.51,0,0,0-.65-.13,1.38,1.38,0,0,0-.65.14,1.09,1.09,0,0,0-.43.42,1.34,1.34,0,0,0-.15.64h-1a2.08,2.08,0,0,1,.28-1.09,2,2,0,0,1,.8-.72,2.72,2.72,0,0,1,2.3,0,2,2,0,0,1,.79.69,1.79,1.79,0,0,1,.28,1,1.93,1.93,0,0,1-.15.75,3.32,3.32,0,0,1-.49.8,13.5,13.5,0,0,1-1,1.07l-1.38,1.4v0h3.12v.88h-4.56Z"/><path class="cls-4" d="M249.4,110.74a.72.72,0,0,1-.24-.25.65.65,0,0,1,0-.66.66.66,0,0,1,.58-.33.63.63,0,0,1,.33.09.62.62,0,0,1,.24.24.65.65,0,0,1,0,.66.64.64,0,0,1-.24.25.63.63,0,0,1-.33.09A.69.69,0,0,1,249.4,110.74Z"/><path class="cls-4" d="M252.37,110.45a2.64,2.64,0,0,1-.85-1.2,6,6,0,0,1,0-3.76,2.54,2.54,0,0,1,.86-1.2,2.38,2.38,0,0,1,2.67,0,2.54,2.54,0,0,1,.86,1.2,6,6,0,0,1,0,3.76,2.57,2.57,0,0,1-.85,1.2,2.41,2.41,0,0,1-2.69,0Zm2.13-.78a1.83,1.83,0,0,0,.5-.88,5.69,5.69,0,0,0,0-2.84,1.81,1.81,0,0,0-.5-.89,1.18,1.18,0,0,0-1.57,0,1.81,1.81,0,0,0-.5.89,4.86,4.86,0,0,0-.18,1.42,5.26,5.26,0,0,0,.17,1.42,1.92,1.92,0,0,0,.51.88,1.18,1.18,0,0,0,1.57,0Z"/><path class="cls-4" d="M258.3,110.45a2.66,2.66,0,0,1-.86-1.2,6.24,6.24,0,0,1,0-3.76,2.61,2.61,0,0,1,.86-1.2,2.39,2.39,0,0,1,2.68,0,2.61,2.61,0,0,1,.86,1.2,6.24,6.24,0,0,1,0,3.76,2.66,2.66,0,0,1-.86,1.2,2.39,2.39,0,0,1-2.68,0Zm2.13-.78a1.91,1.91,0,0,0,.5-.88,6,6,0,0,0,0-2.84,1.9,1.9,0,0,0-.5-.89,1.15,1.15,0,0,0-.79-.3,1.1,1.1,0,0,0-.78.3,1.9,1.9,0,0,0-.51.89,6,6,0,0,0,0,2.84,1.83,1.83,0,0,0,.5.88,1.19,1.19,0,0,0,1.58,0Z"/><path class="cls-4" d="M263.31,105.8a1,1,0,0,1,1-.56,1.16,1.16,0,0,1,.6.15,1,1,0,0,1,.37.41,1.2,1.2,0,0,1,.13.57v.29a1.18,1.18,0,0,1-.13.56,1,1,0,0,1-.38.41,1.24,1.24,0,0,1-1.18,0,.94.94,0,0,1-.38-.41,1.18,1.18,0,0,1-.13-.56v-.29A1.2,1.2,0,0,1,263.31,105.8Zm3.84-.44h.63l-3.71,5.4h-.64Zm-3.3,1.59a.48.48,0,0,0,.15.22.51.51,0,0,0,.28.08.47.47,0,0,0,.28-.08.48.48,0,0,0,.15-.22.92.92,0,0,0,0-.29v-.29a1,1,0,0,0,0-.3.44.44,0,0,0-.43-.3.4.4,0,0,0-.27.09.45.45,0,0,0-.16.22.88.88,0,0,0-.05.29v.29A.93.93,0,0,0,263.85,107Zm2.18,2a1,1,0,0,1,.38-.41,1.15,1.15,0,0,1,.59-.15,1.14,1.14,0,0,1,.6.15,1,1,0,0,1,.37.4,1.25,1.25,0,0,1,.13.57v.29a1.22,1.22,0,0,1-.13.57,1,1,0,0,1-.38.4,1.17,1.17,0,0,1-1.18,0,1,1,0,0,1-.38-.4,1.33,1.33,0,0,1-.13-.57v-.29A1.32,1.32,0,0,1,266,108.9Zm.54,1.14a.43.43,0,0,0,.43.3.41.41,0,0,0,.28-.08.44.44,0,0,0,.15-.22.84.84,0,0,0,.05-.29v-.29a.93.93,0,0,0-.05-.29.44.44,0,0,0-.15-.22.47.47,0,0,0-.28-.08.46.46,0,0,0-.27.08.5.5,0,0,0-.16.22.93.93,0,0,0-.05.29v.29A.84.84,0,0,0,266.57,110Z"/><path class="cls-4" d="M225.07,62.34a2.06,2.06,0,0,1-.89-.68,1.55,1.55,0,0,1-.31-1,1.64,1.64,0,0,1,.18-.79,1.93,1.93,0,0,1,.51-.62,1.63,1.63,0,0,1,.72-.3v0a1.44,1.44,0,0,1-1-.83,1.57,1.57,0,0,1-.15-.68,1.63,1.63,0,0,1,.29-.93,2,2,0,0,1,.8-.65,2.88,2.88,0,0,1,1.15-.23,2.81,2.81,0,0,1,1.15.23,2,2,0,0,1,.8.65,1.62,1.62,0,0,1,.28.93,1.56,1.56,0,0,1-.14.68,1.49,1.49,0,0,1-.41.54,1.52,1.52,0,0,1-.6.29v0a1.55,1.55,0,0,1,.71.3,1.84,1.84,0,0,1,.52.62,1.77,1.77,0,0,1,.19.79,1.62,1.62,0,0,1-.32,1,2.06,2.06,0,0,1-.89.68,3.59,3.59,0,0,1-2.58,0Zm2.05-.75a1.22,1.22,0,0,0,.51-.4,1,1,0,0,0,.18-.59,1.06,1.06,0,0,0-.19-.62,1.31,1.31,0,0,0-.52-.43,1.75,1.75,0,0,0-.74-.16,1.78,1.78,0,0,0-.74.16,1.24,1.24,0,0,0-.52.43,1,1,0,0,0-.18.62.93.93,0,0,0,.17.59,1.13,1.13,0,0,0,.5.4,2,2,0,0,0,.77.14A1.94,1.94,0,0,0,227.12,61.59ZM227,58.45a1,1,0,0,0,.44-.38,1,1,0,0,0,.16-.56,1,1,0,0,0-.15-.55,1.09,1.09,0,0,0-.44-.38,1.47,1.47,0,0,0-.64-.13,1.44,1.44,0,0,0-.64.13,1.09,1.09,0,0,0-.44.38,1,1,0,0,0-.15.55,1,1,0,0,0,.16.56,1,1,0,0,0,.44.38,1.59,1.59,0,0,0,1.26,0Z"/><path class="cls-4" d="M230.06,62.46a.64.64,0,0,1-.25-.24.72.72,0,0,1,0-.66.53.53,0,0,1,.25-.24.65.65,0,0,1,.66,0,.58.58,0,0,1,.25.24.65.65,0,0,1,0,.66.72.72,0,0,1-.25.24.65.65,0,0,1-.66,0Z"/><path class="cls-4" d="M233,62.17a2.56,2.56,0,0,1-.85-1.19,5.26,5.26,0,0,1-.3-1.88,5.32,5.32,0,0,1,.3-1.89A2.51,2.51,0,0,1,233,56a2.38,2.38,0,0,1,2.67,0,2.49,2.49,0,0,1,.86,1.2,6,6,0,0,1,0,3.76,2.49,2.49,0,0,1-.85,1.19,2.41,2.41,0,0,1-2.69,0Zm2.13-.77a1.92,1.92,0,0,0,.51-.88,5.26,5.26,0,0,0,.17-1.42,5.34,5.34,0,0,0-.17-1.43,2,2,0,0,0-.51-.89,1.18,1.18,0,0,0-1.57,0,1.91,1.91,0,0,0-.5.89,4.93,4.93,0,0,0-.18,1.43,5.26,5.26,0,0,0,.17,1.42,1.92,1.92,0,0,0,.51.88,1.18,1.18,0,0,0,1.57,0Z"/><path class="cls-4" d="M239,62.17A2.49,2.49,0,0,1,238.1,61a5.26,5.26,0,0,1-.3-1.88,5.32,5.32,0,0,1,.3-1.89A2.49,2.49,0,0,1,239,56a2.39,2.39,0,0,1,2.68,0,2.55,2.55,0,0,1,.86,1.2,6.24,6.24,0,0,1,0,3.76,2.51,2.51,0,0,1-.86,1.19,2.39,2.39,0,0,1-2.68,0Zm2.13-.77a1.83,1.83,0,0,0,.5-.88,4.86,4.86,0,0,0,.18-1.42,4.93,4.93,0,0,0-.18-1.43,1.91,1.91,0,0,0-.5-.89,1.15,1.15,0,0,0-.79-.3,1.12,1.12,0,0,0-.78.3,2,2,0,0,0-.51.89,5.34,5.34,0,0,0-.17,1.43,4.89,4.89,0,0,0,.17,1.42,1.83,1.83,0,0,0,.5.88,1.19,1.19,0,0,0,1.58,0Z"/><path class="cls-4" d="M244,57.53a1.07,1.07,0,0,1,.38-.41,1.15,1.15,0,0,1,.59-.15,1.14,1.14,0,0,1,.6.15.92.92,0,0,1,.37.41,1.2,1.2,0,0,1,.13.57v.28a1.2,1.2,0,0,1-.13.57,1,1,0,0,1-.38.41,1.24,1.24,0,0,1-1.18,0A1.07,1.07,0,0,1,244,59a1.2,1.2,0,0,1-.13-.57V58.1A1.2,1.2,0,0,1,244,57.53Zm3.84-.45h.63l-3.71,5.41h-.63Zm-3.3,1.6a.42.42,0,0,0,.16.21.4.4,0,0,0,.27.09.44.44,0,0,0,.43-.3.94.94,0,0,0,0-.3V58.1a.94.94,0,0,0,0-.3.48.48,0,0,0-.15-.22.47.47,0,0,0-.28-.08.46.46,0,0,0-.27.08.6.6,0,0,0-.16.22.94.94,0,0,0-.05.3v.28A.94.94,0,0,0,244.5,58.68Zm2.19,1.94a1,1,0,0,1,.37-.4,1.08,1.08,0,0,1,.6-.16,1.13,1.13,0,0,1,.59.15.92.92,0,0,1,.37.41,1.2,1.2,0,0,1,.13.57v.29a1.18,1.18,0,0,1-.13.56.94.94,0,0,1-.38.41,1.09,1.09,0,0,1-.58.15,1.11,1.11,0,0,1-.6-.15,1,1,0,0,1-.38-.41,1.32,1.32,0,0,1-.13-.56v-.29A1.26,1.26,0,0,1,246.69,60.62Zm.53,1.15a.5.5,0,0,0,.16.22.47.47,0,0,0,.28.08.46.46,0,0,0,.27-.08.48.48,0,0,0,.15-.22.71.71,0,0,0,0-.29v-.29a.68.68,0,0,0,0-.29.41.41,0,0,0-.42-.3.41.41,0,0,0-.28.08.45.45,0,0,0-.16.22.88.88,0,0,0-.05.29v.29A.93.93,0,0,0,247.22,61.77Z"/><path class="cls-4" d="M184.62,36.36h-1V30.6h0l-1.62,1.06v-1l1.68-1.11h1Z"/><path class="cls-4" d="M187.37,36a2.56,2.56,0,0,1-.85-1.19,6.07,6.07,0,0,1,0-3.77,2.51,2.51,0,0,1,.86-1.19,2.38,2.38,0,0,1,2.67,0,2.49,2.49,0,0,1,.86,1.2,6,6,0,0,1,0,3.76,2.56,2.56,0,0,1-.85,1.19,2.21,2.21,0,0,1-1.35.41A2.16,2.16,0,0,1,187.37,36Zm2.13-.77a1.83,1.83,0,0,0,.5-.88,5.73,5.73,0,0,0,0-2.85,1.91,1.91,0,0,0-.5-.89,1.18,1.18,0,0,0-1.57,0,1.91,1.91,0,0,0-.5.89,4.91,4.91,0,0,0-.18,1.42,5.34,5.34,0,0,0,.17,1.43,1.91,1.91,0,0,0,.5.88,1.14,1.14,0,0,0,.79.29A1.12,1.12,0,0,0,189.5,35.27Z"/><path class="cls-4" d="M192.35,36.33a.69.69,0,0,1-.24-.24.72.72,0,0,1,0-.66.56.56,0,0,1,.24-.24.69.69,0,0,1,.34-.09.63.63,0,0,1,.33.09.58.58,0,0,1,.25.24.72.72,0,0,1,0,.66.72.72,0,0,1-.25.24.63.63,0,0,1-.33.09A.69.69,0,0,1,192.35,36.33Z"/><path class="cls-4" d="M195.32,36a2.56,2.56,0,0,1-.85-1.19,6.07,6.07,0,0,1,0-3.77,2.51,2.51,0,0,1,.86-1.19,2.38,2.38,0,0,1,2.67,0,2.49,2.49,0,0,1,.86,1.2,6,6,0,0,1,0,3.76A2.49,2.49,0,0,1,198,36a2.41,2.41,0,0,1-2.69,0Zm2.13-.77a1.92,1.92,0,0,0,.51-.88,6.06,6.06,0,0,0,0-2.85,2,2,0,0,0-.51-.89,1.18,1.18,0,0,0-1.57,0,1.91,1.91,0,0,0-.5.89A4.91,4.91,0,0,0,195.2,33a5.34,5.34,0,0,0,.17,1.43,1.92,1.92,0,0,0,.51.88,1.21,1.21,0,0,0,1.57,0Z"/><path class="cls-4" d="M201.25,36a2.49,2.49,0,0,1-.85-1.19,6.07,6.07,0,0,1,0-3.77,2.49,2.49,0,0,1,.85-1.19,2.39,2.39,0,0,1,2.68,0,2.55,2.55,0,0,1,.86,1.2,6.24,6.24,0,0,1,0,3.76,2.51,2.51,0,0,1-.86,1.19,2.39,2.39,0,0,1-2.68,0Zm2.13-.77a1.91,1.91,0,0,0,.5-.88,6.06,6.06,0,0,0,0-2.85,2,2,0,0,0-.5-.89,1.15,1.15,0,0,0-.79-.3,1.12,1.12,0,0,0-.78.3,2,2,0,0,0-.51.89,5.31,5.31,0,0,0-.17,1.42,5,5,0,0,0,.17,1.43,1.83,1.83,0,0,0,.5.88,1.22,1.22,0,0,0,1.58,0Z"/><path class="cls-4" d="M206.26,31.4a1.07,1.07,0,0,1,.38-.41,1.15,1.15,0,0,1,.59-.15,1.14,1.14,0,0,1,.6.15.92.92,0,0,1,.37.41,1.2,1.2,0,0,1,.13.57v.28a1.2,1.2,0,0,1-.13.57.92.92,0,0,1-.38.4,1.17,1.17,0,0,1-1.18,0,.92.92,0,0,1-.38-.4,1.2,1.2,0,0,1-.13-.57V32A1.2,1.2,0,0,1,206.26,31.4ZM210.1,31h.63L207,36.36h-.63Zm-3.3,1.6a.42.42,0,0,0,.16.21.4.4,0,0,0,.27.09.44.44,0,0,0,.43-.3.94.94,0,0,0,.05-.3V32a.94.94,0,0,0-.05-.3.48.48,0,0,0-.15-.22.47.47,0,0,0-.28-.08.46.46,0,0,0-.27.08.6.6,0,0,0-.16.22.94.94,0,0,0-.05.3v.28A.94.94,0,0,0,206.8,32.55ZM209,34.49a1.07,1.07,0,0,1,.38-.41,1.16,1.16,0,0,1,.6-.15,1.13,1.13,0,0,1,.59.15,1,1,0,0,1,.37.41,1.2,1.2,0,0,1,.13.57v.29a1.18,1.18,0,0,1-.13.56,1,1,0,0,1-.38.41,1.09,1.09,0,0,1-.58.15,1.11,1.11,0,0,1-.6-.15,1,1,0,0,1-.38-.41,1.32,1.32,0,0,1-.13-.56v-.29A1.4,1.4,0,0,1,209,34.49Zm.54,1.15a.5.5,0,0,0,.16.22.47.47,0,0,0,.28.08.46.46,0,0,0,.27-.08.48.48,0,0,0,.15-.22.93.93,0,0,0,.05-.29v-.29a.94.94,0,0,0-.05-.3.41.41,0,0,0-.15-.21.4.4,0,0,0-.27-.09.41.41,0,0,0-.28.09.45.45,0,0,0-.16.22.88.88,0,0,0-.05.29v.29A.93.93,0,0,0,209.52,35.64Z"/></svg>