<svg xmlns="http://www.w3.org/2000/svg" width="54" height="54" viewBox="0 0 54 54">
  <g id="그룹_64" data-name="그룹 64" transform="translate(-7369 -2294)">
    <circle id="타원_73" data-name="타원 73" cx="27" cy="27" r="27" transform="translate(7369 2294)" fill="#f2f2f2"/>
    <g id="레이어_2" data-name="레이어 2" transform="translate(7384 2309)">
      <g id="Layer_1" data-name="Layer 1">
        <path id="패스_11" data-name="패스 11" d="M26.5,11.562A5.946,5.946,0,0,1,32.438,17.5v9A5.946,5.946,0,0,1,26.5,32.438h-9A5.946,5.946,0,0,1,11.562,26.5v-9A5.946,5.946,0,0,1,17.5,11.562h9M26.5,10h-9A7.5,7.5,0,0,0,10,17.5v9A7.5,7.5,0,0,0,17.5,34h9A7.5,7.5,0,0,0,34,26.5v-9A7.5,7.5,0,0,0,26.5,10Z" transform="translate(-10 -10)"/>
        <path id="패스_12" data-name="패스 12" d="M92.84,88.411A4.439,4.439,0,1,1,88.4,92.85a4.439,4.439,0,0,1,4.438-4.438m0-1.562a6,6,0,1,0,6,6,6,6,0,0,0-6-6Z" transform="translate(-80.841 -80.85)"/>
        <path id="패스_13" data-name="패스 13" d="M241.025,63.99a.988.988,0,1,1-.988-.99.988.988,0,0,1,.988.99Z" transform="translate(-221.167 -58.862)"/>
      </g>
    </g>
  </g>
</svg>
