<svg xmlns="http://www.w3.org/2000/svg" width="54" height="54" viewBox="0 0 54 54">
  <g id="그룹_62" data-name="그룹 62" transform="translate(-7509 -2294)">
    <circle id="타원_75" data-name="타원 75" cx="27" cy="27" r="27" transform="translate(7509 2294)" fill="#f2f2f2"/>
    <g id="Layer_1" data-name="Layer 1" transform="translate(7524 2310)">
      <path id="패스_18" data-name="패스 18" d="M29.731,8H12.265A3.269,3.269,0,0,0,9,11.265V22.152a3.269,3.269,0,0,0,3.265,3.268h6.265c.147.384.392,1.01.666,1.642.863,1.992,1.244,2.343,1.728,2.343s.866-.346,1.783-2.33c.3-.639.562-1.272.72-1.655h6.3A3.269,3.269,0,0,0,33,22.152V11.265A3.269,3.269,0,0,0,29.731,8ZM12.265,24.255a2.1,2.1,0,0,1-2.1-2.1V11.265a2.1,2.1,0,0,1,2.1-2.1H29.731a2.1,2.1,0,0,1,2.1,2.1V22.152a2.1,2.1,0,0,1-2.1,2.1H22.64l-.146.367a27.183,27.183,0,0,1-1.563,3.363,26.416,26.416,0,0,1-1.452-3.348l-.138-.382Z" transform="translate(-9 -8)"/>
      <path id="패스_19" data-name="패스 19" d="M141.17,79.7v1.358a.817.817,0,0,1,.622.885v3.392h1.282V81.986a2.161,2.161,0,0,0-1.9-2.286Z" transform="translate(-132.856 -74.744)"/>
      <path id="패스_20" data-name="패스 20" d="M183.045,105.532a2.256,2.256,0,0,0-.825.151,2.2,2.2,0,0,0-.7.438,2.074,2.074,0,0,0-.484.665,1.907,1.907,0,0,0,0,1.546,2.085,2.085,0,0,0,.484.665,2.187,2.187,0,0,0,.7.435,2.256,2.256,0,0,0,.825.153,2.318,2.318,0,0,0,.838-.153,2.143,2.143,0,0,0,.7-.438,1.994,1.994,0,0,0,.471-.657,1.973,1.973,0,0,0,0-1.562,1.994,1.994,0,0,0-.471-.657,2.157,2.157,0,0,0-.7-.438,2.317,2.317,0,0,0-.838-.151Zm0,2.907a.83.83,0,0,1-.612-.259.9.9,0,0,1,0-1.256.83.83,0,0,1,.612-.26.888.888,0,0,1,0,1.775Z" transform="translate(-169.812 -98.788)"/>
      <path id="패스_21" data-name="패스 21" d="M75.877,81.34H74.62v5.482h1.257v-.266h.014a1.857,1.857,0,0,0,3.027-1.52,2.2,2.2,0,0,0-.49-1.409,1.662,1.662,0,0,0-1.175-.6h-.035a2.08,2.08,0,0,0-1.327.407h-.014Zm.853,4.589a.829.829,0,0,1-.612-.258.9.9,0,0,1,0-1.256.829.829,0,0,1,.612-.259.888.888,0,0,1,0,1.774Z" transform="translate(-70.907 -76.27)"/>
      <path id="패스_22" data-name="패스 22" d="M254.755,104.71a1.729,1.729,0,0,0-1.369.577,2.363,2.363,0,0,0-.506,1.59,2.121,2.121,0,0,0,.455,1.426,1.617,1.617,0,0,0,1.266.545,1.422,1.422,0,0,0,1.261-.539h.017v.255a1.044,1.044,0,0,1-1.106.953,1.024,1.024,0,0,1-.1-.006v.995a3.526,3.526,0,0,0,.5.039,1.9,1.9,0,0,0,1.345-.469,2.5,2.5,0,0,0,.612-1.958v-3.312h-1.25v.3h-.019A1.478,1.478,0,0,0,254.755,104.71Zm.26,2.972a.829.829,0,0,1-.612-.259.9.9,0,0,1,0-1.256.829.829,0,0,1,.612-.259.888.888,0,0,1,0,1.774Z" transform="translate(-236.844 -98.025)"/>
    </g>
  </g>
</svg>
