<svg xmlns="http://www.w3.org/2000/svg" width="54" height="54" viewBox="0 0 54 54">
  <g id="그룹_63" data-name="그룹 63" transform="translate(-7439 -2294)">
    <circle id="타원_73" data-name="타원 73" cx="27" cy="27" r="27" transform="translate(7439 2294)" fill="#f2f2f2"/>
    <g id="레이어_2" data-name="레이어 2" transform="translate(7454 2309)">
      <g id="Layer_1" data-name="Layer 1" transform="translate(0)">
        <path id="패스_16" data-name="패스 16" d="M109.815,66.2V63.72h-2.192a3.146,3.146,0,0,0-3.146,3.147v2.264H102.25v2.588h2.227v6.048H107.2v-6.09h2.035l.39-2.57H107.2V67.284a1.085,1.085,0,0,1,1.085-1.085Z" transform="translate(-94.267 -58.745)"/>
        <path id="패스_17" data-name="패스 17" d="M12,1.249A10.751,10.751,0,1,1,4.4,4.4,10.751,10.751,0,0,1,12,1.249M12,0h0A12,12,0,0,0,0,12H0A12,12,0,0,0,12,24h0A12,12,0,0,0,24,12h0A12,12,0,0,0,12,0Z" transform="translate(0 0)"/>
      </g>
    </g>
  </g>
</svg>
