<svg xmlns="http://www.w3.org/2000/svg" xmlns:xlink="http://www.w3.org/1999/xlink" width="210" height="72" viewBox="0 0 210 72">
  <defs>
    <clipPath id="clip-path">
      <rect id="사각형_256" data-name="사각형 256" width="107.529" height="23.186" fill="none"/>
    </clipPath>
  </defs>
  <g id="그룹_515" data-name="그룹 515" transform="translate(-1094 -2460)">
    <rect id="사각형_249" data-name="사각형 249" width="210" height="72" transform="translate(1094 2460)" fill="#fff"/>
    <g id="그룹_514" data-name="그룹 514" transform="translate(1145 2488)">
      <g id="그룹_513" data-name="그룹 513" transform="translate(0 0)" clip-path="url(#clip-path)">
        <path id="패스_715" data-name="패스 715" d="M161.11,0h4.167a2.055,2.055,0,0,1,2.085,2V14.749a2.056,2.056,0,0,1-2.085,2.015H161.11a2.055,2.055,0,0,1-2.083-2.015V2a2.054,2.054,0,0,1,2.083-2" transform="translate(-59.833 0)" fill="#b10023" fill-rule="evenodd"/>
        <path id="패스_716" data-name="패스 716" d="M165.984,4.959a.562.562,0,0,0-.606-.15,7.064,7.064,0,0,0-.848-.024h-.412c-.172.059-.676,0-.905.07a1.4,1.4,0,0,0-.308,1.294,2.545,2.545,0,0,0,.422,1.786c.057.011.149.172.39.172.091.034.148.057.137.274a9.81,9.81,0,0,0-.275,1.008,3.931,3.931,0,0,1-.309.653.478.478,0,0,0,.034.376c.068.012.1-.055.149-.055a5.05,5.05,0,0,0,.6-1.718c.069-.173.011-.251.149-.39a.48.48,0,0,1,.332-.114.819.819,0,0,1,.584.114,7.88,7.88,0,0,0,.412,1.478c.183.229.161.618.481.7.069-.034-.046-.067,0-.114.1-.367-.173-.641-.287-.939-.092-.321-.147-.676-.251-.984-.023-.138-.08-.333.1-.413.16-.068.366-.125.434-.321.172-.206.15-.571.218-.824a1.871,1.871,0,0,0,.1-.835c-.044-.355.069-.894-.343-1.042m-2.415.206c.3.011.618-.058.961-.034h.022c.39.023.825-.011,1.2.011a.7.7,0,0,0,.079.114,3.447,3.447,0,0,1,.024.493c-.16.069-.332-.023-.481-.036s-.516.036-.848.069a2.259,2.259,0,0,1-.561.012c-.138.068-.3-.022-.458.058-.08-.07-.206.079-.274-.035-.1-.287.148-.5.332-.652m2.026,2.37c-.229,0-.4.173-.629.195a1.358,1.358,0,0,1-.435.046,1.208,1.208,0,0,1-.447-.046c-.241.092-.412-.1-.573-.275-.022-.137-.172-.365-.149-.515a4.942,4.942,0,0,1,1.168-.057,1.167,1.167,0,0,0,.24-.046,3.41,3.41,0,0,0,1.133,0c-.08.217.012.689-.309.7m.264-1.007c-.435,0-.848,0-1.283.034-.012,0-.023-.011-.046-.011a3.918,3.918,0,0,0-1.168.1c-.114-.079-.079-.263-.125-.4-.024-.2.194-.127.3-.171a2.7,2.7,0,0,0,1,.044c.469-.034.939-.1,1.019-.1a.205.205,0,0,1,.309.059c0,.148.114.308,0,.446" transform="translate(-61.273 -1.798)" fill="#fff"/>
        <path id="패스_717" data-name="패스 717" d="M166.553,3.124A8.136,8.136,0,0,0,164.275,3c-.194-.137.036-.413,0-.583.057-.3.951-.208,1.2-.208.217.057.446,0,.686.057.092-.044.287.012.3-.125-.068-.183-.252-.172-.4-.206-.619.023-1.249.012-1.89.035h-.321a14.884,14.884,0,0,1-2.025-.057c-.127.057-.367.068-.344.275a.171.171,0,0,0,.067.022.5.5,0,0,0,.253.024c.515.1,1.453-.035,1.946.033a.555.555,0,0,1,.092.3c.011.125.011.366-.092.435a5.688,5.688,0,0,0-1.81.068,1.7,1.7,0,0,0-.869.08.2.2,0,0,0,.1.276c.286.034,1.042-.127,1.42-.092a5.932,5.932,0,0,1,1.259.011,1.549,1.549,0,0,0,.367-.034c.332-.056,2,.058,2.267,0a.16.16,0,0,0,.069-.183" transform="translate(-60.595 -0.719)" fill="#fff"/>
        <path id="패스_718" data-name="패스 718" d="M167.064,15.932V15.05a.086.086,0,0,0-.058-.023c-.011-.011-.034-.011-.068-.011v.011c-.034,0-.057.011-.08.011s-.034.012-.047.012c-.011.035-.011.092-.022.16s-.012.137-.012.231a2.022,2.022,0,0,0-.022.25c-.011.069-.011.241-.022.286-.15.092-.367.127-.458-.275,0-.032-.012-.056-.012-.079v-.448a1.3,1.3,0,0,0-.1-.125h-.183v.206a.348.348,0,0,0-.012.115v.113c0,.024.012.058.012.081a.452.452,0,0,0,.012.114.615.615,0,0,0,.034.183c.024.069.034.126.057.2s.034.1.046.149a.716.716,0,0,0,.137.09.659.659,0,0,0,.194.058c.07.011.139.011.2.023a.55.55,0,0,1,.16.023v.089a.408.408,0,0,0,.012.059c.011.024.011.035.023.046s.045.035.068.057l.023-.012.126-.046c.011-.092.024-.172.034-.263a.175.175,0,0,0,.068.022.2.2,0,0,0,.116,0c.046,0,.09-.012.125-.012a.3.3,0,0,1,.09-.011c.057,0,.116-.047.184-.116a.849.849,0,0,0,.172-.354,1.034,1.034,0,0,0,.068-.435,1.953,1.953,0,0,0-.024-.32c-.022-.022-.032-.046-.044-.057a.057.057,0,0,0-.035-.023.053.053,0,0,0-.057,0c-.012,0-.034.011-.046.011s-.022.012-.034.012a1.237,1.237,0,0,0-.045.125c-.012.047-.023.08-.036.127.012.069.023.125.036.2a.865.865,0,0,1-.07.24c-.171.378-.331.252-.5.195" transform="translate(-62.443 -5.65)" fill="#fff"/>
        <path id="패스_719" data-name="패스 719" d="M163.638,21.313h-.091a.1.1,0,0,0-.046.011.09.09,0,0,0-.045.047c-.012.022-.024.034-.024.057a.742.742,0,0,1-.022.148,3.085,3.085,0,0,1-.161.619,1.577,1.577,0,0,1-.16.343,1.972,1.972,0,0,1-.286.423,1.765,1.765,0,0,1-.39.286,2.283,2.283,0,0,1-.241.127.235.235,0,0,1-.046.057v.241c.046.022.081.046.115.057a.18.18,0,0,0,.1-.024.382.382,0,0,0,.148-.079c.069-.035.115-.069.172-.1s.08-.068.115-.092a3,3,0,0,0,.286-.332,2.516,2.516,0,0,0,.183-.206,2.049,2.049,0,0,0,.149-.227,3.132,3.132,0,0,0,.217-.586c.035-.172.069-.308.08-.412v-.3c-.012-.013-.012-.024-.023-.036s-.022-.012-.034-.022" transform="translate(-61 -8.019)" fill="#fff"/>
        <path id="패스_720" data-name="패스 720" d="M165.6,20.035c.1,0,.205-.011.286-.011a2.733,2.733,0,0,0,.354-.046c.675-.23-.012-.321-.331-.207h-.482c-.195,0-.344-.011-.48-.011s-.218-.012-.309-.012c0-.023.012-.069.012-.115s-.024-.3-.024-.366a1.183,1.183,0,0,0,.024-.172.426.426,0,0,0,.011-.1c0-.137.023-.24-.011-.3a.267.267,0,0,0-.23-.138c-.046.01-.1.1-.137.182a1,1,0,0,0,.011.31l.046.7c-.274,0-.652.057-.984.046a.818.818,0,0,0-.161-.011,2.049,2.049,0,0,0-.6-.023c-.183.046-.332.148.012.251.057,0,.115.022.217.022h1.465c-.011.768.012,1.536,0,2.3v.127c0,.034.012.068.012.1s.011.047.022.069a.178.178,0,0,0,.047.034c.011.012.021.012.046.023h.091a.354.354,0,0,0,.115-.057v-2.6a2.2,2.2,0,0,1,.286-.011h.493a1.244,1.244,0,0,0,.194.011" transform="translate(-61.103 -6.982)" fill="#fff"/>
        <path id="패스_721" data-name="패스 721" d="M162.57,18.558a.53.53,0,0,0,.263-.068c.07-.024.126-.036.183-.058v-.012a2.576,2.576,0,0,0,.321-.125,2.237,2.237,0,0,1,.389-.148,3.176,3.176,0,0,1,.734-.287,2.173,2.173,0,0,1,.778.263l.344.172c.16.069.309.148.47.23a.914.914,0,0,0,.274.056,1.489,1.489,0,0,0,.24-.011c0-.4-.01-.274-.468-.457a5.489,5.489,0,0,0-.515-.241.088.088,0,0,0-.058-.022c-.206-.08-.388-.149-.549-.206s-.412-.125-.515-.183c-.115.035-.2.08-.378.15a5.912,5.912,0,0,0-.584.24c-.046.022-.1.046-.161.069-.172.059-.321.125-.457.173a4.5,4.5,0,0,1-.436.147,1.208,1.208,0,0,0-.069.126c-.011.171-.079.15.2.2" transform="translate(-61.087 -6.568)" fill="#fff"/>
        <path id="패스_722" data-name="패스 722" d="M168.053,23.431a1.062,1.062,0,0,1-.687-.676,2,2,0,0,0-.16-.3l-.034-.068a2.756,2.756,0,0,1-.138-.345c-.045-.159-.079-.286-.114-.4s-.046-.206-.058-.275a.238.238,0,0,1-.046-.036c-.022-.012-.034-.012-.057-.022h-.092c-.022.058-.057.115-.08.172v.183c.024.08.047.172.069.286s.1.286.16.447a3.01,3.01,0,0,0,.162.389c.067.116.126.218.183.3l.011.01c.057.059.115.127.184.207a1.174,1.174,0,0,0,.274.252.7.7,0,0,0,.274.16.45.45,0,0,0,.206.012.044.044,0,0,1,.012-.036c0-.011.011-.022.011-.044s.024-.023.036-.023.012-.012.023-.012a.362.362,0,0,0-.138-.183" transform="translate(-62.678 -8.019)" fill="#fff"/>
        <path id="패스_723" data-name="패스 723" d="M162.625,15.212a.452.452,0,0,0-.056-.16c-.011,0-.011-.012-.023-.012s-.035-.011-.046-.011-.036-.011-.047,0-.023.011-.035.023-.011.069-.011.1a.712.712,0,0,0-.01.15.643.643,0,0,0-.012.149v.309a1.883,1.883,0,0,0,.148.309.625.625,0,0,0,.24.218.6.6,0,0,0,.265.057,1.264,1.264,0,0,1,.182-.01c.012.114.024.216.035.32h.1c.035-.012.046-.023.069-.023a.174.174,0,0,0,.046-.034V16.46c.011-.023.011-.057.022-.08s.012-.036.012-.046a.63.63,0,0,1,.16-.012,1.027,1.027,0,0,0,.23-.035.656.656,0,0,0,.23-.126,1.506,1.506,0,0,0,.183-.218v-.434a1.545,1.545,0,0,0-.011-.24.682.682,0,0,0-.034-.161.267.267,0,0,0-.034-.057h-.1a.284.284,0,0,0-.069.057v.516c-.046.067-.08.137-.114.194-.23.286-.2.057-.435.068v-.195a1.692,1.692,0,0,1-.012-.25c-.011-.094-.011-.173-.022-.231v-.16a.124.124,0,0,0-.07-.023c-.011-.011-.034-.011-.057-.011a.011.011,0,0,0-.011.011.418.418,0,0,0-.069.011c-.022,0-.034.012-.046.012a.765.765,0,0,1-.011.148,1.321,1.321,0,0,1-.012.205c0,.07-.011.138-.011.2v.16c.011.034.023.079.034.125-.263.138-.389.149-.5-.206a.782.782,0,0,1-.07-.228,1.589,1.589,0,0,0-.022-.241" transform="translate(-61.097 -5.65)" fill="#fff"/>
        <path id="패스_724" data-name="패스 724" d="M35.9,10.421a5.351,5.351,0,0,0-2.037-.385A5.646,5.646,0,0,0,29.833,11.6a5.116,5.116,0,0,0-1.654,3.874,5.175,5.175,0,0,0,1.6,3.908,5.572,5.572,0,0,0,4.016,1.528,5.228,5.228,0,0,0,3.865-1.634,5.818,5.818,0,0,0,1.21-1.819,5.4,5.4,0,0,0,.419-2.1,5.227,5.227,0,0,0-1.677-3.779A5.168,5.168,0,0,0,35.9,10.421M33.674,20.443a2.7,2.7,0,0,1-2.4-1.284,6.645,6.645,0,0,1-.838-3.64,6.487,6.487,0,0,1,.907-3.676A2.719,2.719,0,0,1,33.674,10.5a2.84,2.84,0,0,1,2.468,1.272,6.359,6.359,0,0,1,.884,3.651q0,5.018-3.353,5.017" transform="translate(-10.602 -3.776)" fill="#2a2322"/>
        <path id="패스_725" data-name="패스 725" d="M60.155,20.03a3.554,3.554,0,0,1-.664-.187.823.823,0,0,1-.477-.43,3.249,3.249,0,0,1-.082-.9V13.092a2.932,2.932,0,0,0-.884-2.3,3.721,3.721,0,0,0-2.561-.792,4.3,4.3,0,0,0-3.842,2.212c-.031-.4-.069-.885-.116-1.443s-.186-.838-.419-.838a5.4,5.4,0,0,0-.71.232,10.452,10.452,0,0,1-1.5.409c-.575.116-.861.236-.861.361,0,.108.154.182.465.221a2.209,2.209,0,0,1,.652.152.884.884,0,0,1,.454.536,4.132,4.132,0,0,1,.105,1.094v5.588a3.03,3.03,0,0,1-.094.9.781.781,0,0,1-.466.43,2.906,2.906,0,0,1-.652.187c-.311.062-.465.155-.465.279q0,.256.349.256c.373-.032.714-.062,1.025-.094s.752-.047,1.327-.047c.155,0,.568.024,1.234.07s1.032.07,1.095.07q.372,0,.372-.211,0-.231-.454-.324a3.525,3.525,0,0,1-.664-.187.825.825,0,0,1-.477-.43,3.217,3.217,0,0,1-.082-.9v-4.4a3.446,3.446,0,0,1,.862-2.4,2.694,2.694,0,0,1,2.072-.954q2.187,0,2.189,2.468v5.285a3.03,3.03,0,0,1-.094.9.782.782,0,0,1-.465.43,2.924,2.924,0,0,1-.652.187c-.311.062-.465.155-.465.279q0,.256.372.256c.374-.032.71-.062,1.013-.094s.742-.047,1.315-.047q.21,0,1.234.07t1.118.07c.231,0,.349-.07.349-.211s-.152-.263-.454-.324" transform="translate(-18.074 -3.734)" fill="#2a2322"/>
        <path id="패스_726" data-name="패스 726" d="M146.316,19.48a1.206,1.206,0,0,0-.384.233,1,1,0,0,1-.571.233q-.769,0-.768-1.26V12.757q0-2.684-4-2.683a6.467,6.467,0,0,0-2.957.558q-1.072.56-1.072,1.374c0,.574.271.862.815.862a.843.843,0,0,0,.768-.326,3,3,0,0,0,.233-.885q.138-1.117,2-1.118,2.234,0,2.235,1.824v1.848q-6.426,2.339-6.426,4.584a1.976,1.976,0,0,0,.641,1.554,2.506,2.506,0,0,0,1.735.573,5.579,5.579,0,0,0,3.981-1.653,2.031,2.031,0,0,0,2.048,1.653,2.165,2.165,0,0,0,1.339-.449q.593-.45.594-.781a.187.187,0,0,0-.21-.213M142.615,18a1.769,1.769,0,0,1-.873,1.409,3.07,3.07,0,0,1-1.828.634,1.45,1.45,0,0,1-1.14-.47,1.831,1.831,0,0,1-.42-1.268q0-1.926,4.261-3.593Z" transform="translate(-51.241 -3.79)" fill="#2a2322"/>
        <path id="패스_727" data-name="패스 727" d="M80.887,7.836l-1.04-.685q-.461.383-.876.672c-.276.193-.56.372-.848.54s-.608.338-.929.487c-.01.006-.021.009-.032.014a2.555,2.555,0,0,1-1.193.159c-.083-.014-.168-.026-.251-.036l-.006,0h0a5.429,5.429,0,0,0-.619-.036,4.584,4.584,0,0,0-3.12,1.073,3.431,3.431,0,0,0-1.234,2.7,3.289,3.289,0,0,0,.675,2.051A4.048,4.048,0,0,0,73.3,16.107q-2.165.418-2.165,2.091a1.706,1.706,0,0,0,.978,1.638,6.771,6.771,0,0,0,2.957.5,7.511,7.511,0,0,1,3.1.455,1.82,1.82,0,0,1,.909,1.805,2.368,2.368,0,0,1-.931,1.978,4.168,4.168,0,0,1-2.608.722,4.876,4.876,0,0,1-2.724-.652,2.007,2.007,0,0,1-.978-1.747,2.242,2.242,0,0,1,.3-1.234,1.866,1.866,0,0,1,.722-.675q0-.327-.791-.326a1.615,1.615,0,0,0-1.212.583,1.933,1.933,0,0,0-.534,1.351,2.757,2.757,0,0,0,1.361,2.362,6.371,6.371,0,0,0,3.621.92,6.264,6.264,0,0,0,3.9-1.083,3.515,3.515,0,0,0,1.408-2.945,3.134,3.134,0,0,0-1.234-2.782,7.091,7.091,0,0,0-3.935-.849q-3.19,0-3.19-.759a.855.855,0,0,1,.7-.828,7.474,7.474,0,0,1,2.165-.229,4.723,4.723,0,0,0,3.189-.936A3.346,3.346,0,0,0,79.376,12.8a3.985,3.985,0,0,0-.81-2.333,2.937,2.937,0,0,0-.419-.45l0,0a4.626,4.626,0,0,0-.987-.632c.106-.024.21-.048.308-.072q.515-.126.961-.258t.923-.3q.461-.17,1.04-.42l.356-.054c.176-.026.276-.084.3-.17s-.027-.181-.158-.278M76.745,15.1A2.062,2.062,0,0,1,75,15.935a1.959,1.959,0,0,1-1.688-.873,4.121,4.121,0,0,1-.617-2.41,3.929,3.929,0,0,1,.641-2.352,1.929,1.929,0,0,1,1.619-.884,2.105,2.105,0,0,1,1.781.85,3.982,3.982,0,0,1,.641,2.432,3.944,3.944,0,0,1-.629,2.4" transform="translate(-26.458 -2.69)" fill="#2a2322"/>
        <path id="패스_728" data-name="패스 728" d="M105,18.863c-.025.03-.049.056-.072.084a3.936,3.936,0,0,1-2.861,1.238,3.05,3.05,0,0,1-2.453-1.211,5.532,5.532,0,0,1-.931-3.431,6.4,6.4,0,0,1,.909-3.688,2.833,2.833,0,0,1,2.444-1.307,1.7,1.7,0,0,1,1.071.256,2.6,2.6,0,0,1,.465.838.96.96,0,0,0,.933.676.659.659,0,0,0,.744-.746,1.279,1.279,0,0,0-.815-1.093,4.54,4.54,0,0,0-2.165-.443,5.745,5.745,0,0,0-4.028,1.423,5.364,5.364,0,0,0-1.885,4.13,5.256,5.256,0,0,0,1.419,3.92,5.366,5.366,0,0,0,3.935,1.4c.179,0,.349-.007.515-.017l0,0a3.116,3.116,0,0,0,3.027-1.944l-.159-.195c-.03.039-.06.072-.089.107" transform="translate(-36.253 -3.776)" fill="#2a2322"/>
        <path id="패스_729" data-name="패스 729" d="M125.433,16.3a3.505,3.505,0,0,1-.665-.187.823.823,0,0,1-.476-.43,3.256,3.256,0,0,1-.082-.9V9.368a2.873,2.873,0,0,0-.876-2.28,3.814,3.814,0,0,0-2.581-.767,4.279,4.279,0,0,0-3.737,1.932V.407c0-.249-.084-.372-.254-.372q-.557.138-1.112.255c-.163.035-.351.07-.56.108l-1.936.308c-.008,0-.13.028-.058.105l.448.482c.981-.119,1.283.264,1.374.553a4.059,4.059,0,0,1,.048.7V14.79a3.037,3.037,0,0,1-.093.9.782.782,0,0,1-.467.43,2.872,2.872,0,0,1-.651.187c-.311.062-.466.155-.466.279q0,.255.373.256.559-.045,1.012-.09c.3-.029.741-.044,1.316-.044q.21,0,1.234.067t1.118.067c.232,0,.349-.07.349-.209q0-.234-.453-.326a3.5,3.5,0,0,1-.664-.187.826.826,0,0,1-.477-.43,3.28,3.28,0,0,1-.082-.9v-4.4a3.413,3.413,0,0,1,.873-2.4,2.729,2.729,0,0,1,2.084-.954q2.187,0,2.188,2.466V14.79a3.011,3.011,0,0,1-.094.9.779.779,0,0,1-.465.43,2.88,2.88,0,0,1-.652.187c-.31.062-.465.155-.465.279,0,.17.116.256.349.256q.558-.045,1.024-.09c.311-.029.753-.044,1.327-.044q.232,0,1.234.067c.666.044,1.032.067,1.093.067.248,0,.372-.07.372-.209q0-.234-.453-.326" transform="translate(-42.544 -0.013)" fill="#2a2322"/>
        <path id="패스_730" data-name="패스 730" d="M16.064,10.709q-.21,0-2.7.14-.932,0-1.595-.047c-.442-.03-.8-.062-1.083-.092-.357,0-.535.085-.535.254,0,.14.2.243.594.314a5.657,5.657,0,0,1,.71.15q.815.3.815,1.764a3.833,3.833,0,0,1-.977,2.9,4.346,4.346,0,0,1-3.073.928A4.609,4.609,0,0,1,4.3,15.077,9.039,9.039,0,0,1,2.863,9.626,9.881,9.881,0,0,1,4.319,3.755,4.962,4.962,0,0,1,8.591,1.768a4.387,4.387,0,0,1,4.424,3.259,4.391,4.391,0,0,1,.209.687c.062.272.148.407.256.407q.21,0,.21-.279l.1-2.47.079-1.742-.439-.139a1.833,1.833,0,0,1-.269.831.373.373,0,0,1-.425.064q-.965-.358-1.911-.737A9,9,0,0,0,8.242,1.3,7.845,7.845,0,0,0,2.294,3.709,8.673,8.673,0,0,0,0,9.951a7.37,7.37,0,0,0,2.1,5.417A7.553,7.553,0,0,0,7.73,17.623,8.181,8.181,0,0,0,10.873,17q1.094-.528,2.188-1.081a3.587,3.587,0,0,1,.8-.253,5,5,0,0,1,.99-.092c-.047-.357-.078-.652-.094-.885s-.023-.56-.023-.978v-.256a5.7,5.7,0,0,1,.1-1.292.964.964,0,0,1,.419-.606,2.707,2.707,0,0,1,.78-.314q.465-.117.465-.3c0-.155-.147-.233-.442-.233" transform="translate(0 -0.49)" fill="#2a2322"/>
      </g>
    </g>
  </g>
</svg>
