<svg xmlns="http://www.w3.org/2000/svg" width="127" height="127" viewBox="0 0 127 127">
  <g id="그룹_520" data-name="그룹 520" transform="translate(-1268 -1640)">
    <g id="그룹_517" data-name="그룹 517">
      <circle id="타원_35" data-name="타원 35" cx="63.5" cy="63.5" r="63.5" transform="translate(1268 1640)" fill="#4b527f"/>
      <g id="그룹_494" data-name="그룹 494" transform="translate(1 -39)">
        <g id="그룹_493" data-name="그룹 493">
          <g id="그룹_54" data-name="그룹 54" transform="translate(1301.115 1705.423)">
            <path id="패스_100" data-name="패스 100" d="M608.577,226.674H581.121a4.658,4.658,0,0,1-4.364-4.9V173.2a4.658,4.658,0,0,1,4.364-4.9h27.455a4.658,4.658,0,0,1,4.364,4.9v36.117H611.1V173.2a2.7,2.7,0,0,0-2.525-2.833H581.121A2.7,2.7,0,0,0,578.6,173.2v48.577a2.7,2.7,0,0,0,2.525,2.833h27.455a2.7,2.7,0,0,0,2.525-2.833V208.324h1.838v13.455A4.658,4.658,0,0,1,608.577,226.674Z" transform="translate(-566.674 -157.251)" fill="#fff"/>
            <path id="패스_101" data-name="패스 101" d="M613.145,230.429h-26.9a.987.987,0,0,1-.919-1.044V190.64a.987.987,0,0,1,.919-1.044h26.9a.987.987,0,0,1,.919,1.044v31.07h-1.838V191.683H587.169v36.658h25.057V220.98h1.838v8.405A.987.987,0,0,1,613.145,230.429Z" transform="translate(-571.571 -170.135)" fill="#fff"/>
            <rect id="사각형_124" data-name="사각형 124" width="12.365" height="2.088" transform="translate(22 15.358)" fill="#fff"/>
            <g id="그룹_53" data-name="그룹 53" transform="translate(0 0)">
              <rect id="사각형_125" data-name="사각형 125" width="2.088" height="6.999" transform="translate(10.128 0.489) rotate(-13.559)" fill="#fff"/>
              <rect id="사각형_126" data-name="사각형 126" width="7" height="2.088" transform="matrix(0.521, -0.853, 0.853, 0.521, 17.643, 7.483)" fill="#fff"/>
              <rect id="사각형_127" data-name="사각형 127" width="6.999" height="2.088" transform="matrix(0.972, -0.234, 0.234, 0.972, 0, 16.798)" fill="#fff"/>
              <rect id="사각형_128" data-name="사각형 128" width="2.087" height="6.998" transform="matrix(0.522, -0.853, 0.853, 0.522, 1.511, 7.662)" fill="#fff"/>
            </g>
          </g>
          <g id="그룹_492" data-name="그룹 492">
            <rect id="사각형_129" data-name="사각형 129" width="2.087" height="6.88" transform="translate(1343.514 1757.312) rotate(-49.288)" fill="#fff"/>
            <path id="패스_102" data-name="패스 102" d="M671.36,281.942a1.046,1.046,0,0,1-.759-.25l-10.936-9.414a1.043,1.043,0,0,1-.11-1.472l3.215-3.735a1.044,1.044,0,0,1,1.472-.11l10.937,9.413a1.043,1.043,0,0,1,.11,1.472l-3.216,3.736A1.042,1.042,0,0,1,671.36,281.942Zm-9.543-10.565,9.354,8.052,1.854-2.154-9.355-8.051Z" transform="translate(687.293 1491.243)" fill="#fff"/>
            <circle id="타원_37" data-name="타원 37" cx="10.083" cy="10.083" r="10.083" transform="translate(1326.477 1739.448)" fill="#4b527f"/>
          </g>
        </g>
        <g id="그룹_55" data-name="그룹 55" transform="translate(1324.445 1737.886)">
          <path id="패스_103" data-name="패스 103" d="M620.076,243.159a11.688,11.688,0,0,1-10.018-4.356,11.243,11.243,0,0,1-2.173-4.313,11.706,11.706,0,1,1,22.958-1.743,11.255,11.255,0,0,1-1.495,4.589A11.685,11.685,0,0,1,620.076,243.159Zm.49-21.19a9.644,9.644,0,0,0-9.825,4.945,9.048,9.048,0,0,0-1.063,3.219,9.645,9.645,0,0,0,4.953,9.827,9.041,9.041,0,0,0,3.22,1.06,9.644,9.644,0,0,0,9.821-4.961,9.052,9.052,0,0,0,1.057-3.219,9.644,9.644,0,0,0-4.948-9.808A9.048,9.048,0,0,0,620.566,221.968Z" transform="translate(-607.503 -219.793)" fill="#fff"/>
        </g>
      </g>
    </g>
  </g>
</svg>
