<svg xmlns="http://www.w3.org/2000/svg" width="127" height="127" viewBox="0 0 127 127">
  <g id="그룹_514" data-name="그룹 514" transform="translate(-973 -1640)">
    <circle id="타원_21" data-name="타원 21" cx="63.5" cy="63.5" r="63.5" transform="translate(973 1640)" fill="#4b527f"/>
    <g id="그룹_495" data-name="그룹 495" transform="translate(0 -36)">
      <path id="패스_89" data-name="패스 89" d="M207.4,226.308H174.32a4.568,4.568,0,0,1-4.546-4.59V161.475a4.568,4.568,0,0,1,4.546-4.59H207.4a4.568,4.568,0,0,1,4.546,4.59v60.244A4.568,4.568,0,0,1,207.4,226.308ZM174.32,158.925a2.538,2.538,0,0,0-2.525,2.55v60.244a2.538,2.538,0,0,0,2.525,2.55H207.4a2.537,2.537,0,0,0,2.525-2.55V161.475a2.538,2.538,0,0,0-2.525-2.55Z" transform="translate(844.879 1548.538)" fill="#fff"/>
      <path id="패스_90" data-name="패스 90" d="M211.847,225.386H179.262a1.026,1.026,0,0,1-1.041-1.009V180.3a1.026,1.026,0,0,1,1.041-1.009h32.585a1.025,1.025,0,0,1,1.041,1.009v44.075A1.025,1.025,0,0,1,211.847,225.386ZM180.3,223.367h30.5V181.311H180.3Z" transform="translate(840.83 1537.796)" fill="#fff"/>
      <rect id="사각형_121" data-name="사각형 121" width="22.92" height="2.082" transform="translate(1024.012 1742.818) rotate(-45)" fill="#fff"/>
      <rect id="사각형_122" data-name="사각형 122" width="41.686" height="2.082" transform="translate(1022.464 1754.137) rotate(-45)" fill="#fff"/>
      <path id="패스_91" data-name="패스 91" d="M241.237,187.188a16.755,16.755,0,0,0-13.426,25.119l-4.058,11.4,12.121-4.316a16.761,16.761,0,1,0,5.363-32.2Z" transform="translate(817.706 1533.362)" fill="#fff"/>
      <g id="그룹_50" data-name="그룹 50" transform="translate(1052.208 1730.773)">
        <path id="패스_92" data-name="패스 92" d="M244.4,211v-.323c0-2.352,1.237-3.824,3.159-3.824,1.9,0,3.2,1.364,3.2,3.645v.342c0,2.334-1.257,3.842-3.2,3.842C245.638,214.677,244.4,213.294,244.4,211Zm4.434,0v-.539c0-1.149-.486-1.777-1.294-1.777-.736,0-1.2.628-1.2,1.795v.5c0,1.257.449,1.831,1.2,1.831C248.423,212.809,248.835,212.218,248.835,211Zm5.781-2.585.861-1.257a.673.673,0,0,1,.576-.305,1.031,1.031,0,0,1,1.022.88.854.854,0,0,1-.125.431c-.27.431-.576.844-.844,1.257l-6.642,9.82c-.431.647-.933,1.526-1.509,1.526a.962.962,0,0,1-.969-.88.736.736,0,0,1,.143-.431Zm-1.275,8.6v-.305c0-2.37,1.292-3.807,3.214-3.807,1.884,0,3.213,1.329,3.213,3.662v.306c0,2.352-1.311,3.788-3.213,3.788C254.617,220.656,253.342,219.345,253.342,217.011Zm4.452.2v-.647c0-1.256-.484-1.813-1.257-1.813-.789,0-1.22.556-1.22,1.777v.485c0,1.274.4,1.8,1.22,1.8C257.327,218.806,257.739,218.375,257.793,217.209Z" transform="translate(-244.401 -206.849)" fill="#525985"/>
      </g>
      <rect id="사각형_123" data-name="사각형 123" width="9.637" height="2.082" transform="translate(1031.159 1711.681)" fill="#fff"/>
    </g>
  </g>
</svg>
