<svg xmlns="http://www.w3.org/2000/svg" width="127" height="127" viewBox="0 0 127 127">
  <g id="그룹_518" data-name="그룹 518" transform="translate(-1416 -1640)">
    <circle id="타원_36" data-name="타원 36" cx="63.5" cy="63.5" r="63.5" transform="translate(1416 1640)" fill="#4b527f"/>
    <g id="그룹_513" data-name="그룹 513">
      <path id="패스_104" data-name="패스 104" d="M846.578,187.632H779.655a1.278,1.278,0,0,1-1.25-1.3v-12.5a1.278,1.278,0,0,1,1.25-1.3h66.923a1.278,1.278,0,0,1,1.25,1.3v12.5A1.278,1.278,0,0,1,846.578,187.632ZM780.9,185.024h64.424v-9.9H780.9Z" transform="translate(666.672 1506.784)" fill="#fff"/>
      <path id="패스_105" data-name="패스 105" d="M846.645,247.189H782.339a1.277,1.277,0,0,1-1.248-1.3V209.107h2.5V244.58H845.4V209.107h2.5v36.777A1.277,1.277,0,0,1,846.645,247.189Z" transform="translate(665.297 1485.526)" fill="#fff"/>
      <g id="그룹_57" data-name="그룹 57" transform="translate(1466.972 1702.882)">
        <path id="패스_106" data-name="패스 106" d="M837.346,228.991a4.2,4.2,0,0,1-2.84,4.014,4.417,4.417,0,0,1,3.427,4.436c0,3.146-2.794,5.235-6.291,5.235-2.488,0-4.413-1.01-5.305-2.629a1.462,1.462,0,0,1,2.488-1.5,3.347,3.347,0,0,0,2.747,1.385c1.925,0,3.1-1.033,3.1-2.794,0-1.713-1.549-2.605-3.614-2.605h-1.127c-1.456,0-1.526-2.606-.023-2.606h1.1c1.737,0,3.145-.939,3.145-2.629,0-1.456-1.22-2.089-2.512-2.089a3.205,3.205,0,0,0-2.535,1.15,1.393,1.393,0,0,1-2.441-1.268c.7-1.456,2.606-2.582,5.07-2.582C834.881,224.508,837.346,226.128,837.346,228.991Z" transform="translate(-826.179 -224.508)" fill="#fff"/>
        <path id="패스_107" data-name="패스 107" d="M865.348,226.387v15.046a1.374,1.374,0,0,1-1.549,1.314c-.822,0-1.6-.423-1.6-1.314V228.194l-2.3,1.291c-1.573.939-2.794-1.6-1.385-2.417l3-1.761a4.2,4.2,0,0,1,2.112-.751C864.831,224.556,865.348,225.283,865.348,226.387Z" transform="translate(-842.42 -224.533)" fill="#fff"/>
      </g>
      <rect id="사각형_131" data-name="사각형 131" width="2.608" height="9.378" transform="translate(1453.878 1674.538)" fill="#fff"/>
      <rect id="사각형_132" data-name="사각형 132" width="2.608" height="9.378" transform="translate(1503.091 1674.538)" fill="#fff"/>
      <path id="패스_109" data-name="패스 109" d="M894.109,271.094a1.305,1.305,0,0,1-1.3-1.3V257.1a1.3,1.3,0,0,1,1.3-1.3H906.8a1.3,1.3,0,0,1,.922,2.226l-12.691,12.692A1.3,1.3,0,0,1,894.109,271.094Zm1.3-12.692v8.239l8.239-8.239Z" transform="translate(605.084 1461.621)" fill="#fff"/>
    </g>
  </g>
</svg>
