<svg xmlns="http://www.w3.org/2000/svg" viewBox="0 0 77.56 50.11"><defs><style>.cls-1{fill:#fff;}</style></defs><g id="레이어_2" data-name="레이어 2"><g id="Layer_1" data-name="Layer 1"><path class="cls-1" d="M52.51,50.11A25.06,25.06,0,1,1,77.56,25.05,25.09,25.09,0,0,1,52.51,50.11ZM52.51,3A22.06,22.06,0,1,0,74.56,25.05,22.08,22.08,0,0,0,52.51,3Z"/><path class="cls-1" d="M52.51,50.11c-8.26,0-14.73-11-14.73-25.06S44.25,0,52.51,0,67.23,11,67.23,25.05,60.76,50.11,52.51,50.11ZM52.51,3C46.15,3,40.78,13.1,40.78,25.05s5.37,22.06,11.73,22.06S64.23,37,64.23,25.05,58.86,3,52.51,3Z"/><rect class="cls-1" x="51.01" y="1.5" width="3" height="47.11"/><rect class="cls-1" x="28.95" y="23.55" width="47.11" height="3"/><path class="cls-1" d="M52.51,16.22c-7.3,0-14.19-1.82-18.93-5l1.68-2.49c4.25,2.86,10.54,4.5,17.25,4.5s13-1.64,17.25-4.5l1.67,2.49C66.7,14.4,59.8,16.22,52.51,16.22Z"/><path class="cls-1" d="M69.76,41.38c-4.25-2.86-10.54-4.49-17.25-4.49s-13,1.63-17.25,4.49l-1.68-2.49c4.74-3.18,11.63-5,18.93-5s14.19,1.82,18.92,5Z"/><path class="cls-1" d="M6.35,31.76l-6.1-6.1a.88.88,0,0,1,0-1.22l6.1-6.09a.64.64,0,0,1,1.1.45V31.3A.64.64,0,0,1,6.35,31.76Z"/></g></g></svg>