<?xml version="1.0" encoding="utf-8"?>
<!-- Generator: Adobe Illustrator 25.2.3, SVG Export Plug-In . SVG Version: 6.00 Build 0)  -->
<svg version="1.1" id="묐迹_1" xmlns="http://www.w3.org/2000/svg" xmlns:xlink="http://www.w3.org/1999/xlink" x="0px" y="0px"
	 viewBox="0 0 122.8 122.8" style="enable-background:new 0 0 122.8 122.8;" xml:space="preserve">
<style type="text/css">
	.st0{fill:#CCCCCC;}
</style>
<path class="st0" d="M61.4,3c32.2,0,58.4,26.2,58.4,58.4s-26.2,58.4-58.4,58.4S3,93.6,3,61.4S29.2,3,61.4,3 M61.4,0
	C27.5,0,0,27.5,0,61.4s27.5,61.4,61.4,61.4s61.4-27.5,61.4-61.4S95.3,0,61.4,0L61.4,0z"/>
<g>
	<path class="st0" d="M93.1,28.8L20.3,56.9c-2.4,0.9-2.3,4.3,0.1,5.1l18.4,6.1l8,24.8c0,0,0,0,0,0c0,0,0,0,0,0c0,0,0,0,0,0.1
		c0.2,0.5,0.9,0.6,1.3,0.2l12.5-11.8l19.5,14.3c1.6,1.2,3.9,0.3,4.3-1.7l12.2-62.2C97.2,29.7,95.1,28,93.1,28.8z M48.7,72.4
		l-1.3,15.7l-6.2-19.2l36.5-23.2L48.7,72.4z"/>
</g>
</svg>
