<svg xmlns="http://www.w3.org/2000/svg" width="48.054" height="48" viewBox="0 0 48.054 48">
  <g id="그룹_330" data-name="그룹 330" transform="translate(0 9)">
    <g id="그룹_115" data-name="그룹 115" transform="translate(0 5.795)">
      <g id="그룹_113" data-name="그룹 113" transform="translate(0 0.001)">
        <path id="패스_272" data-name="패스 272" d="M214.98,457.14a.762.762,0,0,0-.047-.188l-.024-.047a.666.666,0,0,0-.055-.093.717.717,0,0,0-.166-.178c-.024-.018-.047-.034-.071-.049a.555.555,0,0,0-.111-.057.1.1,0,0,0-.029-.013l-20.924-7.863-.063-.023s-.005,0-.005,0a.665.665,0,0,0-.066-.021.934.934,0,0,0-.205-.026l-.05,0a.147.147,0,0,0-.047,0,.57.57,0,0,0-.092.015h-.005a.824.824,0,0,0-.158.059.791.791,0,0,0-.361.348.246.246,0,0,0-.029.067.5.5,0,0,0-.032.088l-1.675,6.364L187.608,467.5a3.968,3.968,0,0,0-2.163-1.386,4.081,4.081,0,0,0-3.058.423,3.94,3.94,0,0,0-1.175,1.025,3.864,3.864,0,0,0-.682,1.389,3.956,3.956,0,0,0,2.9,4.82,4.066,4.066,0,0,0,4.921-2.84l3.738-14.188,19.491,7.324-2.982,11.315a4,4,0,0,0-2.16-1.381,4.1,4.1,0,0,0-3.061.418,3.994,3.994,0,0,0-1.175,1.03,3.906,3.906,0,0,0-.682,1.389,3.954,3.954,0,0,0,2.9,4.82,4.109,4.109,0,0,0,1.009.126,4.028,4.028,0,0,0,3.907-2.969l3.957-15.017,1.678-6.363a.809.809,0,0,0,.026-.176v-.021A.593.593,0,0,0,214.98,457.14Zm-28.173,13.4a2.458,2.458,0,0,1-2.982,1.722,2.412,2.412,0,0,1-1.839-2.321,2.4,2.4,0,0,1,1.206-2.073,2.486,2.486,0,0,1,1.238-.333,2.431,2.431,0,0,1,.619.083,2.4,2.4,0,0,1,1.5,1.1A2.345,2.345,0,0,1,186.807,470.544Zm20.984,7.884a2.454,2.454,0,0,1-2.982,1.722,2.379,2.379,0,0,1-.632-4.386,2.465,2.465,0,0,1,1.855-.261,2.415,2.415,0,0,1,1.5,1.1A2.338,2.338,0,0,1,207.792,478.428Zm4.183-15.876-19.493-7.324,1.272-4.835h0l19.491,7.329Z" transform="translate(-180.402 -448.58)" fill="#062031"/>
      </g>
      <g id="그룹_114" data-name="그룹 114" transform="translate(12.08 0)">
        <path id="패스_273" data-name="패스 273" d="M229.244,448.6a.917.917,0,0,0-.205-.026.618.618,0,0,1,.195.021A.02.02,0,0,1,229.244,448.6Z" transform="translate(-228.307 -448.575)" fill="#1a1819"/>
        <path id="패스_274" data-name="패스 274" d="M227.534,455.6l-1.275,4.934,1.272-4.934Z" transform="translate(-226.259 -453.749)" fill="#1a1819"/>
      </g>
    </g>
    <g id="그룹_117" data-name="그룹 117" transform="translate(29.512 -9)">
      <g id="그룹_116" data-name="그룹 116">
        <path id="패스_275" data-name="패스 275" d="M309.56,443.394a4.365,4.365,0,0,0-2.8,1.012V427.57a.794.794,0,0,0-1.278-.627l-9.77,7.529a.784.784,0,0,0-.229.972.8.8,0,0,0,.714.448.837.837,0,0,0,.195-.024l8.78-2.257V447.78a4.386,4.386,0,1,0,4.389-4.386Zm-9.818-10.028,5.429-4.183v2.787Zm9.818,17.215a2.8,2.8,0,1,1,2.8-2.8A2.8,2.8,0,0,1,309.56,450.58Z" transform="translate(-295.401 -426.78)" fill="#00275c"/>
      </g>
    </g>
  </g>
</svg>
