<svg xmlns="http://www.w3.org/2000/svg" width="216" height="216" viewBox="0 0 216 216">
  <g id="그룹_455" data-name="그룹 455" transform="translate(-71 -3151)">
    <circle id="타원_61" data-name="타원 61" cx="108" cy="108" r="108" transform="translate(71 3151)" fill="#7ccbfa"/>
    <ellipse id="타원_57" data-name="타원 57" cx="96.408" cy="96.408" rx="96.408" ry="96.408" transform="translate(83 3163)" fill="#fff"/>
    <g id="그룹_347" data-name="그룹 347" transform="translate(-439.886 3130.161)">
      <path id="패스_159" data-name="패스 159" d="M647.232,131.357a3.171,3.171,0,0,1-2.692,4.854h-3.329v7.811a7.906,7.906,0,0,1-7.9,7.9h-7.386V160.2h14.123a1.32,1.32,0,0,1,0,2.639H592.212a1.32,1.32,0,1,1,0-2.639h4.734a8.248,8.248,0,0,0,2.4-4.482,34.151,34.151,0,0,0-4.257-22.57,25.508,25.508,0,0,1-3.235-13.937,21.256,21.256,0,0,1,.411-3.368,26.751,26.751,0,0,1,8.487-14.892A25.552,25.552,0,0,1,623.8,95.659,24.926,24.926,0,0,1,641.238,111.2a27.072,27.072,0,0,1,1.711,9.429,10.365,10.365,0,0,0,1.167,4.814Zm-2.215,1.936a.534.534,0,0,0-.026-.544.461.461,0,0,1-.066-.106l-3.143-5.968a12.977,12.977,0,0,1-1.472-6.007,24.144,24.144,0,0,0-1.088-7.148c-.133-.464-.292-.928-.464-1.393a22.313,22.313,0,0,0-15.622-13.911,22.912,22.912,0,0,0-20.661,4.734,24.181,24.181,0,0,0-7.638,13.46,14.288,14.288,0,0,0-.265,1.79c-.039.4-.066.782-.079,1.14a22.794,22.794,0,0,0,2.9,12.505,36.82,36.82,0,0,1,4.549,24.32,10.636,10.636,0,0,1-1.591,4.031h22.928v-8.275h-5.357a1.32,1.32,0,0,1,0-2.639h15.383a5.269,5.269,0,0,0,5.265-5.264v-9.137a1.319,1.319,0,0,1,1.326-1.313h4.641A.536.536,0,0,0,645.017,133.293Z" transform="translate(0 0)" fill="#082133"/>
      <path id="패스_160" data-name="패스 160" d="M646.994,124.174a5.306,5.306,0,0,1,.349,1.921,5.422,5.422,0,0,1-5.412,5.412,5.214,5.214,0,0,1-1.584-.242,5.4,5.4,0,0,1-7.951,2.1,5.386,5.386,0,0,1-7.655,1.128A6.7,6.7,0,0,1,614.131,134a5.3,5.3,0,0,1-1.839.322,5.428,5.428,0,0,1-5.426-5.426c0-.148,0-.282.013-.43a5.475,5.475,0,0,1,3.545-4.66,5.432,5.432,0,0,1,4.123-7.145,7.727,7.727,0,0,1,12.624-3.371,6.239,6.239,0,0,1,10.126,2.552,5.436,5.436,0,0,1,5.452,4.888A5.432,5.432,0,0,1,646.994,124.174Zm-2.323,1.921a2.746,2.746,0,0,0-2.74-2.753,1.32,1.32,0,0,0-.322.04,1.416,1.416,0,0,1-1.182-.4,1.333,1.333,0,0,1-.376-1.182,2.5,2.5,0,0,0,.054-.537,2.754,2.754,0,0,0-2.753-2.74,3.258,3.258,0,0,0-.725.108,1.329,1.329,0,0,1-1.1-.175,1.31,1.31,0,0,1-.577-.953,3.6,3.6,0,0,0-3.559-3.183,3.556,3.556,0,0,0-3.048,1.746c-.013.013-.027.013-.04.027v.026a2.949,2.949,0,0,0-.416,2.3,1.338,1.338,0,0,1-.819,1.705,1.268,1.268,0,0,1-.443.067,1.321,1.321,0,0,1-1.262-.9,5.285,5.285,0,0,1,.242-3.774,5.034,5.034,0,0,0-8.649,2.632,1.31,1.31,0,0,1-1.356,1.114h-.121a2.74,2.74,0,0,0-2.686,2.74,2.769,2.769,0,0,0,.779,1.92,1.337,1.337,0,0,1-1.047,2.27c-.081-.013-.148-.013-.215-.027a2.746,2.746,0,1,0-.013,5.493,2.675,2.675,0,0,0,1.155-.3,5.491,5.491,0,0,1,1.679-3.277,1.33,1.33,0,0,1,1.88.228,1.316,1.316,0,0,1-.228,1.867,3.658,3.658,0,0,0-.725,1.813,4,4,0,0,0,7.252-.242,1.37,1.37,0,0,1,1.141-.806,1.35,1.35,0,0,1,1.236.644,2.559,2.559,0,1,0,4.015-2.82,1.341,1.341,0,1,1,1.491-2.229,5.328,5.328,0,0,1,2.135,4.015,2.7,2.7,0,0,0,4.861-1.329,1.347,1.347,0,0,1,.806-1.074,1.324,1.324,0,0,1,1.316.148,2.771,2.771,0,0,0,1.625.537A2.742,2.742,0,0,0,644.671,126.095Z" transform="translate(-9.466 -9.717)" fill="#00275c"/>
      <path id="패스_161" data-name="패스 161" d="M669.985,137.086a1.336,1.336,0,0,1-1.088,1.544,1.493,1.493,0,0,1-.228.027,1.327,1.327,0,0,1-1.316-1.1c-.067-.336-.188-.416-.242-.457a1.768,1.768,0,0,0-1.088-.134,1.337,1.337,0,0,1-.537-2.618,4.355,4.355,0,0,1,3.116.537A3.263,3.263,0,0,1,669.985,137.086Z" transform="translate(-43.981 -23.57)" fill="#00275c"/>
      <path id="패스_162" data-name="패스 162" d="M640,138.5a1.321,1.321,0,0,1-.792,1.692,4.743,4.743,0,0,1-1.558.269,3.573,3.573,0,0,1-1.612-.349,3.2,3.2,0,0,1-1.665-1.974,1.331,1.331,0,1,1,2.525-.846c.108.322.242.39.309.416a1.7,1.7,0,0,0,1.1-.026A1.334,1.334,0,0,1,640,138.5Z" transform="translate(-25.963 -24.828)" fill="#00275c"/>
    </g>
  </g>
</svg>
