<svg id="그룹_316" data-name="그룹 316" xmlns="http://www.w3.org/2000/svg" width="46.4" height="48" viewBox="0 0 46.4 48">
  <g id="그룹_96" data-name="그룹 96" transform="translate(5.583 27.214)">
    <path id="패스_254" data-name="패스 254" d="M473.172,261.823l-1.669-1.669-.244-.244v2.861l2.023,2.026v-2.864Zm-1.666-9.873a1,1,0,0,0-.247-.18v2.791l2.023,2.026v-2.861Z" transform="translate(-471.259 -251.77)" fill="#1a1819"/>
  </g>
  <g id="그룹_97" data-name="그룹 97" transform="translate(11.778 1.009)">
    <path id="패스_255" data-name="패스 255" d="M492.384,162.221v0Z" transform="translate(-492.384 -162.221)" fill="#fff"/>
  </g>
  <g id="그룹_98" data-name="그룹 98" transform="translate(40.475 1.009)">
    <path id="패스_256" data-name="패스 256" d="M590.549,162.221v0Z" transform="translate(-590.549 -162.221)" fill="#fff"/>
  </g>
  <g id="그룹_99" data-name="그룹 99" transform="translate(19.563 25.008)">
    <path id="패스_257" data-name="패스 257" d="M523.79,244.36l-1.009,1.009-1.015,1.015h-2.858l.721-.724,1.3-1.3Z" transform="translate(-518.909 -244.36)" fill="#1a1819"/>
    <path id="패스_258" data-name="패스 258" d="M554.763,244.36l-.163.163-.552.552-.294.294-.721.721v.294h-3.154l1.015-1.015,1.009-1.009Z" transform="translate(-540.875 -244.36)" fill="#1a1819"/>
  </g>
  <g id="그룹_100" data-name="그룹 100" transform="translate(5.583 35.244)">
    <path id="패스_259" data-name="패스 259" d="M473.172,282.279h-.9a1.01,1.01,0,0,1-.768-1.669Z" transform="translate(-471.259 -280.258)" fill="#1a1819"/>
    <path id="패스_260" data-name="패스 260" d="M492.583,279.4l-.942.942c-.023.023-.049.047-.073.067a1.024,1.024,0,0,1-1.285,0c-.023-.02-.049-.044-.073-.067l-.942-.942Z" transform="translate(-484.033 -279.4)" fill="#1a1819"/>
    <path id="패스_261" data-name="패스 261" d="M519.737,279.4l-2.021,2.021h-2.858l.887-.887.125-.125.887-.887.122-.122Z" transform="translate(-502.183 -279.4)" fill="#1a1819"/>
  </g>
  <g id="그룹_101" data-name="그룹 101" transform="translate(18.22 26.358)">
    <path id="패스_262" data-name="패스 262" d="M516.452,279.82v2.858l-1.012,1.012-1.012,1.012v-2.858l1.012-1.012.125-.125Z" transform="translate(-514.429 -270.81)" fill="#1a1819"/>
    <path id="패스_263" data-name="패스 263" d="M516.452,248.83v2.864l-1.012,1.012-1.012,1.012v-2.861l1.012-1.012.291-.291Z" transform="translate(-514.429 -248.83)" fill="#1a1819"/>
  </g>
  <g id="그룹_102" data-name="그룹 102" transform="translate(5.583 0)">
    <path id="패스_264" data-name="패스 264" d="M562.753,235.945v.712h-.294l-.163.163-.552.552-.294.294-.721.721V233.5l1.015,1.015.715.715A1.018,1.018,0,0,1,562.753,235.945Z" transform="translate(-534.575 -211.657)" fill="#1a1819"/>
    <path id="패스_265" data-name="패스 265" d="M507.135,164.72v-4.956a1.014,1.014,0,0,0-2.028,0v4.947H478.448v-4.947a1.017,1.017,0,0,0-2.034,0v4.95a5.269,5.269,0,0,0-5.155,5.26v15.944a1,1,0,0,1,.248.181l1.786,1.784v-2.1h10.582v1.308l1.017-1.016.292-.292.725-.727,1.306-1.305h-1.306V176.37h11.5v4.212l1.02,1.019.719.718a1.022,1.022,0,0,1,.3.718V176.37h10.6v7.383h-10.9l-.164.164-.555.555-.3.295-.725.724v8.5h-8.5l-2.031,2.03h10.532v8.7h-11.5v-7.74L484.892,198l-1.017,1.016v5.707H473.293V199l-2.034-2.036v8.768a1.015,1.015,0,0,0,1.017,1.013H511.06a1.017,1.017,0,0,0,1.017-1.013V169.974A5.276,5.276,0,0,0,507.135,164.72Zm2.908,40h-10.6v-8.7h10.6Zm0-10.733h-10.6v-8.2h10.6Zm-26.167-10.234H473.293V176.37h10.582Zm26.167-9.416h-36.75v-4.363a3.234,3.234,0,0,1,3.232-3.227h30.282a3.236,3.236,0,0,1,3.235,3.227Z" transform="translate(-471.259 -158.75)" fill="#062031"/>
  </g>
  <g id="그룹_103" data-name="그룹 103" transform="translate(18.256 25.042)">
    <path id="패스_266" data-name="패스 266" d="M528.9,244.36h-2.146l-1.009,1.009-1.015,1.015h3.154v-.294l.721-.721.294-.294.552-.552A1.019,1.019,0,0,0,528.9,244.36Zm-12.33,10.187-.122.122-.887.887-.125.125-.648.648a1,1,0,0,0,.648.238h1.971l2.021-2.021Zm1.177-10.187-1.3,1.3-.721.724-.291.291-1.012,1.012v2.861l1.012-1.012,1.012-1.012v-2.14h2.137l1.015-1.015,1.009-1.009Z" transform="translate(-514.429 -244.36)" fill="#1a1819"/>
  </g>
  <g id="그룹_104" data-name="그룹 104" transform="translate(0 18.88)">
    <path id="패스_267" data-name="패스 267" d="M472.214,231.191v2.14l2.137-2.14Zm13.167-3.451-.715-.715-1.015-1.015-2.774-2.774a1.014,1.014,0,0,0-1.433,0l-7.23,7.23-.721.724-.291.291-1.012,1.012-5.658,5.658-4.87-4.873-1.776-1.776a1.011,1.011,0,0,0-1.43,0l-4.105,4.1a1.016,1.016,0,0,0,0,1.43l5.288,5.288,2.023,2.026,4.553,4.553a1.042,1.042,0,0,0,.718.294,1.008,1.008,0,0,0,.712-.294l4.544-4.544,1.012-1.012,1.012-1.012,2.98-2.98,8.164-8.164.294-.294.721-.721.294-.294.552-.552.163-.163a1.006,1.006,0,0,0,.294-.712A1.018,1.018,0,0,0,485.381,227.74Zm-13.045,11.615-.122.122-.887.887-.125.125-6.268,6.268-5.271-5.271-.11-.11-1.669-1.669-.244-.244-3.143-3.143,2.675-2.675.468.468,2.023,2.026,3.213,3.215.942.942c.023.023.049.047.073.067a1.024,1.024,0,0,0,1.285,0c.023-.02.049-.044.073-.067l5.954-5.954,1.012-1.012,2.137-2.14,1.015-1.015,1.009-1.009,3.785-3.785,3.076,3.07-.715.715-1.009,1.009-1.015,1.015Z" transform="translate(-452.056 -222.94)" fill="#00275c"/>
    <path id="패스_268" data-name="패스 268" d="M489.188,234.41l-.715.715-1.009,1.009-1.015,1.015-8.161,8.164-.122.122-.887.887-.125.125-6.268,6.268-5.271-5.271-.111-.11-1.669-1.669-.244-.244-3.143-3.143,2.675-2.675.468.468,2.024,2.026,3.212,3.215.942.942c.023.023.049.046.073.067a1.024,1.024,0,0,0,1.285,0c.023-.02.049-.044.073-.067l5.954-5.954,1.012-1.012,2.137-2.14,1.015-1.015,1.009-1.009,3.785-3.785Z" transform="translate(-458.009 -228.898)" fill="none"/>
  </g>
</svg>
