<svg xmlns="http://www.w3.org/2000/svg" width="216" height="216" viewBox="0 0 216 216">
  <g id="그룹_454" data-name="그룹 454" transform="translate(-72 -2741)">
    <circle id="타원_61" data-name="타원 61" cx="108" cy="108" r="108" transform="translate(72 2741)" fill="#048aef"/>
    <ellipse id="타원_57" data-name="타원 57" cx="96.408" cy="96.408" rx="96.408" ry="96.408" transform="translate(84 2752.487)" fill="#fff"/>
    <g id="그룹_348" data-name="그룹 348" transform="translate(32.1 2723.19)">
      <path id="패스_163" data-name="패스 163" d="M264.013,200.615a1.287,1.287,0,0,1,0,2.575h-5.848a1.287,1.287,0,0,1,0-2.575Z" transform="translate(-85.564 -65.432)" fill="#00275c"/>
      <path id="패스_164" data-name="패스 164" d="M259.734,176.158a1.279,1.279,0,0,1-.181,1.811L255.71,181.1a1.279,1.279,0,0,1-.815.285,1.293,1.293,0,0,1-.815-2.29l3.843-3.118A1.277,1.277,0,0,1,259.734,176.158Z" transform="translate(-83.574 -50.297)" fill="#00275c"/>
      <path id="패스_165" data-name="패스 165" d="M259.552,221a1.293,1.293,0,0,1-.815,2.29,1.3,1.3,0,0,1-.815-.284l-3.843-3.131a1.287,1.287,0,0,1,1.63-1.993Z" transform="translate(-83.574 -75.733)" fill="#00275c"/>
      <path id="패스_166" data-name="패스 166" d="M166.54,188.028a1.287,1.287,0,1,1,0,2.575H118.19a1.287,1.287,0,0,1,0-2.575h4.024V167.793a4.319,4.319,0,0,1-2.1.414,4.551,4.551,0,0,1-4.218-4.619V149.576a7.62,7.62,0,0,1,7.608-7.608h21.284a1.3,1.3,0,0,1,1.294,1.294,1.589,1.589,0,0,1-.026.259,1.293,1.293,0,0,1-1.268,1.022H123.508a5.047,5.047,0,0,0-5.033,5.033v14.012a2,2,0,0,0,1.773,2.044,1.89,1.89,0,0,0,1.384-.518,1.848,1.848,0,0,0,.582-1.359V150.43a1.287,1.287,0,1,1,2.574,0v37.6h3.817V168.22a1.287,1.287,0,0,1,2.575,0v19.808h3.842V150.042a1.287,1.287,0,0,1,1.294-1.281h9.924a1.282,1.282,0,0,1,1.177.776,1.291,1.291,0,0,1-1.177,1.8H137.6v36.693Z" transform="translate(0 -29.793)" fill="#082133"/>
      <path id="패스_167" data-name="패스 167" d="M216.77,133.383a9.8,9.8,0,0,1-5.822,8.966v7.543h2.536a1.286,1.286,0,0,1,1.294,1.281v4.5a1.286,1.286,0,0,1-1.294,1.281h-2.536v1.63h2.536a1.286,1.286,0,0,1,1.294,1.281v4.5a1.3,1.3,0,0,1-1.294,1.294h-2.536v2.873a1.3,1.3,0,0,1-1.294,1.294h-5.408a1.3,1.3,0,0,1-1.294-1.294V142.349a9.846,9.846,0,0,1-5.835-8.966,8.489,8.489,0,0,1,.051-1,9.826,9.826,0,0,1,19.6,1Zm-7.517,6.87a7.258,7.258,0,1,0-4.606,0,1.266,1.266,0,0,1,.88,1.216v25.773h2.846V164.37a1.276,1.276,0,0,1,1.281-1.281H212.2v-1.928h-2.549a1.287,1.287,0,0,1-1.281-1.294v-4.192a1.287,1.287,0,0,1,1.281-1.294H212.2v-1.915h-2.549a1.287,1.287,0,0,1-1.281-1.294v-9.7A1.266,1.266,0,0,1,209.253,140.253Z" transform="translate(-49.282 -18.607)" fill="#082133"/>
      <path id="패스_168" data-name="패스 168" d="M215.294,137.289a4.431,4.431,0,1,1-4.438,4.438A4.445,4.445,0,0,1,215.294,137.289Zm1.85,4.438a1.857,1.857,0,1,0-1.85,1.85A1.861,1.861,0,0,0,217.144,141.727Z" transform="translate(-57.629 -26.994)" fill="#082133"/>
      <path id="패스_169" data-name="패스 169" d="M191.542,179.095a1.293,1.293,0,0,1-.815,2.29,1.279,1.279,0,0,1-.815-.285l-3.842-3.131a1.287,1.287,0,0,1,1.63-1.993Z" transform="translate(-42.298 -50.297)" fill="#00275c"/>
      <path id="패스_170" data-name="패스 170" d="M191.723,218.067a1.291,1.291,0,0,1-.181,1.811L187.7,223.01a1.3,1.3,0,0,1-.815.284,1.293,1.293,0,0,1-.815-2.29l3.842-3.118A1.279,1.279,0,0,1,191.723,218.067Z" transform="translate(-42.298 -75.733)" fill="#00275c"/>
      <path id="패스_171" data-name="패스 171" d="M184.378,200.615a1.287,1.287,0,0,1,0,2.575H178.53a1.287,1.287,0,0,1,0-2.575Z" transform="translate(-37.233 -65.432)" fill="#00275c"/>
      <path id="패스_172" data-name="패스 172" d="M140.011,92.81a7.811,7.811,0,1,1-7.439,7.8A7.643,7.643,0,0,1,140.011,92.81Zm4.878,7.8a4.883,4.883,0,1,0-4.878,5.227A5.064,5.064,0,0,0,144.889,100.612Z" transform="translate(-10.125)" fill="#082133"/>
    </g>
  </g>
</svg>
