<svg id="그룹_327" data-name="그룹 327" xmlns="http://www.w3.org/2000/svg" width="43.816" height="48" viewBox="0 0 43.816 48">
  <g id="그룹_107" data-name="그룹 107" transform="translate(0 11.905)">
    <g id="그룹_106" data-name="그룹 106">
      <path id="패스_269" data-name="패스 269" d="M733.257,233.075H721.306a.848.848,0,0,1-.85-.85V209.049h-3.2a.854.854,0,0,1-.853-.853V197.83a.852.852,0,0,1,.853-.85h14a.853.853,0,0,0-.85.85v.85H718.1v8.665h12.3v.85a.855.855,0,0,0,.85.853h1.158v.079H722.16v22.246h10.25v.85A.847.847,0,0,0,733.257,233.075Z" transform="translate(-716.399 -196.98)" fill="#062031"/>
    </g>
  </g>
  <g id="그룹_109" data-name="그룹 109" transform="translate(26.958 11.905)">
    <g id="그룹_108" data-name="그룹 108">
      <path id="패스_270" data-name="패스 270" d="M826.607,197.83V208.2a.851.851,0,0,1-.845.853h-3.209v23.175a.85.85,0,0,1-.851.85H809.749a.848.848,0,0,0,.85-.85v-.85h10.253V209.129H810.6v-.079h1.156a.857.857,0,0,0,.856-.853v-.85h12.3v-8.665h-12.3v-.85a.854.854,0,0,0-.856-.85h14.008A.848.848,0,0,1,826.607,197.83Z" transform="translate(-809.749 -196.98)" fill="#062031"/>
    </g>
  </g>
  <g id="그룹_111" data-name="그룹 111" transform="translate(12.973 0)">
    <g id="그룹_110" data-name="그룹 110">
      <path id="패스_271" data-name="패스 271" d="M780.14,162.406c-.249-1.724-.9-2.709-1.944-2.926-1.2-.252-2.619.624-4.458,2.76a44.685,44.685,0,0,0-3.518,4.856,51.433,51.433,0,0,0-2.481-6.027c-1.353-2.672-2.562-3.931-3.791-3.96-1.006-.026-1.817.742-2.393,2.271-1.506,4,2.7,7.37,5.6,9.146h-3.729a.859.859,0,0,0-.85.862v10.506a.861.861,0,0,0,.85.865h1.158v23.489a.853.853,0,0,0,.848.862h9.515a.853.853,0,0,0,.85-.862V180.757h1.156a.862.862,0,0,0,.856-.865V169.387a.86.86,0,0,0-.856-.862h-1.277a8.692,8.692,0,0,0,3.515-2.471A4.676,4.676,0,0,0,780.14,162.406Zm-14.186,3.2c-2.512-2-3.458-3.883-2.808-5.607.359-.948.678-1.165.763-1.165h.006c.017.006,1.624.143,4.58,8.493A20.461,20.461,0,0,1,765.954,165.6Zm8.14,37.783h-7.809V180.838h7.809Zm2.009-33.135v8.782H764.273v-8.782Zm1.743-5.26c-1.311,1.7-4.221,2.546-6.128,2.938,3.433-5.335,5.4-6.766,6.06-6.766a.216.216,0,0,1,.076.009c.147.026.441.378.6,1.486A2.948,2.948,0,0,1,777.846,164.989Z" transform="translate(-761.239 -157.108)" fill="#00275c"/>
    </g>
  </g>
</svg>
