<svg xmlns="http://www.w3.org/2000/svg" width="372" height="222" viewBox="0 0 372 222">
  <defs>
    <style>
      .cls-1 {
        fill: #fff;
        stroke: #707070;
      }

      .cls-2, .cls-3 {
        fill: #333;
      }

      .cls-2 {
        font-size: 24px;
        font-family: MalgunGothicBold, Malgun Gothic;
        letter-spacing: -0.05em;
      }

      .cls-3 {
        font-size: 16px;
        font-family: MalgunGothic, Malgun Gothic;
        letter-spacing: -0.08em;
      }

      .cls-4 {
        font-family: SegoeUI, Segoe UI;
      }

      .cls-5 {
        fill: #062031;
      }

      .cls-6 {
        fill: #00275c;
      }

      .cls-7 {
        fill: none;
      }

      .cls-8 {
        stroke: none;
      }
    </style>
  </defs>
  <g id="그룹_232" data-name="그룹 232" transform="translate(-774 -1244)">
    <g id="사각형_89" data-name="사각형 89" class="cls-1" transform="translate(774 1244)">
      <rect class="cls-8" width="372" height="222"/>
      <rect class="cls-7" x="0.5" y="0.5" width="371" height="221"/>
    </g>
    <text id="편의시설" class="cls-2" transform="translate(972 1333)"><tspan x="0" y="0">편의시설</tspan></text>
    <text id="음료제공_커피머신_아이스크림" data-name="음료제공, 커피머신
아이스크림" class="cls-3" transform="translate(972 1364)"><tspan x="0" y="0">음료제공</tspan><tspan class="cls-4" y="0">, </tspan><tspan y="0">커피머신</tspan><tspan class="cls-4" y="0"></tspan><tspan x="0" y="28">아이스크림</tspan></text>
    <g id="그룹_122" data-name="그룹 122" transform="translate(381.841 913.48)">
      <g id="그룹_119" data-name="그룹 119" transform="translate(483.869 438.451)">
        <path id="패스_276" data-name="패스 276" class="cls-5" d="M517.229,493.456l-1.739,4.519-3.371,3.442-4.362-4.451,2.954-3.013a9.569,9.569,0,0,1-2.049-.808l-2.323,2.372-2.687-2.743a9.722,9.722,0,0,1-1.926.937l3.187,3.258-4.359,4.447-3.367-3.439-1.579-4.093a9.742,9.742,0,0,1-2.63-1.223l2.383,6.179a.725.725,0,0,0,.04.109l2.35,6.093a.243.243,0,0,0,.017.044l.033.085a.049.049,0,0,0,.007.02l3.207,8.319a.261.261,0,0,0,.013.037l.03.082c0,.007,0,.01,0,.01l4.342,11.267a.994.994,0,0,0,1.866,0l4.319-11.212c0-.01.007-.017.01-.027l.063-.157a.012.012,0,0,1,0-.007l3.207-8.332.04-.1.01-.031,2.32-6.018c0-.007.007-.017.01-.024l.063-.16a.026.026,0,0,0,0-.014l2.827-7.337A9.95,9.95,0,0,1,517.229,493.456Zm-10.893,4.965,4.359,4.451-4.355,4.444-4.362-4.447Zm-7.246,4.492-.06-.15.1.106Zm.8,2.086.664-.678,4.359,4.451-2.563,2.614Zm6.448,16.733-3.184-8.261,3.181-3.248,3.184,3.251Zm3.985-10.346-2.563-2.617,4.355-4.444.667.678Zm3.264-8.469-.047-.048.1-.106Z" transform="translate(-492.979 -491.49)"/>
      </g>
      <g id="그룹_120" data-name="그룹 120" transform="translate(481.211 423.549)">
        <path id="패스_277" data-name="패스 277" class="cls-6" d="M530.629,488.85c.1.116.194.228.3.341.1-.112.2-.225.293-.341Z" transform="translate(-515.14 -474.114)"/>
        <path id="패스_278" data-name="패스 278" class="cls-7" d="M501.568,453.806a8.19,8.19,0,0,1-.058.964,8.032,8.032,0,0,1-.549,2.127,8.233,8.233,0,0,1-.736,1.394q-.24.363-.511.7a8.217,8.217,0,0,1-1.414,1.36,7.79,7.79,0,0,1-1.07.682,7.984,7.984,0,0,1-2.12.78,8.162,8.162,0,0,1-5.62-.794,8.194,8.194,0,0,1,3.885-15.4,7.859,7.859,0,0,1,1.1.075,8.219,8.219,0,0,1,6.485,5.027,8.086,8.086,0,0,1,.532,1.99A7.873,7.873,0,0,1,501.568,453.806Z" transform="translate(-485.179 -445.61)"/>
      </g>
      <g id="그룹_121" data-name="그룹 121" transform="translate(479.159 412.52)">
        <path id="패스_279" data-name="패스 279" class="cls-6" d="M530.629,488.85c.1.116.194.228.3.341.1-.112.2-.225.293-.341Z" transform="translate(-513.375 -462.837)"/>
        <path id="패스_280" data-name="패스 280" class="cls-6" d="M508.391,422.689a10.072,10.072,0,0,0-20.112-.9,10.287,10.287,0,0,0-4.486,18.815,9.937,9.937,0,0,0,10.723.112,10.4,10.4,0,0,0,2.193-1.844c-.1-.112-.2-.225-.292-.341H497c-.094.116-.191.228-.288.341a10.113,10.113,0,0,0,2.84,2.215,9.64,9.64,0,0,0,2.059.808,9.92,9.92,0,0,0,6.549-.5,10,10,0,0,0,2.931-1.966,10.319,10.319,0,0,0-2.7-16.743Zm-11.146,10.268a8.141,8.141,0,0,1-.54,2.127,8.283,8.283,0,0,1-.724,1.394q-.236.363-.5.7a8.145,8.145,0,0,1-1.392,1.36,7.647,7.647,0,0,1-1.053.682,7.951,7.951,0,0,1-3.792.968,7.893,7.893,0,0,1-3.823-.982,8.108,8.108,0,0,1-2.589-2.249,8.226,8.226,0,0,1,5.462-13.1,7.931,7.931,0,0,1,.949-.058,7.61,7.61,0,0,1,1.083.075,8.023,8.023,0,0,1,5.154,2.934,8.224,8.224,0,0,1,1.75,4.083,8,8,0,0,1,.074,1.1A8.324,8.324,0,0,1,497.246,432.957Zm-.536-7.852a10.015,10.015,0,0,0-6.4-3.306,8.048,8.048,0,0,1,16.028.184,9.661,9.661,0,0,0-2.166-.242A9.982,9.982,0,0,0,496.709,425.105ZM510.9,436.491a8.215,8.215,0,0,1-1.884,2.041,7.963,7.963,0,0,1-4.849,1.649q-.423,0-.835-.041a7.937,7.937,0,0,1-2.273-.593,8.074,8.074,0,0,1-3.128-2.372c.134-.228.258-.46.372-.7a10.193,10.193,0,0,0,.972-3.507c.03-.32.047-.647.047-.978a9.711,9.711,0,0,0-.06-1.087,10.186,10.186,0,0,0-1.331-4.1,8.006,8.006,0,0,1,6.237-3.006,7.885,7.885,0,0,1,2.1.283,7.708,7.708,0,0,1,1.908.808,8.256,8.256,0,0,1,2.726,11.6Z" transform="translate(-479.159 -412.52)"/>
        <path id="패스_281" data-name="패스 281" class="cls-7" d="M549.684,453.806a8.122,8.122,0,0,1-1.353,4.5,8.266,8.266,0,0,1-1.915,2.041A8.179,8.179,0,0,1,541.488,462q-.429,0-.849-.041a8.173,8.173,0,0,1-2.311-.593,8.194,8.194,0,0,1-3.18-2.372c.136-.228.262-.46.378-.7a10.067,10.067,0,0,0,.988-3.507c.031-.32.048-.647.048-.978a9.553,9.553,0,0,0-.061-1.087,10.074,10.074,0,0,0-1.353-4.1,8.186,8.186,0,0,1,8.472-2.723,7.9,7.9,0,0,1,1.939.808A8.184,8.184,0,0,1,549.684,453.806Z" transform="translate(-516.642 -434.333)"/>
      </g>
    </g>
  </g>
</svg>
