<svg xmlns="http://www.w3.org/2000/svg" xmlns:xlink="http://www.w3.org/1999/xlink" width="1164" height="292.997" viewBox="0 0 1164 292.997">
  <defs>
    <style>
      .cls-1 {
        fill: #003d92;
      }

      .cls-2 {
        fill: #005cd3;
      }

      .cls-3 {
        fill: #048aef;
      }

      .cls-4 {
        fill: #7ccbfa;
      }

      .cls-18, .cls-5 {
        fill: #fff;
      }

      .cls-5 {
        opacity: 0;
      }

      .cls-10, .cls-11, .cls-12, .cls-13, .cls-14, .cls-15, .cls-16, .cls-5, .cls-6, .cls-7, .cls-8, .cls-9 {
        mix-blend-mode: multiply;
        isolation: isolate;
      }

      .cls-6 {
        opacity: 0.091;
        fill: url(#linear-gradient);
      }

      .cls-7 {
        opacity: 0.182;
        fill: url(#linear-gradient-2);
      }

      .cls-8 {
        opacity: 0.273;
        fill: url(#linear-gradient-3);
      }

      .cls-9 {
        opacity: 0.364;
        fill: url(#linear-gradient-4);
      }

      .cls-10 {
        opacity: 0.455;
        fill: url(#linear-gradient-5);
      }

      .cls-11 {
        opacity: 0.545;
        fill: url(#linear-gradient-6);
      }

      .cls-12 {
        opacity: 0.636;
        fill: url(#linear-gradient-7);
      }

      .cls-13 {
        opacity: 0.727;
        fill: url(#linear-gradient-8);
      }

      .cls-14 {
        opacity: 0.818;
        fill: url(#linear-gradient-9);
      }

      .cls-15 {
        opacity: 0.909;
        fill: url(#linear-gradient-10);
      }

      .cls-16 {
        fill: url(#linear-gradient-11);
      }

      .cls-17 {
        fill: #a3dcfd;
      }
    </style>
    <linearGradient id="linear-gradient" x1="0.5" y1="-0.014" x2="0.5" y2="1.069" gradientUnits="objectBoundingBox">
      <stop offset="0" stop-color="#fdfdfe"/>
      <stop offset="0.273" stop-color="#fcfcfd"/>
      <stop offset="0.5" stop-color="#f7f9fb"/>
      <stop offset="0.614" stop-color="#f2f6fa"/>
      <stop offset="0.888" stop-color="#f8fafc"/>
      <stop offset="1" stop-color="#fdfdfe"/>
    </linearGradient>
    <linearGradient id="linear-gradient-2" x1="0.5" y1="-0.014" x2="0.5" y2="1.069" gradientUnits="objectBoundingBox">
      <stop offset="0" stop-color="#fbfcfd"/>
      <stop offset="0.273" stop-color="#f9fafb"/>
      <stop offset="0.43" stop-color="#f4f6f9"/>
      <stop offset="0.614" stop-color="#e6eef5"/>
      <stop offset="0.793" stop-color="#ecf2f7"/>
      <stop offset="1" stop-color="#fbfcfd"/>
    </linearGradient>
    <linearGradient id="linear-gradient-3" x1="0.5" y1="-0.014" x2="0.5" y2="1.069" gradientUnits="objectBoundingBox">
      <stop offset="0" stop-color="#f9fafb"/>
      <stop offset="0.273" stop-color="#f7f7f9"/>
      <stop offset="0.394" stop-color="#f2f4f7"/>
      <stop offset="0.537" stop-color="#e3ebf2"/>
      <stop offset="0.614" stop-color="#d9e5ef"/>
      <stop offset="0.75" stop-color="#dfe9f1"/>
      <stop offset="0.941" stop-color="#f1f5f8"/>
      <stop offset="1" stop-color="#f9fafb"/>
    </linearGradient>
    <linearGradient id="linear-gradient-4" x1="0.5" y1="-0.014" x2="0.5" y2="1.069" gradientUnits="objectBoundingBox">
      <stop offset="0" stop-color="#f7f8fa"/>
      <stop offset="0.273" stop-color="#f4f4f7"/>
      <stop offset="0.376" stop-color="#eff1f5"/>
      <stop offset="0.497" stop-color="#e0e8f0"/>
      <stop offset="0.614" stop-color="#ccddea"/>
      <stop offset="0.726" stop-color="#d2e1ec"/>
      <stop offset="0.883" stop-color="#e4ecf3"/>
      <stop offset="1" stop-color="#f7f8fa"/>
    </linearGradient>
    <linearGradient id="linear-gradient-5" x1="0.5" y1="-0.014" x2="0.5" y2="1.069" gradientUnits="objectBoundingBox">
      <stop offset="0" stop-color="#f5f7f9"/>
      <stop offset="0.273" stop-color="#f1f2f5"/>
      <stop offset="0.363" stop-color="#eceff3"/>
      <stop offset="0.47" stop-color="#dde6ee"/>
      <stop offset="0.585" stop-color="#c6d8e7"/>
      <stop offset="0.614" stop-color="#bfd4e5"/>
      <stop offset="0.71" stop-color="#c5d8e7"/>
      <stop offset="0.846" stop-color="#d7e4ee"/>
      <stop offset="1" stop-color="#f5f7f9"/>
    </linearGradient>
    <linearGradient id="linear-gradient-6" x1="0.5" y1="-0.014" x2="0.5" y2="1.069" gradientUnits="objectBoundingBox">
      <stop offset="0" stop-color="#f4f5f8"/>
      <stop offset="0.273" stop-color="#eeeff2"/>
      <stop offset="0.355" stop-color="#e9ecf0"/>
      <stop offset="0.452" stop-color="#dae3ec"/>
      <stop offset="0.557" stop-color="#c3d5e4"/>
      <stop offset="0.614" stop-color="#b3cce0"/>
      <stop offset="0.699" stop-color="#b9d0e2"/>
      <stop offset="0.819" stop-color="#cbdbe9"/>
      <stop offset="0.96" stop-color="#e9eef4"/>
      <stop offset="1" stop-color="#f4f5f8"/>
    </linearGradient>
    <linearGradient id="linear-gradient-7" x1="0.5" y1="-0.014" x2="0.5" y2="1.069" gradientUnits="objectBoundingBox">
      <stop offset="0" stop-color="#f2f4f7"/>
      <stop offset="0.273" stop-color="#ebedf0"/>
      <stop offset="0.348" stop-color="#e6e9ee"/>
      <stop offset="0.437" stop-color="#d7e1ea"/>
      <stop offset="0.533" stop-color="#c0d2e2"/>
      <stop offset="0.614" stop-color="#a6c3db"/>
      <stop offset="0.691" stop-color="#acc7dd"/>
      <stop offset="0.799" stop-color="#bed3e4"/>
      <stop offset="0.926" stop-color="#dce6ef"/>
      <stop offset="1" stop-color="#f2f4f7"/>
    </linearGradient>
    <linearGradient id="linear-gradient-8" x1="0.5" y1="-0.014" x2="0.5" y2="1.069" gradientUnits="objectBoundingBox">
      <stop offset="0" stop-color="#f0f2f6"/>
      <stop offset="0.273" stop-color="#e8eaee"/>
      <stop offset="0.343" stop-color="#e3e7ec"/>
      <stop offset="0.425" stop-color="#d4dee8"/>
      <stop offset="0.514" stop-color="#bcd0e0"/>
      <stop offset="0.606" stop-color="#9bbcd6"/>
      <stop offset="0.614" stop-color="#99bbd6"/>
      <stop offset="0.684" stop-color="#9fbfd8"/>
      <stop offset="0.783" stop-color="#b1cadf"/>
      <stop offset="0.899" stop-color="#cfddea"/>
      <stop offset="1" stop-color="#f0f2f6"/>
    </linearGradient>
    <linearGradient id="linear-gradient-9" x1="0.5" y1="-0.014" x2="0.5" y2="1.069" gradientUnits="objectBoundingBox">
      <stop offset="0" stop-color="#eef0f4"/>
      <stop offset="0.273" stop-color="#e6e7ec"/>
      <stop offset="0.338" stop-color="#e1e4ea"/>
      <stop offset="0.414" stop-color="#d2dbe5"/>
      <stop offset="0.496" stop-color="#bacdde"/>
      <stop offset="0.582" stop-color="#99bad4"/>
      <stop offset="0.614" stop-color="#8cb2d0"/>
      <stop offset="0.679" stop-color="#92b6d2"/>
      <stop offset="0.77" stop-color="#a4c1d9"/>
      <stop offset="0.878" stop-color="#c3d4e4"/>
      <stop offset="0.997" stop-color="#eceff3"/>
      <stop offset="1" stop-color="#eef0f4"/>
    </linearGradient>
    <linearGradient id="linear-gradient-10" x1="0.5" y1="-0.014" x2="0.5" y2="1.069" gradientUnits="objectBoundingBox">
      <stop offset="0" stop-color="#eceff3"/>
      <stop offset="0.273" stop-color="#e3e5ea"/>
      <stop offset="0.334" stop-color="#dee2e8"/>
      <stop offset="0.406" stop-color="#cfd9e3"/>
      <stop offset="0.484" stop-color="#b7cbdc"/>
      <stop offset="0.566" stop-color="#96b7d2"/>
      <stop offset="0.614" stop-color="#80aacb"/>
      <stop offset="0.675" stop-color="#86aecd"/>
      <stop offset="0.761" stop-color="#98b9d4"/>
      <stop offset="0.862" stop-color="#b7cddf"/>
      <stop offset="0.973" stop-color="#e0e7ee"/>
      <stop offset="1" stop-color="#eceff3"/>
    </linearGradient>
    <linearGradient id="linear-gradient-11" x1="0.5" y1="-0.014" x2="0.5" y2="1.069" gradientUnits="objectBoundingBox">
      <stop offset="0" stop-color="#eaedf2"/>
      <stop offset="0.273" stop-color="#e0e2e8"/>
      <stop offset="0.331" stop-color="#dbdfe6"/>
      <stop offset="0.399" stop-color="#ccd6e1"/>
      <stop offset="0.473" stop-color="#b4c8da"/>
      <stop offset="0.55" stop-color="#93b4d0"/>
      <stop offset="0.614" stop-color="#73a1c6"/>
      <stop offset="0.671" stop-color="#79a5c8"/>
      <stop offset="0.752" stop-color="#8bb0cf"/>
      <stop offset="0.846" stop-color="#aac4da"/>
      <stop offset="0.951" stop-color="#d3dee9"/>
      <stop offset="1" stop-color="#eaedf2"/>
    </linearGradient>
  </defs>
  <g id="그룹_237" data-name="그룹 237" transform="translate(-378 -2705.784)">
    <path id="패스_306" data-name="패스 306" class="cls-1" d="M282.166,80.042H552.511V246.28H282.166l-36.549-83.709Z" transform="translate(989.489 2689.616)"/>
    <path id="패스_307" data-name="패스 307" class="cls-2" d="M454.413,246.28H195.5V80.042H454.413l36.549,83.709Z" transform="translate(840.844 2689.616)"/>
    <path id="패스_308" data-name="패스 308" class="cls-3" d="M395.391,246.28H135.5V80.042H395.391L431.94,163.75Z" transform="translate(662.889 2689.616)"/>
    <path id="패스_309" data-name="패스 309" class="cls-4" d="M332.414,246.28H76.833V80.042H332.414l36.549,83.709Z" transform="translate(488.888 2689.616)"/>
    <g id="그룹_140" data-name="그룹 140" transform="translate(793.466 2705.848)">
      <path id="패스_323" data-name="패스 323" class="cls-5" d="M134.637,356.774l64.406-145.433L134.259,63.952l78.706,147.341Z" transform="translate(-134.259 -63.952)"/>
      <path id="패스_324" data-name="패스 324" class="cls-6" d="M135.054,352.034l63.14-142.545L134.533,64.582l76.625,144.845Z" transform="translate(-133.444 -62.086)"/>
      <path id="패스_325" data-name="패스 325" class="cls-7" d="M135.471,347.294l61.874-139.657L134.808,65.211l74.543,142.35Z" transform="translate(-132.629 -60.219)"/>
      <path id="패스_326" data-name="패스 326" class="cls-8" d="M135.889,342.555,196.5,205.785,135.083,65.84l72.462,139.854Z" transform="translate(-131.814 -58.353)"/>
      <path id="패스_327" data-name="패스 327" class="cls-9" d="M136.306,337.815l59.342-133.882L135.358,66.47l70.381,137.358Z" transform="translate(-130.999 -56.486)"/>
      <path id="패스_328" data-name="패스 328" class="cls-10" d="M136.723,333.075,194.8,202.081,135.633,67.1l68.3,134.862Z" transform="translate(-130.184 -54.62)"/>
      <path id="패스_329" data-name="패스 329" class="cls-11" d="M137.14,328.335l56.81-128.107-58.043-132.5,66.218,132.366Z" transform="translate(-129.369 -52.753)"/>
      <path id="패스_330" data-name="패스 330" class="cls-12" d="M137.557,323.6,193.1,198.377,136.182,68.358l64.137,129.87Z" transform="translate(-128.554 -50.887)"/>
      <path id="패스_331" data-name="패스 331" class="cls-13" d="M137.974,318.856l54.278-122.331-55.8-127.537,62.056,127.374Z" transform="translate(-127.739 -49.02)"/>
      <path id="패스_332" data-name="패스 332" class="cls-14" d="M138.391,314.116,191.4,194.672,136.732,69.616l59.975,124.878Z" transform="translate(-126.924 -47.153)"/>
      <path id="패스_333" data-name="패스 333" class="cls-15" d="M138.808,309.377,190.555,192.82,137.006,70.246,194.9,192.628Z" transform="translate(-126.109 -45.287)"/>
      <path id="패스_334" data-name="패스 334" class="cls-16" d="M139.225,304.637l50.481-113.669L137.281,70.875l55.812,119.887Z" transform="translate(-125.294 -43.42)"/>
    </g>
    <g id="그룹_141" data-name="그룹 141" transform="translate(1030.513 2705.848)">
      <path id="패스_335" data-name="패스 335" class="cls-5" d="M194.408,356.774l64.406-145.433L194.03,63.952l78.706,147.341Z" transform="translate(-194.03 -63.952)"/>
      <path id="패스_336" data-name="패스 336" class="cls-6" d="M194.825,352.034l63.14-142.545L194.3,64.582l76.625,144.845Z" transform="translate(-193.214 -62.086)"/>
      <path id="패스_337" data-name="패스 337" class="cls-7" d="M195.242,347.294l61.874-139.657L194.579,65.211l74.543,142.35Z" transform="translate(-192.4 -60.219)"/>
      <path id="패스_338" data-name="패스 338" class="cls-8" d="M195.659,342.555l60.608-136.77L194.854,65.84l72.462,139.854Z" transform="translate(-191.585 -58.353)"/>
      <path id="패스_339" data-name="패스 339" class="cls-9" d="M196.076,337.815l59.342-133.882L195.129,66.47l70.381,137.358Z" transform="translate(-190.77 -56.486)"/>
      <path id="패스_340" data-name="패스 340" class="cls-10" d="M196.494,333.075,254.57,202.081,195.4,67.1l68.3,134.862Z" transform="translate(-189.955 -54.62)"/>
      <path id="패스_341" data-name="패스 341" class="cls-11" d="M196.911,328.335l56.81-128.107-58.043-132.5L261.9,200.094Z" transform="translate(-189.14 -52.753)"/>
      <path id="패스_342" data-name="패스 342" class="cls-12" d="M197.328,323.6l55.544-125.219L195.953,68.358l64.137,129.87Z" transform="translate(-188.325 -50.887)"/>
      <path id="패스_343" data-name="패스 343" class="cls-13" d="M197.745,318.856l54.278-122.331-55.8-127.537,62.056,127.374Z" transform="translate(-187.51 -49.02)"/>
      <path id="패스_344" data-name="패스 344" class="cls-14" d="M198.162,314.116l53.012-119.444L196.5,69.616l59.975,124.878Z" transform="translate(-186.695 -47.153)"/>
      <path id="패스_345" data-name="패스 345" class="cls-15" d="M198.579,309.377,250.325,192.82,196.777,70.246l57.893,122.383Z" transform="translate(-185.88 -45.287)"/>
      <path id="패스_346" data-name="패스 346" class="cls-16" d="M199,304.637l50.481-113.669L197.052,70.875l55.812,119.887Z" transform="translate(-185.065 -43.42)"/>
    </g>
    <g id="그룹_142" data-name="그룹 142" transform="translate(1267.477 2705.848)">
      <path id="패스_347" data-name="패스 347" class="cls-5" d="M254.158,356.774l64.406-145.433L253.779,63.952l78.706,147.341Z" transform="translate(-253.779 -63.952)"/>
      <path id="패스_348" data-name="패스 348" class="cls-6" d="M254.575,352.034l63.14-142.545L254.054,64.582l76.625,144.845Z" transform="translate(-252.964 -62.086)"/>
      <path id="패스_349" data-name="패스 349" class="cls-7" d="M254.992,347.294l61.874-139.657L254.329,65.211l74.543,142.35Z" transform="translate(-252.15 -60.219)"/>
      <path id="패스_350" data-name="패스 350" class="cls-8" d="M255.409,342.555l60.608-136.77L254.6,65.84l72.462,139.854Z" transform="translate(-251.335 -58.353)"/>
      <path id="패스_351" data-name="패스 351" class="cls-9" d="M255.826,337.815l59.342-133.882L254.879,66.47l70.381,137.358Z" transform="translate(-250.52 -56.486)"/>
      <path id="패스_352" data-name="패스 352" class="cls-10" d="M256.244,333.075,314.32,202.081,255.153,67.1l68.3,134.862Z" transform="translate(-249.705 -54.62)"/>
      <path id="패스_353" data-name="패스 353" class="cls-11" d="M256.661,328.335l56.81-128.107-58.043-132.5,66.218,132.366Z" transform="translate(-248.89 -52.753)"/>
      <path id="패스_354" data-name="패스 354" class="cls-12" d="M257.078,323.6l55.544-125.219L255.7,68.358l64.137,129.87Z" transform="translate(-248.075 -50.887)"/>
      <path id="패스_355" data-name="패스 355" class="cls-13" d="M257.495,318.856l54.278-122.331-55.8-127.537,62.056,127.374Z" transform="translate(-247.26 -49.02)"/>
      <path id="패스_356" data-name="패스 356" class="cls-14" d="M257.912,314.116l53.013-119.444L256.253,69.616l59.975,124.878Z" transform="translate(-246.445 -47.153)"/>
      <path id="패스_357" data-name="패스 357" class="cls-15" d="M258.329,309.377,310.076,192.82,256.527,70.246l57.893,122.383Z" transform="translate(-245.63 -45.287)"/>
      <path id="패스_358" data-name="패스 358" class="cls-16" d="M258.746,304.637l50.481-113.669L256.8,70.875l55.812,119.887Z" transform="translate(-244.815 -43.42)"/>
    </g>
    <g id="그룹_139" data-name="그룹 139" transform="translate(556.424 2705.784)">
      <path id="패스_311" data-name="패스 311" class="cls-5" d="M74.952,356.933,139.358,211.5,74.489,63.936l78.79,147.517Z" transform="translate(-74.489 -63.936)"/>
      <path id="패스_312" data-name="패스 312" class="cls-6" d="M75.369,352.194l63.138-142.56L74.764,64.566l76.709,145.021Z" transform="translate(-73.674 -62.07)"/>
      <path id="패스_313" data-name="패스 313" class="cls-7" d="M75.786,347.454l61.871-139.686L75.039,65.195,149.666,207.72Z" transform="translate(-72.859 -60.203)"/>
      <path id="패스_314" data-name="패스 314" class="cls-8" d="M76.2,342.714l60.6-136.813L75.314,65.824l72.546,140.03Z" transform="translate(-72.044 -58.337)"/>
      <path id="패스_315" data-name="패스 315" class="cls-9" d="M76.62,337.975l59.335-133.94L75.588,66.454l70.465,137.534Z" transform="translate(-71.229 -56.47)"/>
      <path id="패스_316" data-name="패스 316" class="cls-10" d="M77.037,333.235l58.068-131.067L75.863,67.083l68.384,135.038Z" transform="translate(-70.414 -54.603)"/>
      <path id="패스_317" data-name="패스 317" class="cls-11" d="M77.454,328.5l56.8-128.194L76.138,67.712l66.3,132.542Z" transform="translate(-69.599 -52.737)"/>
      <path id="패스_318" data-name="패스 318" class="cls-12" d="M77.872,323.755,133.4,198.435,76.413,68.341l64.221,130.046Z" transform="translate(-68.784 -50.87)"/>
      <path id="패스_319" data-name="패스 319" class="cls-13" d="M78.289,319.016l54.265-122.447L76.687,68.971l62.14,127.55Z" transform="translate(-67.969 -49.004)"/>
      <path id="패스_320" data-name="패스 320" class="cls-14" d="M78.706,314.276l53-119.574L76.962,69.6l60.059,125.054Z" transform="translate(-67.154 -47.137)"/>
      <path id="패스_321" data-name="패스 321" class="cls-15" d="M79.123,309.536l51.73-116.7L77.237,70.229l57.978,122.559Z" transform="translate(-66.34 -45.271)"/>
      <path id="패스_322" data-name="패스 322" class="cls-16" d="M79.54,304.8,130,190.969,77.512,70.859l55.9,120.063Z" transform="translate(-65.525 -43.404)"/>
    </g>
    <path id="패스_310" data-name="패스 310" class="cls-17" d="M235.824,246.28H29.5V80.042H235.824l36.549,83.709Z" transform="translate(348.5 2689.616)"/>
    <g id="그룹_74" data-name="그룹 74" transform="translate(397.289 2424.669)">
      <path id="패스_197" data-name="패스 197" class="cls-18" d="M120.463,424.123v23.052a5.123,5.123,0,0,1-1.584,3.7v.012c-.023.035-.058.046-.081.069a5.159,5.159,0,0,1-3.491,1.376H80.867a5.161,5.161,0,0,1-5.156-5.156V424.123c0-.035.023-.069.023-.1a.8.8,0,0,1,.035-.162.868.868,0,0,1,.081-.139.235.235,0,0,1,.047-.092l5.78-7.249v-8.335a3.705,3.705,0,0,1,3.7-3.711H110.8a3.715,3.715,0,0,1,3.711,3.711v8.335l5.78,7.249c.023.023.023.058.046.092a.766.766,0,0,1,.069.139.413.413,0,0,1,.035.162A.338.338,0,0,1,120.463,424.123Zm-1.618,23.052v-21.4L103.78,437.418l14.382,11.838A3.5,3.5,0,0,0,118.844,447.175Zm-.335-23.191-4-5.017v8.116Zm-1.6,26.335-16.578-13.642a3.568,3.568,0,0,0-4.5,0L79.272,450.319a3.5,3.5,0,0,0,1.6.393h34.44A3.584,3.584,0,0,0,116.914,450.319Zm-4.023-21.988V408.042a2.092,2.092,0,0,0-2.093-2.092H85.376a2.1,2.1,0,0,0-2.092,2.092v20.289l10.393,8.035,1.145-.936a5.158,5.158,0,0,1,6.543,0l1.133.936ZM78.012,449.256l14.382-11.838L77.33,425.776v21.4A3.585,3.585,0,0,0,78.012,449.256Zm3.665-22.173v-8.116l-4.012,5.017Z" transform="translate(0 0)"/>
      <path id="패스_198" data-name="패스 198" class="cls-18" d="M167.045,424.783a.826.826,0,1,1,0,1.653h-9.422a.826.826,0,1,1,0-1.653Z" transform="translate(-57.96 -14.454)"/>
      <path id="패스_199" data-name="패스 199" class="cls-18" d="M167.045,440.4a.826.826,0,1,1,0,1.653h-9.422a.826.826,0,1,1,0-1.653Z" transform="translate(-57.96 -25.722)"/>
      <path id="패스_200" data-name="패스 200" class="cls-18" d="M134.967,456.025a.827.827,0,0,1,0,1.653H113.5a.827.827,0,0,1,0-1.653Z" transform="translate(-26.149 -36.861)"/>
      <path id="패스_201" data-name="패스 201" class="cls-18" d="M134.967,471.646a.827.827,0,0,1,0,1.653H113.5a.827.827,0,0,1,0-1.653Z" transform="translate(-26.149 -48)"/>
      <path id="패스_202" data-name="패스 202" class="cls-18" d="M139.462,487.267a.826.826,0,0,1,0,1.653H122.141a.827.827,0,0,1,0-1.653Z" transform="translate(-32.715 -59.139)"/>
      <path id="패스_203" data-name="패스 203" class="cls-18" d="M122.584,425.609v4.581a.821.821,0,0,1-.826.826h-8.985a.821.821,0,0,1-.826-.826v-4.581a.829.829,0,0,1,.826-.826h8.985A.829.829,0,0,1,122.584,425.609Zm-1.653,3.755v-2.928H113.6v2.928Z" transform="translate(-25.897 -14.454)"/>
    </g>
    <g id="그룹_160" data-name="그룹 160" transform="translate(437.36 2427.2)">
      <path id="패스_204" data-name="패스 204" class="cls-18" d="M304.489,427.493a.782.782,0,0,0,.564.237.8.8,0,0,0,.788-.789V411.185a4.572,4.572,0,0,0-4.576-4.557H296.3a3.583,3.583,0,0,0-3.494-2.791h-.586a2.055,2.055,0,0,0-2.052-2.038H286.3a2.055,2.055,0,0,0-2.052,2.038h-.586a3.589,3.589,0,0,0-3.5,2.791h-4.96a4.572,4.572,0,0,0-4.568,4.557V445.23a4.575,4.575,0,0,0,4.568,4.57h26.057a4.575,4.575,0,0,0,4.576-4.57v-1.066l-1.578.5v.571a3.007,3.007,0,0,1-3,2.992H275.208a3.01,3.01,0,0,1-3-2.992V411.185a3.01,3.01,0,0,1,3-2.992h4.96a3.467,3.467,0,0,0,.193.6,1.023,1.023,0,0,0,.055.112,2.707,2.707,0,0,0,.248.462c.046.057.09.125.136.18a3.509,3.509,0,0,0,.27.326c.057.057.114.114.18.169.1.09.2.18.305.258.068.046.136.09.215.136a2.455,2.455,0,0,0,.349.19,2.361,2.361,0,0,0,.237.114,2.631,2.631,0,0,0,.417.122,1.27,1.27,0,0,0,.215.057,3.358,3.358,0,0,0,.676.079h9.143a3.357,3.357,0,0,0,.676-.079,1.044,1.044,0,0,0,.215-.057,3.157,3.157,0,0,0,.428-.122c.068-.035.147-.068.226-.1.112-.065.237-.122.349-.2.079-.046.147-.09.215-.136a2.348,2.348,0,0,0,.3-.258,2.2,2.2,0,0,0,.183-.169,2.356,2.356,0,0,0,.27-.326c.044-.068.09-.122.134-.18a2.376,2.376,0,0,0,.248-.462.733.733,0,0,0,.057-.112,3.238,3.238,0,0,0,.191-.6h4.963a3.007,3.007,0,0,1,3,2.992v15.756A.81.81,0,0,0,304.489,427.493ZM292.808,409.42h-9.143a2.009,2.009,0,0,1,0-4.018h.586v.89a.789.789,0,0,0,1.578,0v-2.443a.478.478,0,0,1,.474-.473h3.867a.478.478,0,0,1,.474.473v2.443a.789.789,0,0,0,1.578,0v-.89h.586a2.009,2.009,0,0,1,0,4.018Z" transform="translate(0 0)"/>
      <path id="패스_205" data-name="패스 205" class="cls-18" d="M374.881,509.6a7.756,7.756,0,0,1-4.685,7.127v.048l-1.554.488v-.048a7.632,7.632,0,0,1-1.532.156,7.776,7.776,0,0,1-7.526-5.849,7.28,7.28,0,0,1-.244-1.921,7.779,7.779,0,0,1,7.771-7.771,7.646,7.646,0,0,1,1.422.134l.333.067a.775.775,0,1,1-.354,1.508,6.569,6.569,0,0,0-1.4-.153,6.253,6.253,0,1,0,5.053,2.619l-4.4,6.794a.794.794,0,0,1-.588.343h-.067a.827.827,0,0,1-.577-.244l-3.174-3.507a.763.763,0,0,1,.056-1.089.783.783,0,0,1,1.1.046l2.5,2.753,5.772-8.914a.784.784,0,0,1,1.079-.233.8.8,0,0,1,.233,1.076l-1.033,1.588A7.725,7.725,0,0,1,374.881,509.6Z" transform="translate(-64.356 -72.535)"/>
      <path id="패스_206" data-name="패스 206" class="cls-18" d="M381,443.119v13.144a.777.777,0,1,1-1.554,0V443.119a.777.777,0,1,1,1.554,0Z" transform="translate(-79.194 -29.446)"/>
      <path id="패스_207" data-name="패스 207" class="cls-18" d="M316.782,466.793a.777.777,0,1,1,0,1.554H297.9a.777.777,0,1,1,0-1.554Z" transform="translate(-19.172 -47.305)"/>
      <path id="패스_208" data-name="패스 208" class="cls-18" d="M316.782,480.859a.777.777,0,0,1,0,1.554H297.9a.777.777,0,0,1,0-1.554Z" transform="translate(-19.172 -57.543)"/>
      <path id="패스_209" data-name="패스 209" class="cls-18" d="M316.782,494.883a.777.777,0,0,1,0,1.554H297.9a.777.777,0,0,1,0-1.554Z" transform="translate(-19.172 -67.75)"/>
      <path id="패스_210" data-name="패스 210" class="cls-18" d="M341.692,555.078a.772.772,0,1,1,0,1.543h-5.772a.772.772,0,1,1,0-1.543Z" transform="translate(-46.901 -111.496)"/>
      <path id="패스_211" data-name="패스 211" class="cls-18" d="M312.941,508.95a.777.777,0,1,1,0,1.554H297.9a.777.777,0,0,1,0-1.554Z" transform="translate(-19.206 -77.988)"/>
      <path id="패스_212" data-name="패스 212" class="cls-18" d="M312.574,537.662c0,.045.011.1.011.156a.787.787,0,0,1-.777.777H297.9a.777.777,0,1,1,0-1.554h13.909A.794.794,0,0,1,312.574,537.662Z" transform="translate(-19.214 -98.434)"/>
      <path id="패스_213" data-name="패스 213" class="cls-18" d="M324.717,452.768a.777.777,0,1,1,0,1.554h-9.691a.777.777,0,1,1,0-1.554Z" transform="translate(-31.681 -37.097)"/>
      <path id="패스_214" data-name="패스 214" class="cls-18" d="M311.808,522.974a.777.777,0,1,1,0,1.554H297.9a.777.777,0,1,1,0-1.554Z" transform="translate(-19.214 -88.196)"/>
      <path id="패스_215" data-name="패스 215" class="cls-18" d="M286.72,468.529v4.54a.777.777,0,1,1-1.554,0v-29.95a.777.777,0,1,1,1.554,0Z" transform="translate(-10.628 -29.009)"/>
    </g>
    <g id="그룹_161" data-name="그룹 161" transform="translate(485.651 2408.814)">
      <path id="패스_216" data-name="패스 216" class="cls-18" d="M562.071,525.52a.869.869,0,1,1,0,1.738H540.217a.869.869,0,1,1,0-1.738h21.853Z" transform="translate(-58.595 -73.263)"/>
      <path id="패스_217" data-name="패스 217" class="cls-18" d="M605.981,490.587v3.869a.869.869,0,1,1-1.738,0v-3.869a4.554,4.554,0,0,0-2.385-4,.869.869,0,0,1-.358-1.179,1.607,1.607,0,0,1,.14-.2.871.871,0,0,1,1.04-.148A6.287,6.287,0,0,1,605.981,490.587Z" transform="translate(-102.793 -44.447)"/>
      <path id="패스_218" data-name="패스 218" class="cls-18" d="M571.9,455.791a4.767,4.767,0,1,1-4.778,4.778A4.779,4.779,0,0,1,571.9,455.791Zm3.04,4.778a3.04,3.04,0,1,0-3.04,3.04A3.042,3.042,0,0,0,574.937,460.569Z" transform="translate(-78.379 -23.801)"/>
      <path id="패스_219" data-name="패스 219" class="cls-18" d="M589.26,504.137a.869.869,0,0,1-.646,1.048.787.787,0,0,1-.2.026.875.875,0,0,1-.847-.673l-1.109-4.638a.874.874,0,0,1,.646-1.057.883.883,0,0,1,1.048.646Z" transform="translate(-92.218 -54.304)"/>
      <path id="패스_220" data-name="패스 220" class="cls-18" d="M493,570.356a.869.869,0,1,1,0,1.738H457.222a.869.869,0,1,1,0-1.738H493Z" transform="translate(0 -105.052)"/>
      <path id="패스_221" data-name="패스 221" class="cls-18" d="M573.314,498.844a.888.888,0,0,1,.646,1.057l-1.118,4.638a.867.867,0,1,1-1.686-.4l1.109-4.647A.879.879,0,0,1,573.314,498.844Z" transform="translate(-81.372 -54.304)"/>
      <path id="패스_222" data-name="패스 222" class="cls-18" d="M554.6,485.4a.877.877,0,0,1-.349,1.179,4.545,4.545,0,0,0-2.393,4v3.869a.869.869,0,1,1-1.738,0v-3.869a6.288,6.288,0,0,1,3.3-5.529.816.816,0,0,1,.419-.114A.859.859,0,0,1,554.6,485.4Z" transform="translate(-66.464 -44.435)"/>
      <path id="패스_223" data-name="패스 223" class="cls-18" d="M510.657,422.465a.841.841,0,0,1,.227.664l-1.074,13.346a.868.868,0,0,1-.865.8h-2.681v3.782a.885.885,0,0,1-.445.76.827.827,0,0,1-.428.114.857.857,0,0,1-.454-.131l-7.424-4.525h-1.057a.876.876,0,0,1-.874-.874,1.057,1.057,0,0,1,.018-.175.872.872,0,0,1,.856-.69h1.3a.931.931,0,0,1,.454.122l6.315,3.852v-3.109a.861.861,0,0,1,.865-.865h2.752l.935-11.617H491.512l.943,6.944a.865.865,0,0,1-.742.978.488.488,0,0,1-.114.009.874.874,0,0,1-.865-.751l-1.074-7.931a.893.893,0,0,1,.2-.69.87.87,0,0,1,.655-.3h19.5A.879.879,0,0,1,510.657,422.465Z" transform="translate(-23.531)"/>
      <path id="패스_224" data-name="패스 224" class="cls-18" d="M513.826,432.2a2.447,2.447,0,0,0-2.4,1.983l-2.245,1.721-2.725-.7a2.444,2.444,0,1,0,.507,1.922l2.192.568a1,1,0,0,0,.218.026.906.906,0,0,0,.533-.175l1.922-1.476a2.453,2.453,0,1,0,2-3.869Zm-9.276,5.241a.719.719,0,0,1-.716-.716.716.716,0,0,1,1.432,0A.719.719,0,0,1,504.55,437.444Zm9.276-2.079a.712.712,0,0,1-.716-.708.72.72,0,0,1,.716-.716.712.712,0,0,1,.708.716A.7.7,0,0,1,513.826,435.365Z" transform="translate(-32.379 -7.135)"/>
      <path id="패스_225" data-name="패스 225" class="cls-18" d="M522.151,458.523a.869.869,0,0,1,0,1.738h-7.494a.869.869,0,1,1,0-1.738Z" transform="translate(-40.684 -25.763)"/>
      <path id="패스_226" data-name="패스 226" class="cls-18" d="M514.242,536.411v3.86a.869.869,0,1,1-1.738,0v-3.86a4.548,4.548,0,0,0-2.393-4.009.874.874,0,0,1-.349-1.179,1.094,1.094,0,0,1,.14-.192.872.872,0,0,1,1.039-.157A6.291,6.291,0,0,1,514.242,536.411Z" transform="translate(-37.784 -76.854)"/>
      <path id="패스_227" data-name="패스 227" class="cls-18" d="M474.069,459a.868.868,0,0,1,.2.69l-.332,2.428-.777,5.782a.875.875,0,0,1-.865.751H469.2l-4.481,2.743a.932.932,0,0,1-.454.122.827.827,0,0,1-.428-.114.86.86,0,0,1-.445-.751v-2h-1.31a.875.875,0,0,1-.874-.795l-.655-8.211a.853.853,0,0,1,.227-.664.879.879,0,0,1,.638-.279h11.992A.9.9,0,0,1,474.069,459Zm-2.533,7.913.882-6.472H462.365l.515,6.472h1.389a.869.869,0,0,1,.865.874v1.31l3.372-2.053a.857.857,0,0,1,.454-.131Z" transform="translate(-2.994 -25.85)"/>
      <path id="패스_228" data-name="패스 228" class="cls-18" d="M480.16,501.6a4.772,4.772,0,0,1,3.04,8.455,4.714,4.714,0,0,1-3.04,1.1,4.782,4.782,0,0,1-3.965-2.114,4.728,4.728,0,0,1-.812-2.664A4.779,4.779,0,0,1,480.16,501.6Zm3.04,4.778a3.04,3.04,0,1,0-3.04,3.04A3.041,3.041,0,0,0,483.2,506.377Z" transform="translate(-13.557 -56.245)"/>
      <path id="패스_229" data-name="패스 229" class="cls-18" d="M481.362,467.725a.886.886,0,0,1,0,1.232l-3.337,3.328a.868.868,0,0,1-.611.262.943.943,0,0,1-.157-.018.85.85,0,0,1-.638-.5l-1.162-2.568a.868.868,0,1,1,1.581-.716l.646,1.424,2.446-2.446A.87.87,0,0,1,481.362,467.725Z" transform="translate(-13.554 -32.093)"/>
      <path id="패스_230" data-name="패스 230" class="cls-18" d="M462.863,531.225a.874.874,0,0,1-.349,1.179,4.548,4.548,0,0,0-2.393,4.009v3.86a.869.869,0,1,1-1.738,0v-3.86a6.291,6.291,0,0,1,3.3-5.538.87.87,0,0,1,1.179.349Z" transform="translate(-1.448 -76.856)"/>
    </g>
    <g id="그룹_162" data-name="그룹 162" transform="translate(516.269 2402.669)">
      <path id="패스_231" data-name="패스 231" class="cls-18" d="M698.7,434.774l-.6,2.024a5.79,5.79,0,0,0,1.162,5.454l1.2,1.4,1.387,1.612a2.275,2.275,0,0,0,1.659.787v3.065a.932.932,0,0,0,.928.937h9.831a.932.932,0,0,0,.928-.937v-3.055h.038a2.274,2.274,0,0,0,1.724-.8l1.35-1.565,1.237-1.443a5.791,5.791,0,0,0,1.162-5.454l-.6-2.024-.618-1.865a4.815,4.815,0,0,0-4.33-2.755h-.487a5.539,5.539,0,0,0-10.533,0h-.487a4.824,4.824,0,0,0-4.3,2.7c.032-.046.06-.094.093-.139-.034.045-.061.093-.093.139-.01.02-.021.039-.031.06h-.009a11.548,11.548,0,0,0-.972,1.865Zm14.628,13.411h-7.956s0-3.008.028-3.046a2.274,2.274,0,0,0,.291-.534.583.583,0,0,1,.047-.113,2.7,2.7,0,0,0,.113-.562v-.1a2.117,2.117,0,0,0,0-.244h7.1a2.67,2.67,0,0,0,0,.272v.065a2.39,2.39,0,0,0,.122.572c.009.028.018.066.028.094a2.522,2.522,0,0,0,.225.45Zm.853-13.513a3.5,3.5,0,0,0,.2-.366,2.22,2.22,0,0,0,.1-.216,5.52,5.52,0,0,0,.225-.59c.009-.037.019-.084.028-.131a4.553,4.553,0,0,0,.122-.516c.01-.075.019-.141.028-.206a4.373,4.373,0,0,0,.047-.5c.01-.047.01-.085.019-.131h.206a2.943,2.943,0,0,1,2.8,2.09l.965,3.224a3.936,3.936,0,0,1-.8,3.7l-2.587,3.008a.424.424,0,0,1-.328.15.464.464,0,0,1-.281-.141l-.037-.037a.484.484,0,0,1-.056-.15c0-.028-.019-.047-.019-.075a.4.4,0,0,1,.056-.225l1.556-2.624a4.1,4.1,0,0,0,.094-4.02,4.563,4.563,0,0,0-2.418-2.118C714.136,434.765,714.155,434.718,714.183,434.672ZM709.4,428.2a3.682,3.682,0,0,1,3.683,3.674,3.522,3.522,0,0,1-.094.778,1.047,1.047,0,0,1-.075.244,4.287,4.287,0,0,1-.159.487c-.047.094-.1.178-.15.272a3.31,3.31,0,0,1-.244.384c-.056.084-.131.159-.2.244-.1.112-.206.225-.319.328a3.684,3.684,0,0,1-2.446.947,3.776,3.776,0,0,1-2.764-1.274c-.066-.085-.141-.16-.2-.244a3.335,3.335,0,0,1-.244-.384c-.047-.094-.1-.178-.14-.272a3.01,3.01,0,0,1-.169-.487,1.878,1.878,0,0,1-.075-.244,3.54,3.54,0,0,1-.094-.778A3.688,3.688,0,0,1,709.4,428.2Zm-3.224,8.181a5.494,5.494,0,0,0,3.224,1.04,5.576,5.576,0,0,0,3.205-1.021,2.685,2.685,0,0,1,2.268,1.406,2.189,2.189,0,0,1-.047,2.184l-1.031,1.734h-8.79l-.6-1a3.727,3.727,0,0,1-.075-3.664,1.287,1.287,0,0,1,1.125-.675Zm-6.288.956.956-3.224a2.944,2.944,0,0,1,2.8-2.09h.216c0,.047.01.1.01.15.009.141.019.291.037.431a1.907,1.907,0,0,0,.037.225,2.781,2.781,0,0,0,.085.4l.056.225c.047.15.1.3.159.45.028.075.065.15.094.225.066.15.141.291.216.431a.275.275,0,0,0,.037.075,3.182,3.182,0,0,0-1.912,1.537,5.636,5.636,0,0,0,.122,5.5l1.125,1.893a.413.413,0,0,1-.337.628.437.437,0,0,1-.328-.15l-2.586-3.008A3.908,3.908,0,0,1,699.891,437.333Z" transform="translate(-27.047)"/>
      <path id="패스_232" data-name="패스 232" class="cls-18" d="M702.49,447.642h-10.1c.194.6.573,1.2.857,1.836h9.245a1.116,1.116,0,0,1,1.119,1.117v29.035a1.116,1.116,0,0,1-1.119,1.117h-9.572l.592-1.994a5.694,5.694,0,0,0-1.147-5.372l-1.221-1.421-1.332-1.541a2.246,2.246,0,0,0-3.635,2.612l1.11,1.865a3.665,3.665,0,0,1,.074,3.609,1.259,1.259,0,0,1-1.11.665h-.712a5.429,5.429,0,0,0-3.182-1.025,5.511,5.511,0,0,0-3.163,1.006,2.65,2.65,0,0,1-2.238-1.385,2.2,2.2,0,0,1,.046-2.15l1.535-2.584a2.228,2.228,0,0,0-.129-2.492,2.192,2.192,0,0,0-1.72-.9,2.233,2.233,0,0,0-1.785.775l-1.369,1.587-1.184,1.375a5.7,5.7,0,0,0-1.147,5.372l.592,1.994H661.02c.009-.092.018-.185.028-.268a7.539,7.539,0,0,0,.055-.849V450.6a1.116,1.116,0,0,1,1.119-1.117H671.8l.6-1.836H662.223a2.959,2.959,0,0,0-2.96,2.953v29.035c0,.24-.028.461-.046.674a2.163,2.163,0,0,0,.342,1.781,1.682,1.682,0,0,0,1.3.5h11.542a4.763,4.763,0,0,0,4.273,2.713h.481a5.47,5.47,0,0,0,10.4,0h.481a4.753,4.753,0,0,0,4.273-2.713H702.49a2.96,2.96,0,0,0,2.96-2.954V450.6A2.959,2.959,0,0,0,702.49,447.642ZM677.64,480.849l-.194.36a2.228,2.228,0,0,0-.1.213,3.94,3.94,0,0,0-.213.581.68.68,0,0,0-.037.129c-.046.166-.083.341-.12.508-.009.074-.018.138-.028.212a3.993,3.993,0,0,0-.046.48c0,.046-.009.083-.009.129h-.213a2.9,2.9,0,0,1-2.765-2.058l-.943-3.175a3.843,3.843,0,0,1,.777-3.646l2.552-2.962a.415.415,0,0,1,.324-.138.378.378,0,0,1,.314.157.421.421,0,0,1,.018.452l-1.535,2.584a4.022,4.022,0,0,0-.083,3.969,4.472,4.472,0,0,0,2.377,2.077C677.686,480.757,677.667,480.8,677.64,480.849Zm4.717,6.377a3.635,3.635,0,0,1-3.635-3.618,3.475,3.475,0,0,1,.092-.766,1.819,1.819,0,0,1,.074-.24,2.941,2.941,0,0,1,.167-.48,2.243,2.243,0,0,1,.139-.258,2.724,2.724,0,0,1,.24-.388c.055-.083.13-.157.194-.24a3.723,3.723,0,0,1,2.728-1.255,3.64,3.64,0,0,1,2.414.932c.111.1.213.212.314.323.065.083.139.157.194.24a2.724,2.724,0,0,1,.24.388c.046.083.1.166.148.258a4.2,4.2,0,0,1,.157.48,1.036,1.036,0,0,1,.074.24,3.461,3.461,0,0,1,.093.766A3.63,3.63,0,0,1,682.357,487.226Zm9.4-9L690.8,481.4a2.9,2.9,0,0,1-2.765,2.058h-.2a.714.714,0,0,1-.019-.147c-.009-.139-.018-.286-.037-.425a1.9,1.9,0,0,0-.037-.221,3.085,3.085,0,0,0-.083-.406c-.019-.064-.037-.138-.055-.2-.046-.157-.1-.314-.157-.462a1.912,1.912,0,0,0-.093-.2,3.721,3.721,0,0,0-.213-.434.271.271,0,0,0-.037-.074,3.14,3.14,0,0,0,1.887-1.514,5.5,5.5,0,0,0-.12-5.408l-1.11-1.874a.421.421,0,0,1,.019-.452.378.378,0,0,1,.314-.157.4.4,0,0,1,.324.138l2.553,2.962A3.87,3.87,0,0,1,691.753,478.228Z" transform="translate(0 -14.732)"/>
      <path id="패스_233" data-name="패스 233" class="cls-18" d="M768.875,449.507c-.287-.65-.672-1.259-.868-1.865h-.081l.618,1.865Z" transform="translate(-75.627 -14.732)"/>
      <path id="패스_234" data-name="패스 234" class="cls-18" d="M789.128,470.5v20.073a.932.932,0,1,1-1.865,0V470.5a.932.932,0,1,1,1.865,0Z" transform="translate(-89.16 -30.202)"/>
      <path id="패스_235" data-name="패스 235" class="cls-18" d="M770.832,487.578v9.54a.932.932,0,0,1-.937.928.951.951,0,0,1-.665-.272.913.913,0,0,1-.272-.656v-9.54a.913.913,0,0,1,.272-.656.951.951,0,0,1,.665-.272A.932.932,0,0,1,770.832,487.578Z" transform="translate(-76.354 -42.017)"/>
      <path id="패스_236" data-name="패스 236" class="cls-18" d="M697.087,487.578v9.54a.911.911,0,0,1-.272.656.934.934,0,0,1-1.593-.656v-9.54a.934.934,0,0,1,1.593-.656A.912.912,0,0,1,697.087,487.578Z" transform="translate(-25.07 -42.017)"/>
      <path id="패스_237" data-name="패스 237" class="cls-18" d="M678.782,470.5v20.073a.932.932,0,1,1-1.865,0V470.5a.932.932,0,1,1,1.865,0Z" transform="translate(-12.264 -30.202)"/>
    </g>
    <path id="패스_370" data-name="패스 370" class="cls-18" d="M288.374,647.541V660a2.914,2.914,0,0,1-2.915,2.915,2.848,2.848,0,0,1-1.333-.339v11.15a6.056,6.056,0,0,1-6.032,6.044h-.011a6.048,6.048,0,0,1-6.032-6.044v-11.15a2.849,2.849,0,0,1-1.333.339A2.922,2.922,0,0,1,267.8,660v-12.46a3.2,3.2,0,0,1,3.2-3.208h1.265a2.3,2.3,0,0,0,2.033-1.367l.667-1.423a5.394,5.394,0,1,1,6.247,0l.666,1.423a2.305,2.305,0,0,0,2.011,1.367h1.288A3.2,3.2,0,0,1,288.374,647.541ZM286.793,660v-12.46a1.618,1.618,0,0,0-1.615-1.627h-1.265a3.884,3.884,0,0,1-3.457-2.282l-.655-1.378a4.953,4.953,0,0,1-3.423,0l-.655,1.378a3.874,3.874,0,0,1-3.423,2.282H271a1.618,1.618,0,0,0-1.615,1.627V660a1.333,1.333,0,0,0,2.666,0v-9.715a.791.791,0,0,1,1.582,0v23.441a4.453,4.453,0,0,0,3.671,4.383V674.3a.785.785,0,1,1,1.57,0v3.807a4.453,4.453,0,0,0,3.672-4.383V650.286a.791.791,0,0,1,1.582,0V660a1.333,1.333,0,0,0,2.666,0ZM281.9,637.171a3.813,3.813,0,1,0-3.807,3.807A3.818,3.818,0,0,0,281.9,637.171Z" transform="translate(1158.197 2197.229)"/>
  </g>
</svg>
