<svg xmlns="http://www.w3.org/2000/svg" width="246.563" height="1201.579" viewBox="0 0 246.563 1201.579">
  <g id="그룹_435" data-name="그룹 435" transform="translate(-56.718 -3756)">
    <g id="그룹_426" data-name="그룹 426" transform="translate(17.906 -60)">
      <path id="패스_682" data-name="패스 682" d="M1044.583,599.5V491.056a29.3,29.3,0,0,0-15.2-25.685c-.061-.031-.116-.067-.179-.1,0,0-93.522-54.078-94.648-54.643a29.092,29.092,0,0,0-26.361.02c-1.093.558-94.6,54.623-94.6,54.623-.063.037-.122.072-.185.107a29.3,29.3,0,0,0-15.181,25.216h-.013V600.283h.026a29.263,29.263,0,0,0,14.036,24.234c.554.332,94.859,54.831,95.834,55.324a29.116,29.116,0,0,0,26.572.011c.986-.5,95.311-55.012,95.877-55.359a29.264,29.264,0,0,0,14.032-24.95V599.5Z" transform="translate(-759.208 3408.523)" fill="#a3dcfd" style="mix-blend-mode: multiply;isolation: isolate"/>
      <text id="_01" data-name="01" transform="translate(86 3956)" fill="#fff" font-size="24" font-family="NotoSans-SemiBold, Noto Sans" font-weight="600" letter-spacing="0.02em"><tspan x="0" y="0">01</tspan></text>
      <text id="지원서_접수" data-name="지원서 접수" transform="translate(85 3965.196)" fill="#fff" font-size="24" font-family="MalgunGothicBold, Malgun Gothic" letter-spacing="-0.04em"><tspan x="0" y="26">지원서</tspan><tspan y="26" font-family="NotoSans-SemiBold, Noto Sans" font-weight="600"> </tspan><tspan y="26">접수</tspan></text>
      <text id="이력서_검토" data-name="이력서 검토" transform="translate(86 4019)" fill="#fff" font-size="16" font-family="MalgunGothic, Malgun Gothic"><tspan x="0" y="0">이력서</tspan><tspan y="0" font-family="NotoSans-Medium, Noto Sans" font-weight="500"> </tspan><tspan y="0">검토</tspan></text>
      <g id="그룹_376" data-name="그룹 376" transform="translate(10.289 3472.669)">
        <path id="패스_197" data-name="패스 197" d="M114.869,421.649v20.171a4.483,4.483,0,0,1-1.386,3.237v.01c-.02.03-.05.04-.071.061a4.514,4.514,0,0,1-3.055,1.2H80.223a4.516,4.516,0,0,1-4.512-4.512V421.649c0-.03.02-.061.02-.091a.7.7,0,0,1,.03-.142.758.758,0,0,1,.071-.121.2.2,0,0,1,.041-.081l5.058-6.342v-7.293a3.242,3.242,0,0,1,3.237-3.247h22.244a3.251,3.251,0,0,1,3.247,3.247v7.293l5.058,6.342c.02.02.02.051.04.081a.67.67,0,0,1,.061.121.361.361,0,0,1,.03.142A.3.3,0,0,1,114.869,421.649Zm-1.416,20.171V423.1l-13.181,10.187,12.584,10.358A3.065,3.065,0,0,0,113.453,441.819Zm-.293-20.292-3.5-4.39v7.1Zm-1.4,23.043L97.258,432.634a3.122,3.122,0,0,0-3.935,0l-14.5,11.936a3.059,3.059,0,0,0,1.4.344h30.135A3.135,3.135,0,0,0,111.763,444.571Zm-3.52-19.24V407.578a1.831,1.831,0,0,0-1.831-1.831H84.168a1.837,1.837,0,0,0-1.831,1.831v17.753l9.094,7.03,1-.819a4.513,4.513,0,0,1,5.725,0l.991.819ZM77.724,443.64l12.584-10.358L77.127,423.1v18.724A3.136,3.136,0,0,0,77.724,443.64Zm3.207-19.4v-7.1l-3.51,4.39Z" transform="translate(0 0)" fill="#fff"/>
        <path id="패스_198" data-name="패스 198" d="M166.1,424.783a.75.75,0,0,1,0,1.5h-8.55a.75.75,0,0,1,0-1.5Z" transform="translate(-61.098 -15.009)" fill="#fff"/>
        <path id="패스_199" data-name="패스 199" d="M166.1,440.4a.75.75,0,0,1,0,1.5h-8.55a.75.75,0,0,1,0-1.5Z" transform="translate(-61.098 -27.028)" fill="#fff"/>
        <path id="패스_200" data-name="패스 200" d="M131.505,456.025a.755.755,0,0,1,0,1.5H113.381a.755.755,0,0,1,0-1.5Z" transform="translate(-27.153 -38.732)" fill="#fff"/>
        <path id="패스_201" data-name="패스 201" d="M131.505,471.646a.755.755,0,0,1,0,1.5H113.381a.755.755,0,0,1,0-1.5Z" transform="translate(-27.153 -50.437)" fill="#fff"/>
        <path id="패스_202" data-name="패스 202" d="M137.784,487.267a.75.75,0,1,1,0,1.5H122.065a.75.75,0,0,1,0-1.5Z" transform="translate(-34.635 -62.141)" fill="#fff"/>
        <path id="패스_203" data-name="패스 203" d="M121.6,425.533v4.157a.745.745,0,0,1-.75.75H112.7a.745.745,0,0,1-.75-.75v-4.157a.752.752,0,0,1,.75-.75h8.154A.752.752,0,0,1,121.6,425.533Zm-1.5,3.407v-2.657h-6.654v2.657Z" transform="translate(-27.294 -15.009)" fill="#fff"/>
      </g>
    </g>
    <g id="그룹_427" data-name="그룹 427" transform="translate(-237.282 172)">
      <path id="패스_683" data-name="패스 683" d="M1044.583,722.651V614.212a29.3,29.3,0,0,0-15.2-25.689c-.061-.031-.116-.067-.179-.1,0,0-93.522-54.076-94.648-54.641a29.092,29.092,0,0,0-26.361.02c-1.093.558-94.6,54.621-94.6,54.621-.063.037-.122.072-.185.107a29.3,29.3,0,0,0-15.181,25.218h-.013v109.69h.026a29.258,29.258,0,0,0,14.036,24.234c.554.332,94.859,54.831,95.834,55.324a29.1,29.1,0,0,0,26.572.011c.986-.5,95.311-55.01,95.877-55.358a29.264,29.264,0,0,0,14.032-24.952v-.044Z" transform="translate(-504.208 3285.368)" fill="#7ccbfa" style="mix-blend-mode: multiply;isolation: isolate"/>
      <g id="그룹_369" data-name="그룹 369" transform="translate(70.36 3475.2)">
        <path id="패스_204" data-name="패스 204" d="M300.284,424.282a.686.686,0,0,0,.494.207.7.7,0,0,0,.69-.69V410.012a4,4,0,0,0-4.007-3.987h-4.346a3.138,3.138,0,0,0-3.06-2.442h-.513a1.8,1.8,0,0,0-1.8-1.783h-3.387a1.8,1.8,0,0,0-1.8,1.783h-.513a3.142,3.142,0,0,0-3.062,2.442H274.64a4,4,0,0,0-4,3.987V439.8a4,4,0,0,0,4,4h22.82a4,4,0,0,0,4.007-4v-.933l-1.382.433v.5a2.633,2.633,0,0,1-2.625,2.618H274.64a2.635,2.635,0,0,1-2.628-2.618V410.012a2.635,2.635,0,0,1,2.628-2.618h4.344a3.032,3.032,0,0,0,.169.521.883.883,0,0,0,.048.1,2.372,2.372,0,0,0,.217.4c.041.05.079.109.119.157a3.071,3.071,0,0,0,.236.286c.05.05.1.1.158.148.091.079.179.157.267.226.06.04.119.079.189.119a2.149,2.149,0,0,0,.306.167,2.071,2.071,0,0,0,.208.1,2.311,2.311,0,0,0,.365.107,1.116,1.116,0,0,0,.189.05,2.943,2.943,0,0,0,.592.069h8.008a2.942,2.942,0,0,0,.592-.069.918.918,0,0,0,.189-.05,2.773,2.773,0,0,0,.375-.107c.06-.031.129-.06.2-.09.1-.057.208-.107.306-.176.069-.04.129-.079.189-.119a2.055,2.055,0,0,0,.265-.226,1.914,1.914,0,0,0,.16-.148,2.057,2.057,0,0,0,.236-.286c.038-.06.079-.107.117-.157a2.08,2.08,0,0,0,.217-.4.636.636,0,0,0,.05-.1,2.831,2.831,0,0,0,.167-.521h4.346a2.633,2.633,0,0,1,2.625,2.618V423.8A.708.708,0,0,0,300.284,424.282Zm-10.23-15.815h-8.008a1.758,1.758,0,1,1,0-3.516h.513v.778a.691.691,0,0,0,1.382,0v-2.138a.418.418,0,0,1,.415-.414h3.387a.418.418,0,0,1,.415.414v2.138a.691.691,0,0,0,1.382,0v-.778h.513a1.758,1.758,0,0,1,0,3.516Z" transform="translate(0 0)" fill="#fff"/>
        <path id="패스_205" data-name="패스 205" d="M372.848,508.584a6.741,6.741,0,0,1-4.072,6.194v.042l-1.35.424V515.2a6.631,6.631,0,0,1-1.332.135,6.759,6.759,0,0,1-6.542-5.084,6.327,6.327,0,0,1-.212-1.67,6.761,6.761,0,0,1,6.754-6.754,6.647,6.647,0,0,1,1.236.117l.289.058a.673.673,0,1,1-.308,1.311,5.708,5.708,0,0,0-1.217-.133,5.435,5.435,0,1,0,4.392,2.276l-3.823,5.905a.69.69,0,0,1-.511.3h-.058a.719.719,0,0,1-.5-.212l-2.759-3.048a.663.663,0,0,1,.049-.947.681.681,0,0,1,.954.04l2.171,2.393,5.017-7.748a.682.682,0,0,1,.938-.2.694.694,0,0,1,.2.935l-.9,1.381A6.715,6.715,0,0,1,372.848,508.584Z" transform="translate(-67.309 -75.853)" fill="#fff"/>
        <path id="패스_206" data-name="패스 206" d="M380.8,443.018v11.424a.675.675,0,0,1-1.351,0V443.018a.675.675,0,1,1,1.351,0Z" transform="translate(-82.889 -30.804)" fill="#fff"/>
        <path id="패스_207" data-name="패스 207" d="M314.21,466.793a.675.675,0,1,1,0,1.351H297.8a.675.675,0,1,1,0-1.351Z" transform="translate(-20.041 -49.512)" fill="#fff"/>
        <path id="패스_208" data-name="패스 208" d="M314.21,480.859a.675.675,0,0,1,0,1.351H297.8a.675.675,0,0,1,0-1.351Z" transform="translate(-20.041 -60.228)" fill="#fff"/>
        <path id="패스_209" data-name="패스 209" d="M314.21,494.883a.675.675,0,1,1,0,1.351H297.8a.675.675,0,1,1,0-1.351Z" transform="translate(-20.041 -70.912)" fill="#fff"/>
        <path id="패스_210" data-name="패스 210" d="M340.835,555.078a.671.671,0,1,1,0,1.341h-5.017a.671.671,0,1,1,0-1.341Z" transform="translate(-49.078 -116.682)" fill="#fff"/>
        <path id="패스_211" data-name="패스 211" d="M310.871,508.95a.675.675,0,1,1,0,1.351H297.8a.675.675,0,0,1,0-1.351Z" transform="translate(-20.086 -81.628)" fill="#fff"/>
        <path id="패스_212" data-name="패스 212" d="M310.553,537.581c0,.039.01.087.01.135a.684.684,0,0,1-.675.675H297.8a.675.675,0,1,1,0-1.351h12.09A.69.69,0,0,1,310.553,537.581Z" transform="translate(-20.096 -103.028)" fill="#fff"/>
        <path id="패스_213" data-name="패스 213" d="M323.348,452.768a.675.675,0,1,1,0,1.351h-8.423a.675.675,0,0,1,0-1.351Z" transform="translate(-33.145 -38.828)" fill="#fff"/>
        <path id="패스_214" data-name="패스 214" d="M309.887,522.974a.675.675,0,0,1,0,1.351H297.8a.675.675,0,0,1,0-1.351Z" transform="translate(-20.096 -92.311)" fill="#fff"/>
        <path id="패스_215" data-name="패스 215" d="M286.517,465.1v3.946a.675.675,0,1,1-1.351,0V443.018a.675.675,0,1,1,1.351,0Z" transform="translate(-11.138 -30.239)" fill="#fff"/>
      </g>
      <text id="_02" data-name="02" transform="translate(341 3956)" fill="#fff" font-size="24" font-family="NotoSans-SemiBold, Noto Sans" font-weight="600" letter-spacing="0.02em"><tspan x="0" y="0">02</tspan></text>
      <text id="서류_심사" data-name="서류 심사" transform="translate(340 3969)" fill="#fff" font-size="24" font-family="MalgunGothicBold, Malgun Gothic" letter-spacing="-0.04em"><tspan x="0" y="26">서류</tspan><tspan y="26" font-family="NotoSans-SemiBold, Noto Sans" font-weight="600"> </tspan><tspan y="26">심사</tspan></text>
      <text id="개별_연락_합격자_" data-name="개별 연락 (합격자)" transform="translate(341 4023)" fill="#fff" font-size="16" font-family="MalgunGothic, Malgun Gothic"><tspan x="0" y="0">개별</tspan><tspan y="0" font-family="NotoSans-Medium, Noto Sans" font-weight="500"> </tspan><tspan y="0">연락</tspan><tspan y="0" xml:space="preserve" font-family="NotoSans-Medium, Noto Sans" font-weight="500"> (</tspan><tspan y="0">합격자</tspan><tspan y="0" font-family="NotoSans-Medium, Noto Sans" font-weight="500">)</tspan></text>
    </g>
    <g id="그룹_428" data-name="그룹 428" transform="translate(-0.094 -7)">
      <g id="그룹_414" data-name="그룹 414">
        <path id="패스_684" data-name="패스 684" d="M1044.583,845.808V737.365a29.293,29.293,0,0,0-15.2-25.685c-.061-.033-.116-.068-.179-.105,0,0-93.522-54.076-94.648-54.643a29.1,29.1,0,0,0-26.361.022c-1.093.558-94.6,54.621-94.6,54.621l-.185.109A29.293,29.293,0,0,0,798.221,736.9h-.013V846.6h.026a29.267,29.267,0,0,0,14.036,24.232c.554.327,94.859,54.829,95.834,55.321a29.117,29.117,0,0,0,26.572.011c.986-.5,95.311-55.007,95.877-55.354a29.268,29.268,0,0,0,14.032-24.954v-.042Z" transform="translate(-741.396 3572.214)" fill="#048aef" style="mix-blend-mode: multiply;isolation: isolate"/>
      </g>
      <g id="그룹_370" data-name="그룹 370" transform="translate(-352.537 3864.605)">
        <path id="패스_216" data-name="패스 216" d="M559.48,525.52a.77.77,0,1,1,0,1.54H540.118a.77.77,0,1,1,0-1.54H559.48Z" transform="translate(-61.905 -77.035)" fill="#fff"/>
        <path id="패스_217" data-name="패스 217" d="M605.458,489.944v3.428a.77.77,0,1,1-1.54,0v-3.428a4.035,4.035,0,0,0-2.113-3.544.77.77,0,0,1-.317-1.045,1.423,1.423,0,0,1,.124-.178.772.772,0,0,1,.921-.132A5.571,5.571,0,0,1,605.458,489.944Z" transform="translate(-108.138 -46.797)" fill="#fff"/>
        <path id="패스_218" data-name="패스 218" d="M571.353,455.791a4.224,4.224,0,1,1-4.233,4.233A4.234,4.234,0,0,1,571.353,455.791Zm2.693,4.233a2.693,2.693,0,1,0-2.693,2.693A2.7,2.7,0,0,0,574.046,460.024Z" transform="translate(-82.6 -25.056)" fill="#fff"/>
        <path id="패스_219" data-name="패스 219" d="M588.938,503.531a.77.77,0,0,1-.573.929.7.7,0,0,1-.178.023.775.775,0,0,1-.751-.6l-.983-4.109a.775.775,0,0,1,.573-.936.783.783,0,0,1,.929.573Z" transform="translate(-96.978 -57.136)" fill="#fff"/>
        <path id="패스_220" data-name="패스 220" d="M488.821,570.356a.77.77,0,1,1,0,1.54h-31.7a.77.77,0,1,1,0-1.54h31.7Z" transform="translate(0 -110.461)" fill="#fff"/>
        <path id="패스_221" data-name="패스 221" d="M573.065,498.841a.787.787,0,0,1,.573.936l-.99,4.109a.768.768,0,1,1-1.494-.356l.983-4.117A.779.779,0,0,1,573.065,498.841Z" transform="translate(-85.572 -57.136)" fill="#fff"/>
        <path id="패스_222" data-name="패스 222" d="M554.09,485.343a.777.777,0,0,1-.31,1.045,4.026,4.026,0,0,0-2.12,3.544v3.428a.77.77,0,1,1-1.54,0v-3.428a5.571,5.571,0,0,1,2.925-4.9.724.724,0,0,1,.372-.1A.762.762,0,0,1,554.09,485.343Z" transform="translate(-69.909 -46.785)" fill="#fff"/>
        <path id="패스_223" data-name="패스 223" d="M508.263,422.434a.745.745,0,0,1,.2.588l-.952,11.825a.769.769,0,0,1-.766.712H504.37v3.351a.784.784,0,0,1-.395.673.732.732,0,0,1-.379.1.759.759,0,0,1-.4-.116l-6.578-4.009h-.936a.776.776,0,0,1-.774-.774.935.935,0,0,1,.016-.155.773.773,0,0,1,.758-.611h1.153a.825.825,0,0,1,.4.108l5.6,3.413v-2.755a.763.763,0,0,1,.766-.766h2.438l.828-10.293H491.3l.836,6.152a.767.767,0,0,1-.658.867.432.432,0,0,1-.1.008.774.774,0,0,1-.766-.666l-.952-7.027a.791.791,0,0,1,.178-.611.771.771,0,0,1,.58-.263H507.7A.778.778,0,0,1,508.263,422.434Z" transform="translate(-24.838 0)" fill="#fff"/>
        <path id="패스_224" data-name="패스 224" d="M512.489,432.2a2.169,2.169,0,0,0-2.128,1.757l-1.989,1.525-2.414-.619a2.165,2.165,0,1,0,.449,1.7l1.942.5a.891.891,0,0,0,.193.023.8.8,0,0,0,.472-.155l1.7-1.308a2.173,2.173,0,1,0,1.772-3.428Zm-8.219,4.643a.637.637,0,0,1-.634-.634.635.635,0,0,1,1.269,0A.637.637,0,0,1,504.271,436.846ZM512.489,435a.631.631,0,0,1-.635-.627.638.638,0,0,1,.635-.635.631.631,0,0,1,.627.635A.624.624,0,0,1,512.489,435Z" transform="translate(-34.112 -7.463)" fill="#fff"/>
        <path id="패스_225" data-name="패스 225" d="M521.2,458.523a.77.77,0,0,1,0,1.54h-6.64a.77.77,0,1,1,0-1.54Z" transform="translate(-42.822 -27.089)" fill="#fff"/>
        <path id="패스_226" data-name="패스 226" d="M513.72,535.768v3.42a.77.77,0,1,1-1.54,0v-3.42a4.03,4.03,0,0,0-2.121-3.552.774.774,0,0,1-.31-1.045.968.968,0,0,1,.124-.17.773.773,0,0,1,.921-.139A5.574,5.574,0,0,1,513.72,535.768Z" transform="translate(-39.743 -80.964)" fill="#fff"/>
        <path id="패스_227" data-name="패스 227" d="M472.528,458.968a.77.77,0,0,1,.178.611l-.294,2.151-.689,5.123a.775.775,0,0,1-.766.666h-2.739l-3.97,2.43a.826.826,0,0,1-.4.108.733.733,0,0,1-.379-.1.762.762,0,0,1-.395-.665v-1.772h-1.161a.775.775,0,0,1-.774-.7l-.581-7.275a.756.756,0,0,1,.2-.588.779.779,0,0,1,.565-.247h10.625A.8.8,0,0,1,472.528,458.968Zm-2.244,7.011.782-5.734h-8.907l.457,5.734h1.231a.77.77,0,0,1,.766.774v1.161L467.6,466.1a.759.759,0,0,1,.4-.116Z" transform="translate(-3.132 -27.23)" fill="#fff"/>
        <path id="패스_228" data-name="패스 228" d="M479.615,501.6a4.228,4.228,0,0,1,2.693,7.491,4.177,4.177,0,0,1-2.693.975,4.237,4.237,0,0,1-3.513-1.873,4.19,4.19,0,0,1-.72-2.36A4.234,4.234,0,0,1,479.615,501.6Zm2.693,4.233a2.693,2.693,0,1,0-2.693,2.693A2.695,2.695,0,0,0,482.308,505.832Z" transform="translate(-14.181 -59.21)" fill="#fff"/>
        <path id="패스_229" data-name="패스 229" d="M480.68,467.7a.785.785,0,0,1,0,1.091l-2.956,2.948a.769.769,0,0,1-.542.232.832.832,0,0,1-.139-.016.753.753,0,0,1-.565-.441l-1.029-2.275a.769.769,0,1,1,1.4-.635l.573,1.261,2.167-2.167A.771.771,0,0,1,480.68,467.7Z" transform="translate(-14.178 -33.761)" fill="#fff"/>
        <path id="패스_230" data-name="패스 230" d="M462.352,531.173a.774.774,0,0,1-.31,1.045,4.03,4.03,0,0,0-2.121,3.552v3.42a.77.77,0,1,1-1.54,0v-3.42a5.574,5.574,0,0,1,2.925-4.906.771.771,0,0,1,1.045.309Z" transform="translate(-1.515 -80.967)" fill="#fff"/>
      </g>
      <text id="_03" data-name="03" transform="translate(103.812 4362.792)" fill="#fff" font-size="24" font-family="NotoSans-SemiBold, Noto Sans" font-weight="600" letter-spacing="0.02em"><tspan x="0" y="0">03</tspan></text>
      <text id="파트장_실무_1차_면접_" data-name="파트장 실무 (1차 면접)" transform="translate(103.812 4429.792)" fill="#fff" font-size="16" font-family="MalgunGothic, Malgun Gothic" letter-spacing="-0.06em"><tspan x="0" y="0">파트장</tspan><tspan y="0" font-family="NotoSans-Medium, Noto Sans" font-weight="500"> </tspan><tspan y="0">실무</tspan><tspan y="0" xml:space="preserve" font-family="NotoSans-Medium, Noto Sans" font-weight="500"> (1</tspan><tspan y="0">차</tspan><tspan y="0" font-family="NotoSans-Medium, Noto Sans" font-weight="500"> </tspan><tspan y="0">면접</tspan><tspan y="0" font-family="NotoSans-Medium, Noto Sans" font-weight="500">)</tspan></text>
      <text id="실무_면접" data-name="실무 면접" transform="translate(102.812 4375.792)" fill="#fff" font-size="24" font-family="MalgunGothicBold, Malgun Gothic" letter-spacing="-0.04em"><tspan x="0" y="26">실무</tspan><tspan y="26" font-family="NotoSans-SemiBold, Noto Sans" font-weight="600"> </tspan><tspan y="26">면접</tspan></text>
    </g>
    <g id="그룹_429" data-name="그룹 429" transform="translate(-539.094 655)">
      <path id="패스_685" data-name="패스 685" d="M1044.583,968.959V860.52a29.3,29.3,0,0,0-15.2-25.689c-.061-.028-.116-.065-.179-.1,0,0-93.522-54.078-94.648-54.643a29.077,29.077,0,0,0-26.361.02c-1.093.556-94.6,54.623-94.6,54.623-.063.035-.122.072-.185.107a29.293,29.293,0,0,0-15.181,25.212h-.013V969.745h.026a29.252,29.252,0,0,0,14.036,24.232c.554.336,94.859,54.831,95.834,55.328a29.116,29.116,0,0,0,26.572.011c.986-.508,95.311-55.014,95.877-55.361a29.261,29.261,0,0,0,14.032-24.948v-.048Z" transform="translate(-202.396 3019.06)" fill="#005cd3" style="mix-blend-mode: multiply;isolation: isolate"/>
      <g id="그룹_371" data-name="그룹 371" transform="translate(-16.176 3433.669)">
        <path id="패스_231" data-name="패스 231" d="M698.6,433.742l-.526,1.777a5.083,5.083,0,0,0,1.02,4.787l1.053,1.226,1.217,1.415a2,2,0,0,0,1.456.691v2.69a.818.818,0,0,0,.814.823h8.629a.818.818,0,0,0,.814-.823v-2.682h.033a2,2,0,0,0,1.513-.7l1.185-1.374,1.086-1.267a5.083,5.083,0,0,0,1.02-4.787l-.527-1.777-.543-1.637a4.226,4.226,0,0,0-3.8-2.418h-.428a4.862,4.862,0,0,0-9.246,0h-.428a4.234,4.234,0,0,0-3.773,2.366c.028-.04.052-.082.082-.122-.029.039-.054.082-.082.122-.009.018-.019.034-.027.052h-.008a10.13,10.13,0,0,0-.853,1.637Zm12.84,11.771h-6.983s0-2.641.025-2.673a2,2,0,0,0,.255-.469.509.509,0,0,1,.041-.1,2.376,2.376,0,0,0,.1-.493v-.091a1.876,1.876,0,0,0,0-.214h6.235a2.335,2.335,0,0,0,0,.238v.058a2.092,2.092,0,0,0,.107.5c.008.025.016.058.025.082a2.213,2.213,0,0,0,.2.395Zm.749-11.861a3.081,3.081,0,0,0,.173-.321,1.956,1.956,0,0,0,.091-.189,4.835,4.835,0,0,0,.2-.518c.008-.033.016-.074.025-.115a3.984,3.984,0,0,0,.107-.452c.008-.066.017-.123.025-.181a3.835,3.835,0,0,0,.041-.436c.008-.041.008-.074.016-.115h.181a2.583,2.583,0,0,1,2.459,1.834l.847,2.83a3.455,3.455,0,0,1-.7,3.249l-2.271,2.64a.372.372,0,0,1-.288.132.407.407,0,0,1-.247-.124l-.033-.033a.426.426,0,0,1-.049-.132c0-.025-.017-.041-.017-.066a.353.353,0,0,1,.049-.2l1.365-2.3a3.6,3.6,0,0,0,.082-3.529,4.005,4.005,0,0,0-2.122-1.859C712.146,433.734,712.162,433.693,712.187,433.652Zm-4.2-5.684a3.232,3.232,0,0,1,3.233,3.225,3.1,3.1,0,0,1-.082.683.919.919,0,0,1-.066.214,3.787,3.787,0,0,1-.14.428c-.041.082-.091.156-.132.239a2.91,2.91,0,0,1-.214.337c-.049.074-.115.14-.173.214-.09.1-.181.2-.28.288a3.233,3.233,0,0,1-2.147.831,3.314,3.314,0,0,1-2.427-1.119c-.058-.074-.124-.14-.173-.214a2.927,2.927,0,0,1-.214-.337c-.041-.082-.09-.156-.123-.239a2.642,2.642,0,0,1-.148-.428,1.643,1.643,0,0,1-.066-.214,3.106,3.106,0,0,1-.082-.683A3.237,3.237,0,0,1,707.992,427.968Zm-2.83,7.181a4.822,4.822,0,0,0,2.83.913,4.895,4.895,0,0,0,2.813-.9A2.356,2.356,0,0,1,712.8,436.4a1.922,1.922,0,0,1-.041,1.917l-.9,1.522h-7.716l-.526-.88a3.271,3.271,0,0,1-.066-3.216,1.129,1.129,0,0,1,.987-.592Zm-5.519.839.839-2.83a2.584,2.584,0,0,1,2.46-1.834h.189c0,.041.008.091.008.131.008.124.016.255.033.379a1.655,1.655,0,0,0,.033.2,2.442,2.442,0,0,0,.074.354l.049.2c.041.132.091.263.14.395.025.066.057.132.082.2.058.132.124.255.189.378a.24.24,0,0,0,.033.066,2.793,2.793,0,0,0-1.678,1.349,4.947,4.947,0,0,0,.107,4.828l.987,1.662a.362.362,0,0,1-.3.551.384.384,0,0,1-.288-.132l-2.27-2.64A3.43,3.43,0,0,1,699.642,435.988Z" transform="translate(-28.533)" fill="#fff"/>
        <path id="패스_232" data-name="패스 232" d="M697.076,447.642h-8.839c.17.521.5,1.047.75,1.606h8.09a.976.976,0,0,1,.979.977v25.393a.976.976,0,0,1-.979.977H688.7l.518-1.743a4.978,4.978,0,0,0-1-4.7l-1.068-1.243-1.166-1.348a1.965,1.965,0,0,0-3.18,2.284l.971,1.631a3.2,3.2,0,0,1,.065,3.156,1.1,1.1,0,0,1-.971.581h-.623a4.752,4.752,0,0,0-2.784-.9,4.823,4.823,0,0,0-2.768.88,2.319,2.319,0,0,1-1.958-1.211,1.922,1.922,0,0,1,.04-1.881l1.343-2.26a1.947,1.947,0,0,0-.113-2.179,1.918,1.918,0,0,0-1.505-.783,1.954,1.954,0,0,0-1.562.678l-1.2,1.388-1.036,1.2a4.978,4.978,0,0,0-1,4.7l.518,1.743H660.79c.008-.081.016-.162.024-.234a6.593,6.593,0,0,0,.048-.743V450.225a.977.977,0,0,1,.979-.977h8.384l.526-1.606h-8.91a2.589,2.589,0,0,0-2.59,2.583v25.393c0,.21-.024.4-.04.589a1.891,1.891,0,0,0,.3,1.558,1.472,1.472,0,0,0,1.141.436h10.1a4.168,4.168,0,0,0,3.739,2.373h.421a4.787,4.787,0,0,0,9.1,0h.421a4.159,4.159,0,0,0,3.739-2.373h8.91a2.589,2.589,0,0,0,2.59-2.583V450.225A2.589,2.589,0,0,0,697.076,447.642Zm-21.744,29.042-.17.315a1.927,1.927,0,0,0-.089.186,3.433,3.433,0,0,0-.186.508.59.59,0,0,0-.032.113c-.041.145-.073.3-.105.444-.008.065-.016.121-.024.186a3.5,3.5,0,0,0-.04.42c0,.04-.008.073-.008.113h-.186a2.541,2.541,0,0,1-2.42-1.8l-.825-2.777a3.359,3.359,0,0,1,.68-3.188l2.233-2.591a.363.363,0,0,1,.284-.121.331.331,0,0,1,.275.137.368.368,0,0,1,.016.4l-1.344,2.26a3.516,3.516,0,0,0-.073,3.471,3.912,3.912,0,0,0,2.08,1.816C675.372,476.6,675.356,476.643,675.332,476.684Zm4.127,5.577a3.18,3.18,0,0,1-3.18-3.164,3.036,3.036,0,0,1,.081-.67,1.593,1.593,0,0,1,.065-.21,2.566,2.566,0,0,1,.146-.42,1.964,1.964,0,0,1,.121-.226,2.382,2.382,0,0,1,.21-.339c.049-.073.113-.137.17-.21a3.117,3.117,0,0,1,.283-.283,3.149,3.149,0,0,1,2.1-.815,3.186,3.186,0,0,1,2.112.815c.1.089.186.186.275.283.057.073.121.137.17.21a2.382,2.382,0,0,1,.21.339c.04.073.089.145.13.226a3.679,3.679,0,0,1,.138.42.9.9,0,0,1,.065.21,3.025,3.025,0,0,1,.081.67A3.175,3.175,0,0,1,679.459,482.261Zm8.222-7.87-.834,2.777a2.541,2.541,0,0,1-2.419,1.8h-.178a.625.625,0,0,1-.016-.129c-.008-.121-.016-.25-.032-.371a1.664,1.664,0,0,0-.033-.194,2.708,2.708,0,0,0-.073-.355c-.016-.056-.032-.121-.049-.178-.041-.137-.089-.274-.138-.4a1.686,1.686,0,0,0-.081-.177,3.254,3.254,0,0,0-.186-.379.237.237,0,0,0-.032-.065,2.747,2.747,0,0,0,1.651-1.324,4.807,4.807,0,0,0-.105-4.73l-.971-1.639a.368.368,0,0,1,.016-.4.331.331,0,0,1,.275-.137.353.353,0,0,1,.283.121l2.234,2.591A3.384,3.384,0,0,1,687.681,474.391Z" transform="translate(0 -15.536)" fill="#fff"/>
        <path id="패스_233" data-name="패스 233" d="M768.759,449.279c-.252-.57-.59-1.105-.762-1.637h-.071l.543,1.637Z" transform="translate(-79.769 -15.536)" fill="#fff"/>
        <path id="패스_234" data-name="패스 234" d="M788.9,470.382V488a.818.818,0,1,1-1.637,0V470.382a.818.818,0,1,1,1.637,0Z" transform="translate(-94.046 -31.86)" fill="#fff"/>
        <path id="패스_235" data-name="패스 235" d="M770.6,487.464v8.374a.818.818,0,0,1-.823.814.835.835,0,0,1-.584-.238.8.8,0,0,1-.238-.576v-8.374a.8.8,0,0,1,.238-.576.835.835,0,0,1,.584-.238A.818.818,0,0,1,770.6,487.464Z" transform="translate(-80.536 -44.32)" fill="#fff"/>
        <path id="패스_236" data-name="패스 236" d="M696.859,487.464v8.374a.8.8,0,0,1-.238.576.82.82,0,0,1-1.4-.576v-8.374a.82.82,0,0,1,1.4-.576A.8.8,0,0,1,696.859,487.464Z" transform="translate(-26.444 -44.32)" fill="#fff"/>
        <path id="패스_237" data-name="패스 237" d="M678.554,470.382V488a.818.818,0,1,1-1.637,0V470.382a.818.818,0,1,1,1.637,0Z" transform="translate(-12.934 -31.86)" fill="#fff"/>
      </g>
      <text id="_04" data-name="04" transform="translate(643 3936)" fill="#fff" font-size="24" font-family="NotoSans-SemiBold, Noto Sans" font-weight="600" letter-spacing="0.02em"><tspan x="0" y="0">04</tspan></text>
      <text id="임원_면접" data-name="임원 면접" transform="translate(643 3949)" fill="#fff" font-size="24" font-family="MalgunGothicBold, Malgun Gothic" letter-spacing="-0.04em"><tspan x="0" y="26">임원</tspan><tspan y="26" font-family="NotoSans-SemiBold, Noto Sans" font-weight="600"> </tspan><tspan y="26">면접</tspan></text>
      <text id="_2차_임원_면접" data-name="2차 임원 면접" transform="translate(643 4003)" fill="#fff" font-size="16" font-family="NotoSans-Medium, Noto Sans" font-weight="500" letter-spacing="-0.06em"><tspan x="0" y="0">2</tspan><tspan y="0" font-family="MalgunGothic, Malgun Gothic" font-weight="400">차</tspan><tspan y="0"> </tspan><tspan y="0" font-family="MalgunGothic, Malgun Gothic" font-weight="400">임원</tspan><tspan y="0"> </tspan><tspan y="0" font-family="MalgunGothic, Malgun Gothic" font-weight="400">면접</tspan></text>
    </g>
    <g id="그룹_430" data-name="그룹 430" transform="translate(-801.094 886)">
      <path id="패스_686" data-name="패스 686" d="M1044.583,968.959V860.52a29.3,29.3,0,0,0-15.2-25.689c-.061-.028-.116-.065-.179-.1,0,0-93.522-54.078-94.648-54.643a29.077,29.077,0,0,0-26.361.02c-1.093.556-94.6,54.623-94.6,54.623-.063.035-.122.072-.185.107a29.293,29.293,0,0,0-15.181,25.212h-.013V969.745h.026a29.252,29.252,0,0,0,14.036,24.232c.554.336,94.859,54.831,95.834,55.328a29.116,29.116,0,0,0,26.572.011c.986-.508,95.311-55.014,95.877-55.361a29.261,29.261,0,0,0,14.032-24.948v-.048Z" transform="translate(59.604 3019.06)" fill="#003d92" style="mix-blend-mode: multiply;isolation: isolate"/>
      <g id="그룹_389" data-name="그룹 389" transform="translate(-1)">
        <path id="패스_687" data-name="패스 687" d="M285.8,645.57v10.9a2.55,2.55,0,0,1-2.55,2.55,2.491,2.491,0,0,1-1.166-.3v9.756a5.3,5.3,0,0,1-5.278,5.288h-.01a5.292,5.292,0,0,1-5.278-5.288v-9.756a2.492,2.492,0,0,1-1.166.3,2.557,2.557,0,0,1-2.55-2.55v-10.9a2.8,2.8,0,0,1,2.8-2.807h1.107a2.011,2.011,0,0,0,1.779-1.2l.583-1.246a4.72,4.72,0,1,1,5.466,0l.583,1.246a2.017,2.017,0,0,0,1.759,1.2h1.127A2.8,2.8,0,0,1,285.8,645.57Zm-1.384,10.9v-10.9a1.415,1.415,0,0,0-1.414-1.423H281.9a3.4,3.4,0,0,1-3.025-2l-.573-1.206a4.336,4.336,0,0,1-3,0l-.573,1.206a3.389,3.389,0,0,1-3,2H270.6a1.415,1.415,0,0,0-1.414,1.423v10.9a1.166,1.166,0,0,0,2.333,0v-8.5a.692.692,0,0,1,1.384,0v20.511a3.9,3.9,0,0,0,3.212,3.835v-3.331a.687.687,0,1,1,1.374,0v3.331a3.9,3.9,0,0,0,3.213-3.835V647.972a.692.692,0,0,1,1.384,0v8.5a1.166,1.166,0,0,0,2.333,0Zm-4.28-19.977a3.336,3.336,0,1,0-3.331,3.331A3.341,3.341,0,0,0,280.139,636.5Z" transform="translate(638.197 3228.229)" fill="#fff"/>
        <text id="_05" data-name="05" transform="translate(906 3936)" fill="#fff" font-size="24" font-family="NotoSans-SemiBold, Noto Sans" font-weight="600" letter-spacing="0.02em"><tspan x="0" y="0">05</tspan></text>
        <text id="최종_합격" data-name="최종 합격" transform="translate(906 3949)" fill="#fff" font-size="24" font-family="MalgunGothicBold, Malgun Gothic" letter-spacing="-0.04em"><tspan x="0" y="26">최종</tspan><tspan y="26" font-family="NotoSans-SemiBold, Noto Sans" font-weight="600"> </tspan><tspan y="26">합격</tspan></text>
        <text id="최종_합격_후_출근" data-name="최종 합격 후 출근" transform="translate(906 4003)" fill="#fff" font-size="16" font-family="MalgunGothic, Malgun Gothic" letter-spacing="-0.06em"><tspan x="0" y="0">최종</tspan><tspan y="0" font-family="NotoSans-Medium, Noto Sans" font-weight="500"> </tspan><tspan y="0">합격</tspan><tspan y="0" font-family="NotoSans-Medium, Noto Sans" font-weight="500"> </tspan><tspan y="0">후</tspan><tspan y="0" font-family="NotoSans-Medium, Noto Sans" font-weight="500"> </tspan><tspan y="0">출근</tspan></text>
      </g>
    </g>
  </g>
</svg>
