<svg id="그룹_319" data-name="그룹 319" xmlns="http://www.w3.org/2000/svg" width="28.075" height="48" viewBox="0 0 28.075 48">
  <g id="그룹_119" data-name="그룹 119" transform="translate(3.751 20.869)">
    <path id="패스_276" data-name="패스 276" d="M512.4,493.056l-1.393,3.6-2.7,2.741-3.494-3.544,2.366-2.4a7.694,7.694,0,0,1-1.642-.643l-1.861,1.889-2.152-2.185a7.807,7.807,0,0,1-1.543.746l2.553,2.594-3.492,3.542-2.7-2.738-1.265-3.259a7.825,7.825,0,0,1-2.107-.974l1.909,4.92a.571.571,0,0,0,.032.087l1.882,4.852a.187.187,0,0,0,.013.035l.027.068a.039.039,0,0,0,.005.016l2.569,6.625a.211.211,0,0,0,.011.03l.024.065c0,.005,0,.008,0,.008l3.478,8.972a.8.8,0,0,0,1.494,0l3.459-8.929.008-.022.051-.125a.009.009,0,0,1,0-.005l2.569-6.635.032-.079.008-.024,1.858-4.793.008-.019.051-.128a.021.021,0,0,0,0-.011l2.264-5.843A7.973,7.973,0,0,1,512.4,493.056Zm-8.726,3.954,3.492,3.544-3.489,3.539-3.494-3.542Zm-5.8,3.577-.048-.119.083.084Zm.642,1.661.532-.54,3.492,3.544-2.053,2.082Zm5.165,13.325-2.55-6.578,2.548-2.586,2.55,2.589Zm3.192-8.239-2.053-2.084,3.489-3.539.535.54Zm2.615-6.744-.037-.038.083-.084Z" transform="translate(-492.979 -491.49)" fill="#062031"/>
  </g>
  <g id="그룹_120" data-name="그룹 120" transform="translate(1.634 8.838)">
    <path id="패스_277" data-name="패스 277" d="M530.629,488.85c.076.092.155.182.236.271.079-.09.157-.179.233-.271Z" transform="translate(-518.294 -477.115)" fill="#00275c"/>
    <path id="패스_278" data-name="패스 278" d="M498.23,452.137a6.522,6.522,0,0,1-.046.768,6.4,6.4,0,0,1-.437,1.693,6.558,6.558,0,0,1-.586,1.11q-.191.289-.407.554a6.544,6.544,0,0,1-1.126,1.083,6.2,6.2,0,0,1-.852.543,6.356,6.356,0,0,1-1.688.621,6.5,6.5,0,0,1-4.475-.632,6.525,6.525,0,0,1,3.094-12.267,6.253,6.253,0,0,1,.877.06,6.519,6.519,0,0,1,4.171,2.337,6.5,6.5,0,0,1,1.417,3.251A6.269,6.269,0,0,1,498.23,452.137Z" transform="translate(-485.179 -445.61)" fill="none"/>
  </g>
  <g id="그룹_121" data-name="그룹 121" transform="translate(0 0)">
    <path id="패스_279" data-name="패스 279" d="M530.629,488.85c.076.092.155.182.236.271.079-.09.157-.179.233-.271Z" transform="translate(-516.825 -468.135)" fill="#00275c"/>
    <path id="패스_280" data-name="패스 280" d="M502.545,420.618a8.059,8.059,0,0,0-16.089-.716,8.182,8.182,0,0,0-3.589,14.983,7.979,7.979,0,0,0,8.578.09,8.31,8.31,0,0,0,1.754-1.468c-.081-.09-.158-.179-.233-.271h.464c-.075.092-.153.182-.231.271a8.088,8.088,0,0,0,2.272,1.764,7.734,7.734,0,0,0,1.647.643,7.97,7.97,0,0,0,5.239-.4,8,8,0,0,0,2.344-1.566,8.2,8.2,0,0,0-2.157-13.333Zm-8.916,8.177a6.461,6.461,0,0,1-.432,1.693,6.585,6.585,0,0,1-.579,1.11q-.189.289-.4.554a6.5,6.5,0,0,1-1.113,1.083,6.125,6.125,0,0,1-.842.543,6.384,6.384,0,0,1-3.034.771,6.337,6.337,0,0,1-3.058-.782,6.542,6.542,0,0,1,2.3-12.221,6.374,6.374,0,0,1,.759-.046,6.111,6.111,0,0,1,.866.06,6.5,6.5,0,0,1,5.1,4,6.5,6.5,0,0,1,.418,1.585,6.344,6.344,0,0,1,.059.879A6.6,6.6,0,0,1,493.628,428.8Zm-.429-6.253a8.024,8.024,0,0,0-5.121-2.632,6.441,6.441,0,0,1,12.822.147,7.763,7.763,0,0,0-1.733-.193A8,8,0,0,0,493.2,422.542Zm11.355,9.067a6.553,6.553,0,0,1-1.508,1.626,6.389,6.389,0,0,1-3.879,1.314q-.338,0-.668-.033a6.373,6.373,0,0,1-1.819-.472,6.456,6.456,0,0,1-2.5-1.889c.107-.182.207-.366.3-.556a8.087,8.087,0,0,0,.778-2.793c.024-.255.038-.516.038-.779a7.694,7.694,0,0,0-.048-.866,8.087,8.087,0,0,0-1.065-3.267,6.415,6.415,0,0,1,4.989-2.394,6.336,6.336,0,0,1,1.679.225,6.18,6.18,0,0,1,1.526.643,6.556,6.556,0,0,1,2.181,9.241Z" transform="translate(-479.159 -412.52)" fill="#00275c"/>
    <path id="패스_281" data-name="패스 281" d="M546.724,452.137a6.468,6.468,0,0,1-1.077,3.582,6.585,6.585,0,0,1-1.525,1.626,6.513,6.513,0,0,1-3.924,1.314q-.342,0-.676-.033a6.511,6.511,0,0,1-1.84-.472,6.525,6.525,0,0,1-2.532-1.889c.108-.182.209-.366.3-.556a8.019,8.019,0,0,0,.787-2.793c.024-.255.038-.516.038-.779a7.616,7.616,0,0,0-.049-.866A8.021,8.021,0,0,0,535.149,448a6.519,6.519,0,0,1,6.747-2.168,6.291,6.291,0,0,1,1.544.643A6.517,6.517,0,0,1,546.724,452.137Z" transform="translate(-520.283 -436.63)" fill="none"/>
  </g>
</svg>
