<svg xmlns="http://www.w3.org/2000/svg" width="372" height="222" viewBox="0 0 372 222">
  <g id="그룹_457" data-name="그룹 457" transform="translate(-378 -994)">
    <g id="그룹_49" data-name="그룹 49" transform="translate(0 -85)">
      <g id="사각형_84" data-name="사각형 84" transform="translate(378 1079)" fill="#fff" stroke="#707070" stroke-width="1">
        <rect width="372" height="222" stroke="none"/>
        <rect x="0.5" y="0.5" width="371" height="221" fill="none"/>
      </g>
    </g>
    <text id="복리후생" transform="translate(576 1083)" fill="#333" font-size="24" font-family="MalgunGothicBold, Malgun Gothic" letter-spacing="-0.05em"><tspan x="0" y="0">복리후생</tspan></text>
    <text id="_4대보험_퇴직금_야근수당_연차수당" data-name=" 4대보험, 퇴직금 
야근수당, 연차수당" transform="translate(576 1114)" fill="#333" font-size="16" font-family="NotoSans-Medium, Noto Sans" font-weight="500" letter-spacing="-0.08em"><tspan x="0" y="0" xml:space="preserve"> 4</tspan><tspan y="0" font-family="MalgunGothic, Malgun Gothic" font-weight="400">대보험</tspan><tspan y="0">, </tspan><tspan y="0" font-family="MalgunGothic, Malgun Gothic" font-weight="400">퇴직금</tspan><tspan y="0" letter-spacing="-0.06em"> </tspan><tspan font-family="MalgunGothic, Malgun Gothic" font-weight="400" letter-spacing="-0.06em"><tspan x="0" y="28">야근수당</tspan><tspan y="28" font-family="NotoSans-Medium, Noto Sans" font-weight="500">, </tspan><tspan y="28">연차수당</tspan></tspan></text>
    <g id="그룹_95" data-name="그룹 95" transform="translate(253.581 923.62)">
      <g id="그룹_93" data-name="그룹 93" transform="translate(206.419 152.38)">
        <path id="패스_251" data-name="패스 251" d="M250.583,158.868h-7.694v-.718a1.021,1.021,0,0,0-1.02-1.02h-7.176a5.773,5.773,0,0,0-11.364,0h-7.173a1.019,1.019,0,0,0-1.023,1.02v.718h-7.691a1.018,1.018,0,0,0-1.023,1.013V211.36a1.019,1.019,0,0,0,1.023,1.02h43.141a1.019,1.019,0,0,0,1.02-1.02V159.881A1.017,1.017,0,0,0,250.583,158.868Zm-33.41.3h7.085a1.018,1.018,0,0,0,1.02-1.02,3.732,3.732,0,1,1,7.464,0,1.024,1.024,0,0,0,1.02,1.02h7.085V165.3H217.173Zm-1.016,8.159h25.712a1.019,1.019,0,0,0,1.02-1.013v-.84h.817v39.2H214.9v-39.2h.23v.84A1.018,1.018,0,0,0,216.156,167.328Zm33.4,43.012h-41.1V160.908h6.675v2.528h-1.25a1.022,1.022,0,0,0-1.023,1.02V205.7a1.024,1.024,0,0,0,1.023,1.023h30.842a1.024,1.024,0,0,0,1.023-1.023v-41.24a1.022,1.022,0,0,0-1.023-1.02h-1.836v-2.528h6.671Z" transform="translate(-206.419 -152.38)" fill="#062031"/>
        <path id="패스_252" data-name="패스 252" d="M261.8,163.151v6.135h-23.64v-6.135h7.075a1.018,1.018,0,0,0,1.018-1.021,3.727,3.727,0,1,1,7.454,0,1.024,1.024,0,0,0,1.018,1.021Z" transform="translate(-227.389 -156.351)" fill="none"/>
      </g>
      <g id="그룹_94" data-name="그룹 94" transform="translate(221.086 173.471)">
        <path id="패스_253" data-name="패스 253" d="M266.749,214.839a1.029,1.029,0,0,0-1.418.3l-2.579,3.956a8.193,8.193,0,0,0-10.078.394l-.278-.383a1.022,1.022,0,1,0-1.656,1.2l.523.723a8.217,8.217,0,1,0,13.009-.516l2.776-4.252A1.03,1.03,0,0,0,266.749,214.839Zm-8.782,4.757a6.127,6.127,0,0,1,3.665,1.211l-3.794,5.819-3.96-5.473A6.131,6.131,0,0,1,257.967,219.6Zm0,12.348a6.171,6.171,0,0,1-5.416-9.138l4.506,6.216a1.012,1.012,0,0,0,.825.431l.027-.007a1,1,0,0,0,.828-.461l4.347-6.657a6.17,6.17,0,0,1-5.117,9.616Z" transform="translate(-249.749 -214.673)" fill="#00275c"/>
      </g>
    </g>
  </g>
</svg>
