<svg xmlns="http://www.w3.org/2000/svg" width="217.638" height="219.165" viewBox="0 0 217.638 219.165">
  <defs>
    <style>
      .cls-1 {
        fill: #005cd3;
      }

      .cls-2 {
        opacity: 0.7;
        mix-blend-mode: multiply;
        isolation: isolate;
      }

      .cls-3 {
        fill: #fff;
      }

      .cls-4 {
        fill: #fcf4f4;
      }

      .cls-5 {
        fill: #f9e8e9;
      }

      .cls-6 {
        fill: #f6ddde;
      }

      .cls-7 {
        fill: #f2d2d3;
      }

      .cls-8 {
        fill: #efc6c8;
      }

      .cls-9 {
        fill: #ecbbbd;
      }

      .cls-10 {
        fill: #00275c;
      }

      .cls-11 {
        fill: #082133;
      }
    </style>
  </defs>
  <g id="그룹_235" data-name="그룹 235" transform="translate(-970.186 -1858)">
    <path id="패스_112" data-name="패스 112" class="cls-1" d="M389.256,861.112a108.819,108.819,0,1,0-108.817-108.82v108.82Z" transform="translate(689.747 1214.526)"/>
    <g id="그룹_59" data-name="그룹 59" class="cls-2" transform="translate(980.952 1874.791)">
      <path id="패스_115" data-name="패스 115" class="cls-3" d="M485.945,751c0-55.883-45.093-101.188-100.724-101.188S284.5,695.113,284.5,751s45.093,101.185,100.721,101.185S485.945,806.876,485.945,751Z" transform="translate(-284.5 -649.808)"/>
      <path id="패스_116" data-name="패스 116" class="cls-4" d="M483.434,749.821c0-54.984-44.4-99.56-99.173-99.56s-99.168,44.576-99.168,99.56,44.4,99.557,99.168,99.557,99.173-44.576,99.173-99.557Z" transform="translate(-283.521 -649.06)"/>
      <path id="패스_117" data-name="패스 117" class="cls-5" d="M480.924,748.647c0-54.083-43.7-97.933-97.622-97.933s-97.617,43.85-97.617,97.933,43.7,97.93,97.617,97.93,97.622-43.847,97.622-97.93Z" transform="translate(-282.544 -648.312)"/>
      <path id="패스_118" data-name="패스 118" class="cls-6" d="M478.417,747.47a96.07,96.07,0,1,0-96.074,96.3,96.189,96.189,0,0,0,96.074-96.3Z" transform="translate(-281.566 -647.563)"/>
      <path id="패스_119" data-name="패스 119" class="cls-7" d="M475.906,746.3a94.518,94.518,0,1,0-94.521,94.675A94.6,94.6,0,0,0,475.906,746.3Z" transform="translate(-280.587 -646.815)"/>
      <path id="패스_120" data-name="패스 120" class="cls-8" d="M473.4,745.121a92.967,92.967,0,1,0-92.97,93.047,93.007,93.007,0,0,0,92.97-93.047Z" transform="translate(-279.61 -646.067)"/>
      <path id="패스_121" data-name="패스 121" class="cls-9" d="M470.887,743.946a91.416,91.416,0,1,0-91.419,91.419,91.418,91.418,0,0,0,91.419-91.419Z" transform="translate(-278.633 -645.319)"/>
    </g>
    <circle id="타원_38" data-name="타원 38" class="cls-3" cx="90.659" cy="90.659" r="90.659" transform="translate(988.5 1875.506)"/>
    <g id="그룹_67" data-name="그룹 67" transform="translate(704.177 1840.644)">
      <path id="패스_153" data-name="패스 153" class="cls-10" d="M351.443,178.682V156.418h12.078v22.263a1.536,1.536,0,0,1-1.158,1.487h3.358a3.922,3.922,0,0,0,.294-1.487V145.618l5.112,9.81a4.118,4.118,0,0,0,7.568-3.182c-.05-.138-.1-.276-.163-.413l-3.195-7.1-4.16-9.259a5.607,5.607,0,0,0-5.112-3.32h-3.683a1.536,1.536,0,0,0-.251.025,1.253,1.253,0,0,0,.251,2.48h3.683a3.113,3.113,0,0,1,2.844,1.829l7.355,16.375a1.631,1.631,0,0,1-1.491,2.293,1.639,1.639,0,0,1-1.441-.877l-7.455-14.321a1.247,1.247,0,0,0-2.355.576v13.381H351.443V140.532a1.247,1.247,0,1,0-2.493,0V155.14a1.817,1.817,0,0,1-3.633,0V137.763a3.117,3.117,0,0,1,3.12-3.107h4.147a1.253,1.253,0,0,0,0-2.506h-4.147a5.62,5.62,0,0,0-5.613,5.613V155.14a4.31,4.31,0,0,0,4.31,4.31,4.192,4.192,0,0,0,1.816-.4v19.632a3.937,3.937,0,0,0,.281,1.487h3.363A1.538,1.538,0,0,1,351.443,178.682Z" transform="translate(0 -25.702)"/>
      <path id="패스_154" data-name="패스 154" class="cls-10" d="M379.33,204.3a1.257,1.257,0,0,0-1.253,1.253v19.328h2.493V205.558A1.246,1.246,0,0,0,379.33,204.3Z" transform="translate(-22.222 -70.419)"/>
      <path id="패스_155" data-name="패스 155" class="cls-11" d="M402.713,159.049a3.97,3.97,0,0,0,1.755.4,4.252,4.252,0,0,0,4.192-4.31V137.763a5.544,5.544,0,0,0-5.46-5.613h-4.022a1.46,1.46,0,0,0-.244.025,1.256,1.256,0,0,0,.244,2.48H403.2a3.068,3.068,0,0,1,3.035,3.107V155.14a1.762,1.762,0,1,1-3.522,0V140.532a1.213,1.213,0,1,0-2.425,0v13.381H388.54V140.532a1.254,1.254,0,0,0-.926-1.215,1.194,1.194,0,0,0-1.365.639l-5.508,10.863a1.235,1.235,0,0,0,.512,1.679,1.181,1.181,0,0,0,1.633-.526l3.218-6.352v33.063a4.028,4.028,0,0,0,.3,1.541H366.945c.007-.018.012-.036.019-.054H363.7a1.434,1.434,0,0,1-.372.054h-3.169v-.054h-2.425v.054h-3.168a1.4,1.4,0,0,1-.368-.054h-3.271c.007.018.012.036.019.054h-3.936a1.247,1.247,0,0,0,0,2.493h59.35a1.247,1.247,0,0,0,0-2.493h-3.949a4.035,4.035,0,0,0,.3-1.541Zm-2.425,19.632a1.52,1.52,0,0,1-1.5,1.541h-3.169V160.841a1.213,1.213,0,1,0-2.425,0v19.382h-3.169a1.517,1.517,0,0,1-1.487-1.541V156.418h11.748Z" transform="translate(-1.837 -25.702)"/>
      <path id="패스_156" data-name="패스 156" class="cls-11" d="M466.428,93.5a6.634,6.634,0,0,1,1.341,13.13,6.851,6.851,0,0,1-1.341.138,6.634,6.634,0,1,1,0-13.268Zm4.135,6.628a4.141,4.141,0,1,0-4.135,4.147A4.139,4.139,0,0,0,470.563,100.13Z" transform="translate(-74.251 0)"/>
      <path id="패스_157" data-name="패스 157" class="cls-11" d="M444.3,132.15a1.253,1.253,0,0,1,0,2.506H440.62a3.113,3.113,0,0,0-2.844,1.829l-3.408,7.567a1.229,1.229,0,0,1-1.641.627,1.324,1.324,0,0,1-.627-.627,1.276,1.276,0,0,1,0-1.027l3.4-7.555a5.625,5.625,0,0,1,5.124-3.32Z" transform="translate(-56.407 -24.44)"/>
      <path id="패스_158" data-name="패스 158" class="cls-10" d="M370.55,93.5a6.634,6.634,0,0,1,1.34,13.13,6.843,6.843,0,0,1-1.34.138,6.634,6.634,0,1,1,0-13.268Zm4.135,6.628a4.135,4.135,0,1,0-4.135,4.147A4.139,4.139,0,0,0,374.685,100.13Z" transform="translate(-13.068 0)"/>
    </g>
  </g>
</svg>
