<svg xmlns="http://www.w3.org/2000/svg" width="217.638" height="219.165" viewBox="0 0 217.638 219.165">
  <defs>
    <style>
      .cls-1 {
        fill: #002e7e;
      }

      .cls-2 {
        opacity: 0.7;
        mix-blend-mode: multiply;
        isolation: isolate;
      }

      .cls-3 {
        fill: #fff;
      }

      .cls-4 {
        fill: #fcf9f4;
      }

      .cls-5 {
        fill: #faf3e9;
      }

      .cls-6 {
        fill: #f8eede;
      }

      .cls-7 {
        fill: #f5e8d3;
      }

      .cls-8 {
        fill: #f3e2c8;
      }

      .cls-9 {
        fill: #f0dcbd;
      }

      .cls-10 {
        fill: #082133;
      }

      .cls-11 {
        fill: #00275c;
      }
    </style>
  </defs>
  <g id="그룹_234" data-name="그룹 234" transform="translate(-731.99 -1858)">
    <path id="패스_111" data-name="패스 111" class="cls-1" d="M299.407,861.112a108.819,108.819,0,1,1,108.818-108.82v108.82Z" transform="translate(541.403 1214.526)"/>
    <g id="그룹_60" data-name="그룹 60" class="cls-2" transform="translate(741.688 1874.791)">
      <path id="패스_122" data-name="패스 122" class="cls-3" d="M395.688,751c0-55.883-45.093-101.188-100.724-101.188S194.245,695.113,194.245,751s45.093,101.185,100.719,101.185S395.688,806.876,395.688,751Z" transform="translate(-194.245 -649.808)"/>
      <path id="패스_123" data-name="패스 123" class="cls-4" d="M393.178,749.821c0-54.984-44.4-99.56-99.173-99.56s-99.168,44.576-99.168,99.56,44.4,99.557,99.168,99.557,99.173-44.576,99.173-99.557Z" transform="translate(-193.268 -649.06)"/>
      <path id="패스_124" data-name="패스 124" class="cls-5" d="M390.671,748.647c0-54.083-43.707-97.933-97.625-97.933s-97.617,43.85-97.617,97.933,43.7,97.93,97.617,97.93,97.625-43.847,97.625-97.93Z" transform="translate(-192.29 -648.312)"/>
      <path id="패스_125" data-name="패스 125" class="cls-6" d="M388.16,747.47a96.069,96.069,0,1,0-96.072,96.3,96.187,96.187,0,0,0,96.072-96.3Z" transform="translate(-191.311 -647.563)"/>
      <path id="패스_126" data-name="패스 126" class="cls-7" d="M385.65,746.3a94.518,94.518,0,1,0-94.521,94.675A94.6,94.6,0,0,0,385.65,746.3Z" transform="translate(-190.334 -646.815)"/>
      <path id="패스_127" data-name="패스 127" class="cls-8" d="M383.143,745.121a92.969,92.969,0,1,0-92.973,93.047,93.009,93.009,0,0,0,92.973-93.047Z" transform="translate(-189.356 -646.067)"/>
      <path id="패스_128" data-name="패스 128" class="cls-9" d="M380.633,743.946a91.418,91.418,0,1,0-91.419,91.419,91.419,91.419,0,0,0,91.419-91.419Z" transform="translate(-188.379 -645.319)"/>
    </g>
    <circle id="타원_39" data-name="타원 39" class="cls-3" cx="90.659" cy="90.659" r="90.659" transform="translate(749.234 1875.506)"/>
    <g id="그룹_66" data-name="그룹 66" transform="translate(-1.713 1840.99)">
      <path id="패스_147" data-name="패스 147" class="cls-10" d="M881.173,153.157h-2.791v-.2h-2.425v.2h-2.291a1.237,1.237,0,0,0-1.219,1.256v8.705H861.407a1.227,1.227,0,0,0-1.206,1.256v2.665h-2.425a4.329,4.329,0,0,0,.244-2.487l-2.51-12.4a4.314,4.314,0,0,0-2.523-3.134l-5.874-2.487,1.669-4.9.853.99a1.161,1.161,0,0,0,.9.419h9.688a3.886,3.886,0,0,0,0-7.766h-6.471l-3.9-5.685a1.663,1.663,0,0,0-.195-.216,5.234,5.234,0,0,0-2.035-1.37,5.332,5.332,0,0,0-4.338.178,5.638,5.638,0,0,0-2.9,3.375l-.037.089-4.606,1.739a3.059,3.059,0,0,0-1.864,2.106,3.191,3.191,0,0,0,.609,2.792l2.632,3.223-1.365,4.162a5.962,5.962,0,0,0,2.389,6.9l-.914,6.142a.307.307,0,0,1-.073.14l-6.312,7.36-.061.063a4.156,4.156,0,0,0-.5,4.124h-3.034a1.227,1.227,0,0,0-1.206,1.256v7.792a1.238,1.238,0,0,0,1.206,1.269h53.925a1.249,1.249,0,0,0,1.219-1.269V154.413A1.237,1.237,0,0,0,881.173,153.157Zm-44.834-16.51a.575.575,0,0,1-.11-.508.556.556,0,0,1,.329-.381l2.791-1.041-1.316,4.01Zm1.706,9.848,4.631-14.124a3.206,3.206,0,0,1,1.645-1.9,2.934,2.934,0,0,1,1.341-.317,3.134,3.134,0,0,1,1.109.216,2.749,2.749,0,0,1,1.182.812l4.18,6.091a1.184,1.184,0,0,0,.987.533h7.1a1.359,1.359,0,0,1,0,2.716h-9.152s-1.84-2.145-1.852-2.17l-2.742-3.185a1.178,1.178,0,0,0-1.706-.1,1.3,1.3,0,0,0-.1,1.789l2.266,2.639-2.51,7.335a1.3,1.3,0,0,0,.695,1.6l6.946,2.944a1.782,1.782,0,0,1,1.06,1.307l2.51,12.4a1.636,1.636,0,0,1-.28,1.32,1.515,1.515,0,0,1-1.133.647,1.59,1.59,0,0,1-1.67-1.307l-1.791-9.213a2.744,2.744,0,0,0-1.645-2.056l-9.2-3.769A3.384,3.384,0,0,1,838.045,146.495Zm12.393,20.545h-4.874a1.238,1.238,0,0,0-1.207,1.269V170.4h-6.581l5.959-7.588a7.574,7.574,0,0,0,1.547-3.744l.427-3.286,2.523,1.04a.231.231,0,0,1,.158.2l1.791,9.213A4.378,4.378,0,0,0,850.439,167.04Zm-17.755.825,6.288-7.322a2.834,2.834,0,0,0,.646-1.434l.816-5.482,2.949,1.206-.5,3.909a5.159,5.159,0,0,1-1.024,2.475l-6.715,8.553a1.554,1.554,0,0,1-1.012.622,1.512,1.512,0,0,1-1.133-.3,1.647,1.647,0,0,1-.317-2.221Zm47.283,10.329h-51.5v-5.266h17.1a1.248,1.248,0,0,0,1.219-1.269v-2.081h14.624a1.248,1.248,0,0,0,1.219-1.269v-2.665h11.041a1.248,1.248,0,0,0,1.219-1.269v-8.692h5.082Z" transform="translate(-10.494 -23.564)"/>
      <path id="패스_148" data-name="패스 148" class="cls-11" d="M948.287,132.512v-12.5a1.251,1.251,0,0,0-1.256-1.256,1.27,1.27,0,0,0-1.269,1.256l-8.946,5.533a1.262,1.262,0,0,0,0,2.145l8.946,5.533V147.7h2.525Zm-2.525-2.272-5.875-3.629,5.875-3.629Z" transform="translate(-80.564 -16.058)"/>
      <path id="패스_149" data-name="패스 149" class="cls-10" d="M877.382,93.156a5.774,5.774,0,1,1-5.774,5.774A5.778,5.778,0,0,1,877.382,93.156Zm3.248,5.774a3.249,3.249,0,1,0-3.248,3.249A3.255,3.255,0,0,0,880.631,98.93Z" transform="translate(-39.556 0)"/>
      <path id="패스_150" data-name="패스 150" class="cls-10" d="M821.056,159.678a1.263,1.263,0,1,1,0,2.525H810.231a1.263,1.263,0,0,1,0-2.525Z" transform="translate(0 -41.851)"/>
      <path id="패스_151" data-name="패스 151" class="cls-10" d="M824.135,176.25a1.263,1.263,0,1,1,0,2.525h-8.883a1.263,1.263,0,1,1,0-2.525Z" transform="translate(-3.079 -52.277)"/>
      <path id="패스_152" data-name="패스 152" class="cls-10" d="M826,192.856a1.263,1.263,0,1,1,0,2.525H818.27a1.263,1.263,0,0,1,0-2.525Z" transform="translate(-4.943 -62.725)"/>
    </g>
  </g>
</svg>
