<svg xmlns="http://www.w3.org/2000/svg" width="372" height="222" viewBox="0 0 372 222"><g transform="translate(-1170 -1244)"><g transform="translate(1170 1244)" fill="#fff" stroke="#707070" stroke-width="1"><rect width="372" height="222" stroke="none"/><rect x="0.5" y="0.5" width="371" height="221" fill="none"/></g><text transform="translate(1368 1333)" fill="#333" font-size="24" font-family="MalgunGothicBold, Malgun Gothic" letter-spacing="-0.05em"><tspan x="0" y="0">기타</tspan></text><text transform="translate(1368 1364)" fill="#333" font-size="16" font-family="MalgunGothic, Malgun Gothic" letter-spacing="-0.08em"><tspan x="0" y="0">경조사</tspan><tspan y="0" font-family="NotoSans-Medium, Noto Sans" font-weight="500"> </tspan><tspan y="0">지원</tspan><tspan y="0" font-family="NotoSans-Medium, Noto Sans" font-weight="500"></tspan><tspan x="0" y="28">웰컴키트</tspan><tspan y="28" font-family="NotoSans-Medium, Noto Sans" font-weight="500"> </tspan></text><g transform="translate(1420.043 1357.715)"><g transform="translate(-115.689 -10.994)"><path d="M-79.416-.219a.6.6,0,0,0-.105-.048.809.809,0,0,1,.119.058Zm.048.027L-79.4-.209c.034.02.068.041.1.061A.472.472,0,0,0-79.368-.192Zm.469.663a.162.162,0,0,1,.011.058V.515C-78.892.5-78.9.484-78.9.471Z" transform="translate(79.521 0.267)" fill="#231f20"/></g><g transform="translate(-175.043 -21.22)"><path d="M-92.061-6.441a.6.6,0,0,0-.105-.048.808.808,0,0,1,.119.058Zm.048.027-.034-.017c.034.02.068.041.1.061A.472.472,0,0,0-92.013-6.414Zm.469.663a.162.162,0,0,1,.011.058v-.014C-91.537-5.721-91.54-5.738-91.544-5.752ZM-108.8-16.612h-3.941l3.37,2.047h3.941Z" transform="translate(151.52 16.612)" fill="#231f20"/><path d="M-115.057-2.31a.164.164,0,0,0-.011-.059.472.472,0,0,0-.034-.12.274.274,0,0,0-.017-.051c-.011-.027-.024-.055-.037-.082a.816.816,0,0,0-.089-.144.7.7,0,0,0-.075-.089.379.379,0,0,0-.055-.055c-.03-.027-.062-.052-.1-.079,0,0,0,0,0,0-.031-.021-.065-.041-.1-.062a.809.809,0,0,0-.119-.058.6.6,0,0,1,.106.048L-123.4-7.833v2.415l3.657,2.23H-123.4v2.062h3.663L-123.4,1.109l-2.057,1.257-19.588,11.95L-164.632,2.363l-2.057-1.254-3.661-2.234h3.661V-3.187h-3.657l3.657-2.23V-7.833L-174.5-3.064l-.017.01a.156.156,0,0,1-.031.017l-.034.024c-.021.014-.041.027-.058.041a1.4,1.4,0,0,0-.106.1.944.944,0,0,0-.137.175.28.28,0,0,0-.024.041.4.4,0,0,0-.041.079c-.007.014-.011.027-.017.041l-.01.024a.65.65,0,0,0-.027.089.046.046,0,0,0-.007.024.271.271,0,0,0-.014.076.029.029,0,0,0,0,.024.078.078,0,0,0,0,.027.677.677,0,0,0-.01.12V33.2a1.026,1.026,0,0,0,1.026,1.031h57.946a1.028,1.028,0,0,0,1.027-1.031V-2.156A.782.782,0,0,0-115.057-2.31ZM-117.1,32.172h-55.889V-.32l6.3,3.844,2.057,1.257,19.053,11.624a1.022,1.022,0,0,0,1.071,0l19.053-11.628,2.057-1.254,6.3-3.844Z" transform="translate(175.043 13.27)" fill="#0c2a40"/></g><g transform="translate(-172.996 -21.22)"><path d="M-108.8-16.612h-3.941l3.37,2.047h3.941Z" transform="translate(149.425 16.612)" fill="#18336e"/><path d="M-97.425-15.588V-2.3l-2.051,1.248V-14.565h-3.53l-3.37-2.047h7.926A1.025,1.025,0,0,1-97.425-15.588Z" transform="translate(147.051 16.612)" fill="#18336e"/><path d="M-124.54-14.565h-28.053l3.37-2.047h21.313Z" transform="translate(164.534 16.612)" fill="#18336e"/><path d="M-152.651-16.612l-3.37,2.047h-3.526v13.51L-161.6-2.3V-15.588a1.022,1.022,0,0,1,1.023-1.024Z" transform="translate(167.878 16.612)" fill="#18336e"/><path d="M-122.134,8.06l-2.058,1.256L-143.249,20.97a1.02,1.02,0,0,1-1.071,0L-163.378,9.32l-2.057-1.26-6.3-3.852V36.771h55.9V4.208Zm2.552,25.445h-19.4a1.03,1.03,0,0,1-1.031-1.03,1.033,1.033,0,0,1,1.031-1.037h19.4a1.033,1.033,0,0,1,1.03,1.037A1.03,1.03,0,0,1-119.582,33.505Zm0-4.395H-131.7a1.035,1.035,0,0,1-1.03-1.037,1.029,1.029,0,0,1,1.03-1.033h12.113a1.03,1.03,0,0,1,1.03,1.033A1.035,1.035,0,0,1-119.582,29.11Z" transform="translate(171.738 8.686)" fill="none"/><path d="M-158.287-13.307V.2l19.622,11.864L-119.042.206V-13.307ZM-128.98-3.259c-.417,4.353-4.053,6.9-7,8.977-.714.5-1.384.966-1.968,1.431a1.026,1.026,0,0,1-.643.225,1.007,1.007,0,0,1-.632-.214c-.547-.422-1.158-.857-1.808-1.312-3.024-2.129-6.742-4.754-7.17-9.107q-.04-.408-.04-.836a5.678,5.678,0,0,1,.129-1.211A5.754,5.754,0,0,1-142.5-9.812a5.745,5.745,0,0,1,3.906,1.53,5.761,5.761,0,0,1,3.909-1.53,5.753,5.753,0,0,1,5.615,4.506,5.679,5.679,0,0,1,.13,1.211A8.343,8.343,0,0,1-128.98-3.259Z" transform="translate(166.617 15.354)" fill="none"/></g><g transform="translate(-154.574 -15.568)"><path d="M-123.071-3.157a5.731,5.731,0,0,0-5.587-4.506,5.717,5.717,0,0,0-3.89,1.53,5.7,5.7,0,0,0-3.886-1.53,5.732,5.732,0,0,0-5.587,4.506,5.7,5.7,0,0,0-.129,1.211q0,.428.04.836c.425,4.353,4.125,6.978,7.134,9.107.647.455,1.255.891,1.8,1.312a1,1,0,0,0,.629.214,1.018,1.018,0,0,0,.64-.225c.582-.466,1.248-.931,1.958-1.431,2.934-2.074,6.552-4.624,6.967-8.977q.041-.408.041-.836A5.706,5.706,0,0,0-123.071-3.157Zm-8.059,9.351c-.5.35-.972.68-1.421,1.02-.4-.289-.809-.585-1.241-.891-2.734-1.935-5.808-4.111-6.253-7.433a6.164,6.164,0,0,1-.058-.836,3.559,3.559,0,0,1,.207-1.211,3.671,3.671,0,0,1,3.461-2.455,3.671,3.671,0,0,1,3.04,1.618,1.018,1.018,0,0,0,.847.446,1.033,1.033,0,0,0,.85-.446,3.667,3.667,0,0,1,3.04-1.618A3.671,3.671,0,0,1-125.2-3.157a3.56,3.56,0,0,1,.207,1.211,6.07,6.07,0,0,1-.055.836C-125.481,2.208-128.471,4.313-131.13,6.194Z" transform="translate(142.15 7.663)" fill="#18336e"/><path d="M-123.734-.686a6.072,6.072,0,0,1-.054.836c-.435,3.319-3.424,5.424-6.083,7.3-.5.35-.972.68-1.421,1.02-.4-.289-.809-.585-1.241-.891-2.734-1.935-5.808-4.111-6.253-7.433a6.167,6.167,0,0,1-.058-.836,3.559,3.559,0,0,1,.207-1.211,3.671,3.671,0,0,1,3.461-2.455,3.671,3.671,0,0,1,3.04,1.618,1.018,1.018,0,0,0,.847.446,1.033,1.033,0,0,0,.85-.446,3.667,3.667,0,0,1,3.04-1.618A3.671,3.671,0,0,1-123.942-1.9,3.56,3.56,0,0,1-123.734-.686Z" transform="translate(140.892 6.403)" fill="none"/></g><g transform="translate(-141.185 18.957)"><path d="M-119.033,49.413h0Z" transform="translate(120.059 -48.384)" fill="#fff"/><path d="M-99.3,48.779a1.023,1.023,0,0,1-1.027,1.02h-19.331a1.023,1.023,0,0,1-1.027-1.02,1.026,1.026,0,0,1,1.027-1.027h19.331A1.026,1.026,0,0,1-99.3,48.779Z" transform="translate(120.689 -47.752)" fill="#0c2a40"/></g><g transform="translate(-157.574 -28.715)"><path d="M-107.311,42.374h0Z" transform="translate(131.985 1.653)" fill="#fff"/><path d="M-121.9-21.22h-3.941l-8.685-5.277-8.684,5.277h-3.944l12.095-7.348a1.039,1.039,0,0,1,1.068,0Z" transform="translate(147.152 28.715)" fill="#0c2a40"/><path d="M-94.841,41.742a1.028,1.028,0,0,1-1.027,1.027h-12.071a1.028,1.028,0,0,1-1.027-1.027,1.023,1.023,0,0,1,1.027-1.023h12.071A1.023,1.023,0,0,1-94.841,41.742Z" transform="translate(132.616 2.283)" fill="#0c2a40"/></g></g></g></svg>