<svg xmlns="http://www.w3.org/2000/svg" width="216" height="216" viewBox="0 0 216 216">
  <g id="그룹_453" data-name="그룹 453" transform="translate(-72 -2331)">
    <circle id="타원_61" data-name="타원 61" cx="108" cy="108" r="108" transform="translate(72 2331)" fill="#0056c5"/>
    <ellipse id="타원_57" data-name="타원 57" cx="96.408" cy="96.408" rx="96.408" ry="96.408" transform="translate(83.31 2342.487)" fill="#fff"/>
    <g id="그룹_346" data-name="그룹 346" transform="translate(146.323 2405.522)">
      <path id="패스_153" data-name="패스 153" d="M351.989,181.632V157.957h12.844v23.675a1.633,1.633,0,0,1-1.232,1.582h3.571a4.174,4.174,0,0,0,.312-1.582v-35.16L372.92,156.9a4.379,4.379,0,0,0,8.047-3.384c-.053-.146-.107-.293-.173-.44l-3.4-7.554-4.424-9.846a5.963,5.963,0,0,0-5.436-3.531h-3.917a1.631,1.631,0,0,0-.266.027,1.332,1.332,0,0,0,.266,2.638h3.917a3.31,3.31,0,0,1,3.024,1.945l7.821,17.413a1.735,1.735,0,0,1-1.586,2.438,1.743,1.743,0,0,1-1.532-.933l-7.927-15.229a1.327,1.327,0,0,0-2.5.613v14.229H351.989V141.063a1.326,1.326,0,1,0-2.651,0V156.6a1.932,1.932,0,0,1-3.863,0V138.119a3.315,3.315,0,0,1,3.318-3.3h4.41a1.332,1.332,0,0,0,0-2.664h-4.41a5.976,5.976,0,0,0-5.969,5.969V156.6a4.583,4.583,0,0,0,4.583,4.583,4.458,4.458,0,0,0,1.932-.426v20.877a4.185,4.185,0,0,0,.3,1.582h3.576A1.635,1.635,0,0,1,351.989,181.632Z" transform="translate(-342.823 -118.441)" fill="#00275c"/>
      <path id="패스_154" data-name="패스 154" d="M379.409,204.3a1.336,1.336,0,0,0-1.332,1.332v20.554h2.651V205.637A1.325,1.325,0,0,0,379.409,204.3Z" transform="translate(-364.231 -161.418)" fill="#00275c"/>
      <path id="패스_155" data-name="패스 155" d="M406.27,160.755a4.215,4.215,0,0,0,1.864.426,4.52,4.52,0,0,0,4.454-4.583V138.119a5.894,5.894,0,0,0-5.8-5.969h-4.273a1.545,1.545,0,0,0-.259.027,1.336,1.336,0,0,0,.259,2.638h4.273a3.261,3.261,0,0,1,3.224,3.3V156.6a1.872,1.872,0,1,1-3.742,0V141.063a1.289,1.289,0,1,0-2.577,0v14.229H391.211V141.063a1.333,1.333,0,0,0-.984-1.292,1.268,1.268,0,0,0-1.45.679L382.924,152a1.314,1.314,0,0,0,.544,1.785,1.254,1.254,0,0,0,1.735-.56l3.419-6.755v35.16a4.285,4.285,0,0,0,.324,1.639H368.267c.008-.019.013-.038.02-.057h-3.47a1.521,1.521,0,0,1-.4.057h-3.367v-.057h-2.577v.057h-3.366a1.489,1.489,0,0,1-.391-.057h-3.475c.008.019.013.038.02.057h-4.182a1.326,1.326,0,0,0,0,2.651h63.059a1.326,1.326,0,0,0,0-2.651h-4.2a4.294,4.294,0,0,0,.324-1.639Zm-2.577,20.877a1.615,1.615,0,0,1-1.592,1.639h-3.367V162.66a1.289,1.289,0,1,0-2.577,0v20.611h-3.366a1.613,1.613,0,0,1-1.58-1.639V157.957h12.482Z" transform="translate(-344.589 -118.441)" fill="#082133"/>
      <path id="패스_156" data-name="패스 156" d="M466.849,93.5a7.055,7.055,0,0,1,1.426,13.963,7.292,7.292,0,0,1-1.426.147,7.055,7.055,0,1,1,0-14.109Zm4.4,7.048a4.4,4.4,0,1,0-4.4,4.41A4.4,4.4,0,0,0,471.246,100.55Z" transform="translate(-414.424 -93.502)" fill="#082133"/>
      <path id="패스_157" data-name="패스 157" d="M445.084,132.15a1.332,1.332,0,0,1,0,2.664h-3.917a3.311,3.311,0,0,0-3.024,1.945l-3.624,8.047a1.307,1.307,0,0,1-1.745.666,1.407,1.407,0,0,1-.666-.666,1.357,1.357,0,0,1,0-1.093l3.611-8.034a5.982,5.982,0,0,1,5.449-3.531Z" transform="translate(-397.19 -117.058)" fill="#082133"/>
      <path id="패스_158" data-name="패스 158" d="M370.971,93.5a7.055,7.055,0,0,1,1.425,13.963,7.281,7.281,0,0,1-1.425.147,7.055,7.055,0,1,1,0-14.109Zm4.4,7.048a4.4,4.4,0,1,0-4.4,4.41A4.4,4.4,0,0,0,375.368,100.55Z" transform="translate(-355.383 -93.502)" fill="#00275c"/>
    </g>
  </g>
</svg>
