<svg xmlns="http://www.w3.org/2000/svg" width="372" height="222" viewBox="0 0 372 222">
  <defs>
    <style>
      .cls-1 {
        fill: #fff;
        stroke: #707070;
      }

      .cls-2, .cls-3 {
        fill: #333;
      }

      .cls-2 {
        font-size: 24px;
        font-family: MalgunGothicBold, Malgun Gothic;
        letter-spacing: -0.05em;
      }

      .cls-3 {
        font-size: 16px;
        font-family: MalgunGothic, Malgun Gothic;
        letter-spacing: -0.08em;
      }

      .cls-4 {
        font-family: SegoeUI, Segoe UI;
      }

      .cls-5 {
        fill: #062031;
      }

      .cls-6 {
        fill: #1a1819;
      }

      .cls-7 {
        fill: #00275c;
      }

      .cls-8 {
        stroke: none;
      }

      .cls-9 {
        fill: none;
      }
    </style>
  </defs>
  <g id="그룹_233" data-name="그룹 233" transform="translate(-378 -1244)">
    <g id="사각형_87" data-name="사각형 87" class="cls-1" transform="translate(378 1244)">
      <rect class="cls-8" width="372" height="222"/>
      <rect class="cls-9" x="0.5" y="0.5" width="371" height="221"/>
    </g>
    <text id="여가" class="cls-2" transform="translate(576 1333)"><tspan x="0" y="0">여가</tspan></text>
    <text id="워크샵_단합대회" data-name="워크샵
단합대회" class="cls-3" transform="translate(576 1364)"><tspan x="0" y="0">워크샵</tspan><tspan class="cls-4" y="0"></tspan><tspan x="0" y="28">단합대회</tspan></text>
    <g id="그룹_118" data-name="그룹 118" transform="translate(272.599 905.22)">
      <g id="그룹_115" data-name="그룹 115" transform="translate(180.402 433.951)">
        <g id="그룹_113" data-name="그룹 113" transform="translate(0 0.002)">
          <path id="패스_272" data-name="패스 272" class="cls-5" d="M223.594,459.282a.955.955,0,0,0-.059-.236l-.03-.058a.832.832,0,0,0-.069-.116.9.9,0,0,0-.207-.223c-.03-.023-.059-.042-.089-.061a.692.692,0,0,0-.138-.071.123.123,0,0,0-.036-.016l-26.136-9.83-.079-.029s-.007,0-.007,0a.812.812,0,0,0-.082-.026,1.164,1.164,0,0,0-.257-.032c-.02,0-.043,0-.063,0a.184.184,0,0,0-.059,0,.71.71,0,0,0-.115.019h-.007a1.031,1.031,0,0,0-.2.074.989.989,0,0,0-.451.436.308.308,0,0,0-.036.084.622.622,0,0,0-.039.11l-2.093,7.955L189.4,472.233a4.956,4.956,0,0,0-2.7-1.733,5.094,5.094,0,0,0-3.82.529,4.923,4.923,0,0,0-1.468,1.281,4.832,4.832,0,0,0-.852,1.736,4.945,4.945,0,0,0,3.616,6.025,5.077,5.077,0,0,0,6.146-3.55l4.669-17.737,24.346,9.156-3.725,14.145a5,5,0,0,0-2.7-1.727,5.115,5.115,0,0,0-3.823.523,4.99,4.99,0,0,0-1.468,1.288,4.885,4.885,0,0,0-.852,1.736,4.944,4.944,0,0,0,3.619,6.025,5.129,5.129,0,0,0,1.26.158,5.032,5.032,0,0,0,4.88-3.711l4.942-18.773,2.1-7.955a1.012,1.012,0,0,0,.033-.219V459.4A.744.744,0,0,0,223.594,459.282ZM188.4,476.038a3.07,3.07,0,0,1-3.725,2.153,3.014,3.014,0,0,1-2.3-2.9,3,3,0,0,1,1.507-2.592,3.1,3.1,0,0,1,1.546-.416,3.144,3.144,0,0,1,2.642,1.481A2.934,2.934,0,0,1,188.4,476.038Zm26.211,9.856a3.065,3.065,0,0,1-3.725,2.153,2.975,2.975,0,0,1-.79-5.483,3.077,3.077,0,0,1,2.316-.326,3.017,3.017,0,0,1,1.869,1.381A2.925,2.925,0,0,1,214.614,485.894Zm5.225-19.848-24.349-9.156,1.589-6.045h0l24.346,9.162Z" transform="translate(-180.402 -448.58)"/>
        </g>
        <g id="그룹_114" data-name="그룹 114" transform="translate(15.089 0)">
          <path id="패스_273" data-name="패스 273" class="cls-6" d="M229.3,448.609a1.143,1.143,0,0,0-.257-.033.768.768,0,0,1,.243.026A.025.025,0,0,1,229.3,448.609Z" transform="translate(-228.124 -448.575)"/>
          <path id="패스_274" data-name="패스 274" class="cls-6" d="M227.851,455.6l-1.593,6.163,1.589-6.163Z" transform="translate(-226.259 -453.288)"/>
        </g>
      </g>
      <g id="그룹_117" data-name="그룹 117" transform="translate(217.241 426.78)">
        <g id="그룹_116" data-name="그룹 116" transform="translate(0 0)">
          <path id="패스_275" data-name="패스 275" class="cls-7" d="M313.086,447.532a5.453,5.453,0,0,0-3.5,1.263V427.767a.992.992,0,0,0-1.6-.783l-12.2,9.4a.98.98,0,0,0-.286,1.214,1,1,0,0,0,.892.559,1.047,1.047,0,0,0,.243-.03l10.967-2.82v17.7a5.479,5.479,0,1,0,5.482-5.478Zm-12.263-12.527,6.781-5.225v3.481Zm12.263,21.5a3.5,3.5,0,1,1,3.494-3.5A3.5,3.5,0,0,1,313.086,456.509Z" transform="translate(-295.401 -426.78)"/>
        </g>
      </g>
    </g>
  </g>
</svg>
