<?xml version="1.0" encoding="iso-8859-1"?>
<!-- Generator: Adobe Illustrator 25.4.1, SVG Export Plug-In . SVG Version: 6.00 Build 0)  -->
<svg version="1.2" baseProfile="tiny" id="Layer_1" xmlns="http://www.w3.org/2000/svg" xmlns:xlink="http://www.w3.org/1999/xlink"
	 x="0px" y="0px" width="60px" height="55px" viewBox="0 0 60 55" overflow="visible" xml:space="preserve">
<g>
	<g>
		<path fill="#231F20" d="M59.46,17.79c-0.03-0.02-0.07-0.03-0.11-0.05c0.04,0.02,0.08,0.03,0.12,0.06L59.46,17.79z M59.51,17.82
			l-0.03-0.02c0.03,0.02,0.07,0.04,0.1,0.06C59.55,17.85,59.53,17.83,59.51,17.82z M59.98,18.48c0.01,0.02,0.01,0.04,0.01,0.06
			v-0.01C59.98,18.52,59.98,18.5,59.98,18.48z"/>
	</g>
	<g>
		<path fill="#231F20" d="M59.46,17.79c-0.03-0.02-0.07-0.03-0.11-0.05c0.04,0.02,0.08,0.03,0.12,0.06L59.46,17.79z M59.51,17.82
			l-0.03-0.02c0.03,0.02,0.07,0.04,0.1,0.06C59.55,17.85,59.53,17.83,59.51,17.82z M59.98,18.48c0.01,0.02,0.01,0.04,0.01,0.06
			v-0.01C59.98,18.52,59.98,18.5,59.98,18.48z M42.67,7.59h-3.95l3.38,2.05h3.95L42.67,7.59z"/>
		<path fill="#0C2A40" d="M59.99,18.54c0-0.02,0-0.04-0.01-0.06c-0.01-0.04-0.02-0.08-0.03-0.12c0-0.02-0.01-0.03-0.02-0.05
			c-0.01-0.03-0.02-0.05-0.04-0.08c-0.02-0.05-0.05-0.1-0.09-0.14c-0.02-0.03-0.05-0.06-0.08-0.09c-0.02-0.02-0.03-0.04-0.05-0.05
			c-0.03-0.03-0.06-0.05-0.1-0.08c0,0,0,0,0,0c-0.03-0.02-0.06-0.04-0.1-0.06c-0.04-0.02-0.08-0.04-0.12-0.06
			c0.04,0.01,0.07,0.03,0.11,0.05l-7.81-4.75v2.41l3.66,2.22h-3.66v2.05h3.66l-3.66,2.22l-2.06,1.25L30,35.1L10.41,23.2l-2.06-1.25
			l-3.66-2.22h3.66v-2.05H4.7l3.66-2.22v-2.41l-7.82,4.75c-0.01,0-0.01,0.01-0.02,0.01c-0.01,0.01-0.02,0.01-0.03,0.02
			c-0.01,0.01-0.02,0.02-0.03,0.02c-0.02,0.01-0.04,0.03-0.06,0.04c-0.04,0.03-0.07,0.06-0.11,0.1c-0.05,0.05-0.1,0.11-0.14,0.17
			c-0.01,0.01-0.02,0.03-0.02,0.04c-0.02,0.03-0.03,0.05-0.04,0.08c-0.01,0.01-0.01,0.03-0.02,0.04c0,0.01-0.01,0.02-0.01,0.02
			c-0.01,0.03-0.02,0.06-0.03,0.09c0,0.01-0.01,0.01-0.01,0.02c-0.01,0.02-0.01,0.05-0.01,0.08c0,0.01-0.01,0.01,0,0.02
			c0,0.01,0,0.02,0,0.03C0,18.61,0,18.66,0,18.7v35.21c0,0.57,0.46,1.03,1.03,1.03h57.95c0.57,0,1.03-0.46,1.03-1.03V18.7
			C60,18.64,60,18.59,59.99,18.54z M57.94,52.88H2.05V20.52l6.3,3.83l2.06,1.25l19.05,11.57c0.33,0.2,0.74,0.2,1.07,0L49.59,25.6
			l2.06-1.25l6.3-3.83V52.88z"/>
	</g>
	<g>
		<path fill="#18336E" d="M42.67,7.59h-3.95l3.38,2.05h3.95L42.67,7.59z"/>
		<path fill="#18336E" d="M51.65,8.62v13.33l-2.06,1.25V9.64h-3.54l-3.38-2.05h7.95C51.18,7.59,51.65,8.05,51.65,8.62z"/>
		<polygon fill="#18336E" points="42.09,9.64 13.95,9.64 17.33,7.59 38.71,7.59 		"/>
		<path fill="#18336E" d="M17.33,7.59l-3.38,2.05h-3.54V23.2l-2.06-1.25V8.62c0-0.57,0.46-1.03,1.03-1.03H17.33z"/>
		<path fill="none" d="M51.65,24.35l-2.06,1.25L30.54,37.18c-0.33,0.2-0.74,0.2-1.07,0L10.41,25.6l-2.06-1.25l-6.3-3.83v32.35h55.89
			V20.52L51.65,24.35z M54.2,49.63H34.8c-0.57,0-1.03-0.46-1.03-1.02c0-0.57,0.46-1.03,1.03-1.03H54.2c0.57,0,1.03,0.46,1.03,1.03
			C55.23,49.18,54.77,49.63,54.2,49.63z M54.2,45.27H42.09c-0.57,0-1.03-0.46-1.03-1.03c0-0.57,0.46-1.03,1.03-1.03H54.2
			c0.57,0,1.03,0.46,1.03,1.03C55.23,44.8,54.77,45.27,54.2,45.27z"/>
		<path fill="none" d="M10.41,9.64V23.2L30,35.1l19.59-11.9V9.64H10.41z M39.67,19.72c-0.42,4.37-4.05,6.93-6.99,9.01
			c-0.71,0.5-1.38,0.97-1.96,1.44c-0.19,0.15-0.41,0.23-0.64,0.23c-0.23,0-0.45-0.07-0.63-0.21c-0.55-0.42-1.16-0.86-1.8-1.32
			c-3.02-2.14-6.73-4.77-7.16-9.14c-0.03-0.27-0.04-0.55-0.04-0.84c0-0.42,0.04-0.82,0.13-1.21c0.56-2.58,2.86-4.52,5.6-4.52
			c1.46,0,2.85,0.56,3.9,1.54c1.05-0.98,2.44-1.54,3.9-1.54c2.75,0,5.05,1.94,5.6,4.52c0.09,0.39,0.13,0.8,0.13,1.21
			C39.71,19.17,39.7,19.45,39.67,19.72z"/>
	</g>
	<g>
		<path fill="#18336E" d="M39.58,17.67c-0.56-2.58-2.86-4.52-5.6-4.52c-1.46,0-2.85,0.56-3.9,1.54c-1.05-0.98-2.44-1.54-3.9-1.54
			c-2.75,0-5.05,1.94-5.6,4.52c-0.09,0.39-0.13,0.8-0.13,1.21c0,0.29,0.01,0.57,0.04,0.84c0.43,4.37,4.14,7,7.16,9.14
			c0.65,0.46,1.26,0.89,1.8,1.32c0.18,0.15,0.41,0.21,0.63,0.21c0.23,0,0.45-0.08,0.64-0.23c0.58-0.47,1.25-0.93,1.96-1.44
			c2.94-2.08,6.57-4.64,6.99-9.01c0.03-0.27,0.04-0.55,0.04-0.84C39.71,18.47,39.66,18.06,39.58,17.67z M31.49,27.05
			c-0.5,0.35-0.98,0.68-1.43,1.02c-0.4-0.29-0.81-0.59-1.25-0.89c-2.74-1.94-5.83-4.12-6.27-7.46c-0.04-0.27-0.06-0.55-0.06-0.84
			c0-0.43,0.07-0.84,0.21-1.21c0.5-1.43,1.87-2.46,3.47-2.46c1.22,0,2.36,0.61,3.05,1.62c0.19,0.28,0.51,0.45,0.85,0.45
			c0.34,0,0.66-0.17,0.85-0.45c0.69-1.02,1.83-1.62,3.05-1.62c1.6,0,2.97,1.03,3.47,2.46c0.14,0.38,0.21,0.79,0.21,1.21
			c0,0.29-0.02,0.57-0.05,0.84C37.16,23.05,34.16,25.16,31.49,27.05z"/>
		<path fill="none" d="M37.65,18.88c0,0.29-0.02,0.57-0.05,0.84c-0.44,3.33-3.44,5.44-6.1,7.33c-0.5,0.35-0.98,0.68-1.43,1.02
			c-0.4-0.29-0.81-0.59-1.25-0.89c-2.74-1.94-5.83-4.12-6.27-7.46c-0.04-0.27-0.06-0.55-0.06-0.84c0-0.43,0.07-0.84,0.21-1.21
			c0.5-1.43,1.87-2.46,3.47-2.46c1.22,0,2.36,0.61,3.05,1.62c0.19,0.28,0.51,0.45,0.85,0.45c0.34,0,0.66-0.17,0.85-0.45
			c0.69-1.02,1.83-1.62,3.05-1.62c1.6,0,2.97,1.03,3.47,2.46C37.58,18.05,37.65,18.46,37.65,18.88z"/>
	</g>
	<g>
		<path fill="#FFFFFF" d="M34.8,48.61h19.4H34.8z"/>
		<path fill="#0C2A40" d="M55.23,48.61c0,0.57-0.46,1.02-1.03,1.02H34.8c-0.57,0-1.03-0.46-1.03-1.02c0-0.57,0.46-1.03,1.03-1.03
			H54.2C54.77,47.58,55.23,48.04,55.23,48.61z"/>
	</g>
	<g>
		<path fill="#FFFFFF" d="M42.09,44.24H54.2H42.09z"/>
		<path fill="#0C2A40" d="M42.67,7.59h-3.95L30,2.29l-8.71,5.29h-3.96l12.13-7.37c0.33-0.2,0.74-0.2,1.07,0L42.67,7.59z"/>
		<path fill="#0C2A40" d="M55.23,44.24c0,0.57-0.46,1.03-1.03,1.03H42.09c-0.57,0-1.03-0.46-1.03-1.03c0-0.57,0.46-1.03,1.03-1.03
			H54.2C54.77,43.21,55.23,43.67,55.23,44.24z"/>
	</g>
</g>
</svg>
