<svg xmlns="http://www.w3.org/2000/svg" width="217.638" height="218.77" viewBox="0 0 217.638 218.77">
  <defs>
    <style>
      .cls-1 {
        fill: #048aef;
      }

      .cls-2 {
        opacity: 0.7;
        mix-blend-mode: multiply;
        isolation: isolate;
      }

      .cls-3 {
        fill: #fff;
      }

      .cls-4 {
        fill: #f6f9f6;
      }

      .cls-5 {
        fill: #edf3ed;
      }

      .cls-6 {
        fill: #e4ede3;
      }

      .cls-7 {
        fill: #dbe7da;
      }

      .cls-8 {
        fill: #d2e1d1;
      }

      .cls-9 {
        fill: #c9dbc8;
      }

      .cls-10 {
        fill: #00275c;
      }

      .cls-11 {
        fill: #082133;
      }
    </style>
  </defs>
  <g id="그룹_236" data-name="그룹 236" transform="translate(-970.186 -2099.483)">
    <path id="패스_114" data-name="패스 114" class="cls-1" d="M389.256,734.566a108.819,108.819,0,1,1-108.817,108.82V734.566Z" transform="translate(689.747 1364.917)"/>
    <g id="그룹_61" data-name="그룹 61" class="cls-2" transform="translate(980.952 2115.879)">
      <path id="패스_129" data-name="패스 129" class="cls-3" d="M485.945,841.936c0-55.88-45.093-101.185-100.724-101.185S284.5,786.056,284.5,841.936s45.093,101.188,100.721,101.188,100.724-45.305,100.724-101.188Z" transform="translate(-284.5 -740.751)"/>
      <path id="패스_130" data-name="패스 130" class="cls-4" d="M483.434,840.764c0-54.984-44.4-99.56-99.173-99.56s-99.168,44.576-99.168,99.56,44.4,99.557,99.168,99.557,99.173-44.576,99.173-99.557Z" transform="translate(-283.521 -740.003)"/>
      <path id="패스_131" data-name="패스 131" class="cls-5" d="M480.924,839.59c0-54.085-43.7-97.932-97.622-97.932S285.685,785.5,285.685,839.59s43.7,97.93,97.617,97.93,97.622-43.847,97.622-97.93Z" transform="translate(-282.544 -739.255)"/>
      <path id="패스_132" data-name="패스 132" class="cls-6" d="M478.417,838.415a96.07,96.07,0,1,0-96.074,96.3,96.191,96.191,0,0,0,96.074-96.3Z" transform="translate(-281.566 -738.507)"/>
      <path id="패스_133" data-name="패스 133" class="cls-7" d="M475.906,837.238a94.518,94.518,0,1,0-94.521,94.675,94.6,94.6,0,0,0,94.521-94.675Z" transform="translate(-280.587 -737.758)"/>
      <path id="패스_134" data-name="패스 134" class="cls-8" d="M473.4,836.064a92.967,92.967,0,1,0-92.97,93.047,93.007,93.007,0,0,0,92.97-93.047Z" transform="translate(-279.61 -737.01)"/>
      <path id="패스_135" data-name="패스 135" class="cls-9" d="M470.887,834.889a91.416,91.416,0,1,0-91.419,91.419,91.417,91.417,0,0,0,91.419-91.419Z" transform="translate(-278.633 -736.262)"/>
    </g>
    <circle id="타원_40" data-name="타원 40" class="cls-3" cx="90.659" cy="90.659" r="90.659" transform="translate(988.5 2116.594)"/>
    <g id="그룹_69" data-name="그룹 69" transform="translate(937.024 2084.531)">
      <path id="패스_163" data-name="패스 163" class="cls-10" d="M263.628,200.615a1.218,1.218,0,0,1,0,2.436H258.1a1.218,1.218,0,0,1,0-2.436Z" transform="translate(-88.865 -67.932)"/>
      <path id="패스_164" data-name="패스 164" class="cls-10" d="M259.4,176.132a1.21,1.21,0,0,1-.171,1.714l-3.635,2.962a1.21,1.21,0,0,1-.771.269,1.223,1.223,0,0,1-.771-2.167l3.636-2.95A1.208,1.208,0,0,1,259.4,176.132Z" transform="translate(-86.806 -52.228)"/>
      <path id="패스_165" data-name="패스 165" class="cls-10" d="M259.232,220.821a1.223,1.223,0,0,1-.771,2.166,1.233,1.233,0,0,1-.771-.269l-3.636-2.962a1.218,1.218,0,0,1,1.542-1.885Z" transform="translate(-86.806 -78.641)"/>
      <path id="패스_166" data-name="패스 166" class="cls-11" d="M163.809,185.544a1.218,1.218,0,1,1,0,2.436H118.067a1.218,1.218,0,0,1,0-2.436h3.807V166.4a4.086,4.086,0,0,1-1.983.392,4.306,4.306,0,0,1-3.99-4.37V149.165a7.209,7.209,0,0,1,7.2-7.2h20.136a1.228,1.228,0,0,1,1.224,1.224,1.5,1.5,0,0,1-.024.245,1.223,1.223,0,0,1-1.2.967H123.1a4.775,4.775,0,0,0-4.761,4.761v13.257a1.893,1.893,0,0,0,1.677,1.934,1.788,1.788,0,0,0,1.31-.49,1.749,1.749,0,0,0,.551-1.285V149.973a1.218,1.218,0,1,1,2.436,0v35.571h3.611V166.8a1.218,1.218,0,0,1,2.436,0v18.74h3.635V149.606a1.217,1.217,0,0,1,1.224-1.212H144.6a1.212,1.212,0,0,1,1.114.734,1.222,1.222,0,0,1-1.114,1.7h-8.177v34.714Z" transform="translate(0 -31.17)"/>
      <path id="패스_167" data-name="패스 167" class="cls-11" d="M215.71,132.853a9.276,9.276,0,0,1-5.508,8.482v7.136h2.4a1.217,1.217,0,0,1,1.224,1.212v4.26a1.217,1.217,0,0,1-1.224,1.212h-2.4V156.7h2.4a1.217,1.217,0,0,1,1.224,1.212v4.26a1.227,1.227,0,0,1-1.224,1.224h-2.4v2.718a1.228,1.228,0,0,1-1.224,1.224h-5.116a1.228,1.228,0,0,1-1.224-1.224V141.335a9.315,9.315,0,0,1-5.52-8.482,8.032,8.032,0,0,1,.049-.943,9.3,9.3,0,0,1,18.544.943Zm-7.111,6.5a6.867,6.867,0,1,0-4.358,0,1.2,1.2,0,0,1,.833,1.151v24.383h2.693v-2.717a1.207,1.207,0,0,1,1.212-1.212h2.411v-1.824h-2.411a1.217,1.217,0,0,1-1.212-1.224v-3.966a1.217,1.217,0,0,1,1.212-1.224h2.411v-1.811h-2.411a1.217,1.217,0,0,1-1.212-1.224V140.5A1.2,1.2,0,0,1,208.6,139.353Z" transform="translate(-51.23 -19.595)"/>
      <path id="패스_168" data-name="패스 168" class="cls-11" d="M215.054,137.289a4.192,4.192,0,1,1-4.2,4.2A4.205,4.205,0,0,1,215.054,137.289Zm1.75,4.2a1.757,1.757,0,1,0-1.75,1.75A1.76,1.76,0,0,0,216.8,141.488Z" transform="translate(-59.854 -28.036)"/>
      <path id="패스_169" data-name="패스 169" class="cls-10" d="M191.221,178.911a1.223,1.223,0,0,1-.771,2.167,1.21,1.21,0,0,1-.771-.269l-3.635-2.962a1.218,1.218,0,0,1,1.542-1.885Z" transform="translate(-43.925 -52.228)"/>
      <path id="패스_170" data-name="패스 170" class="cls-10" d="M191.392,218.042a1.221,1.221,0,0,1-.171,1.714l-3.636,2.962a1.233,1.233,0,0,1-.771.269,1.223,1.223,0,0,1-.771-2.166l3.635-2.95A1.21,1.21,0,0,1,191.392,218.042Z" transform="translate(-43.925 -78.641)"/>
      <path id="패스_171" data-name="패스 171" class="cls-10" d="M183.993,200.615a1.218,1.218,0,0,1,0,2.436h-5.533a1.218,1.218,0,0,1,0-2.436Z" transform="translate(-38.669 -67.932)"/>
      <path id="패스_172" data-name="패스 172" class="cls-11" d="M139.61,92.81a7.389,7.389,0,1,1-7.038,7.381A7.23,7.23,0,0,1,139.61,92.81Zm4.615,7.381a4.62,4.62,0,1,0-4.615,4.945A4.791,4.791,0,0,0,144.225,100.191Z" transform="translate(-10.478)"/>
    </g>
  </g>
</svg>
