<svg xmlns="http://www.w3.org/2000/svg" width="217.638" height="218.77" viewBox="0 0 217.638 218.77">
  <defs>
    <style>
      .cls-1 {
        fill: #7ccbfa;
      }

      .cls-2 {
        opacity: 0.7;
        mix-blend-mode: multiply;
        isolation: isolate;
      }

      .cls-3 {
        fill: #fff;
      }

      .cls-4 {
        fill: #fbfbf3;
      }

      .cls-5 {
        fill: #f7f7e7;
      }

      .cls-6 {
        fill: #f3f3dc;
      }

      .cls-7 {
        fill: #f0eed0;
      }

      .cls-8 {
        fill: #eceac4;
      }

      .cls-9 {
        fill: #e8e6b8;
      }

      .cls-10 {
        fill: #082133;
      }

      .cls-11 {
        fill: #00275c;
      }
    </style>
  </defs>
  <g id="그룹_237" data-name="그룹 237" transform="translate(-731.99 -2099.483)">
    <path id="패스_113" data-name="패스 113" class="cls-1" d="M299.407,734.566a108.819,108.819,0,1,0,108.818,108.82V734.566Z" transform="translate(541.403 1364.917)"/>
    <g id="그룹_62" data-name="그룹 62" class="cls-2" transform="translate(741.688 2115.879)">
      <path id="패스_136" data-name="패스 136" class="cls-3" d="M395.688,841.936c0-55.88-45.093-101.185-100.724-101.185S194.245,786.056,194.245,841.936s45.093,101.188,100.719,101.188,100.724-45.305,100.724-101.188Z" transform="translate(-194.245 -740.751)"/>
      <path id="패스_137" data-name="패스 137" class="cls-4" d="M393.178,840.764c0-54.984-44.4-99.56-99.173-99.56s-99.168,44.576-99.168,99.56,44.4,99.557,99.168,99.557,99.173-44.576,99.173-99.557Z" transform="translate(-193.268 -740.003)"/>
      <path id="패스_138" data-name="패스 138" class="cls-5" d="M390.671,839.59c0-54.085-43.707-97.932-97.625-97.932S195.429,785.5,195.429,839.59s43.7,97.93,97.617,97.93,97.625-43.847,97.625-97.93Z" transform="translate(-192.29 -739.255)"/>
      <path id="패스_139" data-name="패스 139" class="cls-6" d="M388.16,838.415a96.069,96.069,0,1,0-96.072,96.3,96.189,96.189,0,0,0,96.072-96.3Z" transform="translate(-191.311 -738.507)"/>
      <path id="패스_140" data-name="패스 140" class="cls-7" d="M385.65,837.238a94.518,94.518,0,1,0-94.521,94.675,94.6,94.6,0,0,0,94.521-94.675Z" transform="translate(-190.334 -737.758)"/>
      <path id="패스_141" data-name="패스 141" class="cls-8" d="M383.143,836.064a92.969,92.969,0,1,0-92.973,93.047,93.009,93.009,0,0,0,92.973-93.047Z" transform="translate(-189.356 -737.01)"/>
      <path id="패스_142" data-name="패스 142" class="cls-9" d="M380.633,834.889a91.418,91.418,0,1,0-91.419,91.419,91.419,91.419,0,0,0,91.419-91.419Z" transform="translate(-188.379 -736.262)"/>
    </g>
    <circle id="타원_41" data-name="타원 41" class="cls-3" cx="90.659" cy="90.659" r="90.659" transform="translate(749.234 2116.594)"/>
    <g id="그룹_68" data-name="그룹 68" transform="translate(221.093 2082.503)">
      <path id="패스_159" data-name="패스 159" class="cls-10" d="M643.917,129.209a2.984,2.984,0,0,1-2.534,4.568h-3.133v7.351a7.441,7.441,0,0,1-7.439,7.439H623.86v7.788h13.292a1.242,1.242,0,0,1,0,2.484H592.134a1.242,1.242,0,1,1,0-2.484h4.456a7.763,7.763,0,0,0,2.259-4.218,32.143,32.143,0,0,0-4.007-21.242,24.007,24.007,0,0,1-3.045-13.117,20.016,20.016,0,0,1,.387-3.17,25.178,25.178,0,0,1,7.988-14.016,24.049,24.049,0,0,1,21.692-4.98,23.459,23.459,0,0,1,16.413,14.628,25.479,25.479,0,0,1,1.61,8.874,9.755,9.755,0,0,0,1.1,4.531Zm-2.084,1.822a.5.5,0,0,0-.025-.512.434.434,0,0,1-.062-.1l-2.958-5.617a12.213,12.213,0,0,1-1.385-5.654,22.723,22.723,0,0,0-1.024-6.727c-.125-.437-.275-.874-.437-1.311a21,21,0,0,0-14.7-13.092,21.564,21.564,0,0,0-19.445,4.456,22.759,22.759,0,0,0-7.189,12.668,13.454,13.454,0,0,0-.25,1.685c-.037.374-.062.736-.075,1.073a21.453,21.453,0,0,0,2.733,11.77,34.654,34.654,0,0,1,4.281,22.89,10.011,10.011,0,0,1-1.5,3.794h21.579v-7.788h-5.042a1.242,1.242,0,0,1,0-2.484h14.478a4.959,4.959,0,0,0,4.955-4.955v-8.6a1.241,1.241,0,0,1,1.248-1.236h4.368A.5.5,0,0,0,641.833,131.031Z" transform="translate(0 0)"/>
      <path id="패스_160" data-name="패스 160" class="cls-11" d="M644.514,123.375a4.978,4.978,0,0,1,.327,1.8,5.087,5.087,0,0,1-5.078,5.078,4.892,4.892,0,0,1-1.486-.227,5.066,5.066,0,0,1-7.459,1.966,5.053,5.053,0,0,1-7.182,1.058,6.286,6.286,0,0,1-9.954-.454,4.977,4.977,0,0,1-1.726.3,5.092,5.092,0,0,1-5.09-5.09c0-.139,0-.265.013-.4a5.137,5.137,0,0,1,3.326-4.372,5.1,5.1,0,0,1,3.868-6.7,7.25,7.25,0,0,1,11.844-3.163,5.853,5.853,0,0,1,9.5,2.394,5.1,5.1,0,0,1,5.116,4.586A5.1,5.1,0,0,1,644.514,123.375Zm-2.18,1.8a2.576,2.576,0,0,0-2.571-2.583,1.239,1.239,0,0,0-.3.038,1.329,1.329,0,0,1-1.109-.378,1.251,1.251,0,0,1-.353-1.109,2.348,2.348,0,0,0,.051-.5,2.584,2.584,0,0,0-2.583-2.571,3.057,3.057,0,0,0-.68.1,1.247,1.247,0,0,1-1.033-.164,1.229,1.229,0,0,1-.542-.894,3.376,3.376,0,0,0-3.339-2.986,3.336,3.336,0,0,0-2.86,1.638c-.013.013-.025.013-.038.025v.025a2.767,2.767,0,0,0-.39,2.155,1.255,1.255,0,0,1-.769,1.6,1.19,1.19,0,0,1-.416.063,1.24,1.24,0,0,1-1.184-.844,4.959,4.959,0,0,1,.227-3.54,4.723,4.723,0,0,0-8.115,2.47,1.229,1.229,0,0,1-1.272,1.046h-.114a2.571,2.571,0,0,0-2.52,2.571,2.6,2.6,0,0,0,.731,1.8,1.254,1.254,0,0,1-.983,2.129c-.076-.013-.139-.013-.2-.025a2.577,2.577,0,1,0-.012,5.153,2.51,2.51,0,0,0,1.083-.277,5.151,5.151,0,0,1,1.575-3.074,1.248,1.248,0,0,1,1.764.214,1.235,1.235,0,0,1-.214,1.751,3.432,3.432,0,0,0-.68,1.7,3.748,3.748,0,0,0,6.8-.227,1.286,1.286,0,0,1,1.071-.756,1.267,1.267,0,0,1,1.16.6,2.4,2.4,0,1,0,3.767-2.646,1.258,1.258,0,1,1,1.4-2.091,5,5,0,0,1,2,3.767,2.533,2.533,0,0,0,4.561-1.247A1.264,1.264,0,0,1,637,127.1a1.242,1.242,0,0,1,1.235.138,2.6,2.6,0,0,0,1.524.5A2.573,2.573,0,0,0,642.334,125.177Z" transform="translate(-9.869 -10.13)"/>
      <path id="패스_161" data-name="패스 161" class="cls-11" d="M669.641,136.912a1.254,1.254,0,0,1-1.021,1.449,1.4,1.4,0,0,1-.214.025,1.245,1.245,0,0,1-1.235-1.033c-.063-.315-.176-.39-.227-.428a1.659,1.659,0,0,0-1.021-.126,1.254,1.254,0,0,1-.5-2.457,4.086,4.086,0,0,1,2.923.5A3.061,3.061,0,0,1,669.641,136.912Z" transform="translate(-45.71 -24.499)"/>
      <path id="패스_162" data-name="패스 162" class="cls-11" d="M639.644,138.364a1.239,1.239,0,0,1-.743,1.588,4.45,4.45,0,0,1-1.462.252,3.352,3.352,0,0,1-1.512-.328,3,3,0,0,1-1.562-1.852,1.249,1.249,0,1,1,2.369-.794c.1.3.227.366.29.39a1.6,1.6,0,0,0,1.033-.025A1.252,1.252,0,0,1,639.644,138.364Z" transform="translate(-26.984 -25.808)"/>
    </g>
  </g>
</svg>
