<svg xmlns="http://www.w3.org/2000/svg" width="36.173" height="48.035" viewBox="0 0 36.173 48.035">
  <g id="그룹_315" data-name="그룹 315" transform="translate(0)">
    <g id="그룹_93" data-name="그룹 93" transform="translate(0 0)">
      <path id="패스_251" data-name="패스 251" d="M241.776,157.574h-6.16V157a.817.817,0,0,0-.816-.816h-5.745a4.622,4.622,0,0,0-9.1,0h-5.742a.816.816,0,0,0-.819.816v.575h-6.157a.815.815,0,0,0-.819.811V199.6a.816.816,0,0,0,.819.816h34.538a.816.816,0,0,0,.816-.816V158.385A.814.814,0,0,0,241.776,157.574Zm-26.748.241H220.7a.815.815,0,0,0,.816-.816,2.988,2.988,0,1,1,5.976,0,.82.82,0,0,0,.816.816h5.672v4.9H215.028Zm-.814,6.532H234.8a.816.816,0,0,0,.816-.811v-.673h.654v31.383H213.211V162.864h.184v.673A.815.815,0,0,0,214.215,164.347Zm26.742,34.435h-32.9V159.207H213.4v2.023h-1a.818.818,0,0,0-.819.816v33.016a.82.82,0,0,0,.819.819h24.692a.82.82,0,0,0,.819-.819V162.047a.818.818,0,0,0-.819-.816h-1.47v-2.023h5.341Z" transform="translate(-206.419 -152.38)" fill="#062031"/>
      <path id="패스_252" data-name="패스 252" d="M257.085,162.2v4.911H238.159V162.2h5.664a.815.815,0,0,0,.815-.818,2.984,2.984,0,1,1,5.967,0,.82.82,0,0,0,.815.818Z" transform="translate(-229.537 -156.757)" fill="none"/>
    </g>
    <g id="그룹_94" data-name="그룹 94" transform="translate(11.742 16.885)">
      <path id="패스_253" data-name="패스 253" d="M263.359,214.806a.823.823,0,0,0-1.136.239l-2.065,3.167a6.559,6.559,0,0,0-8.068.315l-.223-.307a.818.818,0,1,0-1.326.959l.418.579a6.578,6.578,0,1,0,10.415-.413l2.222-3.4A.824.824,0,0,0,263.359,214.806Zm-7.03,3.809a4.9,4.9,0,0,1,2.934.97l-3.037,4.659-3.17-4.382A4.908,4.908,0,0,1,256.328,218.614Zm0,9.885a4.94,4.94,0,0,1-4.336-7.316l3.608,4.977a.81.81,0,0,0,.66.345l.022-.005a.8.8,0,0,0,.663-.369l3.48-5.33a4.94,4.94,0,0,1-4.1,7.7Z" transform="translate(-249.749 -214.673)" fill="#00275c"/>
    </g>
  </g>
</svg>
