<svg xmlns="http://www.w3.org/2000/svg" width="216" height="216" viewBox="0 0 216 216">
  <g id="그룹_452" data-name="그룹 452" transform="translate(-72 -1921)">
    <circle id="타원_61" data-name="타원 61" cx="108" cy="108" r="108" transform="translate(72 1921)" fill="#002e7a"/>
    <ellipse id="타원_57" data-name="타원 57" cx="96.408" cy="96.408" rx="96.408" ry="96.408" transform="translate(84 1933)" fill="#fff"/>
    <g id="그룹_345" data-name="그룹 345" transform="translate(-661.975 1901.844)">
      <path id="패스_147" data-name="패스 147" d="M884.717,154.361h-2.97v-.207h-2.581v.207h-2.438a1.306,1.306,0,0,0-1.3,1.316v9.116H863.68a1.3,1.3,0,0,0-1.284,1.316V168.9h-2.581a4.466,4.466,0,0,0,.259-2.6L857.4,153.312a4.533,4.533,0,0,0-2.685-3.282l-6.252-2.6,1.777-5.129.908,1.037a1.244,1.244,0,0,0,.96.438h10.311a4.068,4.068,0,0,0,0-8.133h-6.887l-4.15-5.953a1.755,1.755,0,0,0-.207-.226,5.576,5.576,0,0,0-2.166-1.435,5.759,5.759,0,0,0-4.617.186,5.932,5.932,0,0,0-3.087,3.535l-.039.093-4.9,1.821a3.221,3.221,0,0,0-1.984,2.206,3.3,3.3,0,0,0,.648,2.923l2.8,3.375-1.453,4.359a6.193,6.193,0,0,0,2.542,7.229l-.973,6.431a.321.321,0,0,1-.078.146l-6.718,7.708-.065.066a4.293,4.293,0,0,0-.531,4.319h-3.229a1.3,1.3,0,0,0-1.284,1.316V181.9a1.306,1.306,0,0,0,1.284,1.329h57.391a1.317,1.317,0,0,0,1.3-1.329V155.677A1.306,1.306,0,0,0,884.717,154.361ZM837,137.073a.6.6,0,0,1-.117-.532.585.585,0,0,1,.35-.4l2.97-1.09-1.4,4.2Zm1.815,10.312,4.929-14.79A3.374,3.374,0,0,1,845.5,130.6a3.165,3.165,0,0,1,1.427-.332,3.384,3.384,0,0,1,1.18.226,2.927,2.927,0,0,1,1.258.851l4.449,6.379a1.266,1.266,0,0,0,1.051.558h7.561a1.422,1.422,0,0,1,0,2.844h-9.74s-1.958-2.246-1.971-2.272l-2.918-3.335a1.268,1.268,0,0,0-1.816-.106,1.349,1.349,0,0,0-.1,1.873l2.412,2.764-2.672,7.681a1.353,1.353,0,0,0,.739,1.675l7.393,3.083a1.873,1.873,0,0,1,1.129,1.369l2.672,12.983a1.692,1.692,0,0,1-.3,1.382,1.618,1.618,0,0,1-1.206.678,1.687,1.687,0,0,1-1.777-1.368l-1.906-9.648a2.883,2.883,0,0,0-1.751-2.153l-9.792-3.947A3.526,3.526,0,0,1,838.817,147.385Zm13.19,21.514H846.82a1.306,1.306,0,0,0-1.284,1.329v2.192h-7l6.342-7.946a7.864,7.864,0,0,0,1.647-3.92l.454-3.442,2.685,1.089a.243.243,0,0,1,.168.213l1.906,9.648A4.528,4.528,0,0,0,852.007,168.9Zm-18.9.864L839.8,162.1a2.945,2.945,0,0,0,.688-1.5l.869-5.741,3.139,1.262-.531,4.093a5.357,5.357,0,0,1-1.09,2.591l-7.146,8.957a1.658,1.658,0,0,1-1.077.651,1.629,1.629,0,0,1-1.206-.319,1.706,1.706,0,0,1-.337-2.326Zm50.323,10.817H828.623v-5.515h18.2a1.317,1.317,0,0,0,1.3-1.329v-2.179H863.68a1.317,1.317,0,0,0,1.3-1.329v-2.791h11.751a1.317,1.317,0,0,0,1.3-1.329v-9.1h5.408Z" transform="translate(-10.184 -22.069)" fill="#082133"/>
      <path id="패스_148" data-name="패스 148" d="M948.857,133.161V120.072a1.31,1.31,0,0,0-1.316-1.316,1.33,1.33,0,0,0-1.329,1.316l-9.368,5.794a1.322,1.322,0,0,0,0,2.246l9.368,5.794v15.162h2.645Zm-2.645-2.379-6.153-3.8,6.153-3.8Z" transform="translate(-77.398 -15.608)" fill="#00275c"/>
      <path id="패스_149" data-name="패스 149" d="M877.655,93.156a6.046,6.046,0,1,1-6.047,6.046A6.051,6.051,0,0,1,877.655,93.156Zm3.4,6.046a3.4,3.4,0,1,0-3.4,3.4A3.408,3.408,0,0,0,881.056,99.2Z" transform="translate(-38.034 0)" fill="#082133"/>
      <path id="패스_150" data-name="패스 150" d="M821.626,159.678a1.322,1.322,0,1,1,0,2.644H810.29a1.322,1.322,0,0,1,0-2.644Z" transform="translate(0 -40.294)" fill="#082133"/>
      <path id="패스_151" data-name="패스 151" d="M824.614,176.25a1.322,1.322,0,1,1,0,2.645h-9.3a1.322,1.322,0,1,1,0-2.645Z" transform="translate(-2.988 -50.332)" fill="#082133"/>
      <path id="패스_152" data-name="패스 152" d="M826.422,192.856a1.322,1.322,0,1,1,0,2.645H818.33a1.322,1.322,0,0,1,0-2.645Z" transform="translate(-4.797 -60.391)" fill="#082133"/>
    </g>
  </g>
</svg>
