<svg xmlns="http://www.w3.org/2000/svg" width="372" height="222" viewBox="0 0 372 222">
  <g id="그룹_458" data-name="그룹 458" transform="translate(-774 -994)">
    <g id="사각형_86" data-name="사각형 86" transform="translate(774 994)" fill="#fff" stroke="#707070" stroke-width="1">
      <rect width="372" height="222" stroke="none"/>
      <rect x="0.5" y="0.5" width="371" height="221" fill="none"/>
    </g>
    <text id="휴가_" data-name="휴가     " transform="translate(972 1082)" fill="#333" font-size="24" font-family="MalgunGothicBold, Malgun Gothic" letter-spacing="-0.05em"><tspan x="0" y="0">휴가</tspan><tspan y="0" xml:space="preserve" font-family="NotoSans-Bold, Noto Sans" font-weight="700">     </tspan></text>
    <text id="연차_여름휴가_14일_" data-name="연차 
여름휴가 (14일)" transform="translate(972 1113)" fill="#333" font-size="16" font-family="MalgunGothic, Malgun Gothic" letter-spacing="-0.08em"><tspan x="0" y="0">연차</tspan><tspan y="0" font-family="NotoSans-Medium, Noto Sans" font-weight="500" letter-spacing="-0.06em"> </tspan><tspan letter-spacing="-0.06em"><tspan x="0" y="28">여름휴가</tspan><tspan y="28" xml:space="preserve" font-family="NotoSans-Medium, Noto Sans" font-weight="500"> (14</tspan><tspan y="28">일</tspan><tspan y="28" font-family="NotoSans-Medium, Noto Sans" font-weight="500">)</tspan></tspan></text>
    <g id="그룹_105" data-name="그룹 105" transform="translate(394.943 917.25)">
      <g id="그룹_96" data-name="그룹 96" transform="translate(459.03 192.776)">
        <path id="패스_254" data-name="패스 254" d="M473.648,264.328l-2.084-2.084-.305-.305v3.573l2.527,2.531v-3.577ZM471.568,252a1.248,1.248,0,0,0-.309-.225v3.486l2.527,2.531v-3.573Z" transform="translate(-471.259 -251.77)" fill="#1a1819"/>
      </g>
      <g id="그룹_97" data-name="그룹 97" transform="translate(466.779 160.01)">
        <path id="패스_255" data-name="패스 255" d="M492.384,162.221v0Z" transform="translate(-492.384 -162.221)" fill="#fff"/>
      </g>
      <g id="그룹_98" data-name="그룹 98" transform="translate(502.656 160.01)">
        <path id="패스_256" data-name="패스 256" d="M590.549,162.221v0Z" transform="translate(-590.549 -162.221)" fill="#fff"/>
      </g>
      <g id="그룹_99" data-name="그룹 99" transform="translate(476.518 190.011)">
        <path id="패스_257" data-name="패스 257" d="M525.006,244.36l-1.26,1.26-1.267,1.267h-3.57l.9-.9,1.623-1.623Z" transform="translate(-518.909 -244.36)" fill="#1a1819"/>
        <path id="패스_258" data-name="패스 258" d="M555.979,244.36l-.2.2-.69.69-.367.367-.9.9v.367h-3.94l1.267-1.267,1.26-1.26Z" transform="translate(-538.632 -244.36)" fill="#1a1819"/>
      </g>
      <g id="그룹_100" data-name="그룹 100" transform="translate(459.03 202.806)">
        <path id="패스_259" data-name="패스 259" d="M473.648,282.694h-1.126a1.262,1.262,0,0,1-.959-2.084Z" transform="translate(-471.259 -280.171)" fill="#1a1819"/>
        <path id="패스_260" data-name="패스 260" d="M493.409,279.4l-1.177,1.177c-.029.029-.062.058-.091.084a1.279,1.279,0,0,1-1.605,0c-.029-.025-.062-.054-.091-.084l-1.177-1.177Z" transform="translate(-482.729 -279.4)" fill="#1a1819"/>
        <path id="패스_261" data-name="패스 261" d="M520.952,279.4l-2.524,2.524h-3.57l1.108-1.108.156-.156,1.108-1.108.153-.153Z" transform="translate(-499.026 -279.4)" fill="#1a1819"/>
      </g>
      <g id="그룹_101" data-name="그룹 101" transform="translate(474.832 191.707)">
        <path id="패스_262" data-name="패스 262" d="M516.956,279.82v3.57l-1.264,1.264-1.264,1.264v-3.57l1.264-1.264.156-.156Z" transform="translate(-514.429 -268.566)" fill="#1a1819"/>
        <path id="패스_263" data-name="패스 263" d="M516.956,248.83v3.577l-1.264,1.264-1.264,1.264v-3.573l1.264-1.264.363-.363Z" transform="translate(-514.429 -248.83)" fill="#1a1819"/>
      </g>
      <g id="그룹_102" data-name="그룹 102" transform="translate(459.03 158.75)">
        <path id="패스_264" data-name="패스 264" d="M563.257,236.554v.89h-.367l-.2.2-.69.69-.367.367-.9.9v-6.1L562,234.767l.893.893A1.271,1.271,0,0,1,563.257,236.554Z" transform="translate(-528.032 -206.194)" fill="#1a1819"/>
        <path id="패스_265" data-name="패스 265" d="M516.108,166.212v-6.2a1.268,1.268,0,0,0-2.536,0V166.2H480.246v-6.184a1.271,1.271,0,0,0-2.543,0V166.2a6.586,6.586,0,0,0-6.445,6.575v19.929a1.255,1.255,0,0,1,.311.226l2.232,2.231v-2.621h13.229v1.636l1.271-1.27.365-.365.906-.909L491.207,190h-1.633v-9.229h14.372v5.264l1.275,1.274.9.9a1.277,1.277,0,0,1,.369.9v-8.335h13.255V190H506.12l-.2.2-.694.694-.369.369-.906.905V202.8H493.318l-2.539,2.537h13.167v10.879H489.573v-9.674l-1.271,1.27-1.271,1.27v7.134H473.8v-7.145l-2.543-2.545v10.96a1.269,1.269,0,0,0,1.271,1.267h48.484a1.271,1.271,0,0,0,1.271-1.267v-44.7A6.6,6.6,0,0,0,516.108,166.212Zm3.635,50H506.489V205.334h13.255Zm0-13.416H506.489V192.545h13.255ZM487.031,190H473.8v-9.229h13.229Zm32.713-11.77H473.8V172.78a4.042,4.042,0,0,1,4.041-4.034H515.7a4.045,4.045,0,0,1,4.044,4.034Z" transform="translate(-471.259 -158.75)" fill="#062031"/>
      </g>
      <g id="그룹_103" data-name="그룹 103" transform="translate(474.885 190.061)">
        <path id="패스_266" data-name="패스 266" d="M532.51,244.36h-2.68l-1.26,1.26-1.267,1.267h3.94v-.367l.9-.9.367-.367.69-.69A1.272,1.272,0,0,0,532.51,244.36Zm-15.4,12.725-.153.153-1.108,1.108-.156.156-.81.81a1.248,1.248,0,0,0,.81.3h2.462l2.524-2.524Zm1.471-12.725-1.623,1.623-.9.9-.363.363-1.264,1.264v3.573l1.264-1.264,1.264-1.264v-2.673h2.669l1.267-1.267,1.26-1.26Z" transform="translate(-514.429 -244.36)" fill="#1a1819"/>
      </g>
      <g id="그룹_104" data-name="그룹 104" transform="translate(452.056 182.377)">
        <path id="패스_267" data-name="패스 267" d="M477.234,233.246v2.673l2.669-2.673Zm16.447-4.311-.893-.893-1.267-1.267-3.464-3.464a1.267,1.267,0,0,0-1.79,0l-9.031,9.031-.9.9-.363.363-1.264,1.264-7.067,7.067-6.083-6.086-2.219-2.219a1.263,1.263,0,0,0-1.787,0l-5.128,5.124a1.269,1.269,0,0,0,0,1.787l6.606,6.606,2.528,2.531,5.687,5.687a1.3,1.3,0,0,0,.9.367,1.258,1.258,0,0,0,.89-.367l5.676-5.676,1.264-1.264,1.264-1.264,3.722-3.722,10.2-10.2.367-.367.9-.9.367-.367.69-.69.2-.2a1.256,1.256,0,0,0,.367-.89A1.271,1.271,0,0,0,493.681,228.936Zm-16.294,14.508-.153.153-1.108,1.108-.156.156-7.829,7.829-6.584-6.584-.138-.138-2.084-2.084-.305-.305-3.926-3.926,3.341-3.341.585.585,2.528,2.531,4.013,4.016,1.177,1.177c.029.029.062.058.091.084a1.279,1.279,0,0,0,1.605,0c.029-.025.062-.054.091-.084l7.437-7.437,1.264-1.264,2.669-2.673,1.267-1.267,1.26-1.26,4.728-4.728L491,229.825l-.893.893-1.26,1.26-1.267,1.267Z" transform="translate(-452.056 -222.94)" fill="#00275c"/>
        <path id="패스_268" data-name="패스 268" d="M496.346,235.175l-.893.893-1.26,1.26-1.267,1.267-10.194,10.2-.153.153-1.108,1.108-.156.156-7.829,7.829-6.584-6.584-.138-.138-2.084-2.084-.305-.305L460.449,245l3.341-3.341.585.585,2.528,2.531,4.013,4.016,1.177,1.177c.029.029.062.058.091.084a1.279,1.279,0,0,0,1.605,0c.029-.025.062-.054.091-.084l7.437-7.437,1.264-1.264,2.669-2.673,1.267-1.267,1.26-1.26,4.728-4.728Z" transform="translate(-457.401 -228.29)" fill="none"/>
      </g>
    </g>
  </g>
</svg>
