<svg xmlns="http://www.w3.org/2000/svg" width="127" height="127" viewBox="0 0 127 127">
  <g id="그룹_516" data-name="그룹 516" transform="translate(-1121 -1640)">
    <circle id="타원_34" data-name="타원 34" cx="63.5" cy="63.5" r="63.5" transform="translate(1121 1640)" fill="#4b527f"/>
    <g id="그룹_515" data-name="그룹 515">
      <path id="패스_93" data-name="패스 93" d="M337.563,257.515a.821.821,0,0,1-.535-1.444l20.263-17.43a.822.822,0,0,1,.411-.189l7.7-1.184a.821.821,0,0,1,.835,1.224l-7.213,12.41a.822.822,0,0,1-.475.374l-20.748,6.2A.806.806,0,0,1,337.563,257.515Zm20.621-17.476L341.022,254.8l16.744-5.007,6.186-10.643Z" transform="translate(813.104 1471.459)" fill="#fff"/>
      <path id="패스_94" data-name="패스 94" d="M401.625,257.516a.82.82,0,0,1-.342-.075l-13.533-6.2a.821.821,0,0,1-.368-1.159l7.213-12.41a.823.823,0,0,1,.861-.394l6.32,1.184a.821.821,0,0,1,.67.807v17.43a.821.821,0,0,1-.821.821Zm-12.369-7.4,11.548,5.294V239.946l-5.08-.952Z" transform="translate(783.025 1471.459)" fill="#fff"/>
      <path id="패스_95" data-name="패스 95" d="M421.05,257.516a.821.821,0,0,1-.821-.821v-17.43a.821.821,0,0,1,.67-.807l6.319-1.184a.823.823,0,0,1,.862.394l7.213,12.41a.821.821,0,0,1-.367,1.159l-13.533,6.2A.822.822,0,0,1,421.05,257.516Zm.821-17.57v15.469l11.548-5.294-6.468-11.127Z" transform="translate(763.406 1471.459)" fill="#fff"/>
      <path id="패스_96" data-name="패스 96" d="M464.4,257.516a.8.8,0,0,1-.235-.034l-20.747-6.2a.822.822,0,0,1-.475-.374l-7.213-12.41a.821.821,0,0,1,.835-1.224l7.7,1.184a.82.82,0,0,1,.411.189l20.2,17.373a.821.821,0,0,1-.455,1.5Zm-20.2-7.72,16.742,5.007L443.78,240.04l-5.766-.887Z" transform="translate(754.038 1471.459)" fill="#fff"/>
      <path id="패스_97" data-name="패스 97" d="M405.612,192.955a.822.822,0,0,1-.595-.255c-.448-.471-10.983-11.612-10.983-17.81a11.577,11.577,0,1,1,23.155,0c0,6.2-10.534,17.338-10.982,17.81A.822.822,0,0,1,405.612,192.955Zm0-28a9.946,9.946,0,0,0-9.935,9.935c0,4.318,6.685,12.5,9.932,16.036,2.223-2.443,9.938-11.267,9.938-16.036A9.946,9.946,0,0,0,405.612,164.956Z" transform="translate(778.942 1515.61)" fill="#fff"/>
      <path id="패스_98" data-name="패스 98" d="M419.7,182.275a5.817,5.817,0,1,1-5.817-5.817A5.818,5.818,0,0,1,419.7,182.275Z" transform="translate(770.674 1507.863)" fill="#fff"/>
    </g>
  </g>
</svg>
