<svg id="레이어_1" data-name="레이어 1" xmlns="http://www.w3.org/2000/svg" xmlns:xlink="http://www.w3.org/1999/xlink" viewBox="0 0 1457.24 439.83"><defs><style>.cls-1,.cls-11,.cls-6,.cls-7,.cls-8{fill:none;}.cls-2,.cls-4{fill:#fff;}.cls-2,.cls-3{opacity:0.2;}.cls-5{opacity:0.5;}.cls-11,.cls-6,.cls-7,.cls-8{stroke:#fff;}.cls-6,.cls-8{stroke-miterlimit:10;}.cls-6,.cls-7{stroke-width:2px;}.cls-11,.cls-7{stroke-miterlimit:8;}.cls-9{opacity:0.15;}.cls-10{clip-path:url(#clip-path);}.cls-11{stroke-width:1.74px;}</style><clipPath id="clip-path"><path class="cls-1" d="M874.58,113.28a102,102,0,0,0-16.17,25.36m0,0a102.22,102.22,0,1,0,16.17-25.36"/></clipPath></defs><rect class="cls-2" x="377.97" y="47.35" width="707.9" height="265.75"/><g class="cls-3"><rect class="cls-4" x="632.85" y="383.53" width="200" height="55.17"/></g><g class="cls-3"><rect class="cls-4" x="2.32" y="152.64" width="200" height="55.17"/></g><g class="cls-5"><line class="cls-6" x1="213.01" y1="187.01" x2="388.55" y2="187.01"/><polygon class="cls-4" points="387.09 192 395.72 187.01 387.09 182.02 387.09 192"/></g><g class="cls-5"><line class="cls-6" x1="220.18" y1="174.49" x2="395.72" y2="174.49"/><polygon class="cls-4" points="221.64 179.47 213.01 174.49 221.64 169.5 221.64 179.47"/></g><path class="cls-7" d="M732.85,78.1a102.13,102.13,0,0,0-16.17,203,102.84,102.84,0,0,0,32.35,0,102.14,102.14,0,0,0-16.18-203Z"/><path class="cls-4" d="M709.11,132.93a2.48,2.48,0,0,0-1.11-.79,4.42,4.42,0,0,0-1.61-.27,4.3,4.3,0,0,0-1.64.28,2.39,2.39,0,0,0-1.07.79,1.9,1.9,0,0,0-.37,1.15,1.66,1.66,0,0,0,.78,1.5,6.81,6.81,0,0,0,2.11.85l1.59.39a11,11,0,0,1,2.53.93,4.77,4.77,0,0,1,1.77,1.56,4.15,4.15,0,0,1,.68,2.39,4.57,4.57,0,0,1-.77,2.63,5,5,0,0,1-2.21,1.77,8.57,8.57,0,0,1-3.45.63,8.67,8.67,0,0,1-3.42-.62,5,5,0,0,1-2.27-1.79,5.21,5.21,0,0,1-.89-2.85h3a2.54,2.54,0,0,0,.54,1.46,3,3,0,0,0,1.26.89,4.83,4.83,0,0,0,1.75.3,4.92,4.92,0,0,0,1.78-.31,2.66,2.66,0,0,0,1.2-.86,2.11,2.11,0,0,0,.43-1.27,1.69,1.69,0,0,0-.37-1.07,2.86,2.86,0,0,0-1-.74,12.09,12.09,0,0,0-1.67-.55l-1.93-.5a7.46,7.46,0,0,1-3.36-1.67,3.83,3.83,0,0,1-1.16-2.89,4.38,4.38,0,0,1,.81-2.6,5.29,5.29,0,0,1,2.22-1.76,7.8,7.8,0,0,1,3.19-.63,7.52,7.52,0,0,1,3.16.62,5,5,0,0,1,2.15,1.73,4.5,4.5,0,0,1,.8,2.54H709.6A2.36,2.36,0,0,0,709.11,132.93Z"/><path class="cls-4" d="M714.12,129.51h3.27l3.08,12.5h.16l3.26-12.5h3l3.28,12.5h.14l3.08-12.5h3.28l-4.78,17h-3l-3.39-11.93h-.14l-3.41,11.93h-3Z"/><path class="cls-4" d="M735.92,146.48l6-17h3.76l6,17h-3.26L743.85,133h-.14l-4.53,13.51Zm12.33-6.65v2.45h-8.94v-2.45Z"/><path class="cls-4" d="M753.68,129.51H760a7,7,0,0,1,3.26.71,4.9,4.9,0,0,1,2,2,6,6,0,0,1,.69,2.92,6,6,0,0,1-.7,2.91,4.75,4.75,0,0,1-2.06,2,6.87,6.87,0,0,1-3.27.72h-4.22v-2.51h3.81a4,4,0,0,0,1.86-.4,2.45,2.45,0,0,0,1.1-1.08,3.82,3.82,0,0,0,0-3.24,2.43,2.43,0,0,0-1.1-1.07,4.15,4.15,0,0,0-1.87-.38h-2.84v14.42h-3.05Z"/><path class="cls-4" d="M806,194.43a1.12,1.12,0,0,0,.33-.82,22.45,22.45,0,0,0-10.93-19.7l-1.45-.83,1-1.36a10,10,0,0,0,2.16-5.89,10.4,10.4,0,0,0-20.8,0,10,10,0,0,0,2.16,5.89l1,1.36-1.46.83A22.44,22.44,0,0,0,767,193.59a1.14,1.14,0,0,0,1.14,1.14H794.6a1.21,1.21,0,0,0,.84-.33,1.11,1.11,0,0,0,.34-.81,1.15,1.15,0,0,0-.34-.82,1.28,1.28,0,0,0-.82-.33H769.48l.21-1.68c1-7.75,5.68-14.15,12-16.31a1.17,1.17,0,0,0,.77-.93,1.13,1.13,0,0,0-.48-1.09,8.11,8.11,0,1,1,9.42,0,1.15,1.15,0,0,0,.27,2C799.06,177,804,184.67,804,193.59a1.16,1.16,0,0,0,.32.84A1.19,1.19,0,0,0,806,194.43Z"/><path class="cls-4" d="M698.36,194.43a1.2,1.2,0,0,0,.33-.82,22.45,22.45,0,0,0-10.93-19.7l-1.46-.83,1-1.36a10,10,0,0,0,2.15-5.89,10.4,10.4,0,1,0-20.79,0,10,10,0,0,0,2.15,5.89l1,1.36-1.45.83a22.42,22.42,0,0,0-10.93,19.68,1.14,1.14,0,0,0,1.14,1.14H687a1.23,1.23,0,0,0,.84-.33,1.11,1.11,0,0,0,.34-.81,1.15,1.15,0,0,0-.34-.82,1.28,1.28,0,0,0-.82-.33H661.84l.22-1.68c1-7.75,5.68-14.15,12-16.31a1.14,1.14,0,0,0,.76-.93,1.12,1.12,0,0,0-.47-1.09,8.12,8.12,0,1,1,9.41,0,1.15,1.15,0,0,0,.27,2c7.41,2.53,12.38,10.22,12.38,19.14a1.21,1.21,0,0,0,.33.84A1.19,1.19,0,0,0,698.36,194.43Z"/><line class="cls-8" x1="708.38" y1="173.4" x2="757.33" y2="173.4"/><polygon class="cls-4" points="709.11 175.89 704.79 173.4 709.11 170.9 709.11 175.89"/><polygon class="cls-4" points="756.6 175.89 760.91 173.4 756.6 170.9 756.6 175.89"/><path class="cls-4" d="M682.16,208.12h3.17a3.41,3.41,0,0,1,1.63.36,2.4,2.4,0,0,1,1,1,3,3,0,0,1,.34,1.45,2.9,2.9,0,0,1-.35,1.46,2.33,2.33,0,0,1-1,1,3.48,3.48,0,0,1-1.64.36H683.2v-1.26h1.91a2,2,0,0,0,.93-.19,1.33,1.33,0,0,0,.55-.55,1.73,1.73,0,0,0,.18-.81,1.69,1.69,0,0,0-.18-.8,1.3,1.3,0,0,0-.55-.54,2,2,0,0,0-.94-.19h-1.42v7.21h-1.52Z"/><path class="cls-4" d="M692.49,213.84l-.81.06a1.48,1.48,0,0,0-.85.27.73.73,0,0,0-.31.63.76.76,0,0,0,.14.46.84.84,0,0,0,.38.28,1.4,1.4,0,0,0,.56.1,1.66,1.66,0,0,0,.78-.18,1.28,1.28,0,0,0,.52-.48,1.22,1.22,0,0,0,.18-.65v-2a1,1,0,0,0-.14-.53.77.77,0,0,0-.39-.34,1.69,1.69,0,0,0-1.2,0,1.11,1.11,0,0,0-.4.26,1,1,0,0,0-.21.4h-1.45a2,2,0,0,1,.39-1,2.29,2.29,0,0,1,.92-.67,3.42,3.42,0,0,1,1.37-.25,3.64,3.64,0,0,1,1.25.21,2,2,0,0,1,1,.7,2,2,0,0,1,.38,1.29v4.25h-1.43v-.87h0a1.45,1.45,0,0,1-.39.5,2,2,0,0,1-.62.36,2.77,2.77,0,0,1-2-.08,1.67,1.67,0,0,1-.76-.65,1.87,1.87,0,0,1-.28-1.05,1.58,1.58,0,0,1,.66-1.42,3.53,3.53,0,0,1,1.71-.51l.67,0,.72,0,.32,0v1Z"/><path class="cls-4" d="M695.87,219v-1.2h.63a1.38,1.38,0,0,0,.38,0,.61.61,0,0,0,.29-.19,1.62,1.62,0,0,0,.25-.48l.14-.34-2.32-6.49h1.59l1.47,4.81h.06l1.48-4.81h1.59l-2.55,7.14a2.61,2.61,0,0,1-.83,1.2,2.29,2.29,0,0,1-1.41.41A7.51,7.51,0,0,1,695.87,219Z"/><path class="cls-4" d="M702.68,209.23a.81.81,0,0,1-.31-.3.7.7,0,0,1-.12-.4.73.73,0,0,1,.12-.41.81.81,0,0,1,.31-.3.92.92,0,0,1,.44-.1.94.94,0,0,1,.43.1.81.81,0,0,1,.31.3.73.73,0,0,1,.12.41.7.7,0,0,1-.12.4.81.81,0,0,1-.31.3,1,1,0,0,1-.43.11A.93.93,0,0,1,702.68,209.23Zm-.31,1h1.49v6.36h-1.49Z"/><path class="cls-4" d="M706.79,216.61h-1.5v-6.36h1.43v1.08h.08a1.77,1.77,0,0,1,.41-.62,1.85,1.85,0,0,1,.64-.41,2.47,2.47,0,0,1,.84-.14,2.33,2.33,0,0,1,1.15.28,1.91,1.91,0,0,1,.76.83,2.86,2.86,0,0,1,.27,1.29v4.05h-1.49v-3.82a1.61,1.61,0,0,0-.15-.73,1,1,0,0,0-.43-.47,1.27,1.27,0,0,0-.66-.16,1.32,1.32,0,0,0-.7.17,1.11,1.11,0,0,0-.48.5,1.6,1.6,0,0,0-.17.78Z"/><path class="cls-4" d="M713.6,218.9a2.36,2.36,0,0,1-1-.68,1.84,1.84,0,0,1-.41-1h1.49a.84.84,0,0,0,.23.46,1.18,1.18,0,0,0,.48.27,2.29,2.29,0,0,0,.68.09,1.63,1.63,0,0,0,1.09-.32,1.23,1.23,0,0,0,.39-1v-1.21h-.07l0,0a2.4,2.4,0,0,1-.37.5,2,2,0,0,1-.58.37,2.26,2.26,0,0,1-.87.15,2.54,2.54,0,0,1-1.34-.36,2.47,2.47,0,0,1-.94-1.07,3.86,3.86,0,0,1-.34-1.71,4.08,4.08,0,0,1,.34-1.75,2.55,2.55,0,0,1,.94-1.1,2.58,2.58,0,0,1,1.35-.37,2,2,0,0,1,.84.16,1.58,1.58,0,0,1,.56.38,2.44,2.44,0,0,1,.38.5l0,.09h.07v-1H718v6.46a2.3,2.3,0,0,1-.37,1.34,2.34,2.34,0,0,1-1.06.81,4.13,4.13,0,0,1-1.55.27A4.34,4.34,0,0,1,713.6,218.9Zm2.29-3.79a1.4,1.4,0,0,0,.51-.67,2.69,2.69,0,0,0,.18-1,3.1,3.1,0,0,0-.17-1.06,1.46,1.46,0,0,0-.52-.7,1.47,1.47,0,0,0-1.64,0,1.57,1.57,0,0,0-.52.72,3,3,0,0,0-.17,1,2.74,2.74,0,0,0,.18,1,1.48,1.48,0,0,0,.51.68,1.37,1.37,0,0,0,.82.24A1.39,1.39,0,0,0,715.89,215.11Z"/><path class="cls-4" d="M724.28,208.12l2.52,6.17h.1l2.53-6.17h1.87v8.49h-1.47v-5.84h-.08l-2.35,5.82h-1.1L724,210.75h-.08v5.86h-1.46v-8.49Z"/><path class="cls-4" d="M732.32,216.61l3-8.49h1.88l3,8.49h-1.63l-2.27-6.75h-.07L734,216.61Zm6.16-3.33v1.23H734v-1.23Z"/><path class="cls-4" d="M743.56,214.82h.09l2.21-6.7h1.68l-3,8.49h-1.88l-3-8.49h1.68Z"/><path class="cls-4" d="M751,208.12h6.76v1.29h-2.62v7.2h-1.52v-7.2H751Z"/><path class="cls-4" d="M759.16,216.32a2.63,2.63,0,0,1-1.06-1.15,3.61,3.61,0,0,1-.38-1.72,3.66,3.66,0,0,1,.38-1.72,2.71,2.71,0,0,1,1.06-1.16,3.37,3.37,0,0,1,3.22,0,2.77,2.77,0,0,1,1.06,1.16,3.79,3.79,0,0,1,.38,1.72,3.73,3.73,0,0,1-.38,1.72,2.69,2.69,0,0,1-1.06,1.15,3.37,3.37,0,0,1-3.22,0Zm2.46-1a1.76,1.76,0,0,0,.51-.75,3,3,0,0,0,.17-1.07,3,3,0,0,0-.17-1.07,1.73,1.73,0,0,0-.51-.76,1.42,1.42,0,0,0-1.69,0,1.77,1.77,0,0,0-.53.76,3.2,3.2,0,0,0-.17,1.07,3.25,3.25,0,0,0,.17,1.07,1.8,1.8,0,0,0,.53.75,1.46,1.46,0,0,0,1.69,0Z"/><path class="cls-4" d="M765,208.12h1.5v8.49H765Zm1.36,4.69h.24l2.29-2.56h1.75l-2.82,3.12h-.3l-1.15,1.24Zm.56.9,1-1.05,2.85,4H769Z"/><path class="cls-4" d="M772.42,216.34a2.68,2.68,0,0,1-1.07-1.14,4.23,4.23,0,0,1,0-3.46,2.71,2.71,0,0,1,1.06-1.16,2.93,2.93,0,0,1,1.57-.42,3.14,3.14,0,0,1,1.48.35,2.56,2.56,0,0,1,1,1.07,3.75,3.75,0,0,1,.39,1.8v.46h-5.21v-1h3.78a1.67,1.67,0,0,0-.19-.78,1.3,1.3,0,0,0-.51-.53,1.44,1.44,0,0,0-.75-.19,1.58,1.58,0,0,0-.81.21,1.56,1.56,0,0,0-.55.59,1.65,1.65,0,0,0-.19.79v.87a2.06,2.06,0,0,0,.2,1,1.4,1.4,0,0,0,.57.61,1.67,1.67,0,0,0,.85.21,1.81,1.81,0,0,0,.58-.08,1.27,1.27,0,0,0,.43-.24,1,1,0,0,0,.28-.34h1.46a2.21,2.21,0,0,1-.5,1,2.42,2.42,0,0,1-1,.64,3.55,3.55,0,0,1-1.3.22A3.3,3.3,0,0,1,772.42,216.34Z"/><path class="cls-4" d="M779.55,216.61h-1.49v-6.36h1.43v1.08h.08a1.64,1.64,0,0,1,.41-.62,1.85,1.85,0,0,1,.64-.41,2.47,2.47,0,0,1,.84-.14,2.36,2.36,0,0,1,1.15.28,1.91,1.91,0,0,1,.76.83,2.86,2.86,0,0,1,.27,1.29v4.05h-1.49v-3.82a1.61,1.61,0,0,0-.15-.73,1,1,0,0,0-.43-.47,1.3,1.3,0,0,0-.67-.16,1.35,1.35,0,0,0-.7.17,1.22,1.22,0,0,0-.48.5,1.73,1.73,0,0,0-.17.78Z"/><path class="cls-4" d="M679.87,228.24l-.81.06a1.45,1.45,0,0,0-.85.27.73.73,0,0,0-.31.63.76.76,0,0,0,.14.46.84.84,0,0,0,.38.28,1.4,1.4,0,0,0,.56.1,1.66,1.66,0,0,0,.78-.18,1.34,1.34,0,0,0,.52-.48,1.25,1.25,0,0,0,.18-.65v-2a1,1,0,0,0-.13-.53.87.87,0,0,0-.39-.34,1.48,1.48,0,0,0-.63-.12,1.42,1.42,0,0,0-.57.1,1,1,0,0,0-.4.26.78.78,0,0,0-.21.4h-1.45a2,2,0,0,1,.39-1,2.22,2.22,0,0,1,.92-.67,3.37,3.37,0,0,1,1.36-.25,3.7,3.7,0,0,1,1.26.21,2,2,0,0,1,1,.7,2,2,0,0,1,.38,1.29V231h-1.43v-.87h0a1.58,1.58,0,0,1-.39.5,1.93,1.93,0,0,1-.63.36,2.48,2.48,0,0,1-.85.14,2.6,2.6,0,0,1-1.1-.22,1.7,1.7,0,0,1-.75-.65,1.87,1.87,0,0,1-.28-1.05,1.58,1.58,0,0,1,.66-1.42,3.53,3.53,0,0,1,1.71-.51l.67,0,.72,0h.31l0,1Z"/><path class="cls-4" d="M686.6,225.88a1.29,1.29,0,0,0-.76-.21,1.7,1.7,0,0,0-.57.1,1,1,0,0,0-.39.27.55.55,0,0,0-.15.38.54.54,0,0,0,.22.44,1.6,1.6,0,0,0,.69.29l1.08.23a2.75,2.75,0,0,1,1.34.62,1.47,1.47,0,0,1,.44,1.11,1.73,1.73,0,0,1-.33,1,2.13,2.13,0,0,1-.95.72,4.23,4.23,0,0,1-2.81,0,2.08,2.08,0,0,1-.93-.66,2,2,0,0,1-.42-1h1.52a.81.81,0,0,0,.38.6,1.44,1.44,0,0,0,.83.21,1.74,1.74,0,0,0,.63-.1,1,1,0,0,0,.42-.26.6.6,0,0,0,.14-.41.57.57,0,0,0-.22-.46,1.72,1.72,0,0,0-.7-.28l-1-.22a2.59,2.59,0,0,1-1.33-.63,1.47,1.47,0,0,1-.45-1.14,1.63,1.63,0,0,1,.31-1,2,2,0,0,1,.9-.69,3.55,3.55,0,0,1,1.36-.24,3.33,3.33,0,0,1,1.31.24,2,2,0,0,1,.87.65,1.94,1.94,0,0,1,.38,1H687A.91.91,0,0,0,686.6,225.88Z"/><path class="cls-4" d="M695.61,228.24l-.8.06a1.51,1.51,0,0,0-.86.27.74.74,0,0,0-.3.63.76.76,0,0,0,.13.46.9.9,0,0,0,.38.28,1.43,1.43,0,0,0,.56.1,1.61,1.61,0,0,0,.78-.18,1.37,1.37,0,0,0,.53-.48,1.25,1.25,0,0,0,.18-.65v-2a1,1,0,0,0-.13-.53.87.87,0,0,0-.39-.34,1.48,1.48,0,0,0-.63-.12,1.42,1.42,0,0,0-.57.1,1.07,1.07,0,0,0-.41.26,1,1,0,0,0-.21.4h-1.44a1.79,1.79,0,0,1,.39-1,2.22,2.22,0,0,1,.92-.67,3.37,3.37,0,0,1,1.36-.25,3.7,3.7,0,0,1,1.26.21,2,2,0,0,1,1,.7,2.06,2.06,0,0,1,.38,1.29V231h-1.43v-.87h0a1.61,1.61,0,0,1-.4.5,1.78,1.78,0,0,1-.62.36,2.48,2.48,0,0,1-.85.14,2.57,2.57,0,0,1-1.1-.22,1.73,1.73,0,0,1-.76-.65,2,2,0,0,1-.27-1.05,1.58,1.58,0,0,1,.66-1.42,3.53,3.53,0,0,1,1.71-.51l.66,0,.72,0h.32v1Z"/><path class="cls-4" d="M701.65,222.52h6.76v1.29h-2.62V231h-1.52v-7.2h-2.62Z"/><path class="cls-4" d="M708.88,224.65h1.45v1.06h.06a1.77,1.77,0,0,1,.35-.63,1.5,1.5,0,0,1,.54-.39,1.72,1.72,0,0,1,.68-.14,3.1,3.1,0,0,1,.54,0V226l-.31-.06-.38,0a1.53,1.53,0,0,0-.74.18,1.21,1.21,0,0,0-.51.49,1.33,1.33,0,0,0-.19.71V231h-1.49Z"/><path class="cls-4" d="M716.39,228.24l-.81.06a1.48,1.48,0,0,0-.85.27.75.75,0,0,0-.31.63.76.76,0,0,0,.14.46.84.84,0,0,0,.38.28,1.4,1.4,0,0,0,.56.1,1.66,1.66,0,0,0,.78-.18,1.28,1.28,0,0,0,.52-.48,1.25,1.25,0,0,0,.18-.65v-2a1,1,0,0,0-.14-.53.77.77,0,0,0-.39-.34,1.69,1.69,0,0,0-1.2,0,1.11,1.11,0,0,0-.4.26,1,1,0,0,0-.21.4h-1.45a2,2,0,0,1,.39-1,2.29,2.29,0,0,1,.92-.67,3.42,3.42,0,0,1,1.37-.25,3.6,3.6,0,0,1,1.25.21,2,2,0,0,1,1,.7,2,2,0,0,1,.38,1.29V231H717v-.87h0a1.45,1.45,0,0,1-.39.5,2,2,0,0,1-.62.36,2.77,2.77,0,0,1-2-.08,1.67,1.67,0,0,1-.76-.65,1.87,1.87,0,0,1-.28-1.05,1.58,1.58,0,0,1,.66-1.42,3.53,3.53,0,0,1,1.71-.51l.67,0,.72,0h.32v1Z"/><path class="cls-4" d="M721.37,231h-1.49v-6.36h1.43v1.08h.07a1.79,1.79,0,0,1,.42-.62,1.85,1.85,0,0,1,.64-.41,2.47,2.47,0,0,1,.84-.14,2.36,2.36,0,0,1,1.15.28,1.91,1.91,0,0,1,.76.83,2.86,2.86,0,0,1,.27,1.29v4H724v-3.82a1.61,1.61,0,0,0-.15-.73,1,1,0,0,0-.43-.47,1.3,1.3,0,0,0-.67-.16,1.35,1.35,0,0,0-.7.17,1.22,1.22,0,0,0-.48.5,1.73,1.73,0,0,0-.17.78Z"/><path class="cls-4" d="M730.12,225.88a1.27,1.27,0,0,0-.76-.21,1.6,1.6,0,0,0-.56.1,1.08,1.08,0,0,0-.4.27.54.54,0,0,0-.14.38.56.56,0,0,0,.21.44,1.72,1.72,0,0,0,.69.29l1.08.23a2.79,2.79,0,0,1,1.35.62,1.51,1.51,0,0,1,.44,1.11,1.73,1.73,0,0,1-.33,1,2.19,2.19,0,0,1-1,.72,3.73,3.73,0,0,1-1.43.25,3.65,3.65,0,0,1-1.39-.23,2.13,2.13,0,0,1-.93-.66,2.1,2.1,0,0,1-.41-1h1.51a.87.87,0,0,0,.38.6,1.47,1.47,0,0,0,.84.21,1.72,1.72,0,0,0,.62-.1,1,1,0,0,0,.42-.26.61.61,0,0,0,.15-.41.58.58,0,0,0-.23-.46,1.73,1.73,0,0,0-.69-.28l-1-.22a2.62,2.62,0,0,1-1.34-.63,1.54,1.54,0,0,1-.45-1.14,1.63,1.63,0,0,1,.32-1,2,2,0,0,1,.9-.69,3.54,3.54,0,0,1,1.35-.24,3.29,3.29,0,0,1,1.31.24,2,2,0,0,1,.88.65,1.93,1.93,0,0,1,.37,1h-1.42A.84.84,0,0,0,730.12,225.88Z"/><path class="cls-4" d="M736.29,228.24l-.81.06a1.45,1.45,0,0,0-.85.27.73.73,0,0,0-.31.63.76.76,0,0,0,.14.46.84.84,0,0,0,.38.28,1.35,1.35,0,0,0,.55.1,1.67,1.67,0,0,0,.79-.18,1.34,1.34,0,0,0,.52-.48,1.25,1.25,0,0,0,.18-.65v-2a1,1,0,0,0-.13-.53.87.87,0,0,0-.39-.34,1.48,1.48,0,0,0-.63-.12,1.42,1.42,0,0,0-.57.1,1,1,0,0,0-.4.26.78.78,0,0,0-.21.4h-1.45a2,2,0,0,1,.39-1,2.22,2.22,0,0,1,.92-.67,3.37,3.37,0,0,1,1.36-.25,3.7,3.7,0,0,1,1.26.21,2,2,0,0,1,1,.7,2,2,0,0,1,.38,1.29V231h-1.43v-.87h0a1.58,1.58,0,0,1-.39.5,1.93,1.93,0,0,1-.63.36,2.48,2.48,0,0,1-.85.14,2.6,2.6,0,0,1-1.1-.22,1.7,1.7,0,0,1-.75-.65,1.87,1.87,0,0,1-.28-1.05,1.58,1.58,0,0,1,.66-1.42,3.53,3.53,0,0,1,1.71-.51l.66,0,.73,0H737v1Z"/><path class="cls-4" d="M740.93,230.72a2.77,2.77,0,0,1-1.06-1.16,3.84,3.84,0,0,1-.37-1.71,3.77,3.77,0,0,1,.38-1.71,2.71,2.71,0,0,1,1.06-1.16,3,3,0,0,1,1.6-.42,3.32,3.32,0,0,1,1.37.28,2.43,2.43,0,0,1,1,.8,2.35,2.35,0,0,1,.4,1.2h-1.42a1.54,1.54,0,0,0-.23-.56,1.21,1.21,0,0,0-.43-.38,1.38,1.38,0,0,0-.62-.14,1.44,1.44,0,0,0-.82.25,1.67,1.67,0,0,0-.54.72,3.15,3.15,0,0,0,0,2.21,1.51,1.51,0,0,0,.54.73,1.4,1.4,0,0,0,.82.25,1.38,1.38,0,0,0,.59-.13,1.15,1.15,0,0,0,.45-.37,1.32,1.32,0,0,0,.24-.58h1.42a2.45,2.45,0,0,1-.4,1.2,2.24,2.24,0,0,1-.94.8,3,3,0,0,1-1.38.29A3,3,0,0,1,740.93,230.72Z"/><path class="cls-4" d="M749.57,225.8h-3.64v-1.15h3.64Zm-1.25-2.68v6a1,1,0,0,0,.09.45.46.46,0,0,0,.24.22.8.8,0,0,0,.36.07c.11,0,.33,0,.65,0V231a5.35,5.35,0,0,1-.84.06,2.56,2.56,0,0,1-1-.2,1.54,1.54,0,0,1-.7-.58,1.69,1.69,0,0,1-.26-1v-6.22Z"/><path class="cls-4" d="M751.05,223.63a.84.84,0,0,1-.32-.3.7.7,0,0,1-.12-.4.73.73,0,0,1,.12-.41.84.84,0,0,1,.32-.3.88.88,0,0,1,.43-.1.91.91,0,0,1,.43.1.84.84,0,0,1,.32.3.81.81,0,0,1,.11.41.77.77,0,0,1-.11.4.84.84,0,0,1-.32.3.92.92,0,0,1-.43.11A.89.89,0,0,1,751.05,223.63Zm-.32,1h1.49V231h-1.49Z"/><path class="cls-4" d="M754.83,230.72a2.71,2.71,0,0,1-1.07-1.15,3.73,3.73,0,0,1-.37-1.72,3.78,3.78,0,0,1,.37-1.72,2.79,2.79,0,0,1,1.07-1.16,3.35,3.35,0,0,1,3.21,0,2.79,2.79,0,0,1,1.07,1.16,3.78,3.78,0,0,1,.37,1.72,3.73,3.73,0,0,1-.37,1.72,2.71,2.71,0,0,1-1.07,1.15,3.35,3.35,0,0,1-3.21,0Zm2.45-1.05a1.78,1.78,0,0,0,.52-.75,3.29,3.29,0,0,0,.17-1.07,3.2,3.2,0,0,0-.17-1.07,1.75,1.75,0,0,0-.52-.76,1.33,1.33,0,0,0-.84-.28,1.36,1.36,0,0,0-.85.28,1.75,1.75,0,0,0-.52.76,3,3,0,0,0-.18,1.07,3,3,0,0,0,.18,1.07,1.78,1.78,0,0,0,.52.75,1.35,1.35,0,0,0,.85.27A1.32,1.32,0,0,0,757.28,229.67Z"/><path class="cls-4" d="M762.14,231h-1.49v-6.36h1.43v1.08h.07a1.79,1.79,0,0,1,.42-.62,1.76,1.76,0,0,1,.64-.41,2.47,2.47,0,0,1,.84-.14,2.36,2.36,0,0,1,1.15.28,2,2,0,0,1,.76.83,2.86,2.86,0,0,1,.27,1.29v4h-1.49v-3.82a1.61,1.61,0,0,0-.15-.73,1,1,0,0,0-.43-.47,1.3,1.3,0,0,0-.67-.16,1.35,1.35,0,0,0-.7.17,1.22,1.22,0,0,0-.48.5,1.73,1.73,0,0,0-.17.78Z"/><path class="cls-4" d="M770.57,222.52H776v1.29h-3.91v2.31h3.54v1.28h-3.54V231h-1.52Z"/><path class="cls-4" d="M777.94,230.73a2.6,2.6,0,0,1-1.07-1.13,4.23,4.23,0,0,1,0-3.46,2.75,2.75,0,0,1,1-1.16,3,3,0,0,1,1.58-.42,3.1,3.1,0,0,1,1.47.35,2.52,2.52,0,0,1,1,1.07,3.75,3.75,0,0,1,.39,1.8v.46H777.2v-1H781a1.67,1.67,0,0,0-.19-.78,1.3,1.3,0,0,0-.51-.53,1.44,1.44,0,0,0-.75-.19,1.58,1.58,0,0,0-.81.21,1.56,1.56,0,0,0-.55.59,1.66,1.66,0,0,0-.2.79v.87a2.19,2.19,0,0,0,.2,1,1.48,1.48,0,0,0,.58.61,1.67,1.67,0,0,0,.85.21,1.81,1.81,0,0,0,.58-.08,1.37,1.37,0,0,0,.43-.24,1,1,0,0,0,.28-.34h1.46a2.27,2.27,0,0,1-.5,1,2.42,2.42,0,0,1-1,.64,3.58,3.58,0,0,1-1.3.22A3.2,3.2,0,0,1,777.94,230.73Z"/><path class="cls-4" d="M784.75,230.73a2.66,2.66,0,0,1-1.07-1.13,4.23,4.23,0,0,1,0-3.46,2.71,2.71,0,0,1,1.06-1.16,2.93,2.93,0,0,1,1.57-.42,3.14,3.14,0,0,1,1.48.35,2.5,2.5,0,0,1,1,1.07,3.75,3.75,0,0,1,.39,1.8v.46H784v-1h3.78a1.55,1.55,0,0,0-.19-.78,1.3,1.3,0,0,0-.51-.53,1.42,1.42,0,0,0-.75-.19,1.58,1.58,0,0,0-.81.21,1.56,1.56,0,0,0-.55.59,1.65,1.65,0,0,0-.19.79v.87a2.06,2.06,0,0,0,.2,1,1.4,1.4,0,0,0,.57.61,1.67,1.67,0,0,0,.85.21,1.77,1.77,0,0,0,.58-.08,1.43,1.43,0,0,0,.44-.24,1.1,1.1,0,0,0,.27-.34h1.46a2.16,2.16,0,0,1-.5,1,2.46,2.46,0,0,1-.95.64,3.64,3.64,0,0,1-1.31.22A3.25,3.25,0,0,1,784.75,230.73Z"/><g class="cls-9"><path class="cls-4" d="M607.3,138.64a102.32,102.32,0,0,0-16.17-25.36h0a101.86,101.86,0,1,0,16.17,25.36Z"/></g><path class="cls-7" d="M607.3,138.64a102.32,102.32,0,0,0-16.17-25.36h0a101.86,101.86,0,1,0,16.17,25.36Z"/><path class="cls-4" d="M489.9,157.61l4.16,7.52h.17l4.16-7.52h3.45l-6.18,10.63v6.34h-3v-6.34l-6.17-10.63Z"/><path class="cls-4" d="M504.19,159.82a1.73,1.73,0,0,1-.64-.59,1.43,1.43,0,0,1-.24-.81,1.51,1.51,0,0,1,.24-.82,1.65,1.65,0,0,1,.64-.59,1.87,1.87,0,0,1,1.72,0,1.56,1.56,0,0,1,.63.59,1.51,1.51,0,0,1,.24.82,1.43,1.43,0,0,1-.24.81,1.63,1.63,0,0,1-.63.59,1.79,1.79,0,0,1-1.72,0Zm-.64,2h3v12.73h-3Z"/><path class="cls-4" d="M511.75,174a5.3,5.3,0,0,1-2.14-2.28,8.31,8.31,0,0,1,0-6.9,5.55,5.55,0,0,1,2.11-2.33,6,6,0,0,1,3.16-.83,6.14,6.14,0,0,1,2.94.7,5,5,0,0,1,2.1,2.13,7.49,7.49,0,0,1,.78,3.6V169H510.26v-2h7.57a3.29,3.29,0,0,0-.37-1.55,2.7,2.7,0,0,0-1-1.07,3.07,3.07,0,0,0-4.22,1.21,3.25,3.25,0,0,0-.4,1.6V169a4.26,4.26,0,0,0,.4,1.9,3,3,0,0,0,1.14,1.23,3.35,3.35,0,0,0,1.72.43,3.51,3.51,0,0,0,1.15-.17,2.59,2.59,0,0,0,.87-.47,2.3,2.3,0,0,0,.56-.69h2.91a4.33,4.33,0,0,1-1,1.92,4.91,4.91,0,0,1-1.91,1.28,7.22,7.22,0,0,1-2.61.45A6.45,6.45,0,0,1,511.75,174Z"/><path class="cls-4" d="M526,174.58h-3v-17h3Z"/><path class="cls-4" d="M530.92,174a5.21,5.21,0,0,1-1.87-2.26,8.48,8.48,0,0,1-.68-3.53,8.34,8.34,0,0,1,.69-3.54,5.16,5.16,0,0,1,1.89-2.25,4.85,4.85,0,0,1,2.68-.76,4.11,4.11,0,0,1,1.69.31,3.29,3.29,0,0,1,1.12.76,4.92,4.92,0,0,1,.74,1l.05.07,0,.09h.12v-6.34h3v17h-2.92v-2h-.18l-.06.12a5.06,5.06,0,0,1-.75,1,3.6,3.6,0,0,1-1.14.76,4.18,4.18,0,0,1-1.69.32A4.83,4.83,0,0,1,530.92,174Zm5.15-2.18a3.24,3.24,0,0,0,1-1.45,6.31,6.31,0,0,0,.35-2.18,6,6,0,0,0-.35-2.17,3,3,0,0,0-1-1.41,2.7,2.7,0,0,0-1.63-.5,2.61,2.61,0,0,0-1.66.52,3.14,3.14,0,0,0-1,1.43,6.1,6.1,0,0,0-.35,2.13,6,6,0,0,0,.36,2.15,3.31,3.31,0,0,0,1,1.46,2.55,2.55,0,0,0,1.65.53A2.61,2.61,0,0,0,536.07,171.85Z"/><path class="cls-4" d="M470.3,186.41h10.86V189h-7.82v4.62h7.07v2.57h-7.07v7.21h-3Z"/><path class="cls-4" d="M489.73,197.84l-1.61.12a3.18,3.18,0,0,0-1.71.53,1.66,1.66,0,0,0-.34,2.19,1.7,1.7,0,0,0,.76.57,2.93,2.93,0,0,0,1.11.19,3.28,3.28,0,0,0,1.57-.36,2.67,2.67,0,0,0,1-1,2.43,2.43,0,0,0,.37-1.31l0-4.07a2.16,2.16,0,0,0-.26-1.08,1.71,1.71,0,0,0-.78-.67,3,3,0,0,0-1.26-.23,3.25,3.25,0,0,0-1.14.18,2.12,2.12,0,0,0-.81.53,1.72,1.72,0,0,0-.42.8h-2.89a3.64,3.64,0,0,1,.78-1.95A4.3,4.3,0,0,1,486,191a6.88,6.88,0,0,1,2.72-.49,7.65,7.65,0,0,1,2.52.41,4.18,4.18,0,0,1,1.92,1.4,4.11,4.11,0,0,1,.76,2.57v8.51H491v-1.75h-.1a3.38,3.38,0,0,1-.79,1,4,4,0,0,1-1.25.72,5,5,0,0,1-1.7.27,5.3,5.3,0,0,1-2.2-.44,3.51,3.51,0,0,1-1.52-1.3,3.9,3.9,0,0,1-.55-2.09,3.16,3.16,0,0,1,1.33-2.85,7,7,0,0,1,3.41-1l1.33-.07,1.45-.08.63,0,0,2C490.81,197.77,490.36,197.79,489.73,197.84Z"/><path class="cls-4" d="M496.71,190.65h2.89v2.13h.14a3.52,3.52,0,0,1,.68-1.25,3,3,0,0,1,1.1-.79,3.4,3.4,0,0,1,1.36-.27,7.41,7.41,0,0,1,1.08.08v2.75a3.21,3.21,0,0,0-.63-.12,5.17,5.17,0,0,0-.76-.06,3,3,0,0,0-1.47.36,2.56,2.56,0,0,0-1,1,2.71,2.71,0,0,0-.37,1.42v7.5h-3Z"/><path class="cls-4" d="M505.74,190.65h2.86v2.17h.15a3.42,3.42,0,0,1,1.32-1.72,3.82,3.82,0,0,1,2.18-.61,4.07,4.07,0,0,1,1.55.28,3.09,3.09,0,0,1,1.17.8,3.29,3.29,0,0,1,.72,1.25h.13a3.41,3.41,0,0,1,.84-1.24,3.85,3.85,0,0,1,1.32-.81,4.68,4.68,0,0,1,1.67-.28,4.27,4.27,0,0,1,2.08.5,3.46,3.46,0,0,1,1.4,1.48,5.25,5.25,0,0,1,.5,2.37v8.54h-3V195.3a2.3,2.3,0,0,0-.61-1.72,2.16,2.16,0,0,0-1.57-.58,2.49,2.49,0,0,0-1.25.3,2,2,0,0,0-.79.86,2.86,2.86,0,0,0-.27,1.27v7.95h-2.93v-8.21A2.34,2.34,0,0,0,513,194a1.77,1.77,0,0,0-.75-.76,2.3,2.3,0,0,0-1.13-.27,2.21,2.21,0,0,0-1.18.33,2.36,2.36,0,0,0-.85.94,2.9,2.9,0,0,0-.31,1.36v7.75h-3Z"/><path class="cls-4" d="M527.11,188.62a1.78,1.78,0,0,1-.63-.59,1.43,1.43,0,0,1-.24-.81,1.48,1.48,0,0,1,.24-.82,1.7,1.7,0,0,1,.63-.59,1.89,1.89,0,0,1,1.73,0,1.59,1.59,0,0,1,.86,1.41,1.5,1.5,0,0,1-.23.81,1.63,1.63,0,0,1-.63.59,1.81,1.81,0,0,1-1.73,0Zm-.63,2h3v12.73h-3Z"/><path class="cls-4" d="M535.32,203.38h-3V190.65h2.85v2.17h.16a3.53,3.53,0,0,1,.82-1.25,3.81,3.81,0,0,1,1.28-.8,4.7,4.7,0,0,1,1.68-.28,4.58,4.58,0,0,1,2.3.56A3.8,3.8,0,0,1,543,192.7a5.71,5.71,0,0,1,.54,2.58v8.1h-3v-7.65a3.23,3.23,0,0,0-.3-1.45,2,2,0,0,0-.85-.94A2.61,2.61,0,0,0,538,193a2.77,2.77,0,0,0-1.4.34,2.3,2.3,0,0,0-1,1,3.32,3.32,0,0,0-.35,1.56Z"/><path class="cls-4" d="M549,208a4.42,4.42,0,0,1-2-1.35,3.76,3.76,0,0,1-.83-2.08h3a1.74,1.74,0,0,0,.48.92,2.17,2.17,0,0,0,1,.55,4.6,4.6,0,0,0,1.35.18,3.35,3.35,0,0,0,2.19-.65,2.45,2.45,0,0,0,.78-2V201.1h-.15l0,.05a4.09,4.09,0,0,1-.75,1,3.4,3.4,0,0,1-1.15.73,4.38,4.38,0,0,1-1.73.31,5.09,5.09,0,0,1-2.69-.72,5,5,0,0,1-1.88-2.14,7.72,7.72,0,0,1-.69-3.42,8.08,8.08,0,0,1,.69-3.49,4.85,4.85,0,0,1,4.57-2.94,4.18,4.18,0,0,1,1.69.31,3.43,3.43,0,0,1,1.12.75,6.15,6.15,0,0,1,.76,1l.1.18h.15v-2.1h2.94v12.94a4.35,4.35,0,0,1-2.87,4.3,8.46,8.46,0,0,1-3.1.53A8.17,8.17,0,0,1,549,208Zm4.57-7.56a3,3,0,0,0,1-1.34,5.68,5.68,0,0,0,.35-2.09,6,6,0,0,0-.35-2.12,3,3,0,0,0-1-1.41,2.76,2.76,0,0,0-1.63-.49,2.71,2.71,0,0,0-1.66.51,3.11,3.11,0,0,0-1,1.42,5.91,5.91,0,0,0-.35,2.09,5.42,5.42,0,0,0,.36,2.06,3.1,3.1,0,0,0,1,1.36,2.73,2.73,0,0,0,1.65.48A2.79,2.79,0,0,0,553.52,200.39Z"/><path class="cls-4" d="M254.34,192.94h1.4v8h4.16v1.2h-5.56Z"/><path class="cls-4" d="M261.32,192.94h3.29a3.62,3.62,0,0,1,1.75.38,2.49,2.49,0,0,1,1.08,1.05,3.59,3.59,0,0,1,0,3.09,2.63,2.63,0,0,1-1.08,1.06,3.62,3.62,0,0,1-1.75.39h-2.26v-1.19h2.12a2.21,2.21,0,0,0,1.08-.24,1.37,1.37,0,0,0,.63-.63,2.19,2.19,0,0,0,0-1.87,1.4,1.4,0,0,0-.63-.62,2.35,2.35,0,0,0-1.09-.23h-1.74v8h-1.4Z"/><path class="cls-4" d="M272,192.94h7.12v1.2h-2.85v8h-1.4v-8H272Z"/><path class="cls-4" d="M280.63,201.82a2.86,2.86,0,0,1-1.13-1.25,4,4,0,0,1-.4-1.86,4.12,4.12,0,0,1,.4-1.87,2.86,2.86,0,0,1,1.13-1.25,3.4,3.4,0,0,1,3.38,0,2.92,2.92,0,0,1,1.13,1.25,4.25,4.25,0,0,1,.39,1.87,4.18,4.18,0,0,1-.39,1.86,2.92,2.92,0,0,1-1.13,1.25,3.4,3.4,0,0,1-3.38,0Zm2.71-1a1.88,1.88,0,0,0,.62-.87,3.71,3.71,0,0,0,0-2.46,2,2,0,0,0-.62-.88,1.6,1.6,0,0,0-1-.33,1.58,1.58,0,0,0-1,.33,1.92,1.92,0,0,0-.63.88,3.71,3.71,0,0,0,0,2.46,1.89,1.89,0,0,0,.63.87,1.58,1.58,0,0,0,1,.33A1.6,1.6,0,0,0,283.34,200.81Z"/><path class="cls-4" d="M286.88,192.94h1.35v9.19h-1.35Zm1.23,5.21h.24l2.73-2.92h1.62l-3.13,3.33h-.21l-1.24,1.23Zm.66.71.93-1,3.19,4.22h-1.66Z"/><path class="cls-4" d="M294.71,201.83a2.86,2.86,0,0,1-1.14-1.24,4.18,4.18,0,0,1-.4-1.86,4.28,4.28,0,0,1,.4-1.87,3,3,0,0,1,2.79-1.72,3.15,3.15,0,0,1,1.53.37,2.69,2.69,0,0,1,1.11,1.13,4,4,0,0,1,.43,2v.48h-5.5v-1h4.16a2,2,0,0,0-.21-.94,1.57,1.57,0,0,0-.6-.65,1.77,1.77,0,0,0-.9-.23,1.75,1.75,0,0,0-1,.27,1.88,1.88,0,0,0-.66.71,2.13,2.13,0,0,0-.23,1V199a2.58,2.58,0,0,0,.24,1.16,1.77,1.77,0,0,0,.68.75,2,2,0,0,0,1,.25,2.24,2.24,0,0,0,.66-.09,1.76,1.76,0,0,0,.51-.27,1.45,1.45,0,0,0,.32-.39h1.38a2.44,2.44,0,0,1-.55,1,2.69,2.69,0,0,1-1,.66,3.8,3.8,0,0,1-1.34.23A3.42,3.42,0,0,1,294.71,201.83Z"/><path class="cls-4" d="M302.12,202.13h-1.35v-6.9h1.3v1.13h.09a2.07,2.07,0,0,1,.44-.65,2,2,0,0,1,.68-.42,2.59,2.59,0,0,1,.91-.15,2.47,2.47,0,0,1,1.24.3,2.06,2.06,0,0,1,.82.88,3.24,3.24,0,0,1,.29,1.42v4.39h-1.36v-4.22a2.09,2.09,0,0,0-.17-.86,1.27,1.27,0,0,0-.5-.55,1.8,1.8,0,0,0-1.61,0,1.47,1.47,0,0,0-.57.59,1.94,1.94,0,0,0-.21.93Z"/><path class="cls-4" d="M311.46,192.94h3.29a3.84,3.84,0,0,1,1.75.36,2.41,2.41,0,0,1,1.08,1,3.41,3.41,0,0,1,0,3,2.34,2.34,0,0,1-1.07,1,4.07,4.07,0,0,1-1.77.35h-2.49v-1.2h2.35a2.67,2.67,0,0,0,1.1-.2,1.36,1.36,0,0,0,.63-.55,1.86,1.86,0,0,0,.19-.89,1.94,1.94,0,0,0-.19-.91,1.4,1.4,0,0,0-.64-.58,2.62,2.62,0,0,0-1.09-.2h-1.74v8h-1.4Zm6.82,9.19h-1.59L314.46,198H316Z"/><path class="cls-4" d="M320.5,201.83a2.92,2.92,0,0,1-1.14-1.24,4.18,4.18,0,0,1-.39-1.86,4.28,4.28,0,0,1,.39-1.87,3,3,0,0,1,2.79-1.72,3.15,3.15,0,0,1,1.53.37,2.71,2.71,0,0,1,1.12,1.13,4.14,4.14,0,0,1,.42,2v.48h-5.49v-1h4.16a1.92,1.92,0,0,0-.22-.94,1.57,1.57,0,0,0-.6-.65,1.82,1.82,0,0,0-2.52.75,2.14,2.14,0,0,0-.24,1V199a2.45,2.45,0,0,0,.25,1.16,1.71,1.71,0,0,0,.68.75,2,2,0,0,0,1,.25,2.31,2.31,0,0,0,.67-.09,1.58,1.58,0,0,0,.5-.27,1.49,1.49,0,0,0,.33-.39h1.37a2.31,2.31,0,0,1-.54,1,2.65,2.65,0,0,1-1,.66,3.76,3.76,0,0,1-1.34.23A3.42,3.42,0,0,1,320.5,201.83Z"/><path class="cls-4" d="M326,195.23h1.4l1.34,5.06h.07l1.35-5.06h1.4l1.34,5H333l1.33-5h1.4l-2,6.9h-1.38l-1.4-5h-.1l-1.39,5H328Z"/><path class="cls-4" d="M340.21,199.06l-.93.06a2.09,2.09,0,0,0-1.07.32.87.87,0,0,0-.37.76.92.92,0,0,0,.16.55,1.07,1.07,0,0,0,.46.34,2.06,2.06,0,0,0,.68.11,1.89,1.89,0,0,0,.94-.22,1.47,1.47,0,0,0,.61-.57,1.49,1.49,0,0,0,.21-.77v-2.18a1.24,1.24,0,0,0-.16-.66,1,1,0,0,0-.47-.42,2.17,2.17,0,0,0-1.45,0,1.29,1.29,0,0,0-.49.31,1,1,0,0,0-.25.45h-1.36a2,2,0,0,1,.43-1,2.31,2.31,0,0,1,1-.7,3.65,3.65,0,0,1,1.41-.26,3.8,3.8,0,0,1,1.27.21,2.11,2.11,0,0,1,1,.74,2.3,2.3,0,0,1,.42,1.46v4.58h-1.32v-.94h-.05a1.85,1.85,0,0,1-.41.53,2,2,0,0,1-.68.4,2.56,2.56,0,0,1-1,.16,2.7,2.7,0,0,1-1.19-.25,2,2,0,0,1-.84-.72,2,2,0,0,1-.3-1.13,1.65,1.65,0,0,1,.72-1.52,3.89,3.89,0,0,1,1.86-.54l.73,0,.8,0,.36,0v1Z"/><path class="cls-4" d="M343.89,195.23h1.31v1.1h.07a1.78,1.78,0,0,1,1-1.06,2,2,0,0,1,.75-.14,5.35,5.35,0,0,1,.58,0v1.3l-.32-.06-.39,0a1.8,1.8,0,0,0-.84.2,1.45,1.45,0,0,0-.59.56,1.52,1.52,0,0,0-.21.8v4.2h-1.36Z"/><path class="cls-4" d="M349.48,201.83a2.83,2.83,0,0,1-1-1.24,4.6,4.6,0,0,1-.37-1.9,4.39,4.39,0,0,1,.38-1.89,2.8,2.8,0,0,1,1-1.23,2.71,2.71,0,0,1,1.49-.43,2.22,2.22,0,0,1,.94.18,1.76,1.76,0,0,1,.6.41,3.78,3.78,0,0,1,.4.54l0,0,0,0H353v-3.41h1.35v9.19h-1.32v-1.07H353l0,.05a3.49,3.49,0,0,1-.4.56,1.91,1.91,0,0,1-.61.41,2.27,2.27,0,0,1-.95.18A2.61,2.61,0,0,1,349.48,201.83Zm2.76-1a1.86,1.86,0,0,0,.62-.86,3.52,3.52,0,0,0,.21-1.27,3.47,3.47,0,0,0-.21-1.26,1.76,1.76,0,0,0-.61-.83,1.67,1.67,0,0,0-1-.29,1.62,1.62,0,0,0-1,.3,1.85,1.85,0,0,0-.61.85,3.37,3.37,0,0,0-.21,1.23,3.45,3.45,0,0,0,.21,1.25,2,2,0,0,0,.62.87,1.55,1.55,0,0,0,1,.31A1.58,1.58,0,0,0,352.24,200.81Z"/><path class="cls-4" d="M252.68,159.51h5.71v1.21h-4.31v2.78H258v1.2h-3.9v4h-1.4Z"/><path class="cls-4" d="M263.19,165.63l-.94.07a2,2,0,0,0-1.06.32.87.87,0,0,0-.38.76.89.89,0,0,0,.17.54,1,1,0,0,0,.46.34,1.74,1.74,0,0,0,.67.12,1.89,1.89,0,0,0,.94-.22,1.47,1.47,0,0,0,.61-.57,1.41,1.41,0,0,0,.22-.77V164a1.24,1.24,0,0,0-.16-.66.92.92,0,0,0-.47-.42,1.8,1.8,0,0,0-.77-.14,1.76,1.76,0,0,0-.68.11,1.16,1.16,0,0,0-.48.3,1,1,0,0,0-.26.46H259.7a1.92,1.92,0,0,1,.42-1,2.47,2.47,0,0,1,1-.7,3.87,3.87,0,0,1,1.42-.25,4.05,4.05,0,0,1,1.26.2,2.2,2.2,0,0,1,1,.75,2.29,2.29,0,0,1,.42,1.46v4.58H263.9v-1h0a1.89,1.89,0,0,1-.41.54,2.22,2.22,0,0,1-.68.4,2.52,2.52,0,0,1-.95.16,2.7,2.7,0,0,1-1.19-.25,1.88,1.88,0,0,1-.83-.72,2,2,0,0,1-.31-1.13,1.64,1.64,0,0,1,.73-1.52,3.85,3.85,0,0,1,1.85-.54l.74,0,.79,0H264l0,1Z"/><path class="cls-4" d="M266.86,161.81h1.31v1.1h.07a1.9,1.9,0,0,1,.39-.64,1.75,1.75,0,0,1,.61-.42,2,2,0,0,1,.75-.14,5.22,5.22,0,0,1,.58,0V163l-.32-.05-.39,0a1.8,1.8,0,0,0-.84.2,1.49,1.49,0,0,0-.59.55,1.58,1.58,0,0,0-.21.81v4.2h-1.36Z"/><path class="cls-4" d="M271.58,161.81h1.3v1.13H273a1.87,1.87,0,0,1,.71-.9,2.14,2.14,0,0,1,1.17-.32,2.35,2.35,0,0,1,.82.14,1.93,1.93,0,0,1,.63.42,2.1,2.1,0,0,1,.41.66h.07a2,2,0,0,1,.46-.65,2.19,2.19,0,0,1,.71-.42,2.57,2.57,0,0,1,.9-.15A2.23,2.23,0,0,1,280,162a1.8,1.8,0,0,1,.75.79,2.87,2.87,0,0,1,.27,1.3v4.63h-1.36v-4.49a1.2,1.2,0,0,0-1.28-1.33,1.49,1.49,0,0,0-.75.18,1.26,1.26,0,0,0-.47.5,1.61,1.61,0,0,0-.17.74v4.4H275.6v-4.58a1.25,1.25,0,0,0-.16-.65,1,1,0,0,0-.44-.43,1.29,1.29,0,0,0-.66-.16,1.32,1.32,0,0,0-.7.2,1.39,1.39,0,0,0-.51.56,1.68,1.68,0,0,0-.2.81v4.25h-1.35Z"/><path class="cls-4" d="M282.87,160.64a1,1,0,0,1-.31-.29.72.72,0,0,1-.12-.4.75.75,0,0,1,.12-.41,1,1,0,0,1,.31-.29.91.91,0,0,1,.43-.1.87.87,0,0,1,.42.1.79.79,0,0,1,.31.29.75.75,0,0,1,.12.41.72.72,0,0,1-.12.4.79.79,0,0,1-.31.29.78.78,0,0,1-.42.11A.81.81,0,0,1,282.87,160.64Zm-.26,1.17H284v6.9h-1.36Z"/><path class="cls-4" d="M287,168.71h-1.36v-6.9h1.3v1.13H287a2.26,2.26,0,0,1,.44-.65,2,2,0,0,1,.68-.42,2.59,2.59,0,0,1,.91-.15,2.47,2.47,0,0,1,1.24.3,2,2,0,0,1,.82.88,3.21,3.21,0,0,1,.29,1.42v4.39H290v-4.22a2.06,2.06,0,0,0-.17-.86,1.27,1.27,0,0,0-.5-.55,1.72,1.72,0,0,0-1.61,0,1.41,1.41,0,0,0-.57.59,1.93,1.93,0,0,0-.2.93Z"/><path class="cls-4" d="M294.4,171.19a2.38,2.38,0,0,1-1-.71,2,2,0,0,1-.44-1.1h1.38a1.08,1.08,0,0,0,.28.54,1.33,1.33,0,0,0,.56.32,2.76,2.76,0,0,0,.8.11,2,2,0,0,0,1.3-.38,1.43,1.43,0,0,0,.46-1.16v-1.36h-.09l0,0a3.26,3.26,0,0,1-.39.54,2,2,0,0,1-.62.41,2.34,2.34,0,0,1-1,.17,2.76,2.76,0,0,1-1.48-.4,2.81,2.81,0,0,1-1-1.17,4.17,4.17,0,0,1-.37-1.84,4.26,4.26,0,0,1,.37-1.86,2.68,2.68,0,0,1,2.52-1.61,2.22,2.22,0,0,1,.94.18,1.74,1.74,0,0,1,.6.4,3.83,3.83,0,0,1,.41.54.41.41,0,0,1,.05.09h.09v-1.12H299v7.05a2.54,2.54,0,0,1-.4,1.44,2.43,2.43,0,0,1-1.1.86,4.45,4.45,0,0,1-1.61.28A4.23,4.23,0,0,1,294.4,171.19Zm2.49-4a1.66,1.66,0,0,0,.61-.78,3.17,3.17,0,0,0,.21-1.22,3.51,3.51,0,0,0-.2-1.22,1.79,1.79,0,0,0-.62-.82,1.57,1.57,0,0,0-1-.29,1.67,1.67,0,0,0-1,.3,1.86,1.86,0,0,0-.61.83,3.25,3.25,0,0,0-.21,1.2,3.14,3.14,0,0,0,.21,1.2,1.83,1.83,0,0,0,.62.79,1.68,1.68,0,0,0,1,.29A1.63,1.63,0,0,0,296.89,167.21Z"/><path class="cls-4" d="M304,159.51h1.4v8h4.16v1.21H304Z"/><path class="cls-4" d="M311,159.51h3.28a3.62,3.62,0,0,1,1.75.39,2.49,2.49,0,0,1,1.08,1,3.36,3.36,0,0,1,.35,1.54,3.3,3.3,0,0,1-.35,1.54A2.59,2.59,0,0,1,316,165.1a3.74,3.74,0,0,1-1.75.38H312v-1.19h2.12a2.19,2.19,0,0,0,1.08-.23,1.37,1.37,0,0,0,.63-.63,2.19,2.19,0,0,0,0-1.87,1.35,1.35,0,0,0-.63-.62,2.32,2.32,0,0,0-1.09-.23h-1.74v8H311Z"/><path class="cls-4" d="M321.61,159.51h7.13v1.21h-2.86v8h-1.4v-8h-2.87Z"/><path class="cls-4" d="M330.26,168.4a2.86,2.86,0,0,1-1.13-1.25,4.55,4.55,0,0,1,0-3.73,2.86,2.86,0,0,1,1.13-1.25,3.4,3.4,0,0,1,3.38,0,2.92,2.92,0,0,1,1.13,1.25,4.65,4.65,0,0,1,0,3.73,2.92,2.92,0,0,1-1.13,1.25,3.4,3.4,0,0,1-3.38,0Zm2.71-1a1.86,1.86,0,0,0,.62-.87,3.45,3.45,0,0,0,.21-1.23,3.37,3.37,0,0,0-.21-1.23,1.89,1.89,0,0,0-.62-.88,1.6,1.6,0,0,0-1-.33,1.65,1.65,0,0,0-1,.32,2,2,0,0,0-.63.88,3.74,3.74,0,0,0,0,2.47,2,2,0,0,0,.63.87,1.79,1.79,0,0,0,2,0Z"/><path class="cls-4" d="M336.51,159.51h1.35v9.2h-1.35Zm1.24,5.22H338l2.73-2.92h1.62l-3.13,3.33H339l-1.24,1.23Zm.65.71.93-.95,3.19,4.22h-1.66Z"/><path class="cls-4" d="M344.34,168.41a3,3,0,0,1-1.14-1.24,4.19,4.19,0,0,1-.4-1.87,4.24,4.24,0,0,1,.4-1.86,3,3,0,0,1,2.79-1.72,3.26,3.26,0,0,1,1.53.36,2.66,2.66,0,0,1,1.11,1.14,4,4,0,0,1,.43,2v.48h-5.5v-1h4.16a2,2,0,0,0-.21-.93,1.51,1.51,0,0,0-.6-.65,1.68,1.68,0,0,0-.9-.23,1.75,1.75,0,0,0-1,.27,1.72,1.72,0,0,0-.65.71,2,2,0,0,0-.24,1v.79a2.58,2.58,0,0,0,.24,1.16,1.65,1.65,0,0,0,.69.74,1.89,1.89,0,0,0,1,.26,2,2,0,0,0,.66-.1,1.38,1.38,0,0,0,.51-.27,1.08,1.08,0,0,0,.32-.39H349a2.3,2.3,0,0,1-.55,1,2.69,2.69,0,0,1-1,.66,3.8,3.8,0,0,1-1.34.23A3.42,3.42,0,0,1,344.34,168.41Z"/><path class="cls-4" d="M351.75,168.71H350.4v-6.9h1.3v1.13h.09a2.26,2.26,0,0,1,.44-.65,2,2,0,0,1,.68-.42,2.59,2.59,0,0,1,.91-.15,2.47,2.47,0,0,1,1.24.3,2.06,2.06,0,0,1,.82.88,3.21,3.21,0,0,1,.29,1.42v4.39h-1.36v-4.22a2.06,2.06,0,0,0-.17-.86,1.27,1.27,0,0,0-.5-.55,1.72,1.72,0,0,0-1.61,0,1.41,1.41,0,0,0-.57.59,1.94,1.94,0,0,0-.21.93Z"/><path class="cls-4" d="M746,335.51h-1.4v-9.19H746Z"/><path class="cls-4" d="M749.08,335.51h-1.36v-6.9H749v1.13h.09a2.26,2.26,0,0,1,.44-.65,2,2,0,0,1,.69-.42,2.74,2.74,0,0,1,2.14.15,2,2,0,0,1,.82.88,3.24,3.24,0,0,1,.29,1.42v4.39h-1.36v-4.22a1.94,1.94,0,0,0-.17-.86,1.21,1.21,0,0,0-.5-.55,1.8,1.8,0,0,0-1.61,0,1.47,1.47,0,0,0-.57.59,2.06,2.06,0,0,0-.2.93Z"/><path class="cls-4" d="M758.35,329.7h-3.77v-1.09h3.77ZM757,327v6.52a1.22,1.22,0,0,0,.11.57.62.62,0,0,0,.29.27.94.94,0,0,0,.43.08l.67,0v1.17a5.35,5.35,0,0,1-.84.06,2.4,2.4,0,0,1-1-.21,1.63,1.63,0,0,1-.73-.62,1.79,1.79,0,0,1-.28-1V327Z"/><path class="cls-4" d="M760.83,335.21a2.92,2.92,0,0,1-1.14-1.24,4.18,4.18,0,0,1-.39-1.86,4.28,4.28,0,0,1,.39-1.87,3,3,0,0,1,2.8-1.72,3.25,3.25,0,0,1,1.52.37,2.66,2.66,0,0,1,1.12,1.13,4.14,4.14,0,0,1,.42,2v.48h-5.49v-1h4.16a1.92,1.92,0,0,0-.22-.94,1.57,1.57,0,0,0-.6-.65,1.82,1.82,0,0,0-2.52.75,2.28,2.28,0,0,0-.24,1v.78a2.58,2.58,0,0,0,.25,1.16,1.71,1.71,0,0,0,.68.75,2,2,0,0,0,1,.26,2.3,2.3,0,0,0,.67-.1,1.58,1.58,0,0,0,.5-.27,1.49,1.49,0,0,0,.33-.39h1.37a2.31,2.31,0,0,1-.54,1,2.69,2.69,0,0,1-1,.66,3.86,3.86,0,0,1-1.35.23A3.42,3.42,0,0,1,760.83,335.21Z"/><path class="cls-4" d="M766.89,328.61h1.31v1.1h.08a1.81,1.81,0,0,1,.38-.64,1.75,1.75,0,0,1,.61-.42,2,2,0,0,1,.75-.14,5.22,5.22,0,0,1,.58,0v1.3l-.32-.06-.38,0a1.81,1.81,0,0,0-.85.2,1.45,1.45,0,0,0-.59.56,1.52,1.52,0,0,0-.21.8v4.2h-1.36Z"/><path class="cls-4" d="M772.62,335.21a2.8,2.8,0,0,1-1.14-1.24,4,4,0,0,1-.4-1.86,4.15,4.15,0,0,1,.4-1.87,3,3,0,0,1,2.79-1.72,3.29,3.29,0,0,1,1.53.37,2.69,2.69,0,0,1,1.11,1.13,4.14,4.14,0,0,1,.42,2v.48h-5.49v-1H776a2,2,0,0,0-.21-.94,1.59,1.59,0,0,0-.61-.65,1.86,1.86,0,0,0-1.86,0,1.88,1.88,0,0,0-.66.71,2.13,2.13,0,0,0-.23,1v.78a2.58,2.58,0,0,0,.24,1.16,1.71,1.71,0,0,0,.68.75,2,2,0,0,0,1,.26,2.28,2.28,0,0,0,.66-.1,1.76,1.76,0,0,0,.51-.27,1.66,1.66,0,0,0,.32-.39h1.38a2.44,2.44,0,0,1-.55,1,2.69,2.69,0,0,1-1,.66,3.8,3.8,0,0,1-1.34.23A3.39,3.39,0,0,1,772.62,335.21Z"/><path class="cls-4" d="M782.12,329.83a1.48,1.48,0,0,0-.88-.24,1.83,1.83,0,0,0-.68.12,1.21,1.21,0,0,0-.48.33.78.78,0,0,0-.17.48.7.7,0,0,0,.26.53,2,2,0,0,0,.82.34l1.11.25a3,3,0,0,1,1.41.68,1.62,1.62,0,0,1,.47,1.19,1.85,1.85,0,0,1-.34,1.11,2.22,2.22,0,0,1-1,.75,3.62,3.62,0,0,1-1.5.28,3.8,3.8,0,0,1-1.42-.24,2,2,0,0,1-1-.69,2.2,2.2,0,0,1-.43-1.1h1.39a1,1,0,0,0,.43.71,1.81,1.81,0,0,0,1,.23,2.49,2.49,0,0,0,.76-.11,1.19,1.19,0,0,0,.51-.33.82.82,0,0,0,.17-.5.69.69,0,0,0-.26-.55,1.93,1.93,0,0,0-.8-.35l-1.08-.24a2.75,2.75,0,0,1-1.41-.68,1.67,1.67,0,0,1-.48-1.21,1.81,1.81,0,0,1,.33-1.07,2.26,2.26,0,0,1,.94-.74,3.6,3.6,0,0,1,1.4-.26,3.46,3.46,0,0,1,1.33.25,2.22,2.22,0,0,1,.9.68,2.19,2.19,0,0,1,.39,1.05h-1.3A1.11,1.11,0,0,0,782.12,329.83Z"/><path class="cls-4" d="M788.53,329.7h-3.77v-1.09h3.77Zm-1.4-2.74v6.52a1.22,1.22,0,0,0,.11.57.62.62,0,0,0,.29.27.93.93,0,0,0,.42.08l.68,0v1.17a5.35,5.35,0,0,1-.84.06,2.37,2.37,0,0,1-1-.21,1.63,1.63,0,0,1-.73-.62,1.79,1.79,0,0,1-.28-1V327Z"/><path class="cls-4" d="M793.14,326.32h3.28a3.66,3.66,0,0,1,1.76.38,2.47,2.47,0,0,1,1.07,1.05,3.28,3.28,0,0,1,.36,1.55,3.24,3.24,0,0,1-.36,1.54,2.54,2.54,0,0,1-1.07,1.06,3.66,3.66,0,0,1-1.76.39h-2.26V331.1h2.12a2.35,2.35,0,0,0,1.09-.23,1.55,1.55,0,0,0,.63-.64,2.29,2.29,0,0,0,0-1.87,1.51,1.51,0,0,0-.63-.62,2.35,2.35,0,0,0-1.09-.23h-1.74v8h-1.4Z"/><path class="cls-4" d="M804.29,332.44l-.94.06a2,2,0,0,0-1.06.32.88.88,0,0,0-.38.76.92.92,0,0,0,.17.55,1,1,0,0,0,.46.34,2,2,0,0,0,.67.11,1.87,1.87,0,0,0,.94-.22A1.48,1.48,0,0,0,805,333v-2.17a1.28,1.28,0,0,0-.16-.67,1,1,0,0,0-.47-.42,2.17,2.17,0,0,0-1.45,0,1.25,1.25,0,0,0-.48.31.92.92,0,0,0-.26.46H800.8a1.94,1.94,0,0,1,.43-1,2.28,2.28,0,0,1,1-.7,3.67,3.67,0,0,1,1.42-.26,3.79,3.79,0,0,1,1.26.21,2.11,2.11,0,0,1,1,.74,2.3,2.3,0,0,1,.42,1.46v4.58H805v-.94h0a1.85,1.85,0,0,1-.41.53,1.94,1.94,0,0,1-.68.4,2.52,2.52,0,0,1-1,.16,2.88,2.88,0,0,1-1.19-.24,2,2,0,0,1-1.14-1.86,1.64,1.64,0,0,1,.73-1.52,3.85,3.85,0,0,1,1.85-.54l.74,0,.79,0,.36,0,0,1Z"/><path class="cls-4" d="M807.82,338.07v-1.14h.6a1.78,1.78,0,0,0,.44-.05.76.76,0,0,0,.34-.24,2.13,2.13,0,0,0,.31-.61l.17-.45-2.52-7h1.45l1.73,5.35h.08l1.74-5.35h1.45l-2.84,7.81a2.63,2.63,0,0,1-.85,1.26,2.18,2.18,0,0,1-1.38.41A7.21,7.21,0,0,1,807.82,338.07Z"/><path class="cls-4" d="M814.73,328.61H816v1.13h.09a1.74,1.74,0,0,1,.71-.89,2,2,0,0,1,1.17-.33,2.09,2.09,0,0,1,.81.15,1.76,1.76,0,0,1,.63.41,2.23,2.23,0,0,1,.41.66h.07a2,2,0,0,1,.47-.65,2,2,0,0,1,.7-.42,2.57,2.57,0,0,1,.9-.15,2.29,2.29,0,0,1,1.12.27,1.75,1.75,0,0,1,.74.8,2.81,2.81,0,0,1,.27,1.3v4.62h-1.35V331a1.29,1.29,0,0,0-.36-1,1.36,1.36,0,0,0-.93-.32,1.53,1.53,0,0,0-.74.17,1.22,1.22,0,0,0-.48.5,1.64,1.64,0,0,0-.16.74v4.4h-1.35v-4.57a1.4,1.4,0,0,0-.15-.66,1.1,1.1,0,0,0-.45-.43,1.38,1.38,0,0,0-.65-.15,1.35,1.35,0,0,0-.71.19,1.46,1.46,0,0,0-.51.56,1.67,1.67,0,0,0-.19.81v4.25h-1.36Z"/><path class="cls-4" d="M827,335.21a2.92,2.92,0,0,1-1.14-1.24,4.18,4.18,0,0,1-.39-1.86,4.28,4.28,0,0,1,.39-1.87A3.05,3.05,0,0,1,827,329a3,3,0,0,1,1.67-.46,3.26,3.26,0,0,1,1.53.37,2.77,2.77,0,0,1,1.12,1.13,4.14,4.14,0,0,1,.42,2v.48h-5.5v-1h4.17a2,2,0,0,0-.22-.94,1.57,1.57,0,0,0-.6-.65,1.82,1.82,0,0,0-2.52.75,2.14,2.14,0,0,0-.24,1v.78a2.58,2.58,0,0,0,.24,1.16,1.73,1.73,0,0,0,.69.75,2,2,0,0,0,1,.26,2.3,2.3,0,0,0,.67-.1,1.7,1.7,0,0,0,.5-.27,1.49,1.49,0,0,0,.33-.39h1.37a2.31,2.31,0,0,1-.54,1,2.65,2.65,0,0,1-1,.66,3.76,3.76,0,0,1-1.34.23A3.42,3.42,0,0,1,827,335.21Z"/><path class="cls-4" d="M834.41,335.51h-1.36v-6.9h1.3v1.13h.09a2.26,2.26,0,0,1,.44-.65,2,2,0,0,1,.68-.42,2.59,2.59,0,0,1,.91-.15,2.47,2.47,0,0,1,1.24.3,2,2,0,0,1,.82.88,3.24,3.24,0,0,1,.29,1.42v4.39h-1.36v-4.22a1.94,1.94,0,0,0-.17-.86,1.27,1.27,0,0,0-.5-.55,1.8,1.8,0,0,0-1.61,0,1.47,1.47,0,0,0-.57.59,2.06,2.06,0,0,0-.2.93Z"/><path class="cls-4" d="M843.68,329.7h-3.77v-1.09h3.77Zm-1.4-2.74v6.52a1.22,1.22,0,0,0,.11.57.62.62,0,0,0,.29.27.94.94,0,0,0,.43.08l.67,0v1.17a5.35,5.35,0,0,1-.84.06,2.4,2.4,0,0,1-1-.21,1.63,1.63,0,0,1-.73-.62,1.79,1.79,0,0,1-.28-1V327Z"/><path class="cls-4" d="M849.4,335.2a3,3,0,0,1-1.13-1.25,4.18,4.18,0,0,1-.4-1.86,4.25,4.25,0,0,1,.4-1.87A3,3,0,0,1,849.4,329a3.2,3.2,0,0,1,1.7-.45,3.16,3.16,0,0,1,1.69.45,3,3,0,0,1,1.12,1.25,4.12,4.12,0,0,1,.4,1.87,4,4,0,0,1-.4,1.86,2.9,2.9,0,0,1-1.12,1.25,3.16,3.16,0,0,1-1.69.45A3.2,3.2,0,0,1,849.4,335.2Zm2.72-1a2,2,0,0,0,.62-.87,3.71,3.71,0,0,0,0-2.46,2,2,0,0,0-.62-.88,1.6,1.6,0,0,0-1-.33,1.56,1.56,0,0,0-1,.33,1.92,1.92,0,0,0-.63.88,3.71,3.71,0,0,0,0,2.46,1.89,1.89,0,0,0,.63.87,1.56,1.56,0,0,0,1,.33A1.6,1.6,0,0,0,852.12,334.19Z"/><path class="cls-4" d="M857,335.51h-1.36v-6.9H857v1.13H857a2.1,2.1,0,0,1,.45-.65,1.87,1.87,0,0,1,.68-.42,2.5,2.5,0,0,1,.9-.15,2.45,2.45,0,0,1,1.24.3,2,2,0,0,1,.82.88,3.24,3.24,0,0,1,.29,1.42v4.39h-1.35v-4.22a1.94,1.94,0,0,0-.18-.86,1.21,1.21,0,0,0-.5-.55,1.8,1.8,0,0,0-1.61,0,1.47,1.47,0,0,0-.57.59,2.06,2.06,0,0,0-.2.93Z"/><path class="cls-4" d="M871.06,328a1.48,1.48,0,0,0-.66-.47,2.69,2.69,0,0,0-.94-.15,2.57,2.57,0,0,0-1,.17,1.5,1.5,0,0,0-.65.49,1.14,1.14,0,0,0-.23.69,1,1,0,0,0,.48.9,4,4,0,0,0,1.19.5l.9.23a6.14,6.14,0,0,1,1.29.47,2.67,2.67,0,0,1,1,.81,2.15,2.15,0,0,1,.39,1.3,2.47,2.47,0,0,1-.4,1.4,2.67,2.67,0,0,1-1.17,1,4.51,4.51,0,0,1-1.84.34,4.45,4.45,0,0,1-1.78-.33,2.69,2.69,0,0,1-1.18-.93A2.64,2.64,0,0,1,866,333h1.4a1.4,1.4,0,0,0,.32.81,1.64,1.64,0,0,0,.72.5,3,3,0,0,0,2.05,0,1.76,1.76,0,0,0,.72-.52,1.28,1.28,0,0,0,.26-.78.94.94,0,0,0-.22-.64,1.48,1.48,0,0,0-.59-.43,5.54,5.54,0,0,0-.93-.32l-1.09-.29a4,4,0,0,1-1.77-.91,2,2,0,0,1-.62-1.53,2.29,2.29,0,0,1,.43-1.38,2.73,2.73,0,0,1,1.17-.93,4,4,0,0,1,1.67-.33,3.91,3.91,0,0,1,1.64.33,2.58,2.58,0,0,1,1.14.9,2.44,2.44,0,0,1,.43,1.32h-1.36A1.22,1.22,0,0,0,871.06,328Z"/><path class="cls-4" d="M877.45,329.7h-3.77v-1.09h3.77Zm-1.4-2.74v6.52a1.11,1.11,0,0,0,.11.57.61.61,0,0,0,.28.27.94.94,0,0,0,.43.08l.67,0v1.17a5.13,5.13,0,0,1-.83.06,2.37,2.37,0,0,1-1-.21,1.58,1.58,0,0,1-.73-.62,1.72,1.72,0,0,1-.28-1V327Z"/><path class="cls-4" d="M882.16,332.44l-.94.06a2,2,0,0,0-1.06.32.88.88,0,0,0-.38.76.86.86,0,0,0,.17.55,1,1,0,0,0,.46.34,2,2,0,0,0,.67.11,1.89,1.89,0,0,0,.94-.22,1.48,1.48,0,0,0,.83-1.34v-2.17a1.28,1.28,0,0,0-.16-.67,1,1,0,0,0-.47-.42,2.17,2.17,0,0,0-1.45,0,1.18,1.18,0,0,0-.48.31.92.92,0,0,0-.26.46h-1.35a1.86,1.86,0,0,1,.43-1,2.28,2.28,0,0,1,1-.7,3.67,3.67,0,0,1,1.42-.26,3.79,3.79,0,0,1,1.26.21,2.11,2.11,0,0,1,1,.74,2.3,2.3,0,0,1,.42,1.46v4.58h-1.32v-.94h0a1.85,1.85,0,0,1-.41.53,2,2,0,0,1-.68.4,2.52,2.52,0,0,1-1,.16,2.84,2.84,0,0,1-1.19-.24,2,2,0,0,1-1.14-1.86,1.64,1.64,0,0,1,.73-1.52,3.85,3.85,0,0,1,1.85-.54l.74,0,.79,0,.36,0,0,1Z"/><path class="cls-4" d="M885.83,326.32h1.36v9.19h-1.36Zm1.24,5.21h.23l2.74-2.92h1.62l-3.13,3.33h-.22l-1.23,1.23Zm.66.71.93-.95,3.19,4.22h-1.66Z"/><path class="cls-4" d="M893,327.44a.89.89,0,0,1-.32-.29.69.69,0,0,1-.11-.4.71.71,0,0,1,.11-.4.84.84,0,0,1,.32-.3.93.93,0,0,1,.84,0,.77.77,0,0,1,.32.3.8.8,0,0,1,.11.4.77.77,0,0,1-.11.4.82.82,0,0,1-.32.29.86.86,0,0,1-.84,0Zm-.26,1.17h1.35v6.9h-1.35Z"/><path class="cls-4" d="M897.09,335.51h-1.36v-6.9H897v1.13h.08a2.1,2.1,0,0,1,.45-.65,1.87,1.87,0,0,1,.68-.42,2.54,2.54,0,0,1,.9-.15,2.45,2.45,0,0,1,1.24.3,2,2,0,0,1,.82.88,3.1,3.1,0,0,1,.29,1.42v4.39h-1.35v-4.22a1.94,1.94,0,0,0-.18-.86,1.21,1.21,0,0,0-.5-.55,1.8,1.8,0,0,0-1.61,0,1.39,1.39,0,0,0-.56.59,1.94,1.94,0,0,0-.21.93Z"/><path class="cls-4" d="M904.52,338a2.42,2.42,0,0,1-1-.71,2,2,0,0,1-.44-1.1h1.38a1.17,1.17,0,0,0,.28.54,1.4,1.4,0,0,0,.56.32,2.52,2.52,0,0,0,.81.11,2,2,0,0,0,1.29-.38,1.4,1.4,0,0,0,.46-1.16v-1.36h-.09v0a2.52,2.52,0,0,1-.4.54,2,2,0,0,1-.61.41,2.37,2.37,0,0,1-1,.18,2.72,2.72,0,0,1-1.48-.41,2.63,2.63,0,0,1-1-1.17,4.13,4.13,0,0,1-.38-1.84,4.32,4.32,0,0,1,.37-1.86,2.76,2.76,0,0,1,1-1.19,2.68,2.68,0,0,1,1.49-.42,2.17,2.17,0,0,1,.93.18,1.81,1.81,0,0,1,.61.41,3.19,3.19,0,0,1,.4.53l.06.09h.09v-1.12h1.32v7.05a2.47,2.47,0,0,1-.4,1.44,2.38,2.38,0,0,1-1.1.86,4.21,4.21,0,0,1-1.61.28A4.14,4.14,0,0,1,904.52,338Zm2.48-4a1.68,1.68,0,0,0,.62-.78,3.12,3.12,0,0,0,.21-1.21,3.3,3.3,0,0,0-.21-1.23A1.78,1.78,0,0,0,907,330a1.67,1.67,0,0,0-1-.29,1.62,1.62,0,0,0-1,.3,1.88,1.88,0,0,0-.62.83,3.53,3.53,0,0,0-.2,1.21,3.12,3.12,0,0,0,.21,1.19,1.74,1.74,0,0,0,.61.79,1.68,1.68,0,0,0,1,.29A1.61,1.61,0,0,0,907,334Z"/><path class="cls-4" d="M744.89,345.24a.92.92,0,0,1-.33-.32.9.9,0,0,1,0-.9.87.87,0,0,1,.33-.33.9.9,0,0,1,.9,0,.87.87,0,0,1,.33.33.9.9,0,0,1,0,.9.92.92,0,0,1-.33.32.84.84,0,0,1-.9,0Zm0,4.61a1,1,0,0,1-.33-.33.9.9,0,0,1,0-.9.87.87,0,0,1,.33-.33.9.9,0,0,1,.9,0,.87.87,0,0,1,.33.33.9.9,0,0,1,0,.9,1,1,0,0,1-.33.33.9.9,0,0,1-.9,0Z"/><path class="cls-4" d="M752.86,341.92l2.92,7.12h.11l2.91-7.12h1.7v9.19h-1.33v-6.64h-.09l-2.7,6.63h-1.1l-2.71-6.64h-.07v6.65h-1.34v-9.19Z"/><path class="cls-4" d="M761.67,351.11l3.31-9.19h1.62l3.3,9.19h-1.49l-2.59-7.52h-.07l-2.6,7.52Zm6.51-3.6v1.17H763.4v-1.17Z"/><path class="cls-4" d="M773.47,349.39h.1l2.56-7.47h1.51l-3.31,9.19h-1.61l-3.31-9.19h1.51Z"/><path class="cls-4" d="M781.53,341.92h7.12v1.2h-2.86v8H784.4v-8h-2.87Z"/><path class="cls-4" d="M790.17,350.8a2.92,2.92,0,0,1-1.13-1.25,4,4,0,0,1-.4-1.86,4.12,4.12,0,0,1,.4-1.87,2.92,2.92,0,0,1,1.13-1.25,3.4,3.4,0,0,1,3.38,0,2.86,2.86,0,0,1,1.13,1.25,4.12,4.12,0,0,1,.4,1.87,4,4,0,0,1-.4,1.86,2.86,2.86,0,0,1-1.13,1.25,3.4,3.4,0,0,1-3.38,0Zm2.72-1a2,2,0,0,0,.62-.87,3.88,3.88,0,0,0,0-2.46,2,2,0,0,0-.62-.88,1.76,1.76,0,0,0-2,0,2,2,0,0,0-.62.88,3.71,3.71,0,0,0,0,2.46,2,2,0,0,0,.62.87,1.76,1.76,0,0,0,2,0Z"/><path class="cls-4" d="M796.42,341.92h1.36v9.19h-1.36Zm1.24,5.21h.23l2.74-2.92h1.62l-3.13,3.33h-.22l-1.23,1.24Zm.66.71.93-.95,3.19,4.22h-1.66Z"/><path class="cls-4" d="M804.26,350.81a2.8,2.8,0,0,1-1.14-1.24,4,4,0,0,1-.4-1.86,4.15,4.15,0,0,1,.4-1.87,2.92,2.92,0,0,1,1.12-1.26,3,3,0,0,1,1.67-.46,3.14,3.14,0,0,1,1.52.37,2.66,2.66,0,0,1,1.12,1.13,4.14,4.14,0,0,1,.42,2v.48h-5.49v-1h4.16a1.89,1.89,0,0,0-.22-.94,1.57,1.57,0,0,0-.6-.65,1.77,1.77,0,0,0-.9-.23,1.79,1.79,0,0,0-1,.27,1.85,1.85,0,0,0-.65.71,2.13,2.13,0,0,0-.23,1V348a2.58,2.58,0,0,0,.24,1.16,1.77,1.77,0,0,0,.68.75,2,2,0,0,0,1,.26,2.3,2.3,0,0,0,.67-.1,1.76,1.76,0,0,0,.51-.27,1.66,1.66,0,0,0,.32-.39h1.37a2.31,2.31,0,0,1-.54,1,2.69,2.69,0,0,1-1,.66,3.82,3.82,0,0,1-1.35.23A3.36,3.36,0,0,1,804.26,350.81Z"/><path class="cls-4" d="M811.67,351.11h-1.36v-6.9h1.31v1.13h.08a2.1,2.1,0,0,1,.45-.65,1.87,1.87,0,0,1,.68-.42,2.55,2.55,0,0,1,.91-.15,2.44,2.44,0,0,1,1.23.3,2,2,0,0,1,.82.88,3.1,3.1,0,0,1,.29,1.42v4.39h-1.35v-4.22a1.94,1.94,0,0,0-.18-.86,1.21,1.21,0,0,0-.5-.55,1.58,1.58,0,0,0-.78-.18,1.62,1.62,0,0,0-.83.2,1.39,1.39,0,0,0-.56.59,1.94,1.94,0,0,0-.21.93Z"/><path class="cls-4" d="M638.83,332.32H646v1.2h-2.86v8H641.7v-8h-2.87Z"/><path class="cls-4" d="M647.48,341.2a2.94,2.94,0,0,1-1.14-1.25,4.18,4.18,0,0,1-.4-1.86,4.25,4.25,0,0,1,.4-1.87,3,3,0,0,1,1.14-1.25,3.4,3.4,0,0,1,3.38,0,3,3,0,0,1,1.12,1.25,4.12,4.12,0,0,1,.4,1.87A4,4,0,0,1,652,340a2.9,2.9,0,0,1-1.12,1.25,3.4,3.4,0,0,1-3.38,0Zm2.71-1a1.88,1.88,0,0,0,.62-.87,3.71,3.71,0,0,0,0-2.46,2,2,0,0,0-.62-.88,1.6,1.6,0,0,0-1-.33,1.58,1.58,0,0,0-1,.33,1.92,1.92,0,0,0-.63.88,3.71,3.71,0,0,0,0,2.46,1.89,1.89,0,0,0,.63.87,1.58,1.58,0,0,0,1,.33A1.6,1.6,0,0,0,650.19,340.19Z"/><path class="cls-4" d="M653.72,332.32h1.36v9.19h-1.36Zm1.24,5.21h.24l2.73-2.92h1.62l-3.13,3.33h-.21L655,339.17Zm.66.71.93-.95,3.19,4.22h-1.66Z"/><path class="cls-4" d="M661.56,341.21a2.8,2.8,0,0,1-1.14-1.24,4,4,0,0,1-.4-1.86,4.15,4.15,0,0,1,.4-1.87,3,3,0,0,1,2.79-1.72,3.26,3.26,0,0,1,1.53.37,2.69,2.69,0,0,1,1.11,1.13,4.13,4.13,0,0,1,.43,2v.48h-5.5v-1h4.16a2,2,0,0,0-.21-.94,1.59,1.59,0,0,0-.61-.65,1.86,1.86,0,0,0-1.86,0,1.88,1.88,0,0,0-.66.71,2.13,2.13,0,0,0-.23,1v.78a2.58,2.58,0,0,0,.24,1.16,1.71,1.71,0,0,0,.68.75,2,2,0,0,0,1,.26,2.28,2.28,0,0,0,.66-.1,1.76,1.76,0,0,0,.51-.27,1.45,1.45,0,0,0,.32-.39h1.38a2.44,2.44,0,0,1-.55,1,2.69,2.69,0,0,1-1,.66,3.8,3.8,0,0,1-1.34.23A3.39,3.39,0,0,1,661.56,341.21Z"/><path class="cls-4" d="M669,341.51h-1.35v-6.9h1.3v1.13H669a2.29,2.29,0,0,1,.45-.65,2,2,0,0,1,.68-.42,2.59,2.59,0,0,1,.91-.15,2.5,2.5,0,0,1,1.24.3,2.06,2.06,0,0,1,.82.88,3.24,3.24,0,0,1,.29,1.42v4.39H672v-4.22a2.09,2.09,0,0,0-.17-.86,1.27,1.27,0,0,0-.5-.55,1.61,1.61,0,0,0-.78-.18,1.57,1.57,0,0,0-.83.2,1.47,1.47,0,0,0-.57.59,1.94,1.94,0,0,0-.21.93Z"/><path class="cls-4" d="M683,334a1.59,1.59,0,0,0-.66-.47,2.77,2.77,0,0,0-.94-.15,2.63,2.63,0,0,0-1,.17,1.46,1.46,0,0,0-.64.49,1.08,1.08,0,0,0-.23.69,1,1,0,0,0,.47.9,4.17,4.17,0,0,0,1.2.5l.89.23a6.14,6.14,0,0,1,1.29.47,2.62,2.62,0,0,1,1,.81,2.15,2.15,0,0,1,.39,1.3,2.48,2.48,0,0,1-.41,1.4,2.67,2.67,0,0,1-1.17,1,5,5,0,0,1-3.61,0,2.72,2.72,0,0,1-1.19-.93A2.63,2.63,0,0,1,678,339h1.4a1.39,1.39,0,0,0,.31.81,1.73,1.73,0,0,0,.73.5,2.82,2.82,0,0,0,1,.17,2.89,2.89,0,0,0,1-.19,1.64,1.64,0,0,0,.72-.52,1.22,1.22,0,0,0,.26-.78,1,1,0,0,0-.21-.64,1.64,1.64,0,0,0-.59-.43,5.37,5.37,0,0,0-.94-.32l-1.08-.29a4.09,4.09,0,0,1-1.78-.91,2,2,0,0,1-.62-1.53,2.35,2.35,0,0,1,.43-1.38,2.85,2.85,0,0,1,1.17-.93,4,4,0,0,1,1.67-.33,4,4,0,0,1,1.65.33,2.61,2.61,0,0,1,1.13.9,2.29,2.29,0,0,1,.43,1.32h-1.35A1.36,1.36,0,0,0,683,334Z"/><path class="cls-4" d="M689.41,335.7h-3.77v-1.09h3.77ZM688,333v6.52a1.22,1.22,0,0,0,.11.57.62.62,0,0,0,.29.27.94.94,0,0,0,.43.08l.67,0v1.17a5.35,5.35,0,0,1-.84.06,2.4,2.4,0,0,1-1-.21,1.68,1.68,0,0,1-.73-.62,1.79,1.79,0,0,1-.28-1V333Z"/><path class="cls-4" d="M694.12,338.44l-.93.06a2.06,2.06,0,0,0-1.07.32.87.87,0,0,0-.37.76.92.92,0,0,0,.16.55,1,1,0,0,0,.46.34,2,2,0,0,0,.68.11,1.89,1.89,0,0,0,.94-.22,1.53,1.53,0,0,0,.61-.57,1.49,1.49,0,0,0,.21-.77v-2.17a1.38,1.38,0,0,0-.16-.67,1,1,0,0,0-.48-.42,1.93,1.93,0,0,0-.77-.14,2,2,0,0,0-.68.11,1.33,1.33,0,0,0-.48.31,1,1,0,0,0-.26.46h-1.35a2,2,0,0,1,.43-1,2.31,2.31,0,0,1,1-.7,3.65,3.65,0,0,1,1.41-.26,3.85,3.85,0,0,1,1.27.21,2.11,2.11,0,0,1,1,.74,2.3,2.3,0,0,1,.42,1.46v4.58h-1.32v-.94h-.06a1.69,1.69,0,0,1-.41.53,2,2,0,0,1-.67.4,2.59,2.59,0,0,1-1,.16,2.84,2.84,0,0,1-1.19-.24,1.93,1.93,0,0,1-.84-.73,2,2,0,0,1-.3-1.13,1.65,1.65,0,0,1,.72-1.52,3.85,3.85,0,0,1,1.85-.54l.74,0,.8,0,.35,0,0,1Z"/><path class="cls-4" d="M697.8,332.32h1.35v9.19H697.8Zm1.24,5.21h.23l2.73-2.92h1.62l-3.13,3.33h-.21L699,339.17Zm.65.71.93-.95,3.19,4.22h-1.66Z"/><path class="cls-4" d="M705,333.44a.86.86,0,0,1-.31-.29.7.7,0,0,1-.12-.4.72.72,0,0,1,.12-.4.81.81,0,0,1,.31-.3.91.91,0,0,1,.43-.1.87.87,0,0,1,.42.1.75.75,0,0,1,.31.3.72.72,0,0,1,.12.4.7.7,0,0,1-.12.4.79.79,0,0,1-.31.29.78.78,0,0,1-.42.11A.81.81,0,0,1,705,333.44Zm-.26,1.17h1.36v6.9h-1.36Z"/><path class="cls-4" d="M709.05,341.51H707.7v-6.9H709v1.13h.08a2.29,2.29,0,0,1,.45-.65,2,2,0,0,1,.68-.42,2.59,2.59,0,0,1,.91-.15,2.5,2.5,0,0,1,1.24.3,2.06,2.06,0,0,1,.82.88,3.24,3.24,0,0,1,.29,1.42v4.39h-1.36v-4.22a2.09,2.09,0,0,0-.17-.86,1.27,1.27,0,0,0-.5-.55,1.8,1.8,0,0,0-1.61,0,1.47,1.47,0,0,0-.57.59,1.94,1.94,0,0,0-.21.93Z"/><path class="cls-4" d="M716.48,344a2.38,2.38,0,0,1-1-.71,2,2,0,0,1-.44-1.1h1.38a1,1,0,0,0,.28.54,1.33,1.33,0,0,0,.56.32,2.46,2.46,0,0,0,.8.11,2,2,0,0,0,1.3-.38,1.43,1.43,0,0,0,.46-1.16v-1.36h-.09l0,0a2.89,2.89,0,0,1-.39.54,2,2,0,0,1-.62.41,2.37,2.37,0,0,1-1,.18,2.77,2.77,0,0,1-1.48-.41,2.69,2.69,0,0,1-1-1.17,4.13,4.13,0,0,1-.38-1.84,4.32,4.32,0,0,1,.38-1.86,2.72,2.72,0,0,1,2.52-1.61,2.22,2.22,0,0,1,.94.18,1.76,1.76,0,0,1,.6.41,3.23,3.23,0,0,1,.41.53l.05.09h.09v-1.12h1.33v7.05a2.54,2.54,0,0,1-.4,1.44,2.43,2.43,0,0,1-1.1.86,4.28,4.28,0,0,1-1.61.28A4.23,4.23,0,0,1,716.48,344Zm2.49-4a1.66,1.66,0,0,0,.61-.78,3.12,3.12,0,0,0,.21-1.21,3.3,3.3,0,0,0-.21-1.23A1.71,1.71,0,0,0,719,336a1.64,1.64,0,0,0-1-.29,1.67,1.67,0,0,0-1,.3,1.86,1.86,0,0,0-.61.83,3.3,3.3,0,0,0-.21,1.21,3.12,3.12,0,0,0,.21,1.19,1.76,1.76,0,0,0,.62.79,1.68,1.68,0,0,0,1,.29A1.63,1.63,0,0,0,719,340Z"/><path class="cls-4" d="M714.12,407.12a2.08,2.08,0,0,0-.9-.64,3.71,3.71,0,0,0-1.29-.21,3.43,3.43,0,0,0-1.33.24,2,2,0,0,0-.88.66,1.61,1.61,0,0,0-.32,1,1.4,1.4,0,0,0,.65,1.23,5.73,5.73,0,0,0,1.65.68l1.22.32a8.21,8.21,0,0,1,1.77.64,3.71,3.71,0,0,1,1.33,1.13,2.94,2.94,0,0,1,.53,1.78,3.4,3.4,0,0,1-.55,1.92,3.78,3.78,0,0,1-1.61,1.31,6.92,6.92,0,0,1-5,0,3.8,3.8,0,0,1-1.63-1.28,3.67,3.67,0,0,1-.65-2h1.92a1.9,1.9,0,0,0,.44,1.11,2.28,2.28,0,0,0,1,.68,3.72,3.72,0,0,0,1.37.23,3.89,3.89,0,0,0,1.44-.26,2.38,2.38,0,0,0,1-.71,1.7,1.7,0,0,0,.35-1.07,1.37,1.37,0,0,0-.29-.88,2.18,2.18,0,0,0-.81-.59,8.34,8.34,0,0,0-1.29-.44l-1.48-.4a5.55,5.55,0,0,1-2.44-1.25,2.75,2.75,0,0,1-.85-2.09,3.1,3.1,0,0,1,.59-1.89,3.79,3.79,0,0,1,1.6-1.28,5.94,5.94,0,0,1,4.56,0,3.63,3.63,0,0,1,1.55,1.24,3.2,3.2,0,0,1,.59,1.8h-1.85A1.84,1.84,0,0,0,714.12,407.12Z"/><path class="cls-4" d="M722.89,409.42h-5.17v-1.48h5.17ZM721,405.67v8.95a1.68,1.68,0,0,0,.16.78.77.77,0,0,0,.39.37,1.48,1.48,0,0,0,.59.11c.16,0,.47,0,.92,0v1.61a7.88,7.88,0,0,1-1.15.07,3.24,3.24,0,0,1-1.38-.28,2.33,2.33,0,0,1-1-.85,2.45,2.45,0,0,1-.38-1.39v-9.33Z"/><path class="cls-4" d="M729.35,413.19l-1.28.08a2.84,2.84,0,0,0-1.46.44,1.18,1.18,0,0,0-.52,1,1.22,1.22,0,0,0,.23.75,1.32,1.32,0,0,0,.63.47,2.86,2.86,0,0,0,2.22-.14,2.12,2.12,0,0,0,.84-.78,2.09,2.09,0,0,0,.29-1.06v-3a1.73,1.73,0,0,0-.22-.91,1.32,1.32,0,0,0-.65-.58,2.53,2.53,0,0,0-1-.19,2.69,2.69,0,0,0-.94.15,1.87,1.87,0,0,0-.66.42,1.41,1.41,0,0,0-.35.63h-1.86a2.69,2.69,0,0,1,.59-1.4,3.28,3.28,0,0,1,1.34-1,5.09,5.09,0,0,1,1.94-.35,5.56,5.56,0,0,1,1.74.28,3,3,0,0,1,1.4,1,3.14,3.14,0,0,1,.58,2v6.28h-1.81v-1.29h-.08a2.69,2.69,0,0,1-.56.73,2.79,2.79,0,0,1-.93.55,3.51,3.51,0,0,1-1.3.22,3.79,3.79,0,0,1-1.64-.34,2.61,2.61,0,0,1-1.14-1,2.79,2.79,0,0,1-.42-1.55,2.28,2.28,0,0,1,1-2.09,5.4,5.4,0,0,1,2.54-.74l1-.06,1.09-.06.49,0,0,1.36Z"/><path class="cls-4" d="M734.4,404.78h1.86V417.4H734.4Zm1.7,7.16h.32l3.75-4h2.22l-4.29,4.56h-.3l-1.69,1.7Zm.9,1,1.28-1.31,4.37,5.79h-2.27Z"/><path class="cls-4" d="M745.15,417a3.9,3.9,0,0,1-1.56-1.7,5.58,5.58,0,0,1-.55-2.56,5.7,5.7,0,0,1,.55-2.56,4.18,4.18,0,0,1,1.53-1.74,4.3,4.3,0,0,1,2.3-.62,4.45,4.45,0,0,1,2.09.5,3.68,3.68,0,0,1,1.54,1.56,5.69,5.69,0,0,1,.57,2.7v.66h-7.54v-1.39h5.72a2.73,2.73,0,0,0-.3-1.29,2.16,2.16,0,0,0-.83-.89,2.35,2.35,0,0,0-1.23-.32,2.48,2.48,0,0,0-1.33.37,2.65,2.65,0,0,0-.9,1,2.87,2.87,0,0,0-.32,1.33v1.07a3.54,3.54,0,0,0,.33,1.6,2.33,2.33,0,0,0,.94,1,2.67,2.67,0,0,0,1.4.35,2.92,2.92,0,0,0,.92-.13,2.07,2.07,0,0,0,.69-.37,1.91,1.91,0,0,0,.45-.54h1.88a3.29,3.29,0,0,1-.74,1.36,3.8,3.8,0,0,1-1.37.9,5.11,5.11,0,0,1-1.84.31A4.65,4.65,0,0,1,745.15,417Z"/><path class="cls-4" d="M753.47,407.94h1.8v1.51h.1a2.36,2.36,0,0,1,.52-.88,2.44,2.44,0,0,1,.84-.58,2.73,2.73,0,0,1,1-.19,6.69,6.69,0,0,1,.8,0v1.77c-.11,0-.25-.05-.44-.07a5.11,5.11,0,0,0-.53,0,2.45,2.45,0,0,0-1.16.27,2.12,2.12,0,0,0-.81.76,2.18,2.18,0,0,0-.29,1.1v5.77h-1.86Z"/><g class="cls-5"><line class="cls-6" x1="726.59" y1="378.06" x2="726.59" y2="301.07"/><polygon class="cls-4" points="731.58 302.53 726.59 293.9 721.61 302.53 731.58 302.53"/><line class="cls-6" x1="739.11" y1="370.88" x2="739.11" y2="293.9"/><polygon class="cls-4" points="744.1 369.42 739.11 378.06 734.13 369.42 744.1 369.42"/></g><g class="cls-3"><rect class="cls-4" x="1254.91" y="156.28" width="200" height="55.17"/></g><path class="cls-4" d="M1324.62,168.72h1.72v9.85h5.13v1.48h-6.85Z"/><path class="cls-4" d="M1333.42,170.11a1.12,1.12,0,0,1-.39-.36.93.93,0,0,1-.14-.49,1,1,0,0,1,.14-.5,1.12,1.12,0,0,1,.39-.36,1.06,1.06,0,0,1,.52-.13,1,1,0,0,1,.52.13,1,1,0,0,1,.39.36,1,1,0,0,1,.14.5.93.93,0,0,1-.14.49,1,1,0,0,1-.39.36,1,1,0,0,1-.52.14A1,1,0,0,1,1333.42,170.11Zm-.32,1.45h1.67v8.49h-1.67Z"/><path class="cls-4" d="M1342.54,178.73h-.09s0,.06,0,.07a3.6,3.6,0,0,1-.49.68,2.31,2.31,0,0,1-.75.52,2.81,2.81,0,0,1-1.17.22,3.3,3.3,0,0,1-1.84-.53,3.44,3.44,0,0,1-1.26-1.53,6.18,6.18,0,0,1,0-4.68,3.52,3.52,0,0,1,1.27-1.51,3.32,3.32,0,0,1,1.84-.52,2.86,2.86,0,0,1,1.16.21,2.14,2.14,0,0,1,.74.51,3.77,3.77,0,0,1,.49.66l0,0,0,.05h.12v-1.37h1.64v11.68h-1.67Zm-1-.31a2.15,2.15,0,0,0,.76-1,4.18,4.18,0,0,0,.26-1.56,4.33,4.33,0,0,0-.25-1.56,2.2,2.2,0,0,0-.75-1,2,2,0,0,0-1.21-.36,2,2,0,0,0-1.22.37,2.26,2.26,0,0,0-.76,1,4.27,4.27,0,0,0-.25,1.53,4.18,4.18,0,0,0,.26,1.54,2.32,2.32,0,0,0,.76,1.06,2.06,2.06,0,0,0,2.4,0Z"/><path class="cls-4" d="M1351.64,171.56h1.66v8.49h-1.64v-1.47h-.08a2.6,2.6,0,0,1-.56.82,2.67,2.67,0,0,1-.86.56,3.18,3.18,0,0,1-2.58-.16,2.5,2.5,0,0,1-1-1.09,4,4,0,0,1-.35-1.75v-5.4h1.67v5.2a2.26,2.26,0,0,0,.22,1,1.69,1.69,0,0,0,.61.66,1.77,1.77,0,0,0,.9.23,2,2,0,0,0,.95-.24,2,2,0,0,0,.75-.72,2.17,2.17,0,0,0,.3-1.17Z"/><path class="cls-4" d="M1355.66,170.11a1.12,1.12,0,0,1-.39-.36.86.86,0,0,1-.15-.49.89.89,0,0,1,.15-.5,1.12,1.12,0,0,1,.39-.36,1,1,0,0,1,.52-.13,1.06,1.06,0,0,1,.52.13,1,1,0,0,1,.38.36.88.88,0,0,1,.14.5.85.85,0,0,1-.14.49,1,1,0,0,1-.38.36,1,1,0,0,1-.52.14A1,1,0,0,1,1355.66,170.11Zm-.33,1.45H1357v8.49h-1.67Z"/><path class="cls-4" d="M1360.39,179.69a3.52,3.52,0,0,1-1.27-1.53,5.46,5.46,0,0,1-.46-2.34,5.61,5.61,0,0,1,.46-2.34,3.54,3.54,0,0,1,1.28-1.51,3.3,3.3,0,0,1,1.84-.52,2.81,2.81,0,0,1,1.15.21,2.29,2.29,0,0,1,.75.51,4.32,4.32,0,0,1,.48.66l0,0,0,.05h.09v-4.21h1.67v11.33h-1.63v-1.32h-.13a.21.21,0,0,1,0,.07,3.63,3.63,0,0,1-.5.68,2.31,2.31,0,0,1-.75.52,2.75,2.75,0,0,1-1.17.22A3.25,3.25,0,0,1,1360.39,179.69Zm3.4-1.27a2.21,2.21,0,0,0,.76-1,4.4,4.4,0,0,0,.26-1.56,4.32,4.32,0,0,0-.26-1.56,2.2,2.2,0,0,0-.75-1,2,2,0,0,0-1.2-.36,2,2,0,0,0-1.23.37,2.25,2.25,0,0,0-.75,1,4.27,4.27,0,0,0-.26,1.53,4.4,4.4,0,0,0,.26,1.54,2.4,2.4,0,0,0,.76,1.06,2.08,2.08,0,0,0,2.41,0Z"/><path class="cls-4" d="M1368.93,170.11a1,1,0,0,1-.38-.36.86.86,0,0,1-.15-.49.89.89,0,0,1,.15-.5,1,1,0,0,1,.38-.36,1.07,1.07,0,0,1,.53-.13,1.08,1.08,0,0,1,.52.13,1,1,0,0,1,.38.36.88.88,0,0,1,.14.5.85.85,0,0,1-.14.49,1,1,0,0,1-.38.36,1,1,0,0,1-.52.14A1,1,0,0,1,1368.93,170.11Zm-.32,1.45h1.67v8.49h-1.67Z"/><path class="cls-4" d="M1376.29,172.89h-4.65v-1.33h4.65Zm-1.73-3.37v8a1.45,1.45,0,0,0,.13.7.78.78,0,0,0,.36.34,1.18,1.18,0,0,0,.52.1c.15,0,.43,0,.83,0v1.44a6.33,6.33,0,0,1-1,.07,3,3,0,0,1-1.24-.25,2,2,0,0,1-.9-.76,2.18,2.18,0,0,1-.34-1.25v-8.38Z"/><path class="cls-4" d="M1378.05,183.21v-1.4h.75a2.06,2.06,0,0,0,.54-.06.85.85,0,0,0,.41-.3,2.55,2.55,0,0,0,.4-.75l.21-.55-3.12-8.61H1379l2.14,6.59h.09l2.15-6.59h1.79l-3.51,9.62a3.17,3.17,0,0,1-1,1.54,2.7,2.7,0,0,1-1.71.52Q1378.38,183.24,1378.05,183.21Z"/><path class="cls-4" d="M1325.19,188h4a4.58,4.58,0,0,1,2.15.47,3.15,3.15,0,0,1,1.33,1.3,4.32,4.32,0,0,1,0,3.8,3.23,3.23,0,0,1-1.33,1.31,4.48,4.48,0,0,1-2.16.48h-2.78v-1.47h2.61a2.76,2.76,0,0,0,1.33-.28,1.73,1.73,0,0,0,.78-.78,2.51,2.51,0,0,0,.26-1.16,2.47,2.47,0,0,0-.26-1.15,1.71,1.71,0,0,0-.78-.77,2.93,2.93,0,0,0-1.34-.27h-2.14v9.85h-1.72Z"/><path class="cls-4" d="M1334.83,190.78h1.62v1.36h.09a2.1,2.1,0,0,1,.47-.79,2.07,2.07,0,0,1,.75-.52,2.4,2.4,0,0,1,.93-.17c.26,0,.49,0,.71,0v1.6a2.14,2.14,0,0,0-.39-.07l-.47,0a2.26,2.26,0,0,0-1,.24,1.75,1.75,0,0,0-.72.68,1.89,1.89,0,0,0-.27,1v5.18h-1.67Z"/><path class="cls-4" d="M1341.88,198.9a3.59,3.59,0,0,1-1.39-1.54,5,5,0,0,1-.49-2.29,5.16,5.16,0,0,1,.49-2.31,3.71,3.71,0,0,1,1.39-1.54,4.23,4.23,0,0,1,4.17,0,3.71,3.71,0,0,1,1.39,1.54,5.16,5.16,0,0,1,.49,2.31,5,5,0,0,1-.49,2.29,3.59,3.59,0,0,1-1.39,1.54,4.23,4.23,0,0,1-4.17,0Zm3.35-1.24a2.44,2.44,0,0,0,.76-1.08,4.54,4.54,0,0,0,0-3,2.47,2.47,0,0,0-.76-1.09,2,2,0,0,0-1.26-.4,2,2,0,0,0-1.26.4,2.43,2.43,0,0,0-.77,1.09,4.54,4.54,0,0,0,0,3,2.46,2.46,0,0,0,.77,1.08,2.18,2.18,0,0,0,2.52,0Z"/><path class="cls-4" d="M1353.48,199.28h-1.78l-3.08-8.5h1.79l2.14,6.53h.09l2.14-6.53h1.79Z"/><path class="cls-4" d="M1358.26,189.34a1.12,1.12,0,0,1-.39-.36,1,1,0,0,1-.14-.49,1,1,0,0,1,.14-.51,1,1,0,0,1,.39-.35,1.06,1.06,0,0,1,.52-.13,1,1,0,0,1,.52.13.94.94,0,0,1,.39.35,1,1,0,0,1,.14.51,1,1,0,0,1-.14.49,1.12,1.12,0,0,1-.91.5A1.07,1.07,0,0,1,1358.26,189.34Zm-.32,1.44h1.67v8.5h-1.67Z"/><path class="cls-4" d="M1363,198.92a3.62,3.62,0,0,1-1.26-1.53,5.52,5.52,0,0,1-.46-2.34,5.46,5.46,0,0,1,.46-2.34,3.55,3.55,0,0,1,1.27-1.52,3.4,3.4,0,0,1,1.84-.52,2.7,2.7,0,0,1,1.16.22,2.13,2.13,0,0,1,.74.5,4.71,4.71,0,0,1,.49.66l0,.06,0,0h.09V188h1.67v11.33h-1.63V198h-.13l0,.07a3.6,3.6,0,0,1-.49.68,2.31,2.31,0,0,1-.75.52,3,3,0,0,1-1.17.22A3.3,3.3,0,0,1,1363,198.92Zm3.4-1.27a2.33,2.33,0,0,0,.77-1.05,4.41,4.41,0,0,0,.26-1.57,4.3,4.3,0,0,0-.26-1.55,2.18,2.18,0,0,0-.75-1,2,2,0,0,0-1.21-.36,2,2,0,0,0-1.22.38,2.26,2.26,0,0,0-.76,1A4.21,4.21,0,0,0,1363,195a4.11,4.11,0,0,0,.26,1.54,2.35,2.35,0,0,0,.76,1.07,2.11,2.11,0,0,0,2.4,0Z"/><path class="cls-4" d="M1372.73,198.91a3.64,3.64,0,0,1-1.41-1.52,5.64,5.64,0,0,1,0-4.6,3.75,3.75,0,0,1,1.38-1.56,3.83,3.83,0,0,1,2.06-.56,4,4,0,0,1,1.89.45,3.25,3.25,0,0,1,1.37,1.4,5,5,0,0,1,.52,2.42v.59h-6.77v-1.25h5.13a2.53,2.53,0,0,0-.26-1.15,2,2,0,0,0-.75-.8,2.14,2.14,0,0,0-1.11-.29,2.1,2.1,0,0,0-1.19.34,2.26,2.26,0,0,0-.81.87,2.72,2.72,0,0,0-.29,1.2v1a3.19,3.19,0,0,0,.3,1.44,2.18,2.18,0,0,0,.84.91,2.52,2.52,0,0,0,1.27.32,2.66,2.66,0,0,0,.82-.12,1.93,1.93,0,0,0,.62-.33,1.57,1.57,0,0,0,.4-.49h1.69a2.81,2.81,0,0,1-.67,1.22,3.18,3.18,0,0,1-1.22.81,4.63,4.63,0,0,1-1.66.28A4.16,4.16,0,0,1,1372.73,198.91Z"/><path class="cls-4" d="M1380.19,190.78h1.62v1.36h.09a2.1,2.1,0,0,1,.47-.79,2.16,2.16,0,0,1,.75-.52,2.4,2.4,0,0,1,.93-.17c.26,0,.49,0,.72,0v1.6a2.47,2.47,0,0,0-.4-.07l-.47,0a2.26,2.26,0,0,0-1.05.24,1.81,1.81,0,0,0-.72.68,1.88,1.88,0,0,0-.26,1v5.18h-1.68Z"/><path class="cls-4" d="M72,165.09h1.72v9.85h5.13v1.48H72Z"/><path class="cls-4" d="M80.83,166.48a1.12,1.12,0,0,1-.39-.36,1,1,0,0,1-.14-.5,1,1,0,0,1,.14-.5,1.12,1.12,0,0,1,.39-.36,1.18,1.18,0,0,1,.52-.13,1.14,1.14,0,0,1,.52.13,1,1,0,0,1,.39.36,1,1,0,0,1,.14.5,1,1,0,0,1-.14.5,1.12,1.12,0,0,1-.91.5A1.07,1.07,0,0,1,80.83,166.48Zm-.32,1.44h1.67v8.5H80.51Z"/><path class="cls-4" d="M90,175.1h-.09l0,.07a4,4,0,0,1-.49.68,2.29,2.29,0,0,1-.75.51,2.81,2.81,0,0,1-1.17.22,3.23,3.23,0,0,1-1.84-.53,3.53,3.53,0,0,1-1.26-1.52,5.52,5.52,0,0,1-.46-2.34,5.46,5.46,0,0,1,.46-2.34,3.55,3.55,0,0,1,1.27-1.52,3.32,3.32,0,0,1,1.84-.52,2.7,2.7,0,0,1,1.16.22,2.13,2.13,0,0,1,.74.5,4.71,4.71,0,0,1,.49.66l0,.06,0,.05H90v-1.38h1.63v11.69H90Zm-1-.31a2.33,2.33,0,0,0,.77-1,4.45,4.45,0,0,0,.26-1.57,4.3,4.3,0,0,0-.26-1.55,2.18,2.18,0,0,0-.75-1,2,2,0,0,0-1.21-.36,2,2,0,0,0-1.22.38,2.26,2.26,0,0,0-.76,1,4.21,4.21,0,0,0-.25,1.52,4.11,4.11,0,0,0,.26,1.54,2.35,2.35,0,0,0,.76,1.07,2,2,0,0,0,1.21.38A1.92,1.92,0,0,0,89,174.79Z"/><path class="cls-4" d="M99.05,167.92h1.66v8.5H99.08V175H99a2.58,2.58,0,0,1-1.42,1.38,3.1,3.1,0,0,1-1.12.2,2.78,2.78,0,0,1-1.46-.37,2.51,2.51,0,0,1-1-1.09,4,4,0,0,1-.35-1.74v-5.41h1.67v5.2a2.14,2.14,0,0,0,.23,1,1.54,1.54,0,0,0,.6.66,1.68,1.68,0,0,0,.9.23,2,2,0,0,0,1-.24,1.85,1.85,0,0,0,.75-.72,2.13,2.13,0,0,0,.3-1.16Z"/><path class="cls-4" d="M103.07,166.48a1.12,1.12,0,0,1-.39-.36.89.89,0,0,1-.15-.5.91.91,0,0,1,.15-.5,1.12,1.12,0,0,1,.39-.36,1.14,1.14,0,0,1,.52-.13,1.18,1.18,0,0,1,.52.13,1,1,0,0,1,.38.36.91.91,0,0,1,.15.5.89.89,0,0,1-.15.5,1,1,0,0,1-.38.36,1.07,1.07,0,0,1-.52.14A1,1,0,0,1,103.07,166.48Zm-.33,1.44h1.67v8.5h-1.67Z"/><path class="cls-4" d="M107.8,176.05a3.55,3.55,0,0,1-1.27-1.52,5.68,5.68,0,0,1-.46-2.34,5.61,5.61,0,0,1,.46-2.34,3.57,3.57,0,0,1,1.28-1.52,3.3,3.3,0,0,1,1.84-.52,2.73,2.73,0,0,1,1.16.22,2.34,2.34,0,0,1,.74.5,5.6,5.6,0,0,1,.48.66l0,.06,0,.05h.09v-4.21h1.67v11.33h-1.63V175.1h-.13a.43.43,0,0,1,0,.07,4,4,0,0,1-.5.68,2.29,2.29,0,0,1-.75.51,2.75,2.75,0,0,1-1.17.22A3.17,3.17,0,0,1,107.8,176.05Zm3.4-1.26a2.31,2.31,0,0,0,.76-1,4.45,4.45,0,0,0,.26-1.57,4.3,4.3,0,0,0-.26-1.55,2.12,2.12,0,0,0-.75-1,2,2,0,0,0-1.2-.36,2,2,0,0,0-1.23.38,2.25,2.25,0,0,0-.75,1,4.21,4.21,0,0,0-.26,1.52,4.32,4.32,0,0,0,.26,1.54,2.43,2.43,0,0,0,.76,1.07,2,2,0,0,0,1.22.38A1.94,1.94,0,0,0,111.2,174.79Z"/><path class="cls-4" d="M116.34,166.48a1,1,0,0,1-.38-.36.89.89,0,0,1-.15-.5.91.91,0,0,1,.15-.5,1,1,0,0,1,.38-.36,1.19,1.19,0,0,1,.53-.13,1.21,1.21,0,0,1,.52.13,1,1,0,0,1,.38.36.9.9,0,0,1,.14.5.88.88,0,0,1-.14.5,1,1,0,0,1-.38.36,1.1,1.1,0,0,1-.52.14A1.08,1.08,0,0,1,116.34,166.48Zm-.32,1.44h1.67v8.5H116Z"/><path class="cls-4" d="M123.7,169.25h-4.65v-1.33h4.65ZM122,165.88v8a1.38,1.38,0,0,0,.14.7.76.76,0,0,0,.35.34,1.36,1.36,0,0,0,.53.09l.82,0v1.44a6.33,6.33,0,0,1-1,.07,3,3,0,0,1-1.24-.26,2,2,0,0,1-.9-.76,2.16,2.16,0,0,1-.34-1.25v-8.38Z"/><path class="cls-4" d="M125.46,179.57l0-1.4h.74a2.11,2.11,0,0,0,.54-.05.82.82,0,0,0,.41-.31,2.6,2.6,0,0,0,.4-.74l.21-.55-3.12-8.62h1.79l2.14,6.59h.09l2.15-6.59h1.79l-3.5,9.63a3.35,3.35,0,0,1-1.05,1.54,2.76,2.76,0,0,1-1.71.52C126,179.61,125.68,179.59,125.46,179.57Z"/><path class="cls-4" d="M72.6,184.31h4.05a4.58,4.58,0,0,1,2.15.47,3.12,3.12,0,0,1,1.33,1.31,4.32,4.32,0,0,1,0,3.8,3.15,3.15,0,0,1-1.33,1.3,4.48,4.48,0,0,1-2.16.48H73.86v-1.46h2.61a2.76,2.76,0,0,0,1.33-.29,1.73,1.73,0,0,0,.78-.78,2.67,2.67,0,0,0,0-2.3,1.66,1.66,0,0,0-.78-.77,2.78,2.78,0,0,0-1.34-.28H74.32v9.85H72.6Z"/><path class="cls-4" d="M82.24,187.15h1.62v1.35H84a2.19,2.19,0,0,1,.47-.79,2.13,2.13,0,0,1,.75-.51,2.41,2.41,0,0,1,.93-.18,5.48,5.48,0,0,1,.72,0v1.59l-.4-.06a2.56,2.56,0,0,0-.47,0,2.14,2.14,0,0,0-1,.25,1.81,1.81,0,0,0-.72.68,1.83,1.83,0,0,0-.26,1v5.17H82.24Z"/><path class="cls-4" d="M89.29,195.27a3.71,3.71,0,0,1-1.39-1.54,5.64,5.64,0,0,1,0-4.6,3.67,3.67,0,0,1,1.39-1.55,4.3,4.3,0,0,1,4.17,0,3.67,3.67,0,0,1,1.39,1.55,5.64,5.64,0,0,1,0,4.6,3.71,3.71,0,0,1-1.39,1.54,4.23,4.23,0,0,1-4.17,0ZM92.64,194a2.33,2.33,0,0,0,.76-1.08,4.23,4.23,0,0,0,.26-1.51,4.33,4.33,0,0,0-.26-1.52,2.44,2.44,0,0,0-.76-1.08,2.18,2.18,0,0,0-2.52,0,2.4,2.4,0,0,0-.77,1.08,4.33,4.33,0,0,0-.26,1.52,4.23,4.23,0,0,0,.26,1.51,2.35,2.35,0,0,0,.77,1.08,2.18,2.18,0,0,0,2.52,0Z"/><path class="cls-4" d="M100.89,195.64H99.11L96,187.15h1.79l2.14,6.52h.09l2.15-6.52H104Z"/><path class="cls-4" d="M105.67,185.71a1,1,0,0,1-.38-.37.86.86,0,0,1-.15-.49.89.89,0,0,1,.15-.5,1,1,0,0,1,.38-.36,1.07,1.07,0,0,1,.53-.13,1.08,1.08,0,0,1,.52.13,1,1,0,0,1,.38.36,1,1,0,0,1,.14.5.93.93,0,0,1-.14.49,1,1,0,0,1-.38.37,1.08,1.08,0,0,1-.52.13A1.07,1.07,0,0,1,105.67,185.71Zm-.32,1.44H107v8.49h-1.67Z"/><path class="cls-4" d="M110.4,195.28a3.5,3.5,0,0,1-1.26-1.53,6.18,6.18,0,0,1,0-4.68,3.52,3.52,0,0,1,1.27-1.51,3.32,3.32,0,0,1,1.84-.52,2.86,2.86,0,0,1,1.16.21,2.14,2.14,0,0,1,.74.51,3.77,3.77,0,0,1,.49.66l0,.05,0,.05h.09v-4.21h1.67v11.33h-1.63v-1.32h-.13s0,.06,0,.07a4,4,0,0,1-.49.69,2.46,2.46,0,0,1-.75.51,2.81,2.81,0,0,1-1.17.22A3.3,3.3,0,0,1,110.4,195.28Zm3.4-1.26a2.31,2.31,0,0,0,.77-1.06,4.4,4.4,0,0,0,.26-1.56,4.32,4.32,0,0,0-.26-1.56,2.2,2.2,0,0,0-.75-1,2,2,0,0,0-1.21-.36,2,2,0,0,0-1.22.37,2.32,2.32,0,0,0-.76,1,4.27,4.27,0,0,0-.25,1.53,4.18,4.18,0,0,0,.26,1.54,2.32,2.32,0,0,0,.76,1.06,1.91,1.91,0,0,0,1.21.39A2,2,0,0,0,113.8,194Z"/><path class="cls-4" d="M120.14,195.28a3.6,3.6,0,0,1-1.41-1.53,5.16,5.16,0,0,1-.49-2.3,5.29,5.29,0,0,1,.49-2.3,3.7,3.7,0,0,1,1.39-1.56,3.77,3.77,0,0,1,2-.55,4,4,0,0,1,1.89.44,3.37,3.37,0,0,1,1.37,1.4,5,5,0,0,1,.52,2.43v.59h-6.77v-1.25h5.13a2.57,2.57,0,0,0-.26-1.16,2,2,0,0,0-.75-.79,2,2,0,0,0-1.1-.29,2.18,2.18,0,0,0-2,1.21,2.56,2.56,0,0,0-.3,1.19v1a3.17,3.17,0,0,0,.3,1.43,2.2,2.2,0,0,0,.84.92,2.52,2.52,0,0,0,1.27.31,2.66,2.66,0,0,0,.82-.12,1.93,1.93,0,0,0,.62-.33,1.65,1.65,0,0,0,.4-.48h1.69a2.78,2.78,0,0,1-.67,1.21,3.18,3.18,0,0,1-1.22.81,4.63,4.63,0,0,1-1.66.29A4.16,4.16,0,0,1,120.14,195.28Z"/><path class="cls-4" d="M127.61,187.15h1.61v1.35h.09a2.19,2.19,0,0,1,.47-.79,2.08,2.08,0,0,1,.76-.51,2.32,2.32,0,0,1,.92-.18,5.48,5.48,0,0,1,.72,0v1.59l-.4-.06a2.56,2.56,0,0,0-.47,0,2.14,2.14,0,0,0-1.05.25,1.81,1.81,0,0,0-.72.68,1.83,1.83,0,0,0-.26,1v5.17h-1.67Z"/><g class="cls-9"><g class="cls-10"><line class="cls-11" x1="1215.32" y1="69.39" x2="1004.67" y2="289.73"/><line class="cls-11" x1="1210.76" y1="69.4" x2="1000.11" y2="289.75"/><line class="cls-11" x1="1206.2" y1="69.42" x2="995.55" y2="289.76"/><line class="cls-11" x1="1201.64" y1="69.44" x2="990.98" y2="289.78"/><line class="cls-11" x1="1197.08" y1="69.46" x2="986.42" y2="289.8"/><line class="cls-11" x1="1192.52" y1="69.48" x2="981.86" y2="289.82"/><line class="cls-11" x1="1187.96" y1="69.49" x2="977.3" y2="289.84"/><line class="cls-11" x1="1183.4" y1="69.51" x2="972.74" y2="289.85"/><line class="cls-11" x1="1178.84" y1="69.53" x2="968.18" y2="289.87"/><line class="cls-11" x1="1174.28" y1="69.55" x2="963.62" y2="289.89"/><line class="cls-11" x1="1169.72" y1="69.57" x2="959.06" y2="289.91"/><line class="cls-11" x1="1165.16" y1="69.58" x2="954.5" y2="289.93"/><line class="cls-11" x1="1160.6" y1="69.6" x2="949.94" y2="289.94"/><line class="cls-11" x1="1156.04" y1="69.62" x2="945.38" y2="289.96"/><line class="cls-11" x1="1151.48" y1="69.64" x2="940.82" y2="289.98"/><line class="cls-11" x1="1146.92" y1="69.66" x2="936.26" y2="290"/><line class="cls-11" x1="1142.36" y1="69.67" x2="931.7" y2="290.02"/><line class="cls-11" x1="1137.8" y1="69.69" x2="927.14" y2="290.04"/><line class="cls-11" x1="1133.24" y1="69.71" x2="922.58" y2="290.05"/><line class="cls-11" x1="1128.68" y1="69.73" x2="918.02" y2="290.07"/><line class="cls-11" x1="1124.12" y1="69.75" x2="913.46" y2="290.09"/><line class="cls-11" x1="1119.56" y1="69.77" x2="908.9" y2="290.11"/><line class="cls-11" x1="1115" y1="69.78" x2="904.34" y2="290.13"/><line class="cls-11" x1="1110.44" y1="69.8" x2="899.78" y2="290.14"/><line class="cls-11" x1="1105.88" y1="69.82" x2="895.22" y2="290.16"/><line class="cls-11" x1="1101.32" y1="69.84" x2="890.66" y2="290.18"/><line class="cls-11" x1="1096.76" y1="69.86" x2="886.1" y2="290.2"/><line class="cls-11" x1="1092.2" y1="69.87" x2="881.54" y2="290.22"/><line class="cls-11" x1="1087.64" y1="69.89" x2="876.98" y2="290.23"/><line class="cls-11" x1="1083.08" y1="69.91" x2="872.42" y2="290.25"/><line class="cls-11" x1="1078.52" y1="69.93" x2="867.86" y2="290.27"/><line class="cls-11" x1="1073.96" y1="69.95" x2="863.3" y2="290.29"/><line class="cls-11" x1="1069.4" y1="69.96" x2="858.74" y2="290.31"/><line class="cls-11" x1="1064.84" y1="69.98" x2="854.18" y2="290.32"/><line class="cls-11" x1="1060.28" y1="70" x2="849.62" y2="290.34"/><line class="cls-11" x1="1055.72" y1="70.02" x2="845.06" y2="290.36"/><line class="cls-11" x1="1051.16" y1="70.04" x2="840.5" y2="290.38"/><line class="cls-11" x1="1046.6" y1="70.05" x2="835.94" y2="290.4"/><line class="cls-11" x1="1042.04" y1="70.07" x2="831.38" y2="290.42"/><line class="cls-11" x1="1037.48" y1="70.09" x2="826.82" y2="290.43"/><line class="cls-11" x1="1032.92" y1="70.11" x2="822.26" y2="290.45"/><line class="cls-11" x1="1028.36" y1="70.13" x2="817.7" y2="290.47"/><line class="cls-11" x1="1023.8" y1="70.15" x2="813.14" y2="290.49"/><line class="cls-11" x1="1019.24" y1="70.16" x2="808.58" y2="290.51"/><line class="cls-11" x1="1014.68" y1="70.18" x2="804.02" y2="290.52"/><line class="cls-11" x1="1010.12" y1="70.2" x2="799.46" y2="290.54"/><line class="cls-11" x1="1005.56" y1="70.22" x2="794.9" y2="290.56"/><line class="cls-11" x1="1000.99" y1="70.24" x2="790.34" y2="290.58"/><line class="cls-11" x1="996.43" y1="70.25" x2="785.78" y2="290.6"/><line class="cls-11" x1="991.87" y1="70.27" x2="781.22" y2="290.61"/><line class="cls-11" x1="987.31" y1="70.29" x2="776.66" y2="290.63"/><line class="cls-11" x1="982.75" y1="70.31" x2="772.1" y2="290.65"/><line class="cls-11" x1="978.19" y1="70.33" x2="767.54" y2="290.67"/><line class="cls-11" x1="973.63" y1="70.34" x2="762.98" y2="290.69"/><line class="cls-11" x1="969.07" y1="70.36" x2="758.42" y2="290.7"/><line class="cls-11" x1="964.51" y1="70.38" x2="753.86" y2="290.72"/><line class="cls-11" x1="959.95" y1="70.4" x2="749.3" y2="290.74"/><line class="cls-11" x1="955.39" y1="70.42" x2="744.74" y2="290.76"/><line class="cls-11" x1="950.83" y1="70.43" x2="740.17" y2="290.78"/><line class="cls-11" x1="946.27" y1="70.45" x2="735.61" y2="290.8"/><line class="cls-11" x1="941.71" y1="70.47" x2="731.05" y2="290.81"/><line class="cls-11" x1="937.15" y1="70.49" x2="726.49" y2="290.83"/><line class="cls-11" x1="932.59" y1="70.51" x2="721.93" y2="290.85"/><line class="cls-11" x1="928.03" y1="70.53" x2="717.37" y2="290.87"/><line class="cls-11" x1="923.47" y1="70.54" x2="712.81" y2="290.89"/><line class="cls-11" x1="918.91" y1="70.56" x2="708.25" y2="290.9"/><line class="cls-11" x1="914.35" y1="70.58" x2="703.69" y2="290.92"/><line class="cls-11" x1="909.79" y1="70.6" x2="699.13" y2="290.94"/><line class="cls-11" x1="905.23" y1="70.62" x2="694.57" y2="290.96"/><line class="cls-11" x1="900.67" y1="70.63" x2="690.01" y2="290.98"/><line class="cls-11" x1="896.11" y1="70.65" x2="685.45" y2="290.99"/><line class="cls-11" x1="891.55" y1="70.67" x2="680.89" y2="291.01"/><line class="cls-11" x1="886.99" y1="70.69" x2="676.33" y2="291.03"/><line class="cls-11" x1="882.43" y1="70.71" x2="671.77" y2="291.05"/><line class="cls-11" x1="877.87" y1="70.72" x2="667.21" y2="291.07"/></g></g><path class="cls-4" d="M905.65,157.61h3V172h7.49v2.57H905.65Z"/><path class="cls-4" d="M919.14,159.82a1.73,1.73,0,0,1-.64-.59,1.43,1.43,0,0,1-.24-.81,1.51,1.51,0,0,1,.24-.82,1.65,1.65,0,0,1,.64-.59,1.87,1.87,0,0,1,1.72,0,1.65,1.65,0,0,1,.64.59,1.59,1.59,0,0,1,.23.82,1.5,1.5,0,0,1-.23.81,1.73,1.73,0,0,1-.64.59,1.79,1.79,0,0,1-1.72,0Zm-.64,2h3v12.73h-3Z"/><path class="cls-4" d="M932.86,172.58h-.12a.35.35,0,0,1-.07.12,4.4,4.4,0,0,1-.75,1,3.44,3.44,0,0,1-1.13.76,4.19,4.19,0,0,1-1.7.32,4.8,4.8,0,0,1-2.7-.78,5.21,5.21,0,0,1-1.87-2.26,8.48,8.48,0,0,1-.68-3.53,8.34,8.34,0,0,1,.69-3.54,5.21,5.21,0,0,1,1.88-2.25,4.9,4.9,0,0,1,2.69-.76,4.15,4.15,0,0,1,1.69.31,3.29,3.29,0,0,1,1.12.76,5.31,5.31,0,0,1,.74,1l.05.07a.36.36,0,0,0,0,.09h.17v-2.1h2.93v17.51h-3Zm-1.32-.73a3.24,3.24,0,0,0,1-1.45,6.31,6.31,0,0,0,.35-2.18,6.21,6.21,0,0,0-.35-2.17,3,3,0,0,0-1-1.41,2.73,2.73,0,0,0-1.64-.5,2.6,2.6,0,0,0-1.65.52,3.07,3.07,0,0,0-1,1.43,6.1,6.1,0,0,0-.35,2.13,6,6,0,0,0,.36,2.15,3.31,3.31,0,0,0,1,1.46,2.54,2.54,0,0,0,1.64.53A2.64,2.64,0,0,0,931.54,171.85Z"/><path class="cls-4" d="M946.84,161.85h3v12.73h-2.88v-2.25h-.13a3.71,3.71,0,0,1-.84,1.26,3.63,3.63,0,0,1-1.3.85,4.35,4.35,0,0,1-1.69.31,4.27,4.27,0,0,1-2.22-.57,3.77,3.77,0,0,1-1.49-1.64,5.71,5.71,0,0,1-.54-2.58v-8.11h3v7.65a3.1,3.1,0,0,0,.3,1.4,2.36,2.36,0,0,0,.85.92,2.46,2.46,0,0,0,1.26.32,2.7,2.7,0,0,0,1.32-.34,2.57,2.57,0,0,0,1-1,3.07,3.07,0,0,0,.39-1.59Z"/><path class="cls-4" d="M953.33,159.82a1.78,1.78,0,0,1-.63-.59,1.43,1.43,0,0,1-.24-.81,1.51,1.51,0,0,1,.24-.82,1.7,1.7,0,0,1,.63-.59,1.81,1.81,0,0,1,.87-.21,1.85,1.85,0,0,1,.86.21,1.7,1.7,0,0,1,.63.59,1.59,1.59,0,0,1,.23.82,1.5,1.5,0,0,1-.23.81,1.78,1.78,0,0,1-.63.59,1.75,1.75,0,0,1-.86.22A1.71,1.71,0,0,1,953.33,159.82Zm-.63,2h3v12.73h-3Z"/><path class="cls-4" d="M960.58,174a5.21,5.21,0,0,1-1.87-2.26,8.48,8.48,0,0,1-.68-3.53,8.34,8.34,0,0,1,.69-3.54,5.16,5.16,0,0,1,1.89-2.25,4.85,4.85,0,0,1,2.68-.76A4.11,4.11,0,0,1,965,162a3.29,3.29,0,0,1,1.12.76,4.92,4.92,0,0,1,.74,1l0,.07,0,.09h.12v-6.34h3v17h-2.92v-2h-.18l-.06.12a5.06,5.06,0,0,1-.75,1,3.6,3.6,0,0,1-1.14.76,4.18,4.18,0,0,1-1.69.32A4.83,4.83,0,0,1,960.58,174Zm5.15-2.18a3.24,3.24,0,0,0,1-1.45,6.31,6.31,0,0,0,.35-2.18,6,6,0,0,0-.35-2.17,3,3,0,0,0-1-1.41,2.7,2.7,0,0,0-1.63-.5,2.63,2.63,0,0,0-1.66.52,3.14,3.14,0,0,0-1,1.43,6.1,6.1,0,0,0-.35,2.13,6,6,0,0,0,.36,2.15,3.31,3.31,0,0,0,1,1.46,2.55,2.55,0,0,0,1.65.53A2.61,2.61,0,0,0,965.73,171.85Z"/><path class="cls-4" d="M973.69,159.82a1.78,1.78,0,0,1-.63-.59,1.43,1.43,0,0,1-.24-.81,1.51,1.51,0,0,1,.24-.82,1.7,1.7,0,0,1,.63-.59,1.89,1.89,0,0,1,1.73,0,1.7,1.7,0,0,1,.63.59,1.59,1.59,0,0,1,.23.82,1.5,1.5,0,0,1-.23.81,1.78,1.78,0,0,1-.63.59,1.81,1.81,0,0,1-1.73,0Zm-.63,2h3v12.73h-3Z"/><path class="cls-4" d="M985.25,164.16H978v-2.31h7.29Zm-2.5-5.35v11.95a1.89,1.89,0,0,0,.18.9,1.07,1.07,0,0,0,.47.45,1.83,1.83,0,0,0,.71.14c.23,0,.67,0,1.31-.06v2.44a9.6,9.6,0,0,1-1.69.13,5.1,5.1,0,0,1-2.05-.39,3.23,3.23,0,0,1-1.41-1.17,3.52,3.52,0,0,1-.51-1.95V158.81Z"/><path class="cls-4" d="M987.8,179.3v-2.4l.25,0h.25l.76,0a3.13,3.13,0,0,0,.75-.08,1.27,1.27,0,0,0,.57-.39,3.06,3.06,0,0,0,.52-.95l.26-.68-4.62-13h3.16l2.95,9.63h.13l3-9.63h3.17l-5.1,14.28a5.11,5.11,0,0,1-1.65,2.4,4.52,4.52,0,0,1-2.82.83A15.1,15.1,0,0,1,987.8,179.3Z"/><path class="cls-4" d="M929.07,186.41h6.35a6.81,6.81,0,0,1,3.25.72,4.84,4.84,0,0,1,2,2,6,6,0,0,1,.69,2.91,5.92,5.92,0,0,1-.7,2.92,4.9,4.9,0,0,1-2.05,2,7,7,0,0,1-3.27.71h-4.22v-2.51H935a4,4,0,0,0,1.86-.39,2.63,2.63,0,0,0,1.1-1.09,3.92,3.92,0,0,0,0-3.24,2.58,2.58,0,0,0-1.1-1.07A4.19,4.19,0,0,0,935,189h-2.84v14.42h-3Z"/><path class="cls-4" d="M945.89,202.81a5.51,5.51,0,0,1-2.13-2.3,8.29,8.29,0,0,1,0-6.89,5.53,5.53,0,0,1,2.13-2.31,6.73,6.73,0,0,1,6.44,0,5.45,5.45,0,0,1,2.12,2.31,8.29,8.29,0,0,1,0,6.89,5.42,5.42,0,0,1-2.12,2.3,6.73,6.73,0,0,1-6.44,0Zm4.91-2.12a3.23,3.23,0,0,0,1-1.5,6.18,6.18,0,0,0,.34-2.13,6.3,6.3,0,0,0-.34-2.15,3.34,3.34,0,0,0-1-1.5,2.6,2.6,0,0,0-1.68-.56,2.64,2.64,0,0,0-1.7.56,3.35,3.35,0,0,0-1,1.5,6.06,6.06,0,0,0-.36,2.15,6,6,0,0,0,.36,2.14,3.27,3.27,0,0,0,1,1.49,2.64,2.64,0,0,0,1.7.56A2.6,2.6,0,0,0,950.8,200.69Z"/><path class="cls-4" d="M959.87,202.81a5.51,5.51,0,0,1-2.13-2.3,8.29,8.29,0,0,1,0-6.89,5.53,5.53,0,0,1,2.13-2.31,6.73,6.73,0,0,1,6.44,0,5.45,5.45,0,0,1,2.12,2.31,8.29,8.29,0,0,1,0,6.89,5.42,5.42,0,0,1-2.12,2.3,6.73,6.73,0,0,1-6.44,0Zm4.91-2.12a3.23,3.23,0,0,0,1-1.5,6.18,6.18,0,0,0,.34-2.13,6.3,6.3,0,0,0-.34-2.15,3.34,3.34,0,0,0-1-1.5,2.6,2.6,0,0,0-1.68-.56,2.64,2.64,0,0,0-1.7.56,3.35,3.35,0,0,0-1,1.5,6.06,6.06,0,0,0-.36,2.15,6,6,0,0,0,.36,2.14,3.27,3.27,0,0,0,1,1.49,2.64,2.64,0,0,0,1.7.56A2.6,2.6,0,0,0,964.78,200.69Z"/><path class="cls-4" d="M974.5,203.38h-3v-17h3Z"/><path class="cls-7" d="M874.58,113.28a102,102,0,0,0-16.17,25.36m0,0a102.22,102.22,0,1,0,16.17-25.36"/><path class="cls-4" d="M671.84,5.63h7.35l4.37,18.76h.23l4.92-18.76h6l4.94,18.8h.22l4.37-18.8h7.35l-8.21,28.29H697L691.86,16.5h-.22l-5.17,17.42H680Z"/><path class="cls-4" d="M722.32,25.1c-.94,0-1.7.1-2.3.16a3.36,3.36,0,0,0-2,.78,2.16,2.16,0,0,0-.73,1.69,2,2,0,0,0,.34,1.2,2.16,2.16,0,0,0,1,.75,4,4,0,0,0,1.44.25,4.42,4.42,0,0,0,2-.46,3.51,3.51,0,0,0,1.43-1.26,3.34,3.34,0,0,0,.53-1.85l0-6.92a2.28,2.28,0,0,0-.35-1.27,2.18,2.18,0,0,0-1-.79,4,4,0,0,0-1.53-.27,4.23,4.23,0,0,0-1.53.25,2.62,2.62,0,0,0-1.07.73,2.42,2.42,0,0,0-.53,1.17h-6.15a6.74,6.74,0,0,1,1.28-3.48,7.41,7.41,0,0,1,3.19-2.45,12.28,12.28,0,0,1,4.94-.9,13,13,0,0,1,4.78.82,7.51,7.51,0,0,1,3.33,2.43,6.21,6.21,0,0,1,1.22,3.85V33.92h-6.2V31h-.16a6.18,6.18,0,0,1-1.46,1.83,6.24,6.24,0,0,1-2,1.12,9.68,9.68,0,0,1-6.3-.32,5.48,5.48,0,0,1-2.47-2.11A6.4,6.4,0,0,1,711,28a5.58,5.58,0,0,1,2.16-4.85,10.56,10.56,0,0,1,5.7-1.79l2.14-.11,2.31-.1.92,0,.05,3.87C723.92,25,723.25,25.05,722.32,25.1Z"/><path class="cls-4" d="M741.22,33.92h-6.59V5.63h6.59Z"/><path class="cls-4" d="M752,33.92h-6.59V5.63H752Z"/><path class="cls-4" d="M760.42,33a8.88,8.88,0,0,1-3.7-3.78,12.44,12.44,0,0,1-1.29-5.83,12.34,12.34,0,0,1,1.3-5.75,9.24,9.24,0,0,1,3.68-3.85,10.85,10.85,0,0,1,5.51-1.36,11,11,0,0,1,5.31,1.25,8.75,8.75,0,0,1,3.61,3.69,12.26,12.26,0,0,1,1.3,5.87v1.69H757.79V21.05H770a3.9,3.9,0,0,0-.51-2,3.55,3.55,0,0,0-1.4-1.37,4.23,4.23,0,0,0-2-.48,4.28,4.28,0,0,0-2.09.51,4.06,4.06,0,0,0-1.48,1.43,3.89,3.89,0,0,0-.54,2v3.9a5,5,0,0,0,.52,2.34A3.61,3.61,0,0,0,764,29a4.54,4.54,0,0,0,2.29.56,5.22,5.22,0,0,0,1.63-.24,3.47,3.47,0,0,0,1.25-.7,3,3,0,0,0,.79-1.08h6.13a7.66,7.66,0,0,1-1.69,3.6A8.38,8.38,0,0,1,771,33.48a12.93,12.93,0,0,1-4.83.84A11.71,11.71,0,0,1,760.42,33Z"/><path class="cls-4" d="M791.36,17.57H778.1V12.7h13.26Zm-3.84-9.95V27.28a2.09,2.09,0,0,0,.21,1,1.19,1.19,0,0,0,.59.56,2.86,2.86,0,0,0,1,.2,23,23,0,0,0,2.36-.11v5a21.29,21.29,0,0,1-3.29.23,10.72,10.72,0,0,1-4-.67,5.39,5.39,0,0,1-2.53-2,6.18,6.18,0,0,1-.87-3.46V7.62Z"/><g class="cls-5"><line class="cls-6" x1="1061.97" y1="190.64" x2="1237.51" y2="190.64"/><polygon class="cls-4" points="1236.05 195.63 1244.69 190.64 1236.05 185.66 1236.05 195.63"/></g><g class="cls-5"><line class="cls-6" x1="1069.15" y1="178.12" x2="1244.69" y2="178.12"/><polygon class="cls-4" points="1070.61 183.11 1061.97 178.12 1070.61 173.14 1070.61 183.11"/></g><path class="cls-4" d="M1106.31,196.28h1.39v8h4.16v1.2h-5.55Z"/><path class="cls-4" d="M1113.29,196.28h3.29a3.65,3.65,0,0,1,1.75.38,2.49,2.49,0,0,1,1.07,1.06,3.47,3.47,0,0,1,0,3.08,2.54,2.54,0,0,1-1.07,1.06,3.66,3.66,0,0,1-1.76.39h-2.26v-1.19h2.12a2.35,2.35,0,0,0,1.09-.23,1.55,1.55,0,0,0,.63-.64,2,2,0,0,0,.2-.93,2,2,0,0,0-.2-.94,1.51,1.51,0,0,0-.63-.62,2.35,2.35,0,0,0-1.09-.22h-1.74v8h-1.4Z"/><path class="cls-4" d="M1124,196.28h7.12v1.2h-2.86v8h-1.39v-8H1124Z"/><path class="cls-4" d="M1132.59,205.17a3,3,0,0,1-1.13-1.25,4.57,4.57,0,0,1,0-3.74,3,3,0,0,1,1.13-1.25,3.47,3.47,0,0,1,3.38,0,2.92,2.92,0,0,1,1.13,1.25,4.57,4.57,0,0,1,0,3.74,3,3,0,0,1-1.13,1.25,3.47,3.47,0,0,1-3.38,0Zm2.72-1a2,2,0,0,0,.62-.88,3.88,3.88,0,0,0,0-2.46,2,2,0,0,0-.62-.88,1.76,1.76,0,0,0-2,0,2,2,0,0,0-.62.88,3.71,3.71,0,0,0,0,2.46,2,2,0,0,0,.62.88,1.8,1.8,0,0,0,2,0Z"/><path class="cls-4" d="M1138.84,196.28h1.36v9.19h-1.36Zm1.24,5.21h.23l2.74-2.91h1.62l-3.13,3.32h-.22l-1.23,1.24Zm.66.71.93-.95,3.19,4.22h-1.66Z"/><path class="cls-4" d="M1146.68,205.17a2.83,2.83,0,0,1-1.14-1.23,4.12,4.12,0,0,1-.4-1.87,4.18,4.18,0,0,1,.4-1.87,2.92,2.92,0,0,1,1.12-1.26,3.07,3.07,0,0,1,1.67-.45,3.25,3.25,0,0,1,1.52.36A2.63,2.63,0,0,1,1151,200a4.07,4.07,0,0,1,.42,2v.48h-5.49v-1h4.16a1.92,1.92,0,0,0-.22-.94,1.57,1.57,0,0,0-.6-.65,1.77,1.77,0,0,0-.9-.23,1.79,1.79,0,0,0-1,.27,1.85,1.85,0,0,0-.65.71,2.13,2.13,0,0,0-.23,1v.78a2.66,2.66,0,0,0,.24,1.17,1.74,1.74,0,0,0,.68.74,2,2,0,0,0,1,.26,2.3,2.3,0,0,0,.67-.1,1.76,1.76,0,0,0,.51-.27,1.66,1.66,0,0,0,.32-.39h1.37a2.31,2.31,0,0,1-.54,1,2.57,2.57,0,0,1-1,.66,3.82,3.82,0,0,1-1.35.23A3.36,3.36,0,0,1,1146.68,205.17Z"/><path class="cls-4" d="M1154.09,205.47h-1.36v-6.89H1154v1.12h.08a2,2,0,0,1,.45-.64,1.76,1.76,0,0,1,.68-.43,2.81,2.81,0,0,1,.91-.14,2.43,2.43,0,0,1,1.23.29,2,2,0,0,1,.82.88,3.12,3.12,0,0,1,.29,1.43v4.38h-1.35v-4.22a1.87,1.87,0,0,0-.18-.85,1.17,1.17,0,0,0-.5-.55,1.48,1.48,0,0,0-.78-.19,1.73,1.73,0,0,0-.83.2,1.45,1.45,0,0,0-.56.59,1.94,1.94,0,0,0-.21.93Z"/><path class="cls-4" d="M1163.43,196.28h3.28a3.89,3.89,0,0,1,1.76.36,2.44,2.44,0,0,1,1.07,1,3.33,3.33,0,0,1,0,3,2.3,2.3,0,0,1-1.07,1,4,4,0,0,1-1.76.35h-2.49v-1.2h2.35a2.62,2.62,0,0,0,1.09-.2,1.23,1.23,0,0,0,.63-.55,1.86,1.86,0,0,0,.2-.89,2,2,0,0,0-.2-.91,1.26,1.26,0,0,0-.63-.57,2.52,2.52,0,0,0-1.1-.2h-1.74v8h-1.39Zm6.82,9.19h-1.59l-2.24-4.15H1168Z"/><path class="cls-4" d="M1172.47,205.17a2.83,2.83,0,0,1-1.14-1.23,4.12,4.12,0,0,1-.4-1.87,4.18,4.18,0,0,1,.4-1.87,3,3,0,0,1,1.12-1.26,3.09,3.09,0,0,1,1.67-.45,3.26,3.26,0,0,1,1.53.36,2.66,2.66,0,0,1,1.11,1.14,4.06,4.06,0,0,1,.43,2v.48h-5.5v-1h4.16a2,2,0,0,0-.21-.94,1.57,1.57,0,0,0-.6-.65,1.8,1.8,0,0,0-.9-.23,1.75,1.75,0,0,0-1,.27,2,2,0,0,0-.66.71,2.13,2.13,0,0,0-.23,1v.78a2.66,2.66,0,0,0,.24,1.17,1.74,1.74,0,0,0,.68.74,2,2,0,0,0,1,.26,2.28,2.28,0,0,0,.66-.1,1.76,1.76,0,0,0,.51-.27,1.45,1.45,0,0,0,.32-.39h1.38a2.44,2.44,0,0,1-.55,1,2.57,2.57,0,0,1-1,.66,3.8,3.8,0,0,1-1.34.23A3.39,3.39,0,0,1,1172.47,205.17Z"/><path class="cls-4" d="M1178,198.58h1.4l1.34,5h.07l1.35-5h1.4l1.33,5h.07l1.34-5h1.4l-2,6.89h-1.38l-1.4-5h-.1l-1.39,5H1180Z"/><path class="cls-4" d="M1192.18,202.4l-.93.06a2.15,2.15,0,0,0-1.07.32.88.88,0,0,0-.38.76.9.9,0,0,0,.17.55,1,1,0,0,0,.46.34,2.19,2.19,0,0,0,1.62-.1,1.62,1.62,0,0,0,.61-.58,1.46,1.46,0,0,0,.21-.77v-2.17a1.38,1.38,0,0,0-.16-.67,1.1,1.1,0,0,0-.48-.42,2,2,0,0,0-.77-.14,2,2,0,0,0-.68.11,1.33,1.33,0,0,0-.48.31,1,1,0,0,0-.26.46h-1.35a2,2,0,0,1,.43-1,2.34,2.34,0,0,1,1-.7,3.71,3.71,0,0,1,1.42-.25,3.88,3.88,0,0,1,1.27.2,2.11,2.11,0,0,1,1,.74,2.32,2.32,0,0,1,.42,1.46v4.58h-1.32v-.94h-.06a1.69,1.69,0,0,1-.41.53,2,2,0,0,1-.67.4,2.61,2.61,0,0,1-1,.16,2.8,2.8,0,0,1-1.18-.24,2,2,0,0,1-.84-.72,2.11,2.11,0,0,1-.3-1.14,1.67,1.67,0,0,1,.72-1.52,4.08,4.08,0,0,1,1.85-.54l.74,0,.8,0,.35,0,0,1Z"/><path class="cls-4" d="M1195.85,198.58h1.31v1.1h.08a1.77,1.77,0,0,1,.38-.65,1.69,1.69,0,0,1,.61-.41,1.93,1.93,0,0,1,.75-.15,5.22,5.22,0,0,1,.58,0v1.3l-.32-.06a2.48,2.48,0,0,0-.38,0,1.8,1.8,0,0,0-.85.19,1.59,1.59,0,0,0-.59.56,1.54,1.54,0,0,0-.21.8v4.2h-1.36Z"/><path class="cls-4" d="M1201.45,205.17a2.86,2.86,0,0,1-1-1.23,4.51,4.51,0,0,1-.37-1.9,4.44,4.44,0,0,1,.37-1.9,2.82,2.82,0,0,1,1-1.23,2.68,2.68,0,0,1,1.49-.42,2.23,2.23,0,0,1,.94.17,1.76,1.76,0,0,1,.6.41,3.74,3.74,0,0,1,.39.54l0,0,0,0h.07v-3.41h1.36v9.19H1205V204.4h-.1l0,.06a3.42,3.42,0,0,1-.41.55,1.72,1.72,0,0,1-.61.42,2.24,2.24,0,0,1-1,.18A2.6,2.6,0,0,1,1201.45,205.17Zm2.76-1a1.87,1.87,0,0,0,.61-.85A3.58,3.58,0,0,0,1205,202a3.47,3.47,0,0,0-.2-1.26,1.81,1.81,0,0,0-.61-.83,1.69,1.69,0,0,0-1-.29,1.62,1.62,0,0,0-1,.3,1.87,1.87,0,0,0-.62.85,3.6,3.6,0,0,0-.2,1.23,3.45,3.45,0,0,0,.21,1.25,1.93,1.93,0,0,0,.61.87,1.56,1.56,0,0,0,1,.31A1.6,1.6,0,0,0,1204.21,204.15Z"/><path class="cls-4" d="M1085.23,147.73h1.4v8h4.16v1.2h-5.56Z"/><path class="cls-4" d="M1092.37,148.86a.86.86,0,0,1-.31-.29.75.75,0,0,1-.12-.4.73.73,0,0,1,.12-.41.86.86,0,0,1,.31-.29.92.92,0,0,1,.43-.11.88.88,0,0,1,.42.11.79.79,0,0,1,.31.29.73.73,0,0,1,.12.41.75.75,0,0,1-.12.4.79.79,0,0,1-.31.29.88.88,0,0,1-.42.11A.92.92,0,0,1,1092.37,148.86Zm-.26,1.17h1.36v6.89h-1.36Z"/><path class="cls-4" d="M1099.77,155.85h-.07a.15.15,0,0,1,0,.06,2.88,2.88,0,0,1-.4.55,1.93,1.93,0,0,1-.61.42,2.27,2.27,0,0,1-1,.18,2.63,2.63,0,0,1-1.49-.43,2.87,2.87,0,0,1-1-1.24,4.94,4.94,0,0,1,0-3.8,2.92,2.92,0,0,1,1-1.23,2.72,2.72,0,0,1,1.49-.42,2.19,2.19,0,0,1,.94.18,1.63,1.63,0,0,1,.6.41,2.73,2.73,0,0,1,.4.53s0,0,0,0l0,.05h.1V150h1.32v9.48h-1.35Zm-.8-.25a1.83,1.83,0,0,0,.62-.85,3.56,3.56,0,0,0,.21-1.27,3.47,3.47,0,0,0-.21-1.26,1.77,1.77,0,0,0-.61-.84,1.65,1.65,0,0,0-1-.29,1.62,1.62,0,0,0-1,.31,1.84,1.84,0,0,0-.61.84,3.39,3.39,0,0,0-.21,1.24,3.52,3.52,0,0,0,.21,1.25,2,2,0,0,0,.62.86,1.56,1.56,0,0,0,1,.32A1.58,1.58,0,0,0,1099,155.6Z"/><path class="cls-4" d="M1107.15,150h1.35v6.89h-1.32v-1.19h-.08a1.85,1.85,0,0,1-.45.66,1.94,1.94,0,0,1-.69.46,2.47,2.47,0,0,1-.92.16,2.27,2.27,0,0,1-1.18-.29,2,2,0,0,1-.8-.89,3.2,3.2,0,0,1-.28-1.41V150h1.35v4.22a1.73,1.73,0,0,0,.18.81,1.37,1.37,0,0,0,.5.54,1.43,1.43,0,0,0,.72.18,1.66,1.66,0,0,0,.78-.19,1.64,1.64,0,0,0,.61-.59,1.73,1.73,0,0,0,.23-.94Z"/><path class="cls-4" d="M1110.41,148.86a.86.86,0,0,1-.31-.29.75.75,0,0,1-.12-.4.73.73,0,0,1,.12-.41.86.86,0,0,1,.31-.29.92.92,0,0,1,.43-.11.88.88,0,0,1,.42.11.79.79,0,0,1,.31.29.73.73,0,0,1,.12.41.75.75,0,0,1-.12.4.79.79,0,0,1-.31.29.88.88,0,0,1-.42.11A.92.92,0,0,1,1110.41,148.86Zm-.26,1.17h1.36v6.89h-1.36Z"/><path class="cls-4" d="M1114.25,156.63a2.94,2.94,0,0,1-1-1.24,4.94,4.94,0,0,1,0-3.8,2.92,2.92,0,0,1,1-1.23,2.72,2.72,0,0,1,1.49-.42,2.19,2.19,0,0,1,.94.18,1.76,1.76,0,0,1,.61.41,3.16,3.16,0,0,1,.39.53l0,0,0,.05h.07v-3.42h1.35v9.19h-1.32v-1.07h-.1a.15.15,0,0,1,0,.06,2.88,2.88,0,0,1-.4.55,1.82,1.82,0,0,1-.61.42,2.27,2.27,0,0,1-1,.18A2.63,2.63,0,0,1,1114.25,156.63Zm2.76-1a1.83,1.83,0,0,0,.62-.85,3.56,3.56,0,0,0,.21-1.27,3.47,3.47,0,0,0-.21-1.26,1.77,1.77,0,0,0-.61-.84,1.77,1.77,0,0,0-2,0,1.84,1.84,0,0,0-.61.84,3.39,3.39,0,0,0-.21,1.24,3.52,3.52,0,0,0,.21,1.25,2,2,0,0,0,.62.86,1.67,1.67,0,0,0,2,0Z"/><path class="cls-4" d="M1121.19,148.86a.89.89,0,0,1-.32-.29.75.75,0,0,1-.12-.4.73.73,0,0,1,.12-.41.89.89,0,0,1,.32-.29.86.86,0,0,1,.84,0,.76.76,0,0,1,.43.7.83.83,0,0,1-.11.4.82.82,0,0,1-.32.29.86.86,0,0,1-.84,0Zm-.26,1.17h1.35v6.89h-1.35Z"/><path class="cls-4" d="M1127.16,151.11h-3.77V150h3.77Zm-1.41-2.73v6.52a1.21,1.21,0,0,0,.11.56.6.6,0,0,0,.29.28,1.1,1.1,0,0,0,.43.08l.67,0V157a5.34,5.34,0,0,1-.84,0,2.4,2.4,0,0,1-1-.2,1.68,1.68,0,0,1-1-1.64v-6.79Z"/><path class="cls-4" d="M1128.59,159.48v-1.13h.6a1.78,1.78,0,0,0,.44-.05.72.72,0,0,0,.34-.25,2.06,2.06,0,0,0,.31-.6l.17-.45-2.52-7h1.45l1.73,5.35h.08l1.74-5.35h1.45l-2.84,7.81a2.65,2.65,0,0,1-.85,1.25,2.2,2.2,0,0,1-1.38.42A6.65,6.65,0,0,1,1128.59,159.48Z"/><path class="cls-4" d="M1143.5,149.43a1.6,1.6,0,0,0-.66-.46,2.72,2.72,0,0,0-.94-.16,2.43,2.43,0,0,0-1,.18,1.45,1.45,0,0,0-.64.48,1.17,1.17,0,0,0-.23.7,1,1,0,0,0,.47.89,3.91,3.91,0,0,0,1.2.5l.89.23a6.29,6.29,0,0,1,1.29.47,2.75,2.75,0,0,1,1,.82,2.11,2.11,0,0,1,.39,1.3,2.5,2.5,0,0,1-.41,1.4,2.61,2.61,0,0,1-1.17.95,5,5,0,0,1-3.61,0,2.85,2.85,0,0,1-1.19-.93,2.77,2.77,0,0,1-.47-1.44h1.4a1.4,1.4,0,0,0,.32.81,1.64,1.64,0,0,0,.72.5,2.87,2.87,0,0,0,1,.16,2.84,2.84,0,0,0,1-.18,1.75,1.75,0,0,0,.73-.53,1.23,1.23,0,0,0,.26-.77,1,1,0,0,0-.22-.65,1.67,1.67,0,0,0-.59-.43,6.36,6.36,0,0,0-.94-.32l-1.08-.29a4,4,0,0,1-1.77-.91,2,2,0,0,1-.63-1.52,2.35,2.35,0,0,1,.43-1.38,2.85,2.85,0,0,1,1.17-.93,4.08,4.08,0,0,1,1.67-.33,3.92,3.92,0,0,1,1.65.32,2.73,2.73,0,0,1,1.14.91,2.32,2.32,0,0,1,.42,1.31h-1.35A1.36,1.36,0,0,0,1143.5,149.43Z"/><path class="cls-4" d="M1151,150h1.35v6.89h-1.33v-1.19H1151a2.15,2.15,0,0,1-.45.66,1.9,1.9,0,0,1-.7.46,2.38,2.38,0,0,1-.91.16,2.27,2.27,0,0,1-1.18-.29,2,2,0,0,1-.8-.89,3.19,3.19,0,0,1-.29-1.41V150H1148v4.22a1.73,1.73,0,0,0,.18.81,1.35,1.35,0,0,0,.49.54,1.46,1.46,0,0,0,.73.18,1.62,1.62,0,0,0,.77-.19,1.5,1.5,0,0,0,.61-.59,1.73,1.73,0,0,0,.24-.94Z"/><path class="cls-4" d="M1154,150h1.32v1.12h.12l0-.05,0,0a2.73,2.73,0,0,1,.4-.53,1.63,1.63,0,0,1,.6-.41,2.22,2.22,0,0,1,.94-.18,2.72,2.72,0,0,1,1.49.42,2.92,2.92,0,0,1,1,1.23,5.06,5.06,0,0,1,0,3.8,2.8,2.8,0,0,1-1,1.24,2.63,2.63,0,0,1-1.49.43,2.28,2.28,0,0,1-1-.18,2,2,0,0,1-.61-.43,3.08,3.08,0,0,1-.41-.57h0v0h-.08v3.66H1154Zm1.54,4.72a1.82,1.82,0,0,0,.61.85,1.7,1.7,0,0,0,2,0,2,2,0,0,0,.61-.86,3.52,3.52,0,0,0,.21-1.25,3.62,3.62,0,0,0-.2-1.24,1.79,1.79,0,0,0-.62-.84,1.77,1.77,0,0,0-2,0,1.84,1.84,0,0,0-.61.84,3.47,3.47,0,0,0-.21,1.26A3.56,3.56,0,0,0,1155.58,154.75Z"/><path class="cls-4" d="M1161.7,150H1163v1.12h.11l0-.05,0,0a2.73,2.73,0,0,1,.4-.53,1.63,1.63,0,0,1,.6-.41,2.17,2.17,0,0,1,.93-.18,2.73,2.73,0,0,1,1.5.42,2.92,2.92,0,0,1,1,1.23,5.19,5.19,0,0,1,0,3.8,2.87,2.87,0,0,1-1,1.24,2.65,2.65,0,0,1-1.49.43,2.28,2.28,0,0,1-1-.18,2.18,2.18,0,0,1-.62-.43,3.59,3.59,0,0,1-.4-.57h0v0h-.08v3.66h-1.35Zm1.54,4.72a1.82,1.82,0,0,0,.61.85,1.6,1.6,0,0,0,1,.31,1.57,1.57,0,0,0,1-.32,1.9,1.9,0,0,0,.62-.86,3.52,3.52,0,0,0,.21-1.25,3.39,3.39,0,0,0-.21-1.24,1.77,1.77,0,0,0-.61-.84,1.65,1.65,0,0,0-1-.31,1.62,1.62,0,0,0-1,.29,1.77,1.77,0,0,0-.61.84,3.47,3.47,0,0,0-.21,1.26A3.56,3.56,0,0,0,1163.24,154.75Z"/><path class="cls-4" d="M1170.71,156.92h-1.35v-9.19h1.35Z"/><path class="cls-4" d="M1172.47,159.48v-1.13h.61a1.75,1.75,0,0,0,.43-.05.68.68,0,0,0,.34-.25,2,2,0,0,0,.32-.6l.17-.45-2.53-7h1.45l1.74,5.35h.07l1.75-5.35h1.45l-2.85,7.81a2.65,2.65,0,0,1-.85,1.25,2.18,2.18,0,0,1-1.38.42A6.91,6.91,0,0,1,1172.47,159.48Z"/><path class="cls-4" d="M1185.78,151.11H1182V150h3.77Zm-1.4-2.73v6.52a1.09,1.09,0,0,0,.11.56.56.56,0,0,0,.29.28,1,1,0,0,0,.42.08l.67,0V157a5.21,5.21,0,0,1-.83,0,2.37,2.37,0,0,1-1-.2,1.7,1.7,0,0,1-.73-.62,1.75,1.75,0,0,1-.28-1v-6.79Z"/><path class="cls-4" d="M1188.6,156.92h-1.35v-9.19h1.34v3.43h.08a2.06,2.06,0,0,1,.44-.66,2,2,0,0,1,.68-.42,2.87,2.87,0,0,1,.92-.14,2.59,2.59,0,0,1,1.25.29,2,2,0,0,1,.83.88,3.25,3.25,0,0,1,.29,1.43v4.38h-1.36v-4.21a1.93,1.93,0,0,0-.18-.87,1.14,1.14,0,0,0-.5-.54,1.52,1.52,0,0,0-.79-.19,1.7,1.7,0,0,0-.85.21,1.38,1.38,0,0,0-.58.59,1.83,1.83,0,0,0-.22.93Z"/><path class="cls-4" d="M1194.72,150H1196v1.1h.07a1.65,1.65,0,0,1,.38-.64,1.8,1.8,0,0,1,.61-.42,1.94,1.94,0,0,1,.76-.14,5.35,5.35,0,0,1,.58,0v1.29a2,2,0,0,0-.32-.05l-.39,0a1.84,1.84,0,0,0-.85.2,1.4,1.4,0,0,0-.58.55,1.48,1.48,0,0,0-.22.8v4.2h-1.35Z"/><path class="cls-4" d="M1200.44,156.62a2.92,2.92,0,0,1-1.13-1.25,4.55,4.55,0,0,1,0-3.73,2.94,2.94,0,0,1,1.13-1.26,3.47,3.47,0,0,1,3.38,0,3,3,0,0,1,1.13,1.26,4.65,4.65,0,0,1,0,3.73,3,3,0,0,1-1.13,1.25,3.47,3.47,0,0,1-3.38,0Zm2.71-1a2,2,0,0,0,.62-.88,3.37,3.37,0,0,0,.21-1.23,3.45,3.45,0,0,0-.21-1.23,2,2,0,0,0-.62-.88,1.65,1.65,0,0,0-1-.32,1.58,1.58,0,0,0-1,.32,2,2,0,0,0-.63.88,3.45,3.45,0,0,0-.21,1.23,3.37,3.37,0,0,0,.21,1.23,2,2,0,0,0,.63.88,1.58,1.58,0,0,0,1,.32A1.59,1.59,0,0,0,1203.15,155.61Z"/><path class="cls-4" d="M1211.06,150h1.35v6.89h-1.33v-1.19H1211a2,2,0,0,1-.45.66,1.9,1.9,0,0,1-.7.46,2.38,2.38,0,0,1-.91.16,2.27,2.27,0,0,1-1.18-.29,2,2,0,0,1-.8-.89,3.2,3.2,0,0,1-.28-1.41V150H1208v4.22a1.73,1.73,0,0,0,.18.81,1.35,1.35,0,0,0,.49.54,1.46,1.46,0,0,0,.73.18,1.61,1.61,0,0,0,1.39-.78,1.82,1.82,0,0,0,.23-.94Z"/><path class="cls-4" d="M1215.43,159.41a2.38,2.38,0,0,1-1-.71,2,2,0,0,1-.44-1.11h1.38a1,1,0,0,0,.28.54,1.25,1.25,0,0,0,.56.33,2.76,2.76,0,0,0,.8.11,2,2,0,0,0,1.3-.38,1.41,1.41,0,0,0,.46-1.17v-1.35h-.09l0,0a3.74,3.74,0,0,1-.39.54,1.85,1.85,0,0,1-.62.4,2.37,2.37,0,0,1-1,.18,2.76,2.76,0,0,1-1.48-.4,2.81,2.81,0,0,1-1-1.17,4.2,4.2,0,0,1-.38-1.84,4.26,4.26,0,0,1,.38-1.86,2.71,2.71,0,0,1,1-1.2,2.81,2.81,0,0,1,1.5-.41,2.2,2.2,0,0,1,.93.18,1.9,1.9,0,0,1,.61.4,3.86,3.86,0,0,1,.4.53.31.31,0,0,1,.05.1h.09V150h1.33v7a2.5,2.5,0,0,1-.4,1.44,2.26,2.26,0,0,1-1.1.86,4.25,4.25,0,0,1-1.61.28A4.47,4.47,0,0,1,1215.43,159.41Zm2.49-4a1.66,1.66,0,0,0,.61-.78,3.17,3.17,0,0,0,.21-1.22,3.56,3.56,0,0,0-.2-1.23,1.85,1.85,0,0,0-.62-.82,1.64,1.64,0,0,0-1-.29,1.56,1.56,0,0,0-1,.31,1.81,1.81,0,0,0-.62.83,3.21,3.21,0,0,0-.21,1.2,3.09,3.09,0,0,0,.21,1.19,1.86,1.86,0,0,0,.62.8,1.67,1.67,0,0,0,1,.28A1.7,1.7,0,0,0,1217.92,155.43Z"/><path class="cls-4" d="M1223.08,156.92h-1.36v-9.19h1.34v3.43h.08a2.06,2.06,0,0,1,.44-.66,2,2,0,0,1,.68-.42,2.87,2.87,0,0,1,.92-.14,2.59,2.59,0,0,1,1.25.29,2,2,0,0,1,.83.88,3.25,3.25,0,0,1,.29,1.43v4.38h-1.36v-4.21a1.93,1.93,0,0,0-.18-.87,1.14,1.14,0,0,0-.5-.54,1.52,1.52,0,0,0-.79-.19,1.7,1.7,0,0,0-.85.21,1.38,1.38,0,0,0-.58.59,1.94,1.94,0,0,0-.21.93Z"/><path class="cls-4" d="M1077.72,163.33l2.91,7.13h.11l2.91-7.13h1.71v9.19H1084v-6.63h-.08l-2.71,6.62h-1.1l-2.7-6.63h-.08v6.64H1076v-9.19Z"/><path class="cls-4" d="M1086.53,172.52l3.3-9.19h1.62l3.3,9.19h-1.48l-2.6-7.51h-.07l-2.59,7.51Zm6.5-3.6v1.18h-4.78v-1.18Z"/><path class="cls-4" d="M1098.33,170.81h.1l2.56-7.48h1.5l-3.3,9.19h-1.62l-3.3-9.19h1.51Z"/><path class="cls-4" d="M1106.38,163.33h7.12v1.2h-2.85v8h-1.4v-8h-2.87Z"/><path class="cls-4" d="M1115,172.22a2.92,2.92,0,0,1-1.13-1.25,4.55,4.55,0,0,1,0-3.73A2.94,2.94,0,0,1,1115,166a3.47,3.47,0,0,1,3.38,0,3,3,0,0,1,1.13,1.26,4.65,4.65,0,0,1,0,3.73,3,3,0,0,1-1.13,1.25,3.47,3.47,0,0,1-3.38,0Zm2.71-1a2,2,0,0,0,.62-.88,3.37,3.37,0,0,0,.21-1.23,3.45,3.45,0,0,0-.21-1.23,2,2,0,0,0-.62-.88,1.65,1.65,0,0,0-1-.32,1.58,1.58,0,0,0-1,.32,2,2,0,0,0-.63.88,3.45,3.45,0,0,0-.21,1.23,3.37,3.37,0,0,0,.21,1.23,2,2,0,0,0,.63.88,1.63,1.63,0,0,0,1,.32A1.65,1.65,0,0,0,1117.74,171.21Z"/><path class="cls-4" d="M1121.28,163.33h1.35v9.19h-1.35Zm1.23,5.21h.24l2.73-2.91h1.62L1124,169h-.21l-1.24,1.23Zm.66.72.93-1,3.19,4.22h-1.66Z"/><path class="cls-4" d="M1129.11,172.23A3,3,0,0,1,1128,171a4.55,4.55,0,0,1,0-3.73,3,3,0,0,1,1.12-1.27,3.09,3.09,0,0,1,1.67-.45,3.26,3.26,0,0,1,1.53.36,2.66,2.66,0,0,1,1.11,1.14,4,4,0,0,1,.43,2v.48h-5.5v-1h4.16a2.06,2.06,0,0,0-.21-.94,1.54,1.54,0,0,0-.6-.64,1.68,1.68,0,0,0-.9-.24,1.75,1.75,0,0,0-1,.27,1.81,1.81,0,0,0-.65.72,2,2,0,0,0-.24,1v.79a2.58,2.58,0,0,0,.24,1.16,1.74,1.74,0,0,0,.68.74,2,2,0,0,0,1,.26,2,2,0,0,0,.66-.1,1.38,1.38,0,0,0,.51-.27,1.08,1.08,0,0,0,.32-.39h1.38a2.48,2.48,0,0,1-.55,1,2.55,2.55,0,0,1-1,.65,3.59,3.59,0,0,1-1.34.23A3.41,3.41,0,0,1,1129.11,172.23Z"/><path class="cls-4" d="M1136.52,172.52h-1.35v-6.89h1.3v1.13h.09a2.13,2.13,0,0,1,.44-.65,2,2,0,0,1,.68-.42,2.59,2.59,0,0,1,.91-.15,2.47,2.47,0,0,1,1.24.3,2,2,0,0,1,.82.88,3.21,3.21,0,0,1,.29,1.42v4.38h-1.36V168.3a2,2,0,0,0-.17-.85,1.27,1.27,0,0,0-.5-.55,1.5,1.5,0,0,0-.78-.19,1.6,1.6,0,0,0-.83.21,1.41,1.41,0,0,0-.57.59,1.92,1.92,0,0,0-.21.92Z"/><path class="cls-4" d="M1147,172.22a3,3,0,0,1-1.13-1.25,4.55,4.55,0,0,1,0-3.73A3.07,3.07,0,0,1,1147,166a3.29,3.29,0,0,1,1.7-.44,3.25,3.25,0,0,1,1.69.44,3,3,0,0,1,1.12,1.26,4.55,4.55,0,0,1,0,3.73,3,3,0,0,1-1.12,1.25,3.16,3.16,0,0,1-1.69.44A3.19,3.19,0,0,1,1147,172.22Zm2.72-1a2,2,0,0,0,.62-.88,3.37,3.37,0,0,0,.21-1.23,3.45,3.45,0,0,0-.21-1.23,2.1,2.1,0,0,0-.62-.88,1.65,1.65,0,0,0-1-.32,1.56,1.56,0,0,0-1,.32,2,2,0,0,0-.63.88,3.45,3.45,0,0,0-.21,1.23,3.37,3.37,0,0,0,.21,1.23,2,2,0,0,0,.63.88,1.61,1.61,0,0,0,1,.32A1.65,1.65,0,0,0,1149.69,171.21Z"/><path class="cls-4" d="M1153.22,165.63h1.31v1.1h.08a1.65,1.65,0,0,1,.38-.64,1.63,1.63,0,0,1,.61-.42,1.86,1.86,0,0,1,.75-.14,5.22,5.22,0,0,1,.58,0v1.29a1.8,1.8,0,0,0-.32,0l-.38,0a1.81,1.81,0,0,0-.85.2,1.42,1.42,0,0,0-.59.55,1.57,1.57,0,0,0-.21.8v4.2h-1.36Z"/><path class="cls-4" d="M1162.33,172.22a3,3,0,0,1-1.13-1.25,4.55,4.55,0,0,1,0-3.73,3.07,3.07,0,0,1,1.13-1.26,3.29,3.29,0,0,1,1.7-.44,3.25,3.25,0,0,1,1.69.44,3,3,0,0,1,1.12,1.26,4.55,4.55,0,0,1,0,3.73,3,3,0,0,1-1.12,1.25,3.16,3.16,0,0,1-1.69.44A3.19,3.19,0,0,1,1162.33,172.22Zm2.72-1a2,2,0,0,0,.62-.88,3.37,3.37,0,0,0,.21-1.23,3.45,3.45,0,0,0-.21-1.23,2,2,0,0,0-.62-.88,1.65,1.65,0,0,0-1-.32,1.58,1.58,0,0,0-1,.32,2,2,0,0,0-.63.88,3.45,3.45,0,0,0-.21,1.23,3.37,3.37,0,0,0,.21,1.23,2,2,0,0,0,.63.88,1.63,1.63,0,0,0,1,.32A1.65,1.65,0,0,0,1165.05,171.21Z"/><path class="cls-4" d="M1171.81,166.71H1168v-1.08h3.77ZM1170.4,164v6.52a1.21,1.21,0,0,0,.11.56.6.6,0,0,0,.29.28,1.1,1.1,0,0,0,.43.08l.67,0v1.17a6.78,6.78,0,0,1-.84.05,2.4,2.4,0,0,1-1-.2,1.83,1.83,0,0,1-.73-.62,1.85,1.85,0,0,1-.27-1V164Z"/><path class="cls-4" d="M1174.63,172.52h-1.36v-9.19h1.34v3.43h.09a2.06,2.06,0,0,1,.44-.66,1.87,1.87,0,0,1,.68-.42,2.82,2.82,0,0,1,.92-.14,2.59,2.59,0,0,1,1.25.29,2,2,0,0,1,.82.88,3.25,3.25,0,0,1,.29,1.43v4.38h-1.35V168.3a1.91,1.91,0,0,0-.18-.86,1.19,1.19,0,0,0-.5-.54,1.54,1.54,0,0,0-.79-.19,1.67,1.67,0,0,0-.85.21,1.46,1.46,0,0,0-.59.59,1.92,1.92,0,0,0-.21.92Z"/><path class="cls-4" d="M1182,172.23a3,3,0,0,1-1.14-1.24,4.55,4.55,0,0,1,0-3.73A3,3,0,0,1,1182,166a3.09,3.09,0,0,1,1.67-.45,3.26,3.26,0,0,1,1.53.36,2.74,2.74,0,0,1,1.12,1.14,4.11,4.11,0,0,1,.42,2v.48h-5.5v-1h4.16a2.06,2.06,0,0,0-.21-.94,1.54,1.54,0,0,0-.6-.64,1.68,1.68,0,0,0-.9-.24,1.75,1.75,0,0,0-1,.27,1.81,1.81,0,0,0-.65.72,2,2,0,0,0-.24,1v.79a2.58,2.58,0,0,0,.24,1.16,1.77,1.77,0,0,0,.69.74,2,2,0,0,0,1,.26,2,2,0,0,0,.67-.1,1.42,1.42,0,0,0,.5-.27,1.08,1.08,0,0,0,.32-.39h1.38a2.26,2.26,0,0,1-.55,1,2.55,2.55,0,0,1-1,.65,3.59,3.59,0,0,1-1.34.23A3.41,3.41,0,0,1,1182,172.23Z"/><path class="cls-4" d="M1188,165.63h1.31v1.1h.07a1.67,1.67,0,0,1,.39-.64,1.63,1.63,0,0,1,.61-.42,1.86,1.86,0,0,1,.75-.14,5.22,5.22,0,0,1,.58,0v1.29a2,2,0,0,0-.32,0,2.66,2.66,0,0,0-.39,0,1.8,1.8,0,0,0-.84.2,1.42,1.42,0,0,0-.59.55,1.57,1.57,0,0,0-.21.8v4.2H1188Z"/><path class="cls-4" d="M1195.58,163.33h7.12v1.2h-2.86v8h-1.4v-8h-2.86Z"/><path class="cls-4" d="M1204.22,172.22a3,3,0,0,1-1.13-1.25,4.55,4.55,0,0,1,0-3.73,3,3,0,0,1,1.13-1.26,3.47,3.47,0,0,1,3.38,0,2.94,2.94,0,0,1,1.13,1.26,4.55,4.55,0,0,1,0,3.73,2.92,2.92,0,0,1-1.13,1.25,3.47,3.47,0,0,1-3.38,0Zm2.71-1a2,2,0,0,0,.63-.88,3.6,3.6,0,0,0,.2-1.23,3.69,3.69,0,0,0-.2-1.23,2,2,0,0,0-.63-.88,1.79,1.79,0,0,0-2,0,2,2,0,0,0-.62.88,3.45,3.45,0,0,0-.21,1.23,3.37,3.37,0,0,0,.21,1.23,2,2,0,0,0,.62.88,1.66,1.66,0,0,0,1,.32A1.6,1.6,0,0,0,1206.93,171.21Z"/><path class="cls-4" d="M1210.47,163.33h1.36v9.19h-1.36Zm1.24,5.21h.23l2.74-2.91h1.62l-3.13,3.33H1213l-1.23,1.23Zm.65.72.94-1,3.19,4.22h-1.66Z"/><path class="cls-4" d="M1218.31,172.23a3,3,0,0,1-1.15-1.24,4.65,4.65,0,0,1,0-3.73,3,3,0,0,1,1.13-1.27,3.07,3.07,0,0,1,1.67-.45,3.25,3.25,0,0,1,1.52.36,2.63,2.63,0,0,1,1.12,1.14,4.11,4.11,0,0,1,.42,2v.48h-5.49v-1h4.16a2,2,0,0,0-.22-.94,1.54,1.54,0,0,0-.6-.64,1.68,1.68,0,0,0-.9-.24,1.77,1.77,0,0,0-1.62,1,2.2,2.2,0,0,0-.24,1v.79a2.58,2.58,0,0,0,.25,1.16,1.74,1.74,0,0,0,.68.74,2,2,0,0,0,1,.26,2,2,0,0,0,.67-.1,1.38,1.38,0,0,0,.51-.27,1.34,1.34,0,0,0,.32-.39h1.37a2.34,2.34,0,0,1-.54,1,2.55,2.55,0,0,1-1,.65,3.61,3.61,0,0,1-1.35.23A3.35,3.35,0,0,1,1218.31,172.23Z"/><path class="cls-4" d="M1225.72,172.52h-1.36v-6.89h1.3v1.13h.09a2,2,0,0,1,.45-.65,1.87,1.87,0,0,1,.68-.42,2.54,2.54,0,0,1,.9-.15,2.45,2.45,0,0,1,1.24.3,1.9,1.9,0,0,1,.82.88,3.21,3.21,0,0,1,.29,1.42v4.38h-1.35V168.3a1.9,1.9,0,0,0-.18-.85,1.21,1.21,0,0,0-.5-.55,1.5,1.5,0,0,0-.78-.19,1.63,1.63,0,0,0-.83.21,1.41,1.41,0,0,0-.57.59,2,2,0,0,0-.2.92Z"/><path class="cls-4" d="M1235.21,166.85a1.43,1.43,0,0,0-.87-.24,1.79,1.79,0,0,0-.68.12,1.14,1.14,0,0,0-.48.33.75.75,0,0,0-.17.47.67.67,0,0,0,.26.53,2,2,0,0,0,.82.35l1.1.25a2.9,2.9,0,0,1,1.42.68,1.6,1.6,0,0,1,.47,1.19,1.91,1.91,0,0,1-.34,1.1,2.17,2.17,0,0,1-1,.76,3.86,3.86,0,0,1-1.5.27,3.81,3.81,0,0,1-1.42-.23,2.09,2.09,0,0,1-1.38-1.79h1.38a1,1,0,0,0,.44.7,1.68,1.68,0,0,0,1,.24,2.22,2.22,0,0,0,.77-.12,1.1,1.1,0,0,0,.5-.33.75.75,0,0,0,.18-.5.71.71,0,0,0-.26-.55,1.93,1.93,0,0,0-.81-.34l-1.07-.24a2.75,2.75,0,0,1-1.41-.69,1.63,1.63,0,0,1-.48-1.2,1.86,1.86,0,0,1,.33-1.08,2.18,2.18,0,0,1,.94-.73,3.6,3.6,0,0,1,1.4-.26,3.38,3.38,0,0,1,1.32.24,2.09,2.09,0,0,1,.9.69,2.12,2.12,0,0,1,.4,1h-1.31A1.07,1.07,0,0,0,1235.21,166.85Z"/></svg>