<svg id="레이어_1" data-name="레이어 1" xmlns="http://www.w3.org/2000/svg" viewBox="0 0 296.61 213.34"><defs><style>.cls-1,.cls-2,.cls-4,.cls-6{fill:#fff;}.cls-1,.cls-2,.cls-5,.cls-6{fill-rule:evenodd;}.cls-1{opacity:0.2;}.cls-2{opacity:0.5;}.cls-3,.cls-5{fill:none;stroke:#fff;}.cls-3{stroke-miterlimit:8;stroke-width:0.5px;}.cls-5{stroke-miterlimit:10;stroke-width:0.51px;}</style></defs><path class="cls-1" d="M159.75,84.53,197,66.82a102.76,102.76,0,0,0-32.62-39.09l-24.1,33.45A61.38,61.38,0,0,1,159.75,84.53Z"/><path class="cls-2" d="M197,66.82,159.75,84.53a61.31,61.31,0,0,1,3,45L202,142.18a102.51,102.51,0,0,0-5-75.36Z"/><line class="cls-3" x1="188.46" y1="166.21" x2="294.35" y2="166.21"/><line class="cls-3" x1="206.88" y1="106.78" x2="294.35" y2="106.78"/><path class="cls-4" d="M225.67,94.69h5.27v.89h-2.12v5.9h-1v-5.9h-2.12Z"/><path class="cls-4" d="M232.07,101.26a2.14,2.14,0,0,1-.85-.91,3.12,3.12,0,0,1-.29-1.38,3.18,3.18,0,0,1,.29-1.38,2.28,2.28,0,0,1,.83-.93,2.23,2.23,0,0,1,1.23-.34,2.36,2.36,0,0,1,1.13.27,2,2,0,0,1,.83.84,3,3,0,0,1,.31,1.45v.36h-4.06v-.75h3.08a1.53,1.53,0,0,0-.16-.69,1.16,1.16,0,0,0-.45-.48,1.2,1.2,0,0,0-.66-.17,1.33,1.33,0,0,0-1.2.72,1.58,1.58,0,0,0-.17.71v.59a1.84,1.84,0,0,0,.17.85,1.24,1.24,0,0,0,.51.55,1.42,1.42,0,0,0,.75.19,1.55,1.55,0,0,0,.5-.07,1.1,1.1,0,0,0,.37-.2,1,1,0,0,0,.24-.29h1a1.69,1.69,0,0,1-.4.73,1.79,1.79,0,0,1-.73.48,2.64,2.64,0,0,1-1,.18A2.43,2.43,0,0,1,232.07,101.26Z"/><path class="cls-4" d="M239,99.21l-.69.05a1.54,1.54,0,0,0-.79.24.65.65,0,0,0-.28.56.6.6,0,0,0,.13.4.68.68,0,0,0,.34.25,1.26,1.26,0,0,0,.49.09,1.54,1.54,0,0,0,.7-.16,1.1,1.1,0,0,0,.45-.43,1,1,0,0,0,.16-.56V98a.94.94,0,0,0-.11-.49.76.76,0,0,0-.35-.31,1.41,1.41,0,0,0-.57-.11,1.5,1.5,0,0,0-.5.08.93.93,0,0,0-.36.23.77.77,0,0,0-.19.34h-1a1.4,1.4,0,0,1,.32-.75,1.76,1.76,0,0,1,.72-.52,2.79,2.79,0,0,1,1-.19,2.94,2.94,0,0,1,.94.15,1.55,1.55,0,0,1,.75.55,1.71,1.71,0,0,1,.31,1.08v3.38h-1v-.69h0a1.36,1.36,0,0,1-.3.39,1.62,1.62,0,0,1-.5.3,2.14,2.14,0,0,1-1.59-.07,1.37,1.37,0,0,1-.61-.53,1.51,1.51,0,0,1-.23-.84,1.23,1.23,0,0,1,.54-1.12,2.84,2.84,0,0,1,1.36-.4l.55,0,.59,0h.26v.73Z"/><path class="cls-4" d="M241.75,96.39h1v.83h.07a1.31,1.31,0,0,1,.52-.66,1.52,1.52,0,0,1,.86-.24,1.66,1.66,0,0,1,.61.11,1.21,1.21,0,0,1,.46.31,1.39,1.39,0,0,1,.3.48h.06a1.32,1.32,0,0,1,.34-.47,1.62,1.62,0,0,1,.52-.32,2,2,0,0,1,.66-.11,1.7,1.7,0,0,1,.83.2,1.31,1.31,0,0,1,.55.59,2.13,2.13,0,0,1,.2,1v3.41h-1V98.17a1,1,0,0,0-.27-.74,1,1,0,0,0-.68-.24,1,1,0,0,0-.55.13.89.89,0,0,0-.35.37,1.2,1.2,0,0,0-.12.55v3.24h-1V98.1a1,1,0,0,0-.11-.48.85.85,0,0,0-.33-.32,1.06,1.06,0,0,0-.48-.11,1,1,0,0,0-.9.56,1.16,1.16,0,0,0-.15.6v3.13h-1Z"/><path class="cls-4" d="M253.06,101.33a1.8,1.8,0,0,1-.77-.67,1.83,1.83,0,0,1-.27-1,1.53,1.53,0,0,1,.17-.72,2.1,2.1,0,0,1,.46-.59,7.12,7.12,0,0,1,.75-.58l1.09-.77a2.37,2.37,0,0,0,.32-.26,1,1,0,0,0,.2-.28.83.83,0,0,0,.07-.36.54.54,0,0,0-.1-.31.75.75,0,0,0-.27-.26.8.8,0,0,0-.39-.09.72.72,0,0,0-.41.11.71.71,0,0,0-.28.29.76.76,0,0,0-.11.38,1,1,0,0,0,.1.4,2.12,2.12,0,0,0,.24.4l.4.5.15.18,3.15,3.76h-1.12l-2.62-3.06-.23-.27c-.23-.28-.41-.5-.55-.69a2.52,2.52,0,0,1-.32-.58,1.57,1.57,0,0,1-.13-.65,1.69,1.69,0,0,1,.21-.84,1.57,1.57,0,0,1,.6-.57,2,2,0,0,1,.9-.2,1.92,1.92,0,0,1,.89.2,1.35,1.35,0,0,1,.59.54,1.38,1.38,0,0,1,.21.74,1.63,1.63,0,0,1-.1.59,2.42,2.42,0,0,1-.31.5,3,3,0,0,1-.49.44l-1.36,1a2.55,2.55,0,0,0-.41.38,1.93,1.93,0,0,0-.23.36.71.71,0,0,0-.07.28,1,1,0,0,0,.15.54,1,1,0,0,0,.43.4,1.33,1.33,0,0,0,.63.14,1.78,1.78,0,0,0,1-.29,2.18,2.18,0,0,0,.76-.83,2.56,2.56,0,0,0,.29-1.22h.9a3.78,3.78,0,0,1-.13,1.07,2.56,2.56,0,0,1-.34.74,2.3,2.3,0,0,1-.44.49l-.11.11-.12.1a2.24,2.24,0,0,1-.81.51,3,3,0,0,1-1,.17A2.52,2.52,0,0,1,253.06,101.33Z"/><path class="cls-4" d="M260.13,101.48l2.44-6.79h1.2l2.44,6.79h-1.1l-1.91-5.55h-.06l-1.91,5.55Zm4.81-2.66v.87h-3.53v-.87Z"/><path class="cls-4" d="M267.72,101.26a2.08,2.08,0,0,1-.76-.91,3.79,3.79,0,0,1,0-2.81,2.18,2.18,0,0,1,.76-.9,2,2,0,0,1,1.11-.32,1.77,1.77,0,0,1,.69.13,1.43,1.43,0,0,1,.45.31,2.47,2.47,0,0,1,.29.39v0a.05.05,0,0,1,0,0h.06V94.69h1v6.79h-1v-.79h-.08s0,0,0,0a2.17,2.17,0,0,1-.3.41,1.43,1.43,0,0,1-.45.31,1.68,1.68,0,0,1-.7.13A1.89,1.89,0,0,1,267.72,101.26Zm2-.75a1.35,1.35,0,0,0,.45-.63,2.5,2.5,0,0,0,.16-.94,2.69,2.69,0,0,0-.15-.94,1.43,1.43,0,0,0-.46-.61,1.22,1.22,0,0,0-.72-.21,1.17,1.17,0,0,0-.73.22,1.35,1.35,0,0,0-.45.63,2.31,2.31,0,0,0-.16.91,2.43,2.43,0,0,0,.16.92,1.38,1.38,0,0,0,.46.64,1.26,1.26,0,0,0,1.44,0Z"/><path class="cls-4" d="M275.16,101.48h-1.07l-1.84-5.09h1.07l1.28,3.91h.06l1.28-3.91H277Z"/><path class="cls-4" d="M278,95.53a.73.73,0,0,1-.24-.22.61.61,0,0,1-.08-.3.67.67,0,0,1,.08-.3.61.61,0,0,1,.24-.21.65.65,0,0,1,.31-.08.68.68,0,0,1,.31.08.52.52,0,0,1,.23.21.58.58,0,0,1,.09.3.53.53,0,0,1-.09.3.61.61,0,0,1-.23.22.68.68,0,0,1-.31.08A.65.65,0,0,1,278,95.53Zm-.2.86h1v5.09h-1Z"/><path class="cls-4" d="M282.6,97.29a1.09,1.09,0,0,0-.65-.18,1.36,1.36,0,0,0-.51.09.9.9,0,0,0-.35.25.55.55,0,0,0-.12.35.49.49,0,0,0,.19.39,1.53,1.53,0,0,0,.61.25l.81.19a2.15,2.15,0,0,1,1.05.5,1.18,1.18,0,0,1,.34.88,1.37,1.37,0,0,1-.25.82,1.69,1.69,0,0,1-.72.55,2.75,2.75,0,0,1-1.11.21,2.78,2.78,0,0,1-1.05-.18,1.47,1.47,0,0,1-.7-.51,1.63,1.63,0,0,1-.32-.81h1a.76.76,0,0,0,.33.52,1.22,1.22,0,0,0,.71.17,1.89,1.89,0,0,0,.56-.08.82.82,0,0,0,.38-.25.57.57,0,0,0,.13-.36.51.51,0,0,0-.2-.41,1.42,1.42,0,0,0-.59-.26l-.8-.17a2.08,2.08,0,0,1-1-.51,1.23,1.23,0,0,1-.35-.89,1.34,1.34,0,0,1,.24-.79,1.53,1.53,0,0,1,.7-.54,2.56,2.56,0,0,1,1-.2,2.48,2.48,0,0,1,1,.18,1.55,1.55,0,0,1,.66.51,1.48,1.48,0,0,1,.29.77h-1A.82.82,0,0,0,282.6,97.29Z"/><path class="cls-4" d="M285.86,101.26a2.23,2.23,0,0,1-.84-.93,3,3,0,0,1-.29-1.37,3,3,0,0,1,.29-1.38,2.23,2.23,0,0,1,.84-.93,2.33,2.33,0,0,1,1.25-.33,2.36,2.36,0,0,1,1.25.33,2.28,2.28,0,0,1,.83.93,3.18,3.18,0,0,1,.29,1.38,3.1,3.1,0,0,1-.29,1.37,2.28,2.28,0,0,1-.83.93,2.36,2.36,0,0,1-1.25.33A2.33,2.33,0,0,1,285.86,101.26Zm2-.75a1.38,1.38,0,0,0,.46-.64,2.67,2.67,0,0,0,.15-.91,2.59,2.59,0,0,0-.15-.91,1.41,1.41,0,0,0-.46-.65,1.16,1.16,0,0,0-.75-.24,1.21,1.21,0,0,0-.76.24,1.43,1.43,0,0,0-.46.65,2.59,2.59,0,0,0-.16.91,2.67,2.67,0,0,0,.16.91,1.45,1.45,0,0,0,.46.64,1.21,1.21,0,0,0,.76.24A1.16,1.16,0,0,0,287.86,100.51Z"/><path class="cls-4" d="M290.47,96.39h1v.81h.05a1.33,1.33,0,0,1,.29-.47,1.1,1.1,0,0,1,.45-.31,1.46,1.46,0,0,1,.55-.11,2.81,2.81,0,0,1,.43,0v1l-.23,0-.29,0a1.26,1.26,0,0,0-.62.15,1.09,1.09,0,0,0-.44.41,1.16,1.16,0,0,0-.16.59v3.1h-1Z"/><path class="cls-4" d="M248,145.86a1.53,1.53,0,0,0-.62-.47,2.08,2.08,0,0,0-.8-.16,1.89,1.89,0,0,0-1.05.3,2,2,0,0,0-.73.87,3.79,3.79,0,0,0,0,2.76,2,2,0,0,0,.73.87,1.85,1.85,0,0,0,1.05.3,2.11,2.11,0,0,0,.8-.16,1.76,1.76,0,0,0,.62-.46,1.7,1.7,0,0,0,.33-.72h1a2.82,2.82,0,0,1-.49,1.18,2.58,2.58,0,0,1-1,.81,3.1,3.1,0,0,1-1.34.29,2.9,2.9,0,0,1-1.58-.43,2.84,2.84,0,0,1-1.08-1.21,4.1,4.1,0,0,1-.39-1.85,4.18,4.18,0,0,1,.39-1.86,2.85,2.85,0,0,1,1.09-1.21,3,3,0,0,1,1.57-.42,3.18,3.18,0,0,1,1.32.27,2.63,2.63,0,0,1,1,.8,2.81,2.81,0,0,1,.51,1.24h-1A1.57,1.57,0,0,0,248,145.86Z"/><path class="cls-4" d="M251.35,151a2.18,2.18,0,0,1-.83-.92,3.32,3.32,0,0,1,0-2.76,2.15,2.15,0,0,1,.83-.93,2.6,2.6,0,0,1,2.5,0,2.15,2.15,0,0,1,.83.93,3.32,3.32,0,0,1,0,2.76,2.18,2.18,0,0,1-.83.92,2.53,2.53,0,0,1-2.5,0Zm2-.75a1.53,1.53,0,0,0,.46-.64,2.63,2.63,0,0,0,.15-.91,2.59,2.59,0,0,0-.15-.91,1.57,1.57,0,0,0-.46-.65,1.2,1.2,0,0,0-.75-.24,1.17,1.17,0,0,0-.76.24,1.44,1.44,0,0,0-.47.65,2.59,2.59,0,0,0-.15.91,2.63,2.63,0,0,0,.15.91,1.47,1.47,0,0,0,.47.64,1.17,1.17,0,0,0,.76.24A1.2,1.2,0,0,0,253.36,150.2Z"/><path class="cls-4" d="M256,146.08h1v.83H257a1.37,1.37,0,0,1,.52-.66,1.55,1.55,0,0,1,.87-.23,1.64,1.64,0,0,1,.6.1,1.21,1.21,0,0,1,.46.31,1.59,1.59,0,0,1,.31.48h.05a1.45,1.45,0,0,1,.34-.47,1.57,1.57,0,0,1,.53-.32,2,2,0,0,1,.66-.1,1.66,1.66,0,0,1,.82.19,1.39,1.39,0,0,1,.56.59,2.13,2.13,0,0,1,.19,1v3.41h-1v-3.31a1,1,0,0,0-.26-.74,1,1,0,0,0-.69-.24,1.09,1.09,0,0,0-.55.13.89.89,0,0,0-.35.37,1.2,1.2,0,0,0-.12.55v3.24h-1V147.8a1,1,0,0,0-.12-.49.85.85,0,0,0-.33-.32,1.06,1.06,0,0,0-.48-.11,1,1,0,0,0-.52.15,1,1,0,0,0-.38.41,1.27,1.27,0,0,0-.14.6v3.13h-1Z"/><path class="cls-4" d="M264.12,146.08h1v.83h.06a1.37,1.37,0,0,1,.52-.66,1.55,1.55,0,0,1,.87-.23,1.64,1.64,0,0,1,.6.1,1.21,1.21,0,0,1,.46.31,1.59,1.59,0,0,1,.31.48H268a1.45,1.45,0,0,1,.34-.47,1.57,1.57,0,0,1,.53-.32,2,2,0,0,1,.66-.1,1.66,1.66,0,0,1,.82.19,1.33,1.33,0,0,1,.56.59,2.13,2.13,0,0,1,.19,1v3.41h-1v-3.31a1,1,0,0,0-.26-.74,1,1,0,0,0-.69-.24,1.09,1.09,0,0,0-.55.13.89.89,0,0,0-.35.37,1.2,1.2,0,0,0-.12.55v3.24h-1V147.8a1,1,0,0,0-.12-.49.79.79,0,0,0-.33-.32,1.06,1.06,0,0,0-.48-.11,1,1,0,0,0-.52.15,1,1,0,0,0-.38.41,1.27,1.27,0,0,0-.14.6v3.13h-1Z"/><path class="cls-4" d="M275.5,146.08h1v5.09h-1v-.88h-.06a1.55,1.55,0,0,1-.84.83,1.87,1.87,0,0,1-.68.12,1.66,1.66,0,0,1-.87-.22,1.5,1.5,0,0,1-.59-.65,2.4,2.4,0,0,1-.21-1.05v-3.24h1v3.12a1.26,1.26,0,0,0,.13.6,1,1,0,0,0,.9.53,1.26,1.26,0,0,0,.57-.14,1.1,1.1,0,0,0,.45-.43,1.3,1.3,0,0,0,.18-.7Z"/><path class="cls-4" d="M278.72,151.17h-1v-5.09h1v.83h.06a1.43,1.43,0,0,1,.33-.47,1.53,1.53,0,0,1,.5-.32,2,2,0,0,1,.67-.1,1.92,1.92,0,0,1,.92.21,1.48,1.48,0,0,1,.6.66,2.21,2.21,0,0,1,.22,1.05v3.23h-1v-3.11a1.47,1.47,0,0,0-.13-.63.93.93,0,0,0-.37-.41,1.18,1.18,0,0,0-.58-.14,1.2,1.2,0,0,0-.61.15,1.05,1.05,0,0,0-.42.44,1.45,1.45,0,0,0-.15.68Z"/><path class="cls-4" d="M283.38,145.22a.8.8,0,0,1-.23-.22.52.52,0,0,1-.09-.29.53.53,0,0,1,.09-.3.6.6,0,0,1,.23-.22.69.69,0,0,1,.32-.08.68.68,0,0,1,.31.08.54.54,0,0,1,.23.22.52.52,0,0,1,.08.3.51.51,0,0,1-.08.29.69.69,0,0,1-.23.22.68.68,0,0,1-.31.08A.69.69,0,0,1,283.38,145.22Zm-.19.86h1v5.09h-1Z"/><path class="cls-4" d="M287.79,146.88H285v-.8h2.78Zm-1-2v4.82a.82.82,0,0,0,.09.42.45.45,0,0,0,.21.2.75.75,0,0,0,.31.06l.5,0v.86a3.87,3.87,0,0,1-.62,0,1.78,1.78,0,0,1-.74-.15,1.22,1.22,0,0,1-.54-.46,1.28,1.28,0,0,1-.21-.75v-5Z"/><path class="cls-4" d="M288.85,153.06v-.83h.44a1,1,0,0,0,.32,0,.46.46,0,0,0,.25-.18,1.19,1.19,0,0,0,.24-.44l.13-.34-1.87-5.16h1.07l1.28,3.95h.06l1.29-3.95h1.07l-2.1,5.77a1.94,1.94,0,0,1-.63.92,1.61,1.61,0,0,1-1,.31A4,4,0,0,1,288.85,153.06Z"/><path class="cls-4" d="M232.18,156.63A5.79,5.79,0,0,1,233,155h.78a4.27,4.27,0,0,0-.51,1,7.69,7.69,0,0,0-.36,1.28,7.07,7.07,0,0,0,0,2.7,7.69,7.69,0,0,0,.36,1.28,3.87,3.87,0,0,0,.51,1H233a5.66,5.66,0,0,1-.82-1.65,6.86,6.86,0,0,1,0-3.88Z"/><path class="cls-4" d="M234.2,161l2.07-5.77h1l2.07,5.77h-.93l-1.63-4.71h0L235.13,161Zm4.08-2.26v.74h-3v-.74Z"/><path class="cls-4" d="M240.23,155.9a.58.58,0,0,1-.2-.18.45.45,0,0,1-.07-.25.46.46,0,0,1,.07-.26.49.49,0,0,1,.2-.18.59.59,0,0,1,.26-.07.6.6,0,0,1,.27.07.41.41,0,0,1,.19.18.47.47,0,0,1,.08.26.46.46,0,0,1-.08.25.47.47,0,0,1-.19.18.5.5,0,0,1-.27.07A.48.48,0,0,1,240.23,155.9Zm-.17.74h.85V161h-.85Z"/><path class="cls-4" d="M242,156.64h.82v.69h0a1.06,1.06,0,0,1,.24-.41,1.22,1.22,0,0,1,.38-.26,1.27,1.27,0,0,1,.47-.09l.37,0v.81l-.2,0-.24,0a1.08,1.08,0,0,0-.54.13.84.84,0,0,0-.36.34,1,1,0,0,0-.14.51V161H242Z"/><path class="cls-4" d="M245.46,160.78a1.78,1.78,0,0,1-.64-.78,2.78,2.78,0,0,1-.24-1.19,2.72,2.72,0,0,1,.24-1.19,1.68,1.68,0,0,1,1.58-1,1.48,1.48,0,0,1,.59.11,1.11,1.11,0,0,1,.38.26,2,2,0,0,1,.24.33l0,0,0,0h0v-2.15h.85V161h-.83v-.67h-.06l0,0a1.76,1.76,0,0,1-.25.34,1.11,1.11,0,0,1-.38.26,1.4,1.4,0,0,1-.6.12A1.64,1.64,0,0,1,245.46,160.78Zm1.73-.65a1.14,1.14,0,0,0,.39-.53,2.2,2.2,0,0,0,.13-.8,2.11,2.11,0,0,0-.13-.79,1.09,1.09,0,0,0-.38-.52,1.08,1.08,0,0,0-1.24,0,1.07,1.07,0,0,0-.38.52,2.41,2.41,0,0,0,0,1.56,1.22,1.22,0,0,0,.39.54.92.92,0,0,0,.61.2A1,1,0,0,0,247.19,160.13Z"/><path class="cls-4" d="M249.65,156.64h.82v.69h0a1.38,1.38,0,0,1,.24-.41,1.16,1.16,0,0,1,.39-.26,1.19,1.19,0,0,1,.47-.09l.36,0v.81l-.2,0-.24,0a1,1,0,0,0-.53.13.87.87,0,0,0-.37.34,1,1,0,0,0-.13.51V161h-.85Z"/><path class="cls-4" d="M253.23,160.77a2,2,0,0,1-.71-.78,2.89,2.89,0,0,1,0-2.35,1.92,1.92,0,0,1,.71-.78,2.17,2.17,0,0,1,2.13,0,1.83,1.83,0,0,1,.7.78,2.89,2.89,0,0,1,0,2.35,1.89,1.89,0,0,1-.7.78,2.17,2.17,0,0,1-2.13,0Zm1.71-.63a1.31,1.31,0,0,0,.39-.55,2.34,2.34,0,0,0,.13-.77,2.41,2.41,0,0,0-.13-.78,1.31,1.31,0,0,0-.39-.55,1.06,1.06,0,0,0-.64-.2,1,1,0,0,0-.65.2,1.31,1.31,0,0,0-.39.55,2.38,2.38,0,0,0,0,1.55,1.31,1.31,0,0,0,.39.55,1.14,1.14,0,0,0,1.29,0Z"/><path class="cls-4" d="M257.15,156.64H258v.7h.08v-.06a2.85,2.85,0,0,1,.25-.33,1.11,1.11,0,0,1,.38-.26,1.48,1.48,0,0,1,.59-.11,1.64,1.64,0,0,1,.93.27,1.66,1.66,0,0,1,.65.77,2.87,2.87,0,0,1,.23,1.19,2.94,2.94,0,0,1-.23,1.19,1.78,1.78,0,0,1-.64.78,1.66,1.66,0,0,1-.93.27,1.41,1.41,0,0,1-.61-.12,1.28,1.28,0,0,1-.38-.27,1.83,1.83,0,0,1-.25-.35H258v2.29h-.85Zm1,3a1.14,1.14,0,0,0,.39.53.94.94,0,0,0,.6.19,1,1,0,0,0,.63-.2,1.13,1.13,0,0,0,.38-.54,2.4,2.4,0,0,0,0-1.56,1.07,1.07,0,0,0-.38-.52,1,1,0,0,0-.63-.2,1,1,0,0,0-.61.19,1.09,1.09,0,0,0-.38.52,2.11,2.11,0,0,0-.13.79A2.2,2.2,0,0,0,258.12,159.6Z"/><path class="cls-4" d="M262.35,162.6h-.68l.43-2.2H263Z"/><path class="cls-4" d="M267.18,155.19l1.83,4.47h.07l1.82-4.47H272V161h-.84V156.8h-.05L269.39,161h-.7L267,156.79H267V161h-.84v-5.77Z"/><path class="cls-4" d="M273.24,155.9a.58.58,0,0,1-.2-.18.45.45,0,0,1-.07-.25.46.46,0,0,1,.07-.26.49.49,0,0,1,.2-.18.6.6,0,0,1,.27-.07.59.59,0,0,1,.26.07.49.49,0,0,1,.2.18.56.56,0,0,1,.07.26.55.55,0,0,1-.07.25.58.58,0,0,1-.2.18.48.48,0,0,1-.26.07A.5.5,0,0,1,273.24,155.9Zm-.17.74h.86V161h-.86Z"/><path class="cls-4" d="M275.81,161H275v-4.32h.82v.7h.05a1.26,1.26,0,0,1,.28-.4,1.12,1.12,0,0,1,.43-.27,1.7,1.7,0,0,1,.57-.09,1.49,1.49,0,0,1,.77.19,1.16,1.16,0,0,1,.52.55,2,2,0,0,1,.18.89V161h-.85v-2.65a1.25,1.25,0,0,0-.11-.53.81.81,0,0,0-.31-.35,1,1,0,0,0-.49-.12,1.08,1.08,0,0,0-.52.13,1,1,0,0,0-.36.37,1.35,1.35,0,0,0-.13.59Z"/><path class="cls-4" d="M279.77,155.9a.55.55,0,0,1-.19-.18.46.46,0,0,1-.08-.25.53.53,0,0,1,.27-.44A.68.68,0,0,1,280,155a.64.64,0,0,1,.27.07.47.47,0,0,1,.19.18.46.46,0,0,1,.07.26.45.45,0,0,1-.07.25.55.55,0,0,1-.19.18.52.52,0,0,1-.27.07A.54.54,0,0,1,279.77,155.9Zm-.16.74h.85V161h-.85Z"/><path class="cls-4" d="M282.35,161h-.85v-4.32h.82v.7h.05a1.26,1.26,0,0,1,.28-.4,1.12,1.12,0,0,1,.43-.27,1.6,1.6,0,0,1,.56-.09,1.5,1.5,0,0,1,.78.19,1.21,1.21,0,0,1,.52.55,2,2,0,0,1,.18.89V161h-.85v-2.65a1.25,1.25,0,0,0-.11-.53.78.78,0,0,0-.32-.35.94.94,0,0,0-.49-.12,1.11,1.11,0,0,0-.52.13,1,1,0,0,0-.35.37,1.22,1.22,0,0,0-.13.59Z"/><path class="cls-4" d="M287,162.52a1.41,1.41,0,0,1-.65-.45,1.12,1.12,0,0,1-.28-.69h.86a.66.66,0,0,0,.18.34.81.81,0,0,0,.35.2,1.57,1.57,0,0,0,.51.07,1.26,1.26,0,0,0,.81-.24.89.89,0,0,0,.29-.73v-.85H289v0a1.76,1.76,0,0,1-.25.34,1.26,1.26,0,0,1-.38.26,1.58,1.58,0,0,1-.61.11,1.68,1.68,0,0,1-1.58-1,2.58,2.58,0,0,1-.23-1.16,2.61,2.61,0,0,1,.23-1.16,1.71,1.71,0,0,1,.65-.75,1.66,1.66,0,0,1,.94-.26,1.46,1.46,0,0,1,.58.11,1.25,1.25,0,0,1,.38.25,1.76,1.76,0,0,1,.25.34l0,.06h.06v-.7h.83v4.41a1.63,1.63,0,0,1-.25.91,1.55,1.55,0,0,1-.69.54,2.68,2.68,0,0,1-1,.17A2.76,2.76,0,0,1,287,162.52Zm1.56-2.5a1,1,0,0,0,.38-.49,1.91,1.91,0,0,0,.14-.76A2.26,2.26,0,0,0,289,158a1.13,1.13,0,0,0-.39-.51,1,1,0,0,0-.61-.19,1,1,0,0,0-.62.19,1.19,1.19,0,0,0-.39.53,2,2,0,0,0-.13.75,1.9,1.9,0,0,0,.13.75,1.15,1.15,0,0,0,.39.5,1.14,1.14,0,0,0,1.23,0Z"/><path class="cls-4" d="M292.31,160.51a6.06,6.06,0,0,1-.82,1.65h-.78a3.87,3.87,0,0,0,.5-1,7.69,7.69,0,0,0,.36-1.28,7.07,7.07,0,0,0,0-2.7,7.69,7.69,0,0,0-.36-1.28,3.87,3.87,0,0,0-.5-1h.78a6.06,6.06,0,0,1,.82,1.65,7.1,7.1,0,0,1,0,3.88Z"/><line class="cls-3" x1="137.34" y1="13.75" x2="294.35" y2="13.75"/><line class="cls-3" x1="183.93" y1="46.2" x2="294.35" y2="46.2"/><path class="cls-4" d="M213.21,2.93a1.19,1.19,0,0,0-.49-.34,2.08,2.08,0,0,0-.69-.11,1.81,1.81,0,0,0-.72.13,1,1,0,0,0-.47.36.85.85,0,0,0-.17.51.72.72,0,0,0,.35.66,2.74,2.74,0,0,0,.88.37l.66.17a4.54,4.54,0,0,1,1,.35,2,2,0,0,1,.71.6,1.59,1.59,0,0,1,.29,1,1.81,1.81,0,0,1-.3,1,2,2,0,0,1-.87.71,3.25,3.25,0,0,1-1.35.25,3.29,3.29,0,0,1-1.31-.24,1.93,1.93,0,0,1-1.23-1.75h1a1,1,0,0,0,.24.6,1.3,1.3,0,0,0,.53.37,2.17,2.17,0,0,0,.74.12,2.11,2.11,0,0,0,.77-.14,1.14,1.14,0,0,0,.53-.39.88.88,0,0,0,.2-.57.72.72,0,0,0-.17-.48,1.19,1.19,0,0,0-.43-.31,4.54,4.54,0,0,0-.69-.24l-.8-.21a3,3,0,0,1-1.31-.67,1.49,1.49,0,0,1-.46-1.13,1.67,1.67,0,0,1,.32-1,2.13,2.13,0,0,1,.86-.69,3,3,0,0,1,1.23-.24,3,3,0,0,1,1.22.24,2,2,0,0,1,.84.67,1.72,1.72,0,0,1,.31,1h-1A1.09,1.09,0,0,0,213.21,2.93Z"/><path class="cls-4" d="M217.93,4.18h-2.79v-.8h2.79Zm-1-2V7a1,1,0,0,0,.08.42.49.49,0,0,0,.22.21.91.91,0,0,0,.31.05l.5,0v.86a3.8,3.8,0,0,1-.62,0,1.71,1.71,0,0,1-.75-.16,1.31,1.31,0,0,1-.54-.45,1.4,1.4,0,0,1-.2-.75v-5Z"/><path class="cls-4" d="M218.91,3.38h1v.81h.06a1.18,1.18,0,0,1,.28-.47,1.25,1.25,0,0,1,.45-.31,1.51,1.51,0,0,1,.56-.11l.43,0v1l-.24,0-.29,0a1.26,1.26,0,0,0-.62.15,1,1,0,0,0-.43.41,1.07,1.07,0,0,0-.16.59v3.1h-1Z"/><path class="cls-4" d="M224.84,6.2l-.69,0a1.54,1.54,0,0,0-.79.23.66.66,0,0,0-.28.56.69.69,0,0,0,.13.41.74.74,0,0,0,.34.25,1.28,1.28,0,0,0,.5.08,1.41,1.41,0,0,0,.69-.16,1.12,1.12,0,0,0,.61-1V5a1,1,0,0,0-.12-.5.81.81,0,0,0-.35-.31,1.61,1.61,0,0,0-.57-.1,1.5,1.5,0,0,0-.5.08,1,1,0,0,0-.36.23.77.77,0,0,0-.19.34h-1a1.55,1.55,0,0,1,.32-.76,1.75,1.75,0,0,1,.72-.51,2.62,2.62,0,0,1,1-.19,2.92,2.92,0,0,1,.93.15A1.51,1.51,0,0,1,226,4a1.67,1.67,0,0,1,.31,1.08V8.47h-1v-.7h0a1.27,1.27,0,0,1-.3.4,1.62,1.62,0,0,1-.5.3,2.2,2.2,0,0,1-.71.11A2.05,2.05,0,0,1,223,8.4a1.46,1.46,0,0,1-.62-.53A1.51,1.51,0,0,1,222.1,7a1.21,1.21,0,0,1,.54-1.12,2.88,2.88,0,0,1,1.37-.4l.54,0,.59,0h.26l0,.73Z"/><path class="cls-4" d="M229.94,4.18h-2.79v-.8h2.79Zm-1-2V7a1,1,0,0,0,.08.42.53.53,0,0,0,.21.21,1,1,0,0,0,.32.05l.5,0v.86a3.89,3.89,0,0,1-.62,0,1.65,1.65,0,0,1-.75-.16,1.22,1.22,0,0,1-.74-1.2v-5Z"/><path class="cls-4" d="M231.77,8.25a2.06,2.06,0,0,1-.84-.91,3,3,0,0,1-.3-1.38,3,3,0,0,1,.3-1.38,2.28,2.28,0,0,1,.82-.94A2.32,2.32,0,0,1,233,3.31a2.35,2.35,0,0,1,1.12.27,2,2,0,0,1,.83.84,3,3,0,0,1,.31,1.45v.36h-4.06V5.48h3.08a1.6,1.6,0,0,0-.16-.7,1.13,1.13,0,0,0-.45-.47,1.21,1.21,0,0,0-.66-.18,1.34,1.34,0,0,0-.72.2,1.36,1.36,0,0,0-.48.53,1.58,1.58,0,0,0-.17.71v.58a1.88,1.88,0,0,0,.18.86,1.27,1.27,0,0,0,.5.55,1.45,1.45,0,0,0,.76.19,1.53,1.53,0,0,0,.49-.07,1.31,1.31,0,0,0,.37-.2,1,1,0,0,0,.24-.29h1a1.59,1.59,0,0,1-.4.73,1.79,1.79,0,0,1-.73.48,2.64,2.64,0,0,1-1,.17A2.42,2.42,0,0,1,231.77,8.25Z"/><path class="cls-4" d="M237.25,10.31a1.8,1.8,0,0,1-.77-.53,1.53,1.53,0,0,1-.32-.82h1a.71.71,0,0,0,.21.4.88.88,0,0,0,.41.24,1.79,1.79,0,0,0,.59.08,1.46,1.46,0,0,0,1-.28,1,1,0,0,0,.34-.86v-1h-.07v0a2,2,0,0,1-.29.39,1.23,1.23,0,0,1-.46.3,1.67,1.67,0,0,1-.71.13,2,2,0,0,1-1.09-.29,2,2,0,0,1-.77-.87A3.14,3.14,0,0,1,236,5.87a3.19,3.19,0,0,1,.27-1.37,2.1,2.1,0,0,1,.77-.89,2,2,0,0,1,1.1-.3,1.56,1.56,0,0,1,1.14.43,3,3,0,0,1,.29.39l0,.07h.07V3.38h1v5.2a1.79,1.79,0,0,1-.3,1.06,1.68,1.68,0,0,1-.81.64,3.12,3.12,0,0,1-1.19.21A3.27,3.27,0,0,1,237.25,10.31Zm1.84-2.94a1.25,1.25,0,0,0,.45-.58,2.23,2.23,0,0,0,.16-.9,2.55,2.55,0,0,0-.15-.91,1.33,1.33,0,0,0-.45-.6,1.26,1.26,0,0,0-.73-.22,1.2,1.2,0,0,0-.73.23,1.34,1.34,0,0,0-.45.61,2.28,2.28,0,0,0-.16.89,2.34,2.34,0,0,0,.16.88,1.28,1.28,0,0,0,.45.59,1.26,1.26,0,0,0,.73.21A1.29,1.29,0,0,0,239.09,7.37Z"/><path class="cls-4" d="M242.09,2.51a.66.66,0,0,1-.23-.21.54.54,0,0,1,0-.6.66.66,0,0,1,.23-.21.59.59,0,0,1,.32-.08.58.58,0,0,1,.31.08.58.58,0,0,1,.23.21.6.6,0,0,1,0,.6.58.58,0,0,1-.23.21.58.58,0,0,1-.31.08A.59.59,0,0,1,242.09,2.51Zm-.19.87h1V8.47h-1Z"/><path class="cls-4" d="M245,8.24a2.15,2.15,0,0,1-.83-.93A3.12,3.12,0,0,1,243.89,6a3,3,0,0,1,.3-1.37,2.23,2.23,0,0,1,.83-.94,2.3,2.3,0,0,1,1.24-.33,2.48,2.48,0,0,1,1,.21,1.92,1.92,0,0,1,.74.61,1.84,1.84,0,0,1,.32.9h-1a1,1,0,0,0-.2-.45,1,1,0,0,0-.37-.32,1.33,1.33,0,0,0-.54-.11,1.21,1.21,0,0,0-.73.22,1.46,1.46,0,0,0-.48.62,2.41,2.41,0,0,0-.17.93,2.53,2.53,0,0,0,.17,1,1.32,1.32,0,0,0,.48.62,1.21,1.21,0,0,0,.73.22,1.19,1.19,0,0,0,.51-.1,1,1,0,0,0,.6-.76h1a1.83,1.83,0,0,1-1,1.49A2.59,2.59,0,0,1,245,8.24Z"/><path class="cls-4" d="M251.74,1.68H256v.89h-3.19V4.63h2.88v.88h-2.88v3h-1Z"/><path class="cls-4" d="M257.22,2.51A.58.58,0,0,1,257,2.3a.54.54,0,0,1,0-.6.58.58,0,0,1,.23-.21.58.58,0,0,1,.31-.08.55.55,0,0,1,.31.08.52.52,0,0,1,.23.21.55.55,0,0,1,0,.6.52.52,0,0,1-.23.21.55.55,0,0,1-.31.08A.58.58,0,0,1,257.22,2.51Zm-.2.87h1V8.47h-1Z"/><path class="cls-4" d="M260.25,8.47h-1V3.38h1v.83h.06a1.58,1.58,0,0,1,.33-.48,1.51,1.51,0,0,1,.5-.31,2,2,0,0,1,.67-.11,1.82,1.82,0,0,1,.92.22,1.46,1.46,0,0,1,.6.65,2.26,2.26,0,0,1,.22,1.05V8.47h-1V5.35a1.54,1.54,0,0,0-.13-.63.9.9,0,0,0-.37-.4,1.09,1.09,0,0,0-.58-.14,1.2,1.2,0,0,0-.61.15,1,1,0,0,0-.42.44,1.42,1.42,0,0,0-.15.68Z"/><path class="cls-4" d="M267.22,6.2l-.69,0a1.54,1.54,0,0,0-.79.23.66.66,0,0,0-.28.56.63.63,0,0,0,.13.41.74.74,0,0,0,.34.25,1.28,1.28,0,0,0,.5.08,1.41,1.41,0,0,0,.69-.16,1.12,1.12,0,0,0,.61-1V5a1,1,0,0,0-.12-.5.81.81,0,0,0-.35-.31,1.61,1.61,0,0,0-.57-.1,1.5,1.5,0,0,0-.5.08.93.93,0,0,0-.36.23.77.77,0,0,0-.19.34h-1A1.47,1.47,0,0,1,265,4a1.75,1.75,0,0,1,.72-.51,2.61,2.61,0,0,1,1-.19,2.94,2.94,0,0,1,.94.15,1.55,1.55,0,0,1,.75.55,1.67,1.67,0,0,1,.31,1.08V8.47h-1v-.7h0a1.27,1.27,0,0,1-.3.4,1.62,1.62,0,0,1-.5.3,2.2,2.2,0,0,1-.71.11,2.13,2.13,0,0,1-.88-.18,1.43,1.43,0,0,1-.61-.53,1.51,1.51,0,0,1-.23-.84A1.21,1.21,0,0,1,265,5.91a2.84,2.84,0,0,1,1.37-.4l.54,0,.59,0h.26v.73Z"/><path class="cls-4" d="M270.94,8.47h-1V3.38h1v.83H271a1.58,1.58,0,0,1,.33-.48,1.41,1.41,0,0,1,.5-.31,2,2,0,0,1,.67-.11,1.84,1.84,0,0,1,.92.22,1.46,1.46,0,0,1,.6.65,2.4,2.4,0,0,1,.21,1.05V8.47h-1V5.35a1.54,1.54,0,0,0-.12-.63.9.9,0,0,0-.37-.4,1.11,1.11,0,0,0-.58-.14,1.2,1.2,0,0,0-.61.15,1,1,0,0,0-.42.44,1.42,1.42,0,0,0-.15.68Z"/><path class="cls-4" d="M276.29,8.24a2.19,2.19,0,0,1-.82-.93A3,3,0,0,1,275.18,6a3.14,3.14,0,0,1,.29-1.37,2.3,2.3,0,0,1,.83-.94,2.36,2.36,0,0,1,1.25-.33,2.43,2.43,0,0,1,1,.21,1.78,1.78,0,0,1,.74.61,1.76,1.76,0,0,1,.33.9h-1a1,1,0,0,0-.2-.45,1.08,1.08,0,0,0-.38-.32,1.27,1.27,0,0,0-.54-.11,1.2,1.2,0,0,0-.72.22,1.38,1.38,0,0,0-.48.62,2.24,2.24,0,0,0-.17.93,2.35,2.35,0,0,0,.17,1,1.32,1.32,0,0,0,.48.62,1.18,1.18,0,0,0,.72.22,1.27,1.27,0,0,0,.52-.1,1,1,0,0,0,.38-.3,1,1,0,0,0,.22-.46h1a1.8,1.8,0,0,1-.32.88,1.75,1.75,0,0,1-.73.61,2.31,2.31,0,0,1-1,.22A2.4,2.4,0,0,1,276.29,8.24Z"/><path class="cls-4" d="M280.8,2.51a.52.52,0,0,1-.23-.21.55.55,0,0,1,0-.6.52.52,0,0,1,.23-.21.64.64,0,0,1,.62,0,.52.52,0,0,1,.23.21.55.55,0,0,1,0,.6.52.52,0,0,1-.23.21.64.64,0,0,1-.62,0Zm-.2.87h1V8.47h-1Z"/><path class="cls-4" d="M283.83,8.47h-1V3.38h1v.83h.06a1.58,1.58,0,0,1,.33-.48,1.41,1.41,0,0,1,.5-.31,2,2,0,0,1,.67-.11,1.82,1.82,0,0,1,.92.22,1.46,1.46,0,0,1,.6.65,2.39,2.39,0,0,1,.22,1.05V8.47h-1V5.35a1.54,1.54,0,0,0-.12-.63.9.9,0,0,0-.37-.4,1.09,1.09,0,0,0-.58-.14,1.2,1.2,0,0,0-.61.15,1,1,0,0,0-.42.44,1.42,1.42,0,0,0-.15.68Z"/><path class="cls-4" d="M289.31,10.31a1.8,1.8,0,0,1-.77-.53,1.39,1.39,0,0,1-.32-.82h1a.76.76,0,0,0,.2.4,1,1,0,0,0,.42.24,1.79,1.79,0,0,0,.59.08,1.46,1.46,0,0,0,1-.28,1.06,1.06,0,0,0,.34-.86v-1h-.07v0a2.47,2.47,0,0,1-.29.39,1.23,1.23,0,0,1-.46.3,1.67,1.67,0,0,1-.71.13,2.06,2.06,0,0,1-1.1-.29,2.09,2.09,0,0,1-.76-.87,3.14,3.14,0,0,1-.28-1.36,3.19,3.19,0,0,1,.28-1.37,2,2,0,0,1,1.87-1.19,1.63,1.63,0,0,1,.69.13,1.41,1.41,0,0,1,.44.3,2.37,2.37,0,0,1,.3.39.43.43,0,0,0,0,.07h.07V3.38h1v5.2a1.79,1.79,0,0,1-.3,1.06,1.68,1.68,0,0,1-.81.64,3.16,3.16,0,0,1-1.19.21A3.27,3.27,0,0,1,289.31,10.31Zm1.84-2.94a1.25,1.25,0,0,0,.45-.58,2.23,2.23,0,0,0,.16-.9,2.55,2.55,0,0,0-.15-.91,1.34,1.34,0,0,0-.46-.6,1.23,1.23,0,0,0-.72-.22,1.18,1.18,0,0,0-.73.23,1.43,1.43,0,0,0-.46.61,2.48,2.48,0,0,0-.15.89,2.16,2.16,0,0,0,.16.88,1.28,1.28,0,0,0,.45.59,1.23,1.23,0,0,0,.73.21A1.29,1.29,0,0,0,291.15,7.37Z"/><path class="cls-4" d="M254.87,40.87h-1V34.08h1Z"/><path class="cls-4" d="M257.17,40.87h-1V35.78h1v.83h.06a2,2,0,0,1,.33-.48,1.45,1.45,0,0,1,.51-.31,2,2,0,0,1,.67-.11,1.78,1.78,0,0,1,.91.22,1.54,1.54,0,0,1,.61.65,2.4,2.4,0,0,1,.21,1.05v3.24h-1V37.75a1.39,1.39,0,0,0-.13-.63.85.85,0,0,0-.37-.4,1,1,0,0,0-.57-.14,1.24,1.24,0,0,0-.62.15,1.12,1.12,0,0,0-.42.44,1.42,1.42,0,0,0-.15.68Z"/><path class="cls-4" d="M264,40.87H262.9l-1.84-5.09h1.07l1.28,3.91h.06l1.28-3.91h1.08Z"/><path class="cls-4" d="M267.37,40.65a2.18,2.18,0,0,1-.84-.91,3.43,3.43,0,0,1,0-2.76,2.3,2.3,0,0,1,.83-.94,2.26,2.26,0,0,1,1.23-.33,2.39,2.39,0,0,1,1.13.27,2,2,0,0,1,.82.84,3,3,0,0,1,.32,1.45v.36H266.8v-.75h3.07a1.47,1.47,0,0,0-.16-.7,1.11,1.11,0,0,0-.44-.47,1.27,1.27,0,0,0-.67-.18,1.31,1.31,0,0,0-.71.2,1.47,1.47,0,0,0-.49.53,1.58,1.58,0,0,0-.17.71v.58a1.88,1.88,0,0,0,.18.86,1.34,1.34,0,0,0,.5.55,1.45,1.45,0,0,0,.76.19,1.49,1.49,0,0,0,.49-.07,1.37,1.37,0,0,0,.38-.2.8.8,0,0,0,.23-.29h1a1.8,1.8,0,0,1-.4.73,1.83,1.83,0,0,1-.74.48,2.57,2.57,0,0,1-1,.17A2.47,2.47,0,0,1,267.37,40.65Z"/><path class="cls-4" d="M274.39,36.68a1.07,1.07,0,0,0-.65-.18,1.28,1.28,0,0,0-.5.09.84.84,0,0,0-.35.24.54.54,0,0,0-.13.35.47.47,0,0,0,.19.39,1.39,1.39,0,0,0,.61.26l.81.19a2.06,2.06,0,0,1,1.05.5,1.18,1.18,0,0,1,.34.88,1.34,1.34,0,0,1-.25.81,1.53,1.53,0,0,1-.72.56,2.69,2.69,0,0,1-1.11.2,2.82,2.82,0,0,1-1.05-.17,1.68,1.68,0,0,1-.7-.51,1.63,1.63,0,0,1-.32-.81h1A.77.77,0,0,0,273,40a1.31,1.31,0,0,0,.71.17,1.62,1.62,0,0,0,.57-.09.75.75,0,0,0,.37-.24.59.59,0,0,0,.13-.36.52.52,0,0,0-.19-.41,1.4,1.4,0,0,0-.6-.26l-.79-.17a2,2,0,0,1-1-.51,1.21,1.21,0,0,1-.36-.89,1.33,1.33,0,0,1,.25-.8,1.58,1.58,0,0,1,.69-.54,2.74,2.74,0,0,1,1-.19,2.45,2.45,0,0,1,1,.18,1.64,1.64,0,0,1,.67.51,1.53,1.53,0,0,1,.29.77h-1A.83.83,0,0,0,274.39,36.68Z"/><path class="cls-4" d="M279.13,36.58h-2.79v-.8h2.79Zm-1-2v4.81a1,1,0,0,0,.08.42.49.49,0,0,0,.22.21.91.91,0,0,0,.31,0l.5,0v.86a3.8,3.8,0,0,1-.62,0,1.86,1.86,0,0,1-.75-.15,1.42,1.42,0,0,1-.54-.46,1.4,1.4,0,0,1-.2-.75v-5Z"/><path class="cls-4" d="M281,40.65a2.23,2.23,0,0,1-.84-.93,3,3,0,0,1-.3-1.37,3.06,3.06,0,0,1,.3-1.39A2.27,2.27,0,0,1,281,36a2.33,2.33,0,0,1,1.25-.33,2.3,2.3,0,0,1,1.24.33,2.27,2.27,0,0,1,.84.92,3.2,3.2,0,0,1,.29,1.39,3.1,3.1,0,0,1-.29,1.37,2.23,2.23,0,0,1-.84.93,2.38,2.38,0,0,1-1.24.32A2.42,2.42,0,0,1,281,40.65Zm2-.75a1.48,1.48,0,0,0,.46-.65,2.81,2.81,0,0,0,0-1.81,1.43,1.43,0,0,0-.46-.65,1.11,1.11,0,0,0-.75-.25,1.21,1.21,0,0,0-.76.24,1.48,1.48,0,0,0-.46.65,2.67,2.67,0,0,0-.16.91,2.59,2.59,0,0,0,.16.91,1.48,1.48,0,0,0,.46.65,1.21,1.21,0,0,0,.76.24A1.16,1.16,0,0,0,283,39.9Z"/><path class="cls-4" d="M285.57,35.78h1v.81h0a1.2,1.2,0,0,1,.29-.47,1.1,1.1,0,0,1,.45-.31,1.46,1.46,0,0,1,.55-.11l.43,0v1l-.24,0-.28,0a1.33,1.33,0,0,0-.63.15,1.06,1.06,0,0,0-.43.41,1.16,1.16,0,0,0-.16.59v3.1h-1Z"/><path class="cls-4" d="M291.6,36.68a1.07,1.07,0,0,0-.65-.18,1.36,1.36,0,0,0-.51.09.87.87,0,0,0-.34.24.54.54,0,0,0-.13.35.47.47,0,0,0,.19.39,1.39,1.39,0,0,0,.61.26l.81.19a2.06,2.06,0,0,1,1.05.5,1.18,1.18,0,0,1,.34.88,1.34,1.34,0,0,1-.25.81,1.64,1.64,0,0,1-.72.56,2.69,2.69,0,0,1-1.11.2,2.82,2.82,0,0,1-1.05-.17,1.68,1.68,0,0,1-.7-.51,1.63,1.63,0,0,1-.32-.81h1a.74.74,0,0,0,.32.52,1.31,1.31,0,0,0,.71.17,1.62,1.62,0,0,0,.57-.09.75.75,0,0,0,.37-.24.59.59,0,0,0,.13-.36.52.52,0,0,0-.19-.41,1.4,1.4,0,0,0-.6-.26l-.79-.17a2,2,0,0,1-1-.51,1.21,1.21,0,0,1-.36-.89,1.33,1.33,0,0,1,.25-.8,1.58,1.58,0,0,1,.69-.54,2.74,2.74,0,0,1,1-.19,2.48,2.48,0,0,1,1,.18,1.64,1.64,0,0,1,.67.51,1.53,1.53,0,0,1,.29.77h-1A.78.78,0,0,0,291.6,36.68Z"/><path class="cls-5" d="M162.71,129.53a61.11,61.11,0,1,1-58.16-79.87V8.43A102.33,102.33,0,1,0,202,142.18Z"/><path class="cls-5" d="M197,66.82,159.75,84.53a61.31,61.31,0,0,1,3,45L202,142.18a102.51,102.51,0,0,0-5-75.36Z"/><path class="cls-5" d="M159.75,84.53,197,66.82a102.76,102.76,0,0,0-32.62-39.09l-24.1,33.45A61.38,61.38,0,0,1,159.75,84.53Z"/><path class="cls-5" d="M104.55,49.66a60.8,60.8,0,0,1,35.71,11.52l24.1-33.45a101.87,101.87,0,0,0-59.81-19.3V49.66Z"/><path class="cls-6" d="M176.54,166a.47.47,0,0,0,.28.08.46.46,0,0,0,.27-.08.48.48,0,0,0,.15-.22.93.93,0,0,0,0-.29v-.29a.94.94,0,0,0,0-.3.36.36,0,0,0-.15-.21.4.4,0,0,0-.27-.09.41.41,0,0,0-.28.09.52.52,0,0,0-.16.22.93.93,0,0,0,0,.29v.29a.93.93,0,0,0,0,.29A.6.6,0,0,0,176.54,166Z"/><path class="cls-6" d="M173,163.85a1.18,1.18,0,0,0-1.57,0,1.86,1.86,0,0,0-.5.89,4.86,4.86,0,0,0-.18,1.42,5.26,5.26,0,0,0,.17,1.42,1.91,1.91,0,0,0,.5.88,1.15,1.15,0,0,0,.79.3,1.13,1.13,0,0,0,.79-.3,1.83,1.83,0,0,0,.5-.88,5.69,5.69,0,0,0,0-2.84A1.86,1.86,0,0,0,173,163.85Z"/><path class="cls-6" d="M159.08,163.85a1.18,1.18,0,0,0-1.57,0,2,2,0,0,0-.5.89,5.69,5.69,0,0,0,0,2.84,1.83,1.83,0,0,0,.5.88,1.18,1.18,0,0,0,1.57,0,1.92,1.92,0,0,0,.51-.88,6,6,0,0,0,0-2.84A2,2,0,0,0,159.08,163.85Z"/><path class="cls-6" d="M167,163.85a1.18,1.18,0,0,0-1.57,0,2,2,0,0,0-.5.89,5.69,5.69,0,0,0,0,2.84,1.83,1.83,0,0,0,.5.88,1.13,1.13,0,0,0,.79.3,1.15,1.15,0,0,0,.79-.3,2,2,0,0,0,.5-.88,6,6,0,0,0,0-2.84A2,2,0,0,0,167,163.85Z"/><path class="cls-6" d="M179.81,167.74a.46.46,0,0,0-.27-.08.47.47,0,0,0-.28.08.6.6,0,0,0-.16.22.94.94,0,0,0,0,.3v.28a.94.94,0,0,0,0,.3.56.56,0,0,0,.16.21.41.41,0,0,0,.28.09.4.4,0,0,0,.27-.09.47.47,0,0,0,.16-.21,1,1,0,0,0,0-.3v-.28a1,1,0,0,0,0-.3A.44.44,0,0,0,179.81,167.74Z"/><path class="cls-6" d="M162.71,129.53a61.11,61.11,0,1,1-58.16-79.87V8.43A102.33,102.33,0,1,0,202,142.18ZM155,163.68l-3,5.87h-1.07l3-5.85v0h-3.5v-.89H155Zm5.45,4.36a2.52,2.52,0,0,1-.85,1.2,2.25,2.25,0,0,1-1.35.41,2.19,2.19,0,0,1-1.33-.41,2.54,2.54,0,0,1-.86-1.2,6,6,0,0,1,0-3.76,2.59,2.59,0,0,1,.86-1.2,2.38,2.38,0,0,1,2.67,0,2.59,2.59,0,0,1,.86,1.2,6,6,0,0,1,0,3.76Zm2.36,1.24a.6.6,0,0,1-.25.25.65.65,0,0,1-.66,0,.6.6,0,0,1-.25-.25.62.62,0,0,1-.08-.33.61.61,0,0,1,.33-.57.65.65,0,0,1,.66,0,.64.64,0,0,1,.25.24.66.66,0,0,1,.09.33A.63.63,0,0,1,162.85,169.28Zm5.59-1.24a2.52,2.52,0,0,1-.85,1.2,2.39,2.39,0,0,1-2.68,0,2.61,2.61,0,0,1-.86-1.2,6.24,6.24,0,0,1,0-3.76,2.66,2.66,0,0,1,.86-1.2,2.39,2.39,0,0,1,2.68,0,2.57,2.57,0,0,1,.85,1.2,6,6,0,0,1,0,3.76Zm5.93,0a2.54,2.54,0,0,1-.86,1.2,2.39,2.39,0,0,1-2.68,0A2.59,2.59,0,0,1,170,168a6,6,0,0,1,0-3.76,2.59,2.59,0,0,1,.86-1.2,2.19,2.19,0,0,1,1.33-.41,2.22,2.22,0,0,1,1.34.41,2.66,2.66,0,0,1,.86,1.2,6,6,0,0,1,0,3.76Zm1.34-2.59v-.29a1.33,1.33,0,0,1,.13-.57,1,1,0,0,1,.39-.4,1,1,0,0,1,.59-.16,1.1,1.1,0,0,1,.59.15,1,1,0,0,1,.37.41,1.2,1.2,0,0,1,.13.57v.29a1.18,1.18,0,0,1-.13.56,1,1,0,0,1-.37.41,1.15,1.15,0,0,1-.59.15,1.11,1.11,0,0,1-.6-.15,1,1,0,0,1-.38-.41A1.18,1.18,0,0,1,175.71,165.45Zm.89,4.1H176l3.72-5.4h.63Zm3.9-.44a1,1,0,0,1-.37.41,1.11,1.11,0,0,1-1.57-.41,1.32,1.32,0,0,1-.12-.57v-.28a1.2,1.2,0,0,1,.13-.57.94.94,0,0,1,.38-.41,1.24,1.24,0,0,1,1.18,0,.94.94,0,0,1,.38.41,1.32,1.32,0,0,1,.12.57v.28A1.2,1.2,0,0,1,180.5,169.11Z"/><path class="cls-4" d="M174.91,110.76h-1V105h0l-1.62,1.06v-1L173.9,104h1Z"/><path class="cls-4" d="M176.64,110l2.35-2.37a8.78,8.78,0,0,0,.66-.72,2.54,2.54,0,0,0,.35-.53,1.3,1.3,0,0,0,.12-.55,1,1,0,0,0-.17-.58,1.12,1.12,0,0,0-.45-.38,1.5,1.5,0,0,0-.64-.13,1.33,1.33,0,0,0-.65.14,1.11,1.11,0,0,0-.44.42,1.34,1.34,0,0,0-.15.64h-1a2.09,2.09,0,0,1,.29-1.09,1.9,1.9,0,0,1,.79-.72,2.74,2.74,0,0,1,2.31,0,1.94,1.94,0,0,1,.78.69,1.88,1.88,0,0,1,.29,1,2.13,2.13,0,0,1-.15.75,3.4,3.4,0,0,1-.5.8,13.5,13.5,0,0,1-1,1.07l-1.38,1.4v0h3.13v.88h-4.57Z"/><path class="cls-4" d="M182.69,110.74a.67.67,0,0,1-.25-.25.72.72,0,0,1,0-.66.64.64,0,0,1,.25-.24.65.65,0,0,1,.66,0,.64.64,0,0,1,.25.24.65.65,0,0,1,0,.66.67.67,0,0,1-.25.25.65.65,0,0,1-.66,0Z"/><path class="cls-4" d="M185.66,110.45a2.59,2.59,0,0,1-.86-1.2,6.24,6.24,0,0,1,0-3.76,2.61,2.61,0,0,1,.86-1.2,2.39,2.39,0,0,1,2.68,0,2.59,2.59,0,0,1,.85,1.2,6,6,0,0,1,0,3.76,2.57,2.57,0,0,1-.85,1.2,2.39,2.39,0,0,1-2.68,0Zm2.12-.78a1.92,1.92,0,0,0,.51-.88,6,6,0,0,0,0-2.84,1.9,1.9,0,0,0-.51-.89,1.18,1.18,0,0,0-1.57,0,1.9,1.9,0,0,0-.5.89,5.69,5.69,0,0,0,0,2.84,1.83,1.83,0,0,0,.5.88,1.13,1.13,0,0,0,.79.3A1.1,1.1,0,0,0,187.78,109.67Z"/><path class="cls-4" d="M191.58,110.45a2.64,2.64,0,0,1-.85-1.2,6,6,0,0,1,0-3.76,2.59,2.59,0,0,1,.85-1.2,2.39,2.39,0,0,1,2.68,0,2.61,2.61,0,0,1,.86,1.2,6.24,6.24,0,0,1,0,3.76,2.59,2.59,0,0,1-.86,1.2,2.39,2.39,0,0,1-2.68,0Zm2.13-.78a1.83,1.83,0,0,0,.5-.88,5.69,5.69,0,0,0,0-2.84,1.81,1.81,0,0,0-.5-.89,1.18,1.18,0,0,0-1.57,0,1.9,1.9,0,0,0-.51.89,6,6,0,0,0,0,2.84,1.91,1.91,0,0,0,.5.88,1.15,1.15,0,0,0,.79.3A1.13,1.13,0,0,0,193.71,109.67Z"/><path class="cls-4" d="M196.59,105.8a1,1,0,0,1,1-.56,1.11,1.11,0,0,1,.6.15,1,1,0,0,1,.37.41,1.2,1.2,0,0,1,.13.57v.29a1.18,1.18,0,0,1-.13.56,1,1,0,0,1-.37.41,1.16,1.16,0,0,1-.6.15,1.1,1.1,0,0,1-.59-.15,1,1,0,0,1-.38-.41,1.18,1.18,0,0,1-.13-.56v-.29A1.33,1.33,0,0,1,196.59,105.8Zm3.85-.44h.63l-3.72,5.4h-.63ZM197.13,107a.6.6,0,0,0,.16.22.46.46,0,0,0,.27.08.47.47,0,0,0,.28-.08A.48.48,0,0,0,198,107a.93.93,0,0,0,0-.29v-.29a.94.94,0,0,0,0-.3.44.44,0,0,0-.43-.3.4.4,0,0,0-.27.09.52.52,0,0,0-.16.22.88.88,0,0,0,0,.29v.29A.93.93,0,0,0,197.13,107Zm2.19,2a.89.89,0,0,1,.38-.41,1.24,1.24,0,0,1,1.18,0,1,1,0,0,1,.38.4,1.39,1.39,0,0,1,.12.57v.29a1.22,1.22,0,0,1-.13.57,1,1,0,0,1-.37.4,1.07,1.07,0,0,1-.59.16,1.05,1.05,0,0,1-.6-.16,1,1,0,0,1-.38-.4,1.32,1.32,0,0,1-.12-.57v-.29A1.18,1.18,0,0,1,199.32,108.9Zm.53,1.14a.45.45,0,0,0,.16.22.41.41,0,0,0,.28.08.4.4,0,0,0,.27-.08.45.45,0,0,0,.16-.22.85.85,0,0,0,0-.29v-.29a.92.92,0,0,0,0-.29.43.43,0,0,0-.43-.3.47.47,0,0,0-.28.08.5.5,0,0,0-.16.22.93.93,0,0,0,0,.29v.29A.84.84,0,0,0,199.85,110Z"/><path class="cls-4" d="M158.35,62.34a2.12,2.12,0,0,1-.89-.68,1.61,1.61,0,0,1-.31-1,1.76,1.76,0,0,1,.18-.79,1.84,1.84,0,0,1,.52-.62,1.54,1.54,0,0,1,.72-.3v0a1.5,1.5,0,0,1-.61-.29,1.39,1.39,0,0,1-.41-.54,1.57,1.57,0,0,1-.15-.68,1.63,1.63,0,0,1,.29-.93,2,2,0,0,1,.81-.65,3,3,0,0,1,2.29,0,1.92,1.92,0,0,1,.8.65,1.63,1.63,0,0,1,.29.93,1.57,1.57,0,0,1-.15.68,1.49,1.49,0,0,1-.41.54,1.4,1.4,0,0,1-.6.29v0a1.63,1.63,0,0,1,.72.3,1.93,1.93,0,0,1,.51.62,1.65,1.65,0,0,1,.19.79,1.62,1.62,0,0,1-.32,1,2.06,2.06,0,0,1-.89.68,3.59,3.59,0,0,1-2.58,0Zm2.06-.75a1.25,1.25,0,0,0,.5-.4,1,1,0,0,0,.18-.59,1.06,1.06,0,0,0-.19-.62,1.28,1.28,0,0,0-.51-.43,1.81,1.81,0,0,0-1.49,0,1.31,1.31,0,0,0-.52.43,1.12,1.12,0,0,0-.18.62,1,1,0,0,0,.17.59,1.25,1.25,0,0,0,.5.4,2.05,2.05,0,0,0,.78.14A2,2,0,0,0,160.41,61.59Zm-.13-3.14a1.16,1.16,0,0,0,.44-.38,1.07,1.07,0,0,0,.15-.56,1,1,0,0,0-.15-.55,1,1,0,0,0-.44-.38,1.42,1.42,0,0,0-.63-.13,1.45,1.45,0,0,0-.65.13,1,1,0,0,0-.43.38.94.94,0,0,0-.16.55,1.08,1.08,0,0,0,.16.56,1,1,0,0,0,.44.38,1.44,1.44,0,0,0,.64.13A1.45,1.45,0,0,0,160.28,58.45Z"/><path class="cls-4" d="M163.34,62.46a.72.72,0,0,1-.25-.24.72.72,0,0,1,0-.66.58.58,0,0,1,.25-.24.65.65,0,0,1,.66,0,.53.53,0,0,1,.25.24.65.65,0,0,1,0,.66.64.64,0,0,1-.25.24.65.65,0,0,1-.66,0Z"/><path class="cls-4" d="M166.31,62.17a2.57,2.57,0,0,1-.86-1.19,5.5,5.5,0,0,1-.29-1.88,5.56,5.56,0,0,1,.29-1.89,2.57,2.57,0,0,1,.86-1.19A2.39,2.39,0,0,1,169,56a2.47,2.47,0,0,1,.85,1.2,5.26,5.26,0,0,1,.3,1.88,5.5,5.5,0,0,1-.29,1.88,2.57,2.57,0,0,1-.86,1.19,2.39,2.39,0,0,1-2.68,0Zm2.13-.77a2,2,0,0,0,.5-.88,5.26,5.26,0,0,0,.17-1.42,5.34,5.34,0,0,0-.17-1.43,2,2,0,0,0-.51-.89,1.18,1.18,0,0,0-1.57,0,2.1,2.1,0,0,0-.5.89,4.93,4.93,0,0,0-.18,1.43,4.86,4.86,0,0,0,.18,1.42,1.83,1.83,0,0,0,.5.88,1.13,1.13,0,0,0,.79.3A1.15,1.15,0,0,0,168.44,61.4Z"/><path class="cls-4" d="M172.23,62.17a2.56,2.56,0,0,1-.85-1.19,5.26,5.26,0,0,1-.3-1.88,5.32,5.32,0,0,1,.3-1.89,2.51,2.51,0,0,1,.86-1.19,2.38,2.38,0,0,1,2.67,0,2.49,2.49,0,0,1,.86,1.2,6,6,0,0,1,0,3.76,2.56,2.56,0,0,1-.85,1.19,2.21,2.21,0,0,1-1.35.41A2.16,2.16,0,0,1,172.23,62.17Zm2.13-.77a1.83,1.83,0,0,0,.5-.88A4.86,4.86,0,0,0,175,59.1a4.93,4.93,0,0,0-.18-1.43,1.91,1.91,0,0,0-.5-.89,1.18,1.18,0,0,0-1.57,0,1.91,1.91,0,0,0-.5.89,4.93,4.93,0,0,0-.18,1.43,5.26,5.26,0,0,0,.17,1.42,1.91,1.91,0,0,0,.5.88,1.15,1.15,0,0,0,.79.3A1.13,1.13,0,0,0,174.36,61.4Z"/><path class="cls-4" d="M177.24,57.53a1,1,0,0,1,.39-.41,1.24,1.24,0,0,1,1.18,0,.92.92,0,0,1,.37.41,1.2,1.2,0,0,1,.13.57v.28a1.2,1.2,0,0,1-.13.57,1,1,0,0,1-.37.41,1.15,1.15,0,0,1-.59.15,1.11,1.11,0,0,1-.6-.15,1.07,1.07,0,0,1-.38-.41,1.33,1.33,0,0,1-.13-.57V58.1A1.33,1.33,0,0,1,177.24,57.53Zm3.85-.45h.63L178,62.49h-.63Zm-3.31,1.6a.49.49,0,0,0,.16.21.41.41,0,0,0,.28.09.4.4,0,0,0,.27-.09.41.41,0,0,0,.15-.21.94.94,0,0,0,.05-.3V58.1a1.36,1.36,0,0,0,0-.3.44.44,0,0,0-.16-.22.46.46,0,0,0-.27-.08.47.47,0,0,0-.28.08.6.6,0,0,0-.16.22.94.94,0,0,0-.05.3v.28A.94.94,0,0,0,177.78,58.68ZM180,60.62a.92.92,0,0,1,.38-.4,1,1,0,0,1,.59-.16,1.1,1.1,0,0,1,.59.15,1,1,0,0,1,.38.41,1.32,1.32,0,0,1,.12.57v.29a1.18,1.18,0,0,1-.13.56,1,1,0,0,1-.37.41,1.13,1.13,0,0,1-.59.15,1.16,1.16,0,0,1-.6-.15A1,1,0,0,1,180,62a1.18,1.18,0,0,1-.13-.56v-.29A1.25,1.25,0,0,1,180,60.62Zm.53,1.15a.6.6,0,0,0,.16.22.47.47,0,0,0,.28.08.46.46,0,0,0,.27-.08.5.5,0,0,0,.16-.22.92.92,0,0,0,0-.29v-.29a.88.88,0,0,0,0-.29.4.4,0,0,0-.15-.22.53.53,0,0,0-.56,0,.52.52,0,0,0-.16.22.88.88,0,0,0,0,.29v.29A.92.92,0,0,0,180.5,61.77Z"/><path class="cls-4" d="M117.9,36.36h-1V30.6h0l-1.62,1.06v-1l1.69-1.11h1Z"/><path class="cls-4" d="M120.66,36a2.51,2.51,0,0,1-.86-1.19,6.07,6.07,0,0,1,0-3.77,2.51,2.51,0,0,1,.86-1.19,2.38,2.38,0,0,1,2.67,0,2.49,2.49,0,0,1,.86,1.2,6,6,0,0,1,0,3.76,2.49,2.49,0,0,1-.85,1.19,2.19,2.19,0,0,1-1.35.41A2.13,2.13,0,0,1,120.66,36Zm2.12-.77a1.92,1.92,0,0,0,.51-.88,6.06,6.06,0,0,0,0-2.85,2,2,0,0,0-.51-.89,1.18,1.18,0,0,0-1.57,0,2,2,0,0,0-.5.89,5.73,5.73,0,0,0,0,2.85,1.83,1.83,0,0,0,.5.88,1.21,1.21,0,0,0,1.57,0Z"/><path class="cls-4" d="M125.64,36.33a.64.64,0,0,1-.25-.24.72.72,0,0,1,0-.66.53.53,0,0,1,.25-.24.65.65,0,0,1,.66,0,.53.53,0,0,1,.25.24.65.65,0,0,1,0,.66.64.64,0,0,1-.25.24.65.65,0,0,1-.66,0Z"/><path class="cls-4" d="M128.61,36a2.57,2.57,0,0,1-.86-1.19,6.27,6.27,0,0,1,0-3.77,2.57,2.57,0,0,1,.86-1.19,2.39,2.39,0,0,1,2.68,0,2.47,2.47,0,0,1,.85,1.2,6,6,0,0,1,0,3.76,2.49,2.49,0,0,1-.85,1.19,2.39,2.39,0,0,1-2.68,0Zm2.13-.77a2,2,0,0,0,.5-.88,6.06,6.06,0,0,0,0-2.85,2,2,0,0,0-.51-.89,1.18,1.18,0,0,0-1.57,0,2.1,2.1,0,0,0-.5.89,5.73,5.73,0,0,0,0,2.85,1.83,1.83,0,0,0,.5.88,1.12,1.12,0,0,0,.79.29A1.14,1.14,0,0,0,130.74,35.27Z"/><path class="cls-4" d="M134.53,36a2.56,2.56,0,0,1-.85-1.19,6.07,6.07,0,0,1,0-3.77,2.51,2.51,0,0,1,.86-1.19,2.13,2.13,0,0,1,1.33-.41,2.16,2.16,0,0,1,1.34.41,2.55,2.55,0,0,1,.86,1.2,6,6,0,0,1,0,3.76,2.51,2.51,0,0,1-.86,1.19,2.39,2.39,0,0,1-2.68,0Zm2.13-.77a1.83,1.83,0,0,0,.5-.88,5.73,5.73,0,0,0,0-2.85,1.91,1.91,0,0,0-.5-.89,1.18,1.18,0,0,0-1.57,0,1.91,1.91,0,0,0-.5.89,4.91,4.91,0,0,0-.18,1.42,5.34,5.34,0,0,0,.17,1.43,1.91,1.91,0,0,0,.5.88,1.14,1.14,0,0,0,.79.29A1.12,1.12,0,0,0,136.66,35.27Z"/><path class="cls-4" d="M139.54,31.4a1,1,0,0,1,.39-.41,1.24,1.24,0,0,1,1.18,0,.92.92,0,0,1,.37.41,1.2,1.2,0,0,1,.13.57v.28a1.2,1.2,0,0,1-.13.57,1,1,0,0,1-.37.4,1.07,1.07,0,0,1-.59.16,1,1,0,0,1-.6-.16,1,1,0,0,1-.38-.4,1.2,1.2,0,0,1-.13-.57V32A1.33,1.33,0,0,1,139.54,31.4Zm3.85-.45H144l-3.72,5.41h-.63Zm-3.31,1.6a.49.49,0,0,0,.16.21.41.41,0,0,0,.28.09.4.4,0,0,0,.27-.09.41.41,0,0,0,.15-.21.94.94,0,0,0,.05-.3V32a.94.94,0,0,0-.05-.3.37.37,0,0,0-.15-.22.46.46,0,0,0-.27-.08.47.47,0,0,0-.28.08.6.6,0,0,0-.16.22.94.94,0,0,0-.05.3v.28A.94.94,0,0,0,140.08,32.55Zm2.19,1.94a.94.94,0,0,1,.38-.41,1.24,1.24,0,0,1,1.18,0,1,1,0,0,1,.38.41,1.32,1.32,0,0,1,.12.57v.29a1.18,1.18,0,0,1-.13.56,1,1,0,0,1-.37.41,1.26,1.26,0,0,1-1.19,0,1.07,1.07,0,0,1-.38-.41,1.31,1.31,0,0,1-.12-.56v-.29A1.25,1.25,0,0,1,142.27,34.49Zm.53,1.15a.6.6,0,0,0,.16.22.47.47,0,0,0,.28.08.46.46,0,0,0,.27-.08.5.5,0,0,0,.16-.22.92.92,0,0,0,0-.29v-.29a1,1,0,0,0,0-.3.37.37,0,0,0-.16-.21.4.4,0,0,0-.27-.09.41.41,0,0,0-.28.09.52.52,0,0,0-.16.22.88.88,0,0,0-.05.29v.29A.93.93,0,0,0,142.8,35.64Z"/></svg>