<svg xmlns="http://www.w3.org/2000/svg" xmlns:xlink="http://www.w3.org/1999/xlink" width="196" height="196" viewBox="0 0 196 196">
  <defs>
    <style>
      .cls-1 {
        fill: none;
      }

      .cls-2 {
        fill: #f2f2f2;
      }

      .cls-3 {
        clip-path: url(#clip-path);
      }

      .cls-4 {
        fill: #002656;
      }

      .cls-5 {
        fill: #082133;
      }

      .cls-6 {
        fill: #1e1f1e;
      }
    </style>
    <clipPath id="clip-path">
      <path id="패스_483" data-name="패스 483" class="cls-1" d="M409.554,182.192l-22.76-22.761a1.573,1.573,0,0,0-2.22,0l-8.647,8.6a1.571,1.571,0,0,0,0,2.226l.158.158a15.14,15.14,0,0,0-9.094,2,15.106,15.106,0,0,0-9.109-2.006l.156-.156a1.571,1.571,0,0,0,0-2.224l-8.575-8.573a1.571,1.571,0,0,0-2.223,0l-22.76,22.758a1.571,1.571,0,0,0,0,2.223l8.577,8.574a1.572,1.572,0,0,0,2.223,0l.058-.058c-.034,4.254,1.462,8.7,4.112,11.348l3.511,3.51a5.757,5.757,0,0,0-.62,2.365,5.214,5.214,0,0,0,5.259,5.48h0c.087,0,.173-.009.26-.014a5.2,5.2,0,0,0,5.251,5.525,5.585,5.585,0,0,0,.949-.088,5.187,5.187,0,0,0,5.244,4.938h0a5.656,5.656,0,0,0,1.625-.244,5.183,5.183,0,0,0,1.458,2.937,5.237,5.237,0,0,0,3.737,1.526h0a5.915,5.915,0,0,0,4.143-1.747l2.475-2.476c.052-.052.1-.107.146-.161a5.716,5.716,0,0,0,1.875.332,5.206,5.206,0,0,0,5.262-5.476V220.7a5.21,5.21,0,0,0,5.542-5.783,5.215,5.215,0,0,0,5.251-5.481,5.7,5.7,0,0,0-.191-1.238l3.891-3.892c2.651-2.652,4.147-7.1,4.112-11.352l.061.062a1.572,1.572,0,0,0,2.22,0l8.646-8.6a1.573,1.573,0,0,0,0-2.226Zm-75.391,7.484-6.352-6.35,20.537-20.535,6.351,6.35-18.144,18.144-.013.013Zm11.919,22.233a2.13,2.13,0,0,1-.6-1.611,2.731,2.731,0,0,1,.824-1.821l3.463-3.466a2.743,2.743,0,0,1,1.915-.823,2.119,2.119,0,0,1,1.515.6,2.443,2.443,0,0,1-.218,3.43l-3.466,3.466a2.747,2.747,0,0,1-1.917.824A2.12,2.12,0,0,1,346.081,211.909Zm5.51,5.51a2.448,2.448,0,0,1,.218-3.435l5.329-5.327a2.749,2.749,0,0,1,1.918-.824,2.124,2.124,0,0,1,1.515.6,2.447,2.447,0,0,1-.219,3.435l-5.331,5.329A2.518,2.518,0,0,1,351.591,217.419Zm6.2,4.852a2.449,2.449,0,0,1,.221-3.435l5.076-5.075a2.749,2.749,0,0,1,1.918-.822,2.123,2.123,0,0,1,1.518.605,2.456,2.456,0,0,1,.778,1.57,1.956,1.956,0,0,1-.647,1.5l-5.431,5.43A2.52,2.52,0,0,1,357.786,222.271Zm10.252,4a2.753,2.753,0,0,1-1.92.825,2.114,2.114,0,0,1-1.513-.6,2.444,2.444,0,0,1,.223-3.431l2.83-2.832a1.981,1.981,0,0,1,1.412-.649,2.41,2.41,0,0,1,1.664.782,2.447,2.447,0,0,1-.22,3.434Zm8.236-3.826a2.182,2.182,0,0,1-1.915.561,5.334,5.334,0,0,0-1.4-4.867,5.755,5.755,0,0,0-2.717-1.559,4.85,4.85,0,0,0,.2-1.625,5.228,5.228,0,0,0-.628-2.191l6.247,6.247a2.739,2.739,0,0,1,.822,1.824A2.126,2.126,0,0,1,376.274,222.442Zm10.792-11.279a2.072,2.072,0,0,1-1.608.6,2.736,2.736,0,0,1-1.823-.822l-12.251-12.252a1.573,1.573,0,0,0-2.224,0l-.074.074a1.571,1.571,0,0,0,0,2.223l12.536,12.538a2.291,2.291,0,1,1-3.215,3.213L365.873,204.2a1.572,1.572,0,0,0-2.224,0l-.087.088a1.571,1.571,0,0,0,0,2.223l3.849,3.849a5.293,5.293,0,0,0-3.1-.52,5.188,5.188,0,0,0-5.253-5.154,5.729,5.729,0,0,0-2.244.466,5.167,5.167,0,0,0-1.395-2.587,5.244,5.244,0,0,0-3.737-1.524,5.91,5.91,0,0,0-4.138,1.743l-2.581,2.583-3.292-3.292c-2.861-2.861-4.015-8.672-2.605-12.856l14.413-14.414a13.154,13.154,0,0,1,10.818-.254l-10.47,10.468a6.733,6.733,0,0,0,0,9.525,6.781,6.781,0,0,0,4.773,2h.059a6.652,6.652,0,0,0,4.741-1.951l5.157-5.155,18.295,18.294a2.739,2.739,0,0,1,.823,1.822A2.123,2.123,0,0,1,387.066,211.163Zm5.223-9.085-3.323,3.324-18.189-18.188.4-.4a1.572,1.572,0,0,0-2.223-2.224l-1.513,1.513h0l-6.269,6.266a3.6,3.6,0,0,1-2.55,1.03,3.657,3.657,0,0,1-2.576-1.077,3.588,3.588,0,0,1,0-5.077l10.705-10.7c3.309-3.312,8.925-4.007,13.73-1.73l14.405,14.4C396.3,193.4,395.151,199.216,392.288,202.079Zm7.511-12.4-2.384-2.383-.033-.034-18.121-18.119,6.417-6.381L406.216,183.3Z" transform="translate(-324.014 -158.971)"/>
    </clipPath>
  </defs>
  <g id="그룹_228" data-name="그룹 228" transform="translate(-1346 -3802)">
    <circle id="타원_44" data-name="타원 44" class="cls-2" cx="98" cy="98" r="98" transform="translate(1346 3802)"/>
    <g id="그룹_206" data-name="그룹 206" transform="translate(1076.986 3705.029)">
      <g id="그룹_204" data-name="그룹 204" transform="translate(324.014 158.971)">
        <g id="그룹_203" data-name="그룹 203" class="cls-3">
          <g id="그룹_202" data-name="그룹 202" transform="translate(15.785 -13.156)">
            <path id="패스_481" data-name="패스 481" class="cls-4" d="M442.9,172.425l-36.546-36.546-18.508,18.508,2.89,2.89-3.291,3.291-.515-.516-1.873,2.425s-1,.681-1.334.945-1.358,1.2-1.358,1.2L366.02,180.966l9.571,9.571,13.253-13.267,18.189,18.189s.817,1.048,1.027,1.4.635,1.395.635,1.395c.251.551,1.129,1.562.976,2.091,1.57,2.13,6.669,4.42,6.669,4.42l21.113-21.113-2.89-2.89Z" transform="translate(-357.874 -135.879)"/>
            <path id="패스_482" data-name="패스 482" class="cls-4" d="M387.795,248.278l-6.065-7.013-16.092-16.048-13.918,13.918L362.884,250.3l-.776.776,14.708,13.47,7.988-10.185a8.5,8.5,0,0,0,1.477-2.851c.022-.728,2.273-1.823,2.273-1.823l-1.083-1.083Z" transform="translate(-351.721 -174.32)"/>
          </g>
        </g>
      </g>
      <g id="그룹_205" data-name="그룹 205" transform="translate(324.042 158.971)">
        <path id="패스_484" data-name="패스 484" class="cls-5" d="M344.737,205.507a5.989,5.989,0,0,0-.665.565l.885-.839-3.284-3.284c-2.853-2.854-4-8.65-2.6-12.825l14.378-14.378a13.118,13.118,0,0,1,10.791-.253s1.014-.922,1.355-1.193,1.33-.942,1.33-.942a15.062,15.062,0,0,0-9.087-2L358,170.2a1.568,1.568,0,0,0,0-2.218l-8.554-8.553a1.569,1.569,0,0,0-2.218,0l-22.7,22.7a1.568,1.568,0,0,0,0,2.218l8.555,8.553a1.568,1.568,0,0,0,2.218,0l.058-.058c-.033,4.244,1.459,8.676,4.1,11.321l3.334,3.333Zm-8.178-18.3-2.373,2.373-6.337-6.334,20.486-20.485,6.336,6.334-18.1,18.1Z" transform="translate(-324.063 -158.971)"/>
        <path id="패스_485" data-name="패스 485" class="cls-6" d="M394.765,186.275h0l.009-.009Z" transform="translate(-354.584 -170.713)"/>
        <path id="패스_486" data-name="패스 486" class="cls-5" d="M419.49,228.034c-.208-.35-1.005-1.375-1.022-1.4L400.327,208.5h0l-.007-.007-2.211,2.226c.017-.016.035-.03.052-.047l-.052.047,18.249,18.25a2.732,2.732,0,0,1,.821,1.817,2.119,2.119,0,0,1-.6,1.6,2.068,2.068,0,0,1-1.6.6,2.73,2.73,0,0,1-1.818-.82l-12.22-12.222a1.567,1.567,0,0,0-2.218,0l-.074.073a1.568,1.568,0,0,0,0,2.218l12.506,12.506a2.286,2.286,0,1,1-3.208,3.206l-12.505-12.505a1.568,1.568,0,0,0-2.218,0l-.088.087a1.569,1.569,0,0,0,0,2.218l3.84,3.84-.011-.005,2.4,2.4,6.232,6.232a2.733,2.733,0,0,1,.819,1.819,2.122,2.122,0,0,1-.6,1.607,2.178,2.178,0,0,1-1.91.56h0a8.474,8.474,0,0,1-1.473,2.843,5.685,5.685,0,0,0,1.87.331,5.193,5.193,0,0,0,5.249-5.462V241.9a5.2,5.2,0,0,0,5.529-5.769,5.2,5.2,0,0,0,5.238-5.468,5.718,5.718,0,0,0-.191-1.235S419.693,228.376,419.49,228.034Z" transform="translate(-353.68 -180.172)"/>
      </g>
    </g>
  </g>
</svg>
