<svg xmlns="http://www.w3.org/2000/svg" width="196" height="196" viewBox="0 0 196 196">
  <defs>
    <style>
      .cls-1 {
        fill: #f2f2f2;
      }

      .cls-2 {
        fill: #082133;
      }

      .cls-3 {
        fill: #00275c;
      }
    </style>
  </defs>
  <g id="그룹_227" data-name="그룹 227" transform="translate(-1104 -3802)">
    <circle id="타원_43" data-name="타원 43" class="cls-1" cx="98" cy="98" r="98" transform="translate(1104 3802)"/>
    <g id="그룹_201" data-name="그룹 201" transform="translate(1003.966 3706.822)">
      <g id="그룹_192" data-name="그룹 192" transform="translate(181.425 150.178)">
        <g id="그룹_191" data-name="그룹 191">
          <g id="그룹_190" data-name="그룹 190">
            <path id="패스_478" data-name="패스 478" class="cls-2" d="M207.418,182.892a16.357,16.357,0,1,1,16.357-16.357A16.376,16.376,0,0,1,207.418,182.892Zm0-30.131a13.774,13.774,0,1,0,13.774,13.774A13.789,13.789,0,0,0,207.418,152.761Z" transform="translate(-191.061 -150.178)"/>
          </g>
        </g>
      </g>
      <g id="그룹_195" data-name="그룹 195" transform="translate(166.034 181.001)">
        <g id="그룹_194" data-name="그룹 194">
          <g id="그룹_193" data-name="그룹 193">
            <path id="패스_479" data-name="패스 479" class="cls-2" d="M227.645,240.585H167.92a1.291,1.291,0,0,1-1.269-1.052,35.366,35.366,0,0,1-.617-6.558,34.485,34.485,0,0,1,7.177-21.129A31.631,31.631,0,0,1,191.2,200.33a1.291,1.291,0,0,1,1.3.464l5.288,6.736,5.286-6.736a1.291,1.291,0,0,1,1.3-.464,31.633,31.633,0,0,1,17.989,11.517,34.492,34.492,0,0,1,7.175,21.129,35.351,35.351,0,0,1-.614,6.558A1.292,1.292,0,0,1,227.645,240.585ZM169.007,238h57.55a32.836,32.836,0,0,0,.388-5.027c0-14.2-9.354-26.653-22.355-29.938l-5.792,7.381a1.292,1.292,0,0,1-2.032,0l-5.793-7.381c-13,3.285-22.357,15.74-22.357,29.938A32.741,32.741,0,0,0,169.007,238Z" transform="translate(-166.034 -200.299)"/>
          </g>
        </g>
      </g>
      <g id="그룹_200" data-name="그룹 200" transform="translate(166.894 223.631)">
        <g id="그룹_197" data-name="그룹 197" transform="translate(1.291 1.292)">
          <g id="그룹_196" data-name="그룹 196">
            <rect id="사각형_155" data-name="사각형 155" class="cls-3" width="59.194" height="9.964"/>
          </g>
        </g>
        <g id="그룹_199" data-name="그룹 199" transform="translate(0)">
          <g id="그룹_198" data-name="그룹 198">
            <path id="패스_480" data-name="패스 480" class="cls-3" d="M229.209,282.166H167.432V269.619h61.777Zm-59.194-2.583h56.611V272.2H170.015Z" transform="translate(-167.432 -269.619)"/>
          </g>
        </g>
      </g>
    </g>
  </g>
</svg>
