<svg xmlns="http://www.w3.org/2000/svg" width="196" height="196" viewBox="0 0 196 196">
  <defs>
    <style>
      .cls-1 {
        fill: #f2f2f2;
      }

      .cls-2 {
        fill: #082133;
      }

      .cls-3 {
        fill: #002765;
      }
    </style>
  </defs>
  <g id="그룹_189" data-name="그룹 189" transform="translate(-627 -3889)">
    <circle id="타원_15" data-name="타원 15" class="cls-1" cx="98" cy="98" r="98" transform="translate(627 3889)"/>
    <g id="그룹_46" data-name="그룹 46" transform="translate(682 3947)">
      <path id="패스_76" data-name="패스 76" class="cls-2" d="M435.213,712.781a20.344,20.344,0,0,1-5.149-.479,83.214,83.214,0,0,0-13.282-2.28c-.911,0-4.814,1.378-7.909,2.655a1.353,1.353,0,0,1-1.273-.129,1.367,1.367,0,0,1-.6-1.133v-27.27a1.363,1.363,0,0,1,1.3-1.364c1.77-.076,6.709-.711,8.293-2.7.754-.946,2.019-2.231,3.484-3.72,3.254-3.307,7.71-7.837,10.04-12.128,4.521-8.324,5.765-12.787,5.486-13.644a2.288,2.288,0,0,1,2.128-3.49,6.452,6.452,0,0,1,4.069,1.885c3.248,2.9,3.4,12.311.286,17.98-1.838,3.35-2.456,6.547-1.573,8.142a2.788,2.788,0,0,0,2.527,1.256c.642.035,1.341.061,2.073.091,5.021.195,10.711.417,12.857,2.953a3.636,3.636,0,0,1,.837,2.865,6.547,6.547,0,0,1-2.284,3.912c-.147.144-.327.32-.461.465a6.977,6.977,0,0,1,2.493,4.654,4.924,4.924,0,0,1-1.239,3.667c-.308.351-.621.67-.919.973-.749.762-1.2,1.249-1.114,1.561.805,2.989.549,4.123-1.192,5.281a4.866,4.866,0,0,0-1.3,1.144,1.284,1.284,0,0,0-.287,1.421,5.1,5.1,0,0,1-1.242,4.73C449.555,712.282,437.382,712.781,435.213,712.781Zm-18.432-5.489a83.3,83.3,0,0,1,14.029,2.386,18.592,18.592,0,0,0,4.4.373c6.024,0,12.855-1.07,13.977-1.738a2.387,2.387,0,0,0,.657-2.408,3.938,3.938,0,0,1,.811-3.664,7.535,7.535,0,0,1,1.932-1.733,3.23,3.23,0,0,0,.413-.3,5.7,5.7,0,0,0-.345-1.99c-.5-1.848.724-3.093,1.8-4.191.265-.269.545-.553.819-.863a2.218,2.218,0,0,0,.564-1.671,4.327,4.327,0,0,0-1.594-2.807,2.659,2.659,0,0,1-1.051-1.927,3.508,3.508,0,0,1,1.43-2.531,4.056,4.056,0,0,0,1.48-2.291.893.893,0,0,0-.211-.761c-1.372-1.622-7.1-1.845-10.89-1.993-.745-.029-1.456-.057-2.111-.092a5.353,5.353,0,0,1-4.76-2.656c-1.367-2.471-.78-6.5,1.57-10.786,2.773-5.051,2.194-12.919.287-14.621a5.176,5.176,0,0,0-1.763-1.1c.538,2.375-1.384,7.621-5.727,15.617-2.514,4.628-7.126,9.316-10.493,12.739-1.412,1.434-2.631,2.674-3.3,3.508-2.051,2.576-6.682,3.377-9,3.621V709.4C412.021,708.5,415.393,707.292,416.782,707.292Z" transform="translate(-372.837 -637.61)"/>
      <path id="패스_77" data-name="패스 77" class="cls-2" d="M404.768,729.353h-7.613a1.36,1.36,0,0,1-1.359-1.359v-32.3a1.359,1.359,0,0,1,1.359-1.359h7.613a1.359,1.359,0,0,1,1.359,1.359v32.3A1.36,1.36,0,0,1,404.768,729.353Zm-6.253-2.718h4.894V697.05h-4.894Z" transform="translate(-369.446 -652.461)"/>
      <path id="패스_78" data-name="패스 78" class="cls-2" d="M384.781,731.006H358.537a1.359,1.359,0,0,1-1.359-1.359V691.083a1.36,1.36,0,0,1,1.359-1.359h26.244a1.36,1.36,0,0,1,1.359,1.359v38.563A1.358,1.358,0,0,1,384.781,731.006ZM359.9,728.287h23.526V692.442H359.9Z" transform="translate(-357.178 -650.985)"/>
      <path id="패스_79" data-name="패스 79" class="cls-2" d="M384.178,704.7a3.8,3.8,0,1,1,3.8-3.8A3.8,3.8,0,0,1,384.178,704.7Zm0-4.877a1.079,1.079,0,1,0,1.079,1.079A1.08,1.08,0,0,0,384.178,699.823Z" transform="translate(-364.551 -653.463)"/>
      <g id="그룹_45" data-name="그룹 45" transform="translate(52.472 0)">
        <rect id="사각형_112" data-name="사각형 112" class="cls-3" width="2.718" height="5.634" transform="translate(12.289)"/>
        <rect id="사각형_113" data-name="사각형 113" class="cls-3" width="5.635" height="2.718" transform="translate(18.353 7.02) rotate(-45)"/>
        <rect id="사각형_114" data-name="사각형 114" class="cls-3" width="5.636" height="2.718" transform="translate(21.661 12.288)"/>
        <rect id="사각형_115" data-name="사각형 115" class="cls-3" width="5.636" height="2.718" transform="translate(0 12.288)"/>
        <rect id="사각형_116" data-name="사각형 116" class="cls-3" width="2.718" height="5.636" transform="matrix(0.707, -0.707, 0.707, 0.707, 3.037, 4.957)"/>
      </g>
    </g>
  </g>
</svg>
