<svg xmlns="http://www.w3.org/2000/svg" width="196" height="196" viewBox="0 0 196 196">
  <defs>
    <style>
      .cls-1 {
        fill: #f2f2f2;
      }

      .cls-2 {
        fill: #082133;
      }

      .cls-3 {
        fill: #002765;
      }
    </style>
  </defs>
  <g id="그룹_226" data-name="그룹 226" transform="translate(-862 -3802)">
    <circle id="타원_14" data-name="타원 14" class="cls-1" cx="98" cy="98" r="98" transform="translate(862 3802)"/>
    <g id="그룹_47" data-name="그룹 47" transform="translate(932 3857)">
      <path id="패스_80" data-name="패스 80" class="cls-2" d="M592.266,688.3a27.905,27.905,0,0,1-9.319-54.084l.87,2.45a25,25,0,1,0,17.832.361l.969-2.413A27.909,27.909,0,0,1,592.266,688.3Z" transform="translate(-564.7 -627.03)"/>
      <path id="패스_81" data-name="패스 81" class="cls-3" d="M613.539,639.891l-8.409-1.456L610,623.174,587.5,642.4l9.307.586-6.157,17.263Z" transform="translate(-572.953 -623.174)"/>
      <path id="패스_82" data-name="패스 82" class="cls-2" d="M602.3,740.929a12.28,12.28,0,0,1-12.264-12.266V711.51h2.6v17.153a9.662,9.662,0,1,0,19.323,0,1.333,1.333,0,0,1,.067-.416V711.51h2.6v17.153a1.323,1.323,0,0,1-.075.439A12.282,12.282,0,0,1,602.3,740.929Z" transform="translate(-573.856 -654.929)"/>
      <path id="패스_83" data-name="패스 83" class="cls-2" d="M586.1,724.394a1.3,1.3,0,0,1-.21-2.586l28.809-4.717a1.3,1.3,0,0,1,.421,2.569l-28.809,4.718A1.4,1.4,0,0,1,586.1,724.394Z" transform="translate(-572.033 -656.66)"/>
      <path id="패스_84" data-name="패스 84" class="cls-2" d="M586.1,730.476a1.3,1.3,0,0,1-.21-2.586l28.809-4.717a1.3,1.3,0,0,1,.421,2.57l-28.809,4.717A1.39,1.39,0,0,1,586.1,730.476Z" transform="translate(-572.033 -658.829)"/>
      <path id="패스_85" data-name="패스 85" class="cls-2" d="M586.1,736.558a1.3,1.3,0,0,1-.21-2.586l28.809-4.718a1.3,1.3,0,0,1,.421,2.57l-28.809,4.718A1.4,1.4,0,0,1,586.1,736.558Z" transform="translate(-572.033 -661.119)"/>
      <path id="패스_86" data-name="패스 86" class="cls-2" d="M586.1,742.64a1.3,1.3,0,0,1-.21-2.586l28.809-4.717a1.3,1.3,0,0,1,.421,2.57l-28.809,4.717A1.382,1.382,0,0,1,586.1,742.64Z" transform="translate(-572.033 -663.242)"/>
      <rect id="사각형_117" data-name="사각형 117" class="cls-2" width="2.603" height="17.821" transform="translate(21.881 41.127)"/>
      <rect id="사각형_118" data-name="사각형 118" class="cls-2" width="2.603" height="17.821" transform="translate(32.65 41.127)"/>
      <rect id="사각형_119" data-name="사각형 119" class="cls-2" width="21.994" height="2.603" transform="translate(17.484 44.086)"/>
      <path id="패스_87" data-name="패스 87" class="cls-2" d="M590.025,691.628a3.75,3.75,0,1,1,3.75-3.75A3.754,3.754,0,0,1,590.025,691.628Zm0-4.9a1.146,1.146,0,1,0,1.147,1.146A1.148,1.148,0,0,0,590.025,686.731Z" transform="translate(-572.403 -644.912)"/>
      <path id="패스_88" data-name="패스 88" class="cls-2" d="M624.23,691.628a3.75,3.75,0,1,1,3.752-3.75A3.754,3.754,0,0,1,624.23,691.628Zm0-4.9a1.146,1.146,0,1,0,1.148,1.146A1.147,1.147,0,0,0,624.23,686.731Z" transform="translate(-584.616 -644.912)"/>
    </g>
  </g>
</svg>
