<svg id="레이어_1" data-name="레이어 1" xmlns="http://www.w3.org/2000/svg" xmlns:xlink="http://www.w3.org/1999/xlink" viewBox="0 0 655.63 808.09"><defs><style>.cls-1,.cls-12,.cls-3,.cls-5,.cls-7,.cls-9{fill:none;}.cls-2,.cls-4{fill:#fff;}.cls-10,.cls-2{opacity:0.2;}.cls-12,.cls-3,.cls-5,.cls-7,.cls-9{stroke:#fff;}.cls-12,.cls-3,.cls-7{stroke-miterlimit:8;}.cls-3{stroke-width:2px;}.cls-5,.cls-9{stroke-miterlimit:10;}.cls-5{stroke-width:1px;}.cls-6{opacity:0.15;}.cls-7{stroke-width:2px;}.cls-8{opacity:0.5;}.cls-9{stroke-width:2px;}.cls-11{clip-path:url(#clip-path);}.cls-12{stroke-width:1.74px;}</style><clipPath id="clip-path"><path class="cls-1" d="M60.66,601.52A102.4,102.4,0,0,0,44.5,626.85m0,0a102.15,102.15,0,1,0,16.16-25.33"/></clipPath></defs><rect class="cls-2" x="2.69" y="56.07" width="270" height="750"/><path class="cls-3" d="M137.69,332.38a102,102,0,1,0,102,102A102,102,0,0,0,137.69,332.38Z"/><path class="cls-4" d="M114,387.14a2.46,2.46,0,0,0-1.11-.78,4.42,4.42,0,0,0-1.61-.27,4.3,4.3,0,0,0-1.64.28,2.44,2.44,0,0,0-1.07.79,1.94,1.94,0,0,0-.37,1.14,1.67,1.67,0,0,0,.79,1.5,6.65,6.65,0,0,0,2.1.85l1.59.39a11.2,11.2,0,0,1,2.53.93,4.77,4.77,0,0,1,1.77,1.56,4.1,4.1,0,0,1,.67,2.39,4.56,4.56,0,0,1-.76,2.62,5,5,0,0,1-2.21,1.77,9.9,9.9,0,0,1-6.87,0,5.09,5.09,0,0,1-2.27-1.79,5.25,5.25,0,0,1-.88-2.84h3a2.59,2.59,0,0,0,.55,1.45,2.89,2.89,0,0,0,1.25.89,4.83,4.83,0,0,0,1.75.3A4.71,4.71,0,0,0,113,398a2.66,2.66,0,0,0,1.2-.86,2.09,2.09,0,0,0,.43-1.27,1.66,1.66,0,0,0-.38-1.07,2.72,2.72,0,0,0-1-.73,10.87,10.87,0,0,0-1.67-.55l-1.93-.5a7.58,7.58,0,0,1-3.35-1.67,3.78,3.78,0,0,1-1.16-2.88,4.4,4.4,0,0,1,.8-2.6,5.4,5.4,0,0,1,2.23-1.77,7.88,7.88,0,0,1,3.18-.62,7.52,7.52,0,0,1,3.16.62,5.09,5.09,0,0,1,2.15,1.73,4.55,4.55,0,0,1,.79,2.54h-2.94A2.38,2.38,0,0,0,114,387.14Z"/><path class="cls-4" d="M119,383.73h3.27l3.07,12.48h.16l3.26-12.48h3L135,396.22h.14l3.08-12.49h3.27l-4.77,16.95h-3l-3.4-11.92h-.13l-3.41,11.92h-3Z"/><path class="cls-4" d="M140.75,400.68l6-16.95h3.75l6,16.95h-3.25l-4.54-13.49h-.13L144,400.68ZM153.06,394v2.45h-8.92V394Z"/><path class="cls-4" d="M158.49,383.73h6.34a7,7,0,0,1,3.26.71,4.81,4.81,0,0,1,2,2,6,6,0,0,1,.69,2.91,5.86,5.86,0,0,1-.7,2.91,4.73,4.73,0,0,1-2.05,2,7,7,0,0,1-3.27.71h-4.21v-2.51h3.81a4,4,0,0,0,1.85-.39,2.5,2.5,0,0,0,1.1-1.08,3.83,3.83,0,0,0,0-3.24,2.46,2.46,0,0,0-1.1-1.06,4,4,0,0,0-1.87-.38h-2.84v14.4h-3Z"/><path class="cls-4" d="M210.74,448.56a1.12,1.12,0,0,0,.32-.82c0-8.31-4.18-15.85-10.91-19.67l-1.46-.83,1-1.35a10,10,0,0,0,2.15-5.89,10.39,10.39,0,1,0-20.77,0,10,10,0,0,0,2.16,5.89l1,1.35-1.45.83a22.42,22.42,0,0,0-10.92,19.65,1.15,1.15,0,0,0,1.14,1.15h26.41a1.28,1.28,0,0,0,.84-.33,1.15,1.15,0,0,0,0-1.63,1.23,1.23,0,0,0-.82-.33H174.27l.21-1.68c1-7.74,5.68-14.13,12-16.29a1.14,1.14,0,0,0,.28-2,8.1,8.1,0,1,1,9.41,0,1.15,1.15,0,0,0,.27,2c7.39,2.53,12.36,10.21,12.36,19.11a1.1,1.1,0,0,0,.33.84A1.17,1.17,0,0,0,210.74,448.56Z"/><path class="cls-4" d="M103.24,448.56a1.17,1.17,0,0,0,.33-.82c0-8.31-4.19-15.85-10.92-19.67l-1.45-.83,1-1.35A10,10,0,0,0,94.33,420a10.39,10.39,0,1,0-20.77,0,10,10,0,0,0,2.15,5.89l1,1.35-1.46.83a22.42,22.42,0,0,0-10.92,19.65,1.16,1.16,0,0,0,1.15,1.15h26.4a1.26,1.26,0,0,0,.84-.33,1.15,1.15,0,0,0,0-1.63,1.23,1.23,0,0,0-.82-.33H66.77L67,444.9c1-7.74,5.68-14.13,12-16.29a1.13,1.13,0,0,0,.76-.92,1.15,1.15,0,0,0-.47-1.1,8.1,8.1,0,1,1,9.4,0,1.15,1.15,0,0,0,.27,2c7.4,2.53,12.36,10.21,12.36,19.11a1.15,1.15,0,0,0,2,.84Z"/><line class="cls-5" x1="113.25" y1="427.56" x2="162.13" y2="427.56"/><polygon class="cls-4" points="113.98 430.05 109.67 427.56 113.98 425.07 113.98 430.05"/><polygon class="cls-4" points="161.4 430.05 165.71 427.56 161.4 425.07 161.4 430.05"/><path class="cls-4" d="M87.06,462.24h3.17a3.4,3.4,0,0,1,1.62.36,2.44,2.44,0,0,1,1,1,3.22,3.22,0,0,1,0,2.92,2.38,2.38,0,0,1-1,1,3.44,3.44,0,0,1-1.63.36H88.1V466.6H90a2,2,0,0,0,.93-.2,1.25,1.25,0,0,0,.55-.54,1.91,1.91,0,0,0,0-1.62,1.23,1.23,0,0,0-.55-.53,2,2,0,0,0-.93-.19H88.58v7.2H87.06Z"/><path class="cls-4" d="M97.38,468l-.81.06a1.64,1.64,0,0,0-.85.27.73.73,0,0,0-.31.63.76.76,0,0,0,.14.46.84.84,0,0,0,.38.28,1.38,1.38,0,0,0,.55.1,1.67,1.67,0,0,0,.79-.18,1.34,1.34,0,0,0,.52-.48,1.22,1.22,0,0,0,.18-.65v-2a1,1,0,0,0-.13-.54.87.87,0,0,0-.39-.34,1.65,1.65,0,0,0-.63-.11,1.62,1.62,0,0,0-.57.09,1,1,0,0,0-.4.26.82.82,0,0,0-.21.4H94.18a1.92,1.92,0,0,1,.39-1,2.31,2.31,0,0,1,.92-.68,3.55,3.55,0,0,1,1.36-.24,3.7,3.7,0,0,1,1.26.21,2,2,0,0,1,1,.69,2.08,2.08,0,0,1,.38,1.29v4.25H98v-.87h0a1.73,1.73,0,0,1-.4.5,1.78,1.78,0,0,1-.62.36,2.48,2.48,0,0,1-.85.14,2.68,2.68,0,0,1-1.09-.22,1.73,1.73,0,0,1-.76-.65,1.87,1.87,0,0,1-.28-1.05,1.58,1.58,0,0,1,.66-1.42,3.53,3.53,0,0,1,1.71-.51l.66,0,.73,0H98v1Z"/><path class="cls-4" d="M100.75,473.07v-1.19h.63a1.35,1.35,0,0,0,.37,0,.59.59,0,0,0,.29-.2,1.55,1.55,0,0,0,.25-.47l.14-.34-2.31-6.49h1.58l1.47,4.81h.06l1.48-4.81h1.59l-2.55,7.13a2.5,2.5,0,0,1-.82,1.2,2.25,2.25,0,0,1-1.41.41A7.59,7.59,0,0,1,100.75,473.07Z"/><path class="cls-4" d="M107.56,463.35a.92.92,0,0,1-.32-.3.7.7,0,0,1-.12-.4.73.73,0,0,1,.12-.41.84.84,0,0,1,.32-.3.88.88,0,0,1,.43-.1.91.91,0,0,1,.43.1.75.75,0,0,1,.31.3.73.73,0,0,1,.12.41.7.7,0,0,1-.12.4.81.81,0,0,1-.31.3.92.92,0,0,1-.43.11A.89.89,0,0,1,107.56,463.35Zm-.32,1h1.49v6.36h-1.49Z"/><path class="cls-4" d="M111.66,470.72h-1.49v-6.36h1.42v1.08h.08a1.72,1.72,0,0,1,.41-.62,1.83,1.83,0,0,1,.64-.4,2.47,2.47,0,0,1,.84-.14,2.25,2.25,0,0,1,1.15.28,1.89,1.89,0,0,1,.76.82,2.86,2.86,0,0,1,.27,1.29v4.05h-1.49V466.9a1.64,1.64,0,0,0-.15-.73,1.09,1.09,0,0,0-.43-.47,1.41,1.41,0,0,0-.67-.16,1.48,1.48,0,0,0-.7.17,1.2,1.2,0,0,0-.47.5,1.6,1.6,0,0,0-.17.78Z"/><path class="cls-4" d="M118.46,473a2.19,2.19,0,0,1-1-.68,1.81,1.81,0,0,1-.41-1h1.49a.88.88,0,0,0,.23.46,1.18,1.18,0,0,0,.48.27,2.26,2.26,0,0,0,.67.09,1.72,1.72,0,0,0,1.1-.32,1.24,1.24,0,0,0,.39-1v-1.2h-.08l0,0a2.06,2.06,0,0,1-.36.5,1.92,1.92,0,0,1-.58.36,2.11,2.11,0,0,1-.87.16,2.43,2.43,0,0,1-2.28-1.43,3.86,3.86,0,0,1-.34-1.71,4,4,0,0,1,.34-1.74,2.56,2.56,0,0,1,.94-1.1,2.49,2.49,0,0,1,1.35-.37,2.17,2.17,0,0,1,.84.15,1.84,1.84,0,0,1,.56.38,3.38,3.38,0,0,1,.38.51.41.41,0,0,0,0,.09h.07v-1.05h1.47v6.46a2.32,2.32,0,0,1-.38,1.34,2.26,2.26,0,0,1-1,.81,4.17,4.17,0,0,1-1.55.26A4.11,4.11,0,0,1,118.46,473Zm2.28-3.78a1.42,1.42,0,0,0,.52-.67,2.69,2.69,0,0,0,.18-1,2.91,2.91,0,0,0-.18-1.06,1.56,1.56,0,0,0-.51-.7,1.4,1.4,0,0,0-.82-.25,1.32,1.32,0,0,0-.82.26,1.54,1.54,0,0,0-.52.71,3,3,0,0,0-.17,1,2.71,2.71,0,0,0,.18,1,1.48,1.48,0,0,0,.51.68,1.37,1.37,0,0,0,.82.24A1.34,1.34,0,0,0,120.74,469.22Z"/><path class="cls-4" d="M129.12,462.24l2.52,6.16h.1l2.53-6.16h1.86v8.48h-1.46v-5.83h-.08l-2.35,5.8h-1.09l-2.36-5.82h-.07v5.85h-1.46v-8.48Z"/><path class="cls-4" d="M137.15,470.72l3-8.48H142l3,8.48h-1.63L141.11,464h-.06l-2.27,6.75Zm6.16-3.32v1.22h-4.47V467.4Z"/><path class="cls-4" d="M148.38,468.93h.09l2.21-6.69h1.67l-3,8.48h-1.88l-3-8.48h1.67Z"/><path class="cls-4" d="M155.84,462.24h6.75v1.29H160v7.19h-1.52v-7.19h-2.62Z"/><path class="cls-4" d="M164,470.43a2.69,2.69,0,0,1-1.06-1.15,3.71,3.71,0,0,1-.38-1.71,3.8,3.8,0,0,1,.38-1.73,2.74,2.74,0,0,1,1.06-1.15,3.37,3.37,0,0,1,3.22,0,2.74,2.74,0,0,1,1.06,1.15,3.8,3.8,0,0,1,.37,1.73,3.71,3.71,0,0,1-.37,1.71,2.69,2.69,0,0,1-1.06,1.15,3.37,3.37,0,0,1-3.22,0Zm2.45-1.05a1.78,1.78,0,0,0,.52-.75,3.45,3.45,0,0,0,0-2.14,1.66,1.66,0,0,0-.52-.75,1.25,1.25,0,0,0-.84-.28,1.27,1.27,0,0,0-.84.28,1.59,1.59,0,0,0-.52.75,3.27,3.27,0,0,0,0,2.14,1.69,1.69,0,0,0,.52.75,1.32,1.32,0,0,0,.84.27A1.3,1.3,0,0,0,166.41,469.38Z"/><path class="cls-4" d="M169.78,462.24h1.49v8.48h-1.49Zm1.36,4.68h.23l2.29-2.56h1.74l-2.81,3.13h-.3l-1.15,1.23Zm.55.9,1-1.05,2.85,4h-1.78Z"/><path class="cls-4" d="M177.2,470.44a2.58,2.58,0,0,1-1.06-1.13,4.11,4.11,0,0,1,0-3.45,2.71,2.71,0,0,1,1.05-1.17,3,3,0,0,1,1.58-.41,3.13,3.13,0,0,1,1.47.35,2.53,2.53,0,0,1,1,1.06,3.75,3.75,0,0,1,.39,1.8V468h-5.21v-1h3.78a1.63,1.63,0,0,0-.19-.77,1.37,1.37,0,0,0-.5-.54,1.56,1.56,0,0,0-.76-.19,1.44,1.44,0,0,0-.8.22,1.4,1.4,0,0,0-.55.58,1.67,1.67,0,0,0-.2.8v.86a2.19,2.19,0,0,0,.2,1,1.4,1.4,0,0,0,.57.61,1.69,1.69,0,0,0,.86.21,1.71,1.71,0,0,0,.57-.08,1.43,1.43,0,0,0,.44-.24,1.1,1.1,0,0,0,.27-.34h1.46a2.27,2.27,0,0,1-.5,1,2.53,2.53,0,0,1-1,.64,3.55,3.55,0,0,1-1.3.22A3.25,3.25,0,0,1,177.2,470.44Z"/><path class="cls-4" d="M184.33,470.72h-1.49v-6.36h1.42v1.08h.08a1.86,1.86,0,0,1,.41-.62,1.83,1.83,0,0,1,.64-.4,2.47,2.47,0,0,1,.84-.14,2.25,2.25,0,0,1,1.15.28,1.89,1.89,0,0,1,.76.82,2.86,2.86,0,0,1,.27,1.29v4.05h-1.49V466.9a1.64,1.64,0,0,0-.15-.73,1.09,1.09,0,0,0-.43-.47,1.37,1.37,0,0,0-.66-.16,1.42,1.42,0,0,0-.7.17,1.22,1.22,0,0,0-.48.5,1.73,1.73,0,0,0-.17.78Z"/><path class="cls-4" d="M84.77,482.33l-.8.06a1.65,1.65,0,0,0-.86.27.75.75,0,0,0-.3.64.67.67,0,0,0,.14.45.75.75,0,0,0,.37.28,1.4,1.4,0,0,0,.56.1,1.61,1.61,0,0,0,.78-.18,1.28,1.28,0,0,0,.52-.48,1.13,1.13,0,0,0,.19-.65v-2a1.13,1.13,0,0,0-.13-.54.87.87,0,0,0-.39-.34,1.69,1.69,0,0,0-.63-.11,1.62,1.62,0,0,0-.57.09,1,1,0,0,0-.41.27.9.9,0,0,0-.21.4H81.58a1.84,1.84,0,0,1,.39-1,2.14,2.14,0,0,1,.92-.67,3.37,3.37,0,0,1,1.36-.25,3.6,3.6,0,0,1,1.25.21,2.12,2.12,0,0,1,1,.7,2,2,0,0,1,.37,1.28v4.25H85.42v-.87h0a1.61,1.61,0,0,1-.4.5,1.88,1.88,0,0,1-.62.36,2.48,2.48,0,0,1-.85.14,2.57,2.57,0,0,1-1.1-.22,1.78,1.78,0,0,1-.76-.65,1.94,1.94,0,0,1-.27-1A1.57,1.57,0,0,1,82,481.9a3.42,3.42,0,0,1,1.7-.52l.67,0,.72,0h.32v1Z"/><path class="cls-4" d="M91.49,480a1.25,1.25,0,0,0-.76-.21,1.43,1.43,0,0,0-.56.1.89.89,0,0,0-.4.27.59.59,0,0,0-.14.38.54.54,0,0,0,.22.44,1.73,1.73,0,0,0,.69.29l1.08.23a2.79,2.79,0,0,1,1.34.62,1.47,1.47,0,0,1,.44,1.1,1.67,1.67,0,0,1-.34,1.05,2.1,2.1,0,0,1-.94.72,4.26,4.26,0,0,1-2.82,0,2.1,2.1,0,0,1-.92-.66,1.93,1.93,0,0,1-.41-1h1.51a.87.87,0,0,0,.37.61,1.58,1.58,0,0,0,.84.2,1.89,1.89,0,0,0,.62-.09,1,1,0,0,0,.42-.27.61.61,0,0,0,.15-.41.53.53,0,0,0-.23-.45,1.72,1.72,0,0,0-.69-.29l-1-.21a2.59,2.59,0,0,1-1.33-.64,1.5,1.5,0,0,1-.45-1.13,1.67,1.67,0,0,1,.31-1,2.09,2.09,0,0,1,.9-.68,3.54,3.54,0,0,1,1.35-.24,3.48,3.48,0,0,1,1.31.23,2.13,2.13,0,0,1,.88.66,2,2,0,0,1,.37,1H91.86A.88.88,0,0,0,91.49,480Z"/><path class="cls-4" d="M100.5,482.33l-.81.06a1.64,1.64,0,0,0-.85.27.76.76,0,0,0-.31.64.73.73,0,0,0,.14.45.78.78,0,0,0,.38.28,1.4,1.4,0,0,0,.56.1,1.66,1.66,0,0,0,.78-.18,1.34,1.34,0,0,0,.52-.48,1.2,1.2,0,0,0,.18-.65v-2a1,1,0,0,0-.13-.54.87.87,0,0,0-.39-.34,1.85,1.85,0,0,0-1.2,0,1,1,0,0,0-.4.27.9.9,0,0,0-.21.4H97.31a1.83,1.83,0,0,1,.38-1,2.2,2.2,0,0,1,.92-.67,3.42,3.42,0,0,1,1.37-.25,3.69,3.69,0,0,1,1.25.21,2,2,0,0,1,1.34,2v4.25h-1.43v-.87h0a1.73,1.73,0,0,1-.39.5,1.93,1.93,0,0,1-.63.36,2.47,2.47,0,0,1-.84.14,2.54,2.54,0,0,1-1.1-.22,1.73,1.73,0,0,1-.76-.65,2,2,0,0,1-.28-1,1.57,1.57,0,0,1,.66-1.42,3.42,3.42,0,0,1,1.71-.52l.67,0,.72,0h.31v1Z"/><path class="cls-4" d="M106.53,476.62h6.74v1.29h-2.61v7.19h-1.52v-7.19h-2.61Z"/><path class="cls-4" d="M113.75,478.74h1.44v1.06h.07a1.7,1.7,0,0,1,.34-.62,1.42,1.42,0,0,1,.55-.39,1.67,1.67,0,0,1,.67-.14,4.58,4.58,0,0,1,.55,0v1.37l-.32-.06-.38,0a1.57,1.57,0,0,0-.73.17,1.36,1.36,0,0,0-.52.49,1.43,1.43,0,0,0-.18.72v3.74h-1.49Z"/><path class="cls-4" d="M121.25,482.33l-.81.06a1.64,1.64,0,0,0-.85.27.76.76,0,0,0-.31.64.73.73,0,0,0,.14.45.78.78,0,0,0,.38.28,1.4,1.4,0,0,0,.56.1,1.66,1.66,0,0,0,.78-.18,1.34,1.34,0,0,0,.52-.48,1.2,1.2,0,0,0,.18-.65v-2a1,1,0,0,0-.13-.54.87.87,0,0,0-.39-.34,1.85,1.85,0,0,0-1.2,0,1,1,0,0,0-.4.27.9.9,0,0,0-.21.4h-1.44a1.83,1.83,0,0,1,.38-1,2.2,2.2,0,0,1,.92-.67,3.42,3.42,0,0,1,1.37-.25,3.69,3.69,0,0,1,1.25.21,2,2,0,0,1,1.34,2v4.25h-1.43v-.87h0a1.73,1.73,0,0,1-.39.5,1.93,1.93,0,0,1-.63.36,2.47,2.47,0,0,1-.84.14,2.54,2.54,0,0,1-1.1-.22,1.73,1.73,0,0,1-.76-.65,2,2,0,0,1-.28-1,1.57,1.57,0,0,1,.66-1.42,3.42,3.42,0,0,1,1.71-.52l.67,0,.72,0h.31v1Z"/><path class="cls-4" d="M126.22,485.1h-1.49v-6.36h1.43v1.08h.08a1.72,1.72,0,0,1,.41-.62,1.88,1.88,0,0,1,.64-.4,2.42,2.42,0,0,1,.84-.14,2.39,2.39,0,0,1,1.15.28,2,2,0,0,1,.76.82,3,3,0,0,1,.26,1.29v4.05h-1.49v-3.82a1.67,1.67,0,0,0-.14-.73,1.09,1.09,0,0,0-.43-.47,1.41,1.41,0,0,0-.67-.16,1.35,1.35,0,0,0-.7.18,1.22,1.22,0,0,0-.48.5,1.7,1.7,0,0,0-.17.78Z"/><path class="cls-4" d="M135,480a1.27,1.27,0,0,0-.76-.21,1.43,1.43,0,0,0-.56.1.89.89,0,0,0-.4.27.54.54,0,0,0-.14.38.56.56,0,0,0,.21.44,1.87,1.87,0,0,0,.69.29l1.08.23a2.79,2.79,0,0,1,1.35.62,1.47,1.47,0,0,1,.44,1.1,1.67,1.67,0,0,1-.34,1.05,2.1,2.1,0,0,1-.94.72,4.26,4.26,0,0,1-2.82,0,2,2,0,0,1-.92-.66,2,2,0,0,1-.42-1h1.51a.91.91,0,0,0,.38.61,1.58,1.58,0,0,0,.84.2,2,2,0,0,0,.62-.09,1,1,0,0,0,.42-.27.61.61,0,0,0,.15-.41.56.56,0,0,0-.23-.45,1.72,1.72,0,0,0-.69-.29l-1-.21a2.55,2.55,0,0,1-1.33-.64,1.46,1.46,0,0,1-.45-1.13,1.67,1.67,0,0,1,.31-1,2,2,0,0,1,.9-.68,3.54,3.54,0,0,1,1.35-.24,3.48,3.48,0,0,1,1.31.23,2.2,2.2,0,0,1,.88.66,2,2,0,0,1,.37,1h-1.42A.84.84,0,0,0,135,480Z"/><path class="cls-4" d="M141.12,482.33l-.81.06a1.64,1.64,0,0,0-.85.27.75.75,0,0,0-.3.64.73.73,0,0,0,.13.45.78.78,0,0,0,.38.28,1.4,1.4,0,0,0,.56.1A1.66,1.66,0,0,0,141,484a1.28,1.28,0,0,0,.52-.48,1.2,1.2,0,0,0,.18-.65v-2a1,1,0,0,0-.14-.54.82.82,0,0,0-.39-.34,1.64,1.64,0,0,0-.62-.11,1.72,1.72,0,0,0-.58.09,1,1,0,0,0-.4.27.9.9,0,0,0-.21.4h-1.44a1.76,1.76,0,0,1,.39-1,2.17,2.17,0,0,1,.91-.67,3.42,3.42,0,0,1,1.37-.25,3.6,3.6,0,0,1,1.25.21,2,2,0,0,1,1.34,2v4.25h-1.43v-.87h0a1.58,1.58,0,0,1-.39.5,2,2,0,0,1-.62.36,2.52,2.52,0,0,1-.85.14,2.57,2.57,0,0,1-1.1-.22,1.73,1.73,0,0,1-.76-.65,1.94,1.94,0,0,1-.27-1,1.57,1.57,0,0,1,.66-1.42,3.42,3.42,0,0,1,1.7-.52l.67,0,.72,0h.31l0,1Z"/><path class="cls-4" d="M145.75,484.81a2.75,2.75,0,0,1-1.05-1.16,3.83,3.83,0,0,1-.37-1.7,3.71,3.71,0,0,1,.38-1.71,2.77,2.77,0,0,1,1-1.17,3.13,3.13,0,0,1,1.61-.41,3.27,3.27,0,0,1,1.36.28,2.36,2.36,0,0,1,1,.8,2.32,2.32,0,0,1,.4,1.2h-1.42a1.33,1.33,0,0,0-.23-.56A1.13,1.13,0,0,0,148,480a1.35,1.35,0,0,0-.62-.14,1.32,1.32,0,0,0-.81.25,1.59,1.59,0,0,0-.55.71,2.85,2.85,0,0,0-.19,1.1A3,3,0,0,0,146,483a1.67,1.67,0,0,0,.54.72,1.42,1.42,0,0,0,.82.25,1.32,1.32,0,0,0,.6-.13,1.17,1.17,0,0,0,.44-.36,1.37,1.37,0,0,0,.24-.58h1.42a2.51,2.51,0,0,1-.39,1.19,2.37,2.37,0,0,1-.94.8,3.44,3.44,0,0,1-3-.12Z"/><path class="cls-4" d="M154.39,479.89h-3.64v-1.15h3.64Zm-1.25-2.67v6a1,1,0,0,0,.09.45.53.53,0,0,0,.24.23.88.88,0,0,0,.35.06,4.51,4.51,0,0,0,.66,0v1.23a5.39,5.39,0,0,1-.85.06,2.54,2.54,0,0,1-1-.2,1.62,1.62,0,0,1-.71-.58,1.75,1.75,0,0,1-.25-1v-6.22Z"/><path class="cls-4" d="M155.86,477.73a.84.84,0,0,1-.32-.3.7.7,0,0,1-.12-.4.73.73,0,0,1,.12-.41.92.92,0,0,1,.32-.3.91.91,0,0,1,.43-.1.88.88,0,0,1,.43.1.84.84,0,0,1,.32.3.81.81,0,0,1,.11.41.79.79,0,0,1-.43.7.89.89,0,0,1-.43.11A.92.92,0,0,1,155.86,477.73Zm-.32,1H157v6.36h-1.49Z"/><path class="cls-4" d="M159.63,484.81a2.69,2.69,0,0,1-1.06-1.15,3.71,3.71,0,0,1-.37-1.71,3.76,3.76,0,0,1,.37-1.72,2.71,2.71,0,0,1,1.06-1.16,3.37,3.37,0,0,1,3.22,0,2.71,2.71,0,0,1,1.06,1.16,3.76,3.76,0,0,1,.37,1.72,3.71,3.71,0,0,1-.37,1.71,2.69,2.69,0,0,1-1.06,1.15,3.37,3.37,0,0,1-3.22,0Zm2.46-1.05a1.76,1.76,0,0,0,.51-.75,3,3,0,0,0,.17-1.07,3,3,0,0,0-.17-1.07,1.64,1.64,0,0,0-.51-.75,1.42,1.42,0,0,0-1.69,0,1.59,1.59,0,0,0-.52.75,3,3,0,0,0-.18,1.07,3,3,0,0,0,.18,1.07,1.69,1.69,0,0,0,.52.75,1.46,1.46,0,0,0,1.69,0Z"/><path class="cls-4" d="M166.94,485.1h-1.49v-6.36h1.42v1.08H167a2,2,0,0,1,.41-.62,2.1,2.1,0,0,1,.64-.4,2.47,2.47,0,0,1,.84-.14,2.36,2.36,0,0,1,1.15.28,1.89,1.89,0,0,1,.76.82,2.86,2.86,0,0,1,.27,1.29v4.05h-1.49v-3.82a1.67,1.67,0,0,0-.15-.73,1.07,1.07,0,0,0-.42-.47,1.41,1.41,0,0,0-.67-.16,1.33,1.33,0,0,0-.7.18,1.22,1.22,0,0,0-.48.5,1.7,1.7,0,0,0-.17.78Z"/><path class="cls-4" d="M175.36,476.62h5.42v1.29h-3.9v2.31h3.53v1.28h-3.53v3.6h-1.52Z"/><path class="cls-4" d="M182.72,484.82a2.54,2.54,0,0,1-1.07-1.13,4.21,4.21,0,0,1,0-3.45,2.77,2.77,0,0,1,1-1.17,3,3,0,0,1,1.58-.41,3.13,3.13,0,0,1,1.47.35,2.52,2.52,0,0,1,1.05,1.07,3.73,3.73,0,0,1,.38,1.79v.46H182v-1h3.77a1.62,1.62,0,0,0-.18-.77,1.33,1.33,0,0,0-.51-.54,1.59,1.59,0,0,0-1.56,0,1.46,1.46,0,0,0-.55.58,1.67,1.67,0,0,0-.2.8v.87a2.15,2.15,0,0,0,.2.95,1.53,1.53,0,0,0,.57.61A1.81,1.81,0,0,0,185,484a1.25,1.25,0,0,0,.44-.24,1.13,1.13,0,0,0,.28-.34h1.45a2.11,2.11,0,0,1-.5,1,2.38,2.38,0,0,1-1,.64,3.64,3.64,0,0,1-1.31.22A3.19,3.19,0,0,1,182.72,484.82Z"/><path class="cls-4" d="M189.52,484.82a2.66,2.66,0,0,1-1.07-1.13,4.21,4.21,0,0,1,0-3.45,2.8,2.8,0,0,1,1.06-1.17,3,3,0,0,1,1.57-.41,3.13,3.13,0,0,1,1.47.35,2.52,2.52,0,0,1,1,1.07,3.73,3.73,0,0,1,.39,1.79v.46h-5.21v-1h3.78a1.75,1.75,0,0,0-.19-.77,1.33,1.33,0,0,0-.51-.54,1.55,1.55,0,0,0-.75-.19,1.58,1.58,0,0,0-.81.22,1.53,1.53,0,0,0-.55.58,1.66,1.66,0,0,0-.19.8v.87a2,2,0,0,0,.2.95,1.4,1.4,0,0,0,.57.61,1.68,1.68,0,0,0,.85.22,1.81,1.81,0,0,0,.58-.09,1.2,1.2,0,0,0,.43-.24,1.13,1.13,0,0,0,.28-.34h1.46a2.13,2.13,0,0,1-.51,1,2.32,2.32,0,0,1-.95.64,3.58,3.58,0,0,1-1.3.22A3.23,3.23,0,0,1,189.52,484.82Z"/><g class="cls-6"><path class="cls-4" d="M230.87,158.85a101.9,101.9,0,0,0-16.15-25.33h0a101.75,101.75,0,1,0,16.15,25.33Z"/></g><path class="cls-7" d="M230.87,158.85a101.9,101.9,0,0,0-16.15-25.33h0a101.75,101.75,0,1,0,16.15,25.33Z"/><path class="cls-4" d="M113.62,177.79l4.15,7.51H118l4.15-7.51h3.45l-6.17,10.61v6.34h-3V188.4l-6.16-10.61Z"/><path class="cls-4" d="M127.89,180a1.78,1.78,0,0,1-.63-.59,1.45,1.45,0,0,1-.24-.81,1.51,1.51,0,0,1,.24-.82,1.7,1.7,0,0,1,.63-.59,1.89,1.89,0,0,1,1.73,0,1.7,1.7,0,0,1,.63.59,1.59,1.59,0,0,1,.23.82,1.53,1.53,0,0,1-.23.81,1.78,1.78,0,0,1-.63.59,1.83,1.83,0,0,1-.86.22A1.81,1.81,0,0,1,127.89,180Zm-.63,2h3v12.71h-3Z"/><path class="cls-4" d="M135.45,194.19a5.34,5.34,0,0,1-2.14-2.27,8.31,8.31,0,0,1,0-6.9,5.55,5.55,0,0,1,2.11-2.33,6,6,0,0,1,3.15-.83,6.23,6.23,0,0,1,2.94.7,5,5,0,0,1,2.1,2.14,7.57,7.57,0,0,1,.77,3.59v.92H134v-2h7.56a3.41,3.41,0,0,0-.37-1.55,2.7,2.7,0,0,0-1-1.07,3.21,3.21,0,0,0-3.12.05,3.06,3.06,0,0,0-1.1,1.16,3.35,3.35,0,0,0-.39,1.6v1.74a4.16,4.16,0,0,0,.4,1.9,2.87,2.87,0,0,0,1.14,1.22,3.29,3.29,0,0,0,1.71.43,3.51,3.51,0,0,0,1.15-.17,2.5,2.5,0,0,0,.87-.47,2.3,2.3,0,0,0,.56-.69h2.91a4.38,4.38,0,0,1-1,1.93,4.89,4.89,0,0,1-1.9,1.27,7.18,7.18,0,0,1-2.61.45A6.54,6.54,0,0,1,135.45,194.19Z"/><path class="cls-4" d="M149.7,194.74h-3v-17h3Z"/><path class="cls-4" d="M154.59,194.19a5.19,5.19,0,0,1-1.86-2.26,8.3,8.3,0,0,1-.68-3.53,8.45,8.45,0,0,1,.68-3.53,5.07,5.07,0,0,1,1.89-2.24,4.85,4.85,0,0,1,2.68-.77,4.32,4.32,0,0,1,1.69.31,3.39,3.39,0,0,1,1.12.76,5.31,5.31,0,0,1,.74,1s0,0,0,.08l.05.08h.11v-6.33h3v17h-2.92v-2h-.17l-.07.12a4.79,4.79,0,0,1-.75,1,3.39,3.39,0,0,1-1.14.76,4.09,4.09,0,0,1-1.68.32A4.86,4.86,0,0,1,154.59,194.19Zm5.15-2.18a3.17,3.17,0,0,0,1-1.45,6,6,0,0,0,.36-2.17,6.21,6.21,0,0,0-.35-2.17,3,3,0,0,0-1-1.41,2.89,2.89,0,0,0-3.28,0,3.14,3.14,0,0,0-1,1.43,6.1,6.1,0,0,0-.35,2.13,5.93,5.93,0,0,0,.36,2.14,3.31,3.31,0,0,0,1,1.46,2.54,2.54,0,0,0,1.64.53A2.66,2.66,0,0,0,159.74,192Z"/><path class="cls-4" d="M94.05,206.56h10.84v2.56h-7.8v4.62h7.06v2.56H97.09v7.21h-3Z"/><path class="cls-4" d="M113.45,218l-1.61.11a3.26,3.26,0,0,0-1.7.54,1.66,1.66,0,0,0-.34,2.19,1.57,1.57,0,0,0,.76.56,2.93,2.93,0,0,0,1.11.2,3.27,3.27,0,0,0,1.56-.36,2.64,2.64,0,0,0,1-1,2.45,2.45,0,0,0,.36-1.3v-4.07a2,2,0,0,0-.27-1.07,1.66,1.66,0,0,0-.78-.67,3,3,0,0,0-1.26-.24,3.32,3.32,0,0,0-1.14.19,2,2,0,0,0-.8.53,1.67,1.67,0,0,0-.42.8h-2.89a3.64,3.64,0,0,1,.78-1.95,4.26,4.26,0,0,1,1.83-1.35,7,7,0,0,1,2.73-.49,7.59,7.59,0,0,1,2.51.41,4.18,4.18,0,0,1,1.92,1.4,4.11,4.11,0,0,1,.76,2.57v8.5h-2.86v-1.75h-.1a3.34,3.34,0,0,1-.79,1,3.75,3.75,0,0,1-1.24.72,5,5,0,0,1-1.7.27,5.15,5.15,0,0,1-2.2-.44,3.36,3.36,0,0,1-1.51-1.3,3.78,3.78,0,0,1-.56-2.08A3.16,3.16,0,0,1,108,217.1a6.91,6.91,0,0,1,3.41-1l1.33-.07,1.44-.08.63,0,0,2C114.53,217.9,114.08,217.92,113.45,218Z"/><path class="cls-4" d="M120.43,210.79h2.88v2.12h.14a3.21,3.21,0,0,1,.69-1.24,2.83,2.83,0,0,1,1.09-.79,3.39,3.39,0,0,1,1.35-.27,7.44,7.44,0,0,1,1.09.08v2.74l-.63-.12a6.91,6.91,0,0,0-.76-.05,3.07,3.07,0,0,0-1.47.35,2.63,2.63,0,0,0-1,1,2.75,2.75,0,0,0-.37,1.43v7.49h-3Z"/><path class="cls-4" d="M129.45,210.79h2.85V213h.15a3.43,3.43,0,0,1,1.32-1.71,3.82,3.82,0,0,1,2.18-.61,4,4,0,0,1,1.54.28,3.19,3.19,0,0,1,1.17.79,3.45,3.45,0,0,1,.72,1.25h.13a3.46,3.46,0,0,1,.84-1.23,3.91,3.91,0,0,1,1.31-.81,4.78,4.78,0,0,1,1.68-.28,4.12,4.12,0,0,1,2.07.5,3.4,3.4,0,0,1,1.4,1.48,5.17,5.17,0,0,1,.5,2.36v8.54h-3v-8.08a2.29,2.29,0,0,0-.6-1.72,2.22,2.22,0,0,0-1.58-.57,2.45,2.45,0,0,0-1.24.3,2,2,0,0,0-.79.85,2.89,2.89,0,0,0-.28,1.27v7.95h-2.92V215.3a2.39,2.39,0,0,0-.26-1.13,1.88,1.88,0,0,0-.76-.77,2.37,2.37,0,0,0-1.12-.26,2.21,2.21,0,0,0-1.18.33,2.32,2.32,0,0,0-.85.93,2.91,2.91,0,0,0-.31,1.37v7.74h-3Z"/><path class="cls-4" d="M150.79,208.76a1.7,1.7,0,0,1-.63-.59,1.42,1.42,0,0,1-.24-.8,1.52,1.52,0,0,1,.24-.83,1.67,1.67,0,0,1,.63-.58,1.79,1.79,0,0,1,1.72,0,1.54,1.54,0,0,1,.63.58,1.52,1.52,0,0,1,.24.83,1.42,1.42,0,0,1-.24.8,1.56,1.56,0,0,1-.63.59,1.79,1.79,0,0,1-1.72,0Zm-.63,2h3v12.72h-3Z"/><path class="cls-4" d="M159,223.51h-3V210.79h2.84V213H159a3.63,3.63,0,0,1,.82-1.24,3.75,3.75,0,0,1,1.28-.8,4.7,4.7,0,0,1,1.68-.28,4.58,4.58,0,0,1,2.3.56,3.84,3.84,0,0,1,1.52,1.64,5.71,5.71,0,0,1,.54,2.58v8.1h-3v-7.64a3.28,3.28,0,0,0-.3-1.46,2.1,2.1,0,0,0-.85-.94,2.71,2.71,0,0,0-1.34-.32,2.8,2.8,0,0,0-1.4.35,2.36,2.36,0,0,0-.95,1,3.32,3.32,0,0,0-.34,1.56Z"/><path class="cls-4" d="M172.6,228.07a4.42,4.42,0,0,1-2-1.35,3.83,3.83,0,0,1-.83-2.08h3a1.73,1.73,0,0,0,.47.92,2.23,2.23,0,0,0,1,.55,4.6,4.6,0,0,0,1.35.18,3.35,3.35,0,0,0,2.19-.65,2.45,2.45,0,0,0,.78-2v-2.42h-.15l0,.06a4.54,4.54,0,0,1-.74,1,3.79,3.79,0,0,1-1.16.73,4.5,4.5,0,0,1-1.73.3,5.05,5.05,0,0,1-2.68-.72,4.88,4.88,0,0,1-1.88-2.14,7.68,7.68,0,0,1-.69-3.41,8.08,8.08,0,0,1,.69-3.49,5,5,0,0,1,1.88-2.19,5,5,0,0,1,2.69-.74,4.13,4.13,0,0,1,1.68.31,3.43,3.43,0,0,1,1.13.75,6.62,6.62,0,0,1,.75,1,1.14,1.14,0,0,0,.1.19h.15v-2.1h2.94v12.92a4.57,4.57,0,0,1-.76,2.67,4.5,4.5,0,0,1-2.1,1.62,8.29,8.29,0,0,1-3.1.54A8.4,8.4,0,0,1,172.6,228.07Zm4.57-7.56a2.9,2.9,0,0,0,1-1.33,5.68,5.68,0,0,0,.35-2.09,5.78,5.78,0,0,0-.35-2.12,3,3,0,0,0-1-1.4,2.69,2.69,0,0,0-1.63-.49,2.66,2.66,0,0,0-1.65.51,3,3,0,0,0-1,1.42,5.81,5.81,0,0,0-.35,2.08,5.33,5.33,0,0,0,.36,2,3,3,0,0,0,1,1.36,3.07,3.07,0,0,0,3.28,0Z"/><g class="cls-8"><line class="cls-9" x1="254.96" y1="206.64" x2="430.5" y2="206.64"/><polygon class="cls-4" points="429.04 211.62 437.67 206.64 429.04 201.65 429.04 211.62"/></g><g class="cls-8"><line class="cls-9" x1="262.13" y1="194.12" x2="437.67" y2="194.12"/><polygon class="cls-4" points="263.59 199.1 254.96 194.12 263.59 189.13 263.59 199.1"/></g><path class="cls-4" d="M296.29,212.67h1.39v8h4.16v1.21h-5.55Z"/><path class="cls-4" d="M303.27,212.67h3.29a3.74,3.74,0,0,1,1.75.38,2.49,2.49,0,0,1,1.07,1.06,3.47,3.47,0,0,1,0,3.08,2.51,2.51,0,0,1-1.07,1.07,3.78,3.78,0,0,1-1.76.38H304.3v-1.19h2.11a2.23,2.23,0,0,0,1.09-.23,1.47,1.47,0,0,0,.63-.63,2.19,2.19,0,0,0,0-1.87,1.45,1.45,0,0,0-.63-.62,2.35,2.35,0,0,0-1.09-.23h-1.74v8h-1.4Z"/><path class="cls-4" d="M313.93,212.67h7.12v1.21h-2.86v8H316.8v-8h-2.87Z"/><path class="cls-4" d="M322.57,221.56a3,3,0,0,1-1.13-1.25,4.55,4.55,0,0,1,0-3.73,3,3,0,0,1,1.13-1.25,3.2,3.2,0,0,1,1.7-.45,3.16,3.16,0,0,1,1.69.45,2.9,2.9,0,0,1,1.12,1.25,4.55,4.55,0,0,1,0,3.73,2.9,2.9,0,0,1-1.12,1.25,3.16,3.16,0,0,1-1.69.45A3.2,3.2,0,0,1,322.57,221.56Zm2.72-1a2,2,0,0,0,.62-.87,3.45,3.45,0,0,0,.21-1.23,3.37,3.37,0,0,0-.21-1.23,2,2,0,0,0-.62-.88,1.76,1.76,0,0,0-2,0,2,2,0,0,0-.63.88,3.74,3.74,0,0,0,0,2.47,2,2,0,0,0,.63.87,1.56,1.56,0,0,0,1,.32A1.59,1.59,0,0,0,325.29,220.55Z"/><path class="cls-4" d="M328.82,212.67h1.36v9.2h-1.36Zm1.24,5.22h.24L333,215h1.62l-3.13,3.33h-.21l-1.24,1.23Zm.66.71.93-.95,3.19,4.22h-1.66Z"/><path class="cls-4" d="M336.66,221.57a2.85,2.85,0,0,1-1.14-1.24,4.06,4.06,0,0,1-.4-1.87,4.1,4.1,0,0,1,.4-1.86,3,3,0,0,1,1.12-1.27,3.09,3.09,0,0,1,1.67-.45,3.32,3.32,0,0,1,1.53.36,2.66,2.66,0,0,1,1.11,1.14,4.11,4.11,0,0,1,.42,2v.48h-5.49v-1H340a2,2,0,0,0-.21-.93,1.6,1.6,0,0,0-.61-.65,1.67,1.67,0,0,0-.89-.23,1.77,1.77,0,0,0-1.63,1,2.09,2.09,0,0,0-.23,1v.79a2.58,2.58,0,0,0,.24,1.16,1.69,1.69,0,0,0,.68.74,1.93,1.93,0,0,0,1,.26,2,2,0,0,0,.66-.1,1.38,1.38,0,0,0,.51-.27,1.34,1.34,0,0,0,.32-.39h1.37a2.29,2.29,0,0,1-.54,1,2.69,2.69,0,0,1-1,.66,3.8,3.8,0,0,1-1.34.23A3.39,3.39,0,0,1,336.66,221.57Z"/><path class="cls-4" d="M344.07,221.87h-1.35V215H344v1.13h.08a2.1,2.1,0,0,1,.45-.65,2,2,0,0,1,.68-.42,2.59,2.59,0,0,1,.91-.15,2.5,2.5,0,0,1,1.24.3,2,2,0,0,1,.81.88,3.08,3.08,0,0,1,.29,1.42v4.39h-1.35v-4.22a2.06,2.06,0,0,0-.17-.86,1.34,1.34,0,0,0-.5-.55,1.74,1.74,0,0,0-1.62,0,1.39,1.39,0,0,0-.56.59,1.94,1.94,0,0,0-.21.93Z"/><path class="cls-4" d="M353.41,212.67h3.28a3.89,3.89,0,0,1,1.76.36,2.41,2.41,0,0,1,1.07,1,3.33,3.33,0,0,1,0,3,2.4,2.4,0,0,1-1.07,1,4,4,0,0,1-1.76.35H354.2v-1.21h2.35a2.68,2.68,0,0,0,1.1-.19,1.29,1.29,0,0,0,.62-.55,1.75,1.75,0,0,0,.2-.89,1.83,1.83,0,0,0-.2-.91,1.28,1.28,0,0,0-.63-.58,2.65,2.65,0,0,0-1.09-.2H354.8v8h-1.39Zm6.82,9.2h-1.59l-2.23-4.15H358Z"/><path class="cls-4" d="M362.45,221.57a3,3,0,0,1-1.14-1.24,4.19,4.19,0,0,1-.4-1.87,4.24,4.24,0,0,1,.4-1.86,3,3,0,0,1,2.79-1.72,3.26,3.26,0,0,1,1.53.36,2.66,2.66,0,0,1,1.11,1.14,4,4,0,0,1,.43,2v.48h-5.5v-1h4.16a2,2,0,0,0-.21-.93,1.51,1.51,0,0,0-.6-.65,1.68,1.68,0,0,0-.9-.23,1.83,1.83,0,0,0-1,.26,1.81,1.81,0,0,0-.65.72,2,2,0,0,0-.24,1v.79a2.58,2.58,0,0,0,.24,1.16,1.69,1.69,0,0,0,.68.74,2,2,0,0,0,1,.26,2,2,0,0,0,.67-.1,1.42,1.42,0,0,0,.5-.27,1.08,1.08,0,0,0,.32-.39h1.38a2.3,2.3,0,0,1-.55,1,2.69,2.69,0,0,1-1,.66,3.8,3.8,0,0,1-1.34.23A3.42,3.42,0,0,1,362.45,221.57Z"/><path class="cls-4" d="M368,215h1.4L370.7,220h.07l1.35-5.06h1.4l1.34,5h.06l1.34-5h1.4l-2,6.9h-1.38l-1.4-5h-.1l-1.39,5H370Z"/><path class="cls-4" d="M382.16,218.79l-.93.07a2.06,2.06,0,0,0-1.07.32.86.86,0,0,0-.37.76.89.89,0,0,0,.16.54,1,1,0,0,0,.46.34,1.79,1.79,0,0,0,.68.12,1.89,1.89,0,0,0,.94-.22,1.47,1.47,0,0,0,.61-.57,1.49,1.49,0,0,0,.21-.77V217.2a1.34,1.34,0,0,0-.16-.66,1,1,0,0,0-.48-.42,1.77,1.77,0,0,0-.77-.14,1.8,1.8,0,0,0-.68.11,1.31,1.31,0,0,0-.48.3,1.12,1.12,0,0,0-.26.46h-1.35a2,2,0,0,1,.43-1,2.4,2.4,0,0,1,1-.7,3.85,3.85,0,0,1,1.41-.25,4.12,4.12,0,0,1,1.27.2,2.25,2.25,0,0,1,1,.74,2.34,2.34,0,0,1,.42,1.47v4.58h-1.32v-1h-.06a1.85,1.85,0,0,1-.4.54,2.35,2.35,0,0,1-.68.4,2.59,2.59,0,0,1-.95.16,2.7,2.7,0,0,1-1.19-.25,1.9,1.9,0,0,1-.84-.72,2,2,0,0,1-.3-1.13,1.65,1.65,0,0,1,.72-1.52,3.85,3.85,0,0,1,1.85-.54l.74-.05.8,0h.35l0,1Z"/><path class="cls-4" d="M385.84,215h1.31v1.1h.07a1.73,1.73,0,0,1,.38-.64,1.85,1.85,0,0,1,.61-.42,2.14,2.14,0,0,1,.76-.14,5.17,5.17,0,0,1,.57,0v1.29l-.31-.05-.39,0a1.81,1.81,0,0,0-.85.2,1.46,1.46,0,0,0-.58.55,1.49,1.49,0,0,0-.22.81v4.2h-1.35Z"/><path class="cls-4" d="M391.43,221.57a2.89,2.89,0,0,1-1-1.24,5.06,5.06,0,0,1,0-3.8,2.85,2.85,0,0,1,1-1.22,2.61,2.61,0,0,1,1.49-.43,2.22,2.22,0,0,1,.94.18,1.63,1.63,0,0,1,.6.41,3.63,3.63,0,0,1,.39.53l0,.05,0,0H395v-3.42h1.36v9.2H395v-1.08h-.11l0,.06a3.55,3.55,0,0,1-.4.55,1.87,1.87,0,0,1-.62.42,2.22,2.22,0,0,1-.94.18A2.61,2.61,0,0,1,391.43,221.57Zm2.76-1a2,2,0,0,0,.62-.86,3.52,3.52,0,0,0,.21-1.27,3.47,3.47,0,0,0-.21-1.26,1.76,1.76,0,0,0-.61-.83,1.79,1.79,0,0,0-2,0,1.91,1.91,0,0,0-.62.84,3.66,3.66,0,0,0-.2,1.24,3.49,3.49,0,0,0,.21,1.25,1.85,1.85,0,0,0,.62.86,1.54,1.54,0,0,0,1,.32A1.58,1.58,0,0,0,394.19,220.55Z"/><path class="cls-4" d="M294.63,178.94h5.71v1.2H296v2.79h3.9v1.19H296v4h-1.39Z"/><path class="cls-4" d="M305.13,185.06l-.93.06a2.09,2.09,0,0,0-1.07.32.87.87,0,0,0-.37.76.92.92,0,0,0,.16.55,1.07,1.07,0,0,0,.46.34,2.06,2.06,0,0,0,.68.11A1.89,1.89,0,0,0,305,187a1.47,1.47,0,0,0,.61-.57,1.49,1.49,0,0,0,.21-.77v-2.18a1.24,1.24,0,0,0-.16-.66,1,1,0,0,0-.47-.42,2.17,2.17,0,0,0-1.45,0,1.29,1.29,0,0,0-.49.31,1,1,0,0,0-.25.45h-1.36a2,2,0,0,1,.43-1,2.31,2.31,0,0,1,1-.7,3.65,3.65,0,0,1,1.41-.26,3.8,3.8,0,0,1,1.27.21,2.11,2.11,0,0,1,1,.74,2.3,2.3,0,0,1,.42,1.46v4.58h-1.32v-.94h-.05a2.22,2.22,0,0,1-.41.53,2,2,0,0,1-.68.4,2.56,2.56,0,0,1-.95.16,2.7,2.7,0,0,1-1.19-.25,2,2,0,0,1-.84-.72,2,2,0,0,1-.3-1.13,1.65,1.65,0,0,1,.72-1.52,3.89,3.89,0,0,1,1.86-.54l.73-.05.8,0h.35l0,1C305.75,185,305.49,185,305.13,185.06Z"/><path class="cls-4" d="M308.81,181.23h1.31v1.1h.07a1.73,1.73,0,0,1,.38-.64,2,2,0,0,1,.61-.42,2.14,2.14,0,0,1,.76-.14,5.35,5.35,0,0,1,.58,0v1.29l-.32,0-.39,0a1.8,1.8,0,0,0-.84.2,1.53,1.53,0,0,0-.81,1.36v4.2h-1.35Z"/><path class="cls-4" d="M313.53,181.23h1.3v1.13h.08a1.87,1.87,0,0,1,.71-.9,2.14,2.14,0,0,1,1.17-.32,2.18,2.18,0,0,1,.82.15,1.64,1.64,0,0,1,.62.41,2,2,0,0,1,.41.66h.08a2,2,0,0,1,.46-.65,2.09,2.09,0,0,1,.71-.42,2.56,2.56,0,0,1,.89-.15,2.24,2.24,0,0,1,1.12.27,1.82,1.82,0,0,1,.75.8,2.81,2.81,0,0,1,.27,1.3v4.62h-1.36v-4.49a1.29,1.29,0,0,0-.36-1,1.32,1.32,0,0,0-.93-.32,1.47,1.47,0,0,0-.74.17,1.26,1.26,0,0,0-.47.5,1.64,1.64,0,0,0-.17.74v4.4h-1.34v-4.58a1.28,1.28,0,0,0-.16-.65,1,1,0,0,0-.44-.43,1.4,1.4,0,0,0-.66-.15,1.32,1.32,0,0,0-.7.19,1.41,1.41,0,0,0-.52.56,1.79,1.79,0,0,0-.19.81v4.25h-1.35Z"/><path class="cls-4" d="M324.82,180.06a.86.86,0,0,1-.31-.29.72.72,0,0,1-.12-.4.75.75,0,0,1,.12-.41.86.86,0,0,1,.31-.29.88.88,0,0,1,.43-.1.84.84,0,0,1,.73.39.75.75,0,0,1,.12.41.72.72,0,0,1-.12.4.86.86,0,0,1-.31.29.78.78,0,0,1-.42.11A.79.79,0,0,1,324.82,180.06Zm-.26,1.17h1.36v6.9h-1.36Z"/><path class="cls-4" d="M328.92,188.13h-1.35v-6.9h1.3v1.13H329a2.1,2.1,0,0,1,.45-.65,2,2,0,0,1,.68-.42,2.59,2.59,0,0,1,.91-.15,2.5,2.5,0,0,1,1.24.3,2.06,2.06,0,0,1,.82.88,3.24,3.24,0,0,1,.29,1.42v4.39H332v-4.22a2.06,2.06,0,0,0-.17-.86,1.34,1.34,0,0,0-.5-.55,1.61,1.61,0,0,0-.78-.18,1.63,1.63,0,0,0-.84.2,1.52,1.52,0,0,0-.56.59,1.94,1.94,0,0,0-.21.93Z"/><path class="cls-4" d="M336.35,190.61a2.33,2.33,0,0,1-1-.71,1.89,1.89,0,0,1-.44-1.1h1.38a1,1,0,0,0,.28.54,1.33,1.33,0,0,0,.56.32,2.46,2.46,0,0,0,.8.11,1.91,1.91,0,0,0,1.29-.38,1.41,1.41,0,0,0,.47-1.16v-1.36h-.09l0,0a2.89,2.89,0,0,1-.39.54,2,2,0,0,1-.62.41,2.37,2.37,0,0,1-1,.18,2.77,2.77,0,0,1-1.48-.41,2.63,2.63,0,0,1-1-1.17,4.16,4.16,0,0,1-.38-1.84,4.26,4.26,0,0,1,.38-1.86,2.68,2.68,0,0,1,2.52-1.61,2.22,2.22,0,0,1,.94.18,1.76,1.76,0,0,1,.6.41,3.23,3.23,0,0,1,.41.53.41.41,0,0,0,.05.09h.09v-1.12H341v7.05a2.54,2.54,0,0,1-.39,1.44,2.43,2.43,0,0,1-1.1.86,4.49,4.49,0,0,1-1.61.28A4.23,4.23,0,0,1,336.35,190.61Zm2.49-4a1.73,1.73,0,0,0,.61-.78,3.16,3.16,0,0,0,.21-1.21,3.3,3.3,0,0,0-.21-1.23,1.71,1.71,0,0,0-.61-.82,1.6,1.6,0,0,0-1-.29,1.64,1.64,0,0,0-1,.3,1.86,1.86,0,0,0-.61.83,3.3,3.3,0,0,0-.21,1.21,3.12,3.12,0,0,0,.21,1.19,1.76,1.76,0,0,0,.62.79,1.83,1.83,0,0,0,2,0Z"/><path class="cls-4" d="M345.92,178.94h1.39v8h4.17v1.2h-5.56Z"/><path class="cls-4" d="M352.9,178.94h3.29a3.62,3.62,0,0,1,1.75.38,2.42,2.42,0,0,1,1.07,1.05,3.5,3.5,0,0,1,0,3.09,2.54,2.54,0,0,1-1.07,1.06,3.63,3.63,0,0,1-1.76.39h-2.25v-1.19h2.12a2.21,2.21,0,0,0,1.08-.24,1.42,1.42,0,0,0,.63-.63,2.19,2.19,0,0,0,0-1.87,1.45,1.45,0,0,0-.63-.62,2.35,2.35,0,0,0-1.09-.23H354.3v8h-1.4Z"/><path class="cls-4" d="M363.56,178.94h7.12v1.2h-2.86v8h-1.39v-8h-2.87Z"/><path class="cls-4" d="M372.2,187.82a3,3,0,0,1-1.13-1.25,4.18,4.18,0,0,1-.4-1.86,4.25,4.25,0,0,1,.4-1.87,3,3,0,0,1,1.13-1.25,3.2,3.2,0,0,1,1.7-.45,3.16,3.16,0,0,1,1.69.45,2.9,2.9,0,0,1,1.12,1.25,4.12,4.12,0,0,1,.4,1.87,4,4,0,0,1-.4,1.86,2.9,2.9,0,0,1-1.12,1.25,3.16,3.16,0,0,1-1.69.45A3.2,3.2,0,0,1,372.2,187.82Zm2.72-1a2,2,0,0,0,.62-.87,3.71,3.71,0,0,0,0-2.46,2,2,0,0,0-.62-.88,1.6,1.6,0,0,0-1-.33,1.56,1.56,0,0,0-1,.33,1.92,1.92,0,0,0-.63.88,3.71,3.71,0,0,0,0,2.46,1.89,1.89,0,0,0,.63.87,1.56,1.56,0,0,0,1,.33A1.6,1.6,0,0,0,374.92,186.81Z"/><path class="cls-4" d="M378.45,178.94h1.36v9.19h-1.36Zm1.24,5.21h.24l2.73-2.92h1.62l-3.13,3.33h-.21l-1.24,1.23Zm.66.71.93-1,3.19,4.22h-1.66Z"/><path class="cls-4" d="M386.29,187.83a2.8,2.8,0,0,1-1.14-1.24,4,4,0,0,1-.4-1.86,4.15,4.15,0,0,1,.4-1.87,3,3,0,0,1,2.79-1.72,3.18,3.18,0,0,1,1.53.37,2.69,2.69,0,0,1,1.11,1.13,4.14,4.14,0,0,1,.42,2v.48h-5.49v-1h4.16a2,2,0,0,0-.21-.93,1.59,1.59,0,0,0-.61-.65,1.86,1.86,0,0,0-1.86,0,1.88,1.88,0,0,0-.66.71,2.13,2.13,0,0,0-.23,1V185a2.58,2.58,0,0,0,.24,1.16,1.77,1.77,0,0,0,.68.75,2,2,0,0,0,1,.25,2.29,2.29,0,0,0,.66-.09,1.76,1.76,0,0,0,.51-.27,1.66,1.66,0,0,0,.32-.39h1.37a2.31,2.31,0,0,1-.54,1,2.69,2.69,0,0,1-1,.66,3.8,3.8,0,0,1-1.34.23A3.39,3.39,0,0,1,386.29,187.83Z"/><path class="cls-4" d="M393.7,188.13h-1.35v-6.9h1.3v1.13h.08a2.1,2.1,0,0,1,.45-.65,2,2,0,0,1,.68-.42,2.59,2.59,0,0,1,.91-.15,2.5,2.5,0,0,1,1.24.3,2.06,2.06,0,0,1,.82.88,3.24,3.24,0,0,1,.28,1.42v4.39h-1.35v-4.22a2.06,2.06,0,0,0-.17-.86,1.34,1.34,0,0,0-.5-.55,1.61,1.61,0,0,0-.78-.18,1.63,1.63,0,0,0-.84.2,1.45,1.45,0,0,0-.56.59,1.94,1.94,0,0,0-.21.93Z"/><g class="cls-8"><line class="cls-9" x1="285.51" y1="440.64" x2="430.5" y2="440.64"/><polygon class="cls-4" points="429.04 445.63 437.67 440.64 429.04 435.65 429.04 445.63"/></g><g class="cls-8"><line class="cls-9" x1="292.69" y1="428.12" x2="437.67" y2="428.12"/><polygon class="cls-4" points="294.15 433.11 285.51 428.12 294.15 423.13 294.15 433.11"/></g><path class="cls-4" d="M313.64,455.82h-1.39v-9.2h1.39Z"/><path class="cls-4" d="M316.76,455.82h-1.35v-6.9h1.3v1.13h.08a2,2,0,0,1,.45-.65,2,2,0,0,1,.68-.42,2.59,2.59,0,0,1,.91-.15,2.5,2.5,0,0,1,1.24.3,2,2,0,0,1,.82.88,3.21,3.21,0,0,1,.29,1.42v4.39h-1.36V451.6a2.06,2.06,0,0,0-.17-.86,1.34,1.34,0,0,0-.5-.55,1.61,1.61,0,0,0-.78-.19,1.64,1.64,0,0,0-.84.21,1.45,1.45,0,0,0-.56.59,1.94,1.94,0,0,0-.21.93Z"/><path class="cls-4" d="M326,450h-3.77v-1.08H326Zm-1.4-2.73v6.52a1.09,1.09,0,0,0,.11.56.56.56,0,0,0,.29.28,1,1,0,0,0,.42.08l.68,0v1.17a5.35,5.35,0,0,1-.84.06,2.37,2.37,0,0,1-1-.21,1.7,1.7,0,0,1-.73-.62,1.74,1.74,0,0,1-.28-1v-6.8Z"/><path class="cls-4" d="M328.52,455.52a3,3,0,0,1-1.14-1.24,4.19,4.19,0,0,1-.4-1.87,4.24,4.24,0,0,1,.4-1.86,3,3,0,0,1,1.12-1.27,3.09,3.09,0,0,1,1.67-.45,3.26,3.26,0,0,1,1.53.36,2.66,2.66,0,0,1,1.11,1.14,4,4,0,0,1,.43,2v.48h-5.5v-1h4.16a2.06,2.06,0,0,0-.21-.94,1.54,1.54,0,0,0-.6-.64,1.68,1.68,0,0,0-.9-.24,1.75,1.75,0,0,0-1,.27,1.81,1.81,0,0,0-.65.72,2,2,0,0,0-.24,1v.79a2.58,2.58,0,0,0,.24,1.16,1.71,1.71,0,0,0,.69.74,1.89,1.89,0,0,0,1,.26,2,2,0,0,0,.66-.1,1.38,1.38,0,0,0,.51-.27,1.08,1.08,0,0,0,.32-.39h1.38a2.3,2.3,0,0,1-.55,1,2.55,2.55,0,0,1-1,.65,3.59,3.59,0,0,1-1.34.23A3.41,3.41,0,0,1,328.52,455.52Z"/><path class="cls-4" d="M334.58,448.92h1.31V450H336a1.78,1.78,0,0,1,1-1.06,2,2,0,0,1,.75-.14,5.35,5.35,0,0,1,.58,0v1.29l-.32-.05-.39,0a1.8,1.8,0,0,0-.84.2,1.42,1.42,0,0,0-.59.55,1.58,1.58,0,0,0-.22.8v4.21h-1.35Z"/><path class="cls-4" d="M340.31,455.52a2.93,2.93,0,0,1-1.15-1.24,4.19,4.19,0,0,1-.39-1.87,4.24,4.24,0,0,1,.39-1.86,3,3,0,0,1,1.12-1.27,3.12,3.12,0,0,1,1.67-.45,3.26,3.26,0,0,1,1.53.36,2.63,2.63,0,0,1,1.12,1.14,4.11,4.11,0,0,1,.42,2v.48h-5.49v-1h4.16a2,2,0,0,0-.22-.94,1.54,1.54,0,0,0-.6-.64,1.68,1.68,0,0,0-.9-.24,1.77,1.77,0,0,0-1,.27,1.81,1.81,0,0,0-.65.72,2.23,2.23,0,0,0-.24,1v.79a2.45,2.45,0,0,0,.25,1.16,1.74,1.74,0,0,0,.68.74,1.89,1.89,0,0,0,1,.26,2,2,0,0,0,.67-.1,1.26,1.26,0,0,0,.5-.27,1.23,1.23,0,0,0,.33-.39h1.37a2.29,2.29,0,0,1-.54,1,2.55,2.55,0,0,1-1,.65,3.65,3.65,0,0,1-1.35.23A3.35,3.35,0,0,1,340.31,455.52Z"/><path class="cls-4" d="M349.8,450.14a1.45,1.45,0,0,0-.87-.24,1.85,1.85,0,0,0-.69.12,1.17,1.17,0,0,0-.47.33.7.7,0,0,0-.17.47.64.64,0,0,0,.26.53,2,2,0,0,0,.82.35l1.1.25a3,3,0,0,1,1.42.68,1.6,1.6,0,0,1,.46,1.19,1.9,1.9,0,0,1-.33,1.1,2.22,2.22,0,0,1-1,.76,3.86,3.86,0,0,1-1.5.27,3.81,3.81,0,0,1-1.42-.23,2.19,2.19,0,0,1-.95-.69,2.31,2.31,0,0,1-.44-1.1h1.39a1,1,0,0,0,.44.71,1.75,1.75,0,0,0,1,.23,2.22,2.22,0,0,0,.77-.12,1.1,1.1,0,0,0,.5-.33.74.74,0,0,0,.18-.49.71.71,0,0,0-.26-.56,1.93,1.93,0,0,0-.81-.34l-1.07-.24a2.68,2.68,0,0,1-1.41-.69,1.63,1.63,0,0,1-.48-1.2,1.86,1.86,0,0,1,.33-1.08,2.18,2.18,0,0,1,.94-.73,3.6,3.6,0,0,1,1.4-.26,3.38,3.38,0,0,1,1.32.24,2.17,2.17,0,0,1,.9.69,2.06,2.06,0,0,1,.39,1h-1.3A1.07,1.07,0,0,0,349.8,450.14Z"/><path class="cls-4" d="M356.22,450h-3.77v-1.08h3.77Zm-1.41-2.73v6.52a1.08,1.08,0,0,0,.12.56.58.58,0,0,0,.28.28,1.1,1.1,0,0,0,.43.08l.67,0v1.17a5.13,5.13,0,0,1-.83.06,2.37,2.37,0,0,1-1-.21,1.7,1.7,0,0,1-.73-.62,1.74,1.74,0,0,1-.28-1v-6.8Z"/><path class="cls-4" d="M360.83,446.62h3.28a3.74,3.74,0,0,1,1.75.38,2.57,2.57,0,0,1,1.08,1.06,3.56,3.56,0,0,1,0,3.08,2.51,2.51,0,0,1-1.08,1.06,3.62,3.62,0,0,1-1.75.39h-2.26V451.4H364a2.19,2.19,0,0,0,1.08-.23,1.37,1.37,0,0,0,.63-.63,2.19,2.19,0,0,0,0-1.87,1.35,1.35,0,0,0-.63-.62,2.32,2.32,0,0,0-1.09-.23h-1.74v8h-1.39Z"/><path class="cls-4" d="M372,452.74l-.93.07a2.19,2.19,0,0,0-1.07.31,1,1,0,0,0-.21,1.31,1,1,0,0,0,.46.34,1.79,1.79,0,0,0,.68.12,2,2,0,0,0,.94-.22,1.47,1.47,0,0,0,.61-.57,1.51,1.51,0,0,0,.21-.77v-2.18a1.24,1.24,0,0,0-.16-.66,1,1,0,0,0-.47-.42,1.81,1.81,0,0,0-.78-.14,1.75,1.75,0,0,0-.67.11,1.27,1.27,0,0,0-.49.3,1.1,1.1,0,0,0-.25.46h-1.36a2,2,0,0,1,.43-1,2.4,2.4,0,0,1,1-.7,3.66,3.66,0,0,1,1.41-.25,4.07,4.07,0,0,1,1.27.2,2.18,2.18,0,0,1,1,.74,2.34,2.34,0,0,1,.42,1.47v4.58h-1.32v-.95h-.05a2.27,2.27,0,0,1-.41.54,2.22,2.22,0,0,1-.68.4,2.56,2.56,0,0,1-.95.16,2.7,2.7,0,0,1-1.19-.25,2,2,0,0,1-.84-.72,2,2,0,0,1-.3-1.13,1.65,1.65,0,0,1,.72-1.52,3.89,3.89,0,0,1,1.86-.54l.73-.05.8,0h.35l0,1Z"/><path class="cls-4" d="M375.5,458.37v-1.13h.61a1.69,1.69,0,0,0,.43-.05.67.67,0,0,0,.34-.24,2.26,2.26,0,0,0,.32-.61l.17-.45-2.53-7h1.45l1.74,5.35h.07l1.75-5.35h1.45l-2.84,7.81a2.72,2.72,0,0,1-.85,1.25,2.23,2.23,0,0,1-1.39.42A6.91,6.91,0,0,1,375.5,458.37Z"/><path class="cls-4" d="M382.42,448.92h1.3v1.13h.08a1.82,1.82,0,0,1,.71-.9,2.14,2.14,0,0,1,1.17-.32,2.35,2.35,0,0,1,.82.14,1.79,1.79,0,0,1,.62.42,1.72,1.72,0,0,1,.41.66h.08a1.88,1.88,0,0,1,.46-.65,2.19,2.19,0,0,1,.71-.42,2.57,2.57,0,0,1,.9-.15,2.23,2.23,0,0,1,1.11.27,1.8,1.8,0,0,1,.75.79,2.87,2.87,0,0,1,.27,1.3v4.63h-1.36v-4.49a1.29,1.29,0,0,0-.36-1,1.32,1.32,0,0,0-.93-.33,1.47,1.47,0,0,0-.74.18,1.26,1.26,0,0,0-.47.5,1.61,1.61,0,0,0-.17.74v4.4h-1.34v-4.58a1.25,1.25,0,0,0-.16-.65,1,1,0,0,0-.44-.43,1.29,1.29,0,0,0-.66-.16,1.32,1.32,0,0,0-.7.2,1.43,1.43,0,0,0-.51.55,1.74,1.74,0,0,0-.2.82v4.25h-1.35Z"/><path class="cls-4" d="M394.68,455.52a2.85,2.85,0,0,1-1.14-1.24,4.06,4.06,0,0,1-.4-1.87,4.1,4.1,0,0,1,.4-1.86,3,3,0,0,1,1.12-1.27,3.09,3.09,0,0,1,1.67-.45,3.29,3.29,0,0,1,1.53.36,2.66,2.66,0,0,1,1.11,1.14,4.11,4.11,0,0,1,.42,2v.48H393.9v-1h4.16a2.06,2.06,0,0,0-.21-.94,1.51,1.51,0,0,0-.61-.64,1.67,1.67,0,0,0-.89-.24,1.75,1.75,0,0,0-1,.27,1.91,1.91,0,0,0-.66.72,2.09,2.09,0,0,0-.23,1v.79a2.58,2.58,0,0,0,.24,1.16,1.74,1.74,0,0,0,.68.74,2,2,0,0,0,1,.26,2,2,0,0,0,.66-.1,1.38,1.38,0,0,0,.51-.27,1.2,1.2,0,0,0,.32-.39h1.38a2.41,2.41,0,0,1-.55,1,2.55,2.55,0,0,1-1,.65,3.59,3.59,0,0,1-1.34.23A3.39,3.39,0,0,1,394.68,455.52Z"/><path class="cls-4" d="M402.09,455.82h-1.35v-6.9H402v1.13h.08a2,2,0,0,1,.45-.65,2,2,0,0,1,.68-.42,2.59,2.59,0,0,1,.91-.15,2.5,2.5,0,0,1,1.24.3,2,2,0,0,1,.82.88,3.21,3.21,0,0,1,.29,1.42v4.39h-1.36V451.6a2.06,2.06,0,0,0-.17-.86,1.34,1.34,0,0,0-.5-.55,1.74,1.74,0,0,0-1.62,0,1.45,1.45,0,0,0-.56.59,1.94,1.94,0,0,0-.21.93Z"/><path class="cls-4" d="M411.37,450H407.6v-1.08h3.77Zm-1.4-2.73v6.52a1.09,1.09,0,0,0,.11.56.56.56,0,0,0,.29.28,1,1,0,0,0,.42.08l.68,0v1.17a5.35,5.35,0,0,1-.84.06,2.37,2.37,0,0,1-1-.21,1.7,1.7,0,0,1-.73-.62,1.74,1.74,0,0,1-.28-1v-6.8Z"/><path class="cls-4" d="M330.74,471.11a3,3,0,0,1-1.13-1.25,4.55,4.55,0,0,1,0-3.73,3,3,0,0,1,1.13-1.26,3.47,3.47,0,0,1,3.38,0,2.94,2.94,0,0,1,1.13,1.26,4.55,4.55,0,0,1,0,3.73,2.92,2.92,0,0,1-1.13,1.25,3.47,3.47,0,0,1-3.38,0Zm2.72-1a2,2,0,0,0,.62-.88,3.6,3.6,0,0,0,.2-1.23,3.69,3.69,0,0,0-.2-1.23,2,2,0,0,0-.62-.87,1.6,1.6,0,0,0-1-.33,1.66,1.66,0,0,0-1,.32,2,2,0,0,0-.62.88,3.45,3.45,0,0,0-.21,1.23,3.37,3.37,0,0,0,.21,1.23,2,2,0,0,0,.62.88,1.8,1.8,0,0,0,2,0Z"/><path class="cls-4" d="M338.35,471.42H337v-6.9h1.3v1.13h.09a2.13,2.13,0,0,1,.44-.65,2,2,0,0,1,.68-.42,2.59,2.59,0,0,1,.91-.15,2.47,2.47,0,0,1,1.24.3,2,2,0,0,1,.82.88,3.21,3.21,0,0,1,.29,1.42v4.39H341.4V467.2a1.91,1.91,0,0,0-.17-.86,1.27,1.27,0,0,0-.5-.55,1.5,1.5,0,0,0-.78-.19,1.6,1.6,0,0,0-.83.21,1.41,1.41,0,0,0-.57.59,1.93,1.93,0,0,0-.2.93Z"/><path class="cls-4" d="M352.4,463.92a1.54,1.54,0,0,0-.66-.46,2.72,2.72,0,0,0-.94-.16,2.43,2.43,0,0,0-1,.18,1.52,1.52,0,0,0-.64.48,1.17,1.17,0,0,0-.23.7,1,1,0,0,0,.47.89,3.91,3.91,0,0,0,1.2.5l.89.23a6.29,6.29,0,0,1,1.29.47,2.75,2.75,0,0,1,1,.82,2.13,2.13,0,0,1,.39,1.3,2.57,2.57,0,0,1-.4,1.4,2.75,2.75,0,0,1-1.18,1,5,5,0,0,1-3.61,0,2.85,2.85,0,0,1-1.19-.93,2.77,2.77,0,0,1-.47-1.44h1.4a1.4,1.4,0,0,0,.32.81,1.64,1.64,0,0,0,.72.5,2.87,2.87,0,0,0,1,.16,2.84,2.84,0,0,0,1-.18,1.75,1.75,0,0,0,.73-.53,1.23,1.23,0,0,0,.26-.77,1,1,0,0,0-.22-.65,1.67,1.67,0,0,0-.59-.43,5.44,5.44,0,0,0-.94-.31l-1.08-.3a4.09,4.09,0,0,1-1.78-.91,2,2,0,0,1-.61-1.52,2.35,2.35,0,0,1,.42-1.38,2.85,2.85,0,0,1,1.17-.93,4.08,4.08,0,0,1,1.67-.33,3.92,3.92,0,0,1,1.65.32,2.73,2.73,0,0,1,1.14.91,2.32,2.32,0,0,1,.42,1.31h-1.35A1.36,1.36,0,0,0,352.4,463.92Z"/><path class="cls-4" d="M358.79,465.6H355v-1.08h3.77Zm-1.41-2.73v6.52a1.08,1.08,0,0,0,.12.56.58.58,0,0,0,.28.28,1.1,1.1,0,0,0,.43.08l.67,0v1.17a5.17,5.17,0,0,1-.84.06,2.4,2.4,0,0,1-1-.21,1.68,1.68,0,0,1-1-1.64v-6.79Z"/><path class="cls-4" d="M363.49,468.34l-.93.07a2.19,2.19,0,0,0-1.07.31.89.89,0,0,0-.37.76.9.9,0,0,0,.16.55,1,1,0,0,0,.46.34,1.83,1.83,0,0,0,.68.12,2,2,0,0,0,.94-.22,1.47,1.47,0,0,0,.61-.57,1.51,1.51,0,0,0,.21-.77v-2.18a1.3,1.3,0,0,0-.16-.67,1,1,0,0,0-.47-.41,1.81,1.81,0,0,0-.78-.14,1.75,1.75,0,0,0-.67.11,1.27,1.27,0,0,0-.49.3,1,1,0,0,0-.25.46H360a2,2,0,0,1,.43-1,2.4,2.4,0,0,1,1-.7,3.66,3.66,0,0,1,1.41-.25,4.07,4.07,0,0,1,1.27.2,2.18,2.18,0,0,1,1,.74,2.34,2.34,0,0,1,.42,1.47v4.58h-1.32v-.95h0a1.85,1.85,0,0,1-.41.53,2.05,2.05,0,0,1-.68.41,2.74,2.74,0,0,1-.95.16,2.7,2.7,0,0,1-1.19-.25,2,2,0,0,1-.84-.72,2.07,2.07,0,0,1-.3-1.13,1.65,1.65,0,0,1,.72-1.52,3.89,3.89,0,0,1,1.86-.54l.73-.05.8,0h.36v1Z"/><path class="cls-4" d="M367.17,462.22h1.35v9.2h-1.35Zm1.24,5.21h.23l2.74-2.91H373l-3.13,3.33h-.22l-1.23,1.23Zm.65.72.94-.95,3.18,4.22h-1.65Z"/><path class="cls-4" d="M374.33,463.35a.89.89,0,0,1-.32-.29.75.75,0,0,1-.12-.4.75.75,0,0,1,.12-.41.89.89,0,0,1,.32-.29.86.86,0,0,1,.84,0,.79.79,0,0,1,.31.29.75.75,0,0,1,.12.41.75.75,0,0,1-.12.4.79.79,0,0,1-.31.29.86.86,0,0,1-.84,0Zm-.27,1.17h1.36v6.9h-1.36Z"/><path class="cls-4" d="M378.43,471.42h-1.36v-6.9h1.3v1.13h.09a2.13,2.13,0,0,1,.44-.65,2,2,0,0,1,.69-.42,2.74,2.74,0,0,1,2.14.15,2,2,0,0,1,.82.88,3.21,3.21,0,0,1,.29,1.42v4.39h-1.36V467.2a1.91,1.91,0,0,0-.17-.86,1.21,1.21,0,0,0-.5-.55,1.5,1.5,0,0,0-.78-.19,1.63,1.63,0,0,0-.83.21,1.41,1.41,0,0,0-.57.59,2.06,2.06,0,0,0-.2.93Z"/><path class="cls-4" d="M385.85,473.9a2.44,2.44,0,0,1-1-.71,2,2,0,0,1-.44-1.11h1.38a1.07,1.07,0,0,0,.28.55,1.33,1.33,0,0,0,.56.32,2.78,2.78,0,0,0,.81.11,2,2,0,0,0,1.29-.38,1.41,1.41,0,0,0,.46-1.17v-1.35h-.09l0,0a2.66,2.66,0,0,1-.39.54,1.91,1.91,0,0,1-.62.41,2.51,2.51,0,0,1-1,.17,2.76,2.76,0,0,1-1.48-.4,2.88,2.88,0,0,1-1-1.17,4.17,4.17,0,0,1-.37-1.84,4.26,4.26,0,0,1,.37-1.86,2.68,2.68,0,0,1,2.53-1.61,2.2,2.2,0,0,1,.93.18,1.9,1.9,0,0,1,.61.4,4.58,4.58,0,0,1,.4.53.47.47,0,0,1,.05.1h.09v-1.12h1.33v7a2.42,2.42,0,0,1-.4,1.44,2.26,2.26,0,0,1-1.1.86,4.25,4.25,0,0,1-1.61.28A4.47,4.47,0,0,1,385.85,473.9Zm2.49-4a1.66,1.66,0,0,0,.61-.78,3.17,3.17,0,0,0,.21-1.22,3.29,3.29,0,0,0-.2-1.22,1.73,1.73,0,0,0-.61-.82,1.74,1.74,0,0,0-2,0,1.81,1.81,0,0,0-.62.83,3.21,3.21,0,0,0-.2,1.2,3.09,3.09,0,0,0,.21,1.19,1.77,1.77,0,0,0,.61.8,1.67,1.67,0,0,0,1,.28A1.7,1.7,0,0,0,388.34,469.92Z"/><path class="cls-4" d="M326.21,481.15a1,1,0,0,1-.33-.33.82.82,0,0,1-.11-.44.86.86,0,0,1,.11-.45,1,1,0,0,1,.33-.33.93.93,0,0,1,.46-.12.89.89,0,0,1,.45.12.9.9,0,0,1,.45.78.83.83,0,0,1-.12.44.87.87,0,0,1-.33.33.89.89,0,0,1-.45.12A.93.93,0,0,1,326.21,481.15Zm0,4.6a1,1,0,0,1-.33-.33.82.82,0,0,1-.11-.44.88.88,0,0,1,.11-.45,1,1,0,0,1,.33-.33.93.93,0,0,1,.46-.12.89.89,0,0,1,.45.12.87.87,0,0,1,.33.33.89.89,0,0,1,.12.45.83.83,0,0,1-.12.44.87.87,0,0,1-.33.33.9.9,0,0,1-.45.13A.94.94,0,0,1,326.21,485.75Z"/><path class="cls-4" d="M334.19,477.82l2.92,7.13h.1l2.92-7.13h1.7V487H340.5v-6.64h-.09l-2.7,6.62H336.6l-2.7-6.63h-.07V487h-1.34v-9.2Z"/><path class="cls-4" d="M343,487l3.3-9.2h1.62l3.31,9.2h-1.49l-2.59-7.52h-.07l-2.6,7.52Zm6.5-3.6v1.17h-4.78v-1.17Z"/><path class="cls-4" d="M354.8,485.3h.1l2.56-7.48H359l-3.31,9.2H354l-3.3-9.2h1.51Z"/><path class="cls-4" d="M362.85,477.82H370V479h-2.86v8h-1.4v-8h-2.87Z"/><path class="cls-4" d="M371.5,486.71a3,3,0,0,1-1.13-1.25,4.55,4.55,0,0,1,0-3.73,2.92,2.92,0,0,1,1.13-1.25,3.4,3.4,0,0,1,3.38,0,2.86,2.86,0,0,1,1.13,1.25,4.55,4.55,0,0,1,0,3.73,2.92,2.92,0,0,1-1.13,1.25,3.47,3.47,0,0,1-3.38,0Zm2.71-1a2,2,0,0,0,.63-.87,3.69,3.69,0,0,0,.2-1.23,3.6,3.6,0,0,0-.2-1.23,1.92,1.92,0,0,0-.63-.88,1.55,1.55,0,0,0-1-.33,1.66,1.66,0,0,0-1,.32,2,2,0,0,0-.62.88,3.58,3.58,0,0,0,0,2.47,1.93,1.93,0,0,0,.62.87,1.6,1.6,0,0,0,1,.32A1.55,1.55,0,0,0,374.21,485.7Z"/><path class="cls-4" d="M377.75,477.82h1.35V487h-1.35ZM379,483h.23l2.74-2.91h1.62l-3.13,3.33h-.22L379,484.68Zm.65.72.94-.95,3.19,4.22h-1.66Z"/><path class="cls-4" d="M385.58,486.72a3,3,0,0,1-1.14-1.24,4.19,4.19,0,0,1-.39-1.87,4.24,4.24,0,0,1,.39-1.86,3.08,3.08,0,0,1,1.12-1.27,3.12,3.12,0,0,1,1.67-.45,3.26,3.26,0,0,1,1.53.36,2.63,2.63,0,0,1,1.12,1.14,4.11,4.11,0,0,1,.42,2V484h-5.49v-1H389a2,2,0,0,0-.22-.94,1.54,1.54,0,0,0-.6-.64,1.68,1.68,0,0,0-.9-.24,1.77,1.77,0,0,0-1,.27,1.81,1.81,0,0,0-.65.72,2.23,2.23,0,0,0-.24,1v.79a2.58,2.58,0,0,0,.25,1.16,1.68,1.68,0,0,0,.68.74,1.89,1.89,0,0,0,1,.26,2,2,0,0,0,.67-.1,1.26,1.26,0,0,0,.5-.27,1.23,1.23,0,0,0,.33-.39h1.37a2.29,2.29,0,0,1-.54,1,2.55,2.55,0,0,1-1,.65,3.65,3.65,0,0,1-1.35.23A3.41,3.41,0,0,1,385.58,486.72Z"/><path class="cls-4" d="M393,487h-1.36v-6.9h1.3v1.13H393a2,2,0,0,1,.45-.65,1.87,1.87,0,0,1,.68-.42,2.54,2.54,0,0,1,.9-.15,2.45,2.45,0,0,1,1.24.3,2,2,0,0,1,.82.88,3.21,3.21,0,0,1,.29,1.42V487h-1.35V482.8a1.91,1.91,0,0,0-.18-.86,1.21,1.21,0,0,0-.5-.55,1.61,1.61,0,0,0-.78-.19,1.63,1.63,0,0,0-.83.21,1.41,1.41,0,0,0-.57.59,2.06,2.06,0,0,0-.2.93Z"/><path class="cls-4" d="M320.27,412.82h7.13V414h-2.86v8h-1.4v-8h-2.87Z"/><path class="cls-4" d="M328.92,421.71a2.92,2.92,0,0,1-1.13-1.25,4,4,0,0,1-.4-1.86,4.12,4.12,0,0,1,.4-1.87,2.92,2.92,0,0,1,1.13-1.25,3.4,3.4,0,0,1,3.38,0,2.86,2.86,0,0,1,1.13,1.25,4.25,4.25,0,0,1,.4,1.87,4.18,4.18,0,0,1-.4,1.86,2.86,2.86,0,0,1-1.13,1.25,3.4,3.4,0,0,1-3.38,0Zm2.71-1a1.89,1.89,0,0,0,.63-.87,3.88,3.88,0,0,0,0-2.46,2,2,0,0,0-.63-.88,1.55,1.55,0,0,0-1-.33,1.61,1.61,0,0,0-1,.33,1.91,1.91,0,0,0-.62.88,3.55,3.55,0,0,0,0,2.46,1.88,1.88,0,0,0,.62.87,1.61,1.61,0,0,0,1,.33A1.55,1.55,0,0,0,331.63,420.7Z"/><path class="cls-4" d="M335.17,412.82h1.35V422h-1.35Zm1.24,5.22h.23l2.74-2.92H341l-3.13,3.33h-.22l-1.23,1.23Zm.65.71.94-.95,3.18,4.22h-1.65Z"/><path class="cls-4" d="M343,421.72a2.92,2.92,0,0,1-1.14-1.24,4.18,4.18,0,0,1-.39-1.86,4.28,4.28,0,0,1,.39-1.87,3,3,0,0,1,2.79-1.72,3.26,3.26,0,0,1,1.53.36,2.74,2.74,0,0,1,1.12,1.14,4.14,4.14,0,0,1,.42,2V419h-5.49v-1h4.16a1.88,1.88,0,0,0-.22-.93,1.57,1.57,0,0,0-.6-.65,1.68,1.68,0,0,0-.9-.23,1.79,1.79,0,0,0-1.62,1,2.14,2.14,0,0,0-.24,1v.78a2.45,2.45,0,0,0,.25,1.16,1.71,1.71,0,0,0,.68.75,2,2,0,0,0,1,.25,2.31,2.31,0,0,0,.67-.09,1.58,1.58,0,0,0,.5-.27,1.49,1.49,0,0,0,.33-.39h1.37a2.31,2.31,0,0,1-.54,1,2.69,2.69,0,0,1-1,.66,3.86,3.86,0,0,1-1.35.23A3.42,3.42,0,0,1,343,421.72Z"/><path class="cls-4" d="M350.42,422h-1.36v-6.9h1.3v1.13h.09a2.1,2.1,0,0,1,.45-.65,1.87,1.87,0,0,1,.68-.42,2.5,2.5,0,0,1,.9-.15,2.45,2.45,0,0,1,1.24.3,2,2,0,0,1,.82.88,3.24,3.24,0,0,1,.29,1.42V422h-1.35V417.8a1.91,1.91,0,0,0-.18-.86,1.21,1.21,0,0,0-.5-.55,1.8,1.8,0,0,0-1.61,0,1.47,1.47,0,0,0-.57.59,2.06,2.06,0,0,0-.2.93Z"/><path class="cls-4" d="M364.47,414.52a1.54,1.54,0,0,0-.66-.46,2.93,2.93,0,0,0-1.91,0,1.52,1.52,0,0,0-.64.49,1.14,1.14,0,0,0-.23.69,1,1,0,0,0,.48.9,3.74,3.74,0,0,0,1.19.49l.9.24a6.13,6.13,0,0,1,1.29.46,2.8,2.8,0,0,1,1,.82,2.15,2.15,0,0,1,.39,1.3,2.47,2.47,0,0,1-.4,1.4,2.67,2.67,0,0,1-1.17,1,4.51,4.51,0,0,1-1.84.34,4.45,4.45,0,0,1-1.78-.33,2.76,2.76,0,0,1-1.18-.93,2.64,2.64,0,0,1-.48-1.44h1.4a1.4,1.4,0,0,0,.32.81,1.64,1.64,0,0,0,.72.5,3,3,0,0,0,2.05,0,1.76,1.76,0,0,0,.72-.52,1.28,1.28,0,0,0,.26-.78.94.94,0,0,0-.22-.64,1.6,1.6,0,0,0-.59-.44,6.71,6.71,0,0,0-.93-.31l-1.09-.29a4.1,4.1,0,0,1-1.77-.91,2,2,0,0,1-.62-1.53,2.29,2.29,0,0,1,.43-1.38,2.73,2.73,0,0,1,1.17-.93,4.38,4.38,0,0,1,3.31,0,2.67,2.67,0,0,1,1.14.91,2.44,2.44,0,0,1,.43,1.31h-1.36A1.35,1.35,0,0,0,364.47,414.52Z"/><path class="cls-4" d="M370.86,416.21h-3.77v-1.09h3.77Zm-1.4-2.74V420a1.16,1.16,0,0,0,.11.57.61.61,0,0,0,.28.27,1.1,1.1,0,0,0,.43.08l.67,0v1.17a5.13,5.13,0,0,1-.83.06,2.37,2.37,0,0,1-1-.21,1.64,1.64,0,0,1-.73-.62,1.72,1.72,0,0,1-.28-1v-6.8Z"/><path class="cls-4" d="M375.57,419l-.94.06a2,2,0,0,0-1.06.32.88.88,0,0,0-.38.76.9.9,0,0,0,.63.88,1.74,1.74,0,0,0,.67.12,1.89,1.89,0,0,0,.94-.22,1.56,1.56,0,0,0,.62-.57,1.49,1.49,0,0,0,.21-.77v-2.18a1.24,1.24,0,0,0-.16-.66.92.92,0,0,0-.47-.42,2.17,2.17,0,0,0-1.45,0,1.08,1.08,0,0,0-.48.31.94.94,0,0,0-.26.45h-1.35a1.8,1.8,0,0,1,.43-1,2.38,2.38,0,0,1,1-.71,3.87,3.87,0,0,1,1.42-.25,3.79,3.79,0,0,1,1.26.21,2.11,2.11,0,0,1,1,.74,2.3,2.3,0,0,1,.42,1.46V422h-1.32v-.94h0a2,2,0,0,1-.41.53,2,2,0,0,1-.68.4,2.52,2.52,0,0,1-.95.16,2.7,2.7,0,0,1-1.19-.25,1.88,1.88,0,0,1-.83-.72,2,2,0,0,1-.31-1.13,1.64,1.64,0,0,1,.73-1.52,3.85,3.85,0,0,1,1.85-.54l.74-.05.79,0h.36l0,1C376.18,418.9,375.92,418.92,375.57,419Z"/><path class="cls-4" d="M379.24,412.82h1.36V422h-1.36Zm1.24,5.22h.23l2.74-2.92h1.62l-3.13,3.33h-.22l-1.23,1.23Zm.66.71.93-.95,3.19,4.22H383.6Z"/><path class="cls-4" d="M386.4,414a.89.89,0,0,1-.32-.29.8.8,0,0,1-.11-.4.84.84,0,0,1,.11-.41.89.89,0,0,1,.32-.29.93.93,0,0,1,.84,0,.82.82,0,0,1,.32.29.84.84,0,0,1,.11.41.8.8,0,0,1-.11.4.82.82,0,0,1-.32.29.86.86,0,0,1-.84,0Zm-.26,1.17h1.35V422h-1.35Z"/><path class="cls-4" d="M390.5,422h-1.36v-6.9h1.31v1.13h.08a2.1,2.1,0,0,1,.45-.65,1.87,1.87,0,0,1,.68-.42,2.54,2.54,0,0,1,.9-.15,2.45,2.45,0,0,1,1.24.3,2,2,0,0,1,.82.88,3.24,3.24,0,0,1,.29,1.42V422h-1.35V417.8a1.91,1.91,0,0,0-.18-.86,1.21,1.21,0,0,0-.5-.55,1.8,1.8,0,0,0-1.61,0,1.39,1.39,0,0,0-.56.59,1.94,1.94,0,0,0-.21.93Z"/><path class="cls-4" d="M397.93,424.5a2.42,2.42,0,0,1-1.05-.71,2,2,0,0,1-.44-1.1h1.38a1.17,1.17,0,0,0,.28.54,1.4,1.4,0,0,0,.56.32,2.48,2.48,0,0,0,.81.11,2,2,0,0,0,1.29-.38,1.4,1.4,0,0,0,.46-1.16v-1.36h-.09v0a2.52,2.52,0,0,1-.4.54,2,2,0,0,1-.61.41,2.37,2.37,0,0,1-1,.18,2.74,2.74,0,0,1-1.48-.41,2.69,2.69,0,0,1-1-1.17,4.16,4.16,0,0,1-.38-1.84,4.26,4.26,0,0,1,.37-1.86,2.85,2.85,0,0,1,1-1.2,2.78,2.78,0,0,1,1.49-.41,2.25,2.25,0,0,1,.94.18,1.86,1.86,0,0,1,.6.41,3.19,3.19,0,0,1,.4.53l.06.09h.09v-1.12h1.32v7.05a2.47,2.47,0,0,1-.4,1.44,2.38,2.38,0,0,1-1.1.86,4.41,4.41,0,0,1-1.61.28A4.14,4.14,0,0,1,397.93,424.5Zm2.48-4a1.68,1.68,0,0,0,.62-.78,3.16,3.16,0,0,0,.21-1.21,3.3,3.3,0,0,0-.21-1.23,1.78,1.78,0,0,0-.61-.82,1.79,1.79,0,0,0-2,0,1.88,1.88,0,0,0-.62.83,3.53,3.53,0,0,0-.2,1.21,3.12,3.12,0,0,0,.21,1.19,1.74,1.74,0,0,0,.61.79,1.68,1.68,0,0,0,1,.29A1.63,1.63,0,0,0,400.41,420.52Z"/><g class="cls-10"><rect class="cls-4" x="452.94" y="406.79" width="200" height="55.17"/></g><path class="cls-4" d="M534.21,430.38a2.28,2.28,0,0,0-.9-.63,3.71,3.71,0,0,0-1.29-.21,3.4,3.4,0,0,0-1.33.24,2,2,0,0,0-.89.66,1.57,1.57,0,0,0-.31,1,1.38,1.38,0,0,0,.65,1.23,5.55,5.55,0,0,0,1.64.68l1.23.32a8.21,8.21,0,0,1,1.77.64,3.78,3.78,0,0,1,1.33,1.12,3,3,0,0,1,.53,1.79,3.37,3.37,0,0,1-.56,1.91,3.7,3.7,0,0,1-1.6,1.32,6.23,6.23,0,0,1-2.52.47,6.11,6.11,0,0,1-2.44-.45,3.82,3.82,0,0,1-1.63-1.28,3.62,3.62,0,0,1-.65-2h1.92a2,2,0,0,0,.43,1.11,2.38,2.38,0,0,0,1,.68,3.9,3.9,0,0,0,1.37.23,3.8,3.8,0,0,0,1.43-.26,2.26,2.26,0,0,0,1-.72,1.66,1.66,0,0,0,.36-1.06,1.35,1.35,0,0,0-.3-.89,2.3,2.3,0,0,0-.81-.59,8.27,8.27,0,0,0-1.28-.43l-1.49-.4a5.62,5.62,0,0,1-2.43-1.25,2.76,2.76,0,0,1-.86-2.09,3.2,3.2,0,0,1,.59-1.9,3.94,3.94,0,0,1,1.61-1.27,5.92,5.92,0,0,1,4.55,0,3.6,3.6,0,0,1,1.56,1.24,3.25,3.25,0,0,1,.59,1.8h-1.86A1.82,1.82,0,0,0,534.21,430.38Z"/><path class="cls-4" d="M543,432.69H537.8v-1.48H543Zm-1.93-3.75v8.95a1.69,1.69,0,0,0,.15.78.88.88,0,0,0,.4.37,1.43,1.43,0,0,0,.58.11c.16,0,.47,0,.93,0v1.6a6.69,6.69,0,0,1-1.15.08,3.32,3.32,0,0,1-1.39-.28,2.36,2.36,0,0,1-1-.85,2.47,2.47,0,0,1-.38-1.39v-9.33Z"/><path class="cls-4" d="M549.44,436.45l-1.28.09a2.91,2.91,0,0,0-1.47.44,1.2,1.2,0,0,0-.51,1,1.16,1.16,0,0,0,.23.75,1.38,1.38,0,0,0,.63.47,2.6,2.6,0,0,0,.92.16,2.68,2.68,0,0,0,1.3-.3,2.26,2.26,0,0,0,.84-.78,2.09,2.09,0,0,0,.29-1.06v-3a1.79,1.79,0,0,0-.22-.92,1.35,1.35,0,0,0-.65-.57,2.58,2.58,0,0,0-1.06-.19,2.67,2.67,0,0,0-.93.15,1.7,1.7,0,0,0-.66.42,1.42,1.42,0,0,0-.36.63h-1.85a2.69,2.69,0,0,1,.59-1.4,3.28,3.28,0,0,1,1.34-1,5.09,5.09,0,0,1,1.94-.35,5.56,5.56,0,0,1,1.74.28,3,3,0,0,1,1.4,1,3.2,3.2,0,0,1,.57,2v6.28h-1.81v-1.29h-.07a2.69,2.69,0,0,1-.56.73,2.79,2.79,0,0,1-.93.55,3.56,3.56,0,0,1-1.31.22,3.74,3.74,0,0,1-1.63-.34,2.58,2.58,0,0,1-1.15-1,2.79,2.79,0,0,1-.42-1.55,2.29,2.29,0,0,1,1-2.09,5.36,5.36,0,0,1,2.54-.74l1-.06,1.1-.06.49,0,0,1.36Z"/><path class="cls-4" d="M554.48,428.05h1.86v12.62h-1.86Zm1.7,7.16h.32l3.76-4h2.22l-4.29,4.56h-.3l-1.69,1.7Zm.9,1,1.28-1.31,4.38,5.79h-2.27Z"/><path class="cls-4" d="M565.24,440.26a4,4,0,0,1-1.57-1.7,5.71,5.71,0,0,1-.54-2.56,5.83,5.83,0,0,1,.54-2.56,4.21,4.21,0,0,1,1.54-1.74,4.27,4.27,0,0,1,2.29-.62,4.46,4.46,0,0,1,2.1.5,3.6,3.6,0,0,1,1.53,1.56,5.57,5.57,0,0,1,.58,2.7v.66h-7.54v-1.39h5.71a2.85,2.85,0,0,0-.29-1.29,2.23,2.23,0,0,0-.83-.89,2.4,2.4,0,0,0-1.23-.32,2.46,2.46,0,0,0-1.33.37,2.5,2.5,0,0,0-.9,1,2.87,2.87,0,0,0-.32,1.33v1.07a3.57,3.57,0,0,0,.33,1.6,2.38,2.38,0,0,0,.94,1,2.67,2.67,0,0,0,1.4.35,3,3,0,0,0,.92-.13,2.27,2.27,0,0,0,.69-.37,1.72,1.72,0,0,0,.44-.54h1.89a3.2,3.2,0,0,1-.75,1.36,3.68,3.68,0,0,1-1.36.9,5.11,5.11,0,0,1-1.84.31A4.65,4.65,0,0,1,565.24,440.26Z"/><path class="cls-4" d="M573.55,431.21h1.8v1.51h.1a2.38,2.38,0,0,1,.53-.88,2.26,2.26,0,0,1,.84-.58,2.7,2.7,0,0,1,1-.19,6.52,6.52,0,0,1,.79,0v1.77l-.43-.07a3.32,3.32,0,0,0-.53,0,2.49,2.49,0,0,0-1.17.27,2,2,0,0,0-.8.76,2.08,2.08,0,0,0-.29,1.1v5.77h-1.87Z"/><g class="cls-10"><rect class="cls-4" x="452.94" y="640.8" width="200" height="55.17"/></g><path class="cls-4" d="M522.65,653.25h1.72v9.84h5.13v1.49h-6.85Z"/><path class="cls-4" d="M531.45,654.64a1.06,1.06,0,0,1-.39-.37.86.86,0,0,1-.15-.49.91.91,0,0,1,.15-.5,1.12,1.12,0,0,1,.39-.36,1.14,1.14,0,0,1,.52-.13,1.18,1.18,0,0,1,.52.13,1,1,0,0,1,.38.36.91.91,0,0,1,.15.5.86.86,0,0,1-.15.49,1,1,0,0,1-.38.37,1.06,1.06,0,0,1-.52.13A1,1,0,0,1,531.45,654.64Zm-.33,1.44h1.67v8.5h-1.67Z"/><path class="cls-4" d="M540.56,663.25h-.09l0,.08a4.42,4.42,0,0,1-.5.68,2.46,2.46,0,0,1-.75.51,2.75,2.75,0,0,1-1.17.22,3.19,3.19,0,0,1-1.83-.53,3.52,3.52,0,0,1-1.27-1.53,5.61,5.61,0,0,1-.46-2.34,5.46,5.46,0,0,1,.47-2.34,3.45,3.45,0,0,1,1.27-1.51A3.3,3.3,0,0,1,538,656a2.9,2.9,0,0,1,1.16.21,2.4,2.4,0,0,1,.74.51,4.32,4.32,0,0,1,.48.66l0,0a.33.33,0,0,1,0,.06h.13v-1.38h1.63v11.68h-1.67Zm-1-.3a2.31,2.31,0,0,0,.76-1.05,4.49,4.49,0,0,0,.26-1.57,4.36,4.36,0,0,0-.25-1.56,2.22,2.22,0,0,0-.76-1,2.18,2.18,0,0,0-2.43,0,2.26,2.26,0,0,0-.75,1,4.21,4.21,0,0,0-.26,1.52,4.36,4.36,0,0,0,.26,1.54,2.42,2.42,0,0,0,.76,1.06,1.94,1.94,0,0,0,1.22.39A1.92,1.92,0,0,0,539.58,663Z"/><path class="cls-4" d="M549.66,656.08h1.66v8.5h-1.63V663.1h-.09a2.57,2.57,0,0,1-.55.82,2.46,2.46,0,0,1-.87.56,2.87,2.87,0,0,1-1.12.21,2.9,2.9,0,0,1-1.46-.37,2.48,2.48,0,0,1-1-1.09,4,4,0,0,1-.35-1.75v-5.4h1.67v5.2a2.14,2.14,0,0,0,.22,1,1.69,1.69,0,0,0,.61.66,1.76,1.76,0,0,0,.89.23,2.07,2.07,0,0,0,1-.24,2,2,0,0,0,.75-.72,2.24,2.24,0,0,0,.29-1.16Z"/><path class="cls-4" d="M553.68,654.64a1.06,1.06,0,0,1-.39-.37.93.93,0,0,1-.14-.49,1,1,0,0,1,.14-.5,1.12,1.12,0,0,1,.39-.36,1.18,1.18,0,0,1,.52-.13,1.14,1.14,0,0,1,.52.13,1,1,0,0,1,.39.36,1,1,0,0,1,.14.5.93.93,0,0,1-.14.49,1,1,0,0,1-.39.37,1,1,0,0,1-.52.13A1.06,1.06,0,0,1,553.68,654.64Zm-.32,1.44H555v8.5h-1.67Z"/><path class="cls-4" d="M558.41,664.21a3.44,3.44,0,0,1-1.26-1.53,6.18,6.18,0,0,1,0-4.68,3.52,3.52,0,0,1,1.27-1.51,3.32,3.32,0,0,1,1.84-.52,2.86,2.86,0,0,1,1.16.21,2.29,2.29,0,0,1,.74.51,3.77,3.77,0,0,1,.49.66l0,0a.33.33,0,0,1,0,.06h.09v-4.21h1.67v11.33h-1.64v-1.33h-.12a.56.56,0,0,1-.05.08,4.38,4.38,0,0,1-.49.68,2.46,2.46,0,0,1-.75.51,2.81,2.81,0,0,1-1.17.22A3.23,3.23,0,0,1,558.41,664.21Zm3.4-1.26a2.24,2.24,0,0,0,.76-1.05,4.27,4.27,0,0,0,.26-1.57,4.36,4.36,0,0,0-.25-1.56,2.15,2.15,0,0,0-.76-1,2.16,2.16,0,0,0-2.42,0,2.21,2.21,0,0,0-.76,1,4.21,4.21,0,0,0-.25,1.52,4.15,4.15,0,0,0,.26,1.54,2.27,2.27,0,0,0,.76,1.06,2.09,2.09,0,0,0,2.4,0Z"/><path class="cls-4" d="M567,654.64a1.06,1.06,0,0,1-.39-.37.85.85,0,0,1-.14-.49.9.9,0,0,1,.14-.5,1.12,1.12,0,0,1,.39-.36,1.11,1.11,0,0,1,1,0,1.12,1.12,0,0,1,.39.36,1,1,0,0,1,.14.5.93.93,0,0,1-.14.49,1.06,1.06,0,0,1-.39.37,1.11,1.11,0,0,1-1,0Zm-.32,1.44h1.67v8.5h-1.67Z"/><path class="cls-4" d="M574.31,657.41h-4.64v-1.33h4.64ZM572.58,654v8a1.5,1.5,0,0,0,.14.7.82.82,0,0,0,.35.34,1.4,1.4,0,0,0,.53.09l.83,0v1.44a7.82,7.82,0,0,1-1,.07,3,3,0,0,1-1.25-.26,2.14,2.14,0,0,1-.9-.76,2.26,2.26,0,0,1-.34-1.25V654Z"/><path class="cls-4" d="M576.08,667.73v-1.4h.75a2,2,0,0,0,.53-.06.79.79,0,0,0,.42-.3,2.62,2.62,0,0,0,.39-.74l.21-.56-3.11-8.61h1.78l2.15,6.59h.08l2.16-6.59h1.78l-3.5,9.63a3.41,3.41,0,0,1-1,1.54,2.78,2.78,0,0,1-1.71.51Q576.4,667.76,576.08,667.73Z"/><path class="cls-4" d="M523.21,672.47h4a4.6,4.6,0,0,1,2.16.47,3.09,3.09,0,0,1,1.32,1.31,4.3,4.3,0,0,1,0,3.79,3.09,3.09,0,0,1-1.32,1.31,4.49,4.49,0,0,1-2.17.48h-2.78v-1.47h2.61a2.8,2.8,0,0,0,1.34-.28,1.83,1.83,0,0,0,.78-.78,2.79,2.79,0,0,0,0-2.31,1.79,1.79,0,0,0-.78-.76,2.8,2.8,0,0,0-1.34-.28h-2.15v9.85h-1.72Z"/><path class="cls-4" d="M532.86,675.3h1.62v1.36h.08a2.13,2.13,0,0,1,.48-.79,2.07,2.07,0,0,1,.75-.52,2.6,2.6,0,0,1,.93-.17,5.33,5.33,0,0,1,.71,0v1.59l-.39-.07-.48,0a2.21,2.21,0,0,0-1,.24,1.86,1.86,0,0,0-.73.69,1.91,1.91,0,0,0-.26,1v5.18h-1.67Z"/><path class="cls-4" d="M539.91,683.43a3.73,3.73,0,0,1-1.4-1.54,5.64,5.64,0,0,1,0-4.6,3.7,3.7,0,0,1,1.4-1.55,4.23,4.23,0,0,1,4.17,0,3.67,3.67,0,0,1,1.39,1.55,5.64,5.64,0,0,1,0,4.6,3.71,3.71,0,0,1-1.39,1.54,4.3,4.3,0,0,1-4.17,0Zm3.34-1.25a2.35,2.35,0,0,0,.77-1.08,4.72,4.72,0,0,0,0-3,2.46,2.46,0,0,0-.77-1.08,2,2,0,0,0-1.25-.41,2,2,0,0,0-1.26.4,2.45,2.45,0,0,0-.78,1.09,4.54,4.54,0,0,0,0,3,2.37,2.37,0,0,0,.78,1.08,2.17,2.17,0,0,0,2.51,0Z"/><path class="cls-4" d="M551.51,683.8h-1.79l-3.08-8.5h1.79l2.14,6.53h.09l2.15-6.53h1.79Z"/><path class="cls-4" d="M556.29,673.86a1.12,1.12,0,0,1-.39-.36.86.86,0,0,1-.15-.49.89.89,0,0,1,.15-.5,1.08,1.08,0,0,1,.91-.49,1.06,1.06,0,0,1,.52.13.94.94,0,0,1,.38.36.89.89,0,0,1,.15.5.86.86,0,0,1-.15.49,1,1,0,0,1-.38.36,1.07,1.07,0,0,1-.52.14A1,1,0,0,1,556.29,673.86ZM556,675.3h1.67v8.5H556Z"/><path class="cls-4" d="M561,683.44a3.64,3.64,0,0,1-1.27-1.53,5.61,5.61,0,0,1-.46-2.34,5.46,5.46,0,0,1,.47-2.34,3.45,3.45,0,0,1,1.27-1.51,3.3,3.3,0,0,1,1.84-.53,2.89,2.89,0,0,1,1.16.22,2.1,2.1,0,0,1,.74.51,3.74,3.74,0,0,1,.48.66l0,0,0,0h.09v-4.21h1.67V683.8h-1.63v-1.32h-.13a.43.43,0,0,1,0,.07,3.63,3.63,0,0,1-.5.68,2.2,2.2,0,0,1-.75.52,2.91,2.91,0,0,1-1.17.22A3.27,3.27,0,0,1,561,683.44Zm3.4-1.27a2.31,2.31,0,0,0,.76-1,4.41,4.41,0,0,0,.26-1.57,4.31,4.31,0,0,0-.25-1.55,2.22,2.22,0,0,0-.76-1,1.92,1.92,0,0,0-1.2-.36A2,2,0,0,0,562,677a2.32,2.32,0,0,0-.75,1,4.21,4.21,0,0,0-.26,1.52,4.32,4.32,0,0,0,.26,1.54,2.45,2.45,0,0,0,.76,1.07,2.08,2.08,0,0,0,2.41,0Z"/><path class="cls-4" d="M570.75,683.43a3.56,3.56,0,0,1-1.4-1.52,5.06,5.06,0,0,1-.49-2.3,5.15,5.15,0,0,1,.49-2.3,3.75,3.75,0,0,1,1.38-1.56,3.81,3.81,0,0,1,2.06-.56,4,4,0,0,1,1.88.45,3.33,3.33,0,0,1,1.38,1.4,5.14,5.14,0,0,1,.52,2.43v.59h-6.78v-1.25h5.13a2.42,2.42,0,0,0-.26-1.16,1.91,1.91,0,0,0-.74-.8,2.32,2.32,0,0,0-2.3,0,2.22,2.22,0,0,0-.81.88,2.52,2.52,0,0,0-.29,1.19v1a3.19,3.19,0,0,0,.3,1.44,2.12,2.12,0,0,0,.84.91,2.36,2.36,0,0,0,1.26.32,2.62,2.62,0,0,0,.82-.12,1.88,1.88,0,0,0,.63-.33,1.62,1.62,0,0,0,.39-.48h1.7a3,3,0,0,1-.67,1.21,3.15,3.15,0,0,1-1.23.81,4.53,4.53,0,0,1-1.65.28A4.2,4.2,0,0,1,570.75,683.43Z"/><path class="cls-4" d="M578.22,675.3h1.62v1.36h.08a2.27,2.27,0,0,1,.48-.79,2.07,2.07,0,0,1,.75-.52,2.6,2.6,0,0,1,.93-.17,5.33,5.33,0,0,1,.71,0v1.59l-.39-.07-.48,0a2.21,2.21,0,0,0-1,.24,1.86,1.86,0,0,0-.73.69,1.91,1.91,0,0,0-.26,1v5.18h-1.67Z"/><g class="cls-10"><rect class="cls-4" x="452.94" y="172.79" width="200" height="55.17"/></g><path class="cls-4" d="M522.65,185.24h1.72v9.85h5.13v1.48h-6.85Z"/><path class="cls-4" d="M531.45,186.63a1.12,1.12,0,0,1-.39-.36.89.89,0,0,1,0-1,1,1,0,0,1,.39-.36,1,1,0,0,1,.52-.13,1.06,1.06,0,0,1,.52.13.88.88,0,0,1,.38.36.89.89,0,0,1,0,1,1,1,0,0,1-.38.36,1.07,1.07,0,0,1-.52.14A1,1,0,0,1,531.45,186.63Zm-.33,1.44h1.67v8.5h-1.67Z"/><path class="cls-4" d="M540.56,195.25h-.09a.43.43,0,0,1,0,.07,3.63,3.63,0,0,1-.5.68,2.15,2.15,0,0,1-.75.51,2.74,2.74,0,0,1-1.17.23,3.2,3.2,0,0,1-1.83-.54,3.55,3.55,0,0,1-1.27-1.52,5.68,5.68,0,0,1-.46-2.34,5.46,5.46,0,0,1,.47-2.34,3.48,3.48,0,0,1,1.27-1.52A3.38,3.38,0,0,1,538,188a2.73,2.73,0,0,1,1.16.22,2.23,2.23,0,0,1,.74.5,5.6,5.6,0,0,1,.48.66.33.33,0,0,0,0,.06l0,0h.13v-1.38h1.63v11.69h-1.67Zm-1-.31a2.31,2.31,0,0,0,.76-1.05,4.41,4.41,0,0,0,.26-1.57,4.31,4.31,0,0,0-.25-1.55,2.2,2.2,0,0,0-.76-1,2.18,2.18,0,0,0-2.43,0,2.32,2.32,0,0,0-.75,1,4.21,4.21,0,0,0-.26,1.52,4.32,4.32,0,0,0,.26,1.54,2.51,2.51,0,0,0,.76,1.07,2.12,2.12,0,0,0,2.41,0Z"/><path class="cls-4" d="M549.66,188.07h1.66v8.5h-1.63V195.1h-.09a2.69,2.69,0,0,1-.55.82,2.77,2.77,0,0,1-.87.56,3.06,3.06,0,0,1-1.12.2,2.81,2.81,0,0,1-1.46-.37,2.43,2.43,0,0,1-1-1.09,4,4,0,0,1-.35-1.74v-5.41h1.67v5.2a2.11,2.11,0,0,0,.22,1,1.56,1.56,0,0,0,.61.66,1.67,1.67,0,0,0,.89.24,2.08,2.08,0,0,0,1-.25,2,2,0,0,0,.75-.72,2.19,2.19,0,0,0,.29-1.16Z"/><path class="cls-4" d="M553.68,186.63a1.12,1.12,0,0,1-.39-.36,1,1,0,0,1,.39-1.35,1.06,1.06,0,0,1,.52-.13,1,1,0,0,1,.52.13.9.9,0,0,1,.39.36.95.95,0,0,1,0,1,1.12,1.12,0,0,1-.91.5A1.07,1.07,0,0,1,553.68,186.63Zm-.32,1.44H555v8.5h-1.67Z"/><path class="cls-4" d="M558.41,196.2a3.46,3.46,0,0,1-1.26-1.52,5.52,5.52,0,0,1-.46-2.34,5.46,5.46,0,0,1,.46-2.34,3.55,3.55,0,0,1,1.27-1.52,3.4,3.4,0,0,1,1.84-.52,2.7,2.7,0,0,1,1.16.22,2.13,2.13,0,0,1,.74.5,4.71,4.71,0,0,1,.49.66l0,.06,0,0h.09v-4.21h1.67v11.33h-1.64v-1.32h-.12l-.05.07a3.6,3.6,0,0,1-.49.68,2.15,2.15,0,0,1-.75.51,2.81,2.81,0,0,1-1.17.23A3.23,3.23,0,0,1,558.41,196.2Zm3.4-1.26a2.24,2.24,0,0,0,.76-1.05,4.2,4.2,0,0,0,.26-1.57,4.31,4.31,0,0,0-.25-1.55,2.13,2.13,0,0,0-.76-1,2.16,2.16,0,0,0-2.42,0,2.26,2.26,0,0,0-.76,1,4.21,4.21,0,0,0-.25,1.52,4.11,4.11,0,0,0,.26,1.54,2.35,2.35,0,0,0,.76,1.07,2.11,2.11,0,0,0,2.4,0Z"/><path class="cls-4" d="M567,186.63a1.12,1.12,0,0,1-.39-.36.87.87,0,0,1-.14-.49.88.88,0,0,1,.14-.5,1,1,0,0,1,.39-.36,1.1,1.1,0,0,1,1,0,1,1,0,0,1,.39,1.35,1.12,1.12,0,0,1-.39.36,1,1,0,0,1-1,0Zm-.32,1.44h1.67v8.5h-1.67Z"/><path class="cls-4" d="M574.31,189.41h-4.64v-1.34h4.64ZM572.58,186v8a1.5,1.5,0,0,0,.14.7.76.76,0,0,0,.35.34,1.4,1.4,0,0,0,.53.09l.83,0v1.44a6.41,6.41,0,0,1-1,.07,3,3,0,0,1-1.25-.25,2.17,2.17,0,0,1-.9-.77,2.24,2.24,0,0,1-.34-1.25V186Z"/><path class="cls-4" d="M576.08,199.72v-1.4h.75a2,2,0,0,0,.53-.06.92.92,0,0,0,.42-.3,2.7,2.7,0,0,0,.39-.75l.21-.55-3.11-8.62h1.78l2.15,6.59h.08l2.16-6.59h1.78l-3.5,9.63a3.41,3.41,0,0,1-1,1.54,2.78,2.78,0,0,1-1.71.52A7,7,0,0,1,576.08,199.72Z"/><path class="cls-4" d="M523.21,204.46h4a4.48,4.48,0,0,1,2.16.48,3,3,0,0,1,1.32,1.3,4.32,4.32,0,0,1,0,3.8,3.07,3.07,0,0,1-1.32,1.3,4.49,4.49,0,0,1-2.17.48h-2.78v-1.46h2.61a2.8,2.8,0,0,0,1.34-.29,1.83,1.83,0,0,0,.78-.78,2.77,2.77,0,0,0,0-2.3,1.76,1.76,0,0,0-.78-.77,2.8,2.8,0,0,0-1.34-.28h-2.15v9.86h-1.72Z"/><path class="cls-4" d="M532.86,207.3h1.62v1.35h.08a2.21,2.21,0,0,1,.48-.79,2.17,2.17,0,0,1,.75-.51,2.41,2.41,0,0,1,.93-.18,5.33,5.33,0,0,1,.71,0v1.59l-.39-.06a2.74,2.74,0,0,0-.48,0,2.11,2.11,0,0,0-1,.25,1.84,1.84,0,0,0-.73.68,1.92,1.92,0,0,0-.26,1v5.18h-1.67Z"/><path class="cls-4" d="M539.91,215.42a3.73,3.73,0,0,1-1.4-1.54,5.64,5.64,0,0,1,0-4.6,3.7,3.7,0,0,1,1.4-1.55,4.3,4.3,0,0,1,4.17,0,3.67,3.67,0,0,1,1.39,1.55,5.64,5.64,0,0,1,0,4.6,3.71,3.71,0,0,1-1.39,1.54,4.23,4.23,0,0,1-4.17,0Zm3.34-1.24a2.46,2.46,0,0,0,.77-1.08,4.75,4.75,0,0,0,0-3,2.46,2.46,0,0,0-.77-1.08,2.17,2.17,0,0,0-2.51,0,2.42,2.42,0,0,0-.78,1.08,4.57,4.57,0,0,0,0,3,2.48,2.48,0,0,0,.78,1.08,2.21,2.21,0,0,0,2.51,0Z"/><path class="cls-4" d="M551.51,215.8h-1.79l-3.08-8.5h1.79l2.14,6.53h.09l2.15-6.53h1.79Z"/><path class="cls-4" d="M556.29,205.86a1.06,1.06,0,0,1-.39-.37.86.86,0,0,1-.15-.49.89.89,0,0,1,.15-.5,1.12,1.12,0,0,1,.39-.36,1,1,0,0,1,.52-.13,1.06,1.06,0,0,1,.52.13,1,1,0,0,1,.38.36.89.89,0,0,1,.15.5.86.86,0,0,1-.15.49,1,1,0,0,1-.38.37,1.06,1.06,0,0,1-.52.13A1,1,0,0,1,556.29,205.86ZM556,207.3h1.67v8.5H556Z"/><path class="cls-4" d="M561,215.43a3.52,3.52,0,0,1-1.27-1.53,5.61,5.61,0,0,1-.46-2.34,5.46,5.46,0,0,1,.47-2.34,3.45,3.45,0,0,1,1.27-1.51,3.3,3.3,0,0,1,1.84-.52,2.9,2.9,0,0,1,1.16.21,2.4,2.4,0,0,1,.74.51,3.74,3.74,0,0,1,.48.66l0,.05,0,.06h.09v-4.22h1.67V215.8h-1.63v-1.33h-.13l0,.08a4.42,4.42,0,0,1-.5.68,2.34,2.34,0,0,1-.75.51,2.75,2.75,0,0,1-1.17.22A3.19,3.19,0,0,1,561,215.43Zm3.4-1.26a2.31,2.31,0,0,0,.76-1,4.49,4.49,0,0,0,.26-1.57,4.36,4.36,0,0,0-.25-1.56,2.22,2.22,0,0,0-.76-1,2,2,0,0,0-1.2-.36A1.94,1.94,0,0,0,562,209a2.26,2.26,0,0,0-.75,1,4.21,4.21,0,0,0-.26,1.52,4.36,4.36,0,0,0,.26,1.54,2.42,2.42,0,0,0,.76,1.06,1.94,1.94,0,0,0,1.22.39A1.92,1.92,0,0,0,564.42,214.17Z"/><path class="cls-4" d="M570.75,215.43a3.58,3.58,0,0,1-1.4-1.53,5,5,0,0,1-.49-2.3,5.15,5.15,0,0,1,.49-2.3,3.75,3.75,0,0,1,1.38-1.56,3.8,3.8,0,0,1,2.06-.55,4.1,4.1,0,0,1,1.88.44,3.35,3.35,0,0,1,1.38,1.41,5.07,5.07,0,0,1,.52,2.42v.59h-6.78V210.8h5.13a2.45,2.45,0,0,0-.26-1.16,1.88,1.88,0,0,0-.74-.79,2,2,0,0,0-1.11-.29,2.15,2.15,0,0,0-1.19.33,2.28,2.28,0,0,0-.81.88,2.55,2.55,0,0,0-.29,1.19v1a3.15,3.15,0,0,0,.3,1.43,2.15,2.15,0,0,0,.84.92,2.46,2.46,0,0,0,1.26.32,2.35,2.35,0,0,0,.82-.13,1.88,1.88,0,0,0,.63-.33,1.62,1.62,0,0,0,.39-.48h1.7a2.88,2.88,0,0,1-.67,1.21,3.15,3.15,0,0,1-1.23.81,4.53,4.53,0,0,1-1.65.29A4.2,4.2,0,0,1,570.75,215.43Z"/><path class="cls-4" d="M578.22,207.3h1.62v1.35h.08a2.36,2.36,0,0,1,.48-.79,2.17,2.17,0,0,1,.75-.51,2.41,2.41,0,0,1,.93-.18,5.33,5.33,0,0,1,.71,0v1.59l-.39-.06a2.74,2.74,0,0,0-.48,0,2.11,2.11,0,0,0-1,.25,1.84,1.84,0,0,0-.73.68,1.92,1.92,0,0,0-.26,1v5.18h-1.67Z"/><g class="cls-6"><g class="cls-11"><line class="cls-12" x1="400.97" y1="557.68" x2="190.58" y2="777.75"/><line class="cls-12" x1="396.41" y1="557.7" x2="186.02" y2="777.76"/><line class="cls-12" x1="391.86" y1="557.72" x2="181.47" y2="777.78"/><line class="cls-12" x1="387.3" y1="557.74" x2="176.92" y2="777.8"/><line class="cls-12" x1="382.75" y1="557.76" x2="172.36" y2="777.82"/><line class="cls-12" x1="378.2" y1="557.77" x2="167.81" y2="777.84"/><line class="cls-12" x1="373.64" y1="557.79" x2="163.25" y2="777.85"/><line class="cls-12" x1="369.09" y1="557.81" x2="158.7" y2="777.87"/><line class="cls-12" x1="364.53" y1="557.83" x2="154.14" y2="777.89"/><line class="cls-12" x1="359.98" y1="557.85" x2="149.59" y2="777.91"/><line class="cls-12" x1="355.42" y1="557.86" x2="145.03" y2="777.93"/><line class="cls-12" x1="350.87" y1="557.88" x2="140.48" y2="777.94"/><line class="cls-12" x1="346.31" y1="557.9" x2="135.93" y2="777.96"/><line class="cls-12" x1="341.76" y1="557.92" x2="131.37" y2="777.98"/><line class="cls-12" x1="337.21" y1="557.94" x2="126.82" y2="778"/><line class="cls-12" x1="332.65" y1="557.96" x2="122.26" y2="778.02"/><line class="cls-12" x1="328.1" y1="557.97" x2="117.71" y2="778.03"/><line class="cls-12" x1="323.54" y1="557.99" x2="113.15" y2="778.05"/><line class="cls-12" x1="318.99" y1="558.01" x2="108.6" y2="778.07"/><line class="cls-12" x1="314.43" y1="558.03" x2="104.05" y2="778.09"/><line class="cls-12" x1="309.88" y1="558.05" x2="99.49" y2="778.11"/><line class="cls-12" x1="305.33" y1="558.06" x2="94.94" y2="778.12"/><line class="cls-12" x1="300.77" y1="558.08" x2="90.38" y2="778.14"/><line class="cls-12" x1="296.22" y1="558.1" x2="85.83" y2="778.16"/><line class="cls-12" x1="291.66" y1="558.12" x2="81.27" y2="778.18"/><line class="cls-12" x1="287.11" y1="558.14" x2="76.72" y2="778.2"/><line class="cls-12" x1="282.55" y1="558.15" x2="72.16" y2="778.22"/><line class="cls-12" x1="278" y1="558.17" x2="67.61" y2="778.23"/><line class="cls-12" x1="273.44" y1="558.19" x2="63.06" y2="778.25"/><line class="cls-12" x1="268.89" y1="558.21" x2="58.5" y2="778.27"/><line class="cls-12" x1="264.34" y1="558.23" x2="53.95" y2="778.29"/><line class="cls-12" x1="259.78" y1="558.24" x2="49.39" y2="778.31"/><line class="cls-12" x1="255.23" y1="558.26" x2="44.84" y2="778.32"/><line class="cls-12" x1="250.67" y1="558.28" x2="40.28" y2="778.34"/><line class="cls-12" x1="246.12" y1="558.3" x2="35.73" y2="778.36"/><line class="cls-12" x1="241.56" y1="558.32" x2="31.18" y2="778.38"/><line class="cls-12" x1="237.01" y1="558.33" x2="26.62" y2="778.4"/><line class="cls-12" x1="232.46" y1="558.35" x2="22.07" y2="778.41"/><line class="cls-12" x1="227.9" y1="558.37" x2="17.51" y2="778.43"/><line class="cls-12" x1="223.35" y1="558.39" x2="12.96" y2="778.45"/><line class="cls-12" x1="218.79" y1="558.41" x2="8.4" y2="778.47"/><line class="cls-12" x1="214.24" y1="558.43" x2="3.85" y2="778.49"/><line class="cls-12" x1="209.68" y1="558.44" x2="-0.7" y2="778.5"/><line class="cls-12" x1="205.13" y1="558.46" x2="-5.26" y2="778.52"/><line class="cls-12" x1="200.58" y1="558.48" x2="-9.81" y2="778.54"/><line class="cls-12" x1="196.02" y1="558.5" x2="-14.37" y2="778.56"/><line class="cls-12" x1="191.47" y1="558.52" x2="-18.92" y2="778.58"/><line class="cls-12" x1="186.91" y1="558.53" x2="-23.48" y2="778.59"/><line class="cls-12" x1="182.36" y1="558.55" x2="-28.03" y2="778.61"/><line class="cls-12" x1="177.8" y1="558.57" x2="-32.59" y2="778.63"/><line class="cls-12" x1="173.25" y1="558.59" x2="-37.14" y2="778.65"/><line class="cls-12" x1="168.69" y1="558.61" x2="-41.69" y2="778.67"/><line class="cls-12" x1="164.14" y1="558.62" x2="-46.25" y2="778.68"/><line class="cls-12" x1="159.59" y1="558.64" x2="-50.8" y2="778.7"/><line class="cls-12" x1="155.03" y1="558.66" x2="-55.36" y2="778.72"/><line class="cls-12" x1="150.48" y1="558.68" x2="-59.91" y2="778.74"/><line class="cls-12" x1="145.92" y1="558.7" x2="-64.47" y2="778.76"/><line class="cls-12" x1="141.37" y1="558.71" x2="-69.02" y2="778.78"/><line class="cls-12" x1="136.81" y1="558.73" x2="-73.57" y2="778.79"/><line class="cls-12" x1="132.26" y1="558.75" x2="-78.13" y2="778.81"/><line class="cls-12" x1="127.71" y1="558.77" x2="-82.68" y2="778.83"/><line class="cls-12" x1="123.15" y1="558.79" x2="-87.24" y2="778.85"/><line class="cls-12" x1="118.6" y1="558.8" x2="-91.79" y2="778.87"/><line class="cls-12" x1="114.04" y1="558.82" x2="-96.35" y2="778.88"/><line class="cls-12" x1="109.49" y1="558.84" x2="-100.9" y2="778.9"/><line class="cls-12" x1="104.93" y1="558.86" x2="-105.45" y2="778.92"/><line class="cls-12" x1="100.38" y1="558.88" x2="-110.01" y2="778.94"/><line class="cls-12" x1="95.83" y1="558.9" x2="-114.56" y2="778.96"/><line class="cls-12" x1="91.27" y1="558.91" x2="-119.12" y2="778.97"/><line class="cls-12" x1="86.72" y1="558.93" x2="-123.67" y2="778.99"/><line class="cls-12" x1="82.16" y1="558.95" x2="-128.23" y2="779.01"/><line class="cls-12" x1="77.61" y1="558.97" x2="-132.78" y2="779.03"/><line class="cls-12" x1="73.05" y1="558.99" x2="-137.34" y2="779.05"/><line class="cls-12" x1="68.5" y1="559" x2="-141.89" y2="779.06"/><line class="cls-12" x1="63.94" y1="559.02" x2="-146.44" y2="779.08"/></g></g><path class="cls-4" d="M91.69,645.8h3v14.38h7.48v2.57H91.69Z"/><path class="cls-4" d="M105.16,648a1.76,1.76,0,0,1-.63-.58,1.5,1.5,0,0,1,0-1.63,1.62,1.62,0,0,1,.63-.59A1.79,1.79,0,0,1,106,645a1.86,1.86,0,0,1,.87.21,1.53,1.53,0,0,1,.62.59,1.5,1.5,0,0,1,0,1.63,1.65,1.65,0,0,1-.62.58,1.76,1.76,0,0,1-.87.22A1.69,1.69,0,0,1,105.16,648Zm-.63,2h3v12.71h-3Z"/><path class="cls-4" d="M118.86,660.75h-.12l-.06.12a5.06,5.06,0,0,1-.75,1,3.49,3.49,0,0,1-1.14.76,4.15,4.15,0,0,1-1.69.31,4.8,4.8,0,0,1-2.7-.78,5.16,5.16,0,0,1-1.86-2.25,9.5,9.5,0,0,1,0-7.06,5.16,5.16,0,0,1,1.89-2.25,4.85,4.85,0,0,1,2.68-.76,4.18,4.18,0,0,1,1.69.31,3.39,3.39,0,0,1,1.12.76,5.52,5.52,0,0,1,.73,1,.25.25,0,0,1,0,.08l0,.09h.18V650h2.92v17.48h-3Zm-1.31-.73a3.22,3.22,0,0,0,1-1.45,6,6,0,0,0,.36-2.18,5.92,5.92,0,0,0-.36-2.16,2.94,2.94,0,0,0-1-1.42,2.94,2.94,0,0,0-3.28,0,3.1,3.1,0,0,0-1,1.44,6.6,6.6,0,0,0,0,4.27,3.31,3.31,0,0,0,1,1.46,2.6,2.6,0,0,0,1.64.53A2.66,2.66,0,0,0,117.55,660Z"/><path class="cls-4" d="M132.82,650h3v12.71h-2.89V660.5h-.13a3.69,3.69,0,0,1-.83,1.26,3.91,3.91,0,0,1-1.3.85,4.54,4.54,0,0,1-1.69.3,4.26,4.26,0,0,1-2.22-.56,3.93,3.93,0,0,1-1.49-1.65,5.77,5.77,0,0,1-.53-2.57V650h3v7.64a2.94,2.94,0,0,0,.31,1.39,2.18,2.18,0,0,0,.84.91,2.37,2.37,0,0,0,1.26.33,2.7,2.7,0,0,0,1.32-.34,2.63,2.63,0,0,0,1-1,3,3,0,0,0,.38-1.59Z"/><path class="cls-4" d="M139.31,648a1.76,1.76,0,0,1-.63-.58,1.5,1.5,0,0,1,0-1.63,1.62,1.62,0,0,1,.63-.59,1.87,1.87,0,0,1,1.72,0,1.5,1.5,0,0,1,.63.59,1.56,1.56,0,0,1,0,1.63,1.61,1.61,0,0,1-.63.58,1.79,1.79,0,0,1-1.72,0Zm-.63,2h3v12.71h-3Z"/><path class="cls-4" d="M146.55,662.19a5.24,5.24,0,0,1-1.87-2.25,8.49,8.49,0,0,1-.67-3.53,8.27,8.27,0,0,1,.68-3.53,5.21,5.21,0,0,1,1.88-2.25,4.9,4.9,0,0,1,2.69-.76,4.18,4.18,0,0,1,1.69.31,3.39,3.39,0,0,1,1.12.76,5.52,5.52,0,0,1,.73,1,.25.25,0,0,1,0,.08l0,.09H153V645.8h3v17h-2.92v-2h-.18l-.06.12a5.06,5.06,0,0,1-.75,1,3.39,3.39,0,0,1-1.14.76,4.15,4.15,0,0,1-1.69.31A4.8,4.8,0,0,1,146.55,662.19Zm5.14-2.17a3.16,3.16,0,0,0,1-1.45,6,6,0,0,0,.35-2.18,5.93,5.93,0,0,0-.35-2.16,3,3,0,0,0-1-1.42,2.94,2.94,0,0,0-3.28,0,3.17,3.17,0,0,0-1,1.44,6.6,6.6,0,0,0,0,4.27,3.31,3.31,0,0,0,1,1.46,2.81,2.81,0,0,0,3.26,0Z"/><path class="cls-4" d="M159.64,648a1.76,1.76,0,0,1-.63-.58,1.5,1.5,0,0,1,0-1.63,1.62,1.62,0,0,1,.63-.59,1.89,1.89,0,0,1,1.73,0,1.62,1.62,0,0,1,.63.59,1.56,1.56,0,0,1,0,1.63,1.76,1.76,0,0,1-.63.58,1.81,1.81,0,0,1-1.73,0Zm-.63,2h3v12.71h-3Z"/><path class="cls-4" d="M171.19,652.34H163.9V650h7.29Zm-2.5-5.35v11.94a1.89,1.89,0,0,0,.18.9,1.07,1.07,0,0,0,.47.45,2,2,0,0,0,.71.14c.23,0,.67,0,1.31-.06v2.44a10.73,10.73,0,0,1-1.69.12,5,5,0,0,1-2-.39,3.12,3.12,0,0,1-1.41-1.17,3.32,3.32,0,0,1-.51-1.94V647Z"/><path class="cls-4" d="M173.73,667.46v-2.39h.51l.75,0a3.13,3.13,0,0,0,.75-.08,1.13,1.13,0,0,0,.57-.39,2.94,2.94,0,0,0,.52-.95l.26-.68-4.62-13h3.17l2.93,9.61h.14l2.95-9.61h3.17l-5.1,14.26a5,5,0,0,1-1.64,2.39,4.52,4.52,0,0,1-2.82.83A15.37,15.37,0,0,1,173.73,667.46Z"/><path class="cls-4" d="M115.08,674.56h6.34a6.81,6.81,0,0,1,3.25.72,4.87,4.87,0,0,1,2,2,6.54,6.54,0,0,1,0,5.83,4.82,4.82,0,0,1-2,2,6.92,6.92,0,0,1-3.27.72h-4.22v-2.51H121a4,4,0,0,0,1.86-.39,2.63,2.63,0,0,0,1.1-1.09,3.9,3.9,0,0,0,0-3.23,2.53,2.53,0,0,0-1.1-1.07,4.15,4.15,0,0,0-1.87-.38h-2.84v14.4h-3Z"/><path class="cls-4" d="M131.88,690.94a5.45,5.45,0,0,1-2.13-2.3,7.5,7.5,0,0,1-.75-3.43,7.59,7.59,0,0,1,.75-3.45,5.53,5.53,0,0,1,2.13-2.31,6.71,6.71,0,0,1,6.43,0,5.51,5.51,0,0,1,2.12,2.31,7.59,7.59,0,0,1,.75,3.45,7.5,7.5,0,0,1-.75,3.43,5.43,5.43,0,0,1-2.12,2.3,6.71,6.71,0,0,1-6.43,0Zm4.9-2.11a3.34,3.34,0,0,0,1-1.5,6.18,6.18,0,0,0,.34-2.13,6.3,6.3,0,0,0-.34-2.15,3.34,3.34,0,0,0-1-1.5,2.82,2.82,0,0,0-3.37,0,3.35,3.35,0,0,0-1,1.5,6.06,6.06,0,0,0-.36,2.15,6,6,0,0,0,.36,2.13,3.35,3.35,0,0,0,1,1.5,2.86,2.86,0,0,0,3.37,0Z"/><path class="cls-4" d="M145.84,690.94a5.45,5.45,0,0,1-2.13-2.3,7.5,7.5,0,0,1-.75-3.43,7.59,7.59,0,0,1,.75-3.45,5.53,5.53,0,0,1,2.13-2.31,6.71,6.71,0,0,1,6.43,0,5.45,5.45,0,0,1,2.12,2.31,7.59,7.59,0,0,1,.75,3.45,7.5,7.5,0,0,1-.75,3.43,5.37,5.37,0,0,1-2.12,2.3,6.71,6.71,0,0,1-6.43,0Zm4.9-2.11a3.26,3.26,0,0,0,1-1.5,6.18,6.18,0,0,0,.35-2.13,6.3,6.3,0,0,0-.35-2.15,3.26,3.26,0,0,0-1-1.5,2.56,2.56,0,0,0-1.68-.56,2.61,2.61,0,0,0-1.69.56,3.35,3.35,0,0,0-1,1.5,6.06,6.06,0,0,0-.35,2.15,6,6,0,0,0,.35,2.13,3.35,3.35,0,0,0,1,1.5,2.66,2.66,0,0,0,1.69.55A2.61,2.61,0,0,0,150.74,688.83Z"/><path class="cls-4" d="M160.45,691.51h-3v-17h3Z"/><path class="cls-3" d="M60.66,601.52A102.4,102.4,0,0,0,44.5,626.85m0,0a102.15,102.15,0,1,0,16.16-25.33"/><path class="cls-4" d="M77.61,8H85l4.37,18.76h.23L94.48,8h6l4.94,18.8h.22L110.06,8h7.35L109.2,36.29h-6.43L97.63,18.87h-.22L92.24,36.29H85.8Z"/><path class="cls-4" d="M128.09,27.47c-.94.05-1.7.1-2.3.16a3.36,3.36,0,0,0-2,.78,2.16,2.16,0,0,0-.73,1.69,2,2,0,0,0,.34,1.2,2.16,2.16,0,0,0,1,.75,4,4,0,0,0,1.44.25,4.42,4.42,0,0,0,2-.46,3.51,3.51,0,0,0,1.43-1.26,3.34,3.34,0,0,0,.53-1.85l0-6.92a2.28,2.28,0,0,0-.35-1.27,2.18,2.18,0,0,0-1-.79,4,4,0,0,0-1.53-.27,4.23,4.23,0,0,0-1.53.25,2.62,2.62,0,0,0-1.07.73,2.42,2.42,0,0,0-.53,1.17H117.6a6.74,6.74,0,0,1,1.28-3.48,7.41,7.41,0,0,1,3.19-2.45,12.28,12.28,0,0,1,4.94-.9,13,13,0,0,1,4.78.82,7.51,7.51,0,0,1,3.33,2.43,6.21,6.21,0,0,1,1.22,3.85V36.29h-6.2v-3H130a6.18,6.18,0,0,1-1.46,1.83,6.24,6.24,0,0,1-2.05,1.12,9.68,9.68,0,0,1-6.3-.32,5.48,5.48,0,0,1-2.47-2.11,6.4,6.4,0,0,1-.89-3.46A5.58,5.58,0,0,1,119,25.54a10.56,10.56,0,0,1,5.7-1.79l2.14-.11,2.31-.1.92,0,.05,3.87C129.69,27.38,129,27.42,128.09,27.47Z"/><path class="cls-4" d="M147,36.29H140.4V8H147Z"/><path class="cls-4" d="M157.81,36.29h-6.59V8h6.59Z"/><path class="cls-4" d="M166.19,35.37a8.88,8.88,0,0,1-3.7-3.78,12.44,12.44,0,0,1-1.29-5.83A12.34,12.34,0,0,1,162.5,20a9.24,9.24,0,0,1,3.68-3.85,10.85,10.85,0,0,1,5.51-1.36A11,11,0,0,1,177,16.05a8.75,8.75,0,0,1,3.61,3.69,12.26,12.26,0,0,1,1.3,5.87V27.3H163.56V23.42h12.2a3.9,3.9,0,0,0-.51-2,3.55,3.55,0,0,0-1.4-1.37,4.23,4.23,0,0,0-2-.48,4.28,4.28,0,0,0-2.09.51,4.06,4.06,0,0,0-1.48,1.43,3.89,3.89,0,0,0-.54,2v3.9a5,5,0,0,0,.52,2.34,3.61,3.61,0,0,0,1.5,1.57,4.54,4.54,0,0,0,2.29.56,5.22,5.22,0,0,0,1.63-.24,3.47,3.47,0,0,0,1.25-.7,3,3,0,0,0,.79-1.08h6.13a7.66,7.66,0,0,1-1.69,3.6,8.38,8.38,0,0,1-3.41,2.36,12.93,12.93,0,0,1-4.83.84A11.71,11.71,0,0,1,166.19,35.37Z"/><path class="cls-4" d="M197.13,19.94H183.87V15.07h13.26Zm-3.84-10V29.65a2.09,2.09,0,0,0,.21,1,1.19,1.19,0,0,0,.59.56,2.86,2.86,0,0,0,1,.2,23,23,0,0,0,2.36-.11v5a21.29,21.29,0,0,1-3.29.23,10.72,10.72,0,0,1-4-.67,5.39,5.39,0,0,1-2.53-2.05,6.18,6.18,0,0,1-.87-3.46V10Z"/><g class="cls-8"><line class="cls-9" x1="254.96" y1="674.64" x2="430.5" y2="674.64"/><polygon class="cls-4" points="429.04 679.63 437.67 674.64 429.04 669.66 429.04 679.63"/></g><g class="cls-8"><line class="cls-9" x1="262.13" y1="662.12" x2="437.67" y2="662.12"/><polygon class="cls-4" points="263.59 667.11 254.96 662.12 263.59 657.14 263.59 667.11"/></g><path class="cls-4" d="M299.29,680.6h1.39v8h4.17v1.2h-5.56Z"/><path class="cls-4" d="M306.27,680.6h3.29a3.62,3.62,0,0,1,1.75.38,2.49,2.49,0,0,1,1.08,1,3.59,3.59,0,0,1,0,3.09,2.63,2.63,0,0,1-1.08,1.06,3.62,3.62,0,0,1-1.75.39H307.3v-1.19h2.12a2.21,2.21,0,0,0,1.08-.24,1.37,1.37,0,0,0,.63-.63,2.19,2.19,0,0,0,0-1.87,1.4,1.4,0,0,0-.63-.62,2.35,2.35,0,0,0-1.09-.23h-1.74v8h-1.4Z"/><path class="cls-4" d="M316.93,680.6h7.12v1.2h-2.86v8H319.8v-8h-2.87Z"/><path class="cls-4" d="M325.58,689.48a2.94,2.94,0,0,1-1.14-1.25,4.18,4.18,0,0,1-.4-1.86,4.25,4.25,0,0,1,.4-1.87,2.94,2.94,0,0,1,1.14-1.25,3.4,3.4,0,0,1,3.38,0,2.9,2.9,0,0,1,1.12,1.25,4.12,4.12,0,0,1,.4,1.87,4,4,0,0,1-.4,1.86,2.9,2.9,0,0,1-1.12,1.25,3.4,3.4,0,0,1-3.38,0Zm2.71-1a1.88,1.88,0,0,0,.62-.87,3.71,3.71,0,0,0,0-2.46,2,2,0,0,0-.62-.88,1.6,1.6,0,0,0-1-.33,1.58,1.58,0,0,0-1,.33,1.92,1.92,0,0,0-.63.88,3.71,3.71,0,0,0,0,2.46,1.89,1.89,0,0,0,.63.87,1.58,1.58,0,0,0,1,.33A1.6,1.6,0,0,0,328.29,688.47Z"/><path class="cls-4" d="M331.82,680.6h1.36v9.19h-1.36Zm1.24,5.21h.24l2.73-2.92h1.62l-3.13,3.33h-.21l-1.24,1.23Zm.66.71.93-.95,3.19,4.22h-1.66Z"/><path class="cls-4" d="M339.66,689.49a2.8,2.8,0,0,1-1.14-1.24,4,4,0,0,1-.4-1.86,4.15,4.15,0,0,1,.4-1.87,3,3,0,0,1,2.79-1.72,3.15,3.15,0,0,1,1.53.37A2.69,2.69,0,0,1,344,684.3a4.13,4.13,0,0,1,.43,2v.48h-5.5v-1H343a2,2,0,0,0-.21-.94,1.64,1.64,0,0,0-.6-.65,1.8,1.8,0,0,0-.9-.23,1.75,1.75,0,0,0-1,.27,1.88,1.88,0,0,0-.66.71,2.13,2.13,0,0,0-.23,1v.78a2.58,2.58,0,0,0,.24,1.16,1.77,1.77,0,0,0,.68.75,2,2,0,0,0,1,.25,2.29,2.29,0,0,0,.66-.09,1.76,1.76,0,0,0,.51-.27,1.45,1.45,0,0,0,.32-.39h1.38a2.44,2.44,0,0,1-.55,1,2.69,2.69,0,0,1-1,.66,3.8,3.8,0,0,1-1.34.23A3.39,3.39,0,0,1,339.66,689.49Z"/><path class="cls-4" d="M347.07,689.79h-1.35v-6.9H347V684h.08a2.29,2.29,0,0,1,.45-.65,2,2,0,0,1,.68-.42,2.59,2.59,0,0,1,.91-.15,2.5,2.5,0,0,1,1.24.3,2.06,2.06,0,0,1,.82.88,3.24,3.24,0,0,1,.29,1.42v4.39h-1.36v-4.22a2.06,2.06,0,0,0-.17-.86,1.27,1.27,0,0,0-.5-.55,1.61,1.61,0,0,0-.78-.18,1.57,1.57,0,0,0-.83.2,1.47,1.47,0,0,0-.57.59,1.94,1.94,0,0,0-.21.93Z"/><path class="cls-4" d="M356.41,680.6h3.29a3.84,3.84,0,0,1,1.75.36,2.33,2.33,0,0,1,1.07,1,3,3,0,0,1,.36,1.51,3.13,3.13,0,0,1-.35,1.5,2.39,2.39,0,0,1-1.07,1,4.07,4.07,0,0,1-1.77.35H357.2v-1.2h2.35a2.67,2.67,0,0,0,1.1-.2,1.29,1.29,0,0,0,.62-.55,1.75,1.75,0,0,0,.2-.89,1.83,1.83,0,0,0-.2-.91,1.33,1.33,0,0,0-.63-.58,2.62,2.62,0,0,0-1.09-.2h-1.74v8h-1.4Zm6.82,9.19h-1.59l-2.23-4.15H361Z"/><path class="cls-4" d="M365.45,689.49a2.92,2.92,0,0,1-1.14-1.24,4.18,4.18,0,0,1-.39-1.86,4.28,4.28,0,0,1,.39-1.87,3.05,3.05,0,0,1,1.12-1.26,3,3,0,0,1,1.67-.46,3.15,3.15,0,0,1,1.53.37,2.71,2.71,0,0,1,1.12,1.13,4.14,4.14,0,0,1,.42,2v.48h-5.5v-1h4.17a2,2,0,0,0-.22-.94,1.57,1.57,0,0,0-.6-.65,1.82,1.82,0,0,0-2.52.75,2.14,2.14,0,0,0-.24,1v.78a2.58,2.58,0,0,0,.24,1.16,1.79,1.79,0,0,0,.69.75,2,2,0,0,0,1,.25,2.31,2.31,0,0,0,.67-.09,1.7,1.7,0,0,0,.5-.27,1.49,1.49,0,0,0,.33-.39h1.37a2.31,2.31,0,0,1-.54,1,2.82,2.82,0,0,1-1,.66,3.8,3.8,0,0,1-1.34.23A3.42,3.42,0,0,1,365.45,689.49Z"/><path class="cls-4" d="M371,682.89h1.4L373.7,688h.07l1.35-5.06h1.4l1.34,5h.07l1.33-5h1.4l-2,6.9h-1.38l-1.4-5h-.1l-1.39,5H373Z"/><path class="cls-4" d="M385.16,686.72l-.93.06a2.09,2.09,0,0,0-1.07.32.87.87,0,0,0-.37.76.92.92,0,0,0,.16.55,1.07,1.07,0,0,0,.46.34,2,2,0,0,0,.68.11,1.89,1.89,0,0,0,.94-.22,1.47,1.47,0,0,0,.61-.57,1.49,1.49,0,0,0,.21-.77v-2.18a1.24,1.24,0,0,0-.16-.66,1.07,1.07,0,0,0-.47-.42,2.17,2.17,0,0,0-1.45,0,1.29,1.29,0,0,0-.49.31,1.13,1.13,0,0,0-.26.45h-1.35a2,2,0,0,1,.43-1,2.31,2.31,0,0,1,1-.7,3.65,3.65,0,0,1,1.41-.26,3.85,3.85,0,0,1,1.27.21,2.11,2.11,0,0,1,1,.74,2.3,2.3,0,0,1,.42,1.46v4.58h-1.32v-.94h-.05a1.93,1.93,0,0,1-1.09.93,2.56,2.56,0,0,1-.95.16,2.7,2.7,0,0,1-1.19-.25,2,2,0,0,1-.84-.72,2,2,0,0,1-.3-1.13,1.65,1.65,0,0,1,.72-1.52,3.88,3.88,0,0,1,1.85-.54l.74,0,.8,0,.35,0,0,1Z"/><path class="cls-4" d="M388.84,682.89h1.31V684h.07a1.73,1.73,0,0,1,.38-.64,2,2,0,0,1,.61-.42,2.14,2.14,0,0,1,.76-.14,5.35,5.35,0,0,1,.58,0v1.3l-.32-.06-.39,0a1.84,1.84,0,0,0-.85.2,1.55,1.55,0,0,0-.8,1.36v4.2h-1.35Z"/><path class="cls-4" d="M394.43,689.49a2.83,2.83,0,0,1-1-1.24,4.44,4.44,0,0,1-.37-1.9,4.39,4.39,0,0,1,.38-1.89,2.8,2.8,0,0,1,1-1.23,2.71,2.71,0,0,1,1.49-.43,2.22,2.22,0,0,1,.94.18,1.76,1.76,0,0,1,.6.41,3.78,3.78,0,0,1,.4.54.08.08,0,0,0,0,0,.05.05,0,0,1,0,0H398V680.6h1.35v9.19H398v-1.07h-.11l0,0a3.49,3.49,0,0,1-.4.56,1.91,1.91,0,0,1-.61.41,2.3,2.3,0,0,1-.95.18A2.61,2.61,0,0,1,394.43,689.49Zm2.76-1a1.92,1.92,0,0,0,.62-.86,3.52,3.52,0,0,0,.21-1.27,3.47,3.47,0,0,0-.21-1.26,1.76,1.76,0,0,0-.61-.83,1.79,1.79,0,0,0-2,0,1.85,1.85,0,0,0-.61.85,3.37,3.37,0,0,0-.21,1.23,3.49,3.49,0,0,0,.21,1.25,2,2,0,0,0,.62.87,1.55,1.55,0,0,0,1,.31A1.58,1.58,0,0,0,397.19,688.47Z"/><path class="cls-4" d="M278.22,631.32h1.39v8h4.16v1.2h-5.55Z"/><path class="cls-4" d="M285.36,632.45a.84.84,0,0,1-.32-.3.69.69,0,0,1-.12-.39.73.73,0,0,1,.12-.41.81.81,0,0,1,.32-.29.86.86,0,0,1,.84,0,.75.75,0,0,1,.32.29.81.81,0,0,1,.11.41.79.79,0,0,1-.43.69.86.86,0,0,1-.84,0Zm-.26,1.17h1.35v6.89H285.1Z"/><path class="cls-4" d="M292.75,639.44h-.07l0,.06a2.88,2.88,0,0,1-.4.55,1.82,1.82,0,0,1-.61.42,2.27,2.27,0,0,1-.95.18,2.73,2.73,0,0,1-1.49-.43,2.94,2.94,0,0,1-1-1.24,5.06,5.06,0,0,1,0-3.8,2.93,2.93,0,0,1,1-1.23,2.73,2.73,0,0,1,1.5-.42,2.43,2.43,0,0,1,.94.17,1.91,1.91,0,0,1,.6.41,3.74,3.74,0,0,1,.39.54l0,0,0,0h.1v-1.12h1.33v9.48h-1.36Zm-.79-.25a1.87,1.87,0,0,0,.61-.85,3.56,3.56,0,0,0,.21-1.27,3.49,3.49,0,0,0-.2-1.27A1.81,1.81,0,0,0,292,635a1.64,1.64,0,0,0-1-.29,1.61,1.61,0,0,0-1,.31,1.84,1.84,0,0,0-.61.84,3.4,3.4,0,0,0-.2,1.24,3.52,3.52,0,0,0,.21,1.25,2,2,0,0,0,.61.86,1.56,1.56,0,0,0,1,.31A1.62,1.62,0,0,0,292,639.19Z"/><path class="cls-4" d="M300.14,633.62h1.34v6.89h-1.32v-1.19h-.07a2.15,2.15,0,0,1-.45.66,2.24,2.24,0,0,1-.7.46,2.42,2.42,0,0,1-.91.16,2.31,2.31,0,0,1-1.19-.3,1.89,1.89,0,0,1-.79-.88,3.08,3.08,0,0,1-.29-1.42v-4.38h1.36v4.22a1.73,1.73,0,0,0,.18.81,1.26,1.26,0,0,0,.49.53,1.35,1.35,0,0,0,.73.19,1.58,1.58,0,0,0,1.38-.78,1.75,1.75,0,0,0,.24-.94Z"/><path class="cls-4" d="M303.4,632.45a.84.84,0,0,1-.32-.3.69.69,0,0,1-.12-.39.73.73,0,0,1,.12-.41.81.81,0,0,1,.32-.29.86.86,0,0,1,.84,0,.75.75,0,0,1,.32.29.81.81,0,0,1,.11.41.79.79,0,0,1-.43.69.86.86,0,0,1-.84,0Zm-.26,1.17h1.35v6.89h-1.35Z"/><path class="cls-4" d="M307.24,640.22a2.89,2.89,0,0,1-1-1.24,5.06,5.06,0,0,1,0-3.8,2.93,2.93,0,0,1,1-1.23,2.73,2.73,0,0,1,1.5-.42,2.43,2.43,0,0,1,.94.17,1.91,1.91,0,0,1,.6.41,3.74,3.74,0,0,1,.39.54l0,0,0,0h.07v-3.42h1.36v9.19h-1.33v-1.07h-.1l0,.06a2.88,2.88,0,0,1-.4.55,1.82,1.82,0,0,1-.61.42,2.24,2.24,0,0,1-.95.18A2.67,2.67,0,0,1,307.24,640.22Zm2.76-1a1.87,1.87,0,0,0,.61-.85,3.56,3.56,0,0,0,.21-1.27,3.49,3.49,0,0,0-.2-1.27A1.86,1.86,0,0,0,310,635a1.69,1.69,0,0,0-1-.29,1.61,1.61,0,0,0-1,.31,1.84,1.84,0,0,0-.61.84,3.4,3.4,0,0,0-.2,1.24,3.52,3.52,0,0,0,.21,1.25,2,2,0,0,0,.61.86,1.56,1.56,0,0,0,1,.31A1.6,1.6,0,0,0,310,639.19Z"/><path class="cls-4" d="M314.17,632.45a.81.81,0,0,1-.31-.3.69.69,0,0,1-.12-.39.73.73,0,0,1,.12-.41.78.78,0,0,1,.31-.29.89.89,0,0,1,.43-.11.88.88,0,0,1,.42.11.78.78,0,0,1,.31.29.72.72,0,0,1,.11.41.68.68,0,0,1-.11.39.81.81,0,0,1-.31.3.88.88,0,0,1-.42.11A.89.89,0,0,1,314.17,632.45Zm-.26,1.17h1.35v6.89h-1.35Z"/><path class="cls-4" d="M320.14,634.7h-3.77v-1.08h3.77ZM318.73,632v6.51a1.1,1.1,0,0,0,.12.57.63.63,0,0,0,.28.28,1.11,1.11,0,0,0,.43.07c.12,0,.34,0,.67,0v1.16a5.17,5.17,0,0,1-.84.06,2.51,2.51,0,0,1-1-.2,1.79,1.79,0,0,1-.74-.62,1.85,1.85,0,0,1-.27-1V632Z"/><path class="cls-4" d="M321.57,643.07v-1.13h.61a1.8,1.8,0,0,0,.43,0,.74.74,0,0,0,.34-.25,2,2,0,0,0,.32-.6l.17-.45-2.53-7h1.45l1.74,5.34h.07l1.75-5.34h1.45l-2.85,7.81a2.65,2.65,0,0,1-.85,1.25,2.18,2.18,0,0,1-1.38.42A6.78,6.78,0,0,1,321.57,643.07Z"/><path class="cls-4" d="M336.48,633a1.46,1.46,0,0,0-.66-.46,2.45,2.45,0,0,0-.93-.16,2.4,2.4,0,0,0-1,.18,1.41,1.41,0,0,0-.65.48,1.17,1.17,0,0,0-.23.7,1,1,0,0,0,.48.89,3.74,3.74,0,0,0,1.19.5l.9.23a6.14,6.14,0,0,1,1.29.47,2.7,2.7,0,0,1,1,.82,2.11,2.11,0,0,1,.39,1.3,2.44,2.44,0,0,1-.4,1.39,2.67,2.67,0,0,1-1.17,1,5,5,0,0,1-3.62,0,2.71,2.71,0,0,1-1.18-.94,2.63,2.63,0,0,1-.48-1.43h1.4a1.4,1.4,0,0,0,.32.81,1.62,1.62,0,0,0,.72.49,2.87,2.87,0,0,0,1,.17,2.69,2.69,0,0,0,1.05-.19,1.68,1.68,0,0,0,.72-.52,1.24,1.24,0,0,0,.26-.78,1,1,0,0,0-.22-.64,1.59,1.59,0,0,0-.59-.43,6.61,6.61,0,0,0-.93-.32l-1.08-.29a4,4,0,0,1-1.78-.91,2,2,0,0,1-.62-1.52,2.29,2.29,0,0,1,.43-1.38,2.73,2.73,0,0,1,1.17-.93,4.26,4.26,0,0,1,3.31,0,2.67,2.67,0,0,1,1.14.91,2.38,2.38,0,0,1,.43,1.31h-1.36A1.22,1.22,0,0,0,336.48,633Z"/><path class="cls-4" d="M344,633.62h1.35v6.89h-1.32v-1.19H344a2,2,0,0,1-.46.66,2.09,2.09,0,0,1-.69.46,2.47,2.47,0,0,1-.92.16,2.3,2.3,0,0,1-1.18-.3,2,2,0,0,1-.8-.88,3.21,3.21,0,0,1-.28-1.42v-4.38H341v4.22a1.73,1.73,0,0,0,.18.81,1.28,1.28,0,0,0,.5.53,1.34,1.34,0,0,0,.72.19,1.66,1.66,0,0,0,.78-.19,1.72,1.72,0,0,0,.61-.59,1.75,1.75,0,0,0,.23-.94Z"/><path class="cls-4" d="M347,633.62h1.33v1.12h.11s0,0,0,0a.05.05,0,0,0,0,0,3.78,3.78,0,0,1,.4-.54,2.17,2.17,0,0,1,.6-.41,2.39,2.39,0,0,1,.94-.17,2.7,2.7,0,0,1,1.49.42,2.79,2.79,0,0,1,1,1.23,5.06,5.06,0,0,1,0,3.8,2.8,2.8,0,0,1-1,1.24,2.68,2.68,0,0,1-1.49.43,2.19,2.19,0,0,1-1-.19,1.79,1.79,0,0,1-.61-.43,3,3,0,0,1-.4-.56h0v0h-.08v3.66H347Zm1.54,4.72a1.89,1.89,0,0,0,.62.85,1.58,1.58,0,0,0,1,.3,1.56,1.56,0,0,0,1-.31,1.88,1.88,0,0,0,.61-.86,3.52,3.52,0,0,0,.21-1.25,3.62,3.62,0,0,0-.2-1.24,1.84,1.84,0,0,0-.61-.84,1.61,1.61,0,0,0-1-.31,1.65,1.65,0,0,0-1,.29,1.86,1.86,0,0,0-.61.83,3.48,3.48,0,0,0-.21,1.27A3.56,3.56,0,0,0,348.56,638.34Z"/><path class="cls-4" d="M354.68,633.62H356v1.12h.11l0,0,0,0a3.15,3.15,0,0,1,.4-.54,2,2,0,0,1,.6-.41,2.39,2.39,0,0,1,.94-.17,2.72,2.72,0,0,1,1.49.42,2.86,2.86,0,0,1,1,1.23,5.06,5.06,0,0,1,0,3.8,2.8,2.8,0,0,1-1,1.24,2.71,2.71,0,0,1-1.49.43,2.13,2.13,0,0,1-1-.19,1.7,1.7,0,0,1-.61-.43,3,3,0,0,1-.4-.56h0v0H356v3.66h-1.36Zm1.54,4.72a1.89,1.89,0,0,0,.62.85,1.56,1.56,0,0,0,1,.3,1.6,1.6,0,0,0,1-.31,2,2,0,0,0,.61-.86,3.52,3.52,0,0,0,.21-1.25,3.62,3.62,0,0,0-.2-1.24,1.79,1.79,0,0,0-.62-.84,1.56,1.56,0,0,0-1-.31,1.65,1.65,0,0,0-1,.29,1.86,1.86,0,0,0-.61.83,3.48,3.48,0,0,0-.21,1.27A3.56,3.56,0,0,0,356.22,638.34Z"/><path class="cls-4" d="M363.69,640.51h-1.35v-9.19h1.35Z"/><path class="cls-4" d="M365.45,643.07v-1.13h.61a1.74,1.74,0,0,0,.43,0,.7.7,0,0,0,.34-.25,2,2,0,0,0,.32-.6l.17-.45-2.53-7h1.45L368,639h.07l1.75-5.34h1.45l-2.84,7.81a2.72,2.72,0,0,1-.85,1.25,2.23,2.23,0,0,1-1.39.42A6.91,6.91,0,0,1,365.45,643.07Z"/><path class="cls-4" d="M378.76,634.7H375v-1.08h3.77Zm-1.4-2.73v6.51a1.22,1.22,0,0,0,.11.57.65.65,0,0,0,.29.28,1.09,1.09,0,0,0,.42.07c.12,0,.35,0,.68,0v1.16a5.35,5.35,0,0,1-.84.06,2.53,2.53,0,0,1-1-.2,1.76,1.76,0,0,1-.73-.62,1.85,1.85,0,0,1-.28-1V632Z"/><path class="cls-4" d="M381.59,640.51h-1.36v-9.19h1.34v3.42h.08a2.16,2.16,0,0,1,.45-.65,1.91,1.91,0,0,1,.67-.42,2.93,2.93,0,0,1,.93-.14,2.62,2.62,0,0,1,1.25.29,2,2,0,0,1,.82.88,3.22,3.22,0,0,1,.29,1.43v4.38H384.7v-4.22a2.06,2.06,0,0,0-.17-.86,1.21,1.21,0,0,0-.51-.54,1.52,1.52,0,0,0-.79-.19,1.81,1.81,0,0,0-.85.2,1.52,1.52,0,0,0-.58.6,1.89,1.89,0,0,0-.21.92Z"/><path class="cls-4" d="M387.7,633.62H389v1.1h.07a1.81,1.81,0,0,1,.39-.64,1.52,1.52,0,0,1,.61-.42,1.86,1.86,0,0,1,.75-.15,5.11,5.11,0,0,1,.58,0v1.29l-.32-.06-.39,0a1.68,1.68,0,0,0-.84.2,1.42,1.42,0,0,0-.59.55,1.54,1.54,0,0,0-.21.8v4.2H387.7Z"/><path class="cls-4" d="M393.42,640.21a3,3,0,0,1-1.13-1.25,4.1,4.1,0,0,1-.4-1.86,4.16,4.16,0,0,1,.4-1.88,3,3,0,0,1,1.13-1.25,3.47,3.47,0,0,1,3.38,0,3,3,0,0,1,1.13,1.25,4.3,4.3,0,0,1,.4,1.88,4.24,4.24,0,0,1-.4,1.86,3,3,0,0,1-1.13,1.25,3.47,3.47,0,0,1-3.38,0Zm2.71-1a2,2,0,0,0,.63-.88,3.88,3.88,0,0,0,0-2.46,2,2,0,0,0-.63-.88,1.55,1.55,0,0,0-1-.32,1.6,1.6,0,0,0-1,.32,2,2,0,0,0-.62.88,3.55,3.55,0,0,0,0,2.46,2,2,0,0,0,.62.88,1.66,1.66,0,0,0,1,.32A1.6,1.6,0,0,0,396.13,639.2Z"/><path class="cls-4" d="M404.05,633.62h1.34v6.89h-1.32v-1.19H404a2.15,2.15,0,0,1-.45.66,2.24,2.24,0,0,1-.7.46,2.45,2.45,0,0,1-.91.16,2.31,2.31,0,0,1-1.19-.3,2,2,0,0,1-.8-.88,3.21,3.21,0,0,1-.28-1.42v-4.38H401v4.22a1.73,1.73,0,0,0,.18.81,1.28,1.28,0,0,0,.5.53,1.35,1.35,0,0,0,.73.19,1.58,1.58,0,0,0,1.38-.78,1.75,1.75,0,0,0,.24-.94Z"/><path class="cls-4" d="M408.42,643a2.51,2.51,0,0,1-1.05-.71,2.06,2.06,0,0,1-.44-1.11h1.38a1.08,1.08,0,0,0,.28.54,1.3,1.3,0,0,0,.56.33,2.78,2.78,0,0,0,.81.11,2,2,0,0,0,1.29-.38,1.42,1.42,0,0,0,.46-1.17v-1.35h-.09l0,0a2.34,2.34,0,0,1-.39.53,1.81,1.81,0,0,1-.61.41,2.37,2.37,0,0,1-1,.18,2.71,2.71,0,0,1-1.48-.4,2.74,2.74,0,0,1-1-1.17,4.07,4.07,0,0,1-.38-1.85,4.24,4.24,0,0,1,.37-1.85,2.7,2.7,0,0,1,2.53-1.61,2.34,2.34,0,0,1,.93.17,2.09,2.09,0,0,1,.61.41,3.19,3.19,0,0,1,.4.53l.06.1h.09v-1.12h1.32v7a2.42,2.42,0,0,1-.4,1.44,2.32,2.32,0,0,1-1.1.86,4.25,4.25,0,0,1-1.61.28A4.37,4.37,0,0,1,408.42,643Zm2.48-4a1.74,1.74,0,0,0,.62-.78,3.21,3.21,0,0,0,.21-1.22,3.3,3.3,0,0,0-.21-1.23,1.83,1.83,0,0,0-.61-.82,1.67,1.67,0,0,0-1-.29,1.62,1.62,0,0,0-1,.3,1.91,1.91,0,0,0-.62.84,3.43,3.43,0,0,0-.2,1.2,3.09,3.09,0,0,0,.21,1.19,1.77,1.77,0,0,0,.61.8,1.67,1.67,0,0,0,1,.28A1.7,1.7,0,0,0,410.9,639Z"/><path class="cls-4" d="M416.06,640.51H414.7v-9.19H416v3.42h.09a2,2,0,0,1,.44-.65,1.91,1.91,0,0,1,.67-.42,2.93,2.93,0,0,1,.93-.14,2.62,2.62,0,0,1,1.25.29,2,2,0,0,1,.82.88,3.22,3.22,0,0,1,.29,1.43v4.38h-1.36v-4.22a2.06,2.06,0,0,0-.17-.86,1.21,1.21,0,0,0-.51-.54,1.5,1.5,0,0,0-.78-.19,1.85,1.85,0,0,0-.86.2,1.52,1.52,0,0,0-.58.6,1.89,1.89,0,0,0-.21.92Z"/><path class="cls-4" d="M270.7,646.92l2.92,7.12h.1l2.92-7.12h1.7v9.19H277v-6.63h-.09l-2.7,6.62h-1.11l-2.7-6.64h-.08v6.65H269v-9.19Z"/><path class="cls-4" d="M279.51,656.11l3.3-9.19h1.62l3.31,9.19h-1.49l-2.59-7.51h-.07l-2.6,7.51Zm6.5-3.6v1.17h-4.78v-1.17Z"/><path class="cls-4" d="M291.31,654.4h.1l2.56-7.48h1.51l-3.31,9.19h-1.62l-3.3-9.19h1.51Z"/><path class="cls-4" d="M299.36,646.92h7.13v1.2h-2.86v8h-1.4v-8h-2.87Z"/><path class="cls-4" d="M308,655.81a3,3,0,0,1-1.13-1.25,4.1,4.1,0,0,1-.4-1.86,4.16,4.16,0,0,1,.4-1.88,3,3,0,0,1,1.13-1.25,3.47,3.47,0,0,1,3.38,0,3,3,0,0,1,1.13,1.25,4.3,4.3,0,0,1,.4,1.88,4.24,4.24,0,0,1-.4,1.86,3,3,0,0,1-1.13,1.25,3.47,3.47,0,0,1-3.38,0Zm2.71-1a2,2,0,0,0,.63-.88,3.88,3.88,0,0,0,0-2.46,2,2,0,0,0-.63-.88,1.55,1.55,0,0,0-1-.33,1.61,1.61,0,0,0-1,.33,2,2,0,0,0-.62.88,3.55,3.55,0,0,0,0,2.46,2,2,0,0,0,.62.88,1.66,1.66,0,0,0,1,.32A1.6,1.6,0,0,0,310.72,654.8Z"/><path class="cls-4" d="M314.26,646.92h1.35v9.19h-1.35Zm1.24,5.21h.23l2.74-2.91h1.62L317,652.54h-.22l-1.23,1.24Zm.65.72.94-1,3.18,4.22h-1.65Z"/><path class="cls-4" d="M322.09,655.81a3,3,0,0,1-1.14-1.23,4.65,4.65,0,0,1,0-3.73,3,3,0,0,1,1.12-1.27,3.12,3.12,0,0,1,1.67-.45,3.26,3.26,0,0,1,1.53.36,2.68,2.68,0,0,1,1.12,1.14,4.07,4.07,0,0,1,.42,2v.48h-5.5v-1h4.17a2,2,0,0,0-.22-.94,1.63,1.63,0,0,0-.6-.65,1.88,1.88,0,0,0-1.87,0,1.85,1.85,0,0,0-.65.71,2.14,2.14,0,0,0-.24,1V653a2.5,2.5,0,0,0,.25,1.17,1.68,1.68,0,0,0,.68.74,2,2,0,0,0,1,.26,2,2,0,0,0,.67-.1,1.58,1.58,0,0,0,.5-.27,1.23,1.23,0,0,0,.33-.39h1.37a2.4,2.4,0,0,1-.54,1,2.52,2.52,0,0,1-1,.65,3.56,3.56,0,0,1-1.34.23A3.32,3.32,0,0,1,322.09,655.81Z"/><path class="cls-4" d="M329.51,656.11h-1.36v-6.89h1.3v1.12h.09a2.06,2.06,0,0,1,.45-.64,1.74,1.74,0,0,1,.68-.42,2.5,2.5,0,0,1,.9-.15,2.55,2.55,0,0,1,1.24.29,2,2,0,0,1,.82.89,3.21,3.21,0,0,1,.29,1.42v4.38h-1.36v-4.22a1.87,1.87,0,0,0-.17-.85,1.17,1.17,0,0,0-.5-.55,1.5,1.5,0,0,0-.78-.19,1.73,1.73,0,0,0-.83.2,1.5,1.5,0,0,0-.57.6,2,2,0,0,0-.2.92Z"/><path class="cls-4" d="M340,655.81a3,3,0,0,1-1.13-1.25,4.1,4.1,0,0,1-.4-1.86,4.16,4.16,0,0,1,.4-1.88,3,3,0,0,1,1.13-1.25,3.47,3.47,0,0,1,3.38,0,3,3,0,0,1,1.13,1.25,4.3,4.3,0,0,1,.39,1.88,4.24,4.24,0,0,1-.39,1.86,3,3,0,0,1-1.13,1.25,3.47,3.47,0,0,1-3.38,0Zm2.71-1a1.89,1.89,0,0,0,.62-.88,3.71,3.71,0,0,0,0-2.46,1.89,1.89,0,0,0-.62-.88,1.58,1.58,0,0,0-1-.33,1.6,1.6,0,0,0-1,.33,2,2,0,0,0-.63.88,3.71,3.71,0,0,0,0,2.46,2,2,0,0,0,.63.88,1.65,1.65,0,0,0,1,.32A1.63,1.63,0,0,0,342.67,654.8Z"/><path class="cls-4" d="M346.21,649.22h1.31v1.1h.07a1.65,1.65,0,0,1,.38-.64,1.59,1.59,0,0,1,.61-.42,1.93,1.93,0,0,1,.75-.15,3.52,3.52,0,0,1,.58,0v1.29l-.31-.06-.39,0a1.7,1.7,0,0,0-.85.2,1.49,1.49,0,0,0-.59.55,1.54,1.54,0,0,0-.21.8v4.2h-1.35Z"/><path class="cls-4" d="M355.32,655.81a3,3,0,0,1-1.13-1.25,4.1,4.1,0,0,1-.4-1.86,4.16,4.16,0,0,1,.4-1.88,3,3,0,0,1,1.13-1.25,3.47,3.47,0,0,1,3.38,0,3,3,0,0,1,1.13,1.25,4.3,4.3,0,0,1,.4,1.88,4.24,4.24,0,0,1-.4,1.86,3,3,0,0,1-1.13,1.25,3.47,3.47,0,0,1-3.38,0Zm2.71-1a1.89,1.89,0,0,0,.62-.88,3.71,3.71,0,0,0,0-2.46,1.89,1.89,0,0,0-.62-.88,1.55,1.55,0,0,0-1-.33,1.61,1.61,0,0,0-1,.33,2,2,0,0,0-.63.88,3.71,3.71,0,0,0,0,2.46,2,2,0,0,0,.63.88,1.66,1.66,0,0,0,1,.32A1.6,1.6,0,0,0,358,654.8Z"/><path class="cls-4" d="M364.79,650.3H361v-1.08h3.77Zm-1.4-2.73v6.51a1.11,1.11,0,0,0,.11.57.63.63,0,0,0,.28.28,1.11,1.11,0,0,0,.43.07l.67,0v1.16a5.17,5.17,0,0,1-.84.06,2.51,2.51,0,0,1-1-.2,1.7,1.7,0,0,1-.73-.62,1.77,1.77,0,0,1-.28-1v-6.79Z"/><path class="cls-4" d="M367.61,656.11h-1.35v-9.19h1.34v3.42h.08a2.13,2.13,0,0,1,.44-.65,2,2,0,0,1,.68-.42,2.82,2.82,0,0,1,.92-.14,2.59,2.59,0,0,1,1.25.29,2,2,0,0,1,.83.88,3.23,3.23,0,0,1,.28,1.43v4.38h-1.35v-4.22a1.91,1.91,0,0,0-.18-.86,1.14,1.14,0,0,0-.5-.54,1.52,1.52,0,0,0-.79-.19,1.81,1.81,0,0,0-.85.2,1.46,1.46,0,0,0-.58.6,1.79,1.79,0,0,0-.22.92Z"/><path class="cls-4" d="M375,655.81a2.91,2.91,0,0,1-1.15-1.23,4.65,4.65,0,0,1,0-3.73,3,3,0,0,1,1.12-1.27,3.12,3.12,0,0,1,1.67-.45,3.26,3.26,0,0,1,1.53.36,2.63,2.63,0,0,1,1.12,1.14,4.07,4.07,0,0,1,.42,2v.48h-5.49v-1h4.16a2,2,0,0,0-.22-.94,1.63,1.63,0,0,0-.6-.65,1.88,1.88,0,0,0-1.87,0,1.85,1.85,0,0,0-.65.71,2.28,2.28,0,0,0-.24,1V653a2.62,2.62,0,0,0,.25,1.17,1.74,1.74,0,0,0,.68.74,2,2,0,0,0,1,.26,2,2,0,0,0,.67-.1,1.58,1.58,0,0,0,.5-.27,1.23,1.23,0,0,0,.33-.39h1.37a2.4,2.4,0,0,1-.54,1,2.55,2.55,0,0,1-1,.65,3.65,3.65,0,0,1-1.35.23A3.26,3.26,0,0,1,375,655.81Z"/><path class="cls-4" d="M381,649.22h1.31v1.1h.08a1.65,1.65,0,0,1,.38-.64,1.52,1.52,0,0,1,.61-.42,1.93,1.93,0,0,1,.75-.15,3.52,3.52,0,0,1,.58,0v1.29l-.32-.06-.38,0a1.7,1.7,0,0,0-.85.2,1.42,1.42,0,0,0-.59.55,1.54,1.54,0,0,0-.21.8v4.2H381Z"/><path class="cls-4" d="M388.56,646.92h7.12v1.2h-2.86v8h-1.39v-8h-2.87Z"/><path class="cls-4" d="M397.2,655.81a3.11,3.11,0,0,1-1.13-1.25,4.24,4.24,0,0,1-.4-1.86,4.3,4.3,0,0,1,.4-1.88,3.11,3.11,0,0,1,1.13-1.25,3.29,3.29,0,0,1,1.7-.44,3.25,3.25,0,0,1,1.69.44,3,3,0,0,1,1.12,1.25,4.16,4.16,0,0,1,.4,1.88,4.1,4.1,0,0,1-.4,1.86,3,3,0,0,1-1.12,1.25,3.25,3.25,0,0,1-1.69.44A3.29,3.29,0,0,1,397.2,655.81Zm2.72-1a2,2,0,0,0,.62-.88,3.71,3.71,0,0,0,0-2.46,2,2,0,0,0-.62-.88,1.6,1.6,0,0,0-1-.33,1.56,1.56,0,0,0-1,.33,2,2,0,0,0-.63.88,3.71,3.71,0,0,0,0,2.46,2,2,0,0,0,.63.88,1.61,1.61,0,0,0,1,.32A1.65,1.65,0,0,0,399.92,654.8Z"/><path class="cls-4" d="M403.45,646.92h1.36v9.19h-1.36Zm1.24,5.21h.24l2.73-2.91h1.62l-3.13,3.32h-.21l-1.24,1.24Zm.66.72.93-1,3.19,4.22h-1.66Z"/><path class="cls-4" d="M411.29,655.81a2.83,2.83,0,0,1-1.14-1.23,4.55,4.55,0,0,1,0-3.73,3,3,0,0,1,1.12-1.27,3.09,3.09,0,0,1,1.67-.45,3.29,3.29,0,0,1,1.53.36,2.66,2.66,0,0,1,1.11,1.14,4.07,4.07,0,0,1,.42,2v.48h-5.49v-1h4.16a2.06,2.06,0,0,0-.21-.94,1.66,1.66,0,0,0-.61-.65,1.86,1.86,0,0,0-1.86,0,2,2,0,0,0-.66.71,2.13,2.13,0,0,0-.23,1V653a2.63,2.63,0,0,0,.24,1.17,1.74,1.74,0,0,0,.68.74,2,2,0,0,0,1,.26,2,2,0,0,0,.66-.1,1.76,1.76,0,0,0,.51-.27,1.34,1.34,0,0,0,.32-.39h1.37a2.4,2.4,0,0,1-.54,1,2.55,2.55,0,0,1-1,.65,3.59,3.59,0,0,1-1.34.23A3.3,3.3,0,0,1,411.29,655.81Z"/><path class="cls-4" d="M418.7,656.11h-1.35v-6.89h1.3v1.12h.08a2.06,2.06,0,0,1,.45-.64,1.82,1.82,0,0,1,.68-.42,2.81,2.81,0,0,1,2.15.14,2,2,0,0,1,.81.89,3.08,3.08,0,0,1,.29,1.42v4.38h-1.35v-4.22a2,2,0,0,0-.17-.85,1.28,1.28,0,0,0-.5-.55,1.52,1.52,0,0,0-.79-.19,1.73,1.73,0,0,0-.83.2,1.48,1.48,0,0,0-.56.6,1.89,1.89,0,0,0-.21.92Z"/><path class="cls-4" d="M428.2,650.44a1.46,1.46,0,0,0-.88-.24,1.83,1.83,0,0,0-.68.12,1.12,1.12,0,0,0-.48.33.69.69,0,0,0-.16.47.64.64,0,0,0,.25.53,2.18,2.18,0,0,0,.82.35l1.11.25a2.82,2.82,0,0,1,1.41.68,1.58,1.58,0,0,1,.47,1.18,1.85,1.85,0,0,1-.34,1.11,2.24,2.24,0,0,1-1,.76,3.79,3.79,0,0,1-1.5.27,4,4,0,0,1-1.42-.23,2.19,2.19,0,0,1-.95-.69,2.34,2.34,0,0,1-.43-1.1h1.39a1,1,0,0,0,.43.7,1.72,1.72,0,0,0,1,.24,2.16,2.16,0,0,0,.76-.12,1.19,1.19,0,0,0,.51-.33.8.8,0,0,0,.17-.5.66.66,0,0,0-.26-.55,1.93,1.93,0,0,0-.8-.35l-1.08-.23a2.83,2.83,0,0,1-1.41-.69,1.63,1.63,0,0,1-.48-1.2,1.76,1.76,0,0,1,.34-1.08,2.12,2.12,0,0,1,.94-.73,3.35,3.35,0,0,1,1.39-.26,3.43,3.43,0,0,1,1.33.24,2.09,2.09,0,0,1,.9.69,2,2,0,0,1,.39,1h-1.3A1.12,1.12,0,0,0,428.2,650.44Z"/></svg>