<?xml version="1.0" encoding="utf-8"?>
<!-- Generator: Adobe Illustrator 26.0.3, SVG Export Plug-In . SVG Version: 6.00 Build 0)  -->
<svg version="1.1" id="Layer_1" xmlns="http://www.w3.org/2000/svg" xmlns:xlink="http://www.w3.org/1999/xlink" x="0px" y="0px"
	 viewBox="0 0 479.5 80.5" style="enable-background:new 0 0 479.5 80.5;" xml:space="preserve">
<style type="text/css">
	.st0{fill:#FFFFFF;}
</style>
<g>
	<path class="st0" d="M144.6,30.6V73H129V6.9h15.8l23.9,42.5V6.9h15.7V73h-15.9L144.6,30.6z"/>
	<path class="st0" d="M240.4,73l-4.1-12.7h-25.4L206.8,73h-16l24.1-66.1h17.3L256.4,73H240.4z M214.5,49.1h18.2L223.6,21L214.5,49.1
		z"/>
	<path class="st0" d="M294.9,73l-16.8-38.5V73h-15.3V6.9h15.9l22.6,51.8L324,6.9h15.9V73h-15.3V34.5L307.9,73H294.9z"/>
	<path class="st0" d="M403.1,65.2c-4.9,5.7-12.2,8.9-23.2,8.9c-11.1,0-18.3-3.3-23.2-8.9c-5.6-6.5-7.2-15.5-7.2-25.3
		c0-9.8,1.6-18.7,7.2-25.3c4.9-5.7,12.1-8.9,23.2-8.9c11,0,18.3,3.3,23.2,8.9c5.6,6.5,7.1,15.5,7.1,25.3
		C410.2,49.8,408.7,58.7,403.1,65.2z M369.1,58.1c2.3,3,5.9,4.6,10.9,4.6s8.6-1.6,10.9-4.6c2.7-3.4,3.7-8.4,3.7-18.1
		c0-9.7-1-14.6-3.7-18.1c-2.3-3-5.9-4.6-10.9-4.6s-8.6,1.6-10.9,4.6c-2.7,3.4-3.8,8.4-3.8,18.1C365.2,49.7,366.4,54.6,369.1,58.1z"
		/>
	<path class="st0" d="M454.8,39.1L478.8,73h-17.3l-19.4-28.2h-6.7V73h-15.6V6.9h15.6v26.5h6.7l16.7-26.5h17.1L454.8,39.1z"/>
</g>
<g>
	<g>
		<path class="st0" d="M98.3,76.8c-9,0-18,0-27,0c0-12.8,0-25.7,0-38.5c0-5.2-3.3-8.4-8.5-8.4c-6.9,0-13.7,0-20.6,0
			c-0.5,0-1,0-1.6,0c0-8.7,0-17.2,0-25.8c0.4,0,0.7,0,1,0c14,0,27.9,0,41.9,0c6.4,0,14.1,5,14.1,13.9"/>
		<path class="st0" d="M35.8,76.8c-9.5,0-18.9,0-28.4,0c0-24.2,0-48.4,0-72.6c9.6,0,18.9,0,28.4,0c0,0.7,0,1.3,0,1.9
			C35.8,29.6,35.8,53.2,35.8,76.8z"/>
	</g>
</g>
</svg>
