<?xml version="1.0" encoding="utf-8"?>
<!-- Generator: Adobe Illustrator 26.0.3, SVG Export Plug-In . SVG Version: 6.00 Build 0)  -->
<svg version="1.1" id="Layer_1" xmlns="http://www.w3.org/2000/svg" xmlns:xlink="http://www.w3.org/1999/xlink" x="0px" y="0px"
	 viewBox="0 0 410.6 80.5" style="enable-background:new 0 0 410.6 80.5;" xml:space="preserve">
<style type="text/css">
	.st0{fill:#FFFFFF;}
</style>
<g>
	<path class="st0" d="M115.6,33.7v39.5h-13.7V11.6h13.8l20.9,39.5V11.6h13.7v61.6h-13.9L115.6,33.7z"/>
	<path class="st0" d="M199.3,73.2l-3.6-11.8h-22.2L170,73.2h-14L177,11.6h15.2l21.1,61.6H199.3z M176.6,50.9h15.9l-7.9-26.2
		L176.6,50.9z"/>
	<path class="st0" d="M246.9,73.2l-14.7-35.9v35.9h-13.3V11.6h13.9l19.7,48.3l19.7-48.3h13.9v61.6h-13.3V37.3l-14.7,35.9H246.9z"/>
	<path class="st0" d="M341.5,66c-4.2,5.3-10.7,8.3-20.2,8.3c-9.7,0-16-3-20.2-8.3c-4.9-6.1-6.3-14.4-6.3-23.6
		c0-9.1,1.4-17.4,6.3-23.5c4.2-5.3,10.6-8.3,20.2-8.3c9.6,0,16,3,20.2,8.3c4.9,6.1,6.2,14.4,6.2,23.5
		C347.7,51.6,346.4,59.9,341.5,66z M311.7,59.3c2,2.8,5.2,4.3,9.5,4.3s7.5-1.5,9.5-4.3c2.3-3.2,3.2-7.8,3.2-16.9
		c0-9-0.9-13.6-3.2-16.8c-2-2.8-5.2-4.3-9.5-4.3s-7.5,1.5-9.5,4.3c-2.3,3.2-3.3,7.8-3.3,16.8C308.4,51.5,309.4,56.1,311.7,59.3z"/>
	<path class="st0" d="M386.7,41.6l20.9,31.6h-15.1L375.6,47h-5.8v26.2h-13.7V11.6h13.7v24.7h5.8l14.6-24.7h14.9L386.7,41.6z"/>
</g>
<path class="st0" d="M61.7,4.8H25.5c-10.7,0-19.3,8.7-19.3,19.3v34.9c0.5-2.8,3.7-7.8,4-8.4c0.4-0.7,0.4-1.5,0.4-1.5
	s-0.4-15.8,10.8-20.2c11.1-4.4,21.4-2.5,31.8-7.5c0,0,3.4-1.9,5.2-3.5c0,0,1-1.2,1.4-0.8c0.4,0.4,0.1,2,0.5,3.1
	c0.3,1.1-0.2,7.4-1.6,10.6c-1.4,3.2-4.9,13.8-15.3,18.8c-10.4,5-15,1.2-24,5.5c-9,4.3-9.3,14-9.3,14s0,1.9,0.4,3
	c3.5,4.4,8.9,7.1,15,7.1h36.3c10.7,0,19.3-8.7,19.3-19.3V24.1C81.1,13.5,72.4,4.8,61.7,4.8z"/>
</svg>
