<?xml version="1.0" encoding="utf-8"?>
<!-- Generator: Adobe Illustrator 26.2.1, SVG Export Plug-In . SVG Version: 6.00 Build 0)  -->
<svg version="1.1" id="Layer_1" xmlns="http://www.w3.org/2000/svg" xmlns:xlink="http://www.w3.org/1999/xlink" x="0px" y="0px"
	 width="826px" height="826px" viewBox="0 0 826 826" style="enable-background:new 0 0 826 826;" xml:space="preserve">
<style type="text/css">
	.st0{fill:url(#SVGID_1_);}
	.st1{fill:none;stroke:#FFFFFF;stroke-width:4;stroke-miterlimit:10;}
	.st2{fill:#333333;}
	.st3{fill:#666666;}
</style>
<g>
	
		<linearGradient id="SVGID_1_" gradientUnits="userSpaceOnUse" x1="0" y1="413" x2="826" y2="413" gradientTransform="matrix(0 -1 1 0 0 826)">
		<stop  offset="0" style="stop-color:#FDE8FF"/>
		<stop  offset="0.1748" style="stop-color:#F2E3FD"/>
		<stop  offset="0.4846" style="stop-color:#D4D5F6"/>
		<stop  offset="0.862" style="stop-color:#A7C1EC"/>
	</linearGradient>
	<polygon class="st0" points="826,0 826,826 0,826 0,0 	"/>
	<rect x="35" y="35" class="st1" width="756" height="756"/>
</g>
<g>
	<path class="st2" d="M413,180.2V176h47.8v4.2h-21.5v14.6h-4.9v-14.6H413z M420.7,149.6H453v-8.8h4.8v27.1h-41.9v-27.1h4.8V149.6z
		 M453,163.7v-10h-32.3v10H453z"/>
	<path class="st2" d="M470.3,172.9v-4h48.4v4H470.3z M478.8,154.2v5.5h36.6v3.8H474v-13.1h36.2v-5.6H474v-4h41v13.4H478.8z
		 M515,194.5h-41v-16h41V194.5z M510.2,190.6v-8h-31.4v8H510.2z"/>
	<path class="st2" d="M546.1,153.8c0-5.5,1.6-9.5,4.4-11.8c1.7-1.4,4.1-2.2,6.8-2.2c2.6,0,4.9,0.7,6.7,2.2c2.8,2.2,4.3,6.2,4.3,11.8
		c0,5.5-1.5,9.5-4.3,11.8c-1.8,1.4-4.1,2.2-6.7,2.2c-2.7,0-5-0.8-6.8-2.2C547.6,163.3,546.1,159.2,546.1,153.8z M550.6,153.8
		c0,4,0.9,6.8,2.6,8.5c1,0.9,2.3,1.4,4,1.4c1.6,0,2.9-0.5,4-1.4c1.7-1.6,2.6-4.5,2.6-8.5s-0.8-6.8-2.6-8.4c-1-1-2.4-1.4-4-1.4
		c-1.7,0-3,0.5-4,1.4C551.5,147,550.6,149.8,550.6,153.8z M586.4,179v-6.9h4.9v22.4h-40.4v-22.4h4.8v6.9H586.4z M586.4,183.1h-30.7
		v7.3h30.7V183.1z M574.1,168.2v-27.7h4.6v11.3h7.9v-11.6h4.7v28.4h-4.7V156h-7.9v12.2H574.1z"/>
	<path class="st2" d="M620.7,177.1v-4.3h47.8v4.3h-21.5v17.7h-4.9v-17.7H620.7z M660.7,153.2v-8.1h-37.4v-4.3h42.2v11.9
		c0,5.2-0.5,10.7-1.3,14.5h-4.8C660.3,163.3,660.7,157.9,660.7,153.2z"/>
	<path class="st2" d="M678,164.9v-4.1h48.4v4.1H678z M717.9,149.5v-4.6h-36.7v-4.1h41.5v8.5c0,2.8-0.3,5.7-0.8,8h-4.7
		C717.7,155,717.9,152.1,717.9,149.5z M686.5,184.7v5.9H724v3.9h-42.4v-13.7h36.2v-5.6h-36.2v-4h41v13.6H686.5z"/>
	<path class="st2" d="M397.5,272.1h-23.2v-49h25.3v4.2h-20.5V268h19.1c5.5,0,10.3-1.4,13-4.1v-41.7h4.8v22.6h8.8v4.2h-8.8v26.9h-4.8
		v-8C408.7,270.6,403.5,272.1,397.5,272.1z"/>
	<path class="st2" d="M430.2,254.3v-4.2h48.4v4.2h-21.2v10.6h-4.8v-10.6H430.2z M432.7,232.9c0-3.1,1.3-5.5,3.8-7.1
		c3.7-2.6,10.1-3.6,17.9-3.6c7.9,0,14.1,1,17.9,3.6c2.5,1.6,3.8,4,3.8,7.1c0,3.1-1.3,5.5-3.8,7.2c-3.8,2.6-10,3.6-17.9,3.6
		c-7.8,0-14.2-1-17.9-3.6C434.1,238.4,432.7,236.1,432.7,232.9z M438.6,261v11h37.3v4.1h-42.1V261H438.6z M437.6,232.9
		c0,1.7,0.8,3.2,2.4,4.3c2.6,1.7,7.5,2.5,14.4,2.5c6.9,0,11.8-0.7,14.4-2.5c1.6-1.1,2.4-2.5,2.4-4.3c0-1.8-0.8-3.2-2.4-4.2
		c-2.6-1.7-7.5-2.5-14.4-2.5c-6.9,0-11.8,0.8-14.4,2.5C438.4,229.8,437.6,231.1,437.6,232.9z"/>
	<path class="st2" d="M495.7,242v10.6h37.9v4.1h-19.1v12.6h21.4v4.2h-47.8v-4.2h21.5v-12.6h-18.7v-18.8h37.1v-10.5h-37.1v-4.2h41.9
		V242H495.7z"/>
	<path class="st2" d="M545.7,273.5v-4.2h47.8v4.2H545.7z M590.5,227.4h-37.1v21.7h37.8v4.3h-42.6v-30.2h41.9V227.4z"/>
	<path class="st2" d="M620.4,250.3v-4.1h17.1v-11.6h4.9v11.6h26.4v4.1H620.4z M623,267.4c0-3.2,1.6-5.5,4.4-7.1
		c3.8-2.2,9.8-3.1,17.3-3.1c7.4,0,13.5,1,17.3,3.1c2.8,1.6,4.4,3.8,4.4,7.1c0,3.1-1.6,5.5-4.4,7c-3.8,2.2-9.9,3.1-17.3,3.1
		c-7.4,0-13.5-0.8-17.3-3.1C624.6,272.9,623,270.6,623,267.4z M660.3,232.8v-5.7h-36.7v-4.3h41.5v9.8c0,2.9-0.3,6.5-0.8,8.8h-4.7
		C660.1,239,660.3,235.6,660.3,232.8z M627.9,267.4c0,1.5,0.8,2.7,2.2,3.6c2.7,1.7,7.7,2.5,14.6,2.5c6.8,0,11.8-0.8,14.5-2.5
		c1.5-0.9,2.3-2.1,2.3-3.6c0-1.6-0.8-2.7-2.3-3.7c-2.7-1.7-7.7-2.5-14.5-2.5c-6.8,0-11.9,0.8-14.6,2.5
		C628.6,264.7,627.9,265.9,627.9,267.4z"/>
	<path class="st2" d="M679.6,223.2h28.9v4.2h-12.1v16.9c0,13.7,6.2,20.4,12.5,23.5v4.4c-6.8-2.7-12.6-8.6-14.9-15.1
		c-2.2,6.5-8.2,12.5-14.9,15.1v-4.4c6.1-2.9,12.5-9.7,12.5-23.5v-16.9h-11.9V223.2z M722.9,222.2v53.6H718v-53.6H722.9z"/>
</g>
<g>
	<path class="st2" d="M94.8,392.3v-1.7h19.1v1.7h-8.6v7.1h-1.9v-7.1H94.8z M110.8,382.8v-3.2h-15v-1.7h16.9v4.8
		c0,2.1-0.2,4.3-0.5,5.8h-1.9C110.6,386.8,110.8,384.7,110.8,382.8z"/>
	<path class="st2" d="M116.6,387.5v-1.6H136v1.6H116.6z M132.6,381.3v-1.8h-14.7v-1.7h16.6v3.4c0,1.1-0.1,2.3-0.3,3.2h-1.9
		C132.5,383.5,132.6,382.4,132.6,381.3z M120,395.4v2.4h15v1.6h-16.9v-5.5h14.5v-2.3h-14.5v-1.6h16.4v5.4H120z"/>
	<path class="st2" d="M145.2,377.8h10.9v1.7h-4.5v1.5c0,3.6,2.3,5.5,4.9,6.1v1.7c-2.6-0.6-4.8-2.1-5.8-4.1c-1,2.1-3.2,3.9-5.9,4.4
		v-1.7c2.7-0.6,4.8-2.7,4.8-6.4v-1.5h-4.5V377.8z M154.6,399.6c-2.6,0-5-0.4-6.6-1.4c-1.1-0.7-1.8-1.7-1.8-3s0.7-2.4,1.8-3.1
		c1.6-1,4-1.4,6.6-1.4s5.1,0.4,6.6,1.4c1.1,0.7,1.8,1.7,1.8,3.1s-0.7,2.4-1.8,3C159.6,399.2,157.2,399.6,154.6,399.6z M154.6,392.3
		c-2.2,0-4.2,0.3-5.4,1.1c-0.6,0.4-1,1-1,1.7c0,0.7,0.4,1.3,1,1.7c1.2,0.7,3.2,1.1,5.4,1.1c2.2,0,4.3-0.3,5.4-1.1
		c0.7-0.4,1.1-1,1.1-1.7c0-0.7-0.4-1.3-1.1-1.7C158.9,392.7,156.8,392.3,154.6,392.3z M162.5,389.8h-1.9v-5.9h-4.8v-1.7h4.8v-4.7
		h1.9V389.8z"/>
	<path class="st2" d="M166.9,379.5h3.4v-2.6h1.9v2.6h3.5v1.7h-3.5v1.5c0,3.2,1.6,4.8,3.8,5.4v1.8c-2.2-0.6-3.9-2-4.7-3.5
		c-0.8,1.6-2.5,3.2-4.8,3.8v-1.8c2.2-0.6,3.8-2.4,3.8-5.7v-1.4h-3.4V379.5z M182.9,399.4v-5.6h-14.5v-1.7h16.4v7.3H182.9z
		 M184.8,390.3h-1.9v-5.8h-3.2v5.7h-1.8v-12.4h1.8v5h3.2v-5.2h1.9V390.3z"/>
	<path class="st2" d="M196.9,382.1h6.4v-4.3h1.9v2.6h5.2v-2.8h1.9v15.2h-1.9v-5.6h-5.2v2.6H195v-12h1.9V382.1z M212.7,399.2h-16.4
		v-6.7h1.9v5.1h14.4V399.2z M203.3,388.1v-4.3h-6.4v4.3H203.3z M205.2,382.1v3.4h5.2v-3.4H205.2z"/>
	<path class="st2" d="M225.1,379.5H217v-1.7h10.1v1.2c0,6.6-4.1,9.7-10.6,10.3v-1.7C221.8,387.1,225.1,384.4,225.1,379.5z
		 M226.4,399.6c-2.6,0-5-0.4-6.6-1.4c-1.1-0.7-1.8-1.7-1.8-3s0.7-2.4,1.8-3.1c1.6-1,4-1.4,6.6-1.4s5.1,0.4,6.6,1.4
		c1.1,0.7,1.8,1.7,1.8,3.1s-0.7,2.4-1.8,3C231.4,399.2,229,399.6,226.4,399.6z M226.4,392.3c-2.2,0-4.2,0.3-5.4,1.1
		c-0.6,0.4-1,1-1,1.7c0,0.7,0.4,1.3,1,1.7c1.2,0.7,3.2,1.1,5.4,1.1c2.2,0,4.3-0.3,5.4-1.1c0.7-0.4,1.1-1,1.1-1.7
		c0-0.7-0.4-1.3-1.1-1.7C230.6,392.7,228.6,392.3,226.4,392.3z M227.5,381.8v-1.7h4.9v-2.6h1.9v12.3h-1.9v-3.5h-5.2v-1.7h5.2v-3
		H227.5z"/>
	<path class="st2" d="M238.3,398.1v-1.7h19.1v1.7H238.3z M239,384.2c0-2,0.8-3.7,2.3-4.8c1.5-1.2,3.8-1.7,6.6-1.7s5,0.5,6.6,1.7
		c1.5,1.1,2.3,2.8,2.3,4.8c0,2-0.8,3.7-2.3,4.8c-1.6,1.2-3.8,1.7-6.6,1.7s-5-0.5-6.6-1.7C239.8,388,239,386.2,239,384.2z
		 M240.9,384.2c0,1.4,0.6,2.6,1.6,3.4c1.2,0.9,3,1.4,5.4,1.4c2.4,0,4.2-0.5,5.4-1.4c1-0.8,1.5-1.9,1.5-3.4s-0.5-2.6-1.5-3.4
		c-1.2-0.9-3-1.4-5.4-1.4c-2.4,0-4.2,0.5-5.4,1.4C241.5,381.6,240.9,382.8,240.9,384.2z"/>
	<path class="st2" d="M263.4,385.5v4.2h15.1v1.7h-7.7v5h8.5v1.7h-19.1v-1.7h8.6v-5h-7.5v-7.5h14.9v-4.2h-14.9V378h16.8v7.5H263.4z"
		/>
	<path class="st2" d="M288.5,383.6c0-2.1,0.6-3.7,1.8-4.8c0.9-0.9,2.2-1.3,3.8-1.3s2.9,0.5,3.8,1.3c1.2,1.1,1.8,2.7,1.8,4.8
		c0,2.1-0.6,3.8-1.8,4.8c-0.9,0.9-2.2,1.3-3.8,1.3s-2.9-0.5-3.8-1.3C289.1,387.4,288.5,385.7,288.5,383.6z M306.5,399.2h-16.4v-7
		h1.9v5.4h14.4V399.2z M290.3,383.6c0,1.5,0.4,2.7,1.2,3.5c0.6,0.6,1.5,1,2.5,1s1.9-0.3,2.5-1c0.7-0.8,1.2-2,1.2-3.5
		s-0.4-2.7-1.2-3.5c-0.6-0.6-1.5-0.9-2.5-0.9s-1.9,0.3-2.5,0.9C290.8,380.8,290.3,382,290.3,383.6z M306.1,392.5h-1.9v-15h1.9V392.5
		z"/>
	<path class="st2" d="M315,376.9h1.9v3.3h5.2v1.7h-12.3v-1.7h5.2V376.9z M310.7,391c0-2.7,0.7-4.7,2-5.8c0.8-0.7,2-1.1,3.3-1.1
		c1.3,0,2.4,0.4,3.3,1.1c1.3,1.1,2,3.1,2,5.8c0,2.7-0.7,4.7-2,5.8c-0.8,0.7-2,1.1-3.3,1.1c-1.3,0-2.4-0.4-3.3-1.1
		C311.4,395.7,310.7,393.8,310.7,391z M312.6,391c0,2.1,0.4,3.6,1.3,4.5c0.6,0.5,1.2,0.8,2.1,0.8c0.8,0,1.5-0.3,2.1-0.8
		c0.9-0.9,1.3-2.4,1.3-4.5c0-2.1-0.4-3.6-1.3-4.5c-0.6-0.5-1.2-0.8-2.1-0.8c-0.8,0-1.5,0.3-2.1,0.8C313,387.4,312.6,388.9,312.6,391
		z M327.4,377.6v9h3.5v1.7h-3.5v10.8h-1.9v-21.5H327.4z"/>
	<path class="st2" d="M332.6,387.7c0-4,0.5-7,1.9-8.6c0.8-1,2.1-1.5,3.6-1.5c1.5,0,2.7,0.5,3.6,1.5c0.7,0.8,1.2,2,1.5,3.5h4.8v-5
		h1.9V399H348v-6.7h-4.7c-0.3,1.7-0.8,3.1-1.6,4c-0.8,1-2.1,1.5-3.6,1.5c-1.5,0-2.7-0.5-3.6-1.5
		C333.1,394.7,332.6,391.7,332.6,387.7z M341.7,387.7c0-3.6-0.3-6.3-1.4-7.5c-0.5-0.6-1.2-1-2.2-1c-0.9,0-1.6,0.3-2.2,1
		c-1,1.2-1.4,3.9-1.4,7.5c0,3.6,0.4,6.3,1.4,7.5c0.6,0.6,1.3,0.9,2.2,0.9c0.9,0,1.7-0.3,2.2-0.9C341.3,394,341.7,391.4,341.7,387.7z
		 M343.5,384.2c0.1,1.1,0.1,2.2,0.1,3.5c0,1.1,0,2-0.1,3h4.5v-6.5H343.5z"/>
	<path class="st2" d="M360,383.6c0-2.1,0.6-3.7,1.8-4.8c1-0.9,2.2-1.3,3.8-1.3c1.6,0,2.9,0.5,3.8,1.3c1.2,1.1,1.8,2.7,1.8,4.8
		c0,2.1-0.6,3.8-1.8,4.8c-0.9,0.9-2.2,1.3-3.8,1.3c-1.6,0-2.8-0.5-3.8-1.3C360.6,387.4,360,385.7,360,383.6z M363.4,392.1v5.4h14.2
		v1.7h-16.2v-7H363.4z M361.9,383.6c0,1.5,0.4,2.7,1.2,3.5c0.6,0.6,1.5,1,2.5,1c1.1,0,1.9-0.3,2.5-1c0.7-0.8,1.2-2,1.2-3.5
		s-0.4-2.7-1.2-3.5c-0.6-0.6-1.5-0.9-2.5-0.9c-1.1,0-1.9,0.3-2.5,0.9C362.3,380.8,361.9,382,361.9,383.6z M377.2,377.6v6.1h3.3v1.7
		h-3.3v7.2h-1.9v-15H377.2z"/>
	<path class="st2" d="M381.9,398.1v-1.7H401v1.7H381.9z M399.8,379.6H385v8.7h15.1v1.7h-17V378h16.8V379.6z"/>
	<path class="st2" d="M406.9,385.5v4.2h15.1v1.7h-7.7v5h8.5v1.7h-19.1v-1.7h8.6v-5H405v-7.5h14.9v-4.2H405V378h16.8v7.5H406.9z"/>
	<path class="st2" d="M426.3,387.7c0-4,0.5-7,1.9-8.6c0.8-1,2.1-1.5,3.6-1.5c1.5,0,2.7,0.5,3.6,1.5c1.5,1.6,1.9,4.6,1.9,8.6
		c0,4-0.5,7-1.9,8.6c-0.8,1-2.1,1.5-3.6,1.5c-1.5,0-2.7-0.5-3.6-1.5C426.8,394.7,426.3,391.7,426.3,387.7z M435.4,387.7
		c0-3.6-0.3-6.3-1.4-7.5c-0.5-0.6-1.2-1-2.2-1c-0.9,0-1.6,0.3-2.2,1c-1,1.2-1.4,3.9-1.4,7.5c0,3.6,0.4,6.3,1.4,7.5
		c0.6,0.6,1.3,0.9,2.2,0.9c0.9,0,1.7-0.3,2.2-0.9C435.1,394,435.4,391.4,435.4,387.7z M443.7,377.6V399h-1.9v-21.5H443.7z"/>
	<path class="st2" d="M447.8,398.1v-1.7h19.1v1.7H447.8z M465.7,379.6h-14.9v8.7H466v1.7h-17V378h16.8V379.6z"/>
	<path class="st2" d="M481.9,397.6h-5.5v-19.7h1.9v18.1h4c1.9,0,3.5-0.4,4.4-1.3v-16.9h1.9v8.7h3.4v-8.9h1.9v21.5h-1.9v-10.9h-3.4
		v10.7h-1.9v-2.6C485.7,397.1,484,397.6,481.9,397.6z"/>
	<path class="st2" d="M503.7,384.3V379h1.8v5.4H503.7z"/>
	<path class="st2" d="M508.5,393.6v-1.7h19.1v1.7H519v5.8H517v-5.8H508.5z M511.6,381.4h12.9v-3.5h1.9v10.8h-16.8v-10.8h1.9V381.4z
		 M524.5,387v-4h-12.9v4H524.5z"/>
	<path class="st2" d="M530.3,390.7v-1.6h19.3v1.6H530.3z M533.7,383.2v2.2h14.6v1.5h-16.6v-5.3h14.5v-2.2h-14.5v-1.6h16.4v5.4H533.7
		z M548.2,399.3h-16.4v-6.4h16.4V399.3z M546.3,397.7v-3.2h-12.6v3.2H546.3z"/>
	<path class="st2" d="M552.6,384.3V379h1.8v5.4H552.6z"/>
	<path class="st2" d="M563.5,383c0-2.2,0.6-3.8,1.8-4.7c0.7-0.6,1.6-0.9,2.7-0.9c1,0,2,0.3,2.7,0.9c1.1,0.9,1.7,2.5,1.7,4.7
		c0,2.2-0.6,3.8-1.7,4.7c-0.7,0.6-1.7,0.9-2.7,0.9c-1.1,0-2-0.3-2.7-0.9C564.1,386.8,563.5,385.2,563.5,383z M565.3,383
		c0,1.6,0.4,2.7,1.1,3.4c0.4,0.4,0.9,0.6,1.6,0.6c0.6,0,1.2-0.2,1.6-0.6c0.7-0.6,1-1.8,1-3.4c0-1.6-0.3-2.7-1-3.4
		c-0.4-0.4-1-0.6-1.6-0.6c-0.7,0-1.2,0.2-1.6,0.6C565.6,380.3,565.3,381.4,565.3,383z M579.6,393.1v-2.8h1.9v9h-16.2v-9h1.9v2.8
		H579.6z M579.6,394.7h-12.3v2.9h12.3V394.7z M574.7,388.8v-11.1h1.8v4.5h3.2v-4.6h1.9v11.4h-1.9v-5h-3.2v4.9H574.7z"/>
	<path class="st2" d="M104.7,454.9h-9.6v-20.2h10.8v2.9h-7.6V452h7c1.8,0,3.1-0.3,3.8-0.9v-16.8h3.3v8.7h3.3v2.8h-3.3v10.5h-3.3
		v-2.5C108.4,454.5,106.8,454.9,104.7,454.9z"/>
	<path class="st2" d="M116.4,445.1h19.8v2.9h-8v3.8h-3.3V448h-8.5V445.1z M117.4,439c0-1.3,0.5-2.3,1.4-3c1.6-1.3,4.5-1.6,7.6-1.6
		c3.1,0,5.9,0.3,7.6,1.6c0.9,0.7,1.4,1.7,1.4,3c0,1.3-0.5,2.3-1.4,3c-1.6,1.3-4.4,1.6-7.6,1.6c-3.1,0-5.9-0.3-7.6-1.6
		C117.9,441.3,117.4,440.3,117.4,439z M121.1,453.6h14.1v2.9h-17.4v-6.6h3.3V453.6z M120.7,439c0,0.5,0.2,0.8,0.6,1.1
		c0.9,0.6,2.6,0.8,5.1,0.8s4.2-0.2,5.1-0.8c0.4-0.3,0.6-0.6,0.6-1.1c0-0.5-0.2-0.8-0.6-1.1c-0.8-0.6-2.6-0.8-5.1-0.8
		s-4.2,0.2-5.1,0.8C120.9,438.1,120.7,438.5,120.7,439z"/>
	<path class="st2" d="M142.8,446.1h14.3v2.9h-7.2v3.6h8.1v2.9h-19.6v-2.9h8.2v-3.6h-7.1v-8.6h14.1v-2.8h-14.1v-2.9h17.4v8.5h-14.1
		V446.1z"/>
	<path class="st2" d="M160.4,452.5H180v2.9h-19.6V452.5z M164.8,437.6v7h14.3v2.9h-17.6v-12.7h17.4v2.9H164.8z"/>
	<path class="st2" d="M190.5,439.5v-2h-7.6v-2.9h10.8v4.4c0,8.4-3,14-10.9,16V452C188.3,450.4,190.5,446,190.5,439.5z M200.3,443.1
		h3.3v2.8h-3.3v10.5H197v-22h3.3V443.1z"/>
	<path class="st2" d="M214.6,437.6v6.9h8.3v2.8h-4.2v5h3c1.8,0,3.1-0.3,3.8-0.9v-17.1h3.3v22h-3.3v-2.3c-0.7,0.7-2.4,1.1-4.4,1.1
		h-10.6v-2.9h5v-5h-4.2v-12.6h11.4v2.9H214.6z"/>
	<path class="st2" d="M244.8,434.7v2.9h-4.4v4.9c0,6.2,2.1,8.2,4.6,9.4v3c-2.6-0.8-5-2.6-6.2-4.7c-1.2,2.1-3.6,3.9-6.2,4.7v-3
		c2.5-1.2,4.6-3.2,4.6-9.4v-4.9h-4.3v-2.9H244.8z M250.7,456.4h-3.3v-22h3.3V456.4z"/>
	<path class="st2" d="M260.2,439.6c0-1.8,0.8-3.3,2.1-4.3c1-0.7,2.3-1.1,3.7-1.1c1.5,0,2.8,0.4,3.8,1.1c1.3,0.9,2.1,2.4,2.1,4.3
		c0,1.8-0.8,3.3-2.1,4.3c-1,0.7-2.3,1.1-3.8,1.1c-1.5,0-2.7-0.4-3.7-1.1C261.1,442.9,260.2,441.4,260.2,439.6z M268.7,456.6h-7.1
		v-9.9h3.3v7.1h3.8V456.6z M263.5,439.6c0,0.9,0.3,1.6,0.9,2.1c0.4,0.4,1,0.6,1.7,0.6c0.7,0,1.3-0.2,1.8-0.6
		c0.6-0.5,0.9-1.2,0.9-2.1c0-0.9-0.3-1.6-0.9-2.1c-0.4-0.4-1-0.6-1.8-0.6c-0.7,0-1.3,0.2-1.7,0.6C263.8,438,263.5,438.7,263.5,439.6
		z M272.3,447.4v-1.9h3.4v1.9h3.7v2.3h-10.7v-2.3H272.3z M269.2,453.6c0-1.1,0.4-1.8,1.2-2.4c0.9-0.7,2.2-1,3.6-1s2.7,0.3,3.6,1
		c0.7,0.6,1.2,1.3,1.2,2.4c0,1-0.4,1.8-1.2,2.3c-0.9,0.7-2.2,1-3.6,1s-2.8-0.3-3.6-1C269.6,455.4,269.2,454.7,269.2,453.6z
		 M272.2,453.6c0,0.3,0.1,0.5,0.3,0.6c0.3,0.3,0.9,0.4,1.5,0.4s1.2-0.1,1.5-0.4c0.2-0.1,0.3-0.4,0.3-0.6c0-0.3-0.1-0.5-0.3-0.6
		c-0.3-0.3-0.9-0.4-1.5-0.4s-1.2,0.1-1.5,0.4C272.3,453.1,272.2,453.4,272.2,453.6z M278.1,438.3h3v2.9h-3v3.9h-3.3v-10.8h3.3V438.3
		z"/>
	<path class="st2" d="M282,444.7h19.8v2.9H282V444.7z M286.7,439.6h13.9v2.9h-17.2v-8h3.3V439.6z M286.7,453.6h14.1v2.9h-17.4v-7.3
		h3.3V453.6z"/>
	<path class="st2" d="M322.2,434.6v2.8h-4.1v0.1c0,3.8,1.7,5.3,4.5,5.9v2.9c-2.6-0.4-4.9-1.5-6.1-3.3c-1.3,1.7-3.6,3.2-6.2,3.5v-2.9
		c2.9-0.6,4.5-2.4,4.5-6.2v-0.1h-4.1v-2.8H322.2z M311.9,447.7h16.6v8.9h-16.6V447.7z M315.2,450.5v3.3h10v-3.3H315.2z M325.3,446.7
		v-5h-4.2v-2.8h4.2v-4.5h3.3v12.3H325.3z"/>
	<path class="st2" d="M332.6,444.7c0-5,0.5-7.8,1.8-9.2c0.6-0.6,1.4-0.9,2.4-0.9c1.1,0,1.9,0.3,2.5,0.9c1.2,1.2,1.7,3.7,1.8,7.9h2.9
		v-8.7h1.9v21.1H344v-10.8h-2.9c0,4.8-0.5,7.5-1.8,8.9c-0.6,0.6-1.4,0.9-2.5,0.9c-1,0-1.8-0.3-2.4-0.9
		C333.1,452.6,332.6,449.8,332.6,444.7z M334.5,444.7c0,4.5,0.3,6.9,1.1,7.9c0.3,0.4,0.7,0.6,1.2,0.6c0.5,0,1-0.2,1.3-0.6
		c0.9-1,1.2-3.4,1.2-7.9c0-4.5-0.3-6.9-1.2-7.9c-0.3-0.4-0.7-0.6-1.3-0.6c-0.5,0-0.9,0.2-1.2,0.6
		C334.8,437.8,334.5,440.3,334.5,444.7z M350.4,456h-1.9v-21.5h1.9V456z"/>
	<path class="st2" d="M366.6,454.6h-5.8V435h7.5v1.7h-5.6v16.2h4.3c1.9,0,3.5-0.4,4.4-1.3v-16.9h1.9v8.7h3.1v-8.9h1.9v21.5h-1.9
		v-10.9h-3.1v10.7h-1.9v-2.6C370.5,454.1,368.8,454.6,366.6,454.6z"/>
	<path class="st2" d="M382.3,438.9v-1.7h3.7v-3.3h1.9v3.3h3.6v1.7H382.3z M382.8,448c0-3.1,0.6-5.2,1.9-6.3c0.6-0.5,1.4-0.7,2.3-0.7
		c0.9,0,1.7,0.3,2.3,0.7c1.3,1,1.9,3.1,1.9,6.3c0,3.1-0.6,5.2-1.9,6.3c-0.6,0.5-1.4,0.7-2.3,0.7c-0.9,0-1.7-0.2-2.3-0.7
		C383.4,453.2,382.8,451.1,382.8,448z M384.6,448c0,2.6,0.4,4.1,1.1,4.8c0.3,0.4,0.7,0.5,1.2,0.5s0.9-0.2,1.2-0.5
		c0.7-0.7,1.1-2.3,1.1-4.8c0-2.6-0.4-4.1-1.1-4.8c-0.3-0.4-0.7-0.5-1.2-0.5s-0.9,0.1-1.2,0.5C385,443.8,384.6,445.4,384.6,448z
		 M400.3,456.1h-1.8v-10.9h-2.9v10.7h-1.8v-21.1h1.8v8.7h2.9v-8.9h1.8V456.1z"/>
	<path class="st2" d="M418.8,436.5h-8.2v-1.7h10.2v1.2c0,6.6-4.2,9.7-10.7,10.3v-1.7C415.4,444.1,418.8,441.4,418.8,436.5z
		 M415,449.9h-3v-1.7h16v1.7h-3v2.2c0,0.9-0.2,1.9-0.4,2.5h3.7v1.7h-16.8v-1.7h3.5V449.9z M423,452.2v-2.3h-6.1v4.7h5.8
		C422.9,454,423,453,423,452.2z M427.9,446.5H426v-12h1.9V446.5z"/>
	<path class="st2" d="M431.8,447.6v-1.7h19.3v1.7H431.8z M432.9,438.9c0-1.2,0.5-2.2,1.5-2.9c1.5-1.1,4-1.4,7.2-1.4
		c3.1,0,5.6,0.4,7.2,1.4c1,0.6,1.5,1.6,1.5,2.9s-0.5,2.2-1.5,2.9c-1.5,1.1-4,1.4-7.2,1.4c-3.1,0-5.7-0.4-7.2-1.4
		C433.4,441.1,432.9,440.1,432.9,438.9z M435.2,450.1v4.4h14.9v1.7h-16.8v-6.1H435.2z M434.8,438.9c0,0.7,0.3,1.3,1,1.7
		c1,0.7,3,1,5.8,1c2.8,0,4.7-0.3,5.8-1c0.6-0.4,1-1,1-1.7c0-0.7-0.3-1.3-1-1.7c-1.1-0.7-3-1-5.8-1c-2.8,0-4.7,0.3-5.8,1
		C435.1,437.6,434.8,438.2,434.8,438.9z"/>
	<path class="st2" d="M465.7,448.4c-0.8,2.8-3.3,5.1-6.2,6.2v-1.8c2.7-1.2,5.2-3.6,5.2-9.6v-8.4h1.9v8.4c0,5.9,2.6,8.3,5.2,9.6v1.8
		C469,453.5,466.5,451.2,465.7,448.4z M477.1,434.6v9h3.5v1.7h-3.5v10.8h-1.9v-21.5H477.1z"/>
	<path class="st2" d="M485.2,442.9h1.9v10.2h5c2.1,0,3.9-0.5,5-1.4v-17.2h1.9v9h3.5v1.7h-3.5V456h-1.9v-2.6c-1.1,0.9-3,1.4-5.3,1.4
		h-10.1v-1.7h3.4V442.9z M491.3,443.2v-6.6h-8.7V435h10.6v7.9c0,2.1-0.2,4.5-0.5,6h-1.9C491.1,447.4,491.3,445.1,491.3,443.2z"/>
	<path class="st2" d="M509.9,444v-9.2h10.3v9.2H509.9z M513.1,452.2v2.5h14.1v1.6h-16v-5.7H525v-2.5h-13.8v-1.6h15.7v5.7H513.1z
		 M518.3,436.5h-6.5v6h6.5V436.5z M526.9,434.6v4.2h3.3v1.7h-3.3v4.5H525v-10.4H526.9z"/>
	<path class="st2" d="M531.5,446.4v-1.7h19.3v1.7H531.5z M541.1,442.5c-1.6-0.6-3.3-1.9-4.1-3.3c-1,1.6-3,2.8-5,3.3v-1.7
		c2-0.7,4-2.1,4-4.8v-1.1h1.9v1.1c0,2.3,1.6,3.9,3.2,4.6c1.6-0.8,3.2-2.3,3.2-4.6v-1.1h1.9v1.1c0,2.7,2,4.1,4,4.8v1.7
		c-2.1-0.6-4.1-1.8-5-3.3C544.5,440.6,542.8,441.8,541.1,442.5z M549.3,456.3h-16.4v-7.1h16.4V456.3z M547.4,454.7v-3.8h-12.6v3.8
		H547.4z"/>
	<path class="st2" d="M553.5,455.1v-1.7h19.1v1.7H553.5z M571.5,436.6h-14.9v8.7h15.1v1.7h-17V435h16.8V436.6z"/>
	<path class="st2" d="M586.1,445.8h-10v-6.3h8.3v-3h-8.3v-1.6h10.2v6.3H578v3.1h8.5c2.2,0,3.8-0.3,4.9-1.2v-8.4h1.9v12h-1.9v-2
		C590.4,445.5,588.6,445.8,586.1,445.8z M591.5,450.5V448h1.9v8.3h-16V448h1.9v2.5H591.5z M591.5,452.1h-12.1v2.6h12.1V452.1z"/>
	<path class="st2" d="M607.5,454.6h-9.3v-19.7h1.9v18.1h7.7c2.3,0,4.3-0.6,5.5-1.7v-16.6h1.9V456h-1.9v-3.3
		C612.3,453.9,610,454.6,607.5,454.6z"/>
	<path class="st2" d="M629.3,454.6H620V435h10.1v1.7h-8.2v16.2h7.7c2.2,0,4.1-0.6,5.2-1.6v-16.7h1.9v9h3.5v1.7h-3.5v10.8h-1.9v-3.2
		C633.8,454,631.7,454.6,629.3,454.6z"/>
	<path class="st2" d="M644.2,454.8H642v-2.9h2.3V454.8z"/>
</g>
<g>
	<path class="st2" d="M97.2,540.1h-2l0.5-10.4h9.4v1.8h-7.5l-0.3,6.6c0.6-1,1.8-1.7,3.4-1.7c3.2,0,5.4,2.2,5.4,6.3
		c0,3.9-2.2,6.2-5.8,6.2c-3.3,0-5.4-2-5.7-5.3h2c0.2,2.4,1.6,3.6,3.7,3.6c2.4,0,3.7-1.6,3.7-4.5c0-2.9-1.4-4.5-3.7-4.5
		C98.8,538.1,97.7,538.8,97.2,540.1z"/>
	<path class="st2" d="M114.9,537.3v3.3H113v-3.3h-4.8v-1.5h10c1.6,0,3.2-0.2,4.4-0.6v1.4c-1.4,0.6-3.4,0.6-5.4,0.6H114.9z
		 M109.1,531.3c0-1,0.5-1.7,1.2-2.1c1.1-0.7,2.8-1,4.5-1c1.7,0,3.4,0.3,4.5,1c0.8,0.5,1.2,1.2,1.2,2.1c0,0.9-0.5,1.6-1.2,2.1
		c-1.1,0.7-2.8,1-4.5,1c-1.8,0-3.5-0.3-4.5-1C109.6,532.9,109.1,532.2,109.1,531.3z M112.3,548.7h14.3v1.4h-16.2v-4.8h14v-2h-14
		v-1.4h16v4.9h-14V548.7z M111,531.3c0,0.4,0.2,0.7,0.6,1c0.7,0.5,2,0.6,3.3,0.6c1.3,0,2.6-0.1,3.4-0.6c0.4-0.2,0.6-0.6,0.6-1
		c0-0.4-0.2-0.7-0.6-1c-0.7-0.5-2-0.6-3.4-0.6c-1.4,0-2.6,0.2-3.3,0.6C111.2,530.6,111,530.9,111,531.3z M126.3,540.7h-1.9v-0.9h-5
		v-1.4h5v-10h1.9V540.7z"/>
	<path class="st2" d="M136.2,540.1v-1.7h19.3v1.7h-8.7v2.6c2.7,0.1,4.8,0.5,6.1,1.3c1.1,0.6,1.6,1.5,1.6,2.7c0,1.2-0.6,2-1.6,2.7
		c-1.5,0.9-3.8,1.2-7,1.2s-5.6-0.4-7.1-1.2c-1.1-0.6-1.6-1.5-1.6-2.7c0-1.2,0.6-2,1.6-2.7c1.3-0.8,3.4-1.2,6-1.2v-2.6H136.2z
		 M137.6,530.3v-1.7h16.4v1.7h-7.3v0.1c0,2.4,4.2,3.9,7.5,4.2v1.7c-3.4-0.3-7-1.6-8.5-3.5c-1.5,2-5.1,3.3-8.5,3.5v-1.7
		c3.4-0.2,7.5-1.8,7.5-4.2v-0.1H137.6z M139.1,546.6c0,0.6,0.3,1,0.8,1.3c1.1,0.6,3,1,5.9,1c2.9,0,4.8-0.3,5.9-1
		c0.6-0.3,0.8-0.8,0.8-1.3c0-0.5-0.3-1-0.8-1.3c-1.1-0.6-3-1-5.9-1c-2.9,0-4.8,0.3-5.9,1C139.4,545.6,139.1,546.1,139.1,546.6z"/>
	<path class="st2" d="M158.2,548.9v-1.7h19.1v1.7H158.2z M158.9,535c0-2,0.8-3.7,2.3-4.8c1.5-1.2,3.8-1.7,6.6-1.7s5,0.5,6.6,1.7
		c1.5,1.1,2.3,2.8,2.3,4.8c0,2-0.8,3.7-2.3,4.8c-1.6,1.2-3.8,1.7-6.6,1.7s-5-0.5-6.6-1.7C159.8,538.8,158.9,537,158.9,535z
		 M160.8,535c0,1.4,0.6,2.6,1.6,3.4c1.2,0.9,3,1.4,5.4,1.4c2.4,0,4.2-0.5,5.4-1.4c1-0.8,1.5-1.9,1.5-3.4s-0.5-2.6-1.5-3.4
		c-1.2-0.9-3-1.4-5.4-1.4c-2.4,0-4.2,0.5-5.4,1.4C161.4,532.4,160.8,533.6,160.8,535z"/>
	<path class="st2" d="M183.3,536.3v4.2h15.1v1.7h-7.7v5h8.5v1.7h-19.1v-1.7h8.6v-5h-7.5v-7.5h14.9v-4.2h-14.9v-1.7h16.8v7.5H183.3z"
		/>
	<path class="st2" d="M208.1,543.1v-1.7h19.1v1.7h-8.6v7.1h-1.9v-7.1H208.1z M224.1,533.6v-3.2h-15v-1.7H226v4.8
		c0,2.1-0.2,4.3-0.5,5.8h-1.9C223.9,537.6,224.1,535.5,224.1,533.6z"/>
	<path class="st2" d="M229.9,538.3v-1.6h19.3v1.6H229.9z M245.9,532.1v-1.8h-14.7v-1.7h16.6v3.4c0,1.1-0.1,2.3-0.3,3.2h-1.9
		C245.8,534.3,245.9,533.2,245.9,532.1z M233.3,546.2v2.4h15v1.6h-16.9v-5.5h14.5v-2.3h-14.5v-1.6h16.4v5.4H233.3z"/>
	<path class="st2" d="M258.5,528.6h10.9v1.7h-4.5v1.5c0,3.6,2.3,5.5,4.9,6.1v1.7c-2.6-0.6-4.8-2.1-5.8-4.1c-1,2.1-3.2,3.9-5.9,4.4
		v-1.7c2.7-0.6,4.8-2.7,4.8-6.4v-1.5h-4.5V528.6z M267.9,550.4c-2.6,0-5-0.4-6.6-1.4c-1.1-0.7-1.8-1.7-1.8-3c0-1.3,0.7-2.4,1.8-3.1
		c1.6-1,4-1.4,6.6-1.4s5.1,0.4,6.6,1.4c1.1,0.7,1.8,1.7,1.8,3.1c0,1.3-0.7,2.4-1.8,3C272.9,550,270.5,550.4,267.9,550.4z
		 M267.9,543.1c-2.2,0-4.2,0.3-5.4,1.1c-0.6,0.4-1,1-1,1.7c0,0.7,0.4,1.3,1,1.7c1.2,0.7,3.2,1.1,5.4,1.1c2.2,0,4.3-0.3,5.4-1.1
		c0.7-0.4,1.1-1,1.1-1.7c0-0.7-0.4-1.3-1.1-1.7C272.2,543.5,270.1,543.1,267.9,543.1z M275.8,540.6h-1.9v-5.9h-4.8v-1.7h4.8v-4.7
		h1.9V540.6z"/>
	<path class="st2" d="M280.2,530.3h3.4v-2.6h1.9v2.6h3.5v1.7h-3.5v1.5c0,3.2,1.6,4.8,3.8,5.4v1.8c-2.2-0.6-3.9-2-4.7-3.5
		c-0.8,1.6-2.5,3.2-4.8,3.8v-1.8c2.2-0.6,3.8-2.4,3.8-5.7V532h-3.4V530.3z M296.2,550.2v-5.6h-14.5v-1.7h16.4v7.3H296.2z
		 M298.1,541.1h-1.9v-5.8h-3.2v5.7h-1.8v-12.4h1.8v5h3.2v-5.2h1.9V541.1z"/>
	<path class="st2" d="M301.7,538.8v-1.6H321v1.6H301.7z M302.7,531.7c0-0.9,0.3-1.5,1.1-2.1c1.3-0.9,3.8-1.3,7.6-1.3
		s6.3,0.4,7.6,1.3c0.7,0.5,1.1,1.2,1.1,2.1c0,0.8-0.4,1.5-1.1,2c-1.3,0.9-3.8,1.3-7.6,1.3s-6.3-0.4-7.6-1.3
		C303.1,533.2,302.7,532.6,302.7,531.7z M305.1,546.4v2.2h15v1.6h-16.9v-5.3h14.5v-2.2h-14.5v-1.6h16.4v5.3H305.1z M304.7,531.7
		c0,0.4,0.2,0.7,0.6,0.9c0.9,0.6,2.9,0.8,6.2,0.8c3.3,0,5.3-0.2,6.2-0.8c0.4-0.2,0.6-0.6,0.6-0.9s-0.2-0.7-0.6-1
		c-0.9-0.6-2.9-0.8-6.2-0.8c-3.3,0-5.3,0.2-6.2,0.8C304.8,531,304.7,531.3,304.7,531.7z"/>
	<path class="st2" d="M331.9,532.9h6.5v-4.3h1.9v12H330v-12h1.9V532.9z M333.2,543.2v5.1h14.2v1.7h-16.2v-6.7H333.2z M338.4,538.9
		v-4.3h-6.5v4.3H338.4z M347,528.4v6.1h3.3v1.7H347v7.3h-1.9v-15.1H347z"/>
	<path class="st2" d="M352,533.8c0-1.8,0.6-3.3,1.7-4.2c1-0.8,2.3-1.3,3.9-1.3c1.6,0,2.9,0.5,3.8,1.3c0.3,0.3,0.6,0.6,0.9,1.1h5.4
		v-2.2h1.9v12.3h-1.9V537h-5.4c-0.3,0.4-0.6,0.7-0.9,1.1c-0.9,0.8-2.3,1.3-3.8,1.3c-1.6,0-2.9-0.5-3.9-1.3
		C352.6,537.1,352,535.7,352,533.8z M361.6,550.4c-2.6,0-5-0.4-6.6-1.4c-1.1-0.7-1.8-1.7-1.8-3c0-1.3,0.7-2.4,1.8-3.1
		c1.6-1,4-1.4,6.6-1.4s5.1,0.4,6.6,1.4c1.1,0.7,1.8,1.7,1.8,3.1c0,1.3-0.7,2.4-1.8,3C366.7,550,364.2,550.4,361.6,550.4z
		 M353.8,533.8c0,1.3,0.4,2.3,1.1,3c0.6,0.6,1.5,0.9,2.6,0.9c1.1,0,1.9-0.3,2.6-0.9c0.7-0.7,1.1-1.7,1.1-3s-0.4-2.3-1.1-3
		c-0.6-0.6-1.5-0.9-2.6-0.9c-1.1,0-1.9,0.3-2.6,0.9C354.2,531.5,353.8,532.5,353.8,533.8z M361.6,543.1c-2.2,0-4.2,0.3-5.4,1.1
		c-0.6,0.4-1,1-1,1.7c0,0.7,0.4,1.3,1,1.7c1.2,0.7,3.2,1.1,5.4,1.1c2.2,0,4.3-0.3,5.4-1.1c0.7-0.4,1.1-1,1.1-1.7
		c0-0.7-0.4-1.3-1.1-1.7C365.9,543.5,363.9,543.1,361.6,543.1z M362.9,532.2c0.1,0.5,0.2,1,0.2,1.6c0,0.6,0,1.1-0.2,1.6h4.8v-3.1
		H362.9z"/>
	<path class="st2" d="M378.4,527.7h1.9v3.3h5.2v1.7h-12.3V531h5.2V527.7z M374.2,541.8c0-2.7,0.7-4.7,2-5.8c0.8-0.7,2-1.1,3.3-1.1
		s2.4,0.4,3.3,1.1c1.3,1.1,2,3.1,2,5.8c0,2.7-0.7,4.7-2,5.8c-0.8,0.7-2,1.1-3.3,1.1s-2.4-0.4-3.3-1.1
		C374.9,546.5,374.2,544.6,374.2,541.8z M376.1,541.8c0,2.1,0.4,3.6,1.3,4.5c0.6,0.5,1.2,0.8,2.1,0.8c0.8,0,1.5-0.3,2.1-0.8
		c0.9-0.9,1.3-2.4,1.3-4.5c0-2.1-0.4-3.6-1.3-4.5c-0.6-0.5-1.2-0.8-2.1-0.8c-0.8,0-1.5,0.3-2.1,0.8
		C376.5,538.2,376.1,539.7,376.1,541.8z M390.9,528.4v9h3.5v1.7h-3.5v10.8H389v-21.5H390.9z"/>
	<path class="st2" d="M396.1,538.5c0-4,0.5-7,1.9-8.6c0.8-1,2.1-1.5,3.6-1.5c1.5,0,2.7,0.5,3.6,1.5c0.7,0.8,1.2,2,1.5,3.5h4.8v-5
		h1.9v21.5h-1.9v-6.7h-4.7c-0.3,1.7-0.8,3.1-1.6,4c-0.8,1-2.1,1.5-3.6,1.5c-1.5,0-2.7-0.5-3.6-1.5
		C396.6,545.5,396.1,542.5,396.1,538.5z M405.2,538.5c0-3.6-0.3-6.3-1.4-7.5c-0.5-0.6-1.2-1-2.2-1c-0.9,0-1.6,0.3-2.2,1
		c-1,1.2-1.4,3.9-1.4,7.5c0,3.6,0.4,6.3,1.4,7.5c0.6,0.6,1.3,0.9,2.2,0.9c0.9,0,1.7-0.3,2.2-0.9
		C404.8,544.8,405.2,542.2,405.2,538.5z M406.9,535c0.1,1.1,0.1,2.2,0.1,3.5c0,1.1,0,2-0.1,3h4.5V535H406.9z"/>
	<path class="st2" d="M423.4,548.9v-1.7h8.5v-6.8h1.9v6.8h8.6v1.7H423.4z M424.6,530.4v-1.7h16.8v1.7h-7.4v1.3
		c0,4.3,3.6,6.8,7.6,7.6v1.7c-3.9-0.7-7.1-2.7-8.6-5.4c-1.5,2.7-4.8,4.7-8.6,5.4v-1.7c4-0.8,7.7-3.3,7.7-7.6v-1.3H424.6z"/>
	<path class="st2" d="M445.9,531.3h4.8v-3.6h1.9v3.6h4.8v1.7h-4.8v4.3c0,5.5,2.5,8.2,5,9.4v1.8c-2.7-1.1-5-3.4-6-6
		c-0.9,2.6-3.3,5-6,6v-1.8c2.4-1.2,5-3.9,5-9.4v-4.3h-4.8V531.3z M463.2,528.4v21.5h-1.9v-21.5H463.2z"/>
	<path class="st2" d="M479.2,530.3h-9v3.2h9.1v1.6h-4.5v2.6h3.8c2.1,0,3.8-0.5,4.7-1.1v-8.1h1.9V540h-1.9v-2c-1,0.8-2.7,1.2-5.1,1.2
		h-11.1v-1.6h5.8V535h-4.5v-6.4h10.8V530.3z M471.2,548.6h14.3v1.4h-16.2v-5h14v-2.1h-14v-1.5h16v5h-14V548.6z"/>
	<path class="st2" d="M495.2,544.2v-1.7h19.1v1.7h-8.6v6h-1.9v-6H495.2z M504.7,533.6c-1.3,2.6-4.5,4.6-9.2,5.4v-1.7
		c4.8-0.9,8.2-3.4,8.2-7.6v-1.1h1.9v1.1c0,4.2,3.5,6.7,8.2,7.6v1.7C509.3,538.1,506.1,536.2,504.7,533.6z"/>
	<path class="st2" d="M523.4,533.8c0-1.9,0.6-3.4,1.7-4.3c1-0.8,2.3-1.3,3.9-1.3s2.9,0.4,3.8,1.3c1.2,0.9,1.8,2.4,1.8,4.3
		s-0.6,3.4-1.8,4.3c-0.9,0.8-2.3,1.3-3.8,1.3s-2.9-0.5-3.9-1.3C524,537.2,523.4,535.7,523.4,533.8z M533.1,550.1
		c-1.7-0.7-3.4-2.2-4.1-3.7c-0.8,1.5-2.8,3.1-5,3.7v-1.7c2.1-0.7,4-2.8,4-5.5v-0.9h1.9v0.9c0,2.5,1.5,4.5,3.1,5.4
		c1.7-1,3.2-3,3.2-5.4v-0.9h1.9v0.9c0,2.8,1.8,4.8,4,5.5v1.7c-2.2-0.6-4.2-2.2-5.1-3.7C536.4,547.9,534.8,549.4,533.1,550.1z
		 M525.3,533.8c0,1.3,0.4,2.3,1.1,3c0.6,0.6,1.5,0.9,2.6,0.9c1.1,0,1.9-0.3,2.6-0.9c0.7-0.7,1.1-1.7,1.1-3c0-1.3-0.4-2.3-1.1-3
		c-0.6-0.6-1.5-0.9-2.6-0.9c-1.1,0-1.9,0.3-2.6,0.9C525.7,531.5,525.3,532.5,525.3,533.8z M541,540.3h-1.9v-12h1.9V540.3z"/>
	<path class="st2" d="M563,530.4h-14.9v8.4h15v1.7h-7.6v6.7h8.5v1.7H545v-1.7h8.6v-6.7h-7.5v-11.7H563V530.4z"/>
	<path class="st2" d="M570.3,534.1v2.3h14.6v1.6h-7.4v2.5h8.7v1.6h-19.3v-1.6h8.7V538h-7.2v-5.5h14.5v-2.3h-14.5v-1.6h16.4v5.5
		H570.3z M582.8,550.2v-4.1h-14.7v-1.6h16.6v5.7H582.8z"/>
	<path class="st2" d="M94.3,588.5v-1.6h5.2v-2.2h1.9v2.2h5.1v1.6H94.3z M95,593.3c0-0.9,0.4-1.7,1.1-2.3c0.9-0.7,2.4-1.1,4.3-1.1
		c1.9,0,3.4,0.4,4.3,1.1c0.7,0.6,1.1,1.3,1.1,2.3c0,0.9-0.4,1.7-1.1,2.3c-0.9,0.7-2.4,1.1-4.3,1.1c-1.9,0-3.4-0.4-4.3-1.1
		C95.4,595,95,594.2,95,593.3z M98.3,605.6h14.1v1.5h-16v-5.1h13.8v-2.2H96.3v-1.5h15.7v5.2H98.3V605.6z M96.9,593.3
		c0,0.4,0.2,0.8,0.5,1.1c0.6,0.6,1.8,0.8,3,0.8c1.3,0,2.4-0.2,3.1-0.8c0.3-0.3,0.5-0.6,0.5-1.1c0-0.4-0.2-0.8-0.5-1.1
		c-0.6-0.5-1.8-0.8-3.1-0.8c-1.3,0-2.4,0.3-3,0.8C97,592.5,96.9,592.8,96.9,593.3z M112.1,590.3h3.3v1.7h-3.3v4.5h-1.9v-11.2h1.9
		V590.3z"/>
	<path class="st2" d="M123,595.5c0-5,0.5-7.8,1.8-9.2c0.6-0.6,1.4-0.9,2.4-0.9c1.1,0,1.9,0.3,2.5,0.9c0.8,0.8,1.2,2.1,1.5,4h3.1
		v-4.8h1.9v21.1h-1.9v-6.4h-3.1c-0.2,2.2-0.7,3.6-1.6,4.5c-0.6,0.6-1.4,0.9-2.5,0.9c-1,0-1.8-0.3-2.4-0.9
		C123.5,603.4,123,600.6,123,595.5z M124.8,595.5c0,4.5,0.3,6.9,1.1,7.9c0.3,0.4,0.7,0.6,1.2,0.6c0.5,0,1-0.2,1.3-0.6
		c0.9-1,1.2-3.4,1.2-7.9c0-4.5-0.3-6.9-1.2-7.9c-0.3-0.4-0.7-0.6-1.3-0.6c-0.5,0-0.9,0.2-1.2,0.6
		C125.1,588.6,124.8,591.1,124.8,595.5z M131.4,592c0.1,1,0.1,2.2,0.1,3.6c0,1.1,0,2.1-0.1,3h3V592H131.4z M140.8,606.8h-1.9v-21.5
		h1.9V606.8z"/>
	<path class="st2" d="M145.2,585.6h10.9v1.7h-4.5v1.5c0,3.6,2.3,5.5,4.9,6.1v1.7c-2.6-0.6-4.8-2.1-5.8-4.1c-1,2.1-3.2,3.9-5.9,4.4
		v-1.7c2.7-0.6,4.8-2.7,4.8-6.4v-1.5h-4.5V585.6z M154.6,607.4c-2.6,0-5-0.4-6.6-1.4c-1.1-0.7-1.8-1.7-1.8-3c0-1.3,0.7-2.4,1.8-3.1
		c1.6-1,4-1.4,6.6-1.4s5.1,0.4,6.6,1.4c1.1,0.7,1.8,1.7,1.8,3.1c0,1.3-0.7,2.4-1.8,3C159.6,607,157.2,607.4,154.6,607.4z
		 M154.6,600.1c-2.2,0-4.2,0.3-5.4,1.1c-0.6,0.4-1,1-1,1.7c0,0.7,0.4,1.3,1,1.7c1.2,0.7,3.2,1.1,5.4,1.1c2.2,0,4.3-0.3,5.4-1.1
		c0.7-0.4,1.1-1,1.1-1.7c0-0.7-0.4-1.3-1.1-1.7C158.9,600.5,156.8,600.1,154.6,600.1z M162.5,597.6h-1.9v-5.9h-4.8v-1.7h4.8v-4.7
		h1.9V597.6z"/>
	<path class="st2" d="M167.1,595.5c0-4,0.5-7,1.9-8.6c0.8-1,2.1-1.5,3.6-1.5c1.5,0,2.7,0.5,3.6,1.5c1.5,1.6,1.9,4.6,1.9,8.6
		c0,4-0.5,7-1.9,8.6c-0.8,1-2.1,1.5-3.6,1.5c-1.5,0-2.7-0.5-3.6-1.5C167.6,602.5,167.1,599.5,167.1,595.5z M176.2,595.5
		c0-3.6-0.3-6.3-1.4-7.5c-0.5-0.6-1.2-1-2.2-1c-0.9,0-1.6,0.3-2.2,1c-1,1.2-1.4,3.9-1.4,7.5c0,3.6,0.4,6.3,1.4,7.5
		c0.6,0.6,1.3,0.9,2.2,0.9c0.9,0,1.7-0.3,2.2-0.9C175.8,601.8,176.2,599.2,176.2,595.5z M184.4,585.4v21.5h-1.9v-21.5H184.4z"/>
	<path class="st2" d="M199.5,605.4h-10.2v-19.6h10.2v4.6h4.9v-5h1.9v21.5h-1.9v-6.7h-4.9V605.4z M197.6,603.7v-16.2h-6.4v16.2H197.6
		z M199.5,592v6.5h4.9V592H199.5z"/>
	<path class="st2" d="M210.8,607.6c0.9-0.1,1.3-0.6,1.3-1.6v-0.5H211v-2.9h2.3v3.2c0,1.8-0.8,2.6-2.5,2.8V607.6z"/>
	<path class="st2" d="M232.7,596H223v-10.4h10.3v1.7h-8.4v7h8.3c2.1,0,3.8-0.3,4.9-1.2v-7.8h1.9v5h3.3v1.7H240v5.5h-1.9v-2.8
		C237,595.7,235.2,596,232.7,596z M223.9,603c0-1.2,0.6-2.2,1.6-2.9c1.5-1.1,3.9-1.6,6.7-1.6c2.8,0,5.2,0.5,6.7,1.6
		c1,0.7,1.6,1.7,1.6,2.9s-0.6,2.2-1.6,3c-1.5,1-3.8,1.5-6.7,1.5c-2.8,0-5.2-0.5-6.7-1.5C224.5,605.2,223.9,604.2,223.9,603z
		 M225.9,603c0,0.7,0.4,1.3,1,1.7c1,0.7,2.9,1.1,5.3,1.1c2.4,0,4.3-0.3,5.4-1.1c0.6-0.5,1-1.1,1-1.7c0-0.7-0.3-1.3-1-1.7
		c-1.1-0.7-3-1.1-5.4-1.1c-2.4,0-4.3,0.4-5.3,1.1C226.2,601.7,225.9,602.3,225.9,603z"/>
	<path class="st2" d="M244.5,598.8v-1.6h19.3v1.6h-8.5v3.9h-1.9v-3.9H244.5z M247.9,588.4h12.6v-2.8h1.9v9.1H246v-9.1h1.9V588.4z
		 M247.9,601.3v4h14.9v1.7H246v-5.7H247.9z M260.5,593.1V590h-12.6v3.1H260.5z"/>
	<path class="st2" d="M275.1,587.3h-8.2v-1.7h10.2v1.2c0,7-4.1,10.5-10.7,11.4v-1.7C271.8,595.8,275.1,592.6,275.1,587.3z
		 M270.1,599.9v5.4h14.2v1.7h-16.2v-7H270.1z M283.9,585.4v6.1h3.3v1.7h-3.3v7.2H282v-15H283.9z"/>
	<path class="st2" d="M288.4,598.4v-1.7h19.3v1.7H288.4z M289.5,589.7c0-1.2,0.5-2.2,1.5-2.9c1.5-1.1,4-1.4,7.2-1.4
		c3.1,0,5.6,0.4,7.2,1.4c1,0.6,1.5,1.6,1.5,2.9s-0.5,2.2-1.5,2.9c-1.5,1.1-4,1.4-7.2,1.4c-3.1,0-5.7-0.4-7.2-1.4
		C290,591.9,289.5,590.9,289.5,589.7z M291.8,600.9v4.4h14.9v1.7h-16.8v-6.1H291.8z M291.4,589.7c0,0.7,0.3,1.3,1,1.7
		c1,0.7,3,1,5.8,1s4.7-0.3,5.8-1c0.6-0.4,1-1,1-1.7c0-0.7-0.3-1.3-1-1.7c-1.1-0.7-3-1-5.8-1s-4.7,0.3-5.8,1
		C291.7,588.4,291.4,589,291.4,589.7z"/>
	<path class="st2" d="M316.2,586.7h3v5.5h-3V586.7z"/>
	<path class="st2" d="M321.6,599h19.6v2.9H333v5.6h-3.3v-5.6h-8.1V599z M336.8,588.5v-3.1h3.3v11.5h-17.4v-11.5h3.3v3.1H336.8z
		 M336.8,591.3H326v2.8h10.8V591.3z"/>
	<path class="st2" d="M343.4,596.2h19.8v2.7h-19.8V596.2z M348.1,592.5H362v2.6h-17.2V589h13.8v-1h-13.8v-2.6h17v6.2h-13.8V592.5z
		 M344.8,607.4v-7.3h17v7.3H344.8z M358.6,602.8h-10.5v1.9h10.5V602.8z"/>
	<path class="st2" d="M372.7,592.4c0-1,0.5-1.7,1.4-2.2c1.4-0.8,3.8-1.2,7.1-1.2s5.7,0.4,7.1,1.2c0.9,0.5,1.4,1.2,1.4,2.2
		c0,0.9-0.5,1.6-1.4,2.2c-1.2,0.6-3,1-5.5,1.1v0.9h8.3v2.7h-19.8v-2.7h8.2v-0.9c-2.4-0.1-4.3-0.5-5.4-1.1
		C373.2,594,372.7,593.3,372.7,592.4z M379.6,585.9v-1.5h3.3v1.5h7.5v2.5h-18.3v-2.5H379.6z M372.7,607.4v-7.1h17v7.1H372.7z
		 M376,592.4c0,0.2,0.1,0.4,0.4,0.5c0.7,0.3,2.2,0.4,4.8,0.4s4.1-0.1,4.8-0.4c0.3-0.1,0.4-0.3,0.4-0.5c0-0.2-0.1-0.4-0.4-0.5
		c-0.7-0.3-2.2-0.4-4.8-0.4s-4.1,0.1-4.8,0.4C376.1,592,376,592.2,376,592.4z M386.5,603H376v1.7h10.5V603z"/>
	<path class="st2" d="M393.5,603h1.5v-14.7h-1.2v-2.7h9.9v2.7h-1.1v10.1c0,1.7-0.1,3.2-0.3,4.6c0.7,0,1.4-0.1,2-0.2v2.6
		c-0.9,0.3-2,0.4-3.1,0.4h-7.6V603z M398,603h1.2c0.2-1.3,0.2-2.8,0.2-4.5v-10.2H398V603z M403,593.5h1.8v-8.2h3.1v21.6h-3.1v-10.5
		H403V593.5z M409,607.2v-22h3.1v22H409z"/>
	<path class="st2" d="M427.3,595.6c0,3.9-0.3,6.8-1.7,8.6c-0.9,1.2-2.4,1.8-4.1,1.8c-1.7,0-3.2-0.6-4.1-1.8
		c-1.3-1.8-1.6-4.7-1.6-8.6c0-3.8,0.3-6.8,1.6-8.5c0.9-1.2,2.4-1.9,4.1-1.9c1.7,0,3.2,0.7,4.1,1.9
		C427,588.8,427.3,591.7,427.3,595.6z M419.1,595.6c0,3.3,0.2,5.7,0.9,6.8c0.4,0.5,0.9,0.8,1.6,0.8s1.3-0.3,1.6-0.8
		c0.7-1.1,0.9-3.5,0.9-6.8c0-3.2-0.1-5.7-0.9-6.7c-0.4-0.5-1-0.8-1.6-0.8s-1.2,0.3-1.6,0.8C419.2,589.9,419.1,592.3,419.1,595.6z
		 M433.8,607.2h-3.3v-22h3.3V607.2z"/>
	<path class="st2" d="M449.8,585.5v2.9h-4.4v4.9c0,6.2,2.1,8.2,4.6,9.4v3c-2.6-0.8-5-2.6-6.2-4.7c-1.2,2.1-3.6,3.9-6.2,4.7v-3
		c2.5-1.2,4.6-3.2,4.6-9.4v-4.9h-4.3v-2.9H449.8z M455.8,607.2h-3.3v-22h3.3V607.2z"/>
	<path class="st2" d="M459.3,586.7h3v5.5h-3V586.7z"/>
	<path class="st2" d="M464.6,595.1h19.8v2.5h-19.8V595.1z M469.3,591.8h13.9v2.4H466v-5.6h13.8v-0.8H466v-2.4h17v5.6h-13.8V591.8z
		 M469.3,605h14.3v2.4H466v-5.6h13.8v-0.9H466v-2.3h17v5.5h-13.8V605z"/>
	<path class="st2" d="M497.2,592.5h13.9v2.6H504v1.2h8.3v2.7h-19.8v-2.7h8.2v-1.2h-6.8v-9.7h17v2.6h-13.8v1h13.5v2.5h-13.5V592.5z
		 M493.5,603.8c0-1.4,0.9-2.4,2.3-3c1.6-0.7,4-0.9,6.6-0.9s5,0.2,6.6,0.9c1.4,0.6,2.3,1.6,2.3,3s-0.9,2.4-2.3,3
		c-1.6,0.7-4,0.9-6.6,0.9s-5-0.2-6.6-0.9C494.4,606.2,493.5,605.3,493.5,603.8z M496.8,603.8c0,0.3,0.2,0.6,0.7,0.8
		c0.9,0.4,2.7,0.5,4.9,0.5s4-0.1,5-0.5c0.4-0.2,0.7-0.4,0.7-0.8s-0.2-0.6-0.7-0.8c-0.9-0.4-2.7-0.5-5-0.5s-4,0.1-4.9,0.5
		C497.1,603.2,496.8,603.5,496.8,603.8z"/>
	<path class="st2" d="M517.9,584.5h3.3v3h3.1v2.9h-9.6v-2.9h3.2V584.5z M515.1,598.8c0-3.1,0.5-5.4,1.9-6.5c0.7-0.6,1.5-0.9,2.6-0.9
		s2,0.3,2.6,0.9c1.3,1.2,1.9,3.5,1.9,6.5s-0.5,5.4-1.9,6.5c-0.7,0.6-1.5,0.9-2.6,0.9s-2-0.3-2.6-0.9
		C515.7,604.1,515.1,601.8,515.1,598.8z M518.3,598.8c0,2.4,0.2,3.7,0.7,4.3c0.2,0.2,0.4,0.3,0.7,0.3s0.5-0.1,0.7-0.3
		c0.5-0.6,0.7-1.9,0.7-4.3c0-2.4-0.2-3.7-0.7-4.3c-0.2-0.2-0.4-0.3-0.7-0.3s-0.5,0.1-0.7,0.3C518.5,595,518.3,596.4,518.3,598.8z
		 M530.2,607.2v-10.7h-1.4v10.4h-3.1v-21.6h3.1v8.3h1.4v-8.4h3.1v22H530.2z"/>
	<path class="st2" d="M104.7,662.7h-9.6v-20.2h10.8v2.9h-7.6v14.5h7c1.8,0,3.1-0.3,3.8-0.9v-16.8h3.3v8.7h3.3v2.8h-3.3v10.5h-3.3
		v-2.5C108.4,662.3,106.8,662.7,104.7,662.7z"/>
	<path class="st2" d="M116.4,652.9h19.8v2.9h-8v3.8h-3.3v-3.8h-8.5V652.9z M117.4,646.8c0-1.3,0.5-2.3,1.4-3
		c1.6-1.3,4.5-1.6,7.6-1.6c3.1,0,5.9,0.3,7.6,1.6c0.9,0.7,1.4,1.7,1.4,3c0,1.3-0.5,2.3-1.4,3c-1.6,1.3-4.4,1.6-7.6,1.6
		c-3.1,0-5.9-0.3-7.6-1.6C117.9,649.1,117.4,648.1,117.4,646.8z M121.1,661.4h14.1v2.9h-17.4v-6.6h3.3V661.4z M120.7,646.8
		c0,0.5,0.2,0.8,0.6,1.1c0.9,0.6,2.6,0.8,5.1,0.8s4.2-0.2,5.1-0.8c0.4-0.3,0.6-0.6,0.6-1.1c0-0.5-0.2-0.8-0.6-1.1
		c-0.8-0.6-2.6-0.8-5.1-0.8s-4.2,0.2-5.1,0.8C120.9,645.9,120.7,646.3,120.7,646.8z"/>
	<path class="st2" d="M146.5,645.7v-3.3h3.2V654h-11v-11.6h3.2v3.3H146.5z M143.2,661.6h13.4v2.8h-16.7v-8.7h16.4v2.8h-13.1V661.6z
		 M146.5,648.5H142v2.8h4.5V648.5z M156.3,647h3v2.9h-3v4.8H153v-12.6h3.3V647z"/>
	<path class="st2" d="M172.2,652.6c0,3.9-0.3,6.8-1.7,8.6c-0.9,1.2-2.4,1.8-4.1,1.8s-3.2-0.6-4.1-1.8c-1.3-1.8-1.7-4.7-1.7-8.6
		c0-3.8,0.3-6.8,1.7-8.5c0.9-1.2,2.4-1.9,4.1-1.9s3.2,0.7,4.1,1.9C171.9,645.8,172.2,648.7,172.2,652.6z M164,652.6
		c0,3.3,0.1,5.7,0.9,6.8c0.4,0.5,1,0.8,1.6,0.8c0.7,0,1.2-0.3,1.6-0.8c0.7-1.1,0.9-3.5,0.9-6.8c0-3.2-0.2-5.7-0.9-6.7
		c-0.4-0.5-0.9-0.8-1.6-0.8c-0.7,0-1.3,0.3-1.6,0.8C164.1,646.9,164,649.3,164,652.6z M178.3,650.9h3.3v2.8h-3.3v10.5H175v-22h3.3
		V650.9z"/>
	<path class="st2" d="M182.4,655.9H202v2.9h-8.2v5.7h-3.3v-5.7h-8.1V655.9z M183.5,642.4h17.4v2.9h-7.1c0.3,3.4,3.5,5.3,7.2,6v2.9
		c-3.8-0.6-7-2-8.9-4.2c-1.9,2.2-5.1,3.7-8.9,4.2v-2.9c3.8-0.7,7-2.6,7.2-6h-7V642.4z"/>
	<path class="st2" d="M210.5,658c-1.1,2.2-3.7,3.9-6.4,4.7v-3c2.5-1.2,4.7-3.2,4.7-9.4v-7.9h3.3v7.9c0,6.2,2.2,8.2,4.7,9.4v3
		C214.2,661.9,211.7,660.1,210.5,658z M222.8,664.2h-3.3v-22h3.3V664.2z"/>
	<path class="st2" d="M234.6,647.3v-2H227v-2.9h10.8v4.4c0,8.4-3,14-11,16v-3.1C232.3,658.2,234.6,653.8,234.6,647.3z M244.7,664.2
		h-3.3v-22h3.3V664.2z"/>
	<path class="st2" d="M248.1,652.1H268v2.5h-19.8V652.1z M252.8,648.8h13.9v2.4h-17.2v-5.6h13.8v-0.8h-13.8v-2.4h17v5.6h-13.8V648.8
		z M252.8,662h14.3v2.4h-17.5v-5.6h13.8v-0.9h-13.8v-2.3h17v5.5h-13.8V662z"/>
	<path class="st2" d="M284.3,650v-7.5h3.2v20.2h-10.8v-20.2h3.3v7.5H284.3z M284.3,652.8H280v7h4.3V652.8z M294.1,650.9h3.3v2.8
		h-3.3v10.5h-3.3v-22h3.3V650.9z"/>
	<path class="st2" d="M308.2,654h-9.8v-7.2h7.7v-1.8h-7.7v-2.7h11v7.1h-7.7v1.8h7.4c1.8,0,2.9-0.2,3.6-0.8v-8.4h3.3v4.7h3v2.9h-3
		v4.8h-3.3v-1.5C312,653.7,310.7,654,308.2,654z M312.7,655.4h3.3v9h-16.4v-9h3.3v1.9h9.8V655.4z M302.9,660.1v1.5h9.8v-1.5H302.9z"
		/>
	<path class="st2" d="M330.8,662.7h-10v-20.3h3.3v17.5h7.4c1.8,0,3.1-0.3,3.8-0.9v-16.8h3.3v22h-3.3v-2.5
		C334.5,662.3,332.9,662.7,330.8,662.7z"/>
	<path class="st2" d="M352.2,662.7h-9.6v-20.2h10.8v2.9h-7.6v14.5h7c1.8,0,3.1-0.3,3.8-0.9v-16.8h3.3v8.7h3.3v2.8h-3.3v10.5h-3.3
		v-2.5C355.9,662.3,354.3,662.7,352.2,662.7z"/>
	<path class="st2" d="M367.8,662.6h-3.6V659h3.6V662.6z"/>
</g>
<g>
	<path class="st3" d="M92.7,724.1l3.2,2.1l-0.2-3.8h2.1l-0.2,3.8l3.2-2.1l1.1,1.8l-3.4,1.7l3.4,1.7l-1.1,1.8l-3.2-2.1l0.2,3.8h-2.1
		l0.2-3.8l-3.2,2.1l-1.1-1.8l3.4-1.7l-3.4-1.7L92.7,724.1z"/>
	<path class="st3" d="M106.5,735.3H104v-16.5h2.4V735.3z"/>
	<path class="st3" d="M109,727.1c0-4.4,1.2-8.5,6.4-8.5c5.1,0,6.4,4.1,6.4,8.5c0,4.4-1.3,8.5-6.4,8.5
		C110.2,735.6,109,731.5,109,727.1z M119.3,727.1c0-3.9-0.9-6.4-3.9-6.4c-3.1,0-4,2.5-4,6.4c0,4,0.9,6.4,4,6.4
		C118.4,733.4,119.3,731,119.3,727.1z"/>
	<path class="st3" d="M129.5,735.6c-3.5,0-5.7-2-5.7-4.8v-0.3h2.5v0.4c0,1.6,1.2,2.7,3.2,2.7c2,0,3.2-1.1,3.2-2.7
		c0-1.3-0.8-2.3-2.6-2.7l-2.1-0.4c-2.6-0.5-4.2-2-4.2-4.5c0-2.5,1.9-4.6,5.4-4.6c3.5,0,5.4,2.1,5.4,4.6v0.3h-2.5v-0.3
		c0-1.4-1-2.5-2.9-2.5c-1.9,0-2.9,1-2.9,2.5c0,1.4,0.8,2.1,2.5,2.5l2.1,0.4c2.8,0.6,4.3,2.1,4.3,4.7
		C135.2,733.5,133.1,735.6,129.5,735.6z"/>
	<path class="st3" d="M137.6,728.8v-2h17.2v2H137.6z M141.1,717.6v4.7h12.5v2h-14.8v-6.6H141.1z M141.1,730.6v4.1h12.7v2h-15v-6.1
		H141.1z"/>
	<path class="st3" d="M172.7,735.3h-8.3v-17.4h9.2v2h-6.9v13.4h6.4c1.7,0,3.1-0.4,3.9-1.1v-14.7h2.3v7.8h3v2h-3v9.3h-2.3v-2.5
		C176.3,734.8,174.7,735.3,172.7,735.3z"/>
	<path class="st3" d="M184,729.1v-2h17.2v2H194v3.5h-2.3v-3.5H184z M184.9,721.4c0-1.1,0.4-2,1.3-2.6c1.4-1,3.7-1.3,6.4-1.3
		s5.1,0.3,6.4,1.3c0.8,0.6,1.3,1.4,1.3,2.6c0,1.1-0.4,2-1.3,2.6c-1.4,1-3.7,1.3-6.4,1.3s-5.1-0.3-6.4-1.3
		C185.4,723.4,184.9,722.5,184.9,721.4z M187.6,731.1v3.6h12.7v2h-15v-5.5H187.6z M187.2,721.4c0,0.5,0.2,0.9,0.7,1.2
		c0.8,0.6,2.5,0.8,4.7,0.8c2.3,0,3.9-0.2,4.7-0.8c0.4-0.3,0.7-0.7,0.7-1.2c0-0.5-0.3-0.9-0.7-1.2c-0.8-0.6-2.5-0.8-4.7-0.8
		c-2.3,0-3.9,0.2-4.7,0.8C187.4,720.5,187.2,720.9,187.2,721.4z"/>
	<path class="st3" d="M207.6,724.9v3.1h12.9v2h-6.5v3.8h7.3v2h-16.9v-2h7.4v-3.8h-6.4v-7.1h12.6v-3h-12.6v-2h14.9v7H207.6z"/>
	<path class="st3" d="M224.5,735.7v-2h16.9v2H224.5z M240.4,719.8h-12.6v6.8h12.8v2h-15.1v-10.9h14.9V719.8z"/>
	<path class="st3" d="M258.2,721.9v-2.1h-7v-2h9.2v3.8c0,7.3-2.8,12.1-9.3,13.8v-2.2C256,731.9,258.2,727.9,258.2,721.9z
		 M266.1,717.5v7.8h3v2h-3v9.3h-2.3v-19H266.1z"/>
	<path class="st3" d="M270.8,727.6v-2h17.2v2H270.8z M271.7,733.4c0-1.3,0.7-2.1,1.7-2.7c1.4-0.8,3.5-1,6-1c2.4,0,4.6,0.3,6,1
		c1.1,0.6,1.7,1.4,1.7,2.7s-0.6,2.1-1.7,2.7c-1.4,0.8-3.5,1-6,1c-2.5,0-4.6-0.3-6-1C272.3,735.5,271.7,734.6,271.7,733.4z
		 M274.3,717.6v4.1h12.5v2H272v-6.1H274.3z M274,733.4c0,0.5,0.3,0.8,0.7,1.1c0.9,0.5,2.5,0.7,4.7,0.7c2.2,0,3.8-0.2,4.7-0.7
		c0.5-0.3,0.7-0.6,0.7-1.1c0-0.5-0.3-0.8-0.7-1.1c-0.9-0.5-2.5-0.7-4.7-0.7c-2.2,0-3.8,0.2-4.7,0.7C274.2,732.5,274,732.9,274,733.4
		z"/>
	<path class="st3" d="M301.5,720.6h-10.8v-1.9h4.3V717h2.3v1.8h4.2V720.6z M291.2,724.9c0-1,0.5-1.8,1.2-2.4c0.9-0.7,2.2-1,3.7-1
		c1.4,0,2.6,0.3,3.5,0.9c0.9,0.5,1.3,1.4,1.3,2.5c0,1.1-0.5,2-1.4,2.5c-0.9,0.6-2.1,0.9-3.5,0.9c-1.4,0-2.7-0.3-3.6-1
		C291.7,726.7,291.2,725.9,291.2,724.9z M304.2,731.1v-1.9h2.3v7.5h-14v-7.5h2.3v1.9H304.2z M293.4,724.9c0,0.4,0.2,0.8,0.5,1
		c0.5,0.4,1.2,0.6,2.2,0.6c0.8,0,1.5-0.1,2-0.5c0.4-0.3,0.7-0.6,0.7-1.1c0-0.4-0.2-0.8-0.6-1.1c-0.5-0.3-1.2-0.5-2.1-0.5
		c-0.9,0-1.7,0.2-2.1,0.6C293.6,724.2,293.4,724.5,293.4,724.9z M304.2,733.1h-9.5v1.8h9.5V733.1z M306.5,717.5v4.6h2.8v2h-2.8v4.2
		h-2.3v-10.8H306.5z"/>
	<path class="st3" d="M320.3,735.3h-8.4v-17.5h2.3v15.5h6.6c1.8,0,3.2-0.4,4.1-1.1v-14.6h2.3v19h-2.3V734
		C324,734.8,322.3,735.3,320.3,735.3z"/>
	<path class="st3" d="M340.1,735.3h-8.3v-17.4h9.2v2h-6.9v13.4h6.4c1.7,0,3.1-0.4,3.9-1.1v-14.7h2.3v7.8h3v2h-3v9.3h-2.3v-2.5
		C343.7,734.8,342.1,735.3,340.1,735.3z"/>
	<path class="st3" d="M351.7,724.1l3.2,2.1l-0.2-3.8h2.1l-0.2,3.8l3.2-2.1l1.1,1.8l-3.4,1.7l3.4,1.7l-1.1,1.8l-3.2-2.1l0.2,3.8h-2.1
		l0.2-3.8l-3.2,2.1l-1.1-1.8l3.4-1.7l-3.4-1.7L351.7,724.1z"/>
	<path class="st3" d="M90.9,737.9v-1h45.2v1H90.9z"/>
	<path class="st3" d="M136.1,737.9v-1h225.5v1H136.1z"/>
</g>
</svg>
